<svg width="33" height="34" viewBox="0 0 33 34" fill="none" xmlns="http://www.w3.org/2000/svg">
<path d="M8.29431 11.1595C7.62683 9.30755 7.63617 9.06774 8.40032 7.94409C8.66786 7.65115 9.10048 6.71268 9.66214 6.99394C10.377 7.3519 10.708 7.06384 11.9799 9.16969C13.222 11.2263 11.5092 12.1602 11.5092 12.1602C11.5092 12.1602 8.96178 13.0114 8.29431 11.1595Z" fill="black"/>
<path d="M8.3576 6.77476C7.76531 6.49155 7.98231 4.38768 8.5456 3.78168C8.7351 3.39125 9.12701 3.5303 9.11291 4.39805C9.09528 5.48274 9.35861 5.96089 9.41616 6.32699C9.47372 6.69308 9.02193 6.81143 8.3576 6.77476Z" fill="black"/>
<path d="M14.769 10.753C14.1015 8.9011 14.1062 8.33274 14.8704 7.20909C15.1379 6.91615 15.3451 6.1946 15.9656 6.09705C16.746 5.97436 17.3742 5.78148 18.1127 6.88842C19.4462 8.88707 18.2547 11.3819 18.2547 11.3819C18.2547 11.3819 15.4364 12.605 14.769 10.753Z" fill="black"/>
<path d="M16.2074 5.54064C15.6151 5.25744 16.2912 3.0814 16.8545 2.4754C17.2848 2.22048 17.8578 1.37687 17.5136 3.07734C17.2692 3.9164 17.2084 4.72678 17.266 5.09287C17.3235 5.45897 16.8717 5.57732 16.2074 5.54064Z" fill="black"/>
<path d="M7.06668 18.496C7.06668 18.496 4.22165 22.7551 4.05404 24.954C5.0829 28.5169 8.57804 34.5248 14.3277 30.0526C20.0344 28.9651 19.3717 30.3068 21.7127 30.7484C24.0536 31.19 29.3858 27.9508 26.9825 22.0014C26.92 20.3771 25.409 16.7 19.8656 14.9856C12.9363 12.8426 7.06668 18.496 7.06668 18.496Z" fill="black"/>
<path d="M1.69998 14.1378C1.00228 12.2971 2.31916 9.56485 3.06481 8.42884C3.32752 8.13156 4.00663 7.66118 4.62136 8.15794C5.38978 8.7789 5.67256 9.86171 6.5945 12.72C7.33206 15.0066 4.56269 17.0357 4.56269 17.0357C4.56269 17.0357 2.39767 15.9786 1.69998 14.1378Z" fill="black"/>
<path d="M1.72526 9.13359C1.12841 8.86012 1.58904 6.2329 1.89396 4.95347C2.07704 4.55999 2.44323 3.99 2.44333 4.85786C2.44347 5.9427 3.09654 7.52708 3.11247 7.61864C3.12841 7.7102 2.47131 9.47543 1.72526 9.13359Z" fill="black"/>
<path d="M27.302 13.2669C26.9477 13.9417 26.4701 14.4494 26.4443 15.1142L26.2592 15.9482L26.3867 16.6807C27.0742 17.0171 28.5883 17.5145 29.1456 16.8138C29.7029 16.1131 29.9872 13.79 29.179 12.9402C28.6952 12.5999 27.5612 12.7731 27.302 13.2669Z" fill="black"/>
<path d="M29.0276 12.0704C28.6789 12.0179 28.3395 11.6398 28.2134 11.4574C28.3016 10.6088 28.4874 8.96645 28.5257 9.1862C29.4014 8.79794 29.4635 12.136 29.0276 12.0704Z" fill="black"/>
<path d="M25.3071 9.935C25.7014 11.6588 23.6514 13.4305 21.9773 13.2974C21.2369 13.3792 20.9308 11.982 20.8704 11.2732C20.8092 10.5606 20.8653 8.85906 21.5786 7.75384C22.2918 6.64862 23.4018 7.02775 23.8676 7.35547C24.216 7.64074 24.9916 8.55601 25.3071 9.935Z" fill="black"/>
<path d="M24.0048 6.24673C23.8663 6.53497 23.1469 6.28598 22.8045 6.12545C23.0632 4.90125 22.5018 4.38577 22.5992 3.04812C23.8352 2.833 24.178 5.88642 24.0048 6.24673Z" fill="black"/>
</svg>
