<svg width="21" height="20" viewBox="0 0 21 20" fill="none" xmlns="http://www.w3.org/2000/svg">
<path d="M10.161 0.00653458C10.2318 0.0214729 10.3383 0.0792351 10.416 0.144964C10.665 0.354101 10.9169 0.837107 11.0275 1.31314L11.0494 1.40874L11.1161 1.4207C11.5314 1.49041 12.3898 1.92661 13.074 2.41559C13.3837 2.63667 13.7373 2.95735 13.8667 3.13362C14.0211 3.34376 14.0789 3.51704 14.036 3.64352C14.0251 3.67539 14.0261 3.68435 14.044 3.71821C14.0779 3.78593 14.1725 3.87855 14.4075 4.07474C14.534 4.1803 14.6943 4.31873 14.764 4.38247C15.016 4.61252 15.252 4.89734 15.4203 5.17221C15.4442 5.21105 15.4761 5.25088 15.492 5.25984C15.507 5.26881 15.5458 5.29868 15.5777 5.32458C15.6384 5.37537 15.6882 5.45603 15.6882 5.50284C15.6872 5.60542 15.5378 5.73488 15.269 5.86734C15.2052 5.89921 15.1903 5.91116 15.1704 5.949C15.1206 6.04162 14.9682 6.15216 14.783 6.22685C14.6704 6.27266 14.5021 6.32047 14.4523 6.32047C14.4364 6.32047 14.4145 6.33042 14.4005 6.34437C14.3557 6.38918 14.3099 6.39516 14.0351 6.39416C13.8468 6.39416 13.6795 6.3852 13.3877 6.36229C13.1716 6.34536 12.9117 6.32644 12.8101 6.31947C12.588 6.30652 12.0931 6.30354 11.9327 6.31449L11.8172 6.32246L11.7943 6.36229C11.7714 6.40312 11.628 6.59931 11.621 6.59931C11.619 6.59931 11.623 6.5784 11.631 6.55151C11.6489 6.48877 11.6638 6.39018 11.6549 6.39018C11.6509 6.39018 11.62 6.4081 11.5862 6.43001C11.5145 6.47682 11.4965 6.50769 11.4208 6.72878C11.3691 6.88215 11.3521 6.91501 11.3601 6.84829C11.3631 6.82339 11.3691 6.75965 11.372 6.70587C11.378 6.6262 11.377 6.60927 11.3651 6.60927C11.3452 6.60927 11.3133 6.66405 11.1988 6.8931C11.143 7.00364 11.0882 7.10224 11.0763 7.1122L11.0544 7.13211L11.0613 7.05045C11.0643 7.00564 11.0703 6.96082 11.0743 6.95086C11.0783 6.93792 11.0773 6.93592 11.0693 6.9429C11.0633 6.94788 11.0404 6.99468 11.0185 7.04647C10.9508 7.20282 10.9279 7.22174 10.9279 7.12216C10.9279 7.02655 10.899 7.04049 10.8253 7.16896C10.7835 7.24166 10.7397 7.36615 10.654 7.64699C10.6182 7.7645 10.5992 7.79438 10.5992 7.73064C10.5992 7.65396 10.5684 7.64201 10.5395 7.70674C10.5126 7.7655 10.5136 7.85712 10.5405 7.92982C10.5524 7.96069 10.5943 8.02742 10.6351 8.08219C10.9458 8.48652 10.9996 8.56221 10.9846 8.57814C10.9807 8.58213 10.9637 8.57715 10.9488 8.56818C10.9159 8.54926 10.898 8.54628 10.898 8.56121C10.898 8.56619 10.9249 8.614 10.9578 8.66777C11.0215 8.77035 11.0324 8.81019 10.9976 8.81019C10.9856 8.81019 10.9627 8.80321 10.9468 8.79425C10.9299 8.78628 10.9119 8.78031 10.906 8.7823C10.901 8.78429 10.9827 8.87492 11.0882 8.98447C11.1938 9.09302 11.2745 9.18464 11.2685 9.18663C11.2615 9.18862 11.2416 9.18564 11.2247 9.17966C11.2077 9.17369 11.1808 9.1687 11.1659 9.1687C11.141 9.1687 11.137 9.17269 11.137 9.19559C11.137 9.21153 11.151 9.25834 11.1679 9.30116C11.2018 9.38979 11.2018 9.41668 11.1689 9.43361C11.1261 9.45452 11.1241 9.46249 11.145 9.5093C11.1549 9.5332 11.2167 9.6308 11.2804 9.72541C11.3452 9.82002 11.3999 9.90367 11.4029 9.91164C11.4069 9.92259 11.4009 9.92458 11.377 9.9196C11.3462 9.91263 11.3452 9.91363 11.3521 9.94151C11.3551 9.95745 11.394 10.0441 11.4378 10.1347C11.4925 10.2492 11.5294 10.313 11.5593 10.3439C11.6668 10.4574 11.7674 10.5988 11.7794 10.6536C11.7843 10.6745 11.7794 10.7034 11.7644 10.7432L11.7415 10.802L11.7724 10.8647C11.8043 10.9294 11.86 11.0001 11.9835 11.1356C12.0582 11.2172 12.116 11.2989 12.1269 11.3358C12.1309 11.3497 12.1269 11.3636 12.116 11.3746C12.102 11.3895 12.0871 11.3915 12.0303 11.3865C11.9795 11.3826 11.9636 11.3836 11.9666 11.3925C11.9686 11.3995 12.0164 11.4393 12.0741 11.4822C12.1986 11.5758 12.2544 11.6276 12.2504 11.6485C12.2474 11.6604 12.2255 11.6644 12.1399 11.6684C12.0811 11.6724 12.0283 11.6793 12.0224 11.6853C12.0154 11.6923 12.0234 11.7182 12.0522 11.7739C12.0841 11.8377 12.12 11.8825 12.2365 12.006C12.3161 12.0906 12.3819 12.1643 12.3819 12.1693C12.3819 12.1743 12.359 12.1594 12.3321 12.1365C12.3042 12.1126 12.2793 12.0956 12.2773 12.0986C12.2743 12.1006 12.3221 12.1584 12.3829 12.2271C12.5143 12.3735 12.5611 12.4402 12.5611 12.477C12.5611 12.5089 12.5323 12.5209 12.4755 12.5119L12.4416 12.5059L12.4745 12.5657C12.4994 12.6105 12.5323 12.6463 12.602 12.7031C12.7882 12.8585 12.8231 12.9132 12.7255 12.9003C12.7006 12.8963 12.6806 12.8963 12.6806 12.8993C12.6806 12.9212 12.7772 13.0547 12.8081 13.0746C12.8649 13.1124 12.9585 13.2021 12.9754 13.2329C12.9884 13.2588 12.9884 13.2648 12.9744 13.2907C12.9595 13.3196 12.9605 13.3206 13.0362 13.4182C13.078 13.4719 13.1437 13.5526 13.1826 13.5974L13.2533 13.6801H13.3339C13.6447 13.6801 13.9882 13.8165 14.7172 14.2298C15.0947 14.4429 15.3058 14.5594 15.4383 14.6262L15.5388 14.676L15.6165 14.657C15.6583 14.6461 15.7958 14.6192 15.9223 14.5963C16.4023 14.5106 16.5925 14.4539 16.7459 14.3493C16.8992 14.2457 17.0586 14.187 17.201 14.183C17.2687 14.182 17.3145 14.174 17.3563 14.1591C17.434 14.1312 17.5177 14.1223 17.5645 14.1382C17.6063 14.1521 17.6043 14.1631 17.5585 14.172C17.5127 14.181 17.4201 14.2278 17.4261 14.2378C17.429 14.2428 17.4818 14.2447 17.5436 14.2408C17.6651 14.2348 17.7656 14.2517 17.8025 14.2856C17.8204 14.3015 17.8204 14.3025 17.7975 14.3085C17.7856 14.3125 17.7497 14.3155 17.7188 14.3165C17.689 14.3174 17.6402 14.3244 17.6113 14.3334L17.5595 14.3483L17.5794 14.3802C17.5973 14.4081 17.6063 14.4131 17.6581 14.419C17.7726 14.432 17.8433 14.4628 17.8772 14.5146L17.8931 14.5385L17.8125 14.5316C17.7597 14.5266 17.7198 14.5286 17.6969 14.5355C17.6671 14.5455 17.6621 14.5525 17.6561 14.5873C17.6352 14.7178 17.4988 14.8652 17.0874 15.2028C16.711 15.5125 16.5865 15.6171 16.4332 15.7535C16.3465 15.8302 16.2758 15.8959 16.2758 15.8999C16.2758 15.9049 16.3375 15.9577 16.4122 16.0174C16.7817 16.3142 17.0616 16.616 17.4609 17.1468C17.8473 17.6606 17.9409 17.7642 18.0863 17.8369C18.16 17.8738 18.2068 17.8777 18.402 17.8588C18.8462 17.818 19.374 17.813 19.6568 17.8469C19.9636 17.8847 20.1966 17.9524 20.346 18.048C20.4137 18.0909 20.4914 18.1636 20.5193 18.2074C20.5312 18.2283 20.5482 18.2412 20.5601 18.2412C20.593 18.2412 20.7583 18.3 20.8141 18.3319C20.9137 18.3896 21.0182 18.4922 20.9973 18.5131C20.9923 18.5181 20.9605 18.5161 20.9196 18.5071C20.83 18.4862 20.6358 18.4653 20.6149 18.4733C20.6019 18.4783 20.598 18.4922 20.598 18.5291C20.598 18.5559 20.596 18.5848 20.593 18.5918C20.589 18.6018 20.6059 18.6187 20.6398 18.6416C20.7125 18.6894 20.7922 18.7631 20.827 18.8139C20.8619 18.8647 20.8748 18.9075 20.8569 18.9184C20.8509 18.9224 20.7981 18.9105 20.7404 18.8916C20.6726 18.8697 20.6129 18.8577 20.5701 18.8557C20.5053 18.8537 20.5043 18.8537 20.4854 18.8876L20.4655 18.9204L20.5093 18.9573C20.6189 19.0479 20.7175 19.1834 20.7175 19.2441C20.7175 19.2869 20.7055 19.2869 20.5651 19.2411C20.5043 19.2222 20.4197 19.2013 20.3769 19.1943C20.3042 19.1844 20.2972 19.1844 20.2793 19.2033C20.2594 19.2222 20.2594 19.2232 20.3181 19.265C20.4097 19.3317 20.4784 19.4303 20.4824 19.4991C20.4834 19.5289 20.4814 19.5309 20.4536 19.5289C20.4366 19.5289 20.344 19.511 20.2464 19.4911C20.1488 19.4712 20.0622 19.4572 20.0542 19.4602C20.0442 19.4642 20.0602 19.4851 20.108 19.5329C20.2325 19.6554 20.2952 19.7819 20.2394 19.7998C20.2145 19.8078 20.2016 19.8038 20.0602 19.744C19.9974 19.7181 19.9168 19.6913 19.8809 19.6853L19.8162 19.6733L19.7574 19.7092C19.626 19.7889 19.4537 19.8247 19.2017 19.8247C18.7984 19.8247 18.3851 19.7361 17.4609 19.4512C17.0606 19.3278 16.8863 19.281 16.7857 19.269C16.72 19.261 16.714 19.262 16.714 19.279C16.714 19.3228 16.6413 19.3078 16.476 19.2312C16.3903 19.1913 16.2599 19.1475 16.2818 19.1664C16.2868 19.1704 16.3097 19.1883 16.3326 19.2063C16.3764 19.2391 16.3883 19.267 16.3595 19.267C16.3326 19.267 16.1513 19.2033 15.9462 19.1226C15.6335 18.9981 15.5279 18.9663 15.5588 19.0031C15.5657 19.0111 15.6105 19.0469 15.6593 19.0838C15.7081 19.1196 15.748 19.1545 15.748 19.1595C15.748 19.1863 15.5966 19.1316 15.1355 18.9414C14.8318 18.8149 14.7322 18.776 14.7322 18.784C14.7322 18.786 14.763 18.8069 14.8009 18.8288C14.8397 18.8517 14.8766 18.8776 14.8835 18.8856C14.8945 18.8995 14.8925 18.9005 14.8616 18.8936C14.8039 18.8806 14.6445 18.8238 14.28 18.6834C14.0888 18.6097 13.9305 18.552 13.9285 18.554C13.9255 18.5559 13.9385 18.5659 13.9574 18.5749C14.0241 18.6087 14.0749 18.6446 14.0749 18.6585C14.0749 18.6794 14.0062 18.6675 13.7423 18.5998C13.4784 18.533 13.4375 18.5251 13.4375 18.539C13.4375 18.553 13.4793 18.5798 13.6088 18.6486C13.7363 18.7163 13.7751 18.7432 13.7632 18.7551C13.7552 18.7641 13.5421 18.7103 13.2383 18.6247C13.0471 18.5699 12.9197 18.547 12.9197 18.5669C12.9197 18.5729 12.9525 18.5988 12.9914 18.6257C13.0571 18.6695 13.0611 18.6745 13.0382 18.6774C13.0232 18.6794 12.8798 18.6376 12.7195 18.5848C12.4596 18.4992 12.3321 18.4663 12.3321 18.4832C12.3321 18.4862 12.352 18.5002 12.3769 18.5141C12.4018 18.5291 12.4217 18.545 12.4217 18.55C12.4217 18.5629 12.4167 18.5629 12.3311 18.541C12.1817 18.5032 12.1429 18.5032 12.1429 18.543C12.1429 18.5549 12.1538 18.5818 12.1678 18.6018C12.1917 18.6366 12.1986 18.6595 12.1877 18.6595C12.1737 18.6595 12.0672 18.5998 11.9278 18.5141C11.7634 18.4135 11.7027 18.3807 11.6838 18.3807C11.6768 18.3807 11.7176 18.4275 11.7724 18.4842C11.8282 18.542 11.874 18.5938 11.874 18.5988C11.874 18.6326 11.8043 18.6008 11.4647 18.4125C11.3611 18.3558 11.2824 18.3189 11.2555 18.3149C11.2137 18.308 11.2127 18.309 11.2276 18.3269C11.3342 18.4564 11.3471 18.4793 11.3213 18.5002C11.3013 18.5171 11.2505 18.5081 11.1211 18.4663L11.0195 18.4335L11.0006 18.4892L10.9827 18.545L10.8572 18.55L10.7317 18.5549L10.6082 18.6177C10.4628 18.6914 10.4319 18.6984 10.3592 18.6745C10.2885 18.6506 10.2118 18.6525 10.1152 18.6804C10.0097 18.7103 9.87921 18.7113 9.76568 18.6814C9.64319 18.6486 9.60435 18.6545 9.53165 18.7153C9.46193 18.773 9.3255 18.8009 9.11537 18.7999C8.87934 18.7989 8.63435 18.7581 8.39633 18.6784C7.94818 18.5291 7.62054 18.2821 7.4363 17.9554C7.3885 17.8698 7.3875 17.8688 7.30783 17.8578L7.25803 17.8509L7.31579 17.9106C7.37057 17.9684 7.38451 17.9923 7.3626 17.9923C7.34567 17.9923 7.24409 17.9385 7.15048 17.8797C7.06882 17.828 7.05686 17.823 6.95927 17.809C6.79993 17.7851 6.8059 17.7792 6.88059 17.8887C6.91644 17.9415 6.94333 17.9873 6.93935 17.9903C6.93138 17.9992 6.84972 17.9156 6.79495 17.8419L6.74615 17.7772L6.65751 17.7652C6.60872 17.7582 6.5639 17.7533 6.55892 17.7533C6.55295 17.7533 6.54597 17.7861 6.54299 17.827C6.53701 17.9136 6.52406 17.9425 6.4922 17.9425C6.46531 17.9425 6.37866 17.8548 6.3229 17.7712C6.30198 17.7403 6.27609 17.7124 6.26414 17.7104C6.22729 17.7015 6.04703 17.6806 6.04405 17.6845C6.04205 17.6865 6.04504 17.7284 6.05002 17.7782C6.05401 17.827 6.056 17.8787 6.05301 17.8917L6.04703 17.9156L6.02413 17.8937C6.01118 17.8817 5.97732 17.825 5.94844 17.7672C5.91956 17.7094 5.89068 17.6606 5.8847 17.6587C5.87873 17.6567 5.85682 17.6527 5.83591 17.6497L5.79906 17.6447L5.79806 17.7662C5.79707 18.0939 5.74229 18.0889 5.54909 17.7433C5.50925 17.6716 5.46942 17.6089 5.46046 17.6039C5.45249 17.5999 5.41265 17.5929 5.37282 17.5889L5.30111 17.582V17.6796C5.30111 17.7343 5.29813 17.7881 5.29514 17.8011C5.28219 17.8489 5.24734 17.819 5.17663 17.6985C5.12584 17.6118 5.086 17.564 5.06509 17.564C5.04915 17.564 5.02924 17.6069 5.00832 17.6845C4.9894 17.7513 4.95952 17.7931 4.92865 17.7931C4.88782 17.7931 4.81811 17.7373 4.72549 17.6308C4.58806 17.4734 4.55619 17.4545 4.52233 17.5142C4.51336 17.5302 4.49345 17.5461 4.47951 17.5501C4.43768 17.5601 4.35601 17.5372 4.25941 17.4884C4.18671 17.4525 4.14688 17.4396 4.03733 17.4186C3.94272 17.4017 3.90089 17.3967 3.89193 17.4047C3.86604 17.4256 3.85508 17.5053 3.86305 17.6158C3.86703 17.6885 3.86604 17.7234 3.85907 17.7234C3.84413 17.7234 3.80131 17.6656 3.71765 17.5342C3.60312 17.3519 3.54437 17.2892 3.51449 17.3141C3.50652 17.321 3.49457 17.3489 3.4886 17.3778C3.46868 17.4615 3.45175 17.4943 3.42984 17.4943C3.40096 17.4943 3.33921 17.4366 3.27847 17.3519C3.13207 17.1507 3.13008 17.1488 3.06833 17.1209C3.03547 17.1059 3.00559 17.097 3.0026 17.101C2.99862 17.1049 2.99165 17.1259 2.98567 17.1488C2.98069 17.1707 2.97074 17.1906 2.96376 17.1926C2.95779 17.1946 2.93389 17.1727 2.91098 17.1438C2.88808 17.1149 2.86119 17.086 2.85222 17.079C2.84227 17.0731 2.82633 17.0492 2.81637 17.0273C2.80143 16.9934 2.7845 16.9785 2.71778 16.9396C2.67296 16.9147 2.57537 16.851 2.49868 16.8002C2.423 16.7484 2.34034 16.6996 2.31544 16.6906C2.23975 16.6658 2.19394 16.6309 2.06448 16.4974C1.89916 16.3291 1.87924 16.3202 1.87327 16.4088L1.87028 16.4536L1.78862 16.2933C1.71193 16.1419 1.66512 16.0702 1.6462 16.0702C1.64122 16.0702 1.63525 16.1041 1.63127 16.1449C1.62629 16.1937 1.62031 16.2196 1.61234 16.2166C1.59442 16.2106 1.56056 16.1439 1.50578 16.0055C1.44703 15.8591 1.42213 15.8063 1.39624 15.7724C1.37831 15.7495 1.37731 15.7505 1.3803 15.8451C1.3813 15.9019 1.37831 15.9407 1.37234 15.9417C1.3574 15.9447 1.3076 15.8481 1.22096 15.648C1.1393 15.4567 1.09548 15.3801 1.06461 15.3751C1.04668 15.3711 1.04568 15.3761 1.05265 15.4388C1.05664 15.4767 1.06162 15.5384 1.06361 15.5772C1.06759 15.634 1.0666 15.64 1.05863 15.6121C1.05365 15.5932 1.04469 15.5165 1.03971 15.4428C1.03373 15.3691 1.02477 15.2835 1.0178 15.2536C1.00684 15.2018 0.980951 15.148 0.971987 15.158C0.969995 15.16 0.958046 15.2137 0.945099 15.2775C0.932152 15.3412 0.919205 15.397 0.915222 15.4C0.894308 15.4209 0.872398 15.3203 0.844515 15.0743C0.826588 14.918 0.811649 14.8383 0.7997 14.8303C0.788744 14.8234 0.785757 14.8353 0.760859 14.9877C0.749905 15.0524 0.738951 15.1082 0.735962 15.1122C0.712061 15.1351 0.691147 15.0355 0.655294 14.7208C0.618448 14.4051 0.613468 14.3832 0.611477 14.5465C0.610481 14.6202 0.605501 14.6989 0.601517 14.7208C0.59355 14.7596 0.59355 14.7596 0.583591 14.7357C0.577616 14.7218 0.55969 14.6172 0.541763 14.5037C0.494957 14.1969 0.481014 14.179 0.461098 14.3971C0.455122 14.4658 0.448151 14.5226 0.446159 14.5246C0.439188 14.5316 0.431221 14.4499 0.421261 14.2677C0.408316 14.0486 0.388397 13.8922 0.371468 13.8753C0.354538 13.8593 0.336611 13.8882 0.305738 13.9828C0.2908 14.0276 0.274866 14.0675 0.269886 14.0735C0.262915 14.0804 0.261919 13.9978 0.267895 13.8295C0.276857 13.5546 0.274866 13.451 0.262915 13.4381C0.249969 13.4251 0.227064 13.463 0.191212 13.5546C0.155359 13.6452 0.144405 13.6622 0.130463 13.6542C0.118511 13.6462 0.122496 13.5954 0.163326 13.2369C0.17926 13.0945 0.192207 12.9481 0.192207 12.9113C0.192207 12.8097 0.170298 12.8216 0.122496 12.9491C0.106562 12.9929 0.0936146 13.0248 0.0926189 13.0218C0.0926189 13.0178 0.108553 12.9541 0.127474 12.8794C0.165318 12.733 0.172289 12.6444 0.147392 12.6444C0.139425 12.6444 0.107557 12.6772 0.076685 12.7161C0.0448151 12.7559 0.0179272 12.7908 0.0159359 12.7927C0.0139427 12.7947 0.00996017 12.7947 0.00697136 12.7908C-0.000995636 12.7828 0.0219097 12.7131 0.108553 12.488C0.149384 12.3824 0.182249 12.2928 0.182249 12.2888C0.182249 12.2848 0.170298 12.2988 0.156355 12.3207C0.119507 12.3755 0.0816631 12.4153 0.0707092 12.4093C0.0537796 12.3984 0.0637379 12.2938 0.102577 12.1086C0.145401 11.8994 0.160339 11.7739 0.145401 11.765C0.139425 11.761 0.114529 11.7909 0.0896301 11.8307C0.0647335 11.8705 0.0338612 11.9124 0.0219097 11.9223L1.90735e-06 11.9423L0.0079689 11.9174C0.0209141 11.8735 0.0836563 11.7779 0.110544 11.76C0.146397 11.7381 0.153368 11.7271 0.20615 11.6276C0.246981 11.5509 0.262915 11.4991 0.245985 11.4991C0.235031 11.4991 0.177269 11.5419 0.109549 11.6017C0.0727005 11.6345 0.0408325 11.6594 0.0388412 11.6574C0.0368481 11.6554 0.0985947 11.5758 0.176273 11.4812C0.31271 11.3148 0.360512 11.2461 0.348562 11.2342C0.341591 11.2272 0.315697 11.2411 0.204159 11.3129C0.060751 11.4045 0.0677204 11.3836 0.239014 11.1953C0.356529 11.0659 0.431221 10.9752 0.431221 10.9603C0.431221 10.9394 0.389393 10.9553 0.282833 11.0171C0.221088 11.0529 0.163326 11.0808 0.154364 11.0788C0.144405 11.0768 0.188223 11.03 0.277853 10.9464C0.510891 10.7283 0.555706 10.6844 0.54973 10.6775C0.545748 10.6745 0.496948 10.6944 0.441179 10.7223C0.328644 10.7771 0.311714 10.781 0.311714 10.7542C0.311714 10.7332 0.369476 10.6635 0.527822 10.4942C0.638365 10.3767 0.71007 10.2851 0.71007 10.2612C0.71007 10.2413 0.628407 10.2642 0.506908 10.319C0.437197 10.3498 0.377443 10.3727 0.373459 10.3688C0.365492 10.3608 0.412298 10.318 0.580605 10.1795C0.751896 10.0391 0.785757 10.0082 0.77779 10.0003C0.774801 9.99728 0.704094 10.0282 0.621435 10.071C0.538776 10.1128 0.468069 10.1447 0.464085 10.1407C0.454126 10.1307 0.520851 10.065 0.655294 9.95247C0.930161 9.72242 0.937132 9.69852 0.691147 9.82101C0.609484 9.86184 0.535789 9.8957 0.529814 9.8957C0.506908 9.8957 0.563673 9.84591 0.725008 9.72341C0.883354 9.60291 0.988918 9.51229 0.988918 9.49536C0.988918 9.48141 0.943108 9.49735 0.7997 9.5581C0.726004 9.58997 0.663263 9.61387 0.66127 9.61088C0.651312 9.60192 0.701107 9.56208 0.854473 9.45751C0.944103 9.39676 1.03672 9.32904 1.06062 9.30713L1.10345 9.2673L1.06859 9.27327C1.04967 9.27626 0.976967 9.30116 0.90626 9.32805C0.768827 9.38183 0.749905 9.3868 0.769823 9.3629C0.781773 9.34797 0.824596 9.32207 1.14029 9.12887C1.22594 9.07609 1.27972 9.03725 1.28768 9.02131C1.29366 9.00837 1.29665 8.99542 1.29565 8.99343C1.29366 8.99243 1.212 9.01733 1.1134 9.0492C1.01481 9.08206 0.921198 9.10895 0.905264 9.10895H0.876383L0.900284 9.08206C0.924185 9.05617 1.08054 8.9516 1.2847 8.82512C1.34545 8.78628 1.39425 8.75442 1.39325 8.75242C1.39126 8.75143 1.3325 8.77533 1.26378 8.8062C1.19407 8.83707 1.11838 8.86496 1.09647 8.86795C1.05963 8.87293 1.05763 8.87193 1.0666 8.854C1.08253 8.82413 1.17117 8.74346 1.31358 8.62794C1.52371 8.45665 1.52869 8.43972 1.34047 8.53034C1.27075 8.5632 1.20702 8.59109 1.19905 8.59109C1.17515 8.59109 1.23291 8.53731 1.37731 8.42378C1.54861 8.28934 1.62828 8.22162 1.6223 8.21464C1.61931 8.21265 1.55956 8.23755 1.48985 8.27141C1.36238 8.33216 1.32752 8.34311 1.32752 8.32021C1.32752 8.30228 1.42014 8.21564 1.63127 8.03638C1.82845 7.86907 1.91808 7.78442 1.89717 7.78442C1.88223 7.78442 1.82447 7.8133 1.68106 7.89297C1.49782 7.99555 1.51375 7.97563 1.79061 7.76152C1.99078 7.60616 2.09435 7.51852 2.09435 7.50358C2.09435 7.48864 2.05452 7.50059 1.937 7.55138C1.88024 7.57628 1.82945 7.5952 1.82347 7.59321C1.80953 7.58823 1.8892 7.52151 2.04556 7.40798C2.181 7.30938 2.27361 7.23071 2.27361 7.21477C2.27361 7.20282 2.22183 7.2078 2.1322 7.22772C2.01568 7.25361 2.04257 7.22374 2.27361 7.06738C2.53155 6.8931 2.5425 6.87219 2.33237 6.95883C2.26465 6.98671 2.19095 7.0156 2.16904 7.02356L2.12921 7.03751L2.1561 7.0136C2.17004 7.00066 2.27162 6.93692 2.38017 6.87318C2.48873 6.80845 2.62616 6.7248 2.68691 6.68795C2.89106 6.56147 2.89206 6.54753 2.69189 6.61425C2.49072 6.68098 2.49171 6.67301 2.70384 6.54354C2.77455 6.50072 2.83131 6.46188 2.83131 6.4579C2.83131 6.45093 2.77156 6.46686 2.69189 6.49475C2.64408 6.51168 2.61222 6.51367 2.61222 6.50072C2.61222 6.48379 2.69388 6.42404 2.88608 6.29955C3.09721 6.16411 3.14701 6.12826 3.13306 6.12428C3.12809 6.12228 3.05439 6.14917 2.96974 6.18502C2.88608 6.22088 2.81438 6.24777 2.81239 6.24478C2.80542 6.23781 2.8343 6.21888 3.08128 6.0705C3.33324 5.91912 3.42884 5.85439 3.42884 5.83447C3.42884 5.81854 3.43084 5.81854 3.31033 5.84742C3.25257 5.86136 3.20178 5.87132 3.1968 5.86933C3.18186 5.86435 3.22767 5.83447 3.37407 5.75281C3.59416 5.63031 3.61707 5.60044 3.47366 5.62235C3.36809 5.63729 3.35316 5.63729 3.36909 5.61836C3.38503 5.59845 3.49756 5.54566 3.77043 5.42815C3.98355 5.33653 4.06322 5.29868 4.0214 5.30864C3.80031 5.36541 3.71964 5.37537 3.70968 5.34649C3.70172 5.32259 3.79533 5.2459 3.98953 5.11843C4.20165 4.979 4.29527 4.91029 4.29527 4.89435C4.29527 4.87643 4.22058 4.89435 4.09808 4.94116C4.03434 4.96506 3.98156 4.98398 3.97957 4.98299C3.97857 4.98199 4.02538 4.95809 4.08414 4.9312C4.42473 4.77485 4.64383 4.66032 4.64383 4.63741C4.64383 4.62347 4.56615 4.62546 4.45959 4.6414C4.40979 4.64937 4.36797 4.65335 4.36597 4.65136C4.35303 4.63941 4.41278 4.60853 4.62789 4.51791C4.87687 4.41334 4.95654 4.3735 4.94757 4.35757C4.94359 4.35259 4.89479 4.34861 4.83703 4.34861C4.71254 4.34861 4.70458 4.33765 4.78823 4.28387C4.83105 4.25599 5.09198 4.12951 5.10592 4.12951C5.11787 4.12951 5.32302 4.02893 5.31904 4.02494C5.31705 4.02196 5.2812 4.02992 5.24037 4.04088C4.87089 4.14345 4.94957 4.06279 5.49332 3.77995C5.81101 3.61364 6.0062 3.50609 6.06396 3.46326C6.10977 3.4304 6.11077 3.42741 6.08787 3.42442C6.07392 3.42343 6.02512 3.43339 5.97832 3.44633C5.93251 3.46028 5.89267 3.47023 5.89168 3.46824C5.88968 3.46725 5.93251 3.44832 5.98529 3.42741C6.03708 3.4055 6.10081 3.37562 6.12571 3.35969C6.16654 3.3338 6.16953 3.32981 6.15359 3.32085C6.14264 3.31487 6.10579 3.31288 6.06396 3.31687C5.95641 3.32583 5.99824 3.31089 6.26414 3.24417C6.58581 3.1635 6.58979 3.16151 6.44838 3.15354C6.36074 3.14757 6.33186 3.14259 6.31891 3.12964C6.30298 3.11371 6.30397 3.11072 6.32688 3.0918C6.36572 3.06092 6.43543 3.02706 6.62365 2.95337C6.71826 2.91552 6.81686 2.8737 6.84275 2.85975L6.88955 2.83585L6.85569 2.83486C6.83677 2.83486 6.79395 2.83984 6.75909 2.84581C6.72523 2.85179 6.68739 2.85477 6.67444 2.85278L6.65054 2.8498L6.67345 2.83585C6.68639 2.82888 6.79993 2.78307 6.9264 2.73427C7.15147 2.64763 7.23314 2.60979 7.23314 2.59385C7.23314 2.58489 7.20226 2.57692 7.14948 2.57393C7.05786 2.56696 7.09869 2.54406 7.3875 2.4365C7.54485 2.37774 7.59664 2.35384 7.6285 2.32397C7.65738 2.29807 7.65738 2.28015 7.6305 2.25027C7.61157 2.23135 7.61058 2.22537 7.62153 2.21243C7.64643 2.18255 7.7271 2.14869 7.89739 2.0969C8.06869 2.04412 8.14935 2.01425 8.14935 2.00329C8.14935 1.99931 8.11251 1.99732 8.0667 1.99831C7.96113 2.0013 7.95416 2.0003 7.96611 1.98935C7.97906 1.9764 8.10653 1.93756 8.36347 1.86884C8.71203 1.77523 8.81461 1.74038 8.80166 1.71946C8.79768 1.71349 8.76481 1.7095 8.72597 1.7095C8.68813 1.7095 8.65726 1.70552 8.65726 1.70054C8.65726 1.69158 8.69211 1.68361 8.90523 1.64477C9.02474 1.62187 9.04665 1.61489 9.11437 1.57406C9.23089 1.50336 9.2528 1.48443 9.26475 1.44261C9.26973 1.42169 9.28367 1.30617 9.29463 1.18567C9.33147 0.779345 9.36533 0.612036 9.45297 0.410866C9.51073 0.279409 9.63522 0.138988 9.74775 0.0792351C9.86328 0.018486 10.0545 -0.0153751 10.161 0.00653458Z" fill="#475B7F"/>
</svg>
