<svg width="55" height="52" viewBox="0 0 55 52" fill="none" xmlns="http://www.w3.org/2000/svg">
<path d="M26.5621 0.0174958C26.7469 0.0565465 27.0255 0.207542 27.2286 0.379365C27.8794 0.926075 28.5381 2.18871 28.827 3.43313L28.8843 3.68305L29.0587 3.71429C30.1443 3.89653 32.3884 5.03681 34.177 6.31507C34.9866 6.89302 35.9108 7.7313 36.2493 8.1921C36.6528 8.74141 36.8038 9.1944 36.6918 9.52503C36.6632 9.60834 36.6658 9.63177 36.7127 9.72028C36.8012 9.89731 37.0485 10.1394 37.6629 10.6523C37.9935 10.9283 38.4127 11.2901 38.5949 11.4567C39.2536 12.0581 39.8706 12.8027 40.3105 13.5212C40.373 13.6227 40.4563 13.7269 40.498 13.7503C40.537 13.7737 40.6386 13.8518 40.7219 13.9195C40.8807 14.0523 41.0108 14.2632 41.0108 14.3855C41.0082 14.6537 40.6177 14.9921 39.9148 15.3384C39.7482 15.4217 39.7091 15.4529 39.6571 15.5518C39.5269 15.794 39.1286 16.0829 38.6444 16.2782C38.3502 16.3979 37.9102 16.5229 37.78 16.5229C37.7384 16.5229 37.6811 16.5489 37.6447 16.5854C37.5275 16.7025 37.4078 16.7182 36.6892 16.7156C36.1972 16.7156 35.7598 16.6921 34.997 16.6323C34.4321 16.588 33.7526 16.5385 33.4871 16.5203C32.9065 16.4865 31.6126 16.4787 31.1935 16.5073L30.8915 16.5281L30.8316 16.6323C30.7718 16.739 30.3969 17.2519 30.3786 17.2519C30.3734 17.2519 30.3838 17.1972 30.4047 17.1269C30.4515 16.9629 30.4906 16.7051 30.4672 16.7051C30.4567 16.7051 30.376 16.752 30.2875 16.8093C30.1001 16.9316 30.0532 17.0123 29.8554 17.5903C29.72 17.9912 29.6757 18.0771 29.6966 17.9027C29.7044 17.8376 29.72 17.671 29.7278 17.5304C29.7434 17.3221 29.7408 17.2779 29.7096 17.2779C29.6575 17.2779 29.5742 17.4211 29.2748 18.0199C29.129 18.3088 28.9858 18.5666 28.9546 18.5926L28.8973 18.6447L28.9155 18.4312C28.9234 18.314 28.939 18.1969 28.9494 18.1708C28.9598 18.137 28.9572 18.1318 28.9364 18.15C28.9207 18.163 28.8609 18.2854 28.8036 18.4208C28.6266 18.8295 28.5667 18.879 28.5667 18.6186C28.5667 18.3687 28.4912 18.4052 28.2985 18.741C28.1892 18.931 28.0747 19.2565 27.8508 19.9906C27.757 20.2978 27.7076 20.3759 27.7076 20.2093C27.7076 20.0088 27.6269 19.9776 27.5514 20.1468C27.4811 20.3004 27.4837 20.5399 27.554 20.73C27.5852 20.8107 27.6946 20.9851 27.8013 21.1283C28.6136 22.1853 28.7541 22.3831 28.7151 22.4248C28.7047 22.4352 28.6604 22.4222 28.6214 22.3987C28.5354 22.3493 28.4886 22.3415 28.4886 22.3805C28.4886 22.3935 28.5589 22.5185 28.6448 22.6591C28.8114 22.9272 28.84 23.0314 28.7489 23.0314C28.7177 23.0314 28.6578 23.0131 28.6162 22.9897C28.5719 22.9689 28.525 22.9533 28.5094 22.9585C28.4964 22.9637 28.7099 23.2006 28.9858 23.4869C29.2618 23.7707 29.4727 24.0102 29.457 24.0154C29.4388 24.0206 29.3868 24.0128 29.3425 23.9972C29.2982 23.9816 29.2279 23.9686 29.1889 23.9686C29.1238 23.9686 29.1134 23.979 29.1134 24.0389C29.1134 24.0805 29.1498 24.2029 29.1941 24.3148C29.2826 24.5465 29.2826 24.6168 29.1967 24.6611C29.0848 24.7157 29.0796 24.7366 29.1342 24.8589C29.1603 24.9214 29.3217 25.1765 29.4883 25.4239C29.6575 25.6712 29.8007 25.8899 29.8085 25.9107C29.8189 25.9393 29.8033 25.9445 29.7408 25.9315C29.6601 25.9133 29.6575 25.9159 29.6757 25.9888C29.6835 26.0304 29.7851 26.2569 29.8996 26.4938C30.0428 26.7932 30.1391 26.9598 30.2172 27.0406C30.4984 27.3373 30.7613 27.707 30.7926 27.8502C30.8056 27.9049 30.7926 27.9804 30.7535 28.0845L30.6936 28.2381L30.7744 28.4021C30.8577 28.5713 31.0035 28.7562 31.3263 29.1102C31.5215 29.3237 31.6725 29.5372 31.7012 29.6335C31.7116 29.67 31.7012 29.7064 31.6725 29.735C31.6361 29.7741 31.597 29.7793 31.4486 29.7663C31.3159 29.7559 31.2742 29.7585 31.282 29.7819C31.2872 29.8001 31.4122 29.9043 31.5632 30.0162C31.8886 30.2609 32.0344 30.3963 32.024 30.451C32.0162 30.4822 31.9589 30.4926 31.735 30.503C31.5814 30.5135 31.4434 30.5317 31.4278 30.5473C31.4096 30.5655 31.4304 30.6332 31.5059 30.779C31.5892 30.9456 31.6829 31.0628 31.9875 31.3856C32.1958 31.6069 32.3676 31.7995 32.3676 31.8125C32.3676 31.8256 32.3077 31.7865 32.2375 31.7266C32.1646 31.6642 32.0995 31.6199 32.0943 31.6277C32.0865 31.6329 32.2114 31.7839 32.3702 31.9635C32.7139 32.3462 32.8362 32.5207 32.8362 32.617C32.8362 32.7003 32.7607 32.7315 32.6123 32.7081L32.5238 32.6925L32.6097 32.8487C32.6748 32.9658 32.7607 33.0596 32.943 33.208C33.4298 33.6141 33.5209 33.7573 33.2658 33.7234C33.2007 33.713 33.1486 33.713 33.1486 33.7208C33.1486 33.7781 33.4012 34.1269 33.4819 34.179C33.6303 34.2779 33.875 34.5122 33.9192 34.593C33.9531 34.6606 33.9531 34.6763 33.9166 34.7439C33.8776 34.8194 33.8802 34.822 34.078 35.0772C34.1874 35.2178 34.3592 35.4286 34.4607 35.5458L34.6456 35.7619H34.8565C35.6687 35.7619 36.5669 36.1185 38.4725 37.1989C39.4592 37.7561 40.0111 38.0607 40.3574 38.2351L40.6203 38.3652L40.8234 38.3158C40.9327 38.2871 41.292 38.2169 41.6226 38.157C42.8775 37.9331 43.3747 37.7847 43.7756 37.5113C44.1765 37.2406 44.5931 37.087 44.9654 37.0766C45.1424 37.074 45.2621 37.0531 45.3715 37.0141C45.5746 36.9412 45.7932 36.9178 45.9156 36.9594C46.0249 36.9959 46.0197 37.0245 45.9 37.0479C45.7802 37.0714 45.5381 37.1937 45.5537 37.2198C45.5615 37.2328 45.6995 37.238 45.8609 37.2276C46.1785 37.2119 46.4415 37.2562 46.5378 37.3447C46.5847 37.3864 46.5847 37.389 46.5248 37.4046C46.4935 37.415 46.3998 37.4228 46.3191 37.4254C46.241 37.428 46.1135 37.4463 46.038 37.4697L45.9026 37.5087L45.9546 37.592C46.0015 37.6649 46.0249 37.678 46.1603 37.6936C46.4597 37.7274 46.6445 37.8081 46.7331 37.9435L46.7747 38.006L46.5638 37.9878C46.4259 37.9747 46.3217 37.9799 46.2618 37.9982C46.1837 38.0242 46.1707 38.0424 46.1551 38.1335C46.1004 38.4746 45.7438 38.8599 44.6686 39.7424C43.6845 40.5521 43.3591 40.8254 42.9582 41.1821C42.7317 41.3826 42.5468 41.5544 42.5468 41.5648C42.5468 41.5778 42.7082 41.7158 42.9035 41.872C43.8693 42.6478 44.6009 43.4366 45.6448 44.8242C46.655 46.1676 46.8997 46.4383 47.2798 46.6284C47.4724 46.7247 47.5948 46.7351 48.105 46.6856C49.2661 46.5789 50.6459 46.5659 51.3853 46.6544C52.1871 46.7533 52.7963 46.9304 53.1868 47.1803C53.3639 47.2922 53.5669 47.4823 53.6398 47.5968C53.6711 47.6515 53.7153 47.6853 53.7466 47.6853C53.8325 47.6853 54.2646 47.8389 54.4104 47.9222C54.6708 48.0732 54.9441 48.3414 54.8894 48.3961C54.8764 48.4091 54.7931 48.4039 54.6864 48.3804C54.4521 48.3258 53.9444 48.2711 53.8897 48.2919C53.8559 48.3049 53.8455 48.3414 53.8455 48.4377C53.8455 48.508 53.8403 48.5835 53.8325 48.6017C53.8221 48.6278 53.8663 48.672 53.9548 48.7319C54.1449 48.8569 54.3531 49.0495 54.4443 49.1823C54.5354 49.3151 54.5692 49.427 54.5224 49.4556C54.5067 49.466 54.3688 49.4348 54.2178 49.3853C54.0407 49.3281 53.8845 49.2968 53.7726 49.2916C53.6034 49.2864 53.6008 49.2864 53.5513 49.3749L53.4992 49.4608L53.6138 49.5572C53.9002 49.7941 54.1579 50.1481 54.1579 50.3069C54.1579 50.4189 54.1266 50.4189 53.7596 50.2991C53.6008 50.2497 53.3795 50.195 53.2675 50.1768C53.0775 50.1507 53.0593 50.1507 53.0124 50.2002C52.9603 50.2497 52.9603 50.2523 53.1139 50.3616C53.3534 50.536 53.5331 50.7938 53.5435 50.9734C53.5461 51.0515 53.5409 51.0567 53.468 51.0515C53.4237 51.0515 53.1816 51.0046 52.9265 50.9526C52.6714 50.9005 52.4449 50.8641 52.424 50.8719C52.398 50.8823 52.4397 50.937 52.5646 51.0619C52.89 51.3821 53.0541 51.7128 52.9083 51.7596C52.8432 51.7804 52.8093 51.77 52.4397 51.6138C52.2756 51.5461 52.0648 51.4759 51.9711 51.4602L51.8018 51.429L51.6482 51.5227C51.3046 51.731 50.8542 51.8247 50.1955 51.8247C49.1412 51.8247 48.0608 51.593 45.6448 50.8484C44.5983 50.5256 44.1427 50.4033 43.8798 50.372C43.7079 50.3512 43.6923 50.3538 43.6923 50.3981C43.6923 50.5126 43.5023 50.4736 43.0701 50.2731C42.8462 50.169 42.5052 50.0544 42.5624 50.1039C42.5755 50.1143 42.6353 50.1611 42.6952 50.208C42.8098 50.2939 42.841 50.3668 42.7655 50.3668C42.6952 50.3668 42.2214 50.2002 41.6851 49.9893C40.8676 49.6639 40.5917 49.5806 40.6724 49.6769C40.6906 49.6977 40.8078 49.7915 40.9353 49.8878C41.0629 49.9815 41.167 50.0726 41.167 50.0857C41.167 50.1559 40.7713 50.0128 39.566 49.5155C38.7719 49.1849 38.5116 49.0834 38.5116 49.1042C38.5116 49.1094 38.5923 49.1641 38.6912 49.2213C38.7928 49.2812 38.8891 49.3489 38.9073 49.3697C38.9359 49.4062 38.9307 49.4088 38.85 49.3905C38.699 49.3567 38.2825 49.2083 37.3297 48.8412C36.8298 48.6486 36.4159 48.4976 36.4107 48.5028C36.4029 48.508 36.4367 48.534 36.4862 48.5575C36.6606 48.646 36.7934 48.7397 36.7934 48.7762C36.7934 48.8308 36.6137 48.7996 35.9238 48.6226C35.2339 48.4481 35.1272 48.4273 35.1272 48.4637C35.1272 48.5002 35.2365 48.5705 35.575 48.7501C35.9082 48.9271 36.0097 48.9974 35.9785 49.0287C35.9577 49.0521 35.4006 48.9115 34.6065 48.6876C34.1067 48.5445 33.7734 48.4846 33.7734 48.5366C33.7734 48.5523 33.8594 48.6199 33.9609 48.6902C34.1327 48.8048 34.1431 48.8178 34.0832 48.8256C34.0442 48.8308 33.6693 48.7215 33.2502 48.5835C32.5707 48.3596 32.2375 48.2737 32.2375 48.318C32.2375 48.3258 32.2895 48.3622 32.3546 48.3987C32.4197 48.4377 32.4718 48.4794 32.4718 48.4924C32.4718 48.5262 32.4587 48.5262 32.2348 48.469C31.8443 48.37 31.7428 48.37 31.7428 48.4742C31.7428 48.5054 31.7714 48.5757 31.8079 48.6278C31.8704 48.7189 31.8886 48.7788 31.86 48.7788C31.8235 48.7788 31.545 48.6226 31.1805 48.3987C30.7509 48.1357 30.5921 48.0498 30.5427 48.0498C30.5244 48.0498 30.6312 48.1722 30.7744 48.3206C30.9201 48.4716 31.0399 48.6069 31.0399 48.6199C31.0399 48.7085 30.8577 48.6252 29.9699 48.1331C29.6992 47.9847 29.4935 47.8884 29.4232 47.878C29.3139 47.8598 29.3113 47.8624 29.3503 47.9092C29.6289 48.2477 29.6627 48.3075 29.595 48.3622C29.543 48.4065 29.4102 48.383 29.0717 48.2737L28.8062 48.1878L28.7567 48.3336L28.7099 48.4794L28.3819 48.4924L28.0538 48.5054L27.731 48.6694C27.3509 48.8621 27.2702 48.8803 27.0802 48.8178C26.8953 48.7553 26.6949 48.7605 26.4423 48.8334C26.1664 48.9115 25.8253 48.9141 25.5285 48.836C25.2083 48.7501 25.1068 48.7657 24.9168 48.9245C24.7345 49.0755 24.3779 49.1484 23.8285 49.1458C23.2115 49.1432 22.5711 49.0365 21.9489 48.8282C20.7774 48.4377 19.9209 47.7921 19.4392 46.9382C19.3143 46.7143 19.3117 46.7117 19.1034 46.683L18.9732 46.6648L19.1242 46.821C19.2674 46.972 19.3039 47.0345 19.2466 47.0345C19.2023 47.0345 18.9368 46.8939 18.6921 46.7403C18.4786 46.6049 18.4474 46.5919 18.1922 46.5555C17.7757 46.493 17.7913 46.4774 17.9866 46.7637C18.0803 46.9017 18.1506 47.0215 18.1402 47.0293C18.1193 47.0527 17.9059 46.834 17.7627 46.6414L17.6351 46.4722L17.4034 46.4409C17.2758 46.4227 17.1587 46.4097 17.1457 46.4097C17.1301 46.4097 17.1118 46.4956 17.104 46.6023C17.0884 46.8288 17.0546 46.9043 16.9712 46.9043C16.901 46.9043 16.6745 46.6752 16.5287 46.4565C16.474 46.3758 16.4063 46.3029 16.3751 46.2977C16.2787 46.2743 15.8075 46.2196 15.7997 46.23C15.7945 46.2353 15.8023 46.3446 15.8153 46.4748C15.8258 46.6023 15.831 46.7377 15.8232 46.7716L15.8075 46.834L15.7477 46.7768C15.7138 46.7455 15.6253 46.5971 15.5498 46.4461C15.4743 46.2951 15.3988 46.1676 15.3832 46.1624C15.3676 46.1572 15.3103 46.1467 15.2556 46.1389L15.1593 46.1259L15.1567 46.4435C15.1541 47.3 15.0109 47.287 14.5058 46.3836C14.4017 46.1962 14.2976 46.0322 14.2741 46.0192C14.2533 46.0088 14.1492 45.9905 14.0451 45.9801L13.8576 45.9619V46.217C13.8576 46.3602 13.8498 46.5008 13.842 46.5346C13.8081 46.6596 13.717 46.5815 13.5322 46.2665C13.3994 46.04 13.2953 45.915 13.2406 45.915C13.199 45.915 13.1469 46.027 13.0922 46.23C13.0428 46.4045 12.9646 46.5138 12.8839 46.5138C12.7772 46.5138 12.595 46.368 12.3529 46.0895C11.9936 45.6781 11.9103 45.6287 11.8218 45.7849C11.7983 45.8265 11.7463 45.8682 11.7098 45.8786C11.6005 45.9046 11.387 45.8447 11.1345 45.7172C10.9444 45.6235 10.8403 45.5896 10.5539 45.5349C10.3066 45.4907 10.1973 45.4777 10.1738 45.4985C10.1061 45.5532 10.0775 45.7614 10.0983 46.0504C10.1087 46.2405 10.1061 46.3316 10.0879 46.3316C10.0489 46.3316 9.93692 46.1806 9.71823 45.8369C9.41885 45.3605 9.26525 45.1965 9.18715 45.2616C9.16632 45.2798 9.13508 45.3527 9.11946 45.4282C9.06739 45.6469 9.02313 45.7328 8.96586 45.7328C8.89036 45.7328 8.72895 45.5818 8.57015 45.3605C8.18745 44.8346 8.18224 44.8294 8.02083 44.7565C7.93492 44.7175 7.85682 44.6941 7.84901 44.7045C7.8386 44.7149 7.82037 44.7696 7.80475 44.8294C7.79174 44.8867 7.7657 44.9388 7.74748 44.944C7.73186 44.9492 7.66938 44.8919 7.6095 44.8164C7.54962 44.7409 7.47933 44.6654 7.4559 44.6472C7.42987 44.6316 7.38821 44.5691 7.36218 44.5118C7.32313 44.4233 7.27887 44.3843 7.10444 44.2827C6.98729 44.2176 6.73216 44.051 6.5317 43.9182C6.33384 43.7829 6.11776 43.6553 6.05268 43.6319C5.85482 43.5668 5.73507 43.4757 5.39663 43.1268C4.96447 42.6869 4.9124 42.6634 4.89678 42.8951L4.88897 43.0123L4.67549 42.5931C4.47503 42.1974 4.35267 42.01 4.30321 42.01C4.29019 42.01 4.27457 42.0985 4.26416 42.2052C4.25114 42.3328 4.23552 42.4005 4.21469 42.3927C4.16783 42.3771 4.07932 42.2026 3.93613 41.8408C3.78253 41.4581 3.71745 41.3201 3.64976 41.2316C3.6029 41.1717 3.6003 41.1743 3.60811 41.4216C3.61071 41.57 3.6029 41.6715 3.58728 41.6741C3.54823 41.6819 3.41806 41.4294 3.19157 40.9061C2.97809 40.4063 2.86354 40.2058 2.78284 40.1928C2.73598 40.1824 2.73337 40.1954 2.7516 40.3594C2.76201 40.4584 2.77503 40.6198 2.78023 40.7213C2.79065 40.8697 2.78804 40.8853 2.76722 40.8124C2.7542 40.763 2.73077 40.5625 2.71775 40.3698C2.70213 40.1772 2.6787 39.9533 2.66048 39.8752C2.63184 39.7398 2.56415 39.5992 2.54072 39.6253C2.53552 39.6305 2.50428 39.7711 2.47043 39.9377C2.43659 40.1043 2.40274 40.2501 2.39233 40.2579C2.33766 40.3126 2.28039 40.0496 2.20749 39.4066C2.16063 38.9979 2.12158 38.7896 2.09034 38.7688C2.0617 38.7505 2.05389 38.7818 1.98881 39.1801C1.96017 39.3493 1.93153 39.4951 1.92372 39.5055C1.86124 39.5654 1.80657 39.3051 1.71285 38.4824C1.61652 37.6571 1.60351 37.5999 1.5983 38.0268C1.5957 38.2195 1.58268 38.4251 1.57227 38.4824C1.55144 38.5839 1.55144 38.5839 1.52541 38.5214C1.50979 38.485 1.46292 38.2116 1.41606 37.9149C1.29371 37.113 1.25726 37.0662 1.20519 37.6363C1.18957 37.8159 1.17135 37.9643 1.16614 37.9695C1.14792 37.9878 1.12709 37.7743 1.10106 37.2979C1.06721 36.7251 1.01514 36.3164 0.970887 36.2721C0.926629 36.2305 0.879768 36.306 0.799064 36.5533C0.760013 36.6704 0.718359 36.7746 0.705342 36.7902C0.687118 36.8084 0.684515 36.5923 0.700135 36.1524C0.723566 35.4338 0.718359 35.1631 0.687118 35.1292C0.653275 35.0954 0.593397 35.1943 0.499675 35.4338C0.405954 35.6707 0.377317 35.715 0.340869 35.6942C0.309629 35.6734 0.320042 35.5406 0.426781 34.6034C0.468435 34.2311 0.502279 33.8484 0.502279 33.7521C0.502279 33.4865 0.445004 33.5178 0.320042 33.851C0.278388 33.9655 0.244544 34.0488 0.241941 34.041C0.241941 34.0306 0.283595 33.864 0.333059 33.6688C0.431987 33.2861 0.450211 33.0544 0.385127 33.0544C0.3643 33.0544 0.280992 33.1403 0.200287 33.2418C0.116979 33.3459 0.0466876 33.4371 0.0414809 33.4423C0.0362741 33.4475 0.0258606 33.4475 0.0180505 33.4371C-0.00277655 33.4162 0.0571011 33.234 0.283595 32.6456C0.390333 32.3697 0.476245 32.1354 0.476245 32.1249C0.476245 32.1145 0.445004 32.151 0.408557 32.2083C0.312232 32.3514 0.213304 32.4556 0.184667 32.44C0.140409 32.4113 0.166443 32.138 0.267975 31.6537C0.37992 31.107 0.418971 30.779 0.37992 30.7556C0.3643 30.7452 0.299215 30.8233 0.234131 30.9274C0.169046 31.0315 0.0883417 31.1409 0.0571011 31.1669L-0.000173171 31.219L0.0206538 31.1539C0.0544978 31.0393 0.218511 30.7894 0.288802 30.7426C0.382523 30.6853 0.400747 30.6566 0.538726 30.3963C0.645464 30.1958 0.687118 30.0605 0.642861 30.0605C0.614224 30.0605 0.463228 30.1724 0.286198 30.3286C0.189873 30.4145 0.106565 30.4796 0.101359 30.4744C0.0961518 30.4692 0.257561 30.2609 0.460625 30.0136C0.817287 29.5788 0.942249 29.3992 0.911009 29.368C0.892785 29.3497 0.825097 29.3862 0.533519 29.5736C0.158633 29.8132 0.176856 29.7585 0.624637 29.2664C0.931836 28.928 1.12709 28.6911 1.12709 28.652C1.12709 28.5974 1.01775 28.639 0.739186 28.8004C0.577777 28.8942 0.426781 28.9671 0.40335 28.9618C0.377317 28.9566 0.491865 28.8343 0.726169 28.6156C1.33536 28.0455 1.45251 27.9309 1.43689 27.9127C1.42648 27.9049 1.29891 27.9569 1.15312 28.0298C0.858941 28.173 0.814684 28.1834 0.814684 28.1131C0.814684 28.0585 0.96568 27.8762 1.37962 27.4337C1.66859 27.1265 1.85603 26.887 1.85603 26.8245C1.85603 26.7724 1.64256 26.8323 1.32495 26.9755C1.14271 27.0562 0.986507 27.1161 0.976093 27.1056C0.955266 27.0848 1.07763 26.9729 1.5176 26.611C1.96538 26.2439 2.05389 26.1632 2.03306 26.1424C2.02525 26.1346 1.84041 26.2153 1.62433 26.3272C1.40825 26.4366 1.22341 26.5199 1.213 26.5095C1.18697 26.4834 1.36139 26.3116 1.71285 26.0174C2.43138 25.416 2.44961 25.3536 1.80657 25.6738C1.59309 25.7805 1.40044 25.869 1.38482 25.869C1.32495 25.869 1.47334 25.7389 1.89509 25.4186C2.30902 25.1036 2.58498 24.8667 2.58498 24.8225C2.58498 24.786 2.46523 24.8277 2.09034 24.9865C1.89769 25.0698 1.73368 25.1323 1.72847 25.1245C1.70244 25.101 1.8326 24.9969 2.23352 24.7235C2.46783 24.5647 2.70994 24.3877 2.77242 24.3304L2.88437 24.2263L2.79325 24.2419C2.74379 24.2497 2.55374 24.3148 2.3689 24.3851C2.00963 24.5257 1.96017 24.5387 2.01224 24.4762C2.04348 24.4372 2.15542 24.3695 2.98069 23.8644C3.20458 23.7265 3.34517 23.6249 3.36599 23.5833C3.38161 23.5494 3.38942 23.5156 3.38682 23.5104C3.38161 23.5078 3.16814 23.5729 2.9104 23.6562C2.65267 23.7421 2.40795 23.8124 2.3663 23.8124H2.2908L2.35328 23.7421C2.41576 23.6744 2.82449 23.401 3.35818 23.0704C3.51699 22.9689 3.64456 22.8856 3.64195 22.8804C3.63675 22.8778 3.48315 22.9402 3.30351 23.0209C3.12128 23.1016 2.92342 23.1745 2.86615 23.1823C2.76982 23.1954 2.76461 23.1928 2.78804 23.1459C2.8297 23.0678 3.0614 22.8569 3.43368 22.5549C3.98299 22.1072 3.99601 22.0629 3.50397 22.2998C3.32174 22.3857 3.15512 22.4586 3.13429 22.4586C3.07181 22.4586 3.22281 22.318 3.6003 22.0212C4.04808 21.6698 4.25635 21.4928 4.24073 21.4745C4.23292 21.4693 4.07672 21.5344 3.89448 21.6229C3.56125 21.7817 3.47013 21.8104 3.47013 21.7505C3.47013 21.7036 3.71224 21.4771 4.26416 21.0085C4.77963 20.5712 5.01393 20.3499 4.95926 20.3499C4.92021 20.3499 4.76921 20.4254 4.39433 20.6336C3.91531 20.9018 3.95696 20.8497 4.6807 20.29C5.20398 19.8839 5.47473 19.6548 5.47473 19.6157C5.47473 19.5767 5.37059 19.6079 5.0634 19.7407C4.915 19.8058 4.78223 19.8552 4.76661 19.85C4.73016 19.837 4.93843 19.6626 5.34716 19.3658C5.70122 19.1081 5.94334 18.9024 5.94334 18.8607C5.94334 18.8295 5.80796 18.8425 5.57366 18.8946C5.26906 18.9623 5.33935 18.8842 5.94334 18.4754C6.61761 18.0199 6.64625 17.9652 6.09694 18.1917C5.91991 18.2646 5.72726 18.3401 5.66998 18.3609L5.56585 18.3973L5.63614 18.3349C5.67259 18.301 5.93813 18.1344 6.2219 17.9678C6.50567 17.7986 6.86493 17.5799 7.02374 17.4836C7.55743 17.1529 7.56003 17.1165 7.03676 17.2909C6.51087 17.4653 6.51348 17.4445 7.068 17.1061C7.25284 16.9941 7.40123 16.8926 7.40123 16.8822C7.40123 16.864 7.24503 16.9056 7.03676 16.9785C6.91179 17.0228 6.82849 17.028 6.82849 16.9941C6.82849 16.9499 7.04196 16.7937 7.54441 16.4682C8.09633 16.1142 8.2265 16.0205 8.19005 16.01C8.17704 16.0048 7.98439 16.0751 7.7631 16.1688C7.54441 16.2626 7.35697 16.3329 7.35176 16.3251C7.33354 16.3068 7.40904 16.2574 8.05468 15.8695C8.71333 15.4737 8.96326 15.3045 8.96326 15.2525C8.96326 15.2108 8.96846 15.2108 8.65345 15.2863C8.50246 15.3228 8.36969 15.3488 8.35667 15.3436C8.31762 15.3306 8.43737 15.2525 8.82007 15.039C9.39542 14.7188 9.45529 14.6407 9.08041 14.6979C8.80445 14.737 8.7654 14.737 8.80705 14.6875C8.84871 14.6355 9.14289 14.4975 9.85621 14.1903C10.4133 13.9508 10.6216 13.8518 10.5123 13.8779C9.93432 14.0263 9.72344 14.0523 9.69741 13.9768C9.67658 13.9143 9.9213 13.7139 10.429 13.3806C10.9835 13.0162 11.2282 12.8365 11.2282 12.7949C11.2282 12.748 11.0329 12.7949 10.7127 12.9172C10.5461 12.9797 10.4081 13.0292 10.4029 13.0266C10.4003 13.024 10.5227 12.9615 10.6763 12.8912C11.5666 12.4825 12.1394 12.1831 12.1394 12.1232C12.1394 12.0868 11.9363 12.092 11.6578 12.1336C11.5276 12.1544 11.4182 12.1649 11.413 12.1596C11.3792 12.1284 11.5354 12.0477 12.0977 11.8108C12.7486 11.5374 12.9568 11.4333 12.9334 11.3917C12.923 11.3786 12.7954 11.3682 12.6444 11.3682C12.319 11.3682 12.2982 11.3396 12.5169 11.199C12.6288 11.1261 13.3109 10.7955 13.3473 10.7955C13.3786 10.7955 13.9149 10.5325 13.9045 10.5221C13.8993 10.5143 13.8055 10.5351 13.6988 10.5638C12.7329 10.8319 12.9386 10.6211 14.3601 9.88169C15.1905 9.44693 15.7008 9.16576 15.8518 9.05382C15.9716 8.96791 15.9742 8.9601 15.9143 8.95229C15.8778 8.94968 15.7503 8.97572 15.6279 9.00956C15.5081 9.04601 15.404 9.07204 15.4014 9.06684C15.3962 9.06423 15.5081 9.01477 15.6461 8.9601C15.7815 8.90282 15.9481 8.82472 16.0132 8.78307C16.1199 8.71538 16.1278 8.70497 16.0861 8.68154C16.0575 8.66592 15.9611 8.66071 15.8518 8.67112C15.5706 8.69455 15.68 8.6555 16.3751 8.48108C17.216 8.2702 17.2264 8.265 16.8567 8.24417C16.6276 8.22855 16.5521 8.21553 16.5183 8.18169C16.4766 8.14003 16.4792 8.13222 16.5391 8.08276C16.6406 8.00205 16.8229 7.91354 17.3149 7.72089C17.5622 7.62196 17.8199 7.51262 17.8876 7.47617L18.01 7.41369L17.9215 7.41109C17.872 7.41109 17.7601 7.4241 17.669 7.43972C17.5804 7.45535 17.4815 7.46316 17.4477 7.45795L17.3852 7.45014L17.4451 7.41369C17.4789 7.39547 17.7757 7.27571 18.1063 7.14815C18.6947 6.92165 18.9082 6.82272 18.9082 6.78107C18.9082 6.75764 18.8275 6.73681 18.6895 6.729C18.45 6.71078 18.5567 6.6509 19.3117 6.36974C19.723 6.21614 19.8584 6.15366 19.9417 6.07556C20.0172 6.00787 20.0172 5.96101 19.9469 5.88291C19.8974 5.83344 19.8948 5.81782 19.9235 5.78398C19.9886 5.70588 20.1994 5.61736 20.6446 5.48199C21.0924 5.34401 21.3033 5.2659 21.3033 5.23727C21.3033 5.22685 21.2069 5.22165 21.0872 5.22425C20.8112 5.23206 20.793 5.22946 20.8242 5.20082C20.8581 5.16698 21.1913 5.06544 21.863 4.88581C22.7742 4.64109 23.0423 4.54998 23.0085 4.49531C22.9981 4.47968 22.9122 4.46927 22.8106 4.46927C22.7117 4.46927 22.631 4.45886 22.631 4.44584C22.631 4.42241 22.7221 4.40158 23.2792 4.30005C23.5916 4.24017 23.6489 4.22195 23.8259 4.11521C24.1305 3.93037 24.1878 3.88091 24.219 3.77157C24.2321 3.7169 24.2685 3.4149 24.2972 3.09989C24.3935 2.03772 24.482 1.60035 24.7111 1.07447C24.8621 0.730821 25.1875 0.363745 25.4817 0.207542C25.7837 0.0487363 26.2835 -0.0397785 26.5621 0.0174958Z" fill="#475B7F"/>
</svg>
