<svg width="177" height="168" viewBox="0 0 177 168" fill="none" xmlns="http://www.w3.org/2000/svg">
<path d="M85.6431 0.0565033C86.2391 0.182465 87.1372 0.66951 87.792 1.22375C89.8904 2.98723 92.0141 7.06001 92.9458 11.074L93.1305 11.8802L93.6929 11.9809C97.1931 12.5688 104.429 16.2469 110.195 20.3701C112.806 22.2343 115.786 24.9383 116.877 26.4247C118.178 28.1965 118.665 29.6577 118.304 30.7242C118.211 30.9929 118.22 31.0685 118.371 31.354C118.656 31.925 119.454 32.706 121.435 34.3603C122.501 35.2504 123.852 36.4177 124.44 36.9551C126.563 38.8949 128.553 41.2966 129.971 43.6143C130.173 43.9418 130.441 44.2777 130.576 44.3533C130.702 44.4289 131.029 44.6808 131.298 44.8991C131.81 45.3274 132.229 46.0076 132.229 46.4023C132.221 47.2672 130.962 48.3589 128.695 49.4758C128.158 49.7445 128.032 49.8453 127.864 50.1644C127.445 50.9454 126.161 51.8775 124.599 52.5073C123.651 52.8936 122.232 53.2966 121.812 53.2966C121.678 53.2966 121.494 53.3806 121.376 53.4982C120.998 53.8761 120.612 53.9265 118.295 53.9181C116.709 53.9181 115.299 53.8425 112.839 53.6493C111.018 53.5066 108.827 53.347 107.971 53.2883C106.099 53.1791 101.927 53.1539 100.576 53.2463L99.6022 53.3134L99.4091 53.6493C99.2161 53.9936 98.0073 55.6479 97.9486 55.6479C97.9318 55.6479 97.9654 55.4716 98.0325 55.2449C98.1836 54.7158 98.3095 53.8845 98.234 53.8845C98.2004 53.8845 97.9402 54.0356 97.6548 54.2204C97.0504 54.6151 96.8994 54.8754 96.2614 56.7396C95.8249 58.0328 95.6822 58.31 95.7494 57.7473C95.7746 57.5374 95.8249 56.9999 95.8501 56.5465C95.9005 55.8747 95.8921 55.7319 95.7914 55.7319C95.6235 55.7319 95.3549 56.1938 94.3896 58.1252C93.9195 59.0573 93.4578 59.8887 93.3571 59.9727L93.1725 60.1406L93.2312 59.452C93.2564 59.0741 93.3068 58.6962 93.3403 58.6123C93.3739 58.5031 93.3655 58.4863 93.2984 58.5451C93.248 58.5871 93.0549 58.9818 92.8703 59.4184C92.2995 60.7368 92.1064 60.8964 92.1064 60.0566C92.1064 59.2505 91.863 59.368 91.2419 60.4513C90.8893 61.0643 90.52 62.114 89.7981 64.4821C89.4959 65.473 89.3364 65.7249 89.3364 65.1875C89.3364 64.5409 89.0762 64.4401 88.8328 64.986C88.6062 65.4814 88.6146 66.254 88.8412 66.867C88.9419 67.1273 89.2945 67.69 89.6386 68.1518C92.2575 71.5612 92.7108 72.1994 92.5849 72.3338C92.5513 72.3674 92.4086 72.3254 92.2827 72.2498C92.0057 72.0903 91.8546 72.0651 91.8546 72.191C91.8546 72.233 92.0812 72.6361 92.3582 73.0896C92.8955 73.9545 92.9878 74.2904 92.694 74.2904C92.5933 74.2904 92.4002 74.2316 92.2659 74.156C92.1232 74.0889 91.9721 74.0385 91.9218 74.0553C91.8798 74.0721 92.5681 74.8362 93.4578 75.76C94.3476 76.6753 95.0275 77.4479 94.9771 77.4647C94.9184 77.4814 94.7505 77.4563 94.6078 77.4059C94.4651 77.3555 94.2385 77.3135 94.1126 77.3135C93.9027 77.3135 93.8691 77.3471 93.8691 77.5402C93.8691 77.6746 93.9867 78.0693 94.1294 78.4304C94.4147 79.1777 94.4147 79.4045 94.1378 79.5472C93.7768 79.7236 93.76 79.7908 93.9363 80.1854C94.0202 80.387 94.5407 81.2099 95.0779 82.0077C95.6235 82.8055 96.0851 83.5108 96.1103 83.578C96.1439 83.6704 96.0935 83.6872 95.8921 83.6452C95.6319 83.5864 95.6235 83.5948 95.6822 83.83C95.7074 83.9643 96.0348 84.6949 96.4041 85.4591C96.8658 86.4248 97.1764 86.9622 97.4282 87.2225C98.3347 88.1799 99.1825 89.3723 99.2832 89.8342C99.3252 90.0105 99.2832 90.254 99.1573 90.5899L98.9643 91.0854L99.2245 91.6144C99.4931 92.1603 99.9631 92.7565 101.004 93.8986C101.634 94.5872 102.12 95.2757 102.213 95.5865C102.246 95.704 102.213 95.8216 102.12 95.914C102.003 96.0399 101.877 96.0567 101.398 96.0147C100.97 95.9811 100.836 95.9895 100.861 96.0651C100.878 96.1239 101.281 96.4598 101.768 96.8209C102.817 97.6103 103.287 98.0469 103.254 98.2233C103.228 98.324 103.044 98.3576 102.322 98.3912C101.827 98.4248 101.382 98.4836 101.331 98.534C101.273 98.5928 101.34 98.8111 101.583 99.2814C101.852 99.8188 102.154 100.197 103.136 101.238C103.808 101.952 104.362 102.573 104.362 102.615C104.362 102.657 104.168 102.531 103.942 102.338C103.707 102.137 103.497 101.994 103.48 102.019C103.455 102.036 103.858 102.523 104.37 103.102C105.478 104.337 105.872 104.899 105.872 105.21C105.872 105.479 105.629 105.579 105.151 105.504L104.865 105.454L105.142 105.957C105.352 106.335 105.629 106.638 106.217 107.116C107.786 108.426 108.08 108.888 107.257 108.779C107.048 108.745 106.88 108.745 106.88 108.771C106.88 108.955 107.694 110.081 107.954 110.248C108.433 110.568 109.222 111.323 109.364 111.584C109.473 111.802 109.473 111.852 109.356 112.071C109.23 112.314 109.238 112.323 109.876 113.146C110.229 113.599 110.783 114.279 111.11 114.657L111.706 115.354H112.386C115.005 115.354 117.901 116.505 124.045 119.99C127.227 121.787 129.006 122.769 130.122 123.332L130.97 123.752L131.625 123.592C131.978 123.5 133.136 123.273 134.202 123.08C138.248 122.358 139.851 121.879 141.144 120.997C142.436 120.124 143.779 119.629 144.98 119.595C145.55 119.587 145.937 119.519 146.289 119.393C146.944 119.158 147.649 119.083 148.043 119.217C148.396 119.335 148.379 119.427 147.993 119.503C147.607 119.578 146.826 119.973 146.877 120.057C146.902 120.099 147.347 120.116 147.867 120.082C148.891 120.032 149.739 120.174 150.05 120.46C150.201 120.594 150.201 120.603 150.008 120.653C149.907 120.687 149.605 120.712 149.345 120.72C149.093 120.729 148.681 120.787 148.438 120.863L148.001 120.989L148.169 121.258C148.32 121.493 148.396 121.535 148.832 121.585C149.798 121.694 150.394 121.955 150.679 122.391L150.813 122.593L150.134 122.534C149.689 122.492 149.353 122.509 149.16 122.568C148.908 122.652 148.866 122.71 148.816 123.004C148.639 124.104 147.489 125.347 144.023 128.194C140.85 130.806 139.801 131.687 138.508 132.838C137.778 133.484 137.182 134.039 137.182 134.072C137.182 134.114 137.702 134.559 138.332 135.063C141.446 137.566 143.805 140.11 147.17 144.586C150.427 148.919 151.216 149.792 152.442 150.405C153.063 150.716 153.458 150.75 155.103 150.59C158.846 150.246 163.295 150.204 165.679 150.489C168.264 150.808 170.229 151.379 171.488 152.186C172.058 152.547 172.713 153.16 172.948 153.529C173.049 153.706 173.192 153.815 173.292 153.815C173.569 153.815 174.963 154.31 175.433 154.579C176.272 155.066 177.154 155.931 176.977 156.107C176.935 156.149 176.667 156.132 176.323 156.057C175.567 155.881 173.93 155.704 173.754 155.771C173.645 155.813 173.611 155.931 173.611 156.242C173.611 156.468 173.595 156.712 173.569 156.771C173.536 156.855 173.678 156.997 173.964 157.191C174.577 157.594 175.248 158.215 175.542 158.643C175.836 159.072 175.945 159.433 175.794 159.525C175.743 159.559 175.299 159.458 174.812 159.298C174.241 159.114 173.737 159.013 173.376 158.996C172.831 158.979 172.822 158.979 172.663 159.265L172.495 159.542L172.864 159.853C173.788 160.617 174.619 161.759 174.619 162.271C174.619 162.632 174.518 162.632 173.334 162.246C172.822 162.086 172.109 161.91 171.748 161.851C171.135 161.767 171.076 161.767 170.925 161.927C170.757 162.086 170.757 162.095 171.253 162.447C172.025 163.01 172.604 163.841 172.638 164.421C172.646 164.673 172.629 164.689 172.394 164.673C172.252 164.673 171.471 164.522 170.648 164.354C169.826 164.186 169.095 164.068 169.028 164.093C168.944 164.127 169.079 164.303 169.482 164.706C170.531 165.739 171.06 166.806 170.59 166.957C170.38 167.024 170.271 166.99 169.079 166.487C168.55 166.268 167.87 166.041 167.568 165.991L167.022 165.89L166.527 166.193C165.419 166.864 163.967 167.167 161.843 167.167C158.444 167.167 154.96 166.419 147.17 164.018C143.796 162.976 142.327 162.582 141.479 162.481C140.925 162.414 140.875 162.422 140.875 162.565C140.875 162.934 140.262 162.808 138.869 162.162C138.147 161.826 137.047 161.456 137.232 161.616C137.274 161.65 137.467 161.801 137.66 161.952C138.03 162.229 138.13 162.464 137.887 162.464C137.66 162.464 136.133 161.927 134.403 161.247C131.768 160.197 130.878 159.928 131.138 160.239C131.197 160.306 131.575 160.608 131.986 160.919C132.397 161.221 132.733 161.515 132.733 161.557C132.733 161.784 131.457 161.322 127.571 159.718C125.011 158.652 124.171 158.324 124.171 158.391C124.171 158.408 124.431 158.585 124.75 158.769C125.078 158.962 125.388 159.181 125.447 159.248C125.539 159.365 125.523 159.374 125.262 159.315C124.776 159.206 123.433 158.727 120.36 157.543C118.749 156.922 117.414 156.435 117.397 156.452C117.372 156.468 117.481 156.552 117.641 156.628C118.203 156.913 118.631 157.216 118.631 157.333C118.631 157.51 118.052 157.409 115.828 156.838C113.603 156.275 113.259 156.208 113.259 156.326C113.259 156.443 113.612 156.67 114.703 157.249C115.777 157.82 116.105 158.047 116.004 158.148C115.937 158.223 114.14 157.77 111.58 157.048C109.969 156.586 108.894 156.393 108.894 156.561C108.894 156.611 109.171 156.829 109.499 157.056C110.053 157.426 110.086 157.468 109.893 157.493C109.767 157.51 108.558 157.157 107.207 156.712C105.016 155.99 103.942 155.713 103.942 155.855C103.942 155.881 104.11 155.998 104.32 156.116C104.529 156.242 104.697 156.376 104.697 156.418C104.697 156.527 104.655 156.527 103.933 156.342C102.674 156.023 102.347 156.023 102.347 156.359C102.347 156.46 102.439 156.687 102.557 156.855C102.758 157.149 102.817 157.342 102.725 157.342C102.607 157.342 101.709 156.838 100.534 156.116C99.1489 155.267 98.6369 154.99 98.4774 154.99C98.4186 154.99 98.7628 155.385 99.2245 155.864C99.6945 156.351 100.081 156.787 100.081 156.829C100.081 157.115 99.4931 156.846 96.6307 155.259C95.7578 154.78 95.0947 154.47 94.868 154.436C94.5155 154.377 94.5071 154.386 94.633 154.537C95.5311 155.629 95.6403 155.822 95.422 155.998C95.2541 156.141 94.8261 156.065 93.7348 155.713L92.8787 155.435L92.7192 155.906L92.5681 156.376L91.5105 156.418L90.4528 156.46L89.412 156.989C88.1865 157.61 87.9263 157.669 87.3135 157.468C86.7175 157.266 86.0712 157.283 85.257 157.518C84.3672 157.77 83.2676 157.778 82.3107 157.526C81.2783 157.249 80.9509 157.3 80.3382 157.812C79.7506 158.299 78.6006 158.534 76.8295 158.526C74.8401 158.517 72.7752 158.173 70.7691 157.501C66.9918 156.242 64.2302 154.159 62.6774 151.405C62.2745 150.682 62.2661 150.674 61.5946 150.582L61.1749 150.523L61.6617 151.027C62.1234 151.514 62.2409 151.715 62.0562 151.715C61.9135 151.715 61.0573 151.262 60.2683 150.766C59.58 150.33 59.4793 150.288 58.6567 150.17C57.3137 149.969 57.364 149.918 57.9936 150.842C58.2957 151.287 58.5224 151.673 58.4888 151.699C58.4217 151.774 57.7334 151.069 57.2717 150.447L56.8604 149.901L56.1133 149.801C55.702 149.742 55.3243 149.7 55.2823 149.7C55.232 149.7 55.1732 149.977 55.148 150.321C55.0977 151.052 54.9885 151.295 54.7199 151.295C54.4933 151.295 53.763 150.556 53.293 149.851C53.1167 149.591 52.8985 149.356 52.7977 149.339C52.4872 149.263 50.9679 149.087 50.9427 149.121C50.9259 149.137 50.9511 149.49 50.993 149.91C51.0266 150.321 51.0434 150.758 51.0182 150.867L50.9679 151.069L50.7748 150.884C50.6657 150.783 50.3803 150.305 50.1369 149.818C49.8934 149.33 49.65 148.919 49.5996 148.902C49.5493 148.885 49.3646 148.852 49.1883 148.827L48.8778 148.785L48.8694 149.809C48.861 152.572 48.3993 152.53 46.7709 149.616C46.4352 149.011 46.0994 148.482 46.0238 148.44C45.9567 148.407 45.6209 148.348 45.2852 148.314L44.6808 148.256V149.079C44.6808 149.54 44.6556 149.994 44.6304 150.103C44.5213 150.506 44.2275 150.254 43.6316 149.238C43.2035 148.508 42.8677 148.104 42.6915 148.104C42.5572 148.104 42.3893 148.466 42.213 149.121C42.0535 149.683 41.8017 150.036 41.5415 150.036C41.1973 150.036 40.6098 149.566 39.8291 148.667C38.6708 147.34 38.4022 147.181 38.1168 147.685C38.0412 147.819 37.8733 147.953 37.7558 147.987C37.4033 148.071 36.715 147.878 35.9008 147.466C35.288 147.164 34.9523 147.055 34.0289 146.878C33.2315 146.736 32.879 146.694 32.8034 146.761C32.5852 146.937 32.4928 147.609 32.56 148.541C32.5936 149.154 32.5852 149.448 32.5264 149.448C32.4005 149.448 32.0396 148.961 31.3345 147.852C30.3692 146.316 29.8739 145.787 29.6221 145.997C29.555 146.055 29.4543 146.291 29.4039 146.534C29.236 147.239 29.0933 147.517 28.9086 147.517C28.6652 147.517 28.1448 147.03 27.6328 146.316C26.3989 144.619 26.3821 144.603 25.8616 144.368C25.5847 144.242 25.3328 144.166 25.3076 144.2C25.2741 144.233 25.2153 144.41 25.165 144.603C25.123 144.787 25.039 144.955 24.9803 144.972C24.9299 144.989 24.7285 144.804 24.5354 144.561C24.3424 144.317 24.1157 144.074 24.0402 144.015C23.9562 143.964 23.8219 143.763 23.738 143.578C23.6121 143.293 23.4694 143.167 22.907 142.839C22.5293 142.629 21.7067 142.092 21.0603 141.664C20.4224 141.227 19.7257 140.815 19.5159 140.74C18.8779 140.53 18.4918 140.236 17.4006 139.111C16.0072 137.692 15.8393 137.616 15.789 138.363L15.7638 138.741L15.0755 137.389C14.4291 136.113 14.0346 135.508 13.8751 135.508C13.8332 135.508 13.7828 135.794 13.7492 136.138C13.7073 136.549 13.6569 136.768 13.5898 136.743C13.4387 136.692 13.1533 136.13 12.6916 134.962C12.1964 133.728 11.9865 133.283 11.7683 132.997C11.6172 132.804 11.6088 132.813 11.634 133.61C11.6424 134.089 11.6172 134.416 11.5668 134.425C11.4409 134.45 11.0212 133.636 10.2909 131.948C9.60265 130.335 9.23331 129.689 8.9731 129.647C8.82201 129.613 8.81361 129.655 8.87238 130.184C8.90594 130.503 8.94792 131.024 8.96471 131.351C8.99828 131.83 8.98988 131.88 8.92273 131.645C8.88077 131.486 8.80522 130.839 8.76324 130.218C8.71289 129.596 8.63734 128.874 8.57858 128.622C8.48625 128.186 8.26801 127.732 8.19246 127.816C8.17567 127.833 8.07495 128.286 7.96584 128.824C7.8567 129.361 7.74759 129.831 7.714 129.857C7.53773 130.033 7.35307 129.185 7.11804 127.111C6.96695 125.792 6.84105 125.12 6.74031 125.053C6.64798 124.995 6.6228 125.095 6.41295 126.38C6.32062 126.926 6.22829 127.396 6.20311 127.43C6.00165 127.623 5.82538 126.783 5.52319 124.13C5.21263 121.468 5.17065 121.283 5.15387 122.66C5.14548 123.281 5.1035 123.945 5.06993 124.13C5.00278 124.457 5.00278 124.457 4.91884 124.256C4.86847 124.138 4.71739 123.256 4.5663 122.299C4.17178 119.712 4.05426 119.561 3.88638 121.4C3.83603 121.98 3.77727 122.458 3.76048 122.475C3.70172 122.534 3.63457 121.845 3.55063 120.309C3.44151 118.461 3.27364 117.143 3.13094 117C2.98824 116.866 2.83714 117.109 2.57693 117.907C2.45103 118.285 2.31673 118.621 2.27475 118.671C2.216 118.73 2.20761 118.033 2.25797 116.614C2.33351 114.296 2.31673 113.423 2.216 113.314C2.10687 113.204 1.91382 113.524 1.61163 114.296C1.30945 115.06 1.21712 115.203 1.09961 115.136C0.998886 115.069 1.03246 114.64 1.3766 111.617C1.51091 110.416 1.62003 109.182 1.62003 108.871C1.62003 108.015 1.43536 108.116 1.03246 109.19C0.898148 109.56 0.789032 109.829 0.78064 109.803C0.78064 109.77 0.914948 109.232 1.07443 108.603C1.3934 107.368 1.45215 106.621 1.24231 106.621C1.17516 106.621 0.906555 106.898 0.646332 107.225C0.377731 107.561 0.151093 107.855 0.134308 107.872C0.117523 107.889 0.0839386 107.889 0.0587616 107.855C-0.00839233 107.788 0.184677 107.2 0.914948 105.302C1.25909 104.412 1.53609 103.656 1.53609 103.623C1.53609 103.589 1.43536 103.707 1.31786 103.892C1.00728 104.353 0.688309 104.689 0.595978 104.639C0.453278 104.547 0.537216 103.665 0.864578 102.103C1.22551 100.339 1.35143 99.2814 1.22551 99.2058C1.17516 99.1722 0.965302 99.4241 0.755463 99.76C0.545609 100.096 0.2854 100.449 0.184677 100.533L0 100.701L0.0671539 100.491C0.176285 100.121 0.705093 99.3149 0.931732 99.1638C1.23392 98.979 1.29266 98.8867 1.73755 98.0469C2.0817 97.4003 2.216 96.9636 2.0733 96.9636C1.98097 96.9636 1.49413 97.3247 0.92334 97.8286C0.612762 98.1057 0.344162 98.3156 0.327362 98.2989C0.310577 98.2821 0.831009 97.6103 1.48573 96.8125C2.6357 95.4101 3.0386 94.8307 2.93788 94.7299C2.87912 94.6711 2.66087 94.7887 1.72076 95.3933C0.512039 96.1659 0.570786 95.9895 2.01454 94.4024C3.00502 93.3107 3.63457 92.5466 3.63457 92.4206C3.63457 92.2443 3.28203 92.3786 2.38388 92.8993C1.86345 93.2016 1.3766 93.4367 1.30106 93.4199C1.21712 93.4031 1.58646 93.0084 2.3419 92.303C4.30608 90.464 4.68381 90.0945 4.63344 90.0357C4.59987 90.0105 4.18857 90.1785 3.71851 90.4136C2.76999 90.8755 2.6273 90.909 2.6273 90.6823C2.6273 90.506 3.11415 89.9181 4.44878 88.4906C5.38051 87.4997 5.98486 86.7271 5.98486 86.5256C5.98486 86.3576 5.29657 86.5508 4.27251 87.0126C3.68494 87.2729 3.1813 87.4661 3.14772 87.4325C3.08057 87.3653 3.47508 87.0042 4.89366 85.837C6.3374 84.6529 6.6228 84.3926 6.55565 84.3254C6.53047 84.3002 5.93451 84.5605 5.23781 84.9216C4.54111 85.2743 3.94514 85.543 3.91158 85.5095C3.82764 85.4255 4.39001 84.8712 5.52319 83.9223C7.83992 81.9825 7.89868 81.781 5.82538 82.8139C5.13708 83.1582 4.51593 83.4437 4.46556 83.4437C4.27251 83.4437 4.75096 83.0238 6.11078 81.9909C7.4454 80.9748 8.33516 80.2106 8.33516 80.0679C8.33516 79.9503 7.94904 80.0847 6.74031 80.5969C6.11917 80.8656 5.59035 81.0672 5.57356 81.042C5.48962 80.9664 5.90932 80.6305 7.20198 79.7488C7.95743 79.2365 8.73807 78.6655 8.93953 78.4808L9.30046 78.1449L9.00667 78.1952C8.84718 78.2204 8.23444 78.4304 7.63847 78.6571C6.4801 79.1106 6.32062 79.1525 6.48849 78.951C6.58923 78.8251 6.95016 78.6067 9.61104 76.9776C10.3329 76.5325 10.7862 76.205 10.8533 76.0707C10.9037 75.9615 10.9289 75.8523 10.9205 75.8355C10.9037 75.8271 10.2154 76.0371 9.3844 76.3058C8.55341 76.5829 7.76437 76.8096 7.63007 76.8096H7.38664L7.5881 76.5829C7.78955 76.3646 9.10741 75.4828 10.8282 74.4164C11.3402 74.0889 11.7515 73.8201 11.7431 73.8033C11.7263 73.7949 11.2311 73.9965 10.6519 74.2568C10.0643 74.5171 9.42638 74.7523 9.2417 74.7775C8.93112 74.8194 8.91434 74.811 8.98988 74.6599C9.12419 74.408 9.87125 73.7278 11.0716 72.7537C12.8427 71.3093 12.8847 71.1665 11.2982 71.9307C10.7106 72.2078 10.1734 72.4429 10.1063 72.4429C9.90482 72.4429 10.3917 71.9895 11.6088 71.0322C13.0525 69.8985 13.7241 69.3275 13.6737 69.2687C13.6485 69.2519 13.1449 69.4618 12.5573 69.7474C11.4829 70.2596 11.1891 70.352 11.1891 70.1588C11.1891 70.0077 11.9697 69.2771 13.7492 67.7655C15.4112 66.3548 16.1667 65.641 15.9904 65.641C15.8645 65.641 15.3777 65.8845 14.1689 66.5563C12.6245 67.4212 12.7588 67.2533 15.0923 65.4478C16.7794 64.1378 17.6524 63.3988 17.6524 63.2729C17.6524 63.1469 17.3167 63.2477 16.3262 63.676C15.8477 63.8859 15.4196 64.0454 15.3693 64.0287C15.2517 63.9867 15.9233 63.424 17.2411 62.4667C18.3827 61.6354 19.1633 60.972 19.1633 60.8376C19.1633 60.7368 18.7268 60.7788 17.9714 60.9468C16.9893 61.1651 17.2159 60.9132 19.1633 59.5948C21.3373 58.1252 21.4297 57.9489 19.6586 58.6794C19.0878 58.9146 18.4666 59.1581 18.282 59.2253L17.9462 59.3428L18.1728 59.1413C18.2903 59.0321 19.1465 58.4947 20.0615 57.9573C20.9764 57.4114 22.1348 56.706 22.6468 56.3953C24.3675 55.3288 24.3759 55.2113 22.6888 55.7739C20.9932 56.3365 21.0016 56.2694 22.7895 55.1777C23.3855 54.8166 23.8639 54.4891 23.8639 54.4555C23.8639 54.3967 23.3603 54.5311 22.6888 54.7662C22.2858 54.909 22.0172 54.9258 22.0172 54.8166C22.0172 54.6738 22.7055 54.17 24.3256 53.1203C26.1051 51.9782 26.5248 51.6759 26.4073 51.6423C26.3653 51.6255 25.7441 51.8523 25.0307 52.1546C24.3256 52.4569 23.7212 52.6836 23.7044 52.6584C23.6457 52.5997 23.8891 52.4401 25.9708 51.1889C28.0944 49.9125 28.9003 49.3666 28.9003 49.1987C28.9003 49.0643 28.917 49.0643 27.9014 49.3078C27.4145 49.4254 26.9864 49.5094 26.9445 49.4926C26.8186 49.4506 27.2047 49.1987 28.4386 48.5101C30.2936 47.4772 30.4867 47.2253 29.278 47.41C28.3882 47.536 28.2623 47.536 28.3966 47.3764C28.5309 47.2085 29.4794 46.7634 31.7794 45.7725C33.5757 44.9999 34.2472 44.6808 33.8946 44.7648C32.0312 45.2434 31.3513 45.3274 31.2673 45.0839C31.2002 44.8824 31.9892 44.2357 33.626 43.1609C35.4139 41.9852 36.203 41.4058 36.203 41.2714C36.203 41.1203 35.5734 41.2714 34.541 41.6661C34.0038 41.8677 33.5589 42.0272 33.5421 42.0188C33.5337 42.0104 33.9282 41.8089 34.4234 41.5821C37.2942 40.2637 39.1408 39.298 39.1408 39.1049C39.1408 38.9873 38.4861 39.0041 37.588 39.1385C37.1683 39.2056 36.8157 39.2392 36.7989 39.2224C36.6898 39.1217 37.1934 38.8613 39.0065 38.0972C41.105 37.2154 41.7765 36.8795 41.701 36.7452C41.6674 36.7032 41.2561 36.6696 40.7693 36.6696C39.72 36.6696 39.6529 36.5772 40.358 36.1238C40.7189 35.8886 42.9181 34.8221 43.0356 34.8221C43.1363 34.8221 44.8655 33.974 44.8319 33.9404C44.8151 33.9152 44.5129 33.9824 44.1688 34.0748C41.0546 34.9397 41.7178 34.2595 46.3008 31.8746C48.9785 30.4722 50.6237 29.5653 51.1105 29.2042C51.4967 28.9271 51.5051 28.9019 51.312 28.8767C51.1945 28.8683 50.7832 28.9523 50.3887 29.0615C50.0026 29.179 49.6668 29.263 49.6584 29.2462C49.6416 29.2378 50.0026 29.0783 50.4474 28.9019C50.8839 28.7172 51.4211 28.4652 51.631 28.3309C51.9751 28.1125 52.0003 28.0789 51.866 28.0034C51.7737 27.953 51.4631 27.9362 51.1105 27.9698C50.204 28.0454 50.5566 27.9194 52.7977 27.3568C55.509 26.6766 55.5425 26.6598 54.3506 26.5926C53.6119 26.5422 53.3685 26.5002 53.2594 26.3911C53.1251 26.2567 53.1335 26.2315 53.3265 26.0719C53.6539 25.8116 54.2415 25.5261 55.8279 24.9047C56.6254 24.5856 57.4564 24.2329 57.6746 24.1153L58.0691 23.9138L57.7837 23.9054C57.6242 23.9054 57.2633 23.9474 56.9695 23.9978C56.6841 24.0482 56.3651 24.0733 56.256 24.0565L56.0546 24.0314L56.2476 23.9138C56.3568 23.855 57.3137 23.4687 58.3797 23.0573C60.2767 22.3267 60.965 22.0076 60.965 21.8732C60.965 21.7976 60.7048 21.7304 60.2599 21.7052C59.4877 21.6465 59.8318 21.4533 62.2661 20.5464C63.5923 20.0509 64.0288 19.8494 64.2974 19.5975C64.5408 19.3792 64.5408 19.228 64.3142 18.9761C64.1547 18.8165 64.1463 18.7661 64.2386 18.657C64.4485 18.405 65.1284 18.1195 66.5637 17.6828C68.0075 17.2378 68.6874 16.9859 68.6874 16.8935C68.6874 16.8599 68.3768 16.8431 67.9907 16.8515C67.101 16.8767 67.0422 16.8683 67.1429 16.7759C67.252 16.6667 68.3265 16.3392 70.4921 15.7598C73.43 14.9705 74.2945 14.6765 74.1854 14.5002C74.1518 14.4498 73.8748 14.4162 73.5475 14.4162C73.2285 14.4162 72.9683 14.3826 72.9683 14.3407C72.9683 14.2651 73.2621 14.1979 75.0584 13.8704C76.0657 13.6772 76.2503 13.6185 76.8211 13.2742C77.8032 12.6779 77.9879 12.5184 78.0886 12.1657C78.1306 11.9893 78.2481 11.0152 78.3404 9.99913C78.651 6.57295 78.9364 5.16217 79.675 3.46588C80.1619 2.35741 81.2111 1.17337 82.1596 0.66951C83.1333 0.157272 84.745 -0.12825 85.6431 0.0565033Z" fill="#003479"/>
</svg>
