<svg width="33" height="34" viewBox="0 0 33 34" fill="none" xmlns="http://www.w3.org/2000/svg">
<path d="M8.29431 11.1597C7.62683 9.30776 7.63617 9.06795 8.40032 7.9443C8.66786 7.65136 9.10048 6.71289 9.66214 6.99415C10.377 7.35212 10.708 7.06405 11.9799 9.1699C13.222 11.2265 11.5092 12.1604 11.5092 12.1604C11.5092 12.1604 8.96178 13.0116 8.29431 11.1597Z" fill="#003479"/>
<path d="M8.3576 6.77497C7.76531 6.49176 7.98231 4.38789 8.5456 3.78189C8.7351 3.39146 9.12701 3.53051 9.11291 4.39826C9.09528 5.48295 9.35861 5.9611 9.41616 6.3272C9.47372 6.69329 9.02193 6.81164 8.3576 6.77497Z" fill="#003479"/>
<path d="M14.769 10.7532C14.1015 8.90131 14.1062 8.33296 14.8704 7.2093C15.1379 6.91636 15.3451 6.19481 15.9656 6.09726C16.746 5.97457 17.3742 5.78169 18.1127 6.88863C19.4462 8.88728 18.2547 11.3821 18.2547 11.3821C18.2547 11.3821 15.4364 12.6052 14.769 10.7532Z" fill="#003479"/>
<path d="M16.2074 5.54085C15.6151 5.25765 16.2912 3.08161 16.8545 2.47561C17.2848 2.22069 17.8578 1.37708 17.5136 3.07755C17.2692 3.91661 17.2084 4.72699 17.266 5.09309C17.3235 5.45918 16.8717 5.57753 16.2074 5.54085Z" fill="#003479"/>
<path d="M7.06668 18.4963C7.06668 18.4963 4.22165 22.7554 4.05404 24.9543C5.0829 28.5172 8.57804 34.5251 14.3277 30.0529C20.0344 28.9654 19.3717 30.3071 21.7127 30.7487C24.0536 31.1903 29.3858 27.9511 26.9825 22.0017C26.92 20.3774 25.409 16.7003 19.8656 14.9859C12.9363 12.843 7.06668 18.4963 7.06668 18.4963Z" fill="#003479"/>
<path d="M1.69998 14.1381C1.00228 12.2974 2.31916 9.56516 3.06481 8.42915C3.32752 8.13186 4.00663 7.66149 4.62136 8.15825C5.38978 8.7792 5.67256 9.86202 6.5945 12.7203C7.33206 15.0069 4.56269 17.036 4.56269 17.036C4.56269 17.036 2.39767 15.9789 1.69998 14.1381Z" fill="#003479"/>
<path d="M1.72526 9.1339C1.12841 8.86043 1.58904 6.23321 1.89396 4.95378C2.07704 4.5603 2.44323 3.99031 2.44333 4.85817C2.44347 5.94301 3.09654 7.52739 3.11247 7.61895C3.12841 7.71051 2.47131 9.47574 1.72526 9.1339Z" fill="#003479"/>
<path d="M27.302 13.2672C26.9477 13.942 26.4701 14.4497 26.4443 15.1145L26.2592 15.9486L26.3867 16.681C27.0742 17.0174 28.5883 17.5148 29.1456 16.8141C29.7029 16.1134 29.9872 13.7903 29.179 12.9405C28.6952 12.6002 27.5612 12.7734 27.302 13.2672Z" fill="#003479"/>
<path d="M29.0276 12.0707C28.6789 12.0182 28.3395 11.6402 28.2134 11.4577C28.3016 10.6091 28.4874 8.96676 28.5257 9.18651C29.4014 8.79825 29.4635 12.1363 29.0276 12.0707Z" fill="#003479"/>
<path d="M25.3071 9.93531C25.7014 11.6591 23.6514 13.4308 21.9773 13.2977C21.2369 13.3795 20.9308 11.9823 20.8704 11.2735C20.8092 10.5609 20.8653 8.85937 21.5786 7.75415C22.2918 6.64893 23.4018 7.02806 23.8676 7.35578C24.216 7.64105 24.9916 8.55632 25.3071 9.93531Z" fill="#003479"/>
<path d="M24.0048 6.24704C23.8663 6.53528 23.1469 6.28629 22.8045 6.12576C23.0632 4.90156 22.5018 4.38608 22.5992 3.04843C23.8352 2.83331 24.178 5.88673 24.0048 6.24704Z" fill="#003479"/>
</svg>
