<svg width="33" height="34" viewBox="0 0 33 34" fill="none" xmlns="http://www.w3.org/2000/svg">
<path d="M8.29431 11.1595C7.62683 9.30755 7.63617 9.06774 8.40032 7.94409C8.66786 7.65115 9.10048 6.71268 9.66214 6.99394C10.377 7.3519 10.708 7.06384 11.9799 9.16969C13.222 11.2263 11.5092 12.1602 11.5092 12.1602C11.5092 12.1602 8.96178 13.0114 8.29431 11.1595Z" fill="#003479"/>
<path d="M8.3576 6.77476C7.76531 6.49155 7.98231 4.38768 8.5456 3.78168C8.7351 3.39125 9.12701 3.5303 9.11291 4.39805C9.09528 5.48274 9.35861 5.96089 9.41616 6.32699C9.47372 6.69308 9.02193 6.81143 8.3576 6.77476Z" fill="#003479"/>
<path d="M14.769 10.753C14.1015 8.9011 14.1062 8.33274 14.8704 7.20909C15.1379 6.91615 15.3451 6.1946 15.9656 6.09705C16.746 5.97436 17.3742 5.78148 18.1127 6.88842C19.4462 8.88707 18.2547 11.3819 18.2547 11.3819C18.2547 11.3819 15.4364 12.605 14.769 10.753Z" fill="#003479"/>
<path d="M16.2074 5.54064C15.6151 5.25744 16.2912 3.0814 16.8545 2.4754C17.2848 2.22048 17.8578 1.37687 17.5136 3.07734C17.2692 3.9164 17.2084 4.72678 17.266 5.09287C17.3235 5.45897 16.8717 5.57732 16.2074 5.54064Z" fill="#003479"/>
<path d="M7.06668 18.4963C7.06668 18.4963 4.22165 22.7554 4.05404 24.9543C5.0829 28.5172 8.57804 34.525 14.3277 30.0528C20.0344 28.9653 19.3717 30.307 21.7127 30.7486C24.0536 31.1903 29.3858 27.951 26.9825 22.0016C26.92 20.3774 25.409 16.7003 19.8656 14.9859C12.9363 12.8429 7.06668 18.4963 7.06668 18.4963Z" fill="#003479"/>
<path d="M1.69998 14.1381C1.00228 12.2973 2.31916 9.56509 3.06481 8.42908C3.32752 8.1318 4.00663 7.66143 4.62136 8.15819C5.38978 8.77914 5.67256 9.86195 6.5945 12.7202C7.33206 15.0069 4.56269 17.0359 4.56269 17.0359C4.56269 17.0359 2.39767 15.9788 1.69998 14.1381Z" fill="#003479"/>
<path d="M1.72526 9.13383C1.12841 8.86036 1.58904 6.23314 1.89396 4.95372C2.07704 4.56024 2.44323 3.99024 2.44333 4.85811C2.44347 5.94294 3.09654 7.52732 3.11247 7.61888C3.12841 7.71045 2.47131 9.47567 1.72526 9.13383Z" fill="#003479"/>
<path d="M27.302 13.2671C26.9477 13.942 26.4701 14.4496 26.4443 15.1144L26.2592 15.9485L26.3867 16.681C27.0742 17.0173 28.5883 17.5148 29.1456 16.814C29.7029 16.1133 29.9872 13.7903 29.179 12.9405C28.6952 12.6001 27.5612 12.7734 27.302 13.2671Z" fill="#003479"/>
<path d="M29.0276 12.0706C28.6789 12.0181 28.3395 11.6401 28.2134 11.4576C28.3016 10.609 28.4874 8.96669 28.5257 9.18644C29.4014 8.79819 29.4635 12.1363 29.0276 12.0706Z" fill="#003479"/>
<path d="M25.3071 9.93525C25.7014 11.659 23.6514 13.4308 21.9773 13.2976C21.2369 13.3794 20.9308 11.9822 20.8704 11.2734C20.8092 10.5608 20.8653 8.85931 21.5786 7.75409C22.2918 6.64887 23.4018 7.028 23.8676 7.35571C24.216 7.64098 24.9916 8.55625 25.3071 9.93525Z" fill="#003479"/>
<path d="M24.0048 6.24697C23.8663 6.53522 23.1469 6.28622 22.8045 6.1257C23.0632 4.9015 22.5018 4.38601 22.5992 3.04837C23.8352 2.83325 24.178 5.88667 24.0048 6.24697Z" fill="#003479"/>
</svg>
