<svg width="615" height="729" viewBox="0 0 615 729" fill="none" xmlns="http://www.w3.org/2000/svg">
<path d="M249.999 82.0004C255.5 54.5005 188 -43.9998 106 31.0001C81.9998 52.9513 91.508 110.265 120.5 143.042C49.3329 195.028 -63.8005 317.3 52.9995 390.5C12.9995 500 69.4995 543.5 61.9995 565.5C54.4995 587.5 34.9995 730 198.999 726C363 722 354 697 513 631.5C672 566 587.499 423.5 600.499 394C610.899 370.4 546.5 275.834 513 231.5L542 215.5C571.833 193 615.799 136.6 553 91.0003C490.2 45.4003 447 82.0004 425.5 120.5C341.5 65.5002 248.2 91.0001 249.999 82.0004Z" fill="black"/>
<path d="M148 168C139.331 161.786 129.529 153.25 120.5 143.042M120.5 143.042C91.508 110.265 81.9998 52.9513 106 31.0001C188 -43.9998 255.5 54.5005 249.999 82.0004C248.2 91.0001 341.5 65.5002 425.5 120.5C447 82.0004 490.2 45.4003 553 91.0003C615.8 136.6 571.833 193 542 215.5L513 231.5C546.5 275.834 610.899 370.4 600.499 394C587.499 423.5 672 566 513 631.5C354 697 362.999 722 198.999 726C34.9995 730 54.4995 587.5 61.9995 565.5C69.4995 543.5 12.9995 500 52.9995 390.5C-63.8005 317.3 49.3329 195.028 120.5 143.042Z" stroke="black" stroke-width="5"/>
<path d="M219.5 632.5C149.9 554.9 127.834 558.834 125.5 570.5C114 585 138.5 636.5 216.5 685C208.5 661 304.834 615.667 354 596C349.167 572.5 315.5 546.9 219.5 632.5Z" fill="white" stroke="black" stroke-width="5"/>
<path d="M244.5 221C247.333 223.5 252.7 230.1 251.5 236.5C250.3 242.9 232 275.833 223 291.5C204.666 336 181 401.731 251.5 418C342.5 439 343.499 392.5 347.999 263C351.283 168.5 459 279.501 454 287.5" stroke="white" stroke-width="5"/>
<ellipse cx="268.564" cy="376.411" rx="34.5" ry="24.5" transform="rotate(14.6111 268.564 376.411)" fill="white"/>
<path fill-rule="evenodd" clip-rule="evenodd" d="M190.909 235.002C190.827 235.147 190.746 235.293 190.666 235.44C184.223 247.338 188.842 262.313 200.983 268.888C213.124 275.463 228.19 271.148 234.633 259.249C234.713 259.103 234.791 258.955 234.867 258.807L190.909 235.002Z" fill="white"/>
<path fill-rule="evenodd" clip-rule="evenodd" d="M354.005 291.898C354.038 292.061 354.073 292.224 354.109 292.387C357.059 305.593 370.373 313.858 383.848 310.849C397.323 307.839 405.856 294.694 402.907 281.488C402.87 281.325 402.832 281.163 402.793 281.001L354.005 291.898Z" fill="white"/>
</svg>
