<svg width="615" height="729" viewBox="0 0 615 729" fill="none" xmlns="http://www.w3.org/2000/svg">
<path d="M250.435 81.6235C255.935 54.1235 188.435 -44.3767 106.435 30.6232C82.4353 52.5743 91.9436 109.888 120.935 142.665C49.7685 194.651 -63.3649 316.923 53.4351 390.123C13.4351 499.623 69.9351 543.123 62.4351 565.123C54.9351 587.123 35.435 729.623 199.435 725.623C363.435 721.623 354.435 696.623 513.435 631.123C672.435 565.623 587.935 423.123 600.935 393.623C611.335 370.023 546.935 275.457 513.435 231.123L542.435 215.123C572.268 192.623 616.235 136.223 553.435 90.6234C490.635 45.0234 447.435 81.6235 425.935 120.123C341.935 65.1233 248.635 90.6231 250.435 81.6235Z" fill="black"/>
<path d="M148.435 167.623C139.767 161.409 129.965 152.873 120.935 142.665M120.935 142.665C91.9436 109.888 82.4353 52.5743 106.435 30.6232C188.435 -44.3767 255.935 54.1235 250.435 81.6235C248.635 90.6231 341.935 65.1233 425.935 120.123C447.435 81.6235 490.635 45.0234 553.435 90.6234C616.235 136.223 572.268 192.623 542.435 215.123L513.435 231.123C546.935 275.457 611.335 370.023 600.935 393.623C587.935 423.123 672.435 565.623 513.435 631.123C354.435 696.623 363.435 721.623 199.435 725.623C35.435 729.623 54.9351 587.123 62.4351 565.123C69.9351 543.123 13.4351 499.623 53.4351 390.123C-63.3649 316.923 49.7685 194.651 120.935 142.665Z" stroke="black" stroke-width="5"/>
<path d="M219.935 632.123C150.335 554.523 128.268 558.457 125.935 570.123C114.435 584.623 138.935 636.123 216.935 684.623C208.935 660.623 305.268 615.29 354.435 595.623C349.602 572.123 315.935 546.523 219.935 632.123Z" fill="white" stroke="black" stroke-width="5"/>
<path d="M244.935 220.623C247.768 223.123 253.135 229.723 251.935 236.123C250.735 242.523 232.435 275.456 223.435 291.123C205.102 335.623 181.435 401.354 251.935 417.623C342.935 438.623 343.935 392.123 348.435 262.623C351.719 168.123 459.435 279.124 454.435 287.123" stroke="white" stroke-width="5"/>
<ellipse cx="378.936" cy="296.623" rx="24.5" ry="26" fill="white"/>
<ellipse cx="204.5" cy="260" rx="24.5" ry="26" fill="white"/>
<ellipse cx="269" cy="376.034" rx="34.5" ry="24.5" transform="rotate(14.6111 269 376.034)" fill="white"/>
</svg>
