<svg width="1913" height="516" viewBox="0 0 1913 516" fill="none" xmlns="http://www.w3.org/2000/svg">
<path d="M1915 246.226V516H-5V227.707C11.5464 220.7 45.3747 207.987 48.3163 213.193C61.0632 207.987 70.7868 201.681 74.0552 199.178C80.7964 198.845 96.9751 196.275 107.761 188.668C120.508 187.867 131.457 185.998 135.338 185.164C140.445 182.161 151.149 177.056 153.11 180.66C162.303 175.154 176.398 164.643 177.624 168.147C178.849 171.65 161.69 175.655 207.652 158.137C244.422 144.123 249.121 140.285 246.874 140.119C257.292 138.951 282.663 141.82 300.803 162.641C306.686 167.046 309.791 164.477 310.608 162.641C314.489 161.807 322.865 161.24 325.316 165.644C327.767 170.049 337.777 169.148 342.475 168.147L357.796 171.15C361.677 171.651 369.808 173.453 371.278 176.656C372.749 179.859 386.599 180.66 393.34 180.66C397.426 183.496 407.313 189.268 414.176 189.669C423.492 184.464 429.089 184.163 430.723 184.664C440.733 181.994 461.119 177.456 462.59 180.66C467.983 170.649 474.234 168.147 476.685 168.147C480.362 169.148 488.329 171.15 490.78 171.15C495.683 157.636 501.811 162.141 499.973 140.119C504.385 130.909 509.574 129.274 511.617 129.608L523.873 127.105C529.797 126.271 541.891 125.103 542.871 127.105C555.74 127.105 571.674 129.108 571.674 134.613C571.674 139.018 574.125 142.788 575.351 144.123V150.129C579.641 150.463 587.975 151.731 586.995 154.133C586.014 156.536 589.038 162.808 590.672 165.644C593.736 170.649 603.174 180.66 616.411 180.66C632.957 180.66 640.924 176.655 653.181 180.66L653.855 180.459C666.768 176.623 669.882 175.698 678.92 178.157C686.274 180.159 696.283 180.66 700.369 180.66C704.658 182.662 714.096 186.066 717.528 183.663C721.818 180.66 736.526 191.671 746.331 189.169C756.136 186.666 788.003 195.175 789.229 195.675C790.455 196.176 825.999 188.668 832.127 186.166C835.069 181.761 838.664 178.991 840.094 178.157C841.115 174.988 846.59 168.648 860.318 168.648C874.045 157.036 884.014 155.801 887.282 156.636H900.764L906.28 168.648L911.183 165.144C917.719 169.649 931.283 177.957 933.244 175.154C942.559 181.961 962.048 189.335 970.627 192.172C973.283 191.004 979.329 189.369 982.271 192.172C987.174 195.675 977.368 195.675 993.915 195.675C1007.15 195.675 1026.8 191.338 1034.97 189.169C1033.95 190.17 1033.14 192.172 1038.04 192.172C1042.94 192.172 1051.52 190.17 1055.2 189.169C1056.63 190.17 1062.43 192.172 1074.2 192.172C1088.9 192.172 1076.03 199.179 1088.9 195.675C1101.77 192.172 1102.39 216.196 1105.45 207.187C1108.51 198.178 1113.42 211.692 1117.09 207.187C1120.04 203.583 1128.53 201.348 1132.41 200.68C1139.36 198.511 1153.5 195.475 1154.48 200.68C1162.44 195.675 1168.57 195.675 1172.25 195.675C1178.13 190.47 1182.87 189.169 1184.51 189.169C1189.2 187.333 1198.48 185.365 1197.99 192.172C1206.81 194.975 1215.56 191.338 1218.82 189.169C1227.2 183.83 1243.95 173.753 1243.95 176.155C1243.95 179.158 1253.14 164.143 1261.72 170.149C1268.59 174.954 1273.16 170.483 1274.59 167.647L1298 104C1298.67 104.667 1300.8 106.2 1304.01 107C1308.01 108 1306 110.5 1309.5 115.5C1313 120.5 1313.5 122.5 1314.5 119.5C1315.5 116.5 1320 124 1324.23 128C1328.46 132 1328.5 130 1329.5 136C1330.5 142 1335.87 141 1338.5 148C1340.6 153.6 1344.04 151.667 1345.5 150C1348.5 150.833 1354.4 153.1 1354 155.5C1353.6 157.9 1359.17 156.5 1362 155.5C1366.17 154.833 1374.4 154.9 1374 160.5C1373.6 166.1 1381.83 162.833 1386 160.5C1390.67 160.333 1400 160.9 1400 164.5C1400 168.021 1415.39 176.396 1423.58 180.398C1423.79 180.452 1423.97 180.538 1424.12 180.66C1425.96 182.162 1433.93 171.651 1453.54 175.154C1473.15 166.646 1478.66 185.665 1483.57 183.163C1488.47 180.66 1492.76 192.172 1496.44 188.668C1497.46 185.832 1503.91 180.76 1521.56 183.163C1535.78 176.756 1540.97 179.492 1541.79 181.661C1543.83 178.992 1550.49 175.555 1560.78 183.163C1580.39 183.163 1577.94 181.661 1589.59 190.67C1600.37 193.473 1607.56 200.18 1609.81 203.183C1616.76 202.682 1632.85 203.483 1641.68 210.691C1650.5 217.898 1657.2 214.695 1659.45 212.192C1668.03 215.862 1687.15 221.401 1694.99 214.194C1715.83 219.199 1712.15 220.701 1731.76 221.201C1746.47 224.705 1744.02 226.206 1749.54 223.704C1763.75 224.104 1768.12 223.203 1768.53 222.703C1776.3 227.207 1792.8 236.016 1796.72 235.215C1801.63 234.214 1818.79 252.233 1824.91 247.228C1834.72 251.232 1846.57 255.236 1851.27 256.737L1879.46 255.736C1886.81 252.733 1902.13 247.027 1904.58 248.229C1907.03 249.43 1912.55 247.394 1915 246.226Z" fill="#345764"/>
<path d="M500 236.047H1300V170.547V105.047C1300 100.547 1262 89.5474 1261 91.5474C1260 93.5474 1224.5 76.5474 1224 78.5474C1223.5 80.5474 1186.5 74.5474 1187.5 72.5474C1188.3 70.9474 1169.17 66.8807 1159.5 65.0474C1154.17 59.714 1137.8 46.4474 1115 36.0474C1088 40.5471 1076 28.5474 1074.5 31.5476C1073.3 33.9479 1054.67 16.5476 1045.5 7.54736C1040.67 7.54736 1031 7.04736 1031 5.04736C1031 3.04736 1025 2.88068 1022 3.04734C1022.83 1.88067 1020.7 -0.352664 1005.5 0.0473362C986.5 0.547336 985 10.0473 978 10.5473C971 11.0473 968 18.0476 967.5 15.5476C967 13.0476 945.5 24.5476 944.5 26.0476C943.5 27.5476 930 24.0476 923.5 31.5476C917 39.0477 905.5 37.5476 905.5 40.0476C905.5 42.5476 867.5 24.5476 862.5 31.5476C857.5 38.5476 835 44.0476 833.5 46.0476C832 48.0476 831 42.5476 823 51.5476C819 50.7476 815.333 55.5475 814 58.0475C813.833 57.0475 811.8 56.0475 805 60.0475C798.2 64.0475 794.167 64.7142 793 64.5475C791.5 65.7141 784.8 69.7473 770 76.5474C752 74.0475 753 76.5474 749 79.0473C745 81.5472 694 77.5474 692.5 76.5474C691.3 75.7474 662.333 91.214 648 99.0474C646 99.3807 640.8 101.047 636 105.047C633.2 102.647 626.167 104.047 623 105.047C621 106.047 615.5 107.447 609.5 105.047C601 109.547 593 106.047 592 108.047C591.2 109.647 571.667 115.714 562 118.547C561.833 116.547 558.9 113.747 548.5 118.547C538.5 114.947 512 130.381 500 138.547V236.047Z" fill="#345764"/>
</svg>
