<svg width="1921" height="156" viewBox="0 0 1921 156" fill="none" xmlns="http://www.w3.org/2000/svg">
<path d="M1793.25 103.952C1796.07 107.059 1828.55 99.4702 1844.44 95.2874C1858.63 98.5738 1874.57 95.2874 1883.17 103.952C1899.43 95.2874 1910.59 107.139 1914.73 95.2874L1919.99 88.7818L1920.74 11.0758L1915.48 17.5814C1911.34 29.4326 1900.18 17.5814 1883.92 26.2457C1875.31 17.5814 1859.38 20.8679 1845.19 17.5814C1829.3 21.7642 1796.82 29.353 1793.99 26.2457C1781.75 29.353 1772.42 33.1175 1769.28 34.6113C1762.81 34.8105 1747.27 36.3442 1736.91 40.8855C1724.67 41.3635 1714.16 42.4789 1710.43 42.9769C1705.53 44.7695 1695.25 47.817 1693.36 45.6658C1684.54 48.9523 1671 55.2265 1669.83 53.1351C1668.65 51.0437 1685.13 48.6534 1640.99 59.1104C1605.68 67.476 1601.17 69.7665 1603.33 69.8661C1593.32 70.5632 1568.96 68.8502 1551.54 56.4214C1545.89 53.7923 1542.91 55.326 1542.13 56.4214C1538.4 56.9194 1530.36 57.258 1528 54.6288C1525.65 51.9997 1516.04 52.5375 1511.52 53.1351L1496.81 51.3424C1493.09 51.0436 1485.28 49.9679 1483.87 48.0559C1482.45 46.1438 1469.15 45.6658 1462.68 45.6658C1458.76 43.9728 1449.26 40.5269 1442.67 40.2879C1433.73 43.3951 1428.35 43.5743 1426.78 43.2756C1417.17 44.8691 1397.59 47.578 1396.18 45.6658C1391 51.6412 1385 53.1351 1382.65 53.1351C1379.12 52.5375 1371.47 51.3424 1369.11 51.3424C1364.4 59.4092 1358.52 56.7202 1360.28 69.8661C1356.05 75.3635 1351.07 76.3395 1349.1 76.1403L1337.33 77.6341C1331.65 78.1321 1320.03 78.8292 1319.09 77.6341C1306.73 77.6341 1291.43 76.4388 1291.43 73.1525C1291.43 70.5234 1289.08 68.2726 1287.9 67.4758V63.8906C1283.78 63.6914 1275.78 62.9345 1276.72 61.5004C1277.66 60.0663 1274.76 56.3218 1273.19 54.6288C1270.25 51.6412 1261.18 45.6658 1248.47 45.6658C1232.58 45.6658 1224.93 48.0561 1213.16 45.6658L1212.52 45.7854C1200.12 48.0755 1197.13 48.6277 1188.45 47.1594C1181.39 45.9645 1171.77 45.6658 1167.85 45.6658C1163.73 44.4706 1154.67 42.4386 1151.37 43.8729C1147.25 45.6658 1133.13 39.0926 1123.72 40.5864C1114.3 42.0803 1083.7 37.0012 1082.52 36.7024C1081.34 36.4037 1047.21 40.8852 1041.33 42.3791C1038.5 45.0085 1035.05 46.6615 1033.68 47.1594C1032.7 49.0516 1027.44 52.836 1014.26 52.836C1001.08 59.7675 991.503 60.5045 988.365 60.0065H975.418L970.122 52.836L965.414 54.9274C959.137 52.2385 946.112 47.2789 944.229 48.952C935.284 44.8887 916.57 40.4869 908.331 38.7938C905.781 39.491 899.975 40.4669 897.15 38.7938C892.442 36.7024 901.858 36.7024 885.969 36.7024C873.258 36.7024 854.387 39.2918 846.541 40.5864C847.522 39.9889 848.306 38.7938 843.598 38.7938C838.891 38.7938 830.652 39.9889 827.121 40.5864C825.748 39.9889 820.177 38.7938 808.878 38.7938C794.754 38.7938 807.113 34.611 794.755 36.7024C782.396 38.7938 781.808 24.4528 778.865 29.8307C775.923 35.2086 771.215 27.1418 767.684 29.8307C764.86 31.9819 756.699 33.3163 752.972 33.7147C746.303 35.0094 732.729 36.8219 731.787 33.7147C724.137 36.7024 718.252 36.7024 714.721 36.7024C709.072 39.8097 704.521 40.5864 702.951 40.5864C698.44 41.6819 689.534 42.8571 690.005 38.7938C681.531 37.1207 673.135 39.2918 669.997 40.5864C661.954 43.7733 645.869 49.7886 645.869 48.3545C645.869 46.5619 637.042 55.525 628.803 51.9397C622.212 49.0715 617.818 51.7405 616.445 53.4336C611.737 53.9315 602.321 54.6286 602.321 53.4336C602.321 52.2385 598.398 51.9397 596.436 51.9397L588.198 48.3545L575.251 50.1471C573.878 48.952 570.661 46.9204 568.778 48.3545C566.424 50.1471 567.601 45.3668 557.597 46.2631C547.593 47.1594 561.716 43.2754 543.473 44.1717C525.23 45.068 532.292 41.7815 524.642 42.9766C518.522 43.9327 514.637 42.5782 513.461 41.7815C509.93 42.9766 502.397 45.1277 500.514 44.1717C498.16 42.9766 483.448 44.1717 482.271 44.1717C481.094 44.1717 474.621 46.5619 472.855 45.6656C471.09 44.7692 463.44 51.0434 444.608 48.952C425.777 54.0311 420.481 42.6778 415.773 44.1717C411.065 45.6655 406.945 38.7938 403.415 40.8852C402.434 42.5782 396.235 45.6058 379.287 44.1717C365.634 47.9959 360.652 46.3627 359.867 45.068C357.905 46.6614 351.511 48.713 341.624 44.1717C322.793 44.1717 325.147 45.068 313.966 39.6901C303.608 38.017 296.703 34.0135 294.546 32.2209C287.876 32.5196 272.419 32.0416 263.945 27.7393C255.47 23.437 249.037 25.3491 246.879 26.843C238.64 24.652 220.279 21.3456 212.747 25.6479C192.739 22.6602 196.269 21.7639 177.438 21.4651C163.314 19.3737 165.668 18.4774 160.372 19.9713C146.719 19.7322 142.522 20.27 142.129 20.5688C134.675 17.8799 118.825 12.6215 115.059 13.0995C110.351 13.6971 93.8738 2.94135 87.989 5.92906C78.5734 3.53889 67.196 1.14871 62.6843 0.252396L35.6143 0.849945C28.5526 2.64258 13.8403 6.04857 11.4865 5.33151C9.13245 4.61446 3.09229 6.86032 0.738281 7.55756V84.2329C3.09216 83.5357 8.38855 82.3204 10.7424 83.0375C13.0964 83.7545 27.8086 80.3486 34.8704 78.556L61.9404 77.9584C66.452 78.8547 77.8293 81.2449 87.245 83.635C93.1299 80.6473 109.607 91.4031 114.315 90.8055C118.082 90.3275 133.931 95.5859 141.385 98.2748C141.778 97.976 145.975 97.4383 159.628 97.6773C164.925 96.1834 162.571 97.0797 176.694 99.1711C195.525 99.4699 191.995 100.366 212.003 103.354C219.535 99.0516 237.896 102.358 246.135 104.549C248.293 103.055 254.727 101.143 263.201 105.445C271.675 109.748 287.132 110.226 293.802 109.927C295.959 111.719 302.864 115.723 313.222 117.396C324.403 122.774 322.049 121.878 340.88 121.878C350.767 126.419 357.161 124.367 359.123 122.774C359.908 124.069 364.89 125.702 378.543 121.878C395.491 123.312 401.687 120.284 402.668 118.591C406.199 116.5 410.318 123.372 415.026 121.878C419.734 120.384 425.03 131.737 443.862 126.658C462.693 128.749 470.343 122.475 472.109 123.372C473.874 124.268 480.348 121.878 481.524 121.878C482.701 121.878 497.413 120.683 499.767 121.878C501.65 122.834 509.183 120.683 512.714 119.488C513.891 120.284 517.775 121.639 523.895 120.683C531.545 119.488 524.484 122.774 542.726 121.878C560.969 120.981 546.846 124.865 556.85 123.969C566.854 123.073 565.677 127.853 568.031 126.06C569.914 124.626 573.131 126.658 574.505 127.853L587.451 126.06L595.69 129.646C597.651 129.646 601.574 129.944 601.574 131.14C601.574 132.335 610.99 131.638 615.698 131.14C617.071 129.447 621.465 126.778 628.056 129.646C636.295 133.231 645.122 124.268 645.122 126.06C645.122 127.495 661.207 121.479 669.25 118.292C672.388 116.998 680.784 114.827 689.258 116.5C688.787 120.563 697.693 119.388 702.205 118.292C703.774 118.292 708.325 117.516 713.974 114.408C717.505 114.408 723.39 114.408 731.04 111.421C731.982 114.528 745.556 112.715 752.226 111.421C755.953 111.022 764.113 109.688 766.938 107.537C770.469 104.848 775.176 112.915 778.119 107.537C781.061 102.159 781.65 116.5 794.008 114.408C806.366 112.317 794.008 116.5 808.131 116.5C819.43 116.5 825.001 117.695 826.374 118.292C829.905 117.695 838.144 116.5 842.852 116.5C847.559 116.5 846.775 117.695 845.794 118.292C853.641 116.998 872.511 114.408 885.222 114.408C901.111 114.408 891.696 114.408 896.403 116.5C899.228 118.173 905.034 117.197 907.585 116.5C915.823 118.193 934.537 122.595 943.482 126.658C945.365 124.985 958.39 129.945 964.667 132.633L969.375 130.542L974.671 137.713H987.618C990.756 138.21 1000.33 137.474 1013.51 130.542C1026.69 130.542 1031.95 126.758 1032.93 124.865C1034.3 124.368 1037.76 122.715 1040.58 120.085C1046.47 118.591 1080.6 114.11 1081.77 114.408C1082.95 114.707 1113.55 119.786 1122.97 118.292C1132.38 116.799 1146.51 123.372 1150.63 121.579C1153.92 120.145 1162.98 122.177 1167.1 123.372C1171.03 123.372 1180.64 123.671 1187.7 124.865C1196.38 126.334 1199.37 125.781 1211.77 123.491L1212.42 123.372C1224.19 125.762 1231.84 123.372 1247.73 123.372C1260.44 123.372 1269.5 129.347 1272.44 132.335C1274.01 134.028 1276.91 137.772 1275.97 139.206C1275.03 140.64 1283.03 141.397 1287.15 141.597V145.182C1288.33 145.979 1290.68 148.229 1290.68 150.858C1290.68 154.145 1305.98 155.34 1318.34 155.34C1319.28 156.535 1330.9 155.838 1336.59 155.34L1348.36 153.846C1350.32 154.046 1355.3 153.07 1359.54 147.572C1357.77 134.426 1363.66 137.115 1368.36 129.048C1370.72 129.048 1378.37 130.243 1381.9 130.841C1384.25 130.841 1390.26 129.347 1395.43 123.372C1396.85 125.284 1416.42 122.575 1426.03 120.982C1427.6 121.28 1432.98 121.101 1441.92 117.994C1448.51 118.233 1458.01 121.679 1461.93 123.372C1468.41 123.372 1481.71 123.85 1483.12 125.762C1484.53 127.674 1492.34 128.75 1496.06 129.048L1510.78 130.841C1515.29 130.243 1524.9 129.706 1527.25 132.335C1529.61 134.964 1537.65 134.625 1541.38 134.127C1542.16 133.032 1545.14 131.498 1550.79 134.127C1568.21 146.556 1592.57 148.269 1602.58 147.572C1600.42 147.473 1604.93 145.182 1640.24 136.816C1684.38 126.359 1667.9 128.75 1669.08 130.841C1670.25 132.932 1683.79 126.658 1692.62 123.372C1694.5 125.523 1704.78 122.476 1709.68 120.683C1713.41 120.185 1723.92 119.07 1736.16 118.592C1746.52 114.05 1762.06 112.517 1768.53 112.317C1771.67 110.823 1781.01 107.059 1793.25 103.952Z" fill="black"/>
</svg>
