<svg width="1915" height="331" viewBox="0 0 1915 331" fill="none" xmlns="http://www.w3.org/2000/svg">
<path d="M0 0V228.962C2.44495 227.971 7.94604 226.243 10.391 227.262C12.8359 228.282 28.1168 223.439 35.4517 220.891L63.5685 220.041C68.2546 221.315 80.0719 224.714 89.8517 228.112C95.964 223.864 113.079 239.157 117.969 238.307C121.88 237.627 138.343 245.104 146.085 248.927C146.493 248.502 150.853 247.737 165.034 248.077C170.535 245.953 168.09 247.228 182.759 250.201C202.319 250.626 198.651 251.9 219.433 256.148C227.257 250.031 246.328 254.732 254.885 257.847C257.126 255.723 263.809 253.005 272.611 259.122C281.413 265.239 297.468 265.918 304.395 265.494C306.636 268.042 313.808 273.734 324.566 276.113C336.179 283.76 333.734 282.485 353.294 282.485C363.563 288.942 370.205 286.025 372.242 283.76C373.057 285.6 378.232 287.922 392.413 282.485C410.017 284.524 416.455 280.22 417.474 277.812C421.141 274.839 425.42 284.609 430.31 282.485C435.2 280.361 440.701 296.503 460.26 289.282C479.82 292.255 487.766 283.335 489.599 284.609C491.433 285.883 498.157 282.485 499.379 282.485C500.602 282.485 515.883 280.786 518.328 282.485C520.283 283.844 528.107 280.786 531.775 279.087C532.997 280.22 537.031 282.145 543.388 280.786C551.334 279.087 543.999 283.76 562.948 282.485C581.896 281.211 567.226 286.733 577.617 285.459C588.008 284.184 586.786 290.981 589.231 288.432C591.187 286.393 594.528 289.282 595.954 290.981L609.402 288.432L617.959 293.53C619.996 293.53 624.071 293.954 624.071 295.654C624.071 297.353 633.851 296.362 638.741 295.654C640.167 293.246 644.731 289.452 651.577 293.53C660.134 298.627 669.303 285.883 669.303 288.432C669.303 290.471 686.01 281.919 694.363 277.388C697.623 275.547 706.343 272.46 715.145 274.839C714.656 280.616 723.906 278.945 728.593 277.388C730.222 277.388 734.949 276.283 740.817 271.865C744.484 271.865 750.597 271.865 758.543 267.617C759.521 272.035 773.62 269.458 780.547 267.617C784.419 267.051 792.894 265.154 795.828 262.095C799.496 258.272 804.385 269.741 807.442 262.095C810.498 254.449 811.109 274.839 823.945 271.865C836.781 268.892 823.945 274.839 838.615 274.839C850.351 274.839 856.137 276.538 857.563 277.388C861.23 276.538 869.788 274.839 874.678 274.839C879.568 274.839 878.753 276.538 877.734 277.388C885.884 275.547 905.484 271.865 918.687 271.865C935.19 271.865 925.41 271.865 930.3 274.839C933.234 277.218 939.265 275.83 941.914 274.839C950.471 277.246 969.908 283.505 979.199 289.282C981.155 286.903 994.684 293.954 1001.2 297.778L1006.09 294.804L1011.59 304.999H1025.04C1028.3 305.707 1038.24 304.659 1051.94 294.804C1065.63 294.804 1071.09 289.423 1072.11 286.733C1073.53 286.025 1077.12 283.675 1080.05 279.936C1086.17 277.812 1121.62 271.441 1122.84 271.865C1124.06 272.29 1155.85 279.512 1165.63 277.388C1175.41 275.264 1190.08 284.609 1194.35 282.06C1197.78 280.021 1207.19 282.91 1211.47 284.609C1215.54 284.609 1225.53 285.034 1232.86 286.733C1241.88 288.821 1244.98 288.035 1257.86 284.779L1258.53 284.609C1270.76 288.008 1278.7 284.609 1295.21 284.609C1308.41 284.609 1317.82 293.105 1320.88 297.353C1322.51 299.76 1325.52 305.084 1324.55 307.123C1323.57 309.162 1331.88 310.238 1336.16 310.521V315.619C1337.38 316.752 1339.83 319.952 1339.83 323.69C1339.83 328.362 1355.72 330.062 1368.56 330.062C1369.53 331.761 1381.6 330.77 1387.5 330.062L1399.73 327.938C1401.77 328.221 1406.94 326.833 1411.34 319.017C1409.51 300.327 1415.62 304.15 1420.51 292.68C1422.96 292.68 1430.9 294.38 1434.57 295.229C1437.01 295.229 1443.25 293.105 1448.63 284.609C1450.09 287.328 1470.43 283.477 1480.41 281.211C1482.04 281.636 1487.62 281.381 1496.92 276.963C1503.76 277.303 1513.62 282.202 1517.7 284.609C1524.42 284.609 1538.23 285.289 1539.7 288.008C1541.17 290.726 1549.28 292.256 1553.15 292.68L1568.43 295.229C1573.12 294.38 1583.1 293.615 1585.54 297.353C1587.99 301.091 1596.34 300.61 1600.21 299.902C1601.03 298.344 1604.13 296.164 1609.99 299.902C1628.09 317.573 1653.39 320.008 1663.78 319.017C1661.54 318.876 1666.23 315.619 1702.9 303.725C1748.74 288.857 1731.63 292.256 1732.85 295.229C1734.07 298.203 1748.13 289.282 1757.3 284.609C1759.26 287.668 1769.93 283.335 1775.03 280.786C1778.9 280.078 1789.82 278.493 1802.53 277.813C1813.29 271.356 1829.43 269.175 1836.15 268.892C1839.41 266.768 1849.11 261.416 1861.82 256.998C1864.76 261.416 1898.5 250.626 1915 244.679V0H0Z" fill="#9BBACE"/>
</svg>
