<svg width="1915" height="117" viewBox="0 0 1915 117" fill="none" xmlns="http://www.w3.org/2000/svg">
<path d="M1690.5 99.5745C1739.3 85.634 1860.5 105.383 1915 117V0H-5V69.2043C5.83337 73.6851 29.3 77.3694 36.5 56.2596C45.5 29.8723 239 99.5745 291.5 82.6468C344 65.7191 509 60.7404 539.5 82.6468C570 104.553 744.5 117 747 82.6468C749.5 48.2936 975.5 82.6468 984.5 99.5745C993.5 116.502 1226.5 99.5745 1228.5 82.6468C1230.5 65.7191 1450.5 78.166 1455 99.5745C1459.5 120.983 1629.5 117 1690.5 99.5745Z" fill="#CDD9E7"/>
</svg>
