<svg width="1920" height="125" viewBox="0 0 1920 125" fill="none" xmlns="http://www.w3.org/2000/svg">
<path d="M1793.21 72.9316C1796.03 76.04 1828.53 68.4483 1844.43 64.2639C1858.62 67.5516 1874.56 64.2639 1883.17 72.9316C1899.43 64.2639 1910.59 76.1197 1914.74 64.2639L1920 57.7557V0H0V53.2051C2.35486 52.5076 7.6532 51.2919 10.0081 52.0092C12.3629 52.7266 27.0808 49.3193 34.1453 47.5259L61.2258 46.9282C65.7393 47.8248 77.121 50.2159 86.5403 52.607C92.4274 49.6181 108.911 60.3781 113.621 59.7803C117.389 59.3021 133.245 64.5625 140.702 67.2524C141.094 66.9536 145.293 66.4156 158.952 66.6547C164.25 65.1602 161.895 66.0569 176.024 68.1491C194.863 68.448 191.33 69.3447 211.346 72.3335C218.882 68.0296 237.25 71.3372 245.492 73.5291C247.65 72.0346 254.087 70.1218 262.564 74.4257C271.042 78.7297 286.505 79.2079 293.177 78.909C295.336 80.7023 302.243 84.7074 312.604 86.3812C323.79 91.7611 321.435 90.8645 340.274 90.8645C350.164 95.4076 356.561 93.3552 358.524 91.7611C359.309 93.0563 364.293 94.6902 377.951 90.8645C394.906 92.2991 401.107 89.2704 402.088 87.5767C405.62 85.4845 409.741 92.3589 414.451 90.8645C419.161 89.37 424.459 100.728 443.298 95.6467C462.137 97.7389 469.79 91.4623 471.556 92.3589C473.322 93.2556 479.798 90.8645 480.975 90.8645C482.153 90.8645 496.87 89.6689 499.225 90.8645C501.109 91.8209 508.645 89.6689 512.177 88.4734C513.354 89.2704 517.24 90.6254 523.362 89.6689C531.016 88.4734 523.951 91.7611 542.201 90.8645C560.451 89.9678 546.322 93.8533 556.33 92.9567C566.338 92.06 565.161 96.8422 567.515 95.0489C569.399 93.6142 572.618 95.6467 573.991 96.8422L586.943 95.0489L595.185 98.6355C597.147 98.6355 601.072 98.9344 601.072 100.13C601.072 101.326 610.491 100.628 615.201 100.13C616.575 98.4363 620.97 95.7662 627.564 98.6355C635.806 102.222 644.636 93.2556 644.636 95.0489C644.636 96.4835 660.728 90.466 668.773 87.2778C671.913 85.9827 680.312 83.8108 688.79 85.4845C688.319 89.5494 697.228 88.3738 701.741 87.2778C703.311 87.2778 707.864 86.5007 713.515 83.3923C717.047 83.3923 722.935 83.3923 730.588 80.4035C731.53 83.5119 745.109 81.6986 751.781 80.4035C755.51 80.0049 763.673 78.6699 766.499 76.5179C770.031 73.828 774.741 81.8979 777.685 76.5179C780.628 71.138 781.217 85.4845 793.58 83.3923C805.943 81.3001 793.58 85.4845 807.709 85.4845C819.012 85.4845 824.585 86.6801 825.959 87.2778C829.491 86.6801 837.733 85.4845 842.443 85.4845C847.152 85.4845 846.367 86.6801 845.386 87.2778C853.236 85.9827 872.114 83.3923 884.83 83.3923C900.725 83.3923 891.305 83.3923 896.015 85.4845C898.841 87.1583 904.649 86.1819 907.2 85.4845C915.442 87.1782 934.163 91.5818 943.112 95.6467C944.996 93.9729 958.026 98.9344 964.305 101.624L969.015 99.5322L974.313 106.705H987.265C990.405 107.204 999.981 106.466 1013.17 99.5322C1026.36 99.5322 1031.61 95.7463 1032.6 93.8533C1033.97 93.3553 1037.42 91.7016 1040.25 89.0712C1046.14 87.5767 1080.28 83.0934 1081.46 83.3923C1082.64 83.6912 1113.25 88.7723 1122.67 87.2778C1132.09 85.7834 1146.22 92.3592 1150.34 90.5656C1153.63 89.1307 1162.7 91.1635 1166.82 92.3592C1170.75 92.3592 1180.36 92.658 1187.43 93.8533C1196.11 95.3222 1199.1 94.7698 1211.5 92.4788L1212.15 92.3592C1223.93 94.7504 1231.58 92.3592 1247.47 92.3592C1260.19 92.3592 1269.26 98.3369 1272.2 101.326C1273.77 103.019 1276.67 106.765 1275.73 108.2C1274.79 109.635 1282.8 110.392 1286.92 110.591V114.178C1288.1 114.975 1290.45 117.226 1290.45 119.856C1290.45 123.144 1305.76 124.34 1318.12 124.34C1319.06 125.535 1330.68 124.838 1336.37 124.34L1348.14 122.846C1350.11 123.045 1355.09 122.068 1359.33 116.569C1357.56 103.418 1363.45 106.108 1368.16 98.0379C1370.51 98.0379 1378.17 99.2335 1381.7 99.8313C1384.05 99.8313 1390.06 98.3369 1395.24 92.3592C1396.65 94.2722 1416.24 91.5621 1425.85 89.968C1427.42 90.2669 1432.8 90.0876 1441.75 86.9791C1448.34 87.2183 1457.84 90.6655 1461.76 92.3592C1468.24 92.3592 1481.54 92.8374 1482.96 94.7502C1484.37 96.663 1492.18 97.739 1495.91 98.0379L1510.63 99.8313C1515.14 99.2335 1524.76 98.6955 1527.11 101.326C1529.47 103.956 1537.51 103.617 1541.24 103.119C1542.02 102.023 1545.01 100.489 1550.66 103.119C1568.09 115.553 1592.46 117.266 1602.47 116.569C1600.31 116.469 1604.82 114.178 1640.14 105.809C1684.3 95.3479 1667.81 97.7391 1668.99 99.8313C1670.17 101.924 1683.71 95.647 1692.54 92.3592C1694.42 94.5112 1704.7 91.4625 1709.61 89.6692C1713.34 89.1711 1723.86 88.0552 1736.1 87.577C1746.46 83.0339 1762.01 81.4997 1768.48 81.3004C1771.62 79.806 1780.96 76.04 1793.21 72.9316Z" fill="black"/>
</svg>
