<svg width="1920" height="95" viewBox="0 0 1920 95" fill="none" xmlns="http://www.w3.org/2000/svg">
<path d="M126.793 39.572C123.967 37.2096 91.47 42.9793 75.5749 46.1595C61.3845 43.6608 45.441 46.1595 36.8311 39.572C20.568 46.1595 9.40686 37.149 5.26159 46.1595L0 51.1056V95H1920V54.5641C1917.65 55.0942 1912.35 56.0181 1909.99 55.473C1907.64 54.9278 1892.92 57.5174 1885.85 58.8803L1858.77 59.3346C1854.26 58.6531 1842.88 56.8359 1833.46 55.0187C1827.57 57.2902 1811.09 49.1127 1806.38 49.567C1802.61 49.9304 1786.76 45.9325 1779.3 43.8881C1778.91 44.1153 1774.71 44.5242 1761.05 44.3424C1755.75 45.4782 1758.11 44.7968 1743.98 43.2067C1725.14 42.9795 1728.67 42.2981 1708.65 40.0265C1701.12 43.2975 1682.75 40.7837 1674.51 39.1179C1672.35 40.2537 1665.91 41.7075 1657.44 38.4364C1648.96 35.1654 1633.49 34.802 1626.82 35.0291C1624.66 33.6662 1617.76 30.6224 1607.4 29.3503C1596.21 25.2615 1598.56 25.943 1579.73 25.943C1569.84 22.4903 1563.44 24.05 1561.48 25.2615C1560.69 24.2772 1555.71 23.0354 1542.05 25.943C1525.09 24.8527 1518.89 27.1545 1517.91 28.4417C1514.38 30.0318 1510.26 24.8072 1505.55 25.943C1500.84 27.0788 1495.54 18.4469 1476.7 22.3085C1457.86 20.7185 1450.21 25.4887 1448.44 24.8072C1446.68 24.1258 1440.2 25.943 1439.02 25.943C1437.85 25.943 1423.13 26.8516 1420.77 25.943C1418.89 25.2161 1411.36 26.8516 1407.82 27.7602C1406.65 27.1545 1402.76 26.1247 1396.64 26.8516C1388.98 27.7602 1396.05 25.2615 1377.8 25.943C1359.55 26.6245 1373.68 23.6715 1363.67 24.3529C1353.66 25.0344 1354.84 21.3999 1352.48 22.7628C1350.6 23.8532 1347.38 22.3085 1346.01 21.3999L1333.06 22.7628L1324.82 20.037C1322.85 20.037 1318.93 19.8098 1318.93 18.9012C1318.93 17.9926 1309.51 18.5226 1304.8 18.9012C1303.43 20.1884 1299.03 22.2177 1292.44 20.037C1284.19 17.3112 1275.36 24.1258 1275.36 22.7628C1275.36 21.6725 1259.27 26.2459 1251.23 28.6688C1248.09 29.6532 1239.69 31.3038 1231.21 30.0318C1231.68 26.9425 1222.77 27.8359 1218.26 28.6688C1216.69 28.6688 1212.14 29.2594 1206.48 31.6218C1202.95 31.6218 1197.07 31.6218 1189.41 33.8934C1188.47 31.531 1174.89 32.909 1168.22 33.8934C1164.49 34.1962 1156.33 35.2109 1153.5 36.8464C1149.97 38.8908 1145.26 32.7576 1142.32 36.8464C1139.37 40.9351 1138.78 30.0318 1126.42 31.6218C1114.06 33.2119 1126.42 30.0318 1112.29 30.0318C1100.99 30.0318 1095.42 29.1231 1094.04 28.6688C1090.51 29.1231 1082.27 30.0318 1077.56 30.0318C1072.85 30.0318 1073.63 29.1231 1074.61 28.6688C1066.76 29.6532 1047.89 31.6218 1035.17 31.6218C1019.28 31.6218 1028.69 31.6218 1023.98 30.0318C1021.16 28.7597 1015.35 29.5017 1012.8 30.0318C1004.56 28.7446 985.837 25.3978 976.888 22.3085C975.004 23.5806 961.974 19.8098 955.695 17.7655L950.985 19.3555L945.687 13.9038H932.735C929.595 13.5253 920.019 14.0856 906.832 19.3555C893.645 19.3555 888.386 22.2328 887.404 23.6715C886.031 24.05 882.577 25.3068 879.751 27.3059C873.864 28.4417 839.719 31.849 838.542 31.6218C837.364 31.3947 806.751 27.5331 797.332 28.6688C787.913 29.8046 773.784 24.807 769.663 26.1701C766.366 27.2607 757.3 25.7158 753.179 24.807C749.254 24.807 739.638 24.5799 732.574 23.6715C723.893 22.5551 720.901 22.975 708.496 24.7161L707.848 24.807C696.074 22.9897 688.421 24.807 672.526 24.807C659.81 24.807 650.743 20.264 647.8 17.9925C646.23 16.7053 643.326 13.8584 644.268 12.7681C645.21 11.6777 637.203 11.1023 633.082 10.9508V8.22501C631.905 7.61922 629.55 5.90794 629.55 3.90908C629.55 1.41052 614.244 0.501676 601.881 0.501676C600.939 -0.406908 589.322 0.123099 583.631 0.501676L571.856 1.63741C569.894 1.48597 564.91 2.22801 560.671 6.40765C562.437 16.4024 556.55 14.358 551.84 20.4912C549.486 20.4912 541.832 19.5825 538.3 19.1282C535.945 19.1282 529.94 20.264 524.76 24.807C523.347 23.3532 503.762 25.4128 494.147 26.6243C492.577 26.3972 487.2 26.5335 478.252 28.8958C471.658 28.7141 462.16 26.0942 458.236 24.807C451.76 24.807 438.455 24.4436 437.042 22.9899C435.629 21.5361 427.819 20.7183 424.091 20.4912L409.373 19.1282C404.859 19.5825 395.244 19.9914 392.889 17.9925C390.534 15.9935 382.488 16.251 378.76 16.6296C377.975 17.4624 374.992 18.6285 369.341 16.6296C351.915 7.18005 327.542 5.87766 317.534 6.40765C319.693 6.48337 315.179 8.22488 279.857 14.5852C235.704 22.5356 252.188 20.7183 251.01 19.1282C249.833 17.5381 236.292 22.3083 227.462 24.807C225.578 23.1715 215.295 25.4885 210.389 26.8514C206.661 27.23 196.142 28.078 183.897 28.4415C173.536 31.8942 157.994 33.0603 151.518 33.2117C148.379 34.3475 139.038 37.2096 126.793 39.572Z" fill="black"/>
</svg>
