<svg width="1919" height="181" viewBox="0 0 1919 181" fill="none" xmlns="http://www.w3.org/2000/svg">
<path d="M1919 181V73.713V0H0C373.391 7.2525 1052.98 30.6856 934.513 49.8922C677.438 76.6014 864.977 97.0335 972.092 105.974C995.429 112.601 1028.1 130.207 972.092 147.613C916.083 165.019 1030.69 177.124 1094.99 181H1919Z" fill="#475B7F"/>
<path d="M776.666 147.613C682.781 155.866 748.628 173.31 793.287 181H0V9.94093C274.503 19.5067 954.967 32.4487 842.648 49.8922C677.442 69.2114 774.651 99.1592 832.574 111.226C853.057 119.916 870.551 139.361 776.666 147.613Z" fill="#475B7F"/>
</svg>
