<svg width="1915" height="390" viewBox="0 0 1915 390" fill="none" xmlns="http://www.w3.org/2000/svg">
<path d="M1915 390V120.226C1912.55 121.394 1907.03 123.43 1904.58 122.229C1902.13 121.027 1886.81 126.733 1879.46 129.736L1851.27 130.737C1846.57 129.236 1834.72 125.232 1824.91 121.228C1818.79 126.233 1801.63 108.214 1796.72 109.215C1792.8 110.016 1776.3 101.207 1768.53 96.7027C1768.12 97.2032 1763.75 98.1041 1749.54 97.7037C1744.02 100.206 1746.47 98.7047 1731.76 95.2012C1712.15 94.7006 1715.83 93.1991 1694.99 88.194C1687.15 95.4014 1668.03 89.8624 1659.45 86.192C1657.2 88.6945 1650.5 91.8978 1641.68 84.6905C1632.85 77.4832 1616.76 76.6824 1609.81 77.1829C1607.56 74.1798 1600.37 67.473 1589.59 64.6702C1577.94 55.661 1580.39 57.1625 1560.78 57.1625C1550.49 49.5548 1543.83 52.9916 1541.79 55.661C1540.97 53.4921 1535.78 50.756 1521.56 57.1625C1503.91 54.7601 1497.46 59.8319 1496.44 62.6681C1492.76 66.1717 1488.47 54.66 1483.57 57.1625C1478.66 59.6651 1473.15 40.6458 1453.54 49.1544C1433.93 45.6508 1425.96 56.1615 1424.12 54.66C1422.28 53.1585 1415.54 57.1625 1414.32 57.1625C1413.09 57.1625 1397.77 59.1646 1395.32 57.1625C1393.36 55.5609 1385.51 59.1646 1381.84 61.1666C1380.61 59.8319 1376.57 57.5629 1370.19 59.1646C1362.23 61.1666 1369.58 55.661 1350.58 57.1625C1331.58 58.6641 1346.29 52.1575 1335.87 53.659C1325.46 55.1605 1326.68 47.1524 1324.23 50.1554C1322.27 52.5579 1318.92 49.1544 1317.49 47.1524L1304.01 50.1554L1295.43 44.1493C1293.39 44.1493 1289.3 43.6488 1289.3 41.6468C1289.3 39.6447 1279.49 40.8126 1274.59 41.6468C1273.16 44.483 1268.59 48.9542 1261.72 44.1493C1253.14 38.1432 1243.95 53.1585 1243.95 50.1554C1243.95 47.753 1227.2 57.8299 1218.82 63.1686C1215.56 65.3375 1206.81 68.9745 1197.99 66.1717C1198.48 59.3648 1189.2 61.3334 1184.51 63.1686C1182.87 63.1686 1178.13 64.47 1172.25 69.6752C1168.57 69.6752 1162.44 69.6752 1154.48 74.6803C1153.5 69.475 1139.36 72.5115 1132.41 74.6803C1128.53 75.3477 1120.04 77.5833 1117.09 81.1869C1113.42 85.6915 1108.51 72.1778 1105.45 81.1869C1102.39 90.1961 1101.77 66.1717 1088.9 69.6752C1076.03 73.1788 1088.9 66.1717 1074.2 66.1717C1062.43 66.1717 1056.63 64.1696 1055.2 63.1686C1051.52 64.1696 1042.94 66.1717 1038.04 66.1717C1033.14 66.1717 1033.95 64.1696 1034.97 63.1686C1026.8 65.3375 1007.15 69.6752 993.915 69.6752C977.368 69.6752 987.174 69.6752 982.271 66.1717C979.329 63.3688 973.283 65.0038 970.627 66.1717C962.048 63.3355 942.56 55.9613 933.245 49.1544C931.283 51.9572 917.719 43.6488 911.183 39.1442L906.28 42.6478L900.764 30.6356H887.282C884.014 29.8014 874.045 31.036 860.318 42.6478C846.59 42.6478 841.116 48.9876 840.094 52.1575C838.664 52.9915 835.069 55.7607 832.127 60.1656C825.999 62.6681 790.455 70.1757 789.229 69.6752C788.004 69.1747 756.136 60.6661 746.331 63.1686C736.526 65.6712 721.818 54.6595 717.528 57.663C714.096 60.0659 704.659 56.6619 700.369 54.6595C696.283 54.6595 686.274 54.1591 678.92 52.1575C669.882 49.6977 666.768 50.6228 653.855 54.4592L653.181 54.6595C640.924 50.6553 632.957 54.6595 616.411 54.6595C603.174 54.6595 593.736 44.6495 590.672 39.6444C589.038 36.8083 586.014 30.5355 586.995 28.1331C587.975 25.7306 579.641 24.4627 575.351 24.129V18.1229C574.125 16.7881 571.674 13.0175 571.674 8.61324C571.674 3.10793 555.741 1.10539 542.871 1.10539C541.891 -0.896576 529.797 0.271236 523.873 1.10539L511.617 3.60784C509.574 3.27417 504.385 4.90917 499.973 14.1186C501.811 36.1409 495.683 31.6363 490.78 45.15C488.329 45.15 480.362 43.1479 476.685 42.1469C474.234 42.1469 467.983 44.6494 462.59 54.6595C461.119 51.4561 440.733 55.9943 430.723 58.6637C429.089 58.1632 423.492 58.4635 414.177 63.6688C407.313 63.2684 397.426 57.4958 393.34 54.6595C386.599 54.6595 372.749 53.8587 371.278 50.6556C369.808 47.4525 361.677 45.6506 357.796 45.15L342.475 42.1469C337.777 43.1479 327.767 44.0489 325.316 39.6444C322.865 35.24 314.489 35.8072 310.608 36.6414C309.791 38.4766 306.686 41.0458 300.803 36.6414C282.663 15.8204 257.292 12.9508 246.874 14.1186C249.121 14.2854 244.422 18.1226 207.652 32.1368C161.69 49.6546 178.849 45.6504 177.624 42.1469C176.398 38.6433 162.303 49.1539 153.11 54.6595C151.149 51.0558 140.445 56.161 135.338 59.1641C131.457 59.9983 120.508 61.8668 107.761 62.6676C96.9751 70.2754 80.7964 72.8446 74.0552 73.1783C70.7868 75.6808 61.0632 81.9873 48.3163 87.1925C45.3747 81.9873 11.5464 94.7002 -5 101.707V390H1915Z" fill="#9BBACE"/>
</svg>
