<svg width="1913" height="313" viewBox="0 0 1913 313" fill="none" xmlns="http://www.w3.org/2000/svg">
<path d="M0 163.642V-1.52588e-05H1915V174.875C1898.5 179.126 1864.76 186.837 1861.82 183.68C1849.11 186.837 1839.41 190.663 1836.15 192.181C1829.43 192.383 1813.29 193.941 1802.53 198.556C1789.82 199.042 1778.9 200.175 1775.03 200.681C1769.93 202.503 1759.26 205.6 1757.3 203.414C1748.13 206.754 1734.07 213.129 1732.85 211.004C1731.63 208.879 1748.74 206.45 1702.9 217.076C1666.23 225.577 1661.54 227.904 1663.78 228.006C1653.39 228.714 1628.09 226.973 1609.99 214.343C1604.13 211.672 1601.03 213.23 1600.21 214.343C1596.34 214.849 1587.99 215.194 1585.54 212.522C1583.1 209.85 1573.12 210.397 1568.43 211.004L1553.15 209.182C1549.28 208.879 1541.17 207.786 1539.7 205.843C1538.23 203.9 1524.42 203.414 1517.7 203.414C1513.62 201.693 1503.76 198.192 1496.92 197.949C1487.62 201.106 1482.04 201.289 1480.41 200.985C1470.43 202.604 1450.09 205.357 1448.63 203.414C1443.25 209.486 1437.01 211.004 1434.57 211.004C1430.9 210.397 1422.96 209.182 1420.51 209.182C1415.62 217.38 1409.51 214.647 1411.34 228.006C1406.94 233.592 1401.77 234.584 1399.73 234.381L1387.5 235.899C1381.6 236.405 1369.53 237.114 1368.56 235.899C1355.72 235.899 1339.83 234.685 1339.83 231.345C1339.83 228.673 1337.38 226.386 1336.16 225.577V221.933C1331.88 221.731 1323.57 220.962 1324.55 219.505C1325.52 218.047 1322.51 214.242 1320.88 212.522C1317.82 209.486 1308.41 203.414 1295.21 203.414C1278.7 203.414 1270.76 205.843 1258.53 203.414L1257.86 203.535C1244.98 205.862 1241.88 206.424 1232.86 204.932C1225.53 203.717 1215.54 203.414 1211.47 203.414C1207.19 202.199 1197.78 200.134 1194.35 201.592C1190.08 203.414 1175.41 196.734 1165.63 198.252C1155.85 199.77 1124.06 194.609 1122.84 194.306C1121.62 194.002 1086.17 198.556 1080.05 200.074C1077.12 202.746 1073.53 204.426 1072.11 204.932C1071.09 206.854 1065.63 210.7 1051.94 210.7C1038.24 217.744 1028.3 218.493 1025.04 217.987H1011.59L1006.09 210.7L1001.2 212.825C994.684 210.093 981.155 205.053 979.199 206.753C969.908 202.624 950.471 198.151 941.914 196.431C939.265 197.139 933.234 198.131 930.3 196.431C925.41 194.306 935.19 194.306 918.687 194.306C905.484 194.306 885.884 196.937 877.734 198.252C878.753 197.645 879.568 196.431 874.678 196.431C869.788 196.431 861.231 197.645 857.563 198.252C856.137 197.645 850.351 196.431 838.615 196.431C823.945 196.431 836.781 192.18 823.945 194.306C811.109 196.431 810.498 181.858 807.442 187.323C804.386 192.788 799.496 184.59 795.828 187.323C792.894 189.509 784.419 190.865 780.547 191.269C773.62 192.585 759.521 194.427 758.543 191.269C750.597 194.306 744.485 194.306 740.817 194.306C734.949 197.463 730.222 198.252 728.592 198.252C723.906 199.366 714.656 200.56 715.145 196.431C706.344 194.731 697.623 196.937 694.363 198.252C686.01 201.491 669.303 207.603 669.303 206.146C669.303 204.324 660.134 213.432 651.577 209.789C644.731 206.875 640.167 209.587 638.741 211.307L615.393 249.915C614.728 249.51 612.599 248.58 609.402 248.095C605.405 247.488 607.414 245.972 603.923 242.939C600.432 239.906 599.934 238.693 598.936 240.513C597.939 242.332 593.451 237.783 589.231 235.357C585.011 232.93 584.973 234.143 583.975 230.504C582.978 226.864 577.617 227.471 574.999 223.225C572.904 219.828 569.471 221.001 568.017 222.012C565.025 221.506 559.14 220.131 559.539 218.675C559.938 217.22 554.386 218.069 551.56 218.675C547.404 219.08 539.192 219.039 539.591 215.642C539.99 212.246 531.778 214.227 527.622 215.642C522.968 215.744 513.659 215.4 513.659 213.216C513.659 211.08 498.313 206 490.137 203.572C489.929 203.539 489.748 203.488 489.599 203.414C487.766 202.503 479.82 208.878 460.26 206.753C440.701 211.914 435.2 200.378 430.31 201.896C425.42 203.414 421.141 196.431 417.474 198.556C416.455 200.276 410.017 203.353 392.413 201.896C378.232 205.782 373.057 204.122 372.242 202.806C370.205 204.426 363.563 206.51 353.294 201.896C333.734 201.896 336.18 202.806 324.566 197.342C313.808 195.641 306.636 191.573 304.395 189.751C297.468 190.055 281.413 189.569 272.611 185.197C263.809 180.826 257.126 182.769 254.885 184.287C246.328 182.06 227.257 178.7 219.434 183.072C198.652 180.036 202.319 179.125 182.759 178.822C168.09 176.697 170.535 175.786 165.034 177.304C150.853 177.061 146.493 177.607 146.085 177.911C138.343 175.179 121.88 169.835 117.969 170.321C113.079 170.928 95.964 159.998 89.8516 163.034C80.0719 160.606 68.2546 158.177 63.5686 157.266L35.4518 157.873C28.1169 159.695 12.8361 163.156 10.3911 162.427C7.94617 161.699 2.44495 162.933 0 163.642Z" fill="#345764"/>
<path d="M1411.32 169.816H613.4V209.548V249.279C613.4 252.009 651.301 258.682 652.298 257.468C653.296 256.255 688.703 266.567 689.202 265.354C689.701 264.141 726.604 267.78 725.607 268.994C724.809 269.964 743.892 272.431 753.534 273.543C758.853 276.778 775.177 284.826 797.918 291.134C824.848 288.405 836.816 295.683 838.312 293.864C839.509 292.408 858.094 302.962 867.237 308.422C872.058 308.422 881.699 308.725 881.699 309.938C881.699 311.152 887.684 311.253 890.676 311.152C889.845 311.859 891.972 313.214 907.133 312.971C926.083 312.668 927.579 306.905 934.561 306.602C941.543 306.299 944.535 302.053 945.034 303.569C945.533 305.085 966.977 298.11 967.974 297.2C968.971 296.29 982.436 298.413 988.919 293.864C995.402 289.314 1006.87 290.224 1006.87 288.708C1006.87 287.191 1044.77 298.11 1049.76 293.864C1054.75 289.617 1077.19 286.281 1078.68 285.068C1080.18 283.855 1081.18 287.191 1089.16 281.732C1093.15 282.217 1096.8 279.305 1098.13 277.789C1098.3 278.396 1100.33 279.002 1107.11 276.576C1113.89 274.149 1117.92 273.745 1119.08 273.846C1120.58 273.139 1127.26 270.692 1142.02 266.567C1159.97 268.084 1158.98 266.567 1162.96 265.051C1166.95 263.534 1217.82 265.961 1219.32 266.567C1220.51 267.052 1249.41 257.671 1263.7 252.919C1265.7 252.717 1270.88 251.706 1275.67 249.279C1278.46 250.735 1285.48 249.886 1288.64 249.279C1290.63 248.673 1296.12 247.824 1302.1 249.279C1310.58 246.55 1318.56 248.673 1319.56 247.46C1320.35 246.489 1339.84 242.809 1349.48 241.09C1349.64 242.304 1352.57 244.002 1362.94 241.09C1372.92 243.274 1399.35 233.912 1411.32 228.959V169.816Z" fill="#345764"/>
</svg>
