<svg width="1920" height="266" viewBox="0 0 1920 266" fill="none" xmlns="http://www.w3.org/2000/svg">
<path d="M1920 0.5V111.836C1920 119.252 1828.8 118.428 1826.4 115.132C1824 111.836 1738.8 139.852 1737.6 136.556C1736.4 133.26 1647.6 143.148 1650 146.444C1651.92 149.081 1606 155.782 1582.8 158.804C1570 167.593 1530.72 189.456 1476 206.595C1411.2 199.179 1382.4 218.955 1378.8 214.01C1375.92 210.055 1331.2 238.73 1309.2 253.562C1297.6 253.562 1274.4 254.386 1274.4 257.682C1274.4 260.978 1260 261.253 1252.8 260.978C1254.8 262.901 1249.68 266.581 1213.2 265.922C1167.6 265.098 1164 249.442 1147.2 248.618C1130.4 247.794 1123.2 236.258 1122 240.378C1120.8 244.498 1069.2 225.546 1066.8 223.074C1064.4 220.602 1032 226.37 1016.4 214.01C1000.8 201.65 973.2 204.122 973.2 200.003C973.2 195.883 882 225.546 870 214.01C858 202.474 804 193.411 800.4 190.115C796.8 186.819 794.4 195.883 775.2 181.051C765.6 182.369 756.8 174.459 753.6 170.339C753.2 171.987 748.32 173.635 732 167.043C715.68 160.451 706 159.353 703.2 159.627C699.6 157.705 683.52 151.058 648 139.852C604.8 143.972 607.2 139.852 597.6 135.732C588 131.612 465.6 138.204 462 139.852C459.12 141.17 389.6 115.682 355.2 102.772C350.4 102.223 337.92 99.4765 326.4 92.8846C319.68 96.8398 302.8 94.5326 295.2 92.8846C290.4 91.2367 277.2 88.9295 262.8 92.8846C242.4 85.4688 223.2 91.2367 220.8 87.9407C218.88 85.304 172 75.3062 148.8 70.637C148.4 73.9329 141.36 78.5473 116.4 70.637C92.4 76.5697 28.8 51.136 0 37.6775V0.5H1920Z" fill="#003479"/>
</svg>
