<svg width="1920" height="170" viewBox="0 0 1920 170" fill="none" xmlns="http://www.w3.org/2000/svg">
<path d="M1920 170V120.226C1917.55 121.394 1912.03 123.43 1909.58 122.229C1907.13 121.027 1891.81 126.733 1884.46 129.736L1856.27 130.737C1851.57 129.236 1839.72 125.232 1829.91 121.228C1823.79 126.233 1806.63 108.214 1801.72 109.215C1797.8 110.016 1781.3 101.207 1773.53 96.7027C1773.12 97.2032 1768.75 98.1041 1754.54 97.7037C1749.02 100.206 1751.47 98.7047 1736.76 95.2012C1717.15 94.7006 1720.83 93.1991 1699.99 88.194C1692.15 95.4014 1673.03 89.8624 1664.45 86.192C1662.2 88.6945 1655.5 91.8978 1646.68 84.6905C1637.85 77.4832 1621.76 76.6824 1614.81 77.1829C1612.56 74.1798 1605.37 67.473 1594.59 64.6702C1582.94 55.661 1585.39 57.1625 1565.78 57.1625C1555.49 49.5548 1548.83 52.9916 1546.79 55.661C1545.97 53.4921 1540.78 50.756 1526.56 57.1625C1508.91 54.7601 1502.46 59.8319 1501.44 62.6681C1497.76 66.1717 1493.47 54.66 1488.57 57.1625C1483.66 59.6651 1478.15 40.6458 1458.54 49.1544C1438.93 45.6508 1430.96 56.1615 1429.12 54.66C1427.28 53.1585 1420.54 57.1625 1419.32 57.1625C1418.09 57.1625 1402.77 59.1646 1400.32 57.1625C1398.36 55.5609 1390.51 59.1646 1386.84 61.1666C1385.61 59.8319 1381.57 57.5629 1375.19 59.1646C1367.23 61.1666 1374.58 55.661 1355.58 57.1625C1336.58 58.6641 1351.29 52.1574 1340.87 53.659C1330.46 55.1605 1331.68 47.1524 1329.23 50.1554C1327.27 52.5579 1323.92 49.1544 1322.49 47.1524L1309.01 50.1554L1300.43 44.1493C1298.38 44.1493 1294.3 43.6488 1294.3 41.6468C1294.3 39.6447 1284.49 40.8126 1279.59 41.6468C1278.16 44.483 1273.59 48.9542 1266.72 44.1493C1258.14 38.1432 1248.95 53.1585 1248.95 50.1554C1248.95 47.753 1232.2 57.8299 1223.82 63.1686C1220.56 65.3375 1211.81 68.9745 1202.99 66.1717C1203.48 59.3648 1194.2 61.3334 1189.51 63.1686C1187.87 63.1686 1183.13 64.47 1177.25 69.6752C1173.57 69.6752 1167.44 69.6752 1159.48 74.6803C1158.5 69.475 1144.36 72.5115 1137.41 74.6803C1133.53 75.3477 1125.04 77.5833 1122.09 81.1869C1118.42 85.6915 1113.51 72.1778 1110.45 81.1869C1107.39 90.1961 1106.77 66.1717 1093.9 69.6752C1081.03 73.1788 1093.9 66.1717 1079.2 66.1717C1067.43 66.1717 1061.63 64.1696 1060.2 63.1686C1056.52 64.1696 1047.94 66.1717 1043.04 66.1717C1038.14 66.1717 1038.95 64.1696 1039.97 63.1686C1031.8 65.3375 1012.15 69.6752 998.915 69.6752C982.368 69.6752 992.174 69.6752 987.271 66.1717C984.329 63.3688 978.283 65.0038 975.627 66.1717C967.048 63.3355 947.559 55.9613 938.244 49.1544C936.283 51.9572 922.719 43.6488 916.183 39.1442L911.28 42.6478L905.764 30.6356H892.282C889.014 29.8014 879.045 31.036 865.318 42.6478C851.59 42.6478 846.115 48.9876 845.094 52.1575C843.664 52.9915 840.069 55.7607 837.127 60.1656C830.999 62.6681 795.455 70.1758 794.229 69.6752C793.003 69.1747 761.136 60.6661 751.331 63.1686C741.526 65.6712 726.818 54.6595 722.528 57.663C719.096 60.0659 709.658 56.6619 705.369 54.6595C701.283 54.6595 691.274 54.1591 683.92 52.1575C674.882 49.6977 671.768 50.6228 658.855 54.4592L658.181 54.6595C645.924 50.6553 637.957 54.6595 621.411 54.6595C608.174 54.6595 598.736 44.6495 595.672 39.6444C594.038 36.8083 591.014 30.5355 591.995 28.1331C592.975 25.7306 584.641 24.4627 580.351 24.129V18.1229C579.125 16.7881 576.674 13.0175 576.674 8.61324C576.674 3.10792 560.74 1.10539 547.871 1.10539C546.891 -0.896576 534.797 0.271236 528.873 1.10539L516.617 3.60784C514.574 3.27417 509.385 4.90917 504.973 14.1186C506.811 36.1409 500.683 31.6363 495.78 45.15C493.329 45.15 485.362 43.1479 481.685 42.1469C479.234 42.1469 472.983 44.6494 467.59 54.6595C466.119 51.4561 445.732 55.9942 435.723 58.6637C434.089 58.1632 428.492 58.4635 419.177 63.6688C412.313 63.2684 402.426 57.4958 398.34 54.6595C391.599 54.6595 377.749 53.8587 376.278 50.6556C374.808 47.4525 366.677 45.6506 362.796 45.15L347.475 42.1469C342.777 43.1479 332.767 44.0489 330.316 39.6444C327.865 35.24 319.489 35.8072 315.608 36.6414C314.791 38.4766 311.686 41.0458 305.803 36.6414C287.663 15.8204 262.292 12.9508 251.874 14.1186C254.121 14.2854 249.422 18.1226 212.652 32.1368C166.69 49.6546 183.849 45.6504 182.624 42.1469C181.398 38.6433 167.303 49.1539 158.11 54.6595C156.149 51.0558 145.445 56.161 140.338 59.1641C136.457 59.9983 125.508 61.8668 112.761 62.6676C101.975 70.2754 85.7964 72.8446 79.0552 73.1783C75.7868 75.6808 66.0632 81.9873 53.3163 87.1925C50.3747 81.9873 16.5464 94.7002 0 101.707V170H1920Z" fill="#003479"/>
</svg>
