<svg width="1920" height="100" viewBox="0 0 1920 100" fill="none" xmlns="http://www.w3.org/2000/svg">
<path d="M1793.21 26.9316C1796.03 30.04 1828.53 22.4483 1844.43 18.2639C1858.62 21.5516 1874.56 18.2639 1883.17 26.9316C1899.43 18.2639 1910.59 30.1197 1914.74 18.2639L1920 11.7557V100H0V7.20509C2.35486 6.50758 7.6532 5.29191 10.0081 6.00924C12.3629 6.72657 27.0808 3.31926 34.1453 1.52594L61.2258 0.928177C65.7393 1.82484 77.121 4.21593 86.5403 6.60702C92.4274 3.61815 108.911 14.3781 113.621 13.7803C117.389 13.3021 133.245 18.5625 140.702 21.2524C141.094 20.9536 145.293 20.4156 158.952 20.6547C164.25 19.1602 161.895 20.0569 176.024 22.1491C194.863 22.448 191.33 23.3447 211.346 26.3335C218.882 22.0295 237.25 25.3372 245.492 27.5291C247.65 26.0346 254.087 24.1218 262.564 28.4257C271.042 32.7297 286.505 33.2079 293.177 32.909C295.336 34.7023 302.243 38.7074 312.604 40.3812C323.79 45.7611 321.435 44.8645 340.274 44.8645C350.164 49.4076 356.561 47.3552 358.524 45.7611C359.309 47.0563 364.293 48.6902 377.951 44.8645C394.906 46.2991 401.107 43.2704 402.088 41.5767C405.62 39.4845 409.741 46.3589 414.451 44.8645C419.161 43.37 424.459 54.7277 443.298 49.6467C462.137 51.7389 469.79 45.4623 471.556 46.3589C473.322 47.2556 479.798 44.8645 480.975 44.8645C482.153 44.8645 496.87 43.6689 499.225 44.8645C501.109 45.8209 508.645 43.6689 512.177 42.4734C513.354 43.2704 517.24 44.6254 523.362 43.6689C531.016 42.4734 523.951 45.7611 542.201 44.8645C560.451 43.9678 546.322 47.8533 556.33 46.9567C566.338 46.06 565.161 50.8422 567.515 49.0489C569.399 47.6142 572.618 49.6467 573.991 50.8422L586.943 49.0489L595.185 52.6355C597.147 52.6355 601.072 52.9344 601.072 54.13C601.072 55.3255 610.491 54.6281 615.201 54.13C616.575 52.4363 620.97 49.7662 627.564 52.6355C635.806 56.2222 644.636 47.2556 644.636 49.0489C644.636 50.4835 660.728 44.466 668.773 41.2778C671.913 39.9827 680.312 37.8108 688.79 39.4845C688.319 43.5494 697.228 42.3738 701.741 41.2778C703.311 41.2778 707.864 40.5007 713.515 37.3923C717.047 37.3923 722.935 37.3923 730.588 34.4035C731.53 37.5119 745.109 35.6986 751.781 34.4035C755.51 34.0049 763.673 32.6699 766.499 30.5179C770.031 27.8279 774.741 35.8979 777.685 30.5179C780.628 25.138 781.217 39.4845 793.58 37.3923C805.943 35.3001 793.58 39.4845 807.709 39.4845C819.012 39.4845 824.585 40.6801 825.959 41.2778C829.491 40.6801 837.733 39.4845 842.443 39.4845C847.152 39.4845 846.367 40.6801 845.386 41.2778C853.236 39.9827 872.114 37.3923 884.83 37.3923C900.725 37.3923 891.305 37.3923 896.015 39.4845C898.841 41.1583 904.649 40.1819 907.2 39.4845C915.442 41.1782 934.163 45.5818 943.112 49.6467C944.996 47.9729 958.026 52.9344 964.305 55.6244L969.015 53.5322L974.313 60.7055H987.265C990.405 61.2036 999.981 60.4664 1013.17 53.5322C1026.36 53.5322 1031.61 49.7463 1032.6 47.8533C1033.97 47.3553 1037.42 45.7016 1040.25 43.0712C1046.14 41.5767 1080.28 37.0934 1081.46 37.3923C1082.64 37.6912 1113.25 42.7723 1122.67 41.2778C1132.09 39.7834 1146.22 46.3592 1150.34 44.5656C1153.63 43.1307 1162.7 45.1635 1166.82 46.3592C1170.75 46.3592 1180.36 46.658 1187.43 47.8533C1196.11 49.3223 1199.1 48.7698 1211.5 46.4788L1212.15 46.3592C1223.93 48.7504 1231.58 46.3592 1247.47 46.3592C1260.19 46.3592 1269.26 52.3369 1272.2 55.3257C1273.77 57.0193 1276.67 60.7652 1275.73 62.1999C1274.79 63.6346 1282.8 64.3917 1286.92 64.591V68.1776C1288.1 68.9747 1290.45 71.2264 1290.45 73.8565C1290.45 77.1441 1305.76 78.3399 1318.12 78.3399C1319.06 79.5354 1330.68 78.838 1336.37 78.3399L1348.14 76.8455C1350.11 77.0448 1355.09 76.0684 1359.33 70.5689C1357.56 57.4179 1363.45 60.1079 1368.16 52.0379C1370.51 52.0379 1378.17 53.2335 1381.7 53.8313C1384.05 53.8313 1390.06 52.3369 1395.24 46.3592C1396.65 48.2722 1416.24 45.5621 1425.85 43.968C1427.42 44.2669 1432.8 44.0876 1441.75 40.9791C1448.34 41.2183 1457.84 44.6655 1461.76 46.3592C1468.24 46.3592 1481.54 46.8374 1482.96 48.7502C1484.37 50.663 1492.18 51.739 1495.91 52.0379L1510.63 53.8313C1515.14 53.2335 1524.76 52.6955 1527.11 55.3257C1529.47 57.9559 1537.51 57.6171 1541.24 57.119C1542.02 56.0231 1545.01 54.4888 1550.66 57.119C1568.09 69.5526 1592.46 71.2662 1602.47 70.5689C1600.31 70.4693 1604.82 68.1778 1640.14 59.809C1684.3 49.3479 1667.81 51.7391 1668.99 53.8313C1670.17 55.9235 1683.71 49.647 1692.54 46.3592C1694.42 48.5112 1704.7 45.4625 1709.61 43.6692C1713.34 43.1711 1723.86 42.0552 1736.1 41.577C1746.46 37.0339 1762.01 35.4997 1768.48 35.3004C1771.62 33.806 1780.96 30.04 1793.21 26.9316Z" fill="black"/>
</svg>
