<svg width="129" height="195" viewBox="0 0 129 195" fill="none" xmlns="http://www.w3.org/2000/svg">
<path d="M113.215 -3.55491C107.018 3.95158 102.668 9.04526 102.175 9.36524C102.046 9.44307 102.046 9.43443 102.167 9.15769C102.232 9.00202 102.818 7.94697 103.462 6.81407C106.446 1.59067 107.991 -1.73018 108.786 -4.59267C109.143 -5.88988 109.308 -7.01412 109.258 -7.86163C109.222 -8.54482 109.007 -9.42692 108.871 -9.47881C108.829 -9.4961 108.685 -9.32314 108.557 -9.09829C108.063 -8.22484 105.28 -3.61545 103.727 -1.10752C98.1249 7.94697 94.4186 13.326 93.7818 13.326C93.6316 13.326 93.7246 13.1098 94.6762 11.164C96.0428 8.37937 96.7797 6.45086 97.2019 4.59153C97.3378 3.97752 97.3664 3.6489 97.3664 2.60249C97.3664 1.49554 97.345 1.29663 97.2019 0.87288C97.023 0.362647 96.701 -0.251363 96.608 -0.251363C96.5365 -0.251363 95.3774 1.72039 94.5259 3.29433C92.3366 7.32431 90.7195 10.9997 88.1009 17.8663C85.5609 24.5166 84.8382 26.0646 82.5129 29.887C79.3075 35.145 77.3328 38.855 76.5243 41.1727C76.3597 41.6397 76.1522 42.4612 76.0449 43.0752C74.9573 49.2326 70.4426 63.303 66.3786 73.1704C64.8189 76.9669 63.8243 79.1202 62.6796 81.213C61.3988 83.5394 60.576 84.5944 59.5815 85.2084C58.1219 86.1078 57.0558 86.4537 52.6126 87.4829C49.8222 88.1315 47.9333 88.659 46.7814 89.126C44.5419 90.0427 43.1038 91.1929 42.3311 92.689C42.1522 93.0349 41.9733 93.3203 41.9232 93.3203C41.8803 93.3203 41.6013 93.4586 41.3151 93.623C40.943 93.8392 40.6497 94.0986 40.3134 94.5137C39.605 95.3612 39.3117 96.2174 39.3045 97.3848V97.947L39.4691 97.7135C39.8984 97.1081 40.3563 97.1514 42.2309 97.9989C42.9893 98.3361 43.2612 98.5091 43.5331 98.8031C44.4561 99.8063 47.3323 101.795 49.4144 102.876C49.7578 103.058 50.0369 103.231 50.0369 103.266C50.0369 103.516 48.6774 105.652 47.2393 107.633C44.3702 111.594 37.5516 120.285 34.8327 123.433C33.7166 124.721 33.552 124.86 31.2195 126.442C26.5045 129.642 23.9001 131.908 21.2385 135.133C19.5427 137.174 18.1976 139.224 17.1244 141.36C16.7166 142.19 16.5091 142.45 12.9889 146.687C10.9569 149.135 7.34367 153.45 4.96825 156.278C2.59283 159.106 0.646697 161.441 0.653852 161.467C0.668161 161.614 1.34788 161.735 1.99182 161.7C3.55874 161.614 5.13996 160.585 7.67279 158.008C8.1164 157.558 8.56715 157.108 8.67448 157.013L8.86051 156.84L8.71741 157.065C5.84114 161.666 2.9935 166.621 1.57683 169.483C0.789794 171.075 -0.0544819 173.064 0.00275715 173.176C0.0242218 173.219 0.43205 173.228 0.911428 173.202C3.05074 173.09 4.36724 172.061 7.3079 168.169C8.83189 166.154 9.54022 165.246 9.54022 165.315C9.54022 165.428 9.05369 166.707 7.47961 170.72C4.40301 178.581 2.17069 184.765 2.3424 184.963C2.43542 185.084 3.48003 184.704 4.11682 184.315C5.88407 183.242 7.83736 181.227 9.12524 179.152C9.3685 178.754 9.58315 178.443 9.59746 178.46C9.64039 178.512 9.16101 180.613 8.32389 184.081C7.00739 189.521 6.36345 192.513 6.48508 192.652C6.56379 192.747 7.3222 192.401 7.88029 192.012C8.52423 191.562 9.76918 190.1 10.4346 189.011C11.8155 186.771 13.4039 182.992 14.8062 178.616C14.9851 178.054 15.3285 176.973 15.5646 176.212C15.8007 175.451 16.0798 174.629 16.1871 174.396L16.3731 173.963L16.3946 174.594C16.4447 176.125 15.4502 183.545 14.1766 191.086C13.5255 194.969 13.5756 194.589 13.7544 194.589C14.3841 194.589 15.8794 193.317 17.2746 191.588C18.4051 190.187 19.7574 188.215 20.1938 187.307C20.3441 187.004 20.3512 186.996 20.938 186.961C22.3832 186.857 24.7873 185.379 26.2111 183.727C26.5474 183.338 26.9337 182.801 27.0697 182.551L27.3201 182.084L27.8639 181.98C28.8226 181.816 30.2107 181.011 31.2911 180.008C31.7418 179.584 32.6219 178.529 32.8795 178.097C33.0011 177.898 33.2014 177.69 33.3231 177.63C33.459 177.561 34.0385 177.509 34.797 177.492C36.6787 177.448 37.2797 177.197 38.3315 175.987C38.8538 175.399 39.0541 175.243 40.2705 174.499C42.6316 173.064 43.297 172.424 43.991 170.919C43.991 170.91 44.1699 170.954 44.3845 171.023C44.8925 171.187 46.0802 171.187 46.6598 171.023C47.7115 170.72 48.6059 169.899 49.0781 168.792L49.3428 168.169L49.9653 168.022C51.4607 167.667 53.4426 166.656 54.0436 165.946C54.2225 165.739 54.4371 165.462 54.523 165.332C54.6303 165.168 54.7448 165.099 54.9022 165.099C55.2027 165.099 56.2759 164.658 56.8841 164.286C58.0217 163.594 59.5743 162.176 60.3971 161.069C60.7764 160.567 60.8837 160.472 61.3344 160.291C62.8441 159.677 64.4683 158.31 65.1551 157.091C65.52 156.434 65.7347 155.664 65.6918 155.154L65.6703 154.825L66.0638 154.782C66.536 154.73 67.1084 154.436 67.7237 153.934C68.2818 153.476 69.5411 152.006 69.7844 151.53C69.9275 151.245 70.0062 151.176 70.1779 151.176C71.0937 151.167 71.5445 150.475 71.845 148.624L71.9738 147.846L72.2671 147.786C72.7035 147.699 73.2688 147.319 73.6408 146.869C74.2275 146.16 74.4851 145.217 74.4136 144.076L74.3706 143.41L74.7069 143.306C75.5583 143.046 76.4885 142.121 76.8462 141.17C77.0823 140.556 77.2397 139.57 77.2111 138.913L77.1897 138.359L77.5832 138.212C78.127 138.005 78.3631 137.84 78.6707 137.451C79.193 136.794 79.4435 135.825 79.4435 134.442V133.637L79.701 133.577C80.0874 133.49 80.6598 132.799 81.0032 131.994C81.3466 131.19 81.6543 130.144 81.8761 129.019L82.0478 128.189L82.427 129.789C83.4073 133.897 85.8757 142.813 87.5213 148.183C88.3799 150.985 88.8164 152.187 89.1097 152.585C89.3387 152.905 89.3959 152.94 89.7894 152.974C90.8126 153.061 92.1291 151.963 93.9321 149.515C94.5188 148.728 94.805 148.624 96.2503 148.702C99.5057 148.867 99.4986 148.867 99.9637 148.72C100.543 148.538 101.001 148.166 101.244 147.647C101.345 147.422 101.438 147.232 101.445 147.215C101.459 147.206 101.717 147.327 102.024 147.492C104.879 148.996 106.568 148.391 107.426 145.554C107.641 144.828 107.92 143.133 107.92 142.519C107.92 142.337 107.941 142.182 107.963 142.182C107.984 142.182 108.256 142.259 108.571 142.355C110.446 142.934 111.691 143.09 112.478 142.83C113.186 142.597 113.672 141.983 114.273 140.564L114.717 139.518L114.996 139.561C115.397 139.63 116.384 139.362 116.985 139.025C117.565 138.696 118.166 138.074 118.38 137.564C118.459 137.373 118.531 137.036 118.531 136.811C118.538 136.405 118.538 136.405 118.903 136.223C119.368 135.99 119.647 135.747 120.212 135.073C120.741 134.442 120.978 133.905 120.978 133.343C120.978 132.79 120.741 132.513 119.876 132.055C118.853 131.519 118.13 131.069 117.879 130.809C117.586 130.515 117.314 129.806 117.257 129.184C117.221 128.777 117.228 128.682 117.329 128.639C117.393 128.604 117.808 128.665 118.244 128.777C118.688 128.881 119.289 128.985 119.59 129.011C121.257 129.149 122.552 128.232 123.332 126.356C123.51 125.923 123.661 125.508 123.661 125.448C123.661 125.379 123.975 125.05 124.362 124.695C125.342 123.805 126.122 122.862 126.337 122.283C126.759 121.202 126.501 120.268 125.256 118.287L124.941 117.794L125.306 117.293C126.716 115.39 126.902 113.885 125.929 112.234C125.75 111.931 125.557 111.637 125.499 111.585C125.406 111.49 125.442 111.369 125.786 110.72C126.887 108.601 127.202 107.166 126.809 106.05C126.558 105.358 125.986 104.779 124.798 104.044C124.254 103.707 123.804 103.413 123.804 103.395C123.804 103.369 123.897 103.075 124.011 102.729C124.355 101.674 124.734 100.187 124.798 99.6074C124.963 98.1891 124.569 97.6097 122.902 96.8314L122.401 96.5892L122.666 95.9752C123.403 94.2543 123.868 91.7031 123.568 90.9853C123.396 90.5702 123.933 90.4751 112.32 93.156C109.644 93.7786 106.138 94.5915 104.528 94.972C102.919 95.3526 101.595 95.6466 101.581 95.6379C101.531 95.5688 101.781 94.9115 101.988 94.5829C102.196 94.2543 102.289 94.1851 102.611 94.1072C103.455 93.8997 104.421 93.0262 104.664 92.2479C104.757 91.9539 104.779 91.7117 104.75 91.3312C104.722 90.9248 104.736 90.8123 104.815 90.8123C105.044 90.8123 105.73 90.4232 106.131 90.0686C106.882 89.4027 107.34 88.2612 107.262 87.2667C107.233 86.9121 107.247 86.8948 107.684 86.4797C108.965 85.243 109.737 83.574 109.701 82.1384L109.687 81.5417L110.159 81.1266C110.954 80.4088 111.433 79.4921 111.676 78.1689C111.762 77.676 111.834 77.4857 111.927 77.4511C112.12 77.3733 112.742 76.5345 113 75.9896C113.358 75.2286 113.579 74.3379 113.622 73.499L113.665 72.7466L114.037 72.5304C114.531 72.2364 115.175 71.4321 115.59 70.6019C116.191 69.3912 116.577 67.5665 116.434 66.5546C116.348 65.932 116.348 65.9233 116.527 65.8628C116.928 65.7071 117.393 64.9807 117.672 64.0294C117.987 62.9657 118.094 62.049 118.13 59.8524L118.173 57.8201L118.695 57.1456C119.282 56.3932 119.632 55.6235 119.697 54.9663C119.747 54.4128 119.582 53.5307 119.296 52.8475L119.074 52.32L119.511 51.8443C120.527 50.7028 120.727 49.3624 120.348 46.1972L120.262 45.4707L120.663 44.9865C121.521 43.94 121.729 42.1931 121.214 40.3252L121.042 39.7198L121.378 39.1058C122.223 37.5492 122.48 35.2747 122.008 33.4759L121.85 32.8619L122.129 32.5765C122.523 32.1701 122.845 31.4696 123.017 30.6826C123.167 29.9389 123.303 28.2785 123.303 27.0505V26.2721L123.582 25.9089C124.376 24.8625 124.741 23.0724 124.884 19.4229L124.97 17.4338L125.17 17.1744C126.058 16.0156 126.337 13.2655 125.786 11.1208C125.707 10.7835 125.635 10.4895 125.628 10.4635C125.628 10.4289 125.886 10.1782 126.201 9.89277C127.116 9.07121 127.732 8.09398 128.054 6.95244C128.261 6.20006 128.347 5.62929 128.254 5.62929C128.211 5.62929 127.932 5.58605 127.632 5.53417C126.58 5.36121 124.784 5.73307 123.045 6.4768C121.908 6.96974 120.548 7.69617 118.144 9.09715C115.111 10.8613 113.909 11.4235 113.164 11.4235C112.542 11.4235 112.764 11.1813 115.289 9.11445C118.702 6.32114 120.176 4.95475 121.629 3.27703C123.997 0.518311 124.956 -1.79071 124.591 -3.85759C124.476 -4.48025 124.433 -4.54078 124.161 -4.40242C123.768 -4.20351 122.122 -2.85442 119.289 -0.407028C116.076 2.36899 114.71 3.51053 113.2 4.64342C111.533 5.90603 109.465 7.09946 109.308 6.90055C109.215 6.78813 109.501 6.40762 110.403 5.43904C110.903 4.90286 111.898 3.83915 112.606 3.07813C114.917 0.596143 116.749 -1.72153 117.765 -3.46843C118.988 -5.56125 119.403 -7.40328 118.931 -8.63995C118.752 -9.10694 118.402 -9.68636 118.309 -9.66906C118.28 -9.66906 115.991 -6.91034 113.215 -3.55491Z" fill="#345764"/>
</svg>
