<svg width="49" height="64" viewBox="0 0 49 64" fill="none" xmlns="http://www.w3.org/2000/svg">
<path d="M42.742 1.90369C40.4105 4.24061 38.7736 5.82638 38.5878 5.92599C38.5394 5.95022 38.5394 5.94753 38.5851 5.86138C38.6094 5.81292 38.8301 5.48445 39.0724 5.13176C40.1951 3.50561 40.7767 2.47176 41.0755 1.58061C41.2101 1.17676 41.272 0.826762 41.2532 0.562916C41.2397 0.350224 41.159 0.0756082 41.1078 0.0594543C41.0917 0.0540697 41.0378 0.107916 40.9894 0.177916C40.8036 0.449839 39.7563 1.88484 39.172 2.66561C37.064 5.48445 35.6694 7.15907 35.4297 7.15907C35.3732 7.15907 35.4082 7.09176 35.7663 6.48599C36.2805 5.61907 36.5578 5.01868 36.7167 4.43984C36.7678 4.24868 36.7786 4.14638 36.7786 3.82061C36.7786 3.47599 36.7705 3.41407 36.7167 3.28215C36.6494 3.1233 36.5282 2.93215 36.4932 2.93215C36.4663 2.93215 36.0301 3.54599 35.7097 4.03599C34.8859 5.29061 34.2774 6.43484 33.292 8.57253C32.3363 10.6429 32.0644 11.1248 31.1894 12.3148C29.9832 13.9518 29.2401 15.1068 28.9359 15.8283C28.874 15.9737 28.7959 16.2295 28.7555 16.4206C28.3463 18.3375 26.6474 22.7179 25.1182 25.7898C24.5313 26.9718 24.157 27.6421 23.7263 28.2937C23.2444 29.0179 22.9347 29.3464 22.5605 29.5375C22.0113 29.8175 21.6101 29.9252 19.9382 30.2456C18.8882 30.4475 18.1774 30.6118 17.744 30.7571C16.9013 31.0425 16.3601 31.4006 16.0694 31.8664C16.002 31.9741 15.9347 32.0629 15.9159 32.0629C15.8997 32.0629 15.7947 32.106 15.687 32.1571C15.547 32.2245 15.4367 32.3052 15.3101 32.4345C15.0436 32.6983 14.9332 32.9648 14.9305 33.3283V33.5033L14.9924 33.4306C15.154 33.2421 15.3263 33.2556 16.0317 33.5195C16.317 33.6245 16.4194 33.6783 16.5217 33.7698C16.869 34.0821 17.9513 34.7014 18.7347 35.0379C18.864 35.0945 18.969 35.1483 18.969 35.1591C18.969 35.2371 18.4574 35.9021 17.9163 36.5187C16.8367 37.7518 14.2709 40.4575 13.2478 41.4375C12.8278 41.8387 12.7659 41.8818 11.8882 42.3745C10.114 43.3706 9.13397 44.076 8.13243 45.0802C7.49435 45.7156 6.9882 46.3537 6.58435 47.0187C6.43089 47.2771 6.35282 47.3579 5.0282 48.6771C4.26359 49.4391 2.90397 50.7825 2.01012 51.6629C1.11628 52.5433 0.38397 53.2702 0.386662 53.2783C0.392047 53.3241 0.647816 53.3618 0.890124 53.351C1.47974 53.3241 2.07474 53.0037 3.02782 52.2014C3.19474 52.0614 3.36435 51.9214 3.40474 51.8918L3.47474 51.8379L3.42089 51.9079C2.33859 53.3402 1.26705 54.8829 0.73397 55.7741C0.437816 56.2695 0.120124 56.8887 0.141662 56.9237C0.149739 56.9371 0.303201 56.9398 0.483586 56.9318C1.28859 56.8968 1.78397 56.5764 2.89051 55.3648C3.46397 54.7375 3.73051 54.4548 3.73051 54.4764C3.73051 54.5114 3.54743 54.9098 2.95512 56.1591C1.79743 58.6064 0.957432 60.5314 1.02205 60.5933C1.05705 60.631 1.45012 60.5125 1.68974 60.3914C2.35474 60.0575 3.08974 59.4302 3.57435 58.7841C3.66589 58.6602 3.74666 58.5633 3.75205 58.5687C3.7682 58.5848 3.58782 59.2391 3.27282 60.3187C2.77743 62.0121 2.53512 62.9437 2.58089 62.9868C2.61051 63.0164 2.89589 62.9087 3.10589 62.7875C3.3482 62.6475 3.81666 62.1925 4.06705 61.8533C4.58666 61.156 5.18435 59.9795 5.71205 58.6171C5.77935 58.4421 5.90859 58.1056 5.99743 57.8687C6.08628 57.6318 6.19128 57.376 6.23166 57.3033L6.30166 57.1687L6.30974 57.3652C6.32859 57.8418 5.95435 60.1518 5.47512 62.4995C5.23012 63.7083 5.24897 63.5898 5.31628 63.5898C5.5532 63.5898 6.11589 63.1941 6.64089 62.6556C7.06628 62.2195 7.57512 61.6056 7.73935 61.3229C7.79589 61.2287 7.79858 61.226 8.01935 61.2152C8.5632 61.1829 9.46782 60.7225 10.0036 60.2083C10.1301 60.0871 10.2755 59.9202 10.3267 59.8421L10.4209 59.6968L10.6255 59.6645C10.9863 59.6133 11.5086 59.3629 11.9151 59.0506C12.0847 58.9187 12.4159 58.5902 12.5128 58.4556C12.5586 58.3937 12.634 58.3291 12.6797 58.3102C12.7309 58.2887 12.949 58.2725 13.2344 58.2671C13.9424 58.2537 14.1686 58.1756 14.5644 57.7987C14.7609 57.6156 14.8363 57.5671 15.294 57.3356C16.1824 56.8887 16.4328 56.6895 16.694 56.221C16.694 56.2183 16.7613 56.2318 16.842 56.2533C17.0332 56.3045 17.4801 56.3045 17.6982 56.2533C18.094 56.1591 18.4305 55.9033 18.6082 55.5587L18.7078 55.3648L18.942 55.3191C19.5047 55.2087 20.2505 54.8937 20.4767 54.6729C20.544 54.6083 20.6247 54.5221 20.657 54.4818C20.6974 54.4306 20.7405 54.4091 20.7997 54.4091C20.9128 54.4091 21.3167 54.2718 21.5455 54.156C21.9736 53.9406 22.5578 53.4991 22.8674 53.1545C23.0101 52.9983 23.0505 52.9687 23.2201 52.9121C23.7882 52.721 24.3994 52.2956 24.6578 51.916C24.7951 51.7114 24.8759 51.4718 24.8597 51.3129L24.8517 51.2106L24.9997 51.1971C25.1774 51.181 25.3928 51.0895 25.6244 50.9333C25.8344 50.7906 26.3082 50.3329 26.3997 50.1848C26.4536 50.096 26.4832 50.0745 26.5478 50.0745C26.8924 50.0718 27.062 49.8564 27.1751 49.2802L27.2236 49.0379L27.334 49.0191C27.4982 48.9921 27.7109 48.8737 27.8509 48.7337C28.0717 48.5129 28.1686 48.2195 28.1417 47.8641L28.1255 47.6568L28.252 47.6245C28.5724 47.5437 28.9224 47.2556 29.057 46.9595C29.1459 46.7683 29.2051 46.4614 29.1944 46.2568L29.1863 46.0845L29.3344 46.0387C29.539 45.9741 29.6278 45.9229 29.7436 45.8018C29.9401 45.5971 30.0344 45.2956 30.0344 44.8648V44.6145L30.1313 44.5956C30.2767 44.5687 30.492 44.3533 30.6213 44.1029C30.7505 43.8525 30.8663 43.5268 30.9497 43.1768L31.0144 42.9183L31.157 43.4164C31.5259 44.6952 32.4547 47.471 33.074 49.1429C33.397 50.0152 33.5613 50.3895 33.6717 50.5133C33.7578 50.6129 33.7794 50.6237 33.9274 50.6345C34.3124 50.6614 34.8078 50.3195 35.4863 49.5575C35.707 49.3125 35.8147 49.2802 36.3586 49.3045C37.5836 49.3556 37.5809 49.3556 37.7559 49.3098C37.974 49.2533 38.1463 49.1375 38.2378 48.976C38.2755 48.906 38.3105 48.8468 38.3132 48.8414C38.3186 48.8387 38.4155 48.8764 38.5313 48.9275C39.6055 49.396 40.2409 49.2075 40.564 48.3245C40.6447 48.0983 40.7497 47.5706 40.7497 47.3795C40.7497 47.3229 40.7578 47.2745 40.7659 47.2745C40.774 47.2745 40.8763 47.2987 40.9947 47.3283C41.7001 47.5087 42.1686 47.5571 42.4647 47.4764C42.7313 47.4037 42.9144 47.2125 43.1405 46.771L43.3074 46.4452L43.4124 46.4587C43.5632 46.4802 43.9347 46.3968 44.1609 46.2918C44.379 46.1895 44.6051 45.9956 44.6859 45.8368C44.7155 45.7775 44.7424 45.6725 44.7424 45.6025C44.7451 45.476 44.7451 45.476 44.8824 45.4195C45.0574 45.3468 45.1624 45.2714 45.3751 45.0614C45.5744 44.8648 45.6632 44.6979 45.6632 44.5229C45.6632 44.3506 45.5744 44.2645 45.2486 44.1218C44.8636 43.9548 44.5917 43.8148 44.4974 43.7341C44.387 43.6425 44.2847 43.4218 44.2632 43.2279C44.2497 43.1014 44.2524 43.0718 44.2901 43.0583C44.3144 43.0475 44.4705 43.0664 44.6347 43.1014C44.8017 43.1337 45.0278 43.166 45.1409 43.1741C45.7682 43.2171 46.2555 42.9318 46.549 42.3475C46.6163 42.2129 46.6728 42.0837 46.6728 42.0648C46.6728 42.0433 46.7913 41.941 46.9367 41.8306C47.3055 41.5533 47.599 41.2598 47.6797 41.0795C47.8386 40.7429 47.7417 40.4521 47.2732 39.8356L47.1547 39.6821L47.292 39.526C47.8224 38.9337 47.8924 38.4652 47.5263 37.951C47.459 37.8568 47.3863 37.7652 47.3647 37.7491C47.3297 37.7195 47.3432 37.6818 47.4724 37.4798C47.887 36.8202 48.0055 36.3733 47.8574 36.026C47.7632 35.8106 47.5478 35.6302 47.1009 35.4014C46.8963 35.2964 46.7267 35.2048 46.7267 35.1995C46.7267 35.1914 46.7617 35.0998 46.8047 34.9921C46.934 34.6637 47.0767 34.2006 47.1009 34.0202C47.1628 33.5787 47.0147 33.3983 46.3874 33.156L46.199 33.0806L46.2986 32.8895C46.5759 32.3537 46.7509 31.5595 46.6378 31.336C46.5732 31.2068 46.7751 31.1771 42.4055 32.0118C41.3986 32.2056 40.0794 32.4587 39.4736 32.5771C38.8678 32.6956 38.3697 32.7871 38.3644 32.7845C38.3455 32.7629 38.4397 32.5583 38.5178 32.456C38.5959 32.3537 38.6309 32.3321 38.752 32.3079C39.0697 32.2433 39.4332 31.9714 39.5247 31.7291C39.5597 31.6375 39.5678 31.5621 39.557 31.4437C39.5463 31.3171 39.5517 31.2821 39.5813 31.2821C39.6674 31.2821 39.9259 31.161 40.0767 31.0506C40.3594 30.8433 40.5317 30.4879 40.502 30.1783C40.4913 30.0679 40.4967 30.0625 40.6609 29.9333C41.1428 29.5483 41.4336 29.0287 41.4201 28.5818L41.4147 28.396L41.5924 28.2668C41.8913 28.0433 42.0717 27.7579 42.1632 27.346C42.1955 27.1925 42.2224 27.1333 42.2574 27.1225C42.3301 27.0983 42.5644 26.8371 42.6613 26.6675C42.7959 26.4306 42.8794 26.1533 42.8955 25.8921L42.9117 25.6579L43.0517 25.5906C43.2374 25.4991 43.4797 25.2487 43.6359 24.9902C43.862 24.6133 44.0074 24.0452 43.9536 23.7302C43.9213 23.5364 43.9213 23.5337 43.9886 23.5148C44.1394 23.4664 44.3144 23.2402 44.4194 22.9441C44.5378 22.6129 44.5782 22.3275 44.5917 21.6437L44.6078 21.011L44.8044 20.801C45.0251 20.5668 45.157 20.3271 45.1813 20.1225C45.2001 19.9502 45.1382 19.6756 45.0305 19.4629L44.947 19.2987L45.1113 19.1506C45.4936 18.7952 45.569 18.3779 45.4263 17.3925L45.394 17.1664L45.5447 17.0156C45.8678 16.6898 45.9459 16.146 45.752 15.5645L45.6874 15.376L45.814 15.1848C46.1317 14.7002 46.2286 13.9921 46.0509 13.4321L45.9917 13.241L46.0967 13.1521C46.2447 13.0256 46.3659 12.8075 46.4305 12.5625C46.487 12.331 46.5382 11.8141 46.5382 11.4318V11.1895L46.6432 11.0764C46.942 10.7506 47.0794 10.1933 47.1332 9.05715L47.1655 8.43792L47.2409 8.35715C47.5747 7.99638 47.6797 7.14022 47.4724 6.47253C47.4428 6.36753 47.4159 6.27599 47.4132 6.26792C47.4132 6.25715 47.5101 6.17907 47.6286 6.09022C47.9732 5.83445 48.2047 5.53022 48.3259 5.17484C48.404 4.94061 48.4363 4.76292 48.4013 4.76292C48.3851 4.76292 48.2801 4.74945 48.167 4.7333C47.7713 4.67945 47.0955 4.79522 46.4413 5.02676C46.0132 5.18022 45.5017 5.40638 44.597 5.84253C43.4555 6.39176 43.0032 6.56676 42.7232 6.56676C42.489 6.56676 42.5724 6.49138 43.5228 5.84792C44.807 4.9783 45.3617 4.55292 45.9082 4.03061C46.7994 3.17176 47.1601 2.45292 47.0228 1.80945C46.9797 1.61561 46.9636 1.59676 46.8613 1.63984C46.7132 1.70176 46.094 2.12176 45.0278 2.88368C43.819 3.74792 43.3047 4.1033 42.7367 4.45599C42.1094 4.84907 41.3313 5.22061 41.272 5.15868C41.237 5.12368 41.3447 5.00522 41.684 4.70368C41.8724 4.53676 42.2467 4.20561 42.5132 3.96868C43.3828 3.19599 44.072 2.47445 44.4544 1.93061C44.9147 1.27907 45.0709 0.705608 44.8932 0.320608C44.8259 0.175224 44.694 -0.00516107 44.659 0.000223544C44.6482 0.000223544 43.7867 0.85907 42.742 1.90369Z" fill="black"/>
</svg>
