<svg width="564" height="564" viewBox="0 0 564 564" fill="none" xmlns="http://www.w3.org/2000/svg">
<path d="M190.22 30.0003C186.164 31.15 184.103 34.7943 183.496 41.9094C183.04 47.3975 183.669 53.5798 186.337 69.5237C188.615 83.0597 188.919 86.8558 187.986 88.6997C187.097 90.3917 183.474 90.3917 179.895 88.7214C175.882 86.8558 172.433 84.0575 163.973 75.7928C154.84 66.8989 152.172 64.5995 149.2 63.0377C146.315 61.5409 144.406 61.5409 142.714 63.0594C141.087 64.5344 140.35 66.747 140.783 68.9163C141.131 70.6734 142.454 73.3198 144.059 75.489C146.141 78.3091 153.148 85.1421 160.957 91.9969C164.84 95.3809 168.745 98.83 169.634 99.6543C181.218 110.37 186.663 117.919 187.617 124.557C187.812 125.945 188.008 129.394 188.398 139.048C188.658 145.1 188.984 151.13 189.287 155.534C191.131 182.28 195.752 197.313 203.8 202.758C205.166 203.669 229.809 213.517 245.883 219.569L251.154 221.543L250.72 222.65C250.481 223.257 248.941 227.465 247.293 231.999C243.323 242.954 242.976 243.8 241.002 247.834C239.028 251.826 237.791 253.561 235.427 255.665C211.435 276.946 195.752 303.41 191.977 328.942C190.784 337.012 190.676 345.19 191.652 352.261C191.825 353.519 191.977 354.604 191.977 354.712C191.977 354.799 189.266 352.174 185.969 348.856C177.725 340.591 172.237 335.862 166.163 331.784C157.139 325.732 150.003 324.191 145.469 327.315C142.259 329.528 139.981 334.43 139.048 341.09L138.788 342.999L137.573 340.981C133.061 333.346 131.022 325.601 131.673 318.551C132.107 313.757 133.213 310.091 136.185 303.801C138.332 299.202 138.831 297.835 138.831 296.49C138.831 294.907 138.267 294.104 136.488 293.236C134.666 292.347 132.757 292.26 131.326 292.998C127.768 294.885 125.057 301.588 123.451 312.478C122.584 318.356 122.15 324.061 121.738 334.669L121.586 338.66L119.091 336.426C108.722 327.12 99.6332 316.838 94.5355 308.725C90.5441 302.369 88.2664 296.729 87.4421 291.176C87.095 288.941 87.1601 284.646 87.5289 282.108C88.2881 277.141 88.3532 276.598 88.0712 275.536C87.5939 273.583 85.8586 272.39 82.2359 271.436C77.3118 270.156 74.4267 270.98 73.0818 274.06C72.4093 275.579 72.2575 279.7 72.7564 282.651C74.4918 292.672 79.5895 305.601 92.4964 332.608C94.4704 336.751 96.0973 340.157 96.0973 340.2C96.0973 340.461 86.7479 339.68 76.8996 338.617C64.4916 337.294 63.7324 337.228 58.2442 337.228C52.6259 337.207 50.9122 337.402 48.2658 338.356C44.6432 339.636 42.9512 341.914 42.9512 345.45C42.9512 347.207 43.6019 348.552 44.7733 349.116C46.2267 349.832 48.0272 349.788 54.1227 348.942C61.3679 347.944 63.7975 347.728 67.8106 347.728C77.225 347.728 85.3162 349.636 94.0366 353.91C103.039 358.313 112.106 365.255 117.226 371.632C120.241 375.385 123.712 381.09 126.315 386.557C129.243 392.761 131.239 397.793 136.445 412.284C142.475 429.009 145.491 436.189 149.439 443.282C157.031 456.862 166.207 465.3 177.769 469.27C180.394 470.181 185.752 471.439 189.157 471.938C192.324 472.415 199.721 472.48 203.214 472.046L205.665 471.742L205.188 471.244L204.711 470.745L205.839 469.725C207.726 468.033 208.984 464.758 209.526 460.094C209.657 459.074 209.895 455.929 210.09 453.065C210.286 450.224 210.524 447.707 210.611 447.469C210.741 447.122 211.544 447.664 216.598 451.547C237.857 467.816 245.037 472.024 251.696 472.024C255.883 472.024 274.777 469.226 291.87 466.059C322.934 460.311 345.863 454.15 356.579 448.684L359.225 447.317L357.967 448.879C349.789 458.901 337.554 478.554 330.071 493.673C324.018 505.951 321.394 514.39 322.673 517.687C323.151 518.945 323.498 519.162 326.079 519.834C332.912 521.613 340.765 521.418 349.03 519.314C366.839 514.758 387.75 501.526 413.412 478.554C422.935 470.029 430.658 462.632 445.777 447.469C454.888 438.336 457.643 435.712 458.424 435.364C458.966 435.126 460.42 434.779 461.656 434.584C464.801 434.106 473.066 434.302 483.956 435.126C496.559 436.08 501.44 436.297 507.058 436.167C514.086 435.972 517.492 435.43 520.768 433.954C522.568 433.13 524.108 431.807 524.716 430.527C525.28 429.356 525.627 426.471 525.388 425.126C525.128 423.759 524.694 422.978 523.761 422.176C522.568 421.113 520.963 420.722 517.796 420.744C514.694 420.766 512.785 421.026 502.286 422.783C490.247 424.8 484.737 425.386 477.426 425.386C473.457 425.386 467.817 425.039 467.318 424.757C466.797 424.475 471.092 415.256 474.411 409.551C479.531 400.765 486.233 392.11 494.889 383.108C496.689 381.242 500.485 377.338 503.37 374.409C508.88 368.812 510.225 367.316 511.679 365.19C513.175 362.977 513.544 361.958 513.544 359.984C513.566 357.901 513.262 357.25 511.592 355.624C510.03 354.083 508.468 353.346 506.754 353.346C503.978 353.324 501.722 354.604 498.056 358.335C493.544 362.869 490.095 367.836 480.16 383.954C470.658 399.377 465.344 406.774 460.159 411.742C458.229 413.585 454.953 416.058 454.433 416.058C453.478 416.058 452.784 400.31 453.456 393.932C454.042 388.422 455.213 383.346 456.971 378.552C457.404 377.403 458.836 374.236 460.138 371.502C463.24 365.146 463.391 364.062 461.417 362.934C460.268 362.305 457.231 361.611 455.561 361.611C449.921 361.611 447.231 365.385 446.233 374.734C446.103 375.928 445.842 380.071 445.669 383.954C445.04 397.338 444.302 401.72 441.764 406.861C440.853 408.726 440.246 409.637 439.053 410.917C437.621 412.457 435.495 414.084 435.235 413.824C435.17 413.759 435.278 413.195 435.452 412.566C436.233 409.833 436.536 407.468 436.536 404.236C436.558 401.481 436.471 400.722 436.059 399.247C435.3 396.622 434.411 395.125 432.415 393.13C430.484 391.199 428.467 390.049 425.495 389.182C419.855 387.533 411.634 387.62 402.176 389.377C390.137 391.654 374.366 396.926 360.093 403.477C356.188 405.256 355.754 405.451 355.754 405.342C355.754 405.299 356.362 404.236 357.099 403C362.262 394.344 366.275 382.5 367.88 371.264C368.791 364.93 368.878 363.238 368.878 353.693C368.878 343.996 368.791 342.326 367.772 333.562C367.446 330.959 367.251 328.79 367.295 328.725C367.36 328.682 368.639 328.53 370.158 328.421C390.028 326.794 407.534 314.061 428.011 286.338C429.031 284.972 432.133 280.612 434.931 276.685C445.756 261.392 447.274 259.678 451.352 258.095C453.934 257.097 455.886 256.793 459.769 256.793C465.669 256.772 470.745 257.704 483.739 261.175C488.207 262.368 492.958 263.583 494.281 263.887C505.93 266.49 510.941 264.906 510.941 258.572C510.941 256.468 510.637 255.622 509.379 254.32C508.533 253.453 506.711 252.542 504.672 251.999C502.242 251.349 498.208 250.98 490.03 250.654C476.927 250.156 473.283 249.548 469.899 247.27C468.251 246.186 467.383 244.971 467.578 244.06C468.055 241.891 471.721 238.008 482.546 228.246C490.507 221.044 499.444 212.324 502.221 208.984C509.9 199.808 511.57 193.582 507.449 189.46C506.082 188.116 504.455 187.204 503.349 187.204C501.461 187.204 499.097 189.027 496.212 192.714C495.474 193.69 492.633 197.747 489.921 201.738C481.787 213.712 477.969 218.615 472.35 224.19C465.669 230.893 458.966 235.426 451.591 238.268C448.706 239.374 445.365 240.264 444.845 240.069C443.933 239.722 443.803 237.617 444.476 233.691C444.714 232.281 445.929 226.988 447.187 221.912C450.398 208.767 451.309 204.406 451.96 198.81C452.827 191.348 451.938 185.946 449.465 183.56C448.554 182.649 446.667 181.781 445.647 181.781C444.671 181.781 443.586 182.476 442.936 183.473C441.265 186.12 440.571 190.155 439.595 203.148C438.749 214.472 438.12 219.309 436.883 224.19C435.365 230.242 433.001 234.038 429.79 235.622C428.597 236.207 428.055 236.338 426.471 236.403C423.608 236.533 422.35 235.86 419.942 232.823C418.293 230.741 416.84 228.355 413.651 222.52C409.161 214.276 407.577 211.76 405.451 209.482C402.892 206.749 400.744 206.446 398.77 208.506C396.319 211.066 397.056 214.06 401.894 221.218C407.469 229.461 408.727 231.348 409.833 233.344C414.54 241.717 415.495 248.572 413.022 256.251C411.2 261.978 407.642 267.032 398.922 276.36C391.134 284.69 387.729 289.072 385.277 293.887C384.887 294.668 384.757 294.777 384.41 294.581C381.503 293.041 377.642 280.59 374.67 263.323L374.041 259.722L375.733 256.902C385.603 240.307 391.568 222.91 393.542 204.884C393.976 200.871 393.911 189.612 393.434 185.686C391.048 166.358 382.935 152.02 371.177 146.38C362.891 142.41 354.257 141.499 345.559 143.711C339.941 145.143 333.845 147.79 324.647 152.779L322.066 154.189L320.786 153.126C317.12 150.089 313.085 148.093 308.357 147.052C307.554 146.878 305.819 146.77 303.91 146.77C300.048 146.792 297.575 147.377 294.257 149.026C291.61 150.328 289.788 151.694 287.575 154.015C282.89 158.896 280.265 165.382 279.571 173.755L279.311 176.901L276.556 179.829C270.005 186.771 264.994 193.625 260.091 202.259C259.419 203.452 259.354 203.517 258.703 203.409C258.334 203.344 254.755 202.498 250.763 201.543C246.772 200.61 237.249 198.398 229.613 196.662C213.474 192.975 212.39 192.736 212.216 192.562C212.151 192.497 212.455 190.588 212.867 188.354C213.843 183.256 214.559 178.679 216.49 164.861C219.635 142.54 221.414 134.058 223.865 129.785C224.234 129.156 224.776 128.483 225.08 128.266C226.013 127.659 228.789 126.965 236.642 125.381C248.941 122.887 254.646 121.303 259.05 119.242C262.607 117.572 264.842 115.49 265.211 113.516C265.427 112.409 265.189 110.869 264.712 110.24C263.844 109.069 263.215 108.787 261.328 108.722C258.247 108.592 255.449 109.481 245.232 113.819C236.295 117.616 231.848 118.939 229.44 118.548C227.292 118.201 225.188 116.422 224.06 114.015C222.433 110.522 223.258 105.533 226.598 98.8734C228.637 94.7518 230.872 91.1292 236.36 82.9512C239.028 79.0032 241.739 74.86 242.412 73.7537C245.839 68.092 246.881 64.6212 245.666 62.7773C245.037 61.8229 243.106 61.0854 241.219 61.0637C239.744 61.0637 239.397 61.1504 237.922 61.888C234.082 63.7752 230.091 68.5692 225.492 76.8123C224.472 78.6561 221.869 83.6237 219.743 87.8537C217.596 92.0837 215.34 96.4005 214.711 97.4633C213.409 99.6543 211.999 101.216 211.132 101.433C210.633 101.563 210.437 101.455 209.722 100.674C207.314 97.9406 203.409 90.8689 201.63 86.0315C199.938 81.411 198.572 74.9034 198.073 68.8729C197.726 64.9466 197.791 56.031 198.203 50.326C198.398 47.5277 198.572 42.777 198.572 39.8052C198.593 35.098 198.55 34.2303 198.203 33.1891C197.682 31.6706 196.988 30.7378 195.99 30.2823C194.949 29.7834 191.565 29.6098 190.22 30.0003Z" fill="url(#paint0_linear_466_975)"/>
<defs>
<linearGradient id="paint0_linear_466_975" x1="284.208" y1="521.042" x2="284.208" y2="29.7864" gradientUnits="userSpaceOnUse">
<stop stop-color="#003479"/>
<stop offset="0.619792" stop-color="#75D0D1"/>
<stop offset="1" stop-color="#037FB2"/>
</linearGradient>
</defs>
</svg>
