<svg width="372" height="89" viewBox="0 0 372 89" fill="none" xmlns="http://www.w3.org/2000/svg">
<path fill-rule="evenodd" clip-rule="evenodd" d="M49.3681 70.4536H30.1361V19.7867L38.3921 17.5575V11.6055L10.8401 12.0855V18.0375L18.3281 19.8089V71.1132L10.8401 73.0455V78.9976H58.1681V59.7015H51.1601L49.3681 70.4536ZM76.7693 71.2123L80.4996 60.5655H104.73L108.131 71.1484L100.78 73.0455V78.9976H127.468V73.0455L121.363 71.2621L100.3 11.4135L88.3001 11.7975L66.0365 71.2291L59.7881 73.0455V78.9976H84.3641V73.0455L76.7693 71.2123ZM102.413 52.3095L93.4087 22.2699L83.1001 52.3095H102.413ZM195.363 71.2123L199.093 60.5655H223.324L226.725 71.1484L219.374 73.0455V78.9976H246.062V73.0455L239.957 71.2621L218.894 11.4135L206.894 11.7975L184.63 71.2291L178.382 73.0455V78.9976H202.958V73.0455L195.363 71.2123ZM221.006 52.3095L212.002 22.2699L201.694 52.3095H221.006ZM313.957 71.2123L317.687 60.5655H341.917L345.319 71.1484L337.968 73.0455V78.9976H364.656V73.0455L358.551 71.2621L337.488 11.4135L325.488 11.7975L303.224 71.2291L296.976 73.0455V78.9976H321.552V73.0455L313.957 71.2123ZM339.6 52.3095L330.596 22.2698L320.288 52.3095H339.6ZM286.556 70.4536H267.324V19.7867L275.58 17.5575V11.6055L248.028 12.0855V18.0375L255.516 19.8089V71.1132L248.028 73.0455V78.9976H295.356V59.7015H288.348L286.556 70.4536ZM167.962 70.4536H148.73V19.7867L156.986 17.5575V11.6055L129.434 12.0855V18.0375L136.922 19.8089V71.1132L129.434 73.0455V78.9976H176.762V59.7015H169.754L167.962 70.4536Z" fill="#D9D9D9"/>
</svg>
