<svg width="66" height="72" viewBox="0 0 66 72" fill="none" xmlns="http://www.w3.org/2000/svg">
<path d="M18.5628 0.0974655C18.2852 0.279144 17.4659 1.19099 17.2499 1.55093C17.1779 1.66748 16.9311 1.7189 16.3415 1.73605L15.7759 1.74976L15.6833 1.65034C15.6319 1.59892 15.5153 1.41381 15.4228 1.24584C15.3302 1.07444 15.2308 0.933891 15.2034 0.92704C15.1451 0.916756 15.0628 1.18756 15.0217 1.5098C15.0046 1.65034 14.9874 1.67776 14.912 1.69491C14.6926 1.74976 13.4208 1.49951 12.9203 1.30069L12.7421 1.2287L12.7969 1.34183C12.9512 1.64692 13.486 2.50734 13.6471 2.70274C13.7465 2.82615 13.8356 2.96326 13.8459 3.0044C13.8768 3.1141 13.8116 3.35406 13.7156 3.49803C13.6197 3.64886 13.5682 3.65572 13.0986 3.58716C12.7524 3.53917 12.5535 3.58031 12.5021 3.71742C12.4541 3.84084 12.4541 3.84426 12.581 4.02595L12.6907 4.19392L12.365 4.18363C11.9845 4.16992 11.5491 4.22477 11.3537 4.31047C11.2749 4.34475 11.1721 4.42017 11.1206 4.48186C10.9458 4.69098 11.0212 5.00978 11.2852 5.17775C11.3503 5.22231 11.4052 5.26688 11.4052 5.27716C11.4052 5.30459 11.268 5.36286 10.6921 5.56854C9.47521 6.01076 8.69362 6.52838 8.27884 7.17627C7.72007 8.04013 7.52125 8.8937 7.7235 9.5553C7.75092 9.641 7.77149 9.71642 7.77149 9.71642C7.77149 9.71984 7.5761 9.86039 7.33271 10.0318C5.72841 11.1733 4.30922 12.5719 3.44536 13.8574C2.9723 14.567 2.54037 15.5749 2.61579 15.7943C2.65007 15.8834 2.65007 15.8834 3.00315 15.8834C3.31167 15.8834 3.35966 15.8902 3.40423 15.9485C3.46593 16.0376 3.46593 16.1199 3.39737 16.2639C3.33224 16.3976 3.15741 16.5518 2.69463 16.8706C2.29698 17.1449 2.14272 17.3129 2.0056 17.6008C1.80335 18.0293 1.79992 18.5401 1.99532 18.5401C2.03988 18.5401 2.24556 18.4235 2.4581 18.2796C2.66721 18.139 2.89003 17.9985 2.95516 17.971C3.10256 17.9093 3.31853 17.9093 3.39737 17.9676C3.47621 18.0259 3.47964 18.2521 3.4008 18.4681C3.30824 18.7355 2.96201 19.3628 2.5438 20.0313C2.32098 20.3878 2.10159 20.7786 2.06045 20.8951C1.95761 21.1728 1.89934 21.5053 1.7725 22.5234C1.71422 22.9862 1.63538 23.4901 1.59767 23.6375C1.39542 24.378 1.38856 24.6042 1.5154 25.8623C1.61481 26.8495 1.6251 27.4494 1.54968 27.7443C1.51883 27.8574 1.34743 28.255 1.16917 28.6252C0.514426 29.9964 0.23333 30.8774 0.0550744 32.1321C-0.0100575 32.5914 -0.0134855 32.6806 0.0242224 32.9719C0.11335 33.6781 0.52471 35.0596 0.877793 35.8583C1.21031 36.5953 1.53597 37.0478 1.90619 37.2741C2.16329 37.4283 2.44782 37.7334 2.57122 37.9871C2.75633 38.371 2.80775 38.6487 2.81461 39.3377C2.81804 39.8896 2.82489 39.9651 2.87289 39.9651C2.96201 39.9651 3.10256 39.8005 3.15741 39.6291C3.26711 39.2966 3.28425 38.9949 3.27396 37.7883C3.26711 36.5919 3.27739 36.4342 3.38366 36.4342C3.49678 36.4342 3.56877 36.7427 3.67161 37.7266C3.75045 38.4567 3.8053 38.635 4.00755 38.8372C4.21666 39.0464 4.25437 39.1389 4.3435 39.6463C4.43948 40.1879 4.47719 40.301 4.6863 40.7192C4.87141 41.0963 6.0952 43.2662 6.10891 43.2491C6.11234 43.2422 6.0952 43.0914 6.07121 42.9131C5.97522 42.231 5.93751 41.4905 5.93751 40.3079C5.93751 39.0635 5.95808 38.8338 6.07463 38.8338C6.1809 38.8338 6.27346 39.1938 6.55455 40.7364C6.86307 42.4469 6.92478 42.6766 7.31557 43.5987C7.99774 45.2065 8.3234 45.7275 8.9233 46.1526C9.39636 46.492 9.56091 46.8142 9.70831 47.6952C9.76316 48.0208 9.80087 48.1237 9.86943 48.1237C9.9277 48.1237 9.99283 47.9009 10.0134 47.6095C10.0751 46.8382 10.1334 46.5948 10.2842 46.4954C10.3631 46.444 10.3802 46.444 10.4693 46.492C10.7161 46.6222 10.9835 47.0062 11.3983 47.8323C11.7514 48.5419 11.9297 49.0252 12.4164 50.5918C13.3557 53.6222 13.4928 53.9718 15.0217 57.105C16.2078 59.5321 17.1745 61.3352 17.5378 61.8014C17.6887 61.9899 17.8155 62.2676 17.8738 62.535C17.9492 62.8778 17.9492 63.6285 17.8704 64.4752L17.8018 65.178L17.4487 65.2362C17.2533 65.2705 16.8797 65.3665 16.6226 65.4522C14.7098 66.0864 13.462 67.3307 13.462 68.5991C13.462 68.8631 13.5271 69.0276 13.7019 69.2059C13.9625 69.4732 14.3464 69.6378 14.9291 69.7372C15.3199 69.8023 15.5188 69.8983 16.1427 70.3268C16.4032 70.5016 16.6809 70.6765 16.7597 70.7142C16.9688 70.8102 17.2842 70.8033 18.6759 70.673C19.6358 70.5873 20.03 70.5668 20.7979 70.5633C21.7371 70.5599 21.7406 70.5599 22.0799 70.6593C22.6661 70.8273 23.3654 71.0741 23.9551 71.3278C24.6372 71.6192 24.8361 71.6603 25.8782 71.7151C27.3351 71.794 29.481 71.6329 30.4991 71.3689C31.2773 71.1667 31.5515 70.9404 31.7572 70.3268C31.8463 70.0594 31.8497 70.0114 31.8532 69.3944C31.8532 68.7191 31.8326 68.5305 31.6818 67.9272C31.5412 67.3719 31.3698 66.9091 31.1984 66.6314L31.123 66.508L31.5035 66.484C32.7067 66.412 35.8125 65.7641 36.4501 65.4522C37.4545 64.9586 38.2944 63.0492 38.6886 60.3616C38.9114 58.8465 38.8908 58.6476 38.3355 57.1496C37.9653 56.1418 37.7904 55.5967 37.6465 55.0002C37.2557 53.3754 37.1357 51.7985 37.3174 50.6295C37.5573 49.0664 38.2018 47.4038 38.5652 47.4038C38.6749 47.4038 38.8703 47.6163 39.1514 48.0483C39.4427 48.4939 39.6347 48.8333 40.4951 50.4102C41.3933 52.0556 41.6058 52.4224 42.1303 53.2314C43.4329 55.2368 45.3937 58.5002 46.1445 59.916C46.645 60.8553 46.669 60.9375 46.7649 62.0071C46.8849 63.344 46.9775 63.7074 47.3991 64.5609C47.5671 64.9003 47.7385 65.2945 47.7796 65.4351C47.9373 66.0007 47.8893 66.9605 47.6802 67.389C47.6014 67.5467 47.5122 67.6393 47.1249 67.9615C46.3673 68.5888 46.0896 68.9419 45.8977 69.5212C45.7777 69.8812 45.6954 70.4296 45.7331 70.625C45.7811 70.8856 46.1993 71.153 46.8678 71.3484C47.1386 71.4272 47.2757 71.4409 48.0162 71.4752L48.856 71.5095L49.0617 71.6363C49.2468 71.7494 49.2948 71.7597 49.5588 71.77C49.9633 71.7871 50.4363 71.7323 50.5186 71.6569C50.5803 71.602 50.666 71.602 52.0509 71.6569C53.2096 71.7014 53.5455 71.7254 53.6552 71.77C53.8266 71.8386 54.9716 71.8728 55.1224 71.8146C55.1738 71.794 55.2458 71.7323 55.2767 71.674C55.3315 71.578 55.3452 71.5712 55.5577 71.5712C56.0582 71.5712 56.4147 71.2249 56.4147 70.7485C56.4147 70.0423 55.6023 69.1339 53.3398 67.2999C52.5274 66.6451 52.2292 66.3606 52.0475 66.0761C51.8727 65.8019 51.8315 65.675 51.787 65.2294C51.6944 64.2901 51.4476 63.6045 50.8237 62.5727C50.3883 61.8459 50.2478 61.4757 50.0901 60.6187C49.9016 59.5972 49.8433 58.6785 49.7987 56.1623C49.7473 53.1388 49.7027 52.4601 49.1988 46.9239C49.0034 44.7882 48.8046 42.9851 48.5989 41.4905C48.4926 40.7192 48.2355 39.1081 48.1978 38.9915C48.1841 38.9401 48.191 38.9298 48.2424 38.9504C48.4138 39.0189 49.2571 39.2178 49.7644 39.3103C50.9745 39.5331 52.9422 39.7765 54.7179 39.9273C56.7301 40.0987 58.8452 40.1913 59.5274 40.133C61.0665 40.0096 62.3143 39.4474 63.353 38.4087C64.258 37.5003 64.8716 36.3451 65.2144 34.8916C65.307 34.5043 65.2967 33.9181 65.1938 33.589C64.8373 32.4372 63.8089 31.4636 61.9681 30.5244C60.8026 29.9313 60.3912 29.7805 58.8726 29.4103C57.8065 29.1463 57.1963 28.9475 56.6718 28.6904C55.736 28.2276 55.6434 28.0836 55.167 26.3765C55.0024 25.7869 54.8996 25.5675 54.7007 25.3824C54.4882 25.1835 54.214 25.0978 53.7135 25.0704C53.0176 25.0293 52.8599 24.9504 52.4383 24.4294C52.2909 24.2511 52.1469 24.1071 52.1092 24.1003C52.0235 24.0866 51.9515 24.1654 51.7527 24.4979C51.5093 24.9059 51.4887 24.899 50.9368 24.2203C50.7483 23.9837 50.5563 23.8192 50.474 23.8192C50.4603 23.8192 50.4295 23.8569 50.4089 23.9049C50.378 23.9735 50.378 24.066 50.4089 24.2888C50.4295 24.4534 50.4432 24.5905 50.4363 24.5974C50.4295 24.6042 50.2958 24.5322 50.1381 24.4397C49.833 24.2614 49.6959 24.2031 49.6959 24.258C49.6959 24.2785 49.857 24.5117 50.0558 24.779C50.2546 25.0464 50.4158 25.2829 50.4158 25.3069C50.4158 25.3309 50.3301 25.3652 50.2101 25.3892C50.1004 25.4098 49.953 25.4509 49.8844 25.4818C49.737 25.5538 49.7336 25.6189 49.833 26.02C50.0935 27.0278 50.7757 28.1522 51.7013 29.0846C52.3869 29.7771 52.8942 30.1199 53.5764 30.3495C54.0837 30.5175 54.5842 30.5929 55.6092 30.658C57.0284 30.7437 57.6043 30.8294 58.4853 31.0865C59.3388 31.3368 60.117 31.6453 60.9088 32.0498C62.0881 32.6531 62.8045 33.2496 63.1268 33.8941C63.2502 34.1409 63.2536 34.1649 63.2536 34.5111C63.2536 34.8573 63.2467 34.8882 63.1302 35.1316C62.6126 36.2183 60.6895 37.065 58.3207 37.2569C57.4843 37.3221 56.8947 37.2844 55.2835 37.065C52.9353 36.7462 49.0137 36.0811 47.8139 35.7966C47.2243 35.6595 47.0769 35.5429 45.9079 34.2917C44.7184 33.0199 44.1802 32.5057 43.4809 31.9915C42.8227 31.5048 42.3565 31.2648 40.9373 30.6752C38.7469 29.7702 38.2292 29.52 37.2351 28.8789C34.8047 27.3055 33.6871 26.5547 33.4198 26.3079C33.1866 26.092 33.0427 25.756 32.9467 25.2075C32.8781 24.8133 32.8473 23.4284 32.8918 22.7531L32.9261 22.2492L33.2381 21.3305C33.5706 20.3329 33.6597 20.0175 33.7248 19.5753C33.7797 19.1948 33.7454 18.8932 33.622 18.6464C33.478 18.3687 33.005 17.7482 32.2165 16.8124C31.4932 15.9588 31.3492 15.7703 31.3767 15.7257C31.4007 15.6846 31.6201 15.7154 32.6416 15.9211C33.1524 16.0239 33.67 16.1165 33.8003 16.1302C34.0094 16.1473 34.0299 16.1439 34.0299 16.0891C34.0299 15.9554 33.2518 15.352 32.4873 14.8893L32.1137 14.663L31.8155 14.2277C31.3835 13.5901 31.0133 13.1307 30.6671 12.8016C30.5025 12.6371 30.3517 12.5068 30.338 12.5068C30.3243 12.5068 30.3106 11.8863 30.3106 11.1253C30.3071 9.55187 30.2797 9.29135 30.0672 8.84228C29.8752 8.43092 29.6147 8.09155 28.8262 7.22769C28.0858 6.41526 28.0824 6.41526 27.4242 6.5798C27.0025 6.68264 26.7934 6.69292 26.6666 6.61408C26.5878 6.56609 26.5569 6.33641 26.5569 5.71938C26.5569 5.14005 26.5226 4.86237 26.4506 4.86237C26.4026 4.86237 26.3615 4.98579 26.1627 5.76051C25.9193 6.70663 25.813 6.93631 25.7308 6.72378C25.6382 6.48724 25.7685 4.53329 25.9364 3.66601C25.9741 3.48432 25.9947 3.33006 25.9879 3.31978C25.9433 3.27522 25.7616 3.45004 25.5731 3.72086C25.2646 4.15278 25.1377 4.29675 25.0794 4.27276C25.052 4.26247 24.9252 4.06365 24.7915 3.83398C24.531 3.37463 24.195 2.98041 23.9585 2.84672L23.8179 2.76787L23.9036 2.95641C24.0305 3.2375 24.0922 3.59402 24.0922 4.03966C24.0887 4.57442 24.0065 4.82809 23.8385 4.82809C23.65 4.82809 23.5231 4.54357 23.4032 3.84084C23.3174 3.33349 23.266 3.16552 23.1289 2.9187C22.8992 2.5142 22.5462 2.14397 22.4467 2.20568C22.4262 2.21597 22.3748 2.35308 22.3268 2.51077C22.2342 2.81243 22.1622 2.90842 22.0285 2.90842C21.9257 2.90842 21.8297 2.80901 21.5863 2.45249C21.4149 2.19882 21.2195 2.00686 21.0481 1.91772C21.007 1.89716 20.9658 1.88002 20.9556 1.88002C20.9487 1.88002 21.0001 2.01714 21.0721 2.18511C21.3018 2.70959 21.3669 3.04897 21.2778 3.22037C21.2229 3.31978 20.9967 3.30607 20.7636 3.18951C20.5202 3.06953 20.0266 2.58619 19.8312 2.27424C19.5912 1.89716 19.5569 1.75661 19.4747 0.80706C19.4644 0.673363 19.4404 0.577385 19.4198 0.584236C19.4027 0.591095 19.3307 0.680222 19.2621 0.783058C19.1079 1.00588 19.0427 1.05387 18.9673 0.992172C18.9228 0.95446 18.9125 0.868759 18.9125 0.522537C18.9125 0.186592 18.9022 0.0906067 18.8576 0.049469C18.7822 -0.0259476 18.7411 -0.0190887 18.5628 0.0974655ZM22.5016 52.2338C22.6181 52.3641 23.1255 53.3994 23.4066 54.0884C23.5403 54.4175 23.6534 54.6917 23.6568 54.6952C23.6637 54.702 23.7048 54.5443 23.7528 54.3455C23.9173 53.6907 24.2087 53.228 24.4933 53.1765C24.6338 53.1491 24.6989 53.1834 24.7812 53.3205C24.98 53.6599 25.0486 54.3455 25.0726 56.1623C25.0966 58.1917 25.052 59.2167 24.9115 59.8886C24.7195 60.8313 24.3904 61.6711 24.0819 62.0242C23.9105 62.2162 23.7939 62.2813 23.6054 62.2813C23.4786 62.2813 23.4409 62.2607 23.3072 62.1202C22.8512 61.6471 22.4673 60.1388 22.2068 57.8078C21.96 55.6036 21.8914 52.8852 22.0662 52.2338C22.1314 51.9973 22.2891 51.9973 22.5016 52.2338ZM32.4633 56.9645C32.813 57.3553 33.2929 58.3391 33.55 59.1961C33.7626 59.9091 33.7214 60.4336 33.3992 61.1055C33.1935 61.534 33.0221 61.7774 32.741 62.0413C32.3399 62.4184 31.908 62.583 31.4144 62.5453C31.0716 62.5178 30.8659 62.4219 30.7151 62.2196C30.5711 62.0276 30.53 61.8871 30.5094 61.4689C30.4888 61.0918 30.554 60.5947 30.6774 60.1902C30.8008 59.7926 31.1881 58.6751 31.3458 58.2705C31.6886 57.3861 32.0451 56.7965 32.2371 56.7965C32.2817 56.7965 32.3708 56.8651 32.4633 56.9645Z" fill="black"/>
</svg>
