<svg width="485" height="179" viewBox="0 0 485 179" fill="none" xmlns="http://www.w3.org/2000/svg">
<path d="M46.1422 162.173C47.1376 159.432 47.4073 157.006 46.8467 154.342L41.3351 152.684L40.7821 154.207L46.2464 157.047L46.3642 155.249L45.2223 154.921C45.9751 157.268 45.8282 159.355 45.0417 161.521C43.0509 167.003 37.3794 169.783 29.6634 167.567C21.982 165.361 19.1415 160.135 21.1815 154.518C21.968 152.353 23.1461 150.898 25.2876 149.42L24.0765 149.072L22.8739 150.595L29.3 151.208L29.853 149.685L24.2576 148.153C22.144 149.975 20.8062 151.87 19.8107 154.61C17.2423 161.683 20.4339 168.466 28.5305 170.791C36.6618 173.127 43.4877 169.482 46.1422 162.173Z" fill="#CDD9E7"/>
<path d="M53.6592 146.359C55.8018 142.117 54.6415 137.097 48.624 134.693C42.6064 132.289 37.5332 134.935 35.4393 139.08C33.3454 143.225 34.5066 148.323 40.5242 150.727C46.5417 153.131 51.5003 150.632 53.6592 146.359ZM52.6228 145.945C51.0158 149.126 47.2175 149.964 42.0022 147.881C36.787 145.797 34.9021 142.688 36.5091 139.507C38.1161 136.326 41.9813 135.515 47.1965 137.598C52.4117 139.682 54.2298 142.764 52.6228 145.945Z" fill="#CDD9E7"/>
<path d="M58.2302 137.351L63.0796 129.984L62.2174 129.535L59.8076 132.48L59.1742 133.442L57.368 136.902L58.2302 137.351ZM59.8532 134.885L61.6148 132.209C60.0425 131.471 56.4463 129.64 54.2749 128.509L48.6867 125.6L44.8439 123.883L44.2992 124.124L42.5603 129.436L43.3586 129.852L45.2601 127.289C46.9161 128.03 48.5325 128.831 50.7039 129.961L52.6518 130.975C54.8232 132.106 58.3799 133.997 59.8532 134.885ZM64.9599 127.127L69.8093 119.76L68.9471 119.311L66.5373 122.256L65.8842 123.248L64.0977 126.678L64.9599 127.127ZM66.583 124.662L68.3248 122.015C66.7524 121.278 63.2003 119.509 60.965 118.346L57.3247 116.451C53.0138 114.207 50.2921 114.889 48.5701 117.505C47.1846 119.61 46.8771 122.357 48.3061 126.048L48.1082 126.349L49.3401 126.627C48.2106 123.132 48.7308 120.779 49.6215 119.425C50.7695 117.681 52.5282 117.224 55.6576 118.853L59.3617 120.781C61.597 121.945 65.0898 123.804 66.583 124.662Z" fill="#CDD9E7"/>
<path d="M75.2762 115.011C78.3467 111.244 77.9115 107.984 75.279 106.287C73.1609 104.922 70.882 105.113 67.5257 107.248L65.8439 108.293C63.4573 109.862 61.958 110.172 60.4753 109.216C58.9019 108.202 58.6391 106.373 60.3904 104.224C61.3229 103.08 62.4821 102.337 64.2921 101.759L63.2936 101.115L62.4372 101.883L66.4703 103.503L67.3801 102.387L64.2334 100.189C62.1884 100.999 60.7641 101.953 59.4221 103.6C56.67 106.976 57.0827 110.094 59.6244 111.733C61.8938 113.195 64.3852 112.63 67.0747 110.916L68.8323 109.836C71.4841 108.055 72.9302 107.923 74.3826 108.859C76.1074 109.971 76.264 111.987 74.2397 114.471C72.9205 116.089 71.6326 116.876 70.0118 117.449L71.1012 118.151L72.0032 117.158L67.675 115.39L66.697 116.589L70.2675 118.891C72.2824 117.891 73.7978 116.825 75.2762 115.011Z" fill="#CDD9E7"/>
<path d="M88.2408 101.301C90.5063 98.9843 91.0001 96.3826 90.1713 93.7525L89.3699 93.8559C89.7047 95.9683 89.1328 97.8315 87.3708 99.6331C84.5767 102.49 80.5412 102.985 75.9281 99.4168C71.7991 96.2231 71.1407 92.5493 73.3559 90.2845C75.42 88.1741 78.3652 88.2823 80.7857 90.1545C81.9532 91.0576 82.1855 91.6894 81.3045 92.5901L73.9795 100.08L74.8907 100.784L85.186 90.258C84.8311 89.8027 84.3119 89.3107 83.6001 88.7601C80.2684 86.1831 75.7673 86.1825 72.495 89.5282C69.1723 92.9255 69.2926 98.1721 74.105 101.894C79.2307 105.859 84.4902 105.135 88.2408 101.301Z" fill="#CDD9E7"/>
<path d="M94.5598 95.0024L101.775 88.8166L101.061 88.1576L97.6548 90.5123L96.5342 91.473L93.8453 94.3433L94.5598 95.0024ZM96.8009 93.081L99.2334 90.9957C97.9086 89.8709 94.9177 87.1604 93.1184 85.5006L89.1493 81.8391L85.227 78.5614L84.6335 78.6463L81.5094 83.2555L82.1709 83.8657L84.7084 81.9258C86.1134 83.076 87.4638 84.2731 89.2631 85.9329L90.8772 87.4219C92.6765 89.0818 95.6128 91.8391 96.8009 93.081ZM90.7096 83.3272C89.073 80.1149 89.0081 77.7688 90.3921 75.6404L89.1084 76.6938L90.3191 76.6919C91.5828 76.7389 92.4188 76.6344 93.102 76.0487C94.086 75.2052 93.9676 74.3177 93.0415 73.4633C92.0281 72.9663 90.7301 73.3256 89.6642 74.2394C87.751 75.8795 87.4784 79.0331 89.2243 82.1516L88.7323 82.5733L90.7096 83.3272Z" fill="#CDD9E7"/>
<path d="M113.311 80.7795L114.451 79.9607L107.575 61.9588L106.435 62.7776L112.55 77.7597L112.694 78.1845L113.191 77.8276L97.2817 69.3495L94.5914 71.2812L113.311 80.7795ZM93.7433 73.167L96.8561 71.3282L98.0258 70.4883L101.025 67.9388L100.323 67.1659L93.0415 72.394L93.7433 73.167ZM104.125 65.7132L107.267 63.8535L107.764 63.4965L109.915 61.5559L109.213 60.783L103.423 64.9403L104.125 65.7132Z" fill="#CDD9E7"/>
<path d="M127.379 72.4381C129.707 71.0699 130.342 69.2849 130.806 66.1891L131.551 65.7513L130.262 64.5575C129.526 68.1869 128.81 69.5629 127.444 70.3656C125.706 71.3872 123.861 71.1847 122.508 69.3645C121.348 67.8042 121.449 65.9598 123.39 63.5318C124.422 62.2196 125.878 60.6993 127.222 59.3279L126.707 58.6345C125.289 59.9663 123.668 61.625 122.273 63.1089C119.014 66.6438 118.651 68.9747 120.304 71.1995C122.108 73.6265 124.927 73.8793 127.379 72.4381ZM135.644 67.5384C136.854 66.827 137.442 65.8174 137.394 64.4337L136.554 64.2633C136.435 65.1224 136.222 65.4964 135.695 65.8065C134.826 66.3173 134.005 66.0526 132.673 64.2613L127.369 57.1246C124.684 53.513 121.851 53.061 118.251 55.1772C114.744 57.2386 113.469 60.0226 114.64 62.7384C115.289 63.3118 116.043 63.3666 116.757 62.947C117.502 62.5092 117.803 61.8341 117.185 60.7027L116.016 58.1101L115.23 59.6929C116.09 58.1496 117.023 57.1857 118.234 56.4742C120.686 55.0331 122.395 55.2325 124.778 58.4396L130.362 65.9518C132.011 67.9303 133.813 68.6147 135.644 67.5384Z" fill="#CDD9E7"/>
<path d="M134.008 49.0596L139.991 46.1341L139.291 45.0011L133.308 47.9266L134.008 49.0596ZM145.961 62.8744C147.675 62.0363 148.596 60.8684 148.844 59.431L148.051 59.1012C147.499 60.0487 147.036 60.5941 146.066 61.0685C144.643 61.7643 143.375 61.3477 142.201 59.4493L134.95 47.7217L131.823 42.3918L130.012 43.2774L132.255 48.8801L132.604 48.151L128.894 50.3242L129.481 51.2734L132.682 49.7079L137.813 58.006C138.513 59.1389 138.879 59.7977 139.484 60.7776C141.169 63.5028 143.245 64.2027 145.961 62.8744Z" fill="#CDD9E7"/>
<path d="M151.686 59.9342L159.891 56.5059L159.437 55.6465L155.731 56.7676L154.701 57.1979L151.232 59.0748L151.686 59.9342ZM154.443 58.7822L157.366 57.5607C156.493 56.0607 154.576 52.5096 153.432 50.3451L150.876 45.507L148.604 41.0548L148.054 40.9349L143.28 44.4844L143.717 45.312L146.74 44.204C147.648 45.7678 148.589 47.3952 149.732 49.5596L150.741 51.4694C151.885 53.6339 153.702 57.2266 154.443 58.7822ZM144.623 37.4338C145.686 36.9897 146.213 35.9147 145.641 34.8324C145.103 33.8139 143.802 33.4247 142.739 33.8689C141.677 34.313 141.25 35.4239 141.788 36.4425C142.36 37.5247 143.56 37.878 144.623 37.4338Z" fill="#CDD9E7"/>
<path d="M171.613 53.2416C176.122 51.7418 178.869 47.3481 176.356 41.3749C173.844 35.4018 168.413 33.6904 164.006 35.1561C159.599 36.6219 156.798 41.0715 159.31 47.0447C161.823 53.0179 167.069 54.7528 171.613 53.2416ZM171.18 52.2129C167.798 53.3378 164.542 51.2434 162.365 46.0666C160.187 40.8899 161.071 37.3429 164.453 36.218C167.834 35.0932 171.119 37.254 173.296 42.4307C175.473 47.6075 174.562 51.0881 171.18 52.2129Z" fill="#CDD9E7"/>
<path d="M182.375 49.563L190.975 47.6057L190.706 46.6716L186.946 47.1219L185.823 47.3775L182.106 48.6289L182.375 49.563ZM185.253 48.9079L188.377 48.1969C187.829 46.5522 186.679 42.6855 186.002 40.333L184.26 34.2787L182.859 30.3215L182.313 30.114L177.316 32.7627L177.565 33.6276L180.703 33.0975C181.306 34.8034 181.839 36.5252 182.516 38.8777L183.124 40.988C183.801 43.3406 184.881 47.2233 185.253 48.9079ZM194.31 46.8468L202.91 44.8895L202.641 43.9554L198.881 44.4057L197.722 44.6693L194.041 45.9127L194.31 46.8468ZM197.188 46.1917L200.277 45.4887C199.729 43.844 198.564 40.0545 197.867 37.6327L196.732 33.6888C195.388 29.0184 193.035 27.6002 189.981 28.2952C187.524 28.8544 185.345 30.6405 183.678 34.3373L183.327 34.4172L183.972 35.487C185.703 32.1441 187.745 30.7945 189.325 30.435C191.361 29.9717 192.893 30.8763 193.868 34.2667L195.023 38.2798C195.72 40.7016 196.78 44.5151 197.188 46.1917Z" fill="#CDD9E7"/>
<path d="M228.204 43.0616C231.111 42.836 233.46 42.0762 235.724 40.4564L235.233 34.7184L233.618 34.8437L232.996 41.0292L234.705 40.3911L234.589 39.2088C232.691 40.8723 230.701 41.6043 228.404 41.7826C222.59 42.2338 217.925 38.1914 217.141 30.2018C216.361 22.248 220.16 17.4767 226.118 17.0143C228.416 16.8361 230.198 17.3114 232.356 18.6603L232.233 17.4063L230.378 16.9365L232.174 23.0786L233.79 22.9533L233.152 17.1905C230.685 16.0101 228.436 15.5709 225.529 15.7965C218.027 16.3786 212.913 22.1185 213.735 30.5022C214.561 38.9218 220.451 43.6632 228.204 43.0616Z" fill="#CDD9E7"/>
<path d="M238.517 42.0121L248.02 42.1152L248.034 41.1433L243.972 40.6672L242.496 40.6512L238.53 41.0402L238.517 42.0121ZM241.469 42.0441L244.672 42.0789C244.624 40.3502 244.644 36.3182 244.677 33.8705L244.751 28.471L244.569 23.3927L244.105 23.0637L238.541 24.4794L238.529 25.3793L241.694 25.5936C241.778 27.3946 241.789 29.1949 241.755 31.6426L241.725 33.8384C241.692 36.2862 241.6 40.3174 241.469 42.0441ZM244.686 30.6304C245.994 27.1164 247.711 25.2989 250.241 24.6063L248.585 24.5524L249.402 25.3533C250.218 26.2262 250.86 26.7012 251.76 26.7109C253.056 26.725 253.642 25.9753 253.66 24.7154C253.35 23.668 252.206 23.0796 250.802 23.0643C248.282 23.037 245.732 25.2414 244.567 28.757L243.919 28.75L244.686 30.6304Z" fill="#CDD9E7"/>
<path d="M264.353 43.5964C267.58 43.8846 270.112 42.6291 271.964 40.3374L271.447 39.7854C269.783 41.3713 267.853 42.1023 265.343 41.8782C261.363 41.5229 258.781 38.7269 259.436 32.9317C260.021 27.7447 262.874 24.9281 266.03 25.2098C268.97 25.4723 270.445 27.8081 270.102 30.8488C269.936 32.3155 269.509 32.8916 268.254 32.7795L257.819 31.848L257.69 32.9927L272.356 34.302C272.564 33.7424 272.716 33.0334 272.817 32.1391C273.29 27.9537 270.892 24.4876 266.231 24.0715C261.498 23.6489 256.986 27.0401 256.303 33.0857C255.577 39.5248 259.01 43.1195 264.353 43.5964Z" fill="#CDD9E7"/>
<path d="M279.305 45.3702C281.964 45.8378 283.79 44.9174 286.52 42.9143L287.371 43.0639L287.419 41.3562C284.087 43.582 282.525 44.1471 280.965 43.8727C278.979 43.5236 277.874 42.1972 278.366 39.9833C278.788 38.0857 280.294 36.7803 283.515 36.2147C285.243 35.8978 287.425 35.6972 289.413 35.5357L289.601 34.6923C287.592 34.7773 285.19 34.9757 283.08 35.1888C278.095 35.7363 276.03 37.2354 275.428 39.9413C274.772 42.8932 276.504 44.8776 279.305 45.3702ZM288.78 46.9998C290.163 47.243 291.351 46.8678 292.397 45.8101L291.955 45.1481C291.204 45.7098 290.767 45.8521 290.164 45.7461C289.171 45.5715 288.815 44.8516 289.3 42.6729L291.23 33.9929C292.207 29.6001 290.62 27.4588 286.507 26.7355C282.5 26.0309 279.458 27.2852 278.144 30.0484C278.141 30.8878 278.615 31.4093 279.43 31.5527C280.281 31.7023 281.013 31.3929 281.472 30.1589L282.692 27.4887L280.921 28.1632C282.712 27.5653 284.102 27.4445 285.485 27.6877C288.286 28.1803 289.3 29.4176 288.433 33.3183L286.401 42.4552C285.988 44.9752 286.688 46.6319 288.78 46.9998Z" fill="#CDD9E7"/>
<path d="M302.759 31.985L309.216 33.615L309.621 32.346L303.164 30.716L302.759 31.985ZM300.19 49.6063C302.039 50.0733 303.598 49.7996 304.901 48.9057L304.61 48.165C303.481 48.5102 302.731 48.6171 301.683 48.3528C300.148 47.9651 299.594 46.862 300.273 44.7357L304.466 31.6005L306.488 25.737L304.533 25.2436L301.682 30.7497L302.499 30.4369L298.211 29.6883L297.872 30.7515L301.328 31.6237L298.361 40.9178C297.956 42.1867 297.691 42.8981 297.341 43.9956C296.367 47.0479 297.257 48.8662 300.19 49.6063Z" fill="#CDD9E7"/>
<path d="M313.819 53.3561C316.648 54.3181 319.614 53.5072 322.348 51.7833L323.268 52.0962L322.99 50.5613C320.493 52.1001 317.955 52.64 315.842 51.9214C313.627 51.168 312.926 49.5271 314.448 45.9884L317.221 39.5393L319.254 35.2648L319.05 34.7404L313.505 33.4615L313.136 34.3214L316.467 36.0229L315.959 35.2056L311.653 45.038C309.514 49.921 310.581 52.2551 313.819 53.3561ZM320.57 55.4625L325.947 56.9497L326.345 56.0237L323.869 54.8783L328.775 43.4684L330.774 39.1823L330.604 38.6695L325.079 37.4353L324.71 38.2952L327.342 39.5316L322.212 51.2821L322.197 51.3152L320.57 55.4625Z" fill="#CDD9E7"/>
<path d="M327.955 57.5117L336.648 61.3536L337.122 60.5051L333.612 58.4835L332.262 57.8869L328.429 56.6632L327.955 57.5117ZM330.655 58.705L333.585 60.0002C334.363 58.4626 336.297 54.9284 337.491 52.7915L340.125 48.0776L342.371 43.5447L342.101 43.0727L336.31 42.1201L335.871 42.9057L338.681 44.3435C337.901 45.9584 337.056 47.5442 335.862 49.6812L334.791 51.5982C333.596 53.7351 331.597 57.2402 330.655 58.705ZM339.038 49.9486C341.912 47.3782 344.355 46.4595 347.011 46.8496L345.514 46.1488L345.885 47.1748C346.221 48.2638 346.585 48.9343 347.409 49.2981C348.594 49.822 349.49 49.3949 350.104 48.295C350.317 47.2526 349.545 46.2841 348.26 45.7166C345.956 44.6979 342.562 45.6276 339.82 48.2562L339.227 47.9943L339.038 49.9486Z" fill="#CDD9E7"/>
<path d="M350.985 68.8006C353.831 70.3491 356.755 70.2687 359.534 69.009L359.313 68.3184C357.037 69.0366 354.915 68.9006 352.701 67.6962C349.191 65.7864 348.11 62.3042 351.416 57.4995C354.374 53.199 358.322 51.8824 361.105 53.3965C363.698 54.8074 363.971 57.4424 362.237 59.9634C361.4 61.1794 360.737 61.5115 359.63 60.9093L350.428 55.9025L349.775 56.8516L362.709 63.8887C363.162 63.483 363.633 62.9242 364.143 62.1827C366.531 58.7127 365.932 54.7186 361.821 52.4818C357.647 50.2107 351.9 51.3634 348.451 56.3757C344.778 61.7143 346.273 66.237 350.985 68.8006Z" fill="#CDD9E7"/>
<path d="M364.829 76.7059C368.887 79.3802 372.535 78.9138 374.54 76.5077C376.153 74.5718 376.041 72.527 373.811 69.5583L372.723 68.07C371.082 65.9601 370.802 64.6191 371.932 63.264C373.13 61.8258 375.178 61.5474 377.493 63.0728C378.725 63.8849 379.501 64.9101 380.065 66.5244L380.825 65.6117L380.009 64.8593L378.027 68.5231L379.229 69.3155L381.815 66.4355C381.004 64.6153 380.004 63.3565 378.23 62.1877C374.593 59.7908 371.104 60.2336 369.168 62.5568C367.44 64.631 367.959 66.8582 369.748 69.2371L370.874 70.7927C372.739 73.1361 372.822 74.4334 371.716 75.7609C370.403 77.3373 368.151 77.5245 365.476 75.7615C363.732 74.6125 362.913 73.4726 362.347 72.0284L361.517 73.024L362.583 73.8123L364.742 69.8798L363.45 69.028L360.73 72.2915C361.754 74.0803 362.875 75.4183 364.829 76.7059Z" fill="#CDD9E7"/>
<path d="M391.312 96.5841C393.489 98.5245 395.72 99.7473 398.598 100.397L402.96 96.622L401.751 95.544L396.259 98.791L397.953 99.6303L398.842 98.8419C396.179 98.4799 394.216 97.4967 392.496 95.9636C388.143 92.0828 388.257 86.3414 394.263 81.0137C400.241 75.7099 406.752 75.5741 411.212 79.5507C412.932 81.0838 413.764 82.6398 414.138 84.9848L415.081 84.1486L414.195 82.5447L410.396 87.4922L411.605 88.5702L415.887 84.6758C415.164 82.2109 413.982 80.3435 411.806 78.4031C406.189 73.3964 397.985 73.1713 391.683 78.7618C385.354 84.3762 385.507 91.4098 391.312 96.5841Z" fill="#CDD9E7"/>
<path d="M404.64 109.399C407.817 112.933 413.356 114.173 418.638 110.418C423.919 106.664 423.736 101.484 420.631 98.0308C417.527 94.5771 411.91 93.3042 406.629 97.0588C401.347 100.813 401.439 105.838 404.64 109.399ZM405.55 108.752C403.167 106.102 404.164 102.716 408.741 99.4624C413.318 96.2085 417.31 96.0477 419.692 98.6983C422.075 101.349 421.02 104.776 416.443 108.03C411.865 111.284 407.933 111.403 405.55 108.752Z" fill="#CDD9E7"/>
<path d="M412.384 117.018L418.041 124.655L418.88 124.164L416.831 120.677L415.953 119.491L413.223 116.527L412.384 117.018ZM414.141 119.39L416.048 121.965C417.497 121.034 420.954 118.967 423.067 117.729L427.726 115L431.956 112.232L431.957 111.692L427.384 107.983L426.607 108.438L428.337 111.075C426.848 112.071 425.317 113.01 423.204 114.247L421.31 115.357C419.197 116.595 415.697 118.604 414.141 119.39ZM425.841 116.063C429.635 115.292 432.226 115.724 434.347 117.385L433.393 116.036L433.202 117.102C432.95 118.204 432.931 118.961 433.467 119.684C434.238 120.726 435.234 120.806 436.321 120.17C437.029 119.382 436.84 118.165 436.005 117.036C434.505 115.011 431.079 114.115 427.37 115.001L426.985 114.48L425.841 116.063Z" fill="#CDD9E7"/>
<path d="M421.939 129.326L426.44 136.911L427.32 136.498L425.768 133.11L425.18 132.119L422.818 128.913L421.939 129.326ZM423.445 131.864L425.081 134.62C426.608 133.824 430.24 132.079 432.456 131.039L438.159 128.362L441.81 126.371L441.865 125.831L437.699 121.691L436.884 122.073L438.338 124.874C436.764 125.732 435.153 126.527 432.937 127.568L430.949 128.501C428.733 129.541 425.065 131.223 423.445 131.864ZM428.186 139.852L432.688 147.436L433.568 147.023L432.015 143.635L431.409 142.614L429.066 139.439L428.186 139.852ZM429.693 142.39L431.31 145.114C432.837 144.318 436.385 142.574 438.666 141.503L442.381 139.759C446.781 137.694 447.552 135.273 445.954 132.58C444.668 130.413 442.204 128.72 437.93 127.836L437.746 127.527L436.836 128.31C440.766 129.315 442.743 130.961 443.569 132.354C444.635 134.149 444.152 135.722 440.958 137.221L437.178 138.995C434.897 140.066 431.294 141.718 429.693 142.39Z" fill="#CDD9E7"/>
<path d="M436.326 156.553C437.661 159.505 440.029 161.173 442.987 161.792L443.224 161.097C440.989 160.334 439.385 158.964 438.347 156.668C436.7 153.027 437.92 149.542 443.412 147.578C448.327 145.821 452.247 147.086 453.552 149.973C454.768 152.663 453.412 154.977 450.531 156.007C449.141 156.504 448.417 156.382 447.898 155.234L443.581 145.689L442.496 146.077L448.563 159.493C449.165 159.43 449.873 159.253 450.72 158.95C454.686 157.532 456.595 153.915 454.666 149.651C452.708 145.321 447.458 142.854 441.729 144.903C435.628 147.085 434.115 151.665 436.326 156.553Z" fill="#CDD9E7"/>
<path d="M440.316 164.075L443.385 173.07L444.323 172.817L443.427 168.854L442.95 167.457L441.255 163.822L440.316 164.075ZM441.269 166.869L442.304 169.901C443.949 169.383 447.83 168.299 450.194 167.661L455.407 166.255L460.227 164.695L460.389 164.167L457.174 159.305L456.305 159.539L457.154 162.584C455.451 163.155 453.724 163.658 451.361 164.296L449.241 164.868C446.877 165.505 442.973 166.521 441.269 166.869ZM453.31 166.784C457.123 167.057 459.442 168.181 460.951 170.378L460.451 168.801L459.954 169.791C459.387 170.8 459.144 171.535 459.435 172.387C459.853 173.614 460.769 173.962 461.985 173.634C462.889 173.055 463.073 171.815 462.62 170.486C461.806 168.101 458.838 166.297 455.071 166.16L454.862 165.546L453.31 166.784Z" fill="#CDD9E7"/>
</svg>
