<svg width="280" height="331" viewBox="0 0 280 331" fill="none" xmlns="http://www.w3.org/2000/svg">
<path d="M114.336 38.3569C116.811 25.9902 86.4388 -18.3053 49.5419 15.4221C38.7428 25.2935 43.0212 51.0676 56.0663 65.807C24.044 89.1852 -26.8617 144.171 25.6939 177.089C7.69539 226.331 33.1182 245.893 29.7435 255.786C26.3688 265.68 17.5945 329.762 91.3882 327.963C165.182 326.164 161.132 314.922 232.676 285.466C304.22 256.011 266.198 191.929 272.048 178.663C276.727 168.05 247.75 125.523 232.676 105.587L245.725 98.3916C259.149 88.2734 278.932 62.9104 250.675 42.4041C222.417 21.8979 202.979 38.3569 193.305 55.6703C155.508 30.9368 113.526 42.404 114.336 38.3569Z" fill="black"/>
<path d="M68.4402 77.0309C64.5398 74.2364 60.1293 70.3977 56.0663 65.807M56.0663 65.807C43.0212 51.0676 38.7428 25.2935 49.5419 15.4221C86.4388 -18.3053 116.811 25.9902 114.336 38.3569C113.526 42.404 155.508 30.9368 193.305 55.6703C202.979 38.3569 222.417 21.8979 250.675 42.4041C278.932 62.9104 259.149 88.2734 245.725 98.3916L232.676 105.587C247.75 125.523 276.727 168.05 272.048 178.663C266.198 191.929 304.22 256.011 232.676 285.466C161.132 314.922 165.182 326.164 91.3882 327.963C17.5945 329.762 26.3688 265.68 29.7435 255.786C33.1182 245.893 7.69539 226.331 25.6939 177.089C-26.8617 144.171 24.044 89.1852 56.0663 65.807Z" stroke="black" stroke-width="5"/>
<path d="M100.613 285.916C69.2959 251.019 59.3667 252.788 58.3168 258.035C53.1423 264.555 64.1663 287.715 99.2633 309.525C95.6636 298.732 139.01 278.346 161.133 269.502C158.958 258.934 143.81 247.422 100.613 285.916Z" fill="white" stroke="black" stroke-width="5"/>
<path d="M111.862 100.865C113.137 101.989 115.552 104.957 115.012 107.835C114.472 110.713 106.238 125.523 102.188 132.569C93.9389 152.58 83.2898 182.139 115.012 189.455C155.959 198.899 156.409 177.988 158.433 119.752C159.911 77.2556 208.379 127.172 206.129 130.77" stroke="white" stroke-width="5"/>
<ellipse cx="172.157" cy="135.042" rx="11.0241" ry="11.6922" fill="white"/>
<ellipse cx="93.6666" cy="118.573" rx="11.0241" ry="11.6922" fill="white"/>
<ellipse cx="15.5231" cy="11.018" rx="15.5231" ry="11.018" transform="matrix(0.967696 0.25212 -0.252396 0.967624 110.449 156.178)" fill="white"/>
</svg>
