<svg width="1068" height="729" viewBox="0 0 1068 729" fill="none" xmlns="http://www.w3.org/2000/svg">
<path d="M162.5 3.24129C172.5 -2.35871 274.333 90.908 324 138.241C327.2 145.841 257.333 107.741 222 87.7412L173.5 34.2412C165.667 26.2412 152.5 8.84129 162.5 3.24129Z" fill="#4467AB" stroke="black" stroke-width="5" stroke-linecap="round"/>
<path d="M78.0004 230.241L270.5 174.741L318 191.741L133.5 273.241C110 279.241 60.5004 283.941 50.5004 254.741C44.5004 249.941 66.3337 236.408 78.0004 230.241Z" fill="#4467AB" stroke="black" stroke-width="5" stroke-linecap="round"/>
<path d="M40.4997 200.742C77.9997 171.742 207.333 159.408 269.5 160.742C273.166 162.075 281.3 166.142 284.5 171.742C287.7 177.342 117.166 217.408 31.4997 236.742C20.3331 239.408 1.7863 230.68 40.4997 200.742Z" fill="#4467AB" stroke="black" stroke-width="5" stroke-linecap="round"/>
<path d="M270.5 153.242C204.834 138.575 61.9002 119.042 15.5002 158.242C-30.8998 197.442 166.167 171.242 270.5 153.242Z" fill="#4467AB" stroke="black" stroke-width="5" stroke-linecap="round"/>
<path d="M4 118.241C56 74.2414 221.667 117.241 298 144.241L289 160.741C199.5 153.075 17.2 133.841 4 118.241Z" fill="#4467AB" stroke="black" stroke-width="5" stroke-linecap="round"/>
<path d="M227.594 103.359C262.572 119.413 294.572 136.855 317.5 150.741L120 96.241C96.6667 90.5744 44.9 76.6411 24.5 66.2411C62.7585 44.9598 134.608 63.9521 201.383 91.8583L143 66.2411C122.5 60.9077 81.1 45.241 79.5 25.241C132.3 3.241 260.167 95.4077 317.5 144.241L290 130.741L227.594 103.359Z" fill="#4467AB"/>
<path d="M317.5 150.741C246.5 107.741 88.5 30.6411 24.5 66.2411C44.9 76.6411 96.6667 90.5744 120 96.241L317.5 150.741ZM317.5 144.241C260.167 95.4077 132.3 3.241 79.5 25.241C81.1 45.241 122.5 60.9077 143 66.2411L290 130.741L317.5 144.241Z" stroke="black" stroke-width="5" stroke-linecap="round"/>
<path d="M459.493 485.752C473.832 479.489 490.321 419.843 495.819 389.106L502.861 350.503L480.926 355.009C466.143 385.009 433.793 449.778 422.66 468.851C408.743 492.692 437.354 519.106 459.493 485.752Z" fill="#4467AB" stroke="black" stroke-width="5" stroke-linecap="round"/>
<path d="M412.515 484.826C429.628 481.658 462.064 418.644 475.517 385.35L492.563 343.575L467.617 342.676C444.247 372.596 393.32 437.071 376.576 455.619C355.646 478.803 380.33 516.531 412.515 484.826Z" fill="#4467AB" stroke="black" stroke-width="5" stroke-linecap="round"/>
<path d="M384.962 473.522C403.972 470.003 440.527 402.835 455.755 367.38L475.046 322.893L447.386 322.168C421.189 354.133 364.111 423.022 345.369 442.858C321.941 467.653 348.973 507.462 384.962 473.522Z" fill="#4467AB" stroke="black" stroke-width="5" stroke-linecap="round"/>
<path d="M351.589 456.291C370.74 453.644 410.326 388.216 427.158 353.494L448.46 309.934L420.862 307.947C393.233 338.681 333.067 404.891 313.438 423.85C288.902 447.549 314.087 488.551 351.589 456.291Z" fill="#4467AB" stroke="black" stroke-width="5" stroke-linecap="round"/>
<path d="M328.96 437.248C348.198 435.341 390.278 371.488 408.436 337.441L431.403 294.735L403.902 291.685C375.108 321.331 312.433 385.171 292.088 403.359C266.657 426.095 290.241 468.038 328.96 437.248Z" fill="#4467AB" stroke="black" stroke-width="5" stroke-linecap="round"/>
<path d="M299.5 422.241C319.5 422.241 369.333 360.241 391.5 326.741L419.5 284.741L391.5 278.741C358.833 306.575 287.8 366.441 265 383.241C236.5 404.241 256.5 450.241 299.5 422.241Z" fill="#4467AB" stroke="black" stroke-width="5" stroke-linecap="round"/>
<path d="M286.43 395.045C305.859 395.045 354.267 337.234 375.8 305.998L403 266.836L375.8 261.241C344.067 287.194 275.065 343.015 252.916 358.68C225.231 378.261 244.659 421.153 286.43 395.045Z" fill="#4467AB" stroke="black" stroke-width="5" stroke-linecap="round"/>
<path d="M279.43 373.045C298.859 373.045 347.267 315.234 368.8 283.998L396 244.836L368.8 239.241C337.067 265.194 268.065 321.015 245.916 336.68C218.231 356.261 237.659 399.153 279.43 373.045Z" fill="#4467AB" stroke="black" stroke-width="5" stroke-linecap="round"/>
<path d="M251.43 357.045C270.859 357.045 319.267 299.234 340.8 267.998L368 228.836L340.8 223.241C309.067 249.194 240.065 305.015 217.916 320.68C190.231 340.261 209.659 383.153 251.43 357.045Z" fill="#4467AB" stroke="black" stroke-width="5" stroke-linecap="round"/>
<path d="M217.061 342.463C236.363 344.677 291.043 292.757 315.994 264.177L347.478 228.369L321.093 219.712C286.61 241.881 211.697 289.478 187.909 302.517C158.173 318.817 172.588 363.643 217.061 342.463Z" fill="#4467AB" stroke="black" stroke-width="5" stroke-linecap="round"/>
<path d="M188.292 319.772C211.007 322.377 274.699 267.014 303.708 236.481L340.314 198.227L309.199 188.595C268.913 212.107 181.387 262.581 153.569 276.372C118.797 293.61 136.25 342.106 188.292 319.772Z" fill="#4467AB" stroke="black" stroke-width="5" stroke-linecap="round"/>
<path d="M156.857 294.644C180.677 297.376 246.605 246.808 276.56 218.836L314.364 183.794L281.653 174.418C239.795 195.713 148.844 241.411 119.907 253.843C83.7362 269.384 102.674 314.682 156.857 294.644Z" fill="#4467AB" stroke="black" stroke-width="5" stroke-linecap="round"/>
<path d="M493.5 280.241L521.5 287.741L476 395.241C455.834 388.075 413.5 365.241 405.5 331.241C383.9 337.641 382.167 320.908 384 311.741C373.167 309.075 355 295.641 369 263.241C355.5 270.741 340.5 255.741 340 255.741C339.5 255.741 286 255.741 300.5 225.741C288.5 227.341 282.167 215.741 280.5 209.741C271.5 208.075 257.3 198.341 272.5 172.741C226.001 136.241 319 133.241 319 130.241C312.5 124.241 319 108.908 319 99.7412L493.5 280.241Z" fill="#475B7F" stroke="black" stroke-width="5" stroke-linecap="round"/>
<path d="M927.706 31.2279C919.107 25.9386 831.541 114.03 788.832 158.737C786.081 165.916 846.159 129.93 876.542 111.039L918.247 60.5078C924.983 52.9517 936.305 36.5172 927.706 31.2279Z" fill="#4467AB" stroke="black" stroke-width="5" stroke-linecap="round"/>
<path d="M1000.37 245.633L834.837 193.212L793.992 209.269L952.644 286.247C972.851 291.914 1015.42 296.353 1024.02 268.773C1029.17 264.239 1010.4 251.457 1000.37 245.633Z" fill="#4467AB" stroke="black" stroke-width="5" stroke-linecap="round"/>
<path d="M1032.61 217.77C1000.37 190.379 889.153 178.73 835.696 179.989C832.543 181.249 825.55 185.09 822.798 190.379C820.046 195.668 966.688 233.512 1040.35 251.772C1049.95 254.291 1065.9 246.047 1032.61 217.77Z" fill="#4467AB" stroke="black" stroke-width="5" stroke-linecap="round"/>
<path d="M834.837 172.905C891.303 159.052 1014.21 140.603 1054.11 177.628C1094.01 214.653 924.553 189.906 834.837 172.905Z" fill="#4467AB" stroke="black" stroke-width="5" stroke-linecap="round"/>
<path d="M1064 139.848C1019.29 98.2889 876.829 138.903 811.19 164.405L818.929 179.989C895.89 172.748 1052.65 154.582 1064 139.848Z" fill="#4467AB" stroke="black" stroke-width="5" stroke-linecap="round"/>
<path d="M871.731 125.791C841.654 140.954 814.137 157.428 794.422 170.544L964.252 119.068C984.316 113.715 1028.83 100.555 1046.37 90.7323C1013.47 70.6318 951.69 88.5702 894.27 114.928L944.474 90.7323C962.102 85.6948 997.702 70.8973 999.078 52.007C953.675 31.2277 843.723 118.281 794.422 164.404L818.069 151.654L871.731 125.791Z" fill="#4467AB"/>
<path d="M794.422 170.544C855.474 129.93 991.339 57.1075 1046.37 90.7323C1028.83 100.555 984.316 113.715 964.252 119.068L794.422 170.544ZM794.422 164.404C843.722 118.281 953.675 31.2277 999.078 52.007C997.702 70.8973 962.102 85.6948 944.474 90.7323L818.069 151.654L794.422 164.404Z" stroke="black" stroke-width="5" stroke-linecap="round"/>
<path d="M672.321 486.966C659.992 481.051 645.813 424.715 641.085 395.683L635.029 359.222L653.891 363.477C666.603 391.813 694.421 452.988 703.994 471.003C715.961 493.522 691.359 518.47 672.321 486.966Z" fill="#4467AB" stroke="black" stroke-width="5" stroke-linecap="round"/>
<path d="M712.718 486.093C698.003 483.1 670.111 423.583 658.542 392.136L643.885 352.679L665.335 351.83C685.432 380.089 729.224 440.987 743.622 458.505C761.62 480.403 740.394 516.038 712.718 486.093Z" fill="#4467AB" stroke="black" stroke-width="5" stroke-linecap="round"/>
<path d="M736.411 475.415C720.064 472.091 688.63 408.65 675.535 375.162L658.947 333.143L682.732 332.459C705.259 362.65 754.34 427.716 770.457 446.452C790.602 469.871 767.358 507.472 736.411 475.415Z" fill="#4467AB" stroke="black" stroke-width="5" stroke-linecap="round"/>
<path d="M765.109 459.14C748.641 456.64 714.601 394.843 700.127 362.047L681.809 320.904L705.541 319.027C729.299 348.056 781.036 410.592 797.914 428.499C819.013 450.883 797.357 489.611 765.109 459.14Z" fill="#4467AB" stroke="black" stroke-width="5" stroke-linecap="round"/>
<path d="M784.568 441.154C768.024 439.353 731.84 379.043 716.226 346.885L696.477 306.548L720.125 303.667C744.885 331.669 798.779 391.967 816.273 409.146C838.142 430.62 817.861 470.236 784.568 441.154Z" fill="#4467AB" stroke="black" stroke-width="5" stroke-linecap="round"/>
<path d="M809.9 426.979C792.702 426.979 749.85 368.419 730.789 336.778L706.712 297.108L730.789 291.441C758.879 317.73 819.961 374.275 839.566 390.143C864.073 409.978 846.876 453.426 809.9 426.979Z" fill="#4467AB" stroke="black" stroke-width="5" stroke-linecap="round"/>
<path d="M821.138 401.293C804.432 401.293 762.805 346.69 744.289 317.186L720.9 280.197L744.289 274.913C771.576 299.426 830.911 352.15 849.957 366.946C873.763 385.44 857.057 425.952 821.138 401.293Z" fill="#4467AB" stroke="black" stroke-width="5" stroke-linecap="round"/>
<path d="M827.158 380.514C810.451 380.514 768.825 325.91 750.308 296.407L726.919 259.418L750.308 254.134C777.595 278.646 836.931 331.371 855.976 346.166C879.783 364.661 863.076 405.173 827.158 380.514Z" fill="#4467AB" stroke="black" stroke-width="5" stroke-linecap="round"/>
<path d="M851.235 365.401C834.528 365.401 792.902 310.798 774.386 281.295L750.997 244.306L774.386 239.021C801.673 263.534 861.008 316.258 880.053 331.054C903.86 349.549 887.154 390.061 851.235 365.401Z" fill="#4467AB" stroke="black" stroke-width="5" stroke-linecap="round"/>
<path d="M880.788 351.628C864.19 353.719 817.171 304.68 795.716 277.686L768.643 243.864L791.331 235.688C820.983 256.626 885.401 301.582 905.857 313.898C931.426 329.294 919.031 371.632 880.788 351.628Z" fill="#4467AB" stroke="black" stroke-width="5" stroke-linecap="round"/>
<path d="M905.528 330.197C885.995 332.657 831.226 280.366 806.282 251.526L774.804 215.395L801.56 206.297C836.202 228.506 911.465 276.178 935.386 289.204C965.286 305.486 950.278 351.291 905.528 330.197Z" fill="#4467AB" stroke="black" stroke-width="5" stroke-linecap="round"/>
<path d="M932.559 306.462C912.077 309.042 855.384 261.28 829.627 234.86L797.119 201.762L825.247 192.906C861.241 213.02 939.449 256.182 964.332 267.925C995.435 282.603 979.151 325.388 932.559 306.462Z" fill="#4467AB" stroke="black" stroke-width="5" stroke-linecap="round"/>
<path d="M643.08 292.859L619.003 299.943L658.128 401.478C675.469 394.709 711.872 373.143 718.751 341.029C737.325 347.074 738.815 331.269 737.239 322.611C746.554 320.093 762.176 307.405 750.137 276.802C761.746 283.886 774.644 269.718 775.074 269.718C775.504 269.718 821.509 269.718 809.04 241.383C819.359 242.894 824.805 231.938 826.238 226.271C833.977 224.697 846.188 215.503 833.118 191.324C873.103 156.849 793.132 154.015 793.132 151.182C798.722 145.515 793.132 131.032 793.132 122.374L643.08 292.859Z" fill="#475B7F" stroke="black" stroke-width="5" stroke-linecap="round"/>
<path d="M661.507 641.171C644.191 634.233 619.492 570.913 610.267 538.351L598.52 497.454L624.546 502.713C644.548 534.71 688.236 603.8 702.978 624.183C721.405 649.661 690.405 676.877 661.507 641.171Z" fill="#4467AB" stroke="black" stroke-width="5" stroke-linecap="round"/>
<path d="M351.5 632.5C333.9 604.5 434.5 524.167 487 487.5L501 507L417 611C402.667 629.833 369.5 660.5 351.5 632.5Z" fill="#4467AB"/>
<path d="M515 718C473 698.8 509.833 577.667 533.5 519.5C535.787 527.953 538.126 537.87 540.264 548.699C540.91 540 541.676 531.845 542.5 524.5H555C584.333 592 630.7 726.8 581.5 726C561.599 725.676 550.189 703.58 544.154 672.955C539.328 693.358 530.254 709.768 515 718Z" fill="#4467AB"/>
<path d="M487 487.5C434.5 524.167 333.9 604.5 351.5 632.5C369.5 660.5 402.667 629.833 417 611L501 507L487 487.5ZM533.5 519.5C509.833 577.667 473 698.8 515 718C565.4 690.8 548.333 574.333 533.5 519.5ZM542.5 524.5C535 591.333 532.3 725.2 581.5 726C630.7 726.8 584.333 592 555 524.5H542.5Z" stroke="black" stroke-width="5" stroke-linecap="round"/>
<path d="M412.206 654.726C430.103 652.505 468.028 593.224 484.261 561.721L504.799 522.202L479.098 520.11C452.86 547.865 395.734 607.651 377.139 624.747C353.894 646.116 376.739 683.774 412.206 654.726Z" fill="#4467AB" stroke="black" stroke-width="5" stroke-linecap="round"/>
<path d="M438.601 670.38C456.228 666.572 488.712 604.143 502.069 571.317L518.999 530.123L493.214 530.332C469.557 560.319 417.994 624.963 400.998 643.65C379.753 667.008 405.867 702.477 438.601 670.38Z" fill="#4467AB" stroke="black" stroke-width="5" stroke-linecap="round"/>
<path d="M474.24 681.933C490.939 675.124 512.099 608.005 519.558 573.36L529.084 529.854L503.726 534.533C485.631 568.169 446.066 640.78 432.57 662.132C415.699 688.822 447.571 719.222 474.24 681.933Z" fill="#4467AB" stroke="black" stroke-width="5" stroke-linecap="round"/>
<path d="M510.65 686.78C526.503 678.182 540.181 609.15 543.799 573.896L548.501 529.607L523.808 537.037C509.507 572.454 478.137 648.962 467.062 671.665C453.217 700.043 488.228 726.767 510.65 686.78Z" fill="#4467AB" stroke="black" stroke-width="5" stroke-linecap="round"/>
<path d="M645.507 655.171C628.191 648.233 603.492 584.913 594.267 552.351L582.52 511.454L608.546 516.713C628.548 548.71 672.236 617.8 686.978 638.183C705.405 663.661 674.405 690.877 645.507 655.171Z" fill="#4467AB" stroke="black" stroke-width="5" stroke-linecap="round"/>
<path d="M610.817 669.929C594.198 661.456 575.316 596.165 569.067 562.903L561.06 521.113L586.506 528.699C603.537 562.371 640.811 635.123 653.652 656.753C669.704 683.791 636.374 708.097 610.817 669.929Z" fill="#4467AB" stroke="black" stroke-width="5" stroke-linecap="round"/>
<path d="M576.178 677.789C560.514 667.197 551.06 597.066 549.68 561.692L547.785 517.233L572.577 527.828C584.885 564.764 611.96 644.618 621.803 668.545C634.107 698.453 596.5 720.315 576.178 677.789Z" fill="#4467AB" stroke="black" stroke-width="5" stroke-linecap="round"/>
<path d="M591.5 263.5C437.5 279.1 462 421.333 493.5 490.5L483 536C480.5 561.833 489.6 619.1 546 641.5C622 633.5 623 546.833 614 504.5C633 474.5 671.2 404.5 672 364.5C690 334.1 669.5 298.833 657 285C646.167 274.167 617.9 254.7 591.5 263.5Z" fill="#CDD9E7"/>
<path d="M552.001 315.5C581.601 300.7 604.667 324.667 612.501 338.5C624.167 330.833 650.9 319 664.5 333C678.1 347 656.834 383.5 644.5 400C635.167 408.167 611.5 424.2 591.5 423C576.7 426.6 554.001 406.5 544.501 396C534.667 375.333 522.401 330.3 552.001 315.5Z" fill="#003479" stroke="white" stroke-width="5" stroke-linecap="round"/>
<path d="M571.5 346.5C579.333 350.333 594.3 360.5 591.5 370.5C577.5 376.9 569.667 393.167 567.5 400.5L574.5 397.5L576.5 402.5L580.5 395.5L585.5 407L589 395.5L591.5 402.5L598.5 388.5L605 400.5L608 395.5L617.5 409L621 400.5L627.5 407L632 402.5C628.667 394.167 620.6 376.6 615 373C621 355 636 352.333 638.5 355" stroke="white" stroke-width="5" stroke-linecap="round"/>
<circle cx="579.5" cy="362.5" r="9.5" fill="white"/>
<circle cx="626" cy="365" r="7" fill="white"/>
<rect x="463" y="604.688" width="202" height="122" transform="rotate(-23.5435 463 604.688)" fill="#D9D9D9"/>
<ellipse cx="581" cy="627.5" rx="29" ry="25.5" fill="#003479"/>
</svg>
