<svg width="450" height="306" viewBox="0 0 450 306" fill="none" xmlns="http://www.w3.org/2000/svg">
<path d="M252.912 260.552C282.409 275.112 381.386 259.096 430.054 254L450 275.84C438.564 278.024 409.311 281.082 383.78 275.84C351.867 269.288 231.394 275.84 214.64 275.84C197.885 275.84 178.737 294.768 141.239 294.768C103.741 294.768 47.8932 310.056 23.9583 304.96C0.023374 299.864 0.821054 302.776 0.0232228 294.768C-0.774608 286.76 19.1712 288.216 31.1386 294.768C43.1061 301.32 66.2432 286.76 86.9869 288.216C103.582 289.381 155.068 280.451 178.737 275.84H141.239H108.528C101.348 275.597 84.4338 273.802 74.2216 268.56C64.0094 263.318 78.4767 261.037 86.9869 260.552C92.8377 265.405 111.879 273.801 141.239 268.56C177.94 262.008 224.965 275.112 252.912 260.552Z" fill="#345764"/>
<g clip-path="url(#clip0_653_1240)">
<g filter="url(#filter0_d_653_1240)">
<path d="M304.31 31.3932C292.41 45.321 292.486 73.3902 294.012 85.6839C287.375 85.6839 250.988 122.565 248.928 163.569C235.426 180.521 227.416 214.882 214.142 247.64C200.869 280.397 240.231 243.058 283.256 206.177C240.598 275.449 305.149 256.879 342.757 238.935C381.205 210.071 421.712 169.296 408.896 103.094C432.33 66.0752 416.524 34.0658 405.692 22.6884C408.286 15.2817 412.557 0.376485 408.896 0.00996544C405.234 -0.356554 391.656 9.47838 385.324 14.4417C372.508 12.2273 342.345 9.86023 324.22 18.1069C315.982 0.69725 308.887 3.67522 309.345 4.13337C309.803 4.59152 301.793 0.468179 304.31 31.3932Z" fill="#CDD9E7"/>
<path d="M304.31 31.3932C292.41 45.321 292.486 73.3902 294.012 85.6839C287.375 85.6839 250.988 122.565 248.928 163.569C235.426 180.521 227.416 214.882 214.142 247.64C200.869 280.397 240.231 243.058 283.256 206.177C240.598 275.449 305.149 256.879 342.757 238.935C381.205 210.071 421.712 169.296 408.896 103.094C432.33 66.0752 416.524 34.0658 405.692 22.6884C408.286 15.2817 412.557 0.376485 408.896 0.00996544C405.234 -0.356554 391.656 9.47838 385.324 14.4417C372.508 12.2273 342.345 9.86023 324.22 18.1069C315.982 0.69725 308.887 3.67522 309.345 4.13337C309.803 4.59152 301.793 0.468179 304.31 31.3932Z" stroke="#CDD9E7"/>
</g>
<path fill-rule="evenodd" clip-rule="evenodd" d="M310.152 258.454C309.214 257.863 308.159 257.531 307.044 257.531C303.124 257.531 299.947 261.631 299.947 266.69C299.947 268.959 300.586 271.036 301.645 272.636C299.284 271.148 297.658 268.019 297.658 264.4C297.658 259.342 300.835 255.241 304.754 255.241C306.915 255.241 308.851 256.488 310.152 258.454Z" fill="#CDD9E7"/>
<path fill-rule="evenodd" clip-rule="evenodd" d="M333.37 270.818C334.402 270.227 335.562 269.895 336.788 269.895C341.096 269.895 344.589 273.996 344.589 279.054C344.589 281.323 343.886 283.4 342.721 285C345.317 283.513 347.105 280.384 347.105 276.764C347.105 271.706 343.613 267.605 339.304 267.605C336.929 267.605 334.801 268.852 333.37 270.818Z" fill="#CDD9E7"/>
<path fill-rule="evenodd" clip-rule="evenodd" d="M359.505 259.601C359.728 258.376 360.259 257.273 361.115 256.396C364.126 253.313 370.02 254.188 374.281 258.35C376.193 260.217 377.451 262.429 377.985 264.578C378.546 261.497 377.16 257.643 374.111 254.665C369.85 250.503 363.955 249.628 360.945 252.711C359.285 254.411 358.849 256.959 359.505 259.601Z" fill="#CDD9E7"/>
<path fill-rule="evenodd" clip-rule="evenodd" d="M337.5 271.065C337.894 269.884 338.575 268.868 339.547 268.121C342.964 265.495 348.675 267.195 352.304 271.919C353.932 274.038 354.864 276.406 355.089 278.609C356.08 275.638 355.254 271.627 352.657 268.247C349.028 263.523 343.317 261.823 339.9 264.449C338.017 265.897 337.224 268.357 337.5 271.065Z" fill="#CDD9E7"/>
<path fill-rule="evenodd" clip-rule="evenodd" d="M353.524 265.025C353.822 263.873 354.395 262.811 355.252 261.934C358.262 258.851 363.635 259.217 367.253 262.751C368.877 264.336 369.871 266.291 370.202 268.242C370.952 265.345 369.963 261.879 367.374 259.35C363.756 255.816 358.382 255.451 355.372 258.534C353.712 260.234 353.118 262.627 353.524 265.025Z" fill="#CDD9E7"/>
<path fill-rule="evenodd" clip-rule="evenodd" d="M316.43 252.265C316.43 253.294 316.288 254.272 316.034 255.155C317.214 255.952 318.128 256.98 318.659 258.149C319.409 258.044 320.196 257.989 321.008 257.989C323.425 257.989 325.623 258.48 327.259 259.284C329.123 258.194 331.586 257.531 334.286 257.531C337.447 257.531 340.283 258.44 342.213 259.878C343.905 259.803 345.947 260.508 347.743 261.937C350.768 264.345 351.947 267.898 350.376 269.873C349.139 271.428 346.566 271.54 344.05 270.342C344.128 270.452 344.204 270.566 344.278 270.683C345.832 273.141 345.793 275.955 344.191 276.969C342.588 277.983 340.028 276.813 338.474 274.355C338.375 274.199 338.283 274.042 338.198 273.884C337.461 273.605 336.715 273.171 336.024 272.589C335.537 272.179 335.118 271.729 334.773 271.262C334.611 271.267 334.449 271.269 334.286 271.269C330.002 271.269 326.316 269.601 324.671 267.206C323.549 267.463 322.31 267.606 321.008 267.606C318.728 267.606 316.643 267.168 315.041 266.444C313.599 267.179 311.874 267.606 310.02 267.606C304.963 267.606 300.863 264.428 300.863 260.508C300.863 257.302 303.604 254.593 307.368 253.712C307.305 253.244 307.273 252.76 307.273 252.265C307.273 248.344 309.323 245.167 311.851 245.167C314.38 245.167 316.43 248.344 316.43 252.265Z" fill="#9BBACE"/>
<path fill-rule="evenodd" clip-rule="evenodd" d="M335.659 243.106C335.659 244.406 335.434 245.624 335.041 246.671C338.775 247.264 341.656 249.806 342.028 252.947C343.81 252.376 346.049 252.036 348.479 252.036C351.395 252.036 354.034 252.525 355.941 253.317C357.321 252.598 359.341 252.174 361.579 252.233C365.675 252.342 368.952 254.029 368.9 256.001C368.847 257.973 365.485 259.484 361.389 259.375C360.86 259.361 360.344 259.321 359.847 259.257C360.687 260.878 360.672 262.712 359.639 264.01C358.131 265.906 355.021 265.942 352.693 264.089C351.512 263.149 350.76 261.903 350.502 260.656C349.847 260.709 349.171 260.737 348.479 260.737C344.688 260.737 341.364 259.909 339.51 258.667C337.937 259.946 335.766 260.737 333.37 260.737C328.566 260.737 324.671 257.559 324.671 253.639C324.671 251.425 325.912 249.449 327.858 248.147C327.021 246.861 326.502 245.077 326.502 243.106C326.502 239.186 328.552 236.008 331.081 236.008C333.609 236.008 335.659 239.186 335.659 243.106Z" fill="#9BBACE"/>
<path d="M239.271 183.376C242.566 155.933 290.073 112.939 313.414 94.8721C320.188 110.972 342.781 110.118 353.232 107.679C352.621 118.199 347.419 142.669 331.492 156.39C311.583 173.542 272.224 224.083 211.811 259.53C205.403 263.006 217.532 237.347 224.397 224.083C224.015 221.567 226.456 209.904 239.271 183.376Z" fill="#475B7F" stroke="#CDD9E7"/>
<path d="M310.617 35.0532L342.264 65.7221L348.914 61.8313C351.207 59.3137 353.445 62.1517 378.579 35.0532C400.365 40.775 404.264 51.3032 402.888 68.4686C401.787 82.201 387.288 95.4756 379.644 100.968L352.583 71.2151H343.639L325.981 94.5601C315.891 93.0342 295.71 85.1305 295.71 65.7221C295.71 46.3137 305.648 37.1894 310.617 35.0532Z" fill="white" stroke="#CDD9E7"/>
<path d="M323.37 77.5543L332.998 70.0244L352.94 67.0581L365.776 74.1316L374.945 92.1576L363.943 75.0443L368.527 98.0902L362.567 77.5543V107.445L360.046 83.7151L355.92 106.076V83.7151L351.335 106.076L352.94 80.7487L342.854 102.426L346.293 86.6814L342.166 92.1091L341.937 98.0902L341.353 93.1788L339.874 95.1239L341.121 91.2249L339.874 80.7487L337.353 96.7212V80.7487L335.061 101.057L332.998 86.6814L327.038 98.0902L332.998 80.7487L321.995 92.1576L329.559 80.7487L321.995 86.6814L331.622 75.0443L323.37 77.5543Z" fill="#003479"/>
<ellipse cx="371.517" cy="60.3905" rx="10.2852" ry="9.33482" fill="black"/>
<ellipse cx="321.804" cy="61.9148" rx="7.80917" ry="7.81077" fill="black"/>
</g>
<defs>
<filter id="filter0_d_653_1240" x="207.024" y="-0.5" width="218.515" height="269.232" filterUnits="userSpaceOnUse" color-interpolation-filters="sRGB">
<feFlood flood-opacity="0" result="BackgroundImageFix"/>
<feColorMatrix in="SourceAlpha" type="matrix" values="0 0 0 0 0 0 0 0 0 0 0 0 0 0 0 0 0 0 127 0" result="hardAlpha"/>
<feOffset dy="4"/>
<feGaussianBlur stdDeviation="2"/>
<feComposite in2="hardAlpha" operator="out"/>
<feColorMatrix type="matrix" values="0 0 0 0 0 0 0 0 0 0 0 0 0 0 0 0 0 0 0.25 0"/>
<feBlend mode="normal" in2="BackgroundImageFix" result="effect1_dropShadow_653_1240"/>
<feBlend mode="normal" in="SourceGraphic" in2="effect1_dropShadow_653_1240" result="shape"/>
</filter>
<clipPath id="clip0_653_1240">
<rect width="211.038" height="285" fill="white" transform="translate(210)"/>
</clipPath>
</defs>
</svg>
