<svg width="695" height="813" viewBox="0 0 695 813" fill="none" xmlns="http://www.w3.org/2000/svg">
<path d="M209.353 159.895L228.464 121.672C227.711 90.7885 234.796 71.9641 247.576 60.7402C248.55 59.8849 249.557 59.0737 250.596 58.3047C272.857 40.7579 323.519 8.97951 371.166 5.08997C433.597 -0.00650287 497.94 3.81585 520.237 21.0164C562.538 19.9971 579.909 30.3598 583.306 35.6686C590.314 39.9156 604.584 62.0428 605.603 116.575C633.124 181.3 638.73 222.114 638.093 234.431C651.471 234.856 677.464 264.245 674.406 378.406C711.1 508.366 682.9 610.508 664.213 645.334C662.174 742.677 645.95 781.877 638.093 789.309C608.789 799.502 545.21 816.83 525.334 804.599C419.582 825.622 423.404 777.205 316.379 795.68C187.947 790.583 145.222 782.089 139.913 778.479C132.481 777.205 116.852 770.707 113.794 754.908C25.1151 694.26 4.6443 649.793 5.49371 635.141C2.30837 622.825 -0.367367 592.713 14.4124 570.798C-10.5603 511.169 11.227 417.692 25.2423 378.406C46.4778 331.264 99.1416 230.609 139.913 205.126C190.878 173.273 178.137 175.185 209.353 159.895Z" fill="#9BBACE"/>
<path d="M209.353 159.895L228.464 121.672C227.711 90.7885 234.796 71.9641 247.576 60.7402M209.353 159.895C178.137 175.185 190.878 173.273 139.913 205.126C99.1416 230.609 46.4778 331.264 25.2423 378.406C11.227 417.692 -10.5603 511.169 14.4124 570.798C-0.367367 592.713 2.30837 622.825 5.49371 635.141C4.6443 649.793 25.1151 694.26 113.794 754.908C116.852 770.707 132.481 777.205 139.913 778.479C145.222 782.089 187.947 790.583 316.379 795.68C423.404 777.205 419.582 825.622 525.334 804.599C545.21 816.83 608.789 799.502 638.093 789.309C645.95 781.877 662.174 742.677 664.213 645.334C682.9 610.508 711.1 508.366 674.406 378.406C677.464 264.245 651.472 234.856 638.093 234.431C638.73 222.114 633.124 181.3 605.603 116.575C604.584 62.0428 590.314 39.9156 583.306 35.6686C579.909 30.3598 562.538 19.9971 520.237 21.0164C497.94 3.81585 433.597 -0.00650281 371.166 5.08997C321.22 9.16715 267.962 43.8889 247.576 60.7402M209.353 159.895C202.982 186.592 194.063 243.044 209.353 255.275M355.876 47.7731C309.955 44.752 269.999 41.048 247.576 60.7402M209.353 255.275C224.642 309.298 274.794 353.807 297.958 369.309M209.353 255.275C166.651 301.144 128.275 426.644 316.379 561.701C363.539 614.636 455.312 727.387 445.119 754.908" stroke="white" stroke-width="5"/>
<path d="M675.734 383.324C665.966 425.795 640.823 512.902 618.399 521.566C641.842 584.253 623.07 667.028 610.754 700.58" stroke="white" stroke-width="5"/>
<path d="M371.802 413.445C363.648 378.28 317.015 318.099 294.718 292.404C387.517 317.25 582.542 345.408 620.255 259.277C603.692 326.805 636.819 292.404 594.136 452.306C549.287 472.182 527.457 613.057 522.148 681.01C514.928 642.362 488.257 557.421 439.331 526.842C378.173 488.618 381.995 457.403 371.802 413.445Z" fill="white"/>
<path d="M231.649 716.048C259.043 729.214 322.494 755.8 357.15 756.82C400.47 758.094 545.719 756.82 566.105 751.723C583.076 747.481 606.877 743.442 609.425 772.109C611.464 795.043 596.684 802.476 589.039 803.325" stroke="white" stroke-width="5"/>
<path d="M480.488 144.526C480.488 151.167 472.558 156.55 462.776 156.55C452.994 156.55 445.064 151.167 445.064 144.526C445.064 137.885 452.994 132.502 462.776 132.502C472.558 132.502 480.488 137.885 480.488 144.526Z" fill="#475B7F"/>
<path d="M462.114 159.81C462.737 160.173 463.507 160.173 464.13 159.81L471.574 155.468C473.338 154.439 472.608 151.74 470.567 151.74H455.677C453.636 151.74 452.906 154.439 454.67 155.468L462.114 159.81Z" fill="#475B7F"/>
<path d="M244.391 63.0613C252.545 38.5982 322.537 42.6754 356.513 47.7719C321.857 95.6789 279.642 131.014 262.866 142.693C253.31 126.342 236.237 87.5243 244.391 63.0613Z" fill="white"/>
<path d="M519.601 20.3794C507.369 46.881 570.565 94.2782 603.692 114.664C603.692 70.0699 596.048 48.41 582.669 33.7576C571.967 22.0357 536.164 19.9547 519.601 20.3794Z" fill="white"/>
<path d="M373.714 64.9738C390.914 62.2132 426.717 67.6494 432.323 111.479C413.976 126.768 415.728 134.01 413.212 134.413C397.285 136.961 364.668 141.548 376.899 170.088C389.131 198.629 412.999 197.694 423.404 193.659L462.957 178.829C470.602 184.987 487.493 193.659 496.666 193.659C508.133 193.659 534.945 187.11 534.307 161.628C533.798 141.242 525.334 144.852 521.512 143.153C506.859 135.296 470.037 113.135 467.999 101.923C473.605 58.603 506.01 62.213 521.512 69.433" stroke="white" stroke-width="5"/>
<ellipse cx="12.2574" cy="15.2894" rx="12.2574" ry="15.2894" transform="matrix(-0.824713 0.565552 0.565552 0.824713 609.291 705.355)" fill="#475B7F"/>
<ellipse cx="14.3892" cy="15.2894" rx="14.3892" ry="15.2894" transform="matrix(-0.824713 0.565552 0.565552 0.824713 588.107 712.156)" fill="#475B7F"/>
<ellipse cx="14.9221" cy="18.4747" rx="14.9221" ry="18.4747" transform="matrix(-0.824713 0.565552 0.565552 0.824713 560.525 717.167)" fill="#475B7F"/>
<ellipse cx="39.7719" cy="20.6884" rx="39.7719" ry="20.6884" transform="matrix(-0.977578 0.210576 0.316278 0.948666 612.24 688.924)" fill="#475B7F"/>
<ellipse cx="462.349" cy="763.375" rx="14.6524" ry="15.2894" fill="#475B7F"/>
<ellipse cx="490.38" cy="757.005" rx="17.2006" ry="15.2894" fill="#475B7F"/>
<ellipse cx="521.596" cy="748.722" rx="17.8377" ry="18.4747" fill="#475B7F"/>
<ellipse cx="484.492" cy="741.008" rx="46.5053" ry="21.0229" transform="rotate(-18.9232 484.492 741.008)" fill="#475B7F"/>
<path d="M324.165 194.844C334.867 169.871 361.876 157.172 371.857 155.686C378.482 211.747 433.652 196.882 460.408 181.805L494.896 194.844C503.815 194.844 534.944 192.38 534.944 155.686C548.195 147.531 573.467 188.048 591.092 212.681L564.973 224.785L575.166 245.808H540.765V280.209H494.896L488.526 292.951L446.48 245.808L431.191 280.209L411.442 301.232L397.426 280.209L379.589 301.232L359.203 280.209H329.898L340.091 259.824H296.134L329.898 230.519H296.134C292.736 225.21 293.586 210.643 324.165 194.844Z" fill="white"/>
<path fill-rule="evenodd" clip-rule="evenodd" d="M488.653 106.955C493.124 112.989 501.909 115 509.578 111.342C517.233 107.69 521.197 99.6206 519.346 92.3598L488.653 106.955Z" fill="white"/>
<path fill-rule="evenodd" clip-rule="evenodd" d="M379.522 94C377.687 101.282 381.698 109.352 389.387 112.967C397.063 116.575 405.818 114.53 410.262 108.497L379.522 94Z" fill="white"/>
</svg>
