<svg width="182" height="171" viewBox="0 0 182 171" fill="none" xmlns="http://www.w3.org/2000/svg">
<path d="M128.345 0.0813751C126.421 0.354034 124.754 0.883789 122.931 1.81085C121.887 2.34061 121.544 2.47305 121.1 2.54317C120.804 2.58212 120.469 2.63664 120.376 2.66002C120.08 2.72235 120.243 2.56653 120.835 2.21596C121.903 1.60051 122.869 1.21878 125.736 0.291718C126.148 0.159286 122.931 0.237183 121.918 0.385208C120.158 0.650085 118.498 1.16425 117.018 1.90434C116.169 2.32503 114.876 3.11966 114.393 3.51697C114.12 3.73511 113.886 3.8208 112.951 4.04672C112.336 4.19475 111.759 4.34276 111.674 4.37392C111.533 4.42845 111.526 4.42067 111.627 4.29602C111.822 4.05452 113.247 3.15862 114.19 2.6756L115.102 2.20818L114.447 2.25491C111.705 2.47305 109.134 3.53255 106.805 5.41005C106.275 5.83853 105.807 6.15015 105.48 6.28259C105.2 6.39165 104.958 6.46956 104.935 6.45398C104.912 6.4306 105.106 6.22026 105.363 5.98656C106.664 4.8024 107.708 4.0701 109.181 3.29884C109.656 3.04955 110.007 2.84698 109.975 2.84698C109.804 2.84698 108.612 3.18977 107.662 3.50919C105.496 4.24928 104.117 5.07506 101.78 7.03047C99.7153 8.75217 99.0843 9.18065 97.573 9.87399L97.1055 10.0921L97.9547 9.27412C98.9285 8.32368 100.65 6.9214 102.364 5.69051C103.011 5.21529 103.603 4.78682 103.681 4.73228C103.891 4.5609 101.702 5.71388 100.339 6.49294C97.8534 7.9108 95.9681 9.27412 94.3789 10.8089C93.5687 11.5801 92.5403 12.7876 92.1742 13.3719C92.0807 13.5277 91.6288 13.964 91.1692 14.3457C89.9773 15.3351 89.9851 15.3273 90.211 14.9612C91.473 12.8577 93.257 10.6608 94.8074 9.27412L95.3137 8.82228L94.9242 9.04042C93.4674 9.85062 91.4107 11.5801 89.7202 13.4187C86.9468 16.4491 84.7577 19.6432 82.997 23.2424C82.6309 23.9903 82.3192 24.5824 82.2959 24.5668C82.2413 24.5123 82.6854 23.071 83.0827 22.0116C83.6514 20.4924 84.0098 19.6822 85.0771 17.5554C85.6302 16.4491 86.082 15.5221 86.082 15.4987C86.082 15.4364 84.6174 17.5242 83.7449 18.8175C82.2024 21.1156 80.9481 23.593 80.1535 25.8912C79.8574 26.7482 79.3744 28.6257 79.2654 29.319C79.1563 30.0046 79.1407 29.5449 79.2186 28.3062C79.5069 24.0838 80.6209 20.6716 82.7321 17.4931C83.4878 16.3557 83.4255 16.3946 82.2725 17.8203C80.1223 20.4457 78.5798 23.7722 77.8319 27.4025C77.7073 28.018 77.5748 28.7191 77.5515 28.9762C77.5125 29.2878 77.3957 29.615 77.1619 30.0279C76.6556 30.9472 75.9155 32.9104 75.5805 34.2426C75.1676 35.8396 75.0196 37.125 75.0196 38.9558C75.0196 42.6874 75.7519 45.6946 78.3305 52.6281C79.2887 55.1911 80.021 57.3102 79.9743 57.3569C79.9353 57.4036 78.6343 54.5445 76.8971 50.5792C73.664 43.225 72.1137 40.0621 70.727 37.9976L70.3453 37.4367V36.3226C70.3453 32.5365 69.5584 29.28 68.1406 27.2C67.6498 26.4755 66.7149 25.5484 65.9826 25.0576C63.8948 23.6631 61.0357 23.258 57.6079 23.8813L56.7665 24.0293L56.3458 23.6553C55.6369 23.0243 54.6475 22.6348 53.7438 22.6348C52.77 22.6348 51.3599 23.1801 50.2848 23.9747C49.9888 24.1929 49.3032 24.8161 48.7657 25.3537C47.0284 27.0987 45.6183 29.1866 44.107 32.2249L43.1955 34.0634L42.4944 34.1647C39.0276 34.6321 35.5219 35.7929 32.4447 37.499C29.2038 39.2908 26.5005 41.3786 23.3688 44.5182C19.8786 48.0161 16.9962 51.6854 12.2518 58.6657C11.4338 59.8654 10.569 61.1742 10.3275 61.5793C8.3799 64.7968 7.73329 67.5001 8.49675 69.2841C8.99534 70.4449 10.1094 71.2161 11.4883 71.3642C11.9168 71.4109 12.4309 71.3252 12.8594 71.1382C12.9529 71.0993 13.0542 71.2084 13.2801 71.5667C13.9267 72.6106 15.0407 73.6935 16.4197 74.6206C16.778 74.8621 17.113 75.0724 17.152 75.0802C17.1987 75.0958 16.6767 75.6723 15.9912 76.3501C15.2121 77.1369 14.4954 77.9393 14.0591 78.5314C13.6774 79.0456 13.3502 79.4974 13.3191 79.5286C13.2879 79.5597 12.8828 79.4585 12.4154 79.2949C11.6675 79.0456 11.4727 79.0066 10.8261 79.0144C9.63416 79.0144 9.01092 79.3182 7.32039 80.7205C5.88695 81.9125 5.63765 82.0761 5.24034 82.0761C4.66384 82.0761 3.81468 82.302 3.07459 82.6603C1.85927 83.2446 0.854303 84.3431 0.46478 85.5039C0.215485 86.244 0.285599 87.1399 0.62838 87.6073C0.698494 87.7086 0.651751 87.8332 0.402456 88.2227C-0.119505 89.0329 -0.135086 89.6873 0.363504 90.4041C0.994532 91.3078 2.78634 92.3673 5.10011 93.1931C5.40394 93.3021 5.68439 93.4268 5.73893 93.4813C5.78567 93.528 5.93369 93.8397 6.05834 94.1669C6.51018 95.3043 7.20354 96.1924 7.85014 96.465C8.24746 96.6287 8.91744 96.6131 9.46277 96.4183C9.88346 96.2703 9.9302 96.2703 9.99252 96.3794C10.0315 96.4495 10.2808 96.7689 10.5456 97.0961C11.6285 98.436 13.2723 99.48 14.8148 99.8072C15.625 99.9786 17.0039 99.924 17.6817 99.6825C18.6088 99.3631 19.4502 98.7788 20.0734 98.0309C20.2214 97.844 20.3772 97.6882 20.4162 97.6726C20.5798 97.6103 21.7094 99.6747 21.9353 100.438C22.06 100.851 22.0755 100.874 22.1379 100.695C22.1846 100.586 22.2313 100.212 22.2547 99.8617L22.3015 99.2229L22.5975 99.5968C23.0493 100.158 23.6804 101.272 24.1089 102.23C24.3114 102.69 24.5062 103.103 24.5451 103.149C24.5841 103.188 24.6152 102.713 24.6152 102.035C24.6152 101.381 24.6308 100.851 24.6542 100.851C24.7399 100.851 28.6195 104.092 28.8455 104.357C29.531 105.159 30.1075 106.53 30.3724 107.972L30.5126 108.758L30.6451 108.33C30.8009 107.808 31.0034 106.694 31.0034 106.336C31.0034 106.188 31.0268 106.071 31.0502 106.071C31.0735 106.071 31.6734 106.523 32.3901 107.076C37.2046 110.792 41.279 113.37 44.8315 114.96C46.9427 115.91 49.6071 116.705 51.2041 116.868C51.4924 116.899 51.7416 116.946 51.765 116.977C51.8195 117.071 51.5936 117.819 51.3521 118.333C50.6354 119.86 49.4512 120.912 47.8308 121.465L47.3244 121.636L47.7062 121.691C48.493 121.815 49.9576 121.589 50.8224 121.223C50.947 121.169 50.9548 121.184 50.9081 121.348C50.8146 121.691 49.794 122.485 48.7423 123.038L48.2983 123.28L48.6566 123.334C48.8592 123.366 49.3811 123.366 49.8252 123.342L50.6276 123.303L50.4874 123.591C50.2303 124.082 49.7005 124.682 49.202 125.04C48.7034 125.391 47.6516 125.936 47.4413 125.944C47.1531 125.952 47.7607 126.1 48.3528 126.162C48.9527 126.225 49.942 126.17 50.4017 126.053L50.5964 126.007L50.7211 127.549C50.8146 128.632 50.8224 129.146 50.7678 129.286C50.7289 129.395 50.6666 129.917 50.6354 130.455C50.5653 131.569 50.3549 132.66 49.9654 133.89C49.5525 135.199 49.2487 135.861 48.493 137.124C48.4151 137.248 48.6878 137.014 49.0929 136.602C49.7395 135.947 50.3082 135.191 51.0093 134.038L51.1807 133.766V134.467C51.1807 135.659 50.8691 137.388 50.4796 138.425C50.3939 138.643 50.3394 138.837 50.3549 138.853C50.4173 138.908 51.4846 137.458 51.8195 136.874L52.1545 136.29L52.287 137.014C52.622 138.822 52.6298 140.692 52.3026 141.93C52.1779 142.413 51.8273 143.177 51.5547 143.566C51.469 143.691 51.4144 143.8 51.43 143.823C51.5001 143.886 52.3805 143.192 52.731 142.795C52.918 142.585 53.2296 142.18 53.4244 141.883C53.6191 141.595 53.7827 141.362 53.7983 141.362C53.8061 141.362 53.9619 141.806 54.1489 142.351C54.3281 142.904 54.6864 143.925 54.9435 144.634L55.4032 145.919L55.3564 148.949C55.333 150.624 55.3408 151.957 55.3798 151.91C55.411 151.871 55.6992 151.224 56.0108 150.476C56.3147 149.728 56.5873 149.097 56.6029 149.082C56.6185 149.066 56.6652 149.152 56.712 149.277C57.53 151.435 59.8905 156.717 61.7758 160.581C62.4535 161.96 62.7418 162.63 62.6717 162.653C62.6171 162.676 62.2666 162.715 61.8848 162.746C60.9656 162.816 59.3919 162.7 55.8161 162.279C54.1879 162.084 52.1234 161.858 51.2275 161.773L49.5993 161.617L48.8436 160.884C46.8492 158.945 45.7897 158.828 44.0602 160.331C43.6941 160.651 43.3513 160.916 43.2968 160.916C43.2422 160.916 42.7904 160.736 42.2996 160.518C39.7599 159.396 38.9575 159.124 38.1473 159.124C37.5474 159.124 36.8696 159.396 36.262 159.887C34.3455 161.438 31.5487 164.079 30.4815 165.356C29.1571 166.953 28.6896 168.083 29.1337 168.652C29.7102 169.376 32.1642 169.049 34.5792 167.911C35.7089 167.382 36.4178 167.156 37.4383 166.992C37.9759 166.906 38.5446 166.766 38.7004 166.688C39.0198 166.525 39.4327 166.112 39.7833 165.613L40.017 165.286L40.0559 165.847C40.0949 166.509 40.3598 167.093 40.8038 167.561C41.4037 168.184 41.9568 168.371 42.6735 168.192C43.9434 167.88 46.6934 167.95 60.1787 168.667C61.3785 168.729 63.3417 168.807 64.5414 168.831C66.5202 168.877 66.7773 168.893 67.307 169.057C69.8155 169.828 74.5599 170.326 81.0806 170.506C86.5339 170.654 92.8675 170.373 94.3945 169.914C94.6204 169.843 94.932 169.82 95.267 169.851C95.8513 169.898 97.6431 169.766 98.6247 169.602C98.9908 169.54 99.8634 169.423 100.572 169.329C104.475 168.846 108.191 168.036 111.791 166.875C112.554 166.626 113.177 166.486 114.05 166.369C117.166 165.94 119.269 165.418 120.734 164.717C121.092 164.546 121.365 164.39 121.357 164.382C121.342 164.367 121.053 164.421 120.711 164.507C119.947 164.686 118.779 164.811 117.875 164.811L117.205 164.803L118.568 164.117C119.316 163.736 120.072 163.354 120.243 163.268C120.415 163.175 121.295 162.871 122.191 162.583C125.362 161.586 127.379 160.596 129.085 159.225C129.701 158.726 130.714 157.706 131.025 157.27C131.189 157.036 131.119 157.067 130.519 157.511C129.755 158.088 128.657 158.68 127.722 159.038C127.013 159.319 125.969 159.622 125.922 159.568C125.899 159.552 126.141 159.326 126.452 159.077C126.764 158.828 127.372 158.321 127.8 157.947C128.322 157.496 128.727 157.207 129.008 157.098C129.74 156.81 131.01 156.117 131.672 155.641C132.84 154.8 134.079 153.445 134.959 152.019C135.294 151.489 135.31 151.481 134.344 152.214C133.721 152.697 132.357 153.538 132.295 153.476C132.28 153.46 132.435 153.242 132.653 152.993C133.222 152.331 134.149 151.123 134.734 150.282C135.014 149.877 135.349 149.479 135.466 149.393C135.731 149.207 138.691 145.864 139.423 144.93C140.491 143.558 141.145 142.343 141.464 141.097C141.558 140.754 141.612 140.466 141.597 140.45C141.581 140.434 141.472 140.59 141.355 140.793C140.849 141.658 140.031 142.538 139.073 143.239L138.746 143.481L139.026 142.873C139.182 142.53 139.517 141.767 139.774 141.167C140.117 140.372 140.405 139.85 140.841 139.243C142.111 137.451 143.724 134.545 144.744 132.208C145.157 131.265 145.835 129.551 145.835 129.465C145.835 129.434 145.554 129.832 145.212 130.33C144.253 131.725 142.337 134.233 142.275 134.163C142.205 134.101 142.649 132.699 142.812 132.434C143.225 131.779 144.129 129.98 144.472 129.13C145.001 127.829 145.321 126.575 145.679 124.417C145.851 123.366 146.084 122.08 146.186 121.558C146.295 121.036 146.372 120.6 146.357 120.584C146.341 120.577 145.921 121.41 145.414 122.446C144.059 125.251 144.043 125.29 144.082 125.079C144.176 124.596 144.363 122.633 144.479 121.067L144.596 119.353L144.939 118.652C145.749 116.993 146.201 114.843 146.334 111.991C146.388 110.87 146.466 110.792 145.702 112.732C145.461 113.331 145.134 114.087 144.97 114.407L144.666 114.991L144.698 113.666C144.713 112.934 144.783 111.921 144.846 111.399C145.313 107.816 145.134 103.157 144.277 96.4105L143.981 94.1123L143.973 95.5146C143.95 98.4906 143.755 103.944 143.677 103.866C143.661 103.85 143.42 102.651 143.147 101.202C142.867 99.7604 142.493 97.9063 142.321 97.0805C142.01 95.6081 142.01 95.5847 142.111 94.9303C142.267 93.9332 142.244 90.334 142.072 88.994C141.807 86.8594 141.207 84.1639 140.421 81.5697C139.603 78.8975 139.384 78.0406 139.33 77.4407C139.252 76.4591 139.104 75.5788 138.629 73.2728C138.387 72.0965 138.169 70.8344 138.146 70.4838C138.068 69.3854 137.881 70.1411 137.694 72.2912C137.632 73.0157 137.569 73.6156 137.554 73.639C137.468 73.7247 136.899 68.9024 136.868 67.7961L136.853 67.2742L137.756 65.459C138.263 64.4462 138.948 63.2075 139.322 62.6388C139.688 62.0857 139.992 61.6183 139.992 61.6027C139.992 61.5482 138.489 62.6311 137.725 63.2387C137.258 63.6126 136.876 63.8697 136.876 63.823C136.876 63.5659 137.055 62.3506 137.156 61.8987C137.265 61.4235 137.297 61.3768 137.624 61.1742C137.819 61.0574 138.091 60.9639 138.231 60.9639C138.543 60.9639 138.855 60.7458 139.774 59.8888L140.452 59.2578L140.997 59.6629C141.799 60.2627 142.664 60.7613 143.685 61.1976C144.183 61.4157 144.612 61.5871 144.635 61.5871C144.666 61.5871 144.261 61.182 143.739 60.6834C143.217 60.1848 142.571 59.4837 142.306 59.1253C141.69 58.3073 141.098 57.2245 141.262 57.2245C141.332 57.2245 141.574 57.5984 141.862 58.1359C142.649 59.6395 143.217 60.2472 144.433 60.8782C145.033 61.1898 146.209 61.6261 146.279 61.5638C146.295 61.5404 146.201 61.4469 146.069 61.3534C145.173 60.7146 144.355 59.7953 144.051 59.102C143.887 58.7047 143.693 57.8633 143.755 57.801C143.77 57.7776 143.926 57.8321 144.105 57.9022C144.604 58.1204 145.383 59.0864 147.432 62.0156C149.013 64.2748 149.676 65.124 150.657 66.129C151.615 67.1106 151.771 67.2041 151.358 66.5185C150.953 65.8563 150.291 64.5319 150.003 63.8074C149.676 62.9894 148.803 60.5354 148.834 60.512C148.842 60.5042 149.06 60.6211 149.317 60.7769C149.699 61.0184 149.792 61.1197 149.878 61.3846C150.05 61.9455 151.039 63.9243 151.475 64.5787C152.761 66.5107 154.412 67.7572 156.788 68.5985C157.419 68.8167 159.538 69.3776 159.733 69.3776C159.78 69.3776 159.398 69.1517 158.876 68.879C156.726 67.7494 155.37 66.6431 154.514 65.3188C154.171 64.789 153.75 63.9243 153.812 63.8619C153.836 63.8464 154.319 64.158 154.887 64.5475C155.682 65.1006 156.025 65.3967 156.352 65.8096C156.944 66.5497 159.196 68.7621 160.091 69.4711C161.439 70.5462 163.223 71.629 163.987 71.8238C164.174 71.8783 164.174 71.8705 163.948 71.6992C163.27 71.1928 161.346 69.1049 161.455 69.0037C161.525 68.9335 162.771 69.7749 163.621 70.4683C165.49 71.9796 166.191 72.486 166.97 72.8677C167.679 73.2183 169.479 73.8961 169.697 73.8961C169.744 73.8961 169.518 73.6468 169.199 73.3429C168.879 73.0391 168.692 72.8132 168.778 72.8444C168.864 72.8755 169.323 73.0157 169.791 73.1638C170.266 73.3196 171.123 73.5922 171.699 73.7792C172.276 73.9662 173.024 74.1765 173.351 74.2388C173.997 74.3713 175.517 74.4102 175.517 74.2934C175.517 74.2544 175.361 74.1298 175.166 74.0207C174.971 73.9039 174.815 73.787 174.815 73.7558C174.815 73.7247 175.041 73.639 175.314 73.5611C175.922 73.3819 176.584 73.0547 177.012 72.7119L177.332 72.4626L177.285 72.6885C177.254 72.821 177.215 73.0079 177.184 73.117C177.114 73.4131 178.017 72.4548 178.485 71.7381C178.882 71.1227 179.295 70.1488 179.435 69.4789C179.482 69.2529 179.552 69.066 179.591 69.066C179.63 69.066 179.646 69.7515 179.63 70.6163C179.614 71.5745 179.63 72.1198 179.677 72.0419C179.84 71.7537 180.269 70.3514 180.417 69.6191C180.744 68.061 180.837 66.8379 180.783 64.8981C180.76 63.8697 180.689 62.8102 180.619 62.4051C180.479 61.5715 180.386 60.3796 180.495 60.8081C180.635 61.3456 180.97 63.675 181.056 64.7423C181.157 66.0043 181.102 67.6325 180.931 68.357C180.861 68.6297 180.822 68.8712 180.845 68.8868C180.884 68.9335 181.258 67.874 181.391 67.3131C181.897 65.2253 181.967 61.3223 181.554 57.6919C181.492 57.1544 181.398 56.3519 181.352 55.9001C181.266 55.1366 181.274 54.973 181.469 53.6019C181.952 50.2053 181.796 48.1486 180.876 46.0218C180.705 45.6011 180.557 45.157 180.565 45.0324C180.565 44.8999 180.596 44.4091 180.619 43.9417C180.682 42.9367 180.557 42.1187 180.183 41.0359C179.7 39.6725 178.563 37.7093 177.379 36.2292C177.129 35.9097 176.942 35.6449 176.966 35.6449C177.114 35.6449 178.15 36.5953 178.563 37.1017C179.116 37.795 179.435 38.4027 179.731 39.3064C179.918 39.8751 179.949 39.9374 179.996 39.7582C180.09 39.3921 179.887 37.9119 179.646 37.1874C179.357 36.3382 179.124 35.8708 178.57 35.0216C177.994 34.1491 176.35 32.5053 174.878 31.3289L173.733 30.4175L173.234 29.506C172.961 29.0074 172.743 28.5789 172.759 28.5633C172.79 28.5244 174.27 29.5995 175.205 30.3396C175.61 30.659 176.296 31.2744 176.716 31.7029L177.495 32.4897L177.223 31.9989C176.864 31.3367 175.735 29.8332 174.66 28.5945C174.177 28.0336 172.681 26.4755 171.325 25.1277C169.978 23.78 168.716 22.4634 168.513 22.2063C168.194 21.7934 167.134 20.5158 166.682 19.9938L166.519 19.8068L166.752 19.9393C167.267 20.2353 168.848 21.3883 169.65 22.0427C170.577 22.8062 173.592 25.7977 174.27 26.6235C174.504 26.9117 174.706 27.1299 174.73 27.1143C174.761 27.0753 173.709 25.3381 173 24.2708C171.162 21.513 168.98 19.0122 166.916 17.2983C166.464 16.9166 166.09 16.5972 166.09 16.5894C166.09 16.5426 167.446 16.9945 168.131 17.2672C169.721 17.8982 172.081 19.1992 174.075 20.5314C175.221 21.3026 175.283 21.3104 174.527 20.5937C170.492 16.7686 167.952 15.1014 164.384 13.9095C163.371 13.5745 162.849 13.4342 161.065 13.0213L160.598 12.9123L161.104 12.9512C163.348 13.1148 166.589 13.7147 168.318 14.299C169.004 14.5249 168.684 14.3224 167.181 13.5667C164.072 12.0008 160.021 10.6998 155.737 9.89737C155.37 9.83504 155.067 9.76492 155.043 9.74934C154.973 9.67145 156.523 9.58574 157.832 9.59354C159.725 9.60133 161.221 9.76492 163.901 10.2557C164.602 10.3804 165.21 10.4739 165.249 10.4661C165.366 10.4271 162.662 9.35204 161.229 8.86902C158.23 7.85626 156.578 7.56801 152.909 7.4122C150.984 7.3343 150.338 7.28755 150.174 7.19408L149.948 7.08501L150.486 6.99152C151.709 6.78117 154.085 6.58641 155.573 6.58641C156.15 6.58641 156.422 6.55525 156.352 6.50851C156.204 6.4306 154.35 5.95538 153.111 5.69051C151.218 5.27762 150.369 5.17635 147.783 5.06728C145.96 4.98936 145.134 4.91925 144.838 4.83356C144.612 4.76344 144.448 4.67775 144.464 4.64659C144.526 4.5531 145.297 4.35056 146.186 4.19475C146.832 4.08568 147.502 4.0623 150.182 4.0623C151.95 4.05452 153.329 4.03114 153.259 3.99998C153.181 3.96881 152.433 3.78185 151.6 3.59488C147.214 2.58212 145.843 2.44968 143.03 2.76909C142.282 2.85478 141.122 2.94827 140.452 2.97163C139.345 3.01839 139.166 3.01059 138.504 2.84698C138.099 2.75351 137.741 2.64444 137.709 2.61328C137.647 2.55875 139.299 2.1848 140.732 1.92772L141.511 1.78749L141.129 1.73296C140.07 1.58493 137.359 1.51482 135.848 1.60051C134.991 1.64726 134.243 1.70958 134.204 1.73296C134.157 1.76411 133.082 1.78749 131.82 1.79527C130.55 1.80307 129.132 1.83423 128.657 1.86539C127.66 1.9355 127.668 1.90434 128.828 1.4447C129.88 1.03181 131.298 0.642288 132.552 0.439743C133.113 0.346252 133.651 0.24498 133.76 0.221603C134.515 0.0346375 129.568 -0.0900116 128.345 0.0813751ZM77.3411 30.8226C77.2476 31.5549 77.2165 35.4657 77.271 39.0337C77.2866 40.0153 77.271 41.5423 77.2321 42.4226L77.1619 44.0196L76.8659 43.0146C75.5805 38.6987 75.6818 34.7879 77.1697 30.5966C77.2866 30.285 77.3879 30.0435 77.4035 30.0591C77.419 30.0747 77.3879 30.4175 77.3411 30.8226ZM178.828 41.4566C179.536 42.3836 179.988 43.3574 180.152 44.2533C180.206 44.5494 180.199 44.5416 179.817 43.9807C179.599 43.6613 179.116 43.0302 178.734 42.5862C178.072 41.8149 178.041 41.7604 177.838 41.0281C177.721 40.6152 177.62 40.249 177.62 40.2023C177.62 40.0776 178.391 40.8801 178.828 41.4566ZM180.152 49.3639C180.362 49.9871 180.619 51.1401 180.689 51.7711C180.721 52.0282 180.627 51.7478 180.464 51.0778C180.316 50.4701 180.105 49.6755 179.996 49.3171C179.685 48.3044 179.801 48.3355 180.152 49.3639ZM139.704 58.5722L140.163 58.9851L139.416 59.1643C138.691 59.3357 138.278 59.3357 138.278 59.1643C138.278 59.0786 139.127 58.1593 139.205 58.1593C139.229 58.1671 139.455 58.3463 139.704 58.5722ZM139.79 82.3487C140.008 84.1795 140.179 86.205 140.132 86.5556C140.125 86.6802 139.852 85.5818 139.54 84.1172C139.236 82.6448 138.995 81.4139 139.018 81.3749C139.065 81.3048 139.252 80.3544 139.338 79.7779L139.392 79.3883L139.493 80.0505C139.548 80.4167 139.688 81.445 139.79 82.3487ZM26.8121 82.1695C27.8405 82.8006 29.087 83.1667 31.8058 83.6341C35.0389 84.2029 36.0283 84.5456 36.8774 85.3948C37.563 86.0804 37.4383 86.3063 36.3555 86.3452C34.7273 86.4076 31.6189 85.8077 26.1188 84.3665L25.6358 84.2418L25.6124 82.7383L25.589 81.2425L25.9552 81.5619C26.1577 81.7411 26.5473 82.0137 26.8121 82.1695Z" fill="#A5CDC9"/>
</svg>
