<svg width="285" height="170" viewBox="0 0 285 170" fill="none" xmlns="http://www.w3.org/2000/svg">
<path d="M227.537 1.76665C224.545 1.96031 222.695 2.44444 221.364 3.39658C220.755 3.83231 220.616 3.86458 219.653 3.83231C216.712 3.7032 216.331 3.73547 215.786 4.20348C215.495 4.44554 214.899 5.22017 214.455 5.91409C214.012 6.62416 213.467 7.38264 213.251 7.62471C212.554 8.38319 211.325 8.9803 209.791 9.33533C208.016 9.73878 207.205 10.0131 206.064 10.6586C205.253 11.1105 205.101 11.1428 204.099 11.0621C203.428 11.0137 202.566 10.82 201.868 10.5457C198.649 9.30305 197.584 9.17395 196.405 9.90016C195.556 10.4327 195.036 11.2073 194.25 13.0632C193.338 15.2579 192.666 15.8389 189.827 16.8556C187.634 17.6464 187.165 17.9207 185.339 19.5668C181.359 23.1171 177.785 25.2312 174.235 26.1188C173.145 26.3931 172.144 26.4899 169.672 26.5868C166.757 26.6836 166.453 26.7159 165.92 27.0548C164.893 27.7003 164.399 29.0074 164.082 31.9768C163.981 32.929 163.816 33.9456 163.702 34.2361C163.385 35.0108 161.953 36.7214 160.634 37.8994C159.988 38.4804 157.656 40.3524 155.437 42.063C150.506 45.9038 148.973 47.1787 146.856 49.196C145.132 50.8582 142.483 53.7791 142.483 54.0535C142.483 54.4892 139.681 53.876 136.525 52.7463C129.592 50.2449 120.554 45.4358 115.61 41.6112C113.861 40.2556 113.569 40.0781 112.365 39.6908C108.093 38.3029 97.8008 38.1576 77.4563 39.1905C52.8781 40.4492 52.4851 40.4654 44.2459 40.5945C33.6236 40.7397 26.9562 40.2717 22.8873 39.0936C22.1268 38.8677 21.1254 38.5772 20.669 38.4481C19.2874 38.0447 16.7396 37.9801 15.2058 38.3029C10.0468 39.4003 4.79904 43.9027 1.59208 50.0029C0.0202939 52.9884 -0.309275 54.699 0.261133 56.9583C1.26251 60.9121 5.28072 66.399 10.6806 71.192C14.7748 74.823 19.262 77.7924 33.4081 86.2648C50.3429 96.4155 61.244 101.999 68.71 104.388C73.286 105.84 76.7845 107.518 81.8294 110.665C92.1474 117.088 102.985 126.222 125.878 147.766C127.639 149.429 128.121 149.8 128.932 150.122C130.238 150.655 132.013 150.978 135.321 151.268C136.855 151.414 139.339 151.623 140.835 151.769C147.35 152.333 151.432 153.286 155.273 155.093C158.01 156.368 160.089 156.9 164.348 157.401C168.367 157.853 172.435 157.966 186.467 157.966C204.226 157.966 207.268 158.159 211.261 159.499C213.327 160.193 214.519 160.402 216.648 160.499C219.184 160.612 220.743 160.435 225.838 159.499C231.111 158.53 232.43 158.385 235.446 158.498C237.753 158.595 239.363 158.837 240.884 159.337C241.417 159.515 241.328 159.144 240.352 157.288C234.28 145.765 201.983 102.855 185.834 84.8446C182.196 80.7779 178.647 77.2437 177.138 76.1302C176.758 75.8558 176.428 75.5815 176.39 75.5008C176.352 75.4362 178.532 73.1285 181.245 70.4012C189.484 62.0418 211.857 39.2227 214.392 36.5923C217.206 33.6552 217.396 33.5099 222.15 30.3146C226.738 27.2323 229.426 25.3764 232.1 23.4076C238.945 18.3887 243.09 14.2574 244.459 11.0782C244.776 10.352 244.839 10.0454 244.839 9.06099C244.839 7.97975 244.814 7.85065 244.332 6.9792C243.736 5.88182 242.912 5.04265 241.67 4.26804C238.59 2.36375 233.089 1.39548 227.537 1.76665Z" fill="#003479"/>
<path d="M244.598 1.17653C244.116 1.64453 244.116 1.66066 244.446 1.66066C244.636 1.66066 244.775 1.75749 244.775 1.88659C244.775 2.04797 244.889 2.03184 245.295 1.77363C245.675 1.53156 245.789 1.37018 245.764 1.11198C245.701 0.563286 245.156 0.595562 244.598 1.17653Z" fill="#003479"/>
<path d="M246.805 1.96686C246.805 2.04755 246.931 2.46713 247.084 2.90286C247.261 3.40313 247.375 3.58065 247.4 3.40313C247.426 3.25789 247.337 2.83831 247.185 2.48327C246.931 1.83776 246.805 1.67638 246.805 1.96686Z" fill="#003479"/>
<path d="M253.851 4.06487C253.813 4.14556 253.851 4.27466 253.939 4.37149C254.129 4.58128 254.472 4.35535 254.358 4.09714C254.244 3.88735 253.939 3.85507 253.851 4.06487Z" fill="#003479"/>
<path d="M249.339 5.11419C249.339 5.25943 249.25 5.3724 249.148 5.3724C249.047 5.3724 248.958 5.43695 248.958 5.53378C248.958 5.61447 249.06 5.69516 249.186 5.69516C249.364 5.69516 249.377 5.72743 249.212 5.85653C248.946 6.06633 248.565 5.88881 248.236 5.38854C248.02 5.06578 247.957 5.0335 247.944 5.24329C247.944 5.38854 248.008 5.56605 248.071 5.61447C248.299 5.79198 248.084 5.98564 247.564 6.0986C246.994 6.22771 246.994 6.22771 247.209 6.71184C247.285 6.9055 247.361 7.2444 247.361 7.47033C247.374 7.76081 247.45 7.87377 247.627 7.87377C247.767 7.87377 248.008 7.93833 248.16 8.00288C248.464 8.14812 249.25 7.68012 249.136 7.43805C249.098 7.3735 249.136 7.30895 249.224 7.30895C249.326 7.30895 249.351 7.09915 249.3 6.67957C249.237 6.06633 249.237 6.06633 249.681 6.08247C250.543 6.11474 250.593 5.0335 249.731 4.92054C249.44 4.88826 249.339 4.93667 249.339 5.11419Z" fill="#003479"/>
<path d="M255.042 5.37214C255.22 5.53352 255.385 5.64648 255.41 5.59807C255.486 5.51738 255.017 5.06552 254.852 5.06552C254.789 5.04938 254.865 5.19462 255.042 5.37214Z" fill="#003479"/>
<path d="M257.324 5.6141C257.083 5.72706 256.931 5.84003 256.982 5.84003C257.033 5.85617 257.02 6.00141 256.944 6.19506C256.83 6.45327 256.728 6.50168 256.462 6.42099C256.183 6.3403 256.145 6.35644 256.285 6.51782C256.564 6.88899 256.462 7.46996 256.107 7.64748C255.917 7.72817 255.803 7.84113 255.854 7.90568C255.892 7.9541 255.867 8.09934 255.79 8.2123C255.689 8.37368 255.727 8.38982 255.93 8.32527C256.285 8.2123 256.462 8.53506 256.374 9.16444C256.298 9.63244 256.31 9.63244 256.513 9.32582C256.716 9.00306 256.716 9.00306 256.627 9.35809C256.526 9.80996 256.767 9.85837 256.881 9.40651C256.919 9.22899 257.045 9.08375 257.134 9.08375C257.236 9.08375 257.375 8.93851 257.451 8.76099C257.552 8.50278 257.666 8.45437 257.92 8.53506C258.135 8.61575 258.224 8.58347 258.161 8.47051C258.123 8.37368 258.135 8.26072 258.212 8.19616C258.275 8.14775 258.338 8.22844 258.338 8.38982C258.351 8.61575 258.389 8.59961 258.528 8.27685C258.63 8.05092 258.719 7.93796 258.719 8.03479C258.731 8.34141 259.213 6.90513 259.226 6.53396C259.226 6.32417 259.086 5.98527 258.909 5.77548C258.566 5.32362 258.034 5.25906 257.324 5.6141Z" fill="#003479"/>
<path d="M250.417 7.30884C250.379 7.38953 250.43 7.47021 250.531 7.47021C250.645 7.47021 250.734 7.38953 250.734 7.30884C250.734 7.21201 250.683 7.14746 250.62 7.14746C250.544 7.14746 250.455 7.21201 250.417 7.30884Z" fill="#003479"/>
<path d="M246.056 7.93785C245.967 8.01854 245.917 8.21219 245.942 8.37357C245.993 8.77702 246.589 8.79316 246.652 8.40585C246.703 8.08309 246.284 7.76033 246.056 7.93785Z" fill="#003479"/>
<path d="M251.19 8.842C251.152 8.98724 251.203 9.13248 251.317 9.19703C251.558 9.31 251.811 9.01951 251.697 8.77745C251.57 8.51924 251.279 8.56765 251.19 8.842Z" fill="#003479"/>
<path d="M254.587 10.4558C254.423 10.6656 254.283 10.94 254.283 11.0529C254.283 11.182 254.347 11.1498 254.423 10.9722C254.486 10.827 254.625 10.6979 254.727 10.6979C254.816 10.6979 254.93 10.6011 254.955 10.4881C255.006 10.3751 255.031 10.3913 255.031 10.5526C255.044 10.6979 254.917 10.94 254.765 11.0852C254.511 11.3111 254.499 11.3273 254.727 11.2304C254.866 11.182 255.056 11.0206 255.145 10.8915C255.551 10.2299 255.069 9.84258 254.587 10.4558Z" fill="#003479"/>
<path d="M253.471 10.3425C253.407 10.4877 253.509 11.1816 253.61 11.1816C253.788 11.1816 254.155 10.8105 254.155 10.633C254.155 10.2941 253.61 10.0681 253.471 10.3425Z" fill="#003479"/>
<path d="M250.277 11.0367C250.163 11.2788 250.429 11.5693 250.658 11.4563C250.772 11.3918 250.86 11.2465 250.86 11.1013C250.86 10.8269 250.417 10.7624 250.277 11.0367Z" fill="#003479"/>
<path d="M247.868 12.8116C247.665 12.8922 247.348 13.1343 247.183 13.3602C246.955 13.6669 246.93 13.7476 247.094 13.6669C247.361 13.5378 247.728 13.8928 247.601 14.151C247.551 14.2478 247.665 14.1994 247.855 14.038C248.032 13.8928 248.273 13.7637 248.375 13.7637C248.692 13.7637 248.869 13.1827 248.628 12.8922C248.413 12.6018 248.413 12.6018 247.868 12.8116Z" fill="#003479"/>
<path d="M249.82 14.006C249.732 14.1189 250.264 15.8618 250.391 15.8618C250.556 15.8618 250.492 15.3777 250.226 14.6353C249.96 13.9091 249.935 13.8607 249.82 14.006Z" fill="#003479"/>
<path d="M257.552 16.6041C257.4 16.7817 257.603 17.1528 257.857 17.1528C258.021 17.1528 258.085 17.056 258.059 16.8785C258.021 16.588 257.692 16.4105 257.552 16.6041Z" fill="#003479"/>
<path d="M252.622 17.6529C252.495 17.8143 252.33 17.9595 252.254 17.9595C252.051 17.9595 252.115 18.25 252.356 18.4275C252.558 18.5889 252.546 18.5889 252.318 18.605C251.836 18.605 251.519 18.4114 251.38 18.0241C251.304 17.7981 251.177 17.669 251.113 17.7174C251.025 17.782 251.025 17.9111 251.113 18.1209C251.291 18.5405 251.278 18.605 250.999 18.605C250.873 18.605 250.594 18.6857 250.391 18.7826C250.087 18.9117 250.011 19.0246 250.061 19.2667C250.099 19.4281 250.175 19.5733 250.239 19.5733C250.302 19.5733 250.34 19.8154 250.328 20.0897C250.29 20.5739 250.328 20.6223 250.67 20.6707C250.885 20.703 251.113 20.7837 251.177 20.8643C251.253 20.945 251.519 20.8643 251.773 20.703C252.026 20.5416 252.28 20.4609 252.318 20.5093C252.356 20.5739 252.356 20.4932 252.305 20.3318C252.254 20.1704 252.292 20.0574 252.381 20.0574C252.482 20.0574 252.52 19.8477 252.482 19.4281L252.444 18.8148L252.888 18.8794C253.268 18.9439 253.37 18.8955 253.509 18.5566C253.839 17.7659 253.116 17.0235 252.622 17.6529Z" fill="#003479"/>
<path d="M258.643 17.9436C258.694 18.0405 258.846 18.2019 258.998 18.2987C259.189 18.4278 259.227 18.4278 259.176 18.2987C259.125 18.2019 258.973 18.0405 258.821 17.9436C258.631 17.8145 258.593 17.8145 258.643 17.9436Z" fill="#003479"/>
<path d="M261.38 18.4599C261 18.6212 260.759 18.7503 260.848 18.7503C260.924 18.7665 261 18.8794 261 19.0085C261 19.2668 260.455 19.5088 260.239 19.3313C260.138 19.2506 260.151 19.3152 260.252 19.525C260.493 20.0252 260.303 20.703 259.91 20.703C259.72 20.703 259.618 20.7676 259.669 20.8644C259.72 20.9612 259.694 21.1388 259.618 21.2517C259.504 21.4292 259.542 21.4454 259.783 21.397C260.151 21.3001 260.493 21.8972 260.252 22.2039C260.176 22.3007 260.113 22.4943 260.113 22.6234C260.125 22.8332 260.163 22.8171 260.328 22.5589C260.48 22.3007 260.506 22.3007 260.455 22.5105C260.341 22.9139 260.582 23.0269 260.747 22.6396C260.823 22.4621 260.962 22.3168 261.063 22.3168C261.165 22.3168 261.304 22.1716 261.38 21.9779C261.494 21.7197 261.608 21.6713 261.837 21.7359C262.052 21.8165 262.141 21.7681 262.141 21.5906C262.141 21.2517 262.394 21.284 262.407 21.6229C262.407 21.8972 262.42 21.8972 262.508 21.6229C262.559 21.4615 262.635 21.3324 262.699 21.3485C262.838 21.3808 263.294 20.2512 263.345 19.7509C263.383 19.2345 263.231 18.831 262.863 18.5405C262.394 18.1694 262.103 18.1532 261.38 18.4599Z" fill="#003479"/>
<path d="M253.737 20.0092C253.585 20.1867 253.635 20.3804 253.838 20.3804C253.94 20.3804 254.028 20.2674 254.028 20.1383C254.028 19.8801 253.876 19.8155 253.737 20.0092Z" fill="#003479"/>
<path d="M248.858 20.7355C248.478 21.2197 248.858 21.8329 249.352 21.5102C249.656 21.2842 249.656 20.9292 249.352 20.7033C249.048 20.4935 249.048 20.4935 248.858 20.7355Z" fill="#003479"/>
<path d="M254.625 21.623C254.473 21.8005 254.537 22.3169 254.702 22.3169C254.993 22.3169 255.183 21.9619 255.031 21.7198C254.866 21.4939 254.752 21.4616 254.625 21.623Z" fill="#003479"/>
<path d="M257.108 23.3984C257.019 23.4468 256.943 23.6888 256.943 23.947C256.943 24.3343 256.994 24.415 257.26 24.415C257.628 24.415 257.907 23.8825 257.666 23.6566C257.4 23.3822 257.26 23.3338 257.108 23.3984Z" fill="#003479"/>
<path d="M258.389 23.4788C258.11 23.6402 257.742 24.4148 257.945 24.4148C258.009 24.4148 258.085 24.3502 258.11 24.2696C258.135 24.1889 258.237 24.092 258.338 24.0598C258.44 24.0275 258.566 23.8984 258.617 23.7693C258.68 23.5918 258.706 23.624 258.706 23.8822C258.718 24.0759 258.617 24.318 258.503 24.3987C258.313 24.5439 258.3 24.56 258.478 24.5762C258.592 24.5762 258.756 24.3987 258.845 24.1727C259.073 23.624 258.807 23.2367 258.389 23.4788Z" fill="#003479"/>
<path d="M253.522 24.1726C253.408 24.3501 253.395 24.4792 253.484 24.5922C253.699 24.8665 254.092 24.689 254.092 24.334C254.092 23.9305 253.738 23.8337 253.522 24.1726Z" fill="#003479"/>
<path d="M247.882 33.9363C247.603 34.3397 247.73 34.7754 248.097 34.7109C248.3 34.6786 248.401 34.5334 248.427 34.2429C248.478 33.6942 248.173 33.5328 247.882 33.9363Z" fill="#003479"/>
<path d="M242.836 35.3402C242.684 35.5339 242.747 36.0342 242.924 36.0342C243.153 36.0342 243.419 35.5985 243.317 35.3887C243.229 35.2111 242.962 35.1789 242.836 35.3402Z" fill="#003479"/>
<path d="M247.147 35.8729C246.957 36.0666 246.767 36.1796 246.716 36.1473C246.653 36.0989 246.539 36.1634 246.45 36.2925C246.361 36.4216 246.311 36.5184 246.349 36.5184C246.387 36.5184 246.336 36.7121 246.247 36.938C246.032 37.4383 246.108 37.8418 246.501 38.3098L246.805 38.6648L246.425 38.9714C245.956 39.3264 245.93 39.8106 246.361 40.1656C246.653 40.4077 246.704 40.4077 246.995 40.1656C247.223 39.972 247.299 39.7944 247.249 39.5847C247.211 39.4233 247.236 39.2458 247.312 39.1812C247.553 38.9875 247.439 38.7455 247.16 38.8262C246.868 38.923 246.868 38.923 247.185 38.6002C247.413 38.3582 247.591 38.2936 247.908 38.3743C248.161 38.4389 248.326 38.4066 248.326 38.2936C248.326 38.2129 248.25 38.1322 248.149 38.1322C247.806 38.1322 247.832 37.8579 248.212 37.1962C248.516 36.6798 248.554 36.5184 248.402 36.5184C248.288 36.5184 248.199 36.4539 248.199 36.3571C248.199 36.2764 248.111 36.2441 248.009 36.2925C247.908 36.3571 247.819 36.3248 247.819 36.2441C247.819 36.1634 247.743 35.9698 247.654 35.8084C247.502 35.5502 247.477 35.5502 247.147 35.8729Z" fill="#003479"/>
<path d="M243.344 37.9062C243.154 38.1483 243.255 38.6324 243.483 38.584C243.597 38.5517 243.699 38.3904 243.699 38.229C243.699 37.9062 243.496 37.7287 243.344 37.9062Z" fill="#003479"/>
<path d="M252.583 38.4067C252.533 38.681 252.419 39.0038 252.317 39.1006C252.127 39.3104 252.203 39.8429 252.457 39.972C252.761 40.1173 253.281 39.3911 253.395 38.6487C253.483 38.0032 253.471 37.9709 253.268 38.213C252.989 38.5358 252.786 38.5196 252.736 38.1646C252.698 37.9871 252.647 38.0678 252.583 38.4067Z" fill="#003479"/>
<path d="M240.339 38.4387C240.124 38.9551 240.187 39.2617 240.504 39.2617C240.783 39.2617 241.1 39.0035 241.1 38.7614C241.1 38.6969 240.96 38.5355 240.783 38.3903C240.491 38.1482 240.466 38.1482 240.339 38.4387Z" fill="#003479"/>
<path d="M244.902 38.8585C244.902 38.9876 244.966 39.1006 245.029 39.1006C245.105 39.1006 245.156 38.9876 245.156 38.8585C245.156 38.7294 245.105 38.6164 245.029 38.6164C244.966 38.6164 244.902 38.7294 244.902 38.8585Z" fill="#003479"/>
<path d="M239.896 39.0522C239.934 39.2458 239.909 39.4395 239.833 39.504C239.757 39.5686 239.719 39.7138 239.757 39.8429C239.795 39.972 239.757 40.0204 239.63 39.9559C239.503 39.8913 239.453 39.73 239.491 39.4879C239.516 39.2781 239.491 39.149 239.44 39.1974C239.288 39.3104 239.301 39.9236 239.453 40.2302C239.541 40.4239 239.617 40.4239 239.795 40.2948C240.074 40.085 240.162 39.3749 239.96 38.9876C239.833 38.7294 239.833 38.7294 239.896 39.0522Z" fill="#003479"/>
<path d="M249.743 39.2939C249.794 39.4875 250.783 40.2137 251.024 40.2299C251.277 40.246 251.036 39.9394 250.479 39.5359C249.769 39.0518 249.68 39.0195 249.743 39.2939Z" fill="#003479"/>
<path d="M239.085 42.1506C239.072 42.5379 239.06 42.5379 238.895 42.2474C238.73 41.9569 238.705 42.0376 238.629 43.0059C238.553 43.9096 238.489 44.0871 238.261 44.184C238.096 44.2485 238.058 44.3131 238.16 44.3776C238.236 44.4099 238.274 44.5229 238.236 44.6035C238.185 44.7004 238.096 44.7004 237.995 44.5874C237.868 44.4583 237.843 44.5551 237.868 45.0231C237.919 46.1044 238.071 46.6692 238.401 47.0081C239.034 47.6375 239.732 47.347 240.251 46.2657C240.619 45.4911 240.67 45.3136 240.467 45.475C240.391 45.5395 240.34 45.3943 240.34 45.1522C240.34 44.8779 240.429 44.6842 240.632 44.5874C240.834 44.4906 240.86 44.4422 240.695 44.4422C240.568 44.426 240.378 44.2485 240.264 44.0226C240.074 43.6353 240.074 43.5869 240.264 43.3125C240.505 42.9898 240.53 42.7477 240.315 42.9091C240.213 42.9898 240.201 42.9091 240.251 42.6509C240.327 42.2958 240.327 42.2958 240.048 42.6024C239.681 43.022 239.389 42.9091 239.225 42.2797C239.11 41.8278 239.098 41.8117 239.085 42.1506Z" fill="#003479"/>
<path d="M243.598 44.216C243.42 44.4258 243.522 44.7485 243.762 44.7485C243.927 44.7485 244.016 44.6356 244.016 44.4258C244.016 44.1192 243.762 43.9901 243.598 44.216Z" fill="#003479"/>
<path d="M241.986 44.426C241.986 44.6197 242.088 44.6197 242.43 44.426C242.658 44.2969 242.645 44.2808 242.341 44.2808C242.138 44.2647 241.986 44.3292 241.986 44.426Z" fill="#003479"/>
<path d="M241.036 48.2021C240.833 48.3151 240.516 48.654 240.351 48.9445L240.047 49.477L240.389 49.3963C240.655 49.3318 240.757 49.3802 240.833 49.6223C240.909 49.9127 240.934 49.8966 241.226 49.5093C241.391 49.2834 241.593 49.1059 241.682 49.1059C241.809 49.1059 241.986 48.767 241.986 48.541C241.986 48.4281 241.593 47.9762 241.505 47.9762C241.454 47.9923 241.251 48.0892 241.036 48.2021Z" fill="#003479"/>
<path d="M243.256 49.1221C243.256 49.3641 244.004 50.7197 244.143 50.7197C244.384 50.7197 244.194 50.2033 243.687 49.3803C243.395 48.9123 243.256 48.8316 243.256 49.1221Z" fill="#003479"/>
<path d="M251.887 49.3317C251.76 49.5253 251.786 49.606 251.976 49.7351C252.166 49.8642 252.267 49.8481 252.381 49.6706C252.546 49.4124 252.457 49.1057 252.204 49.1057C252.102 49.1057 251.963 49.2026 251.887 49.3317Z" fill="#003479"/>
<path d="M256.411 49.9936C256.158 50.2195 255.866 50.397 255.778 50.397C255.651 50.397 255.651 50.4293 255.778 50.5423C256.094 50.7843 255.752 51.3653 255.271 51.3653C255.017 51.3814 255.004 51.3976 255.207 51.5428C255.321 51.6235 255.423 51.8817 255.423 52.1076C255.423 52.495 255.41 52.495 255.22 52.2529C254.928 51.8979 254.472 52.0592 253.876 52.7532L253.395 53.3019H253.851C254.256 53.3019 254.295 53.3341 254.218 53.6569L254.13 54.0281L254.396 53.6569C254.725 53.2373 255.182 53.1405 254.903 53.5601C254.764 53.7699 254.789 53.786 255.08 53.7053C255.549 53.5439 255.816 53.9312 255.727 54.6252L255.663 55.1577L255.854 54.7543C256.044 54.3508 256.044 54.3508 256.056 54.7059C256.056 54.9156 256.12 55.077 256.183 55.077C256.259 55.077 256.31 54.9318 256.31 54.7543C256.31 54.5929 256.424 54.367 256.563 54.2701C256.766 54.1249 256.842 54.1733 257.007 54.5929C257.197 55.077 257.451 55.2384 257.451 54.8995C257.451 54.7865 257.337 54.4638 257.185 54.1733C256.88 53.5278 256.956 53.2534 257.425 53.4148C257.73 53.4955 257.742 53.4794 257.603 53.2696C257.476 53.0598 257.476 52.9952 257.603 52.9468C257.692 52.8984 257.831 52.9791 257.92 53.1243C258.059 53.3503 258.072 53.318 258.085 52.9307C258.085 52.6725 258.135 52.5111 258.186 52.5595C258.351 52.6886 258.617 51.1394 258.516 50.6552C258.313 49.6063 257.248 49.2674 256.411 49.9936Z" fill="#003479"/>
<path d="M253.219 50.3808C253.282 50.4615 253.472 50.5745 253.65 50.6229L253.967 50.7358L253.65 50.4938C253.295 50.2194 253.016 50.1549 253.219 50.3808Z" fill="#003479"/>
<path d="M246.893 51.6396C246.842 51.688 246.804 51.8655 246.804 52.0269C246.804 52.1721 246.69 52.3335 246.538 52.3819C246.373 52.4304 246.31 52.5433 246.36 52.6563C246.411 52.7693 246.576 52.8015 246.728 52.7531C246.982 52.6724 246.982 52.6724 246.753 52.8984C246.36 53.2695 245.891 53.1888 245.587 52.6886C245.245 52.156 245.055 52.3013 245.346 52.8822L245.562 53.3018L244.991 53.6084C244.446 53.915 244.117 54.2701 244.383 54.2701C244.459 54.2701 244.522 54.383 244.522 54.5121C244.522 54.6412 244.611 54.7542 244.725 54.7542C244.852 54.7542 244.903 54.851 244.852 54.9963C244.713 55.4966 244.915 55.7548 245.359 55.6579C245.587 55.5934 245.803 55.6257 245.841 55.7064C245.929 55.8839 246.424 55.7548 246.424 55.545C246.424 55.4643 246.513 55.3997 246.614 55.3997C246.715 55.3997 246.804 55.2868 246.804 55.1415C246.804 55.0124 246.855 54.9317 246.918 54.9963C246.994 55.0447 247.045 54.9479 247.045 54.8026C247.045 54.6412 247.058 54.3669 247.096 54.1894C247.121 54.0119 247.058 53.7052 246.956 53.4955C246.779 53.1566 246.791 53.1404 247.222 53.1404C247.641 53.1404 248.072 52.7208 248.072 52.3013C248.072 51.8171 247.146 51.3007 246.893 51.6396Z" fill="#003479"/>
<path d="M248.451 54.2056C248.451 54.4799 248.73 54.4315 248.806 54.141C248.831 54.028 248.768 53.9474 248.654 53.9474C248.54 53.9474 248.451 54.0603 248.451 54.2056Z" fill="#003479"/>
<path d="M264.943 54.6574C264.829 54.8188 264.842 54.9156 264.994 55.077C265.235 55.3352 265.513 55.0608 265.399 54.6896C265.298 54.3669 265.133 54.3669 264.943 54.6574Z" fill="#003479"/>
<path d="M249.681 55.5126C249.554 55.674 249.58 56.2065 249.706 56.2065C249.998 56.2065 250.226 55.9806 250.226 55.7063C250.226 55.3996 249.858 55.2705 249.681 55.5126Z" fill="#003479"/>
<path d="M269.049 55.9644C268.707 56.1903 268.492 56.3679 268.58 56.3679C268.656 56.3679 268.72 56.4647 268.707 56.5615C268.656 56.8681 268.225 57.1425 267.921 57.0618C267.68 56.9972 267.68 57.0134 267.883 57.1748C268.023 57.2877 268.099 57.5621 268.099 57.901C268.099 58.5465 267.883 58.6594 267.211 58.369C266.856 58.2076 266.628 58.2237 266.134 58.3851C265.513 58.5949 265.513 58.5949 265.842 58.7563C266.248 58.9661 266.387 59.2243 266.223 59.4825C266.045 59.7407 267.427 59.7084 267.63 59.4502C267.82 59.2081 267.959 59.2243 268.175 59.4986C268.314 59.6761 268.327 59.8375 268.225 60.1764C268.149 60.4185 268.124 60.6444 268.162 60.6928C268.2 60.7574 268.263 60.6283 268.314 60.4346C268.352 60.241 268.441 60.0796 268.504 60.0796C268.568 60.0796 268.58 60.2248 268.542 60.4023C268.504 60.5799 268.517 60.7251 268.593 60.7251C268.656 60.7251 268.745 60.5799 268.796 60.4185C268.834 60.241 268.973 60.0473 269.1 59.9989C269.239 59.9505 269.366 59.7568 269.404 59.5954C269.455 59.3534 269.582 59.2727 269.899 59.2565C270.127 59.2565 270.241 59.2081 270.152 59.1597C270.076 59.1274 270.025 59.0145 270.076 58.9338C270.177 58.7079 270.38 58.7563 270.38 59.0306C270.38 59.1597 270.444 59.2727 270.507 59.2727C270.583 59.2727 270.634 59.1274 270.634 58.9499C270.634 58.7563 270.722 58.6272 270.849 58.6272C270.963 58.6272 271.027 58.5788 270.989 58.5303C270.938 58.4819 270.989 58.1914 271.09 57.8848C271.47 56.739 270.951 55.561 270.076 55.561C269.861 55.561 269.404 55.7546 269.049 55.9644Z" fill="#003479"/>
<path d="M266.248 55.9645C266.388 56.0936 266.591 56.2065 266.692 56.2065C266.819 56.1904 266.781 56.1097 266.578 55.9645C266.16 55.6579 265.944 55.674 266.248 55.9645Z" fill="#003479"/>
<path d="M243.622 56.1583C243.356 56.239 243.242 56.7715 243.419 56.9974C243.698 57.3525 244.269 57.0781 244.269 56.5778C244.269 56.3196 243.888 56.0776 243.622 56.1583Z" fill="#003479"/>
<path d="M253.954 56.4488C253.789 56.6586 253.662 56.9975 253.662 57.2073C253.675 57.4655 253.7 57.4977 253.738 57.3041C253.764 57.1588 253.903 56.9813 254.042 56.9329C254.194 56.8684 254.271 56.7231 254.233 56.594C254.194 56.4649 254.22 56.3681 254.283 56.3681C254.486 56.3681 254.423 57.0459 254.194 57.3848C253.979 57.6914 253.979 57.7075 254.233 57.53C254.524 57.3364 254.663 57.0136 254.663 56.5295C254.663 56.0615 254.296 56.013 253.954 56.4488Z" fill="#003479"/>
<path d="M259.771 56.5132C259.733 56.6907 259.594 56.8682 259.454 56.9005C259.137 57.0134 259.277 57.3362 259.644 57.3523C259.911 57.3523 259.911 57.3685 259.67 57.4976C259.289 57.6912 258.82 57.5137 258.504 57.0296C258.212 56.5939 258.111 56.8037 258.339 57.3523C258.453 57.5944 258.428 57.6912 258.25 57.7719C257.553 58.0786 257.16 58.3529 257.299 58.4174C257.375 58.4659 257.452 58.595 257.452 58.7241C257.452 58.8532 257.502 58.95 257.566 58.95C257.629 58.95 257.667 59.1921 257.654 59.4664C257.642 59.9828 257.654 59.999 258.098 59.9505C258.364 59.9183 258.605 59.9667 258.643 60.0635C258.744 60.2572 259.366 59.9505 259.518 59.6439C259.581 59.5148 259.657 59.4664 259.708 59.4987C259.86 59.6117 259.936 58.3529 259.797 57.9494C259.72 57.7074 259.771 57.6912 260.139 57.7558C260.506 57.8365 260.608 57.7881 260.798 57.4169C261.001 57.0296 261.001 56.965 260.811 56.5939C260.557 56.0936 259.873 56.0452 259.771 56.5132Z" fill="#003479"/>
<path d="M252.57 56.7231C252.532 56.8522 252.558 57.1588 252.634 57.4009C252.76 57.8366 252.786 57.8366 253.052 57.6107C253.381 57.3363 253.508 56.6908 253.229 56.6908C253.115 56.6908 252.95 56.6424 252.836 56.594C252.722 56.5456 252.608 56.594 252.57 56.7231Z" fill="#003479"/>
<path d="M249.086 58.3851C248.896 58.6756 249.01 59.1113 249.25 59.1113C249.352 59.1113 249.504 58.9984 249.593 58.8693C249.719 58.6756 249.719 58.5788 249.593 58.3851C249.39 58.0785 249.289 58.0785 249.086 58.3851Z" fill="#003479"/>
<path d="M261.255 58.8693C261.128 59.0629 261.128 59.1113 261.293 59.1113C261.534 59.1113 261.686 58.8531 261.521 58.724C261.458 58.6756 261.344 58.7402 261.255 58.8693Z" fill="#003479"/>
<path d="M256.108 60.4668C255.969 60.9186 256.159 61.2414 256.527 61.1768C256.805 61.1446 256.882 61.0477 256.882 60.725C256.882 60.4022 256.805 60.3054 256.527 60.2731C256.298 60.2408 256.159 60.3054 256.108 60.4668Z" fill="#003479"/>
<path d="M262.268 60.6604C262.268 61.1929 262.686 61.1445 262.749 60.5958C262.787 60.3215 262.724 60.2408 262.534 60.2408C262.331 60.2408 262.268 60.3376 262.268 60.6604Z" fill="#003479"/>
<path d="M268.48 62.0968C268.48 62.7584 268.531 63.3071 268.595 63.3071C268.785 63.3071 268.861 62.8553 268.861 61.8386C268.861 61.0962 268.823 60.8864 268.671 60.8864C268.518 60.8864 268.48 61.1285 268.48 62.0968Z" fill="#003479"/>
<path d="M266.299 61.8065C266.198 61.9679 266.071 62.2745 266.033 62.5004L265.957 62.9039L266.173 62.565C266.451 62.1293 266.832 61.9518 266.832 62.2584C266.832 62.3875 266.68 62.5973 266.489 62.7425C266.147 62.9846 266.147 62.9846 266.451 62.8877C266.844 62.7425 267.098 62.3552 267.047 61.9356C267.009 61.516 266.553 61.4353 266.299 61.8065Z" fill="#003479"/>
<path d="M264.994 61.9031C264.956 62.0161 264.982 62.3227 265.045 62.5648C265.159 62.9359 265.223 62.9682 265.438 62.823C265.755 62.6132 265.894 62.2097 265.742 62.0161C265.501 61.7417 265.058 61.661 264.994 61.9031Z" fill="#003479"/>
<path d="M261.432 63.2267C261.305 63.6301 261.558 63.8561 261.888 63.6301C262.218 63.4042 262.167 63.0814 261.787 63.0169C261.622 62.9846 261.47 63.0653 261.432 63.2267Z" fill="#003479"/>
<path d="M268.568 65.6798C268.517 65.7282 268.479 65.938 268.479 66.1316C268.479 66.6158 268.391 66.6964 267.998 66.5351C267.808 66.4544 267.478 66.3575 267.275 66.3253C266.933 66.2446 266.895 66.2769 266.895 66.5996C266.908 66.7933 266.958 67.0515 267.009 67.1644C267.072 67.2935 267.009 67.5195 266.832 67.7454C266.502 68.1811 266.553 68.3587 267.085 68.633C267.288 68.746 267.465 68.9396 267.465 69.0526C267.465 69.2946 267.554 69.3108 268.441 69.3431C268.72 69.3592 268.936 69.3108 268.91 69.2462C268.885 69.1817 268.974 69.101 269.113 69.0364C269.253 68.988 269.367 68.8267 269.367 68.6975C269.367 68.5684 269.43 68.4716 269.494 68.4716C269.57 68.4716 269.62 68.2941 269.62 68.0682C269.62 67.584 269.671 67.5679 270.026 67.9875C270.355 68.3748 270.609 68.3909 270.989 68.052C271.344 67.7454 271.344 67.1322 270.989 66.6964C270.698 66.3414 270.254 66.2607 270.254 66.5512C270.254 66.6642 270.127 66.6964 269.937 66.6642C269.532 66.5512 269.379 66.8417 269.684 67.1322C269.912 67.342 269.912 67.342 269.671 67.342C269.265 67.3258 268.834 66.7933 268.784 66.2123C268.733 65.6152 268.682 65.5184 268.568 65.6798Z" fill="#003479"/>
<path d="M264.752 67.7613C264.473 68.1002 264.498 68.2615 264.853 68.552C265.386 69.0039 265.893 68.3906 265.487 67.8097C265.221 67.4385 265.005 67.4224 264.752 67.7613Z" fill="#003479"/>
<path d="M276.009 68.6974C275.908 69.0363 276.047 69.2783 276.352 69.2783C276.542 69.2783 276.605 69.1815 276.567 68.9233C276.516 68.4876 276.123 68.3262 276.009 68.6974Z" fill="#003479"/>
<path d="M270.571 69.9399C270.444 70.1819 270.584 70.3111 270.825 70.1819C270.939 70.1335 270.99 70.0206 270.951 69.9237C270.85 69.7139 270.673 69.7139 270.571 69.9399Z" fill="#003479"/>
<path d="M276.922 71.0532C277.049 71.3114 277.175 71.4889 277.214 71.4567C277.29 71.3437 276.947 70.5691 276.821 70.5691C276.757 70.5691 276.808 70.7789 276.922 71.0532Z" fill="#003479"/>
<path d="M270.685 72.4251C270.634 72.5704 270.659 72.764 270.735 72.8608C270.938 73.119 271.331 72.9415 271.331 72.5865C271.331 72.1669 270.799 72.0378 270.685 72.4251Z" fill="#003479"/>
<path d="M278.886 72.9577C278.937 73.3128 278.835 73.4257 278.506 73.4419C278.29 73.4419 278.1 73.3612 278.062 73.216C278.024 73.0869 277.923 72.99 277.847 72.99C277.745 72.99 277.745 73.0546 277.859 73.2321C278.037 73.5064 277.935 73.9744 277.619 74.3456C277.403 74.6038 277.365 74.5877 276.997 74.2004C276.237 73.3773 275.451 73.7162 274.982 75.0557C274.665 75.9755 274.64 76.0724 274.792 76.0078C274.893 75.9755 274.944 76.1046 274.944 76.4597C274.944 76.6372 274.855 76.6695 274.576 76.6049C274.221 76.5081 273.778 76.7179 273.448 77.1375C273.359 77.2504 273.169 77.3473 273.03 77.3473C272.903 77.3473 272.789 77.428 272.789 77.5248C272.789 77.7346 273.283 77.5571 273.575 77.2343C273.727 77.0729 273.905 77.0245 274.196 77.1052C274.576 77.2182 274.602 77.2343 274.374 77.4441C274.247 77.5571 274.082 77.6216 274.006 77.5571C273.917 77.4925 273.917 77.5248 274.006 77.6539C274.171 77.8798 274.64 77.6539 274.893 77.2182C275.007 77.0245 275.058 77.0568 275.235 77.4118C275.451 77.8153 275.438 77.8475 275.235 78.2671C275.02 78.6867 275.02 78.7028 275.248 78.5899C275.438 78.4931 275.464 78.5253 275.413 78.8319L275.337 79.2031L275.578 78.8319C275.907 78.3155 276.25 78.3801 276.503 78.9933L276.731 79.5259L276.655 79.0417C276.592 78.606 276.604 78.5899 276.757 78.8319C277.035 79.2838 277.073 79.187 277.035 78.2671C276.997 77.315 277.2 76.8631 277.682 76.8631C277.847 76.8631 278.126 76.7824 278.29 76.6695C278.569 76.5242 278.658 76.5404 278.873 76.7824C279.102 77.0406 279.127 77.0406 279.127 76.8147C279.127 76.6533 279.216 76.5404 279.33 76.5404C279.482 76.5404 279.52 76.6372 279.456 76.9761L279.38 77.428L279.634 77.0568C279.773 76.847 279.951 76.7017 280.04 76.7502C280.128 76.7824 280.42 76.6049 280.673 76.3467C281.548 75.4753 281.599 74.0551 280.787 73.3289C280.458 73.0384 278.861 72.7157 278.886 72.9577Z" fill="#003479"/>
<path d="M268.62 74.3296C268.506 74.5233 268.518 74.6201 268.683 74.8299C268.975 75.2172 269.304 75.0881 269.304 74.604C269.304 74.136 268.873 73.9585 268.62 74.3296Z" fill="#003479"/>
<path d="M272.839 75.7013C272.763 75.7659 272.649 76.0564 272.598 76.3468L272.51 76.8794L272.991 76.831C273.587 76.7664 273.714 76.363 273.283 75.8788C273.131 75.7175 273.004 75.5722 272.991 75.5722C272.979 75.5722 272.915 75.6368 272.839 75.7013Z" fill="#003479"/>
<path d="M271.357 77.4438C271.155 77.702 271.281 78.0087 271.56 77.9602C271.712 77.928 271.839 77.7989 271.839 77.6698C271.839 77.4116 271.509 77.2663 271.357 77.4438Z" fill="#003479"/>
<path d="M276.047 81.1718C275.92 81.3332 275.946 82.2369 276.085 82.5113C276.174 82.7049 276.212 82.6404 276.212 82.2692C276.212 81.9948 276.263 81.6882 276.326 81.5591C276.491 81.2202 276.617 81.6237 276.529 82.2369C276.453 82.7533 276.453 82.7533 276.63 82.3499C276.744 82.0594 276.77 81.8173 276.681 81.4946C276.579 81.0911 276.237 80.9136 276.047 81.1718Z" fill="#003479"/>
<path d="M275.361 82.3983C274.994 82.6081 274.994 83.0116 275.349 83.3021C275.589 83.4957 275.64 83.4796 275.792 83.2214C276.135 82.6243 275.856 82.1078 275.361 82.3983Z" fill="#003479"/>
<path d="M268.734 82.7534C268.645 82.8825 268.607 83.1245 268.645 83.302C268.67 83.4634 268.645 83.7216 268.581 83.8669C268.442 84.1735 268.721 84.238 268.962 83.9314C269.051 83.8185 269.114 83.8023 269.114 83.8991C269.114 83.996 268.974 84.238 268.81 84.4317C268.569 84.7222 268.391 84.7867 268.036 84.7383C267.555 84.6738 267.466 84.9804 267.948 85.0611C268.303 85.1256 268.29 85.2225 267.922 86.0778L267.605 86.7878L267.986 86.8201C268.201 86.8362 268.467 87.0138 268.607 87.2236L268.848 87.5947L269.177 87.1429C269.355 86.9008 269.558 86.7394 269.621 86.7878C269.684 86.8362 269.773 86.691 269.824 86.4651C269.862 86.2391 269.938 86.0616 269.989 86.0616C270.141 86.0616 270.065 85.2063 269.874 84.819C269.773 84.6254 269.596 84.4317 269.469 84.3994C269.165 84.2865 269.177 84.0121 269.481 83.883C269.798 83.7539 269.9 83.415 269.748 82.9147C269.659 82.6081 269.532 82.5113 269.253 82.5113C269.063 82.5113 268.822 82.6242 268.734 82.7534Z" fill="#003479"/>
<path d="M264.678 83.6248C264.678 83.8184 265.895 84.3349 266.11 84.238C266.313 84.1573 265.628 83.7216 265.096 83.5925C264.868 83.528 264.678 83.5602 264.678 83.6248Z" fill="#003479"/>
<path d="M270.824 83.625C270.748 83.8025 270.938 83.9961 271.065 83.8509C271.179 83.7057 271.154 83.4797 271.027 83.4797C270.951 83.4797 270.875 83.5443 270.824 83.625Z" fill="#003479"/>
<path d="M272.434 83.996C272.46 84.2058 272.561 84.3672 272.662 84.3672C272.764 84.3672 272.865 84.2058 272.891 83.996C272.929 83.7217 272.865 83.641 272.662 83.641C272.46 83.641 272.396 83.7217 272.434 83.996Z" fill="#003479"/>
<path d="M262.889 84.2704C262.699 84.4641 262.585 84.8191 262.521 85.384C262.445 86.1747 262.458 86.207 262.661 85.9649C262.788 85.8197 262.965 85.739 263.054 85.7713C263.231 85.852 263.65 84.6739 263.561 84.335C263.472 83.9961 263.181 83.98 262.889 84.2704Z" fill="#003479"/>
<path d="M273.334 86.1746C273.131 86.2714 273.119 86.804 273.296 86.9492C273.461 87.0783 273.803 86.7394 273.803 86.4651C273.803 86.223 273.562 86.0778 273.334 86.1746Z" fill="#003479"/>
<path d="M277.036 86.6102C276.731 86.8845 276.833 87.5785 277.188 87.643C277.669 87.7399 277.872 86.707 277.416 86.4811C277.327 86.4488 277.15 86.4972 277.036 86.6102Z" fill="#003479"/>
<path d="M284.083 88.0145C284.07 88.418 283.728 88.7246 283.537 88.5148C283.385 88.3695 283.36 88.7891 283.436 90.29C283.436 90.4997 284.032 90.4352 284.159 90.2093C284.399 89.8381 284.437 89.1926 284.26 88.4825C284.171 88.0791 284.083 87.8693 284.083 88.0145Z" fill="#003479"/>
<path d="M268.112 88.7081C267.998 88.8856 267.985 89.0309 268.099 89.2729C268.175 89.4666 268.289 89.6118 268.353 89.6118C268.555 89.6118 268.872 89.0954 268.834 88.8211C268.784 88.4822 268.315 88.4015 268.112 88.7081Z" fill="#003479"/>
<path d="M277.01 88.9988C276.946 89.1117 276.845 89.3377 276.807 89.4829C276.756 89.6443 276.642 89.7734 276.528 89.7734C276.338 89.7734 276.325 89.8379 276.287 90.903C276.275 91.5485 276.782 92.3554 277.213 92.3554C277.365 92.3554 277.479 92.42 277.479 92.5168C277.479 92.5975 277.441 92.6782 277.377 92.6782C277.327 92.6782 277.213 92.8234 277.124 93.0171C276.858 93.5496 277.149 94.292 277.606 94.292C278.151 94.292 278.62 93.3883 278.239 93.0816C278.163 93.0171 278.138 92.8396 278.176 92.6782C278.265 92.307 278.011 92.0811 277.91 92.42C277.808 92.775 277.593 92.7428 277.694 92.3877C277.821 91.952 278.277 91.371 278.493 91.4033C278.848 91.4356 279 91.3872 279 91.2258C279 91.129 278.822 91.0644 278.607 91.0644C278.239 91.0644 278.214 91.0321 278.303 90.6125C278.62 89.1279 278.62 89.1924 278.151 89.2408C277.91 89.257 277.58 89.1763 277.428 89.031C277.187 88.8374 277.111 88.8374 277.01 88.9988Z" fill="#003479"/>
<path d="M272.245 91C272.194 91.0645 272.156 91.2905 272.156 91.5003C272.156 91.823 272.22 91.8876 272.448 91.8391C272.651 91.8069 272.727 91.6778 272.727 91.3873C272.727 91 272.435 90.7579 272.245 91Z" fill="#003479"/>
<path d="M280.776 91.226C280.624 91.3551 280.624 91.3873 280.814 91.4842C281.232 91.6778 282.335 91.6455 282.386 91.4196C282.424 91.2905 282.271 91.226 281.879 91.226C281.562 91.226 281.232 91.1937 281.131 91.1453C281.042 91.0969 280.877 91.1291 280.776 91.226Z" fill="#003479"/>
<path d="M273.614 93.6626C273.512 94.066 273.702 94.3726 273.981 94.2435C274.26 94.0983 274.235 93.6948 273.943 93.4851C273.74 93.356 273.677 93.3882 273.614 93.6626Z" fill="#003479"/>
<path d="M275.578 93.5498C275.578 93.6789 275.629 93.8241 275.692 93.8725C275.819 93.9855 275.984 93.5659 275.87 93.4207C275.73 93.2431 275.578 93.3238 275.578 93.5498Z" fill="#003479"/>
<path d="M270.711 95.8737C270.508 96.6483 270.977 97.0356 271.408 96.4547C271.725 96.0189 271.661 95.8253 271.116 95.6639C270.863 95.5832 270.774 95.6155 270.711 95.8737Z" fill="#003479"/>
<path d="M270.443 97.1C270.456 97.4389 270.557 97.7778 270.646 97.8584C270.785 97.9714 270.785 98.0037 270.621 98.0037C270.342 98.0037 270.164 97.6971 270.088 97.1161C270.038 96.6481 270.038 96.6642 270.012 97.2129C270 97.8907 270.24 98.391 270.583 98.3103C270.925 98.2135 270.976 97.3582 270.659 96.874L270.418 96.4867L270.443 97.1Z" fill="#003479"/>
<path d="M260.987 97.5842C261.316 98.02 261.329 98.3266 261.038 98.3427C260.911 98.3589 261.012 98.4395 261.266 98.5525C261.519 98.6493 261.823 98.8269 261.938 98.956C262.229 99.2626 262.571 99.0044 262.622 98.4557C262.673 97.9393 262.077 97.439 261.278 97.3099L260.721 97.2292L260.987 97.5842Z" fill="#003479"/>
<path d="M276.212 100.021C276.085 100.198 276.085 100.327 276.186 100.456C276.377 100.699 276.744 100.489 276.693 100.15C276.643 99.7787 276.415 99.7141 276.212 100.021Z" fill="#003479"/>
<path d="M271.89 100.425C271.814 100.989 271.231 101.07 270.889 100.554C270.749 100.344 270.648 100.263 270.635 100.344C270.635 100.441 270.699 100.602 270.787 100.715C270.901 100.86 270.901 100.909 270.8 100.909C270.711 100.909 270.61 100.828 270.572 100.747C270.521 100.651 270.432 100.618 270.369 100.683C270.293 100.731 270.306 100.86 270.407 101.022C270.483 101.151 270.547 101.474 270.534 101.732C270.521 101.99 270.559 102.2 270.635 102.2C270.851 102.2 270.775 102.878 270.547 103.103C270.331 103.313 270.331 103.313 270.547 103.329C270.661 103.329 270.762 103.442 270.762 103.588C270.762 103.781 270.686 103.83 270.496 103.765C270.242 103.684 270.242 103.684 270.445 103.975C270.559 104.136 270.623 104.346 270.585 104.427C270.547 104.507 270.724 104.879 270.99 105.25C271.662 106.218 272.22 106.299 272.841 105.573C273.246 105.088 273.323 104.895 273.386 104.088C273.449 103.329 273.424 103.168 273.284 103.2C273.006 103.281 272.98 102.377 273.259 102.103C273.475 101.877 273.475 101.861 273.196 101.958C273.018 102.022 272.777 101.958 272.587 101.796C272.321 101.587 272.283 101.457 272.346 101.054C272.41 100.683 272.397 100.602 272.245 100.683C272.106 100.747 272.03 100.651 272.004 100.392C271.954 100.021 271.954 100.021 271.89 100.425Z" fill="#003479"/>
<path d="M262.395 101.683C262.065 102.651 262.053 102.732 262.243 102.813C262.306 102.829 262.458 102.538 262.573 102.167C262.699 101.78 262.851 101.344 262.915 101.199C263.067 100.828 263.054 100.747 262.877 100.747C262.788 100.747 262.573 101.167 262.395 101.683Z" fill="#003479"/>
<path d="M274.639 100.989C274.449 101.167 274.437 101.231 274.576 101.231C274.677 101.231 274.88 101.118 275.02 100.989C275.197 100.812 275.21 100.763 275.07 100.763C274.969 100.763 274.766 100.86 274.639 100.989Z" fill="#003479"/>
<path d="M259.733 105.024C259.733 105.153 259.67 105.266 259.594 105.266C259.517 105.266 259.492 105.395 259.543 105.572C259.594 105.782 259.543 105.895 259.353 105.96C258.96 106.089 258.896 106.524 259.226 106.96C259.378 107.17 259.479 107.444 259.454 107.557C259.391 107.751 260.05 108.251 260.291 108.187C260.341 108.171 260.468 108.251 260.57 108.348C260.709 108.493 260.747 108.477 260.747 108.332C260.747 108.203 260.785 108.154 260.823 108.219C260.962 108.38 261.609 107.864 261.698 107.525C261.736 107.347 261.837 107.202 261.913 107.202C261.977 107.202 261.888 106.976 261.71 106.702C261.343 106.153 261.317 105.976 261.508 105.363C261.596 105.04 261.584 104.943 261.457 104.943C261.355 104.943 261.241 105.12 261.203 105.346C261.102 105.831 261.001 105.847 260.608 105.443C260.443 105.282 260.177 105.072 260.024 104.959C259.784 104.798 259.733 104.814 259.733 105.024Z" fill="#003479"/>
<path d="M257.274 105.185C257.046 105.475 257.135 105.847 257.452 106.073C257.781 106.298 258.085 106.105 258.085 105.685C258.085 105.007 257.629 104.733 257.274 105.185Z" fill="#003479"/>
<path d="M261.952 106.395C261.901 106.492 261.927 106.67 262.003 106.767C262.066 106.88 262.104 107.138 262.066 107.315C261.978 107.719 262.408 108.332 262.776 108.332C263.131 108.332 263.448 107.654 263.334 107.138C263.232 106.621 262.814 106.283 262.611 106.541C262.51 106.67 262.408 106.638 262.256 106.46C262.104 106.283 262.016 106.266 261.952 106.395Z" fill="#003479"/>
<path d="M261.889 109.865C261.889 109.994 261.977 110.107 262.079 110.107C262.18 110.107 262.269 109.994 262.269 109.865C262.269 109.736 262.18 109.623 262.079 109.623C261.977 109.623 261.889 109.736 261.889 109.865Z" fill="#003479"/>
<path d="M267.086 111.269C267.086 111.382 267.137 111.576 267.2 111.705C267.352 112.011 267.745 111.802 267.694 111.447C267.644 111.108 267.086 110.946 267.086 111.269Z" fill="#003479"/>
<path d="M261.253 112.125C261.127 112.318 261.165 112.399 261.431 112.544C261.824 112.77 262.065 112.577 261.938 112.157C261.837 111.818 261.469 111.802 261.253 112.125Z" fill="#003479"/>
<path d="M258.897 112.931C258.846 113.077 258.897 113.302 259.011 113.448C259.277 113.787 259.632 113.593 259.581 113.141C259.53 112.689 259.011 112.528 258.897 112.931Z" fill="#003479"/>
<path d="M267.351 113.609C267.339 113.9 267.402 114.142 267.465 114.142C267.617 114.142 267.617 113.867 267.465 113.415C267.377 113.141 267.351 113.173 267.351 113.609Z" fill="#003479"/>
<path d="M257.756 115.352C257.49 115.869 257.604 116.24 258.023 116.24C258.365 116.24 258.973 115.594 258.973 115.239C258.961 115.094 258.91 115.126 258.796 115.304C258.707 115.449 258.454 115.627 258.238 115.675C257.909 115.739 257.858 115.707 257.921 115.497C257.959 115.352 258.111 115.175 258.264 115.11C258.53 114.965 258.53 114.965 258.251 114.965C258.086 114.949 257.883 115.11 257.756 115.352Z" fill="#003479"/>
<path d="M259.493 115.417C259.328 115.481 259.126 115.642 259.049 115.804C258.935 116.046 258.973 116.143 259.227 116.401C259.658 116.821 259.987 116.578 259.924 115.901C259.861 115.287 259.873 115.304 259.493 115.417Z" fill="#003479"/>
<path d="M263.345 116.014C263.193 116.224 263.181 116.32 263.295 116.514C263.497 116.805 263.966 116.724 264.017 116.369C264.081 115.949 263.599 115.691 263.345 116.014Z" fill="#003479"/>
<path d="M267.605 116.078C267.592 116.353 267.465 116.595 267.199 116.788C266.844 117.047 266.793 117.063 266.591 116.821C266.312 116.498 266.147 116.482 266.248 116.805C266.324 117.095 266.261 117.111 265.932 116.885C265.589 116.643 265.627 116.853 266.008 117.24C266.198 117.434 266.286 117.628 266.236 117.741C266.185 117.854 266.134 117.999 266.134 118.096C266.134 118.176 265.944 118.305 265.729 118.402C265.222 118.58 265.171 118.806 265.665 118.709C265.957 118.644 265.97 118.66 265.792 118.822C265.31 119.193 265.513 119.274 266.933 119.306C267.25 119.306 267.377 119.387 267.427 119.629C267.465 119.806 267.554 119.952 267.617 119.952C267.681 119.952 267.693 119.871 267.655 119.79C267.554 119.58 267.732 119.58 267.972 119.806C268.112 119.935 268.124 120 268.01 120.064C267.922 120.097 267.846 120.21 267.846 120.29C267.846 120.387 267.96 120.371 268.112 120.258C268.302 120.129 268.416 120.129 268.467 120.242C268.517 120.355 268.619 120.371 268.733 120.274C268.834 120.177 269.062 120.113 269.227 120.113C269.633 120.113 270.381 119.128 270.381 118.58C270.381 117.724 270.026 117.111 269.202 116.563C268.784 116.288 268.505 116.159 268.581 116.288C268.708 116.482 268.708 116.546 268.581 116.595C268.277 116.74 267.732 116.385 267.681 116.03C267.63 115.723 267.63 115.723 267.605 116.078Z" fill="#003479"/>
<path d="M261.964 116.32C261.698 116.837 261.698 116.804 262.154 117.047C262.471 117.224 262.572 117.224 262.724 117.03C262.876 116.837 262.876 116.724 262.75 116.353C262.547 115.804 262.23 115.788 261.964 116.32Z" fill="#003479"/>
<path d="M255.475 116.481C255.424 116.627 255.209 116.836 254.993 116.966C254.778 117.095 254.499 117.288 254.385 117.401C254.195 117.563 254.106 117.563 253.903 117.401C253.675 117.224 253.637 117.224 253.675 117.482C253.7 117.643 253.624 117.789 253.472 117.821C253.282 117.869 253.244 117.821 253.308 117.547C253.346 117.353 253.333 117.208 253.269 117.208C253.219 117.208 253.143 117.369 253.105 117.547C253.054 117.789 252.965 117.869 252.839 117.805C252.712 117.74 252.636 117.789 252.636 117.95C252.636 118.079 252.56 118.224 252.458 118.273C252.04 118.483 251.799 120.177 252.129 120.677C252.509 121.258 253.003 121.436 253.929 121.323C254.537 121.242 254.765 121.161 254.651 121.065C254.512 120.936 254.524 120.871 254.715 120.677C255.019 120.387 255.323 120.371 255.526 120.629C255.716 120.871 255.716 120.677 255.526 120.29C255.298 119.822 255.576 119.144 255.982 119.144C256.337 119.144 256.527 118.902 256.286 118.773C256.185 118.708 256.248 118.628 256.438 118.547C256.743 118.434 256.743 118.418 256.324 118.337C255.754 118.224 255.589 117.708 255.957 117.127C256.096 116.901 256.172 116.659 256.122 116.594C256.084 116.53 255.982 116.611 255.919 116.772C255.741 117.159 255.5 117.127 255.678 116.74C255.767 116.53 255.767 116.385 255.678 116.32C255.602 116.272 255.513 116.336 255.475 116.481Z" fill="#003479"/>
<path d="M262.713 117.45C262.434 117.627 262.396 117.676 262.586 117.676C263.144 117.643 263.296 117.692 263.207 117.885C263.144 118.031 263.182 118.015 263.321 117.869C263.448 117.74 263.575 117.692 263.626 117.756C263.664 117.805 263.638 117.853 263.549 117.853C263.461 117.853 263.435 117.918 263.473 118.015C263.511 118.095 263.511 118.176 263.448 118.192C263.397 118.192 263.245 118.224 263.131 118.257C263.004 118.289 262.903 118.24 262.903 118.16C262.903 118.079 262.776 118.015 262.624 118.015C262.358 118.015 262.371 118.047 262.7 118.257C263.359 118.692 264.12 118.24 263.752 117.643C263.524 117.272 263.131 117.208 262.713 117.45Z" fill="#003479"/>
<path d="M261.85 118.612C261.558 118.967 262.027 119.467 262.344 119.128C262.623 118.838 262.559 118.499 262.23 118.499C262.065 118.499 261.888 118.547 261.85 118.612Z" fill="#003479"/>
<path d="M268.113 120.823C267.986 121.016 268.011 121.129 268.214 121.388C268.366 121.581 268.531 121.727 268.582 121.727C268.797 121.727 269.114 121.129 269.038 120.855C268.937 120.532 268.315 120.516 268.113 120.823Z" fill="#003479"/>
<path d="M265.311 120.968C265.133 121.097 264.905 121.146 264.804 121.113C264.702 121.065 264.652 121.097 264.715 121.162C264.766 121.242 264.715 121.436 264.588 121.598C264.474 121.775 264.385 122.13 264.398 122.469C264.411 122.953 264.385 123.034 264.195 122.937C263.498 122.55 262.902 122.824 262.902 123.534C262.902 124.228 263.916 124.825 264.094 124.228C264.132 124.099 264.284 123.986 264.423 123.986C264.766 123.986 264.753 123.534 264.398 123.453C264.195 123.405 264.233 123.373 264.525 123.357C265.007 123.34 265.437 123.582 265.437 123.873C265.437 123.986 265.526 124.228 265.628 124.406C265.818 124.696 265.818 124.68 265.792 124.147L265.754 123.582L266.49 123.534C267.212 123.486 267.212 123.486 267.136 123.05C267.085 122.808 267.009 122.55 266.959 122.485C266.908 122.404 266.933 122.146 267.035 121.92C267.225 121.452 267.111 121.242 266.629 121.242C266.477 121.242 266.287 121.13 266.198 121C266.008 120.71 265.729 120.694 265.311 120.968Z" fill="#003479"/>
<path d="M262.713 121.065C262.675 121.146 262.7 121.259 262.776 121.323C262.928 121.436 263.156 121.291 263.156 121.065C263.156 120.871 262.814 120.871 262.713 121.065Z" fill="#003479"/>
<path d="M256.69 122.291C256.855 122.517 257.045 122.695 257.109 122.695C257.185 122.695 257.109 122.517 256.944 122.291C256.779 122.065 256.589 121.888 256.526 121.888C256.45 121.888 256.526 122.065 256.69 122.291Z" fill="#003479"/>
<path d="M257.63 123.841C257.592 123.937 257.642 124.131 257.744 124.276C257.909 124.486 257.985 124.486 258.15 124.309C258.302 124.147 258.314 124.05 258.2 123.889C258.023 123.615 257.757 123.599 257.63 123.841Z" fill="#003479"/>
<path d="M275.325 124.809C275.325 124.873 275.388 124.986 275.452 125.035C275.667 125.212 275.591 125.761 275.363 125.761C275.211 125.761 275.299 125.89 275.578 126.1C275.819 126.277 276.085 126.552 276.174 126.681C276.352 126.971 276.694 126.858 276.808 126.487C276.935 126.035 276.567 125.438 275.933 125.051C275.604 124.841 275.325 124.728 275.325 124.809Z" fill="#003479"/>
<path d="M266.185 126.891C266.134 127.633 266.476 129.134 266.666 128.989C266.781 128.908 266.781 128.924 266.603 127.811C266.476 127.02 266.21 126.439 266.185 126.891Z" fill="#003479"/>
<path d="M276.047 129.215C275.578 129.941 275.464 130.28 275.705 130.28C275.831 130.28 276.706 128.844 276.719 128.618C276.719 128.343 276.49 128.553 276.047 129.215Z" fill="#003479"/>
<path d="M269.202 129.424C269.152 129.472 268.847 129.602 268.518 129.715C267.884 129.924 267.694 130.263 267.973 130.683C268.214 131.038 268.898 130.973 269.57 130.521C270.052 130.199 270.102 130.118 269.861 130.118C269.443 130.118 269.19 129.876 269.278 129.569C269.367 129.295 269.342 129.247 269.202 129.424Z" fill="#003479"/>
<path d="M270.774 130.909C270.546 131.087 270.686 131.813 270.965 131.958C271.205 132.071 271.522 131.797 271.522 131.474C271.522 131.264 271.18 130.764 271.041 130.764C270.99 130.764 270.876 130.828 270.774 130.909Z" fill="#003479"/>
<path d="M273.043 131.458C273.043 131.603 272.992 131.732 272.916 131.732C272.853 131.732 272.789 131.829 272.789 131.958C272.789 132.087 272.625 132.232 272.409 132.297C271.978 132.426 271.953 132.49 272.232 132.991C272.333 133.184 272.409 133.475 272.384 133.636C272.32 134.056 272.828 134.604 273.385 134.717C273.778 134.782 273.956 134.734 274.209 134.475C274.627 134.056 274.691 134.072 274.691 134.524C274.691 135.024 274.919 135.282 275.35 135.282C275.616 135.282 275.756 135.169 275.857 134.879C276.06 134.314 275.819 133.668 275.401 133.668C275.236 133.668 275.071 133.588 275.046 133.475C275.02 133.378 274.919 133.346 274.843 133.41C274.729 133.491 274.729 133.62 274.83 133.878C274.97 134.233 274.97 134.233 274.716 133.911C274.374 133.459 274.26 132.781 274.501 132.539C274.716 132.313 274.754 131.893 274.564 131.893C274.501 131.893 274.387 132.055 274.298 132.232C274.158 132.571 274.146 132.555 273.601 131.877C273.208 131.377 273.043 131.264 273.043 131.458Z" fill="#003479"/>
<path d="M274.132 136.363C274.094 136.412 274.094 136.525 274.132 136.589C274.221 136.783 274.563 136.767 274.563 136.589C274.563 136.412 274.233 136.234 274.132 136.363Z" fill="#003479"/>
<path d="M270.912 138.381C270.735 138.607 270.938 139.155 271.217 139.155C271.47 139.155 271.584 138.72 271.394 138.429C271.204 138.139 271.115 138.122 270.912 138.381Z" fill="#003479"/>
<path d="M273.219 138.429C273.131 138.704 273.346 138.994 273.65 138.994C273.904 138.994 273.777 138.284 273.511 138.22C273.397 138.187 273.257 138.284 273.219 138.429Z" fill="#003479"/>
<path d="M278.696 139.107C278.518 139.349 278.632 139.801 278.873 139.801C279.038 139.801 279.127 139.688 279.127 139.494C279.127 139.188 278.835 138.929 278.696 139.107Z" fill="#003479"/>
<path d="M278.468 141.14C278.316 141.608 278.341 142.157 278.506 141.947C278.582 141.85 278.62 141.576 278.595 141.318C278.57 140.93 278.544 140.898 278.468 141.14Z" fill="#003479"/>
<path d="M91.4876 141.899C88.8764 142.431 89.8017 143.706 94.0988 145.53C101.742 148.757 115.749 152.082 129.426 153.905C134.801 154.632 142.837 155.309 145.397 155.277L146.602 155.245L145.714 155.1C132.506 152.921 123.38 150.565 108.448 145.514C99.2451 142.399 97.3438 141.899 94.3143 141.818C93.1608 141.786 91.8932 141.818 91.4876 141.899Z" fill="#003479"/>
<path d="M273.107 142.302C272.79 142.625 272.98 143.093 273.474 143.158C273.791 143.206 273.816 143.174 273.778 142.673C273.74 142.076 273.487 141.931 273.107 142.302Z" fill="#003479"/>
<path d="M273.36 143.674C273.411 143.771 273.487 143.803 273.55 143.755C273.613 143.706 273.74 143.787 273.854 143.932C273.968 144.061 274.133 144.126 274.209 144.061C274.298 143.997 274.285 144.077 274.171 144.239C274.006 144.465 273.905 144.481 273.689 144.335C273.474 144.174 273.436 144.19 273.499 144.4C273.601 144.723 274.425 144.723 274.526 144.4C274.64 143.997 274.197 143.512 273.715 143.512C273.449 143.512 273.309 143.577 273.36 143.674Z" fill="#003479"/>
<path d="M278.239 143.545C278.226 143.626 278.201 143.755 278.188 143.836C278.176 144.062 277.846 144.32 277.567 144.32C277.428 144.32 277.225 144.158 277.086 143.949C276.883 143.642 276.857 143.626 276.845 143.884C276.845 144.126 276.807 144.142 276.579 143.997C276.325 143.82 276.325 143.82 276.528 144.223C276.819 144.788 276.604 145.288 276.046 145.288C275.755 145.288 275.691 145.336 275.831 145.433C275.932 145.53 276.059 145.546 276.11 145.514C276.16 145.466 276.211 145.514 276.211 145.595C276.211 145.691 276.122 145.772 276.021 145.772C275.919 145.772 275.831 145.837 275.831 145.934C275.831 146.014 275.945 146.095 276.084 146.095C276.224 146.095 276.439 146.159 276.566 146.24C276.68 146.337 276.933 146.434 277.136 146.498C277.377 146.563 277.479 146.692 277.479 146.918C277.479 147.095 277.542 147.192 277.605 147.144C277.681 147.095 277.795 147.095 277.884 147.16C277.973 147.241 277.948 147.354 277.783 147.499C277.567 147.725 277.58 147.725 277.973 147.628C278.264 147.547 278.366 147.563 278.315 147.693C278.252 147.806 278.404 147.87 278.746 147.87C280.445 147.87 280.914 146.014 279.57 144.594C279.253 144.255 279.038 144.094 279.076 144.223C279.126 144.4 279.076 144.449 278.86 144.4C278.518 144.32 278.417 144.191 278.328 143.755C278.29 143.577 278.252 143.481 278.239 143.545Z" fill="#003479"/>
<path d="M211.312 148.629C203.427 148.742 193.629 149.339 187.481 150.065C181.752 150.727 177.949 151.42 172.524 152.792C165.578 154.535 161.014 155.1 152.243 155.277L146.982 155.374L149.746 155.745C158.467 156.907 164.995 157.391 176.327 157.714C182.931 157.908 184.591 158.069 202.312 160.135C221.909 162.426 228.956 163.104 237.119 163.459C238.641 163.524 239.629 163.508 239.769 163.411C239.972 163.266 239.959 163.233 239.693 163.153C239.059 162.943 234.394 162.201 225.889 160.942C215.026 159.328 207.217 158.102 201.171 157.053C194.58 155.907 192.488 155.439 191.677 154.89C191.373 154.696 191.36 154.696 191.639 154.503C192.564 153.873 196.126 153.712 213.023 153.518C231.58 153.325 241.911 153.099 246.107 152.792C253.915 152.227 263.371 152.776 278.163 154.664C281.586 155.084 282.714 155.164 281.7 154.906C281.092 154.745 275.4 153.551 272.409 152.97C260.367 150.581 244.573 149.129 225.699 148.677C219.716 148.532 217.637 148.532 211.312 148.629Z" fill="#003479"/>
<path d="M269.049 162.814C268.567 162.846 265.741 162.975 262.775 163.12C256.107 163.411 255.144 163.491 255.004 163.669C254.409 164.427 265.069 165.573 271.217 165.412C274.639 165.331 275.717 165.138 276.211 164.573C276.794 163.911 276.388 163.346 275.133 163.056C274.335 162.862 270.558 162.717 269.049 162.814Z" fill="#003479"/>
<path d="M148.441 164.815C146.945 164.895 145.64 164.992 145.526 165.024C145.424 165.057 146.109 165.137 147.047 165.202C154.373 165.702 160.09 166.38 175.694 168.623C184.377 169.866 187.013 170.156 186.785 169.85C186.62 169.624 184.63 169.027 180.891 168.058C174.439 166.396 168.874 165.492 162.143 164.976C158.975 164.734 151.61 164.653 148.441 164.815Z" fill="#003479"/>
<path d="M140.137 165.154C139.516 165.218 138.515 165.428 137.919 165.605L136.842 165.944L137.729 165.864C139.377 165.718 143.167 165.283 144.004 165.154C144.713 165.041 144.574 165.024 143.053 165.024C142.077 165.024 140.771 165.073 140.137 165.154Z" fill="#003479"/>
</svg>
