<svg width="32" height="42" viewBox="0 0 32 42" fill="none" xmlns="http://www.w3.org/2000/svg">
<path d="M24.8031 40.313C24.5372 39.2035 24.1649 36.8538 24.8031 36.3312C24.8031 35.4602 24.5269 32.9404 25.1405 31.4473C25.6314 29.6741 25.2632 29.7052 25.6007 28.8342C26.5825 28.1499 28.822 25.0702 27.8403 22.4571C29.7117 20.2485 29.8652 18.942 29.4663 17.8221C29.1473 16.9262 29.9879 13.9232 30.4481 12.5338C30.6219 11.8494 30.8653 10.2069 30.4481 9.11192C30.0309 8.01693 30.2742 7.72244 30.4481 7.71207C31.1537 6.86179 32.4238 4.97459 31.8593 4.228C31.1537 3.29477 30.7549 4.57019 30.4481 4.228C30.9696 3.73028 30.6628 1.73945 30.264 1.61502C30.4113 1.04263 29.8549 0.775106 29.5584 0.712891C29.3231 0.743998 28.8221 0.91198 28.6993 1.33505C28.0551 1.83277 27.2574 3.04597 27.196 2.89043C27.1347 2.73489 26.8893 3.88588 25.4166 3.9792C24.2386 4.05386 23.6986 4.81911 23.5759 5.1924C22.9112 5.87678 21.5142 7.2704 21.2443 7.36995C20.3852 8.1663 18.9024 9.11198 18.2684 9.48527C18.0434 9.5786 17.6855 9.8959 18.0536 10.4185C18.4218 10.9411 19.7614 11.3828 20.3852 11.5384C19.9966 11.7769 19.2317 12.6334 19.2808 14.1514C17.6855 15.3024 17.5934 16.329 16.7651 16.6712C15.9367 17.0133 2.00831 23.266 1.33337 26.7501C-0.924633 28.4174 0.188005 35.201 1.02657 38.3844C0.617516 39.0272 -0.0778809 40.313 0.412987 40.313C0.903856 40.313 4.54447 40.6656 6.30342 40.8419L10.1383 40.313L6.30342 39.0998L8.08282 38.3844L9.40203 36.3312C9.64747 35.8957 10.3163 34.6514 11.028 33.1583C12.6234 33.5316 16.2333 32.6709 17.8389 32.1939C17.7673 32.9924 17.7223 34.6763 18.115 35.0247C18.5077 35.3731 19.1172 37.6378 19.3728 38.7265L19.0353 39.5976L21.3056 41.7129H23.9134L25.9689 40.8419L24.8031 40.313Z" fill="black"/>
</svg>
