<svg width="388" height="59" viewBox="0 0 388 59" fill="none" xmlns="http://www.w3.org/2000/svg">
<g filter="url(#filter0_d_187_2621)">
<path d="M10.48 16.272C10.48 17.5093 10.9067 18.5333 11.76 19.344C12.6133 20.1547 13.7227 20.8587 15.088 21.456C16.4533 22.0107 17.968 22.5653 19.632 23.12C21.296 23.632 22.9387 24.2293 24.56 24.912C26.1813 25.552 27.6747 26.384 29.04 27.408C30.448 28.3893 31.5573 29.648 32.368 31.184C33.2213 32.72 33.648 34.64 33.648 36.944C33.648 40.1013 32.816 42.704 31.152 44.752C29.5307 46.8 27.3547 48.336 24.624 49.36C21.8933 50.3413 18.864 50.832 15.536 50.832C13.2747 50.832 10.9493 50.5973 8.56 50.128C6.21333 49.7013 3.888 49.04 1.584 48.144L1.904 35.984H7.216L8.56 43.728L7.728 42.192C9.008 42.7893 10.352 43.2587 11.76 43.6C13.2107 43.8987 14.6187 44.048 15.984 44.048C17.5627 44.048 19.0133 43.8347 20.336 43.408C21.6587 42.9813 22.704 42.32 23.472 41.424C24.24 40.528 24.624 39.4187 24.624 38.096C24.624 36.7733 24.2187 35.6853 23.408 34.832C22.5973 33.9787 21.488 33.2747 20.08 32.72C18.7147 32.1227 17.2213 31.5893 15.6 31.12C13.9787 30.608 12.336 30.032 10.672 29.392C9.05067 28.752 7.536 27.9413 6.128 26.96C4.76267 25.9787 3.67467 24.7413 2.864 23.248C2.05333 21.712 1.648 19.792 1.648 17.488C1.648 14.4587 2.37333 11.984 3.824 10.064C5.27467 8.10133 7.23733 6.62933 9.712 5.648C12.1867 4.66667 14.9813 4.176 18.096 4.176C20.3147 4.176 22.6187 4.41066 25.008 4.88C27.3973 5.34933 29.7867 6.05333 32.176 6.992L31.472 18.192H26.032L24.688 11.216L25.712 12.24C24.6453 11.8133 23.4933 11.4933 22.256 11.28C21.0613 11.024 19.8453 10.896 18.608 10.896C17.1573 10.896 15.8133 11.088 14.576 11.472C13.3387 11.8133 12.336 12.3893 11.568 13.2C10.8427 13.968 10.48 14.992 10.48 16.272ZM50.3985 50.768C47.4545 50.768 45.2145 49.8933 43.6785 48.144C42.1852 46.352 41.4385 43.7067 41.4385 40.208V20.624L42.5905 21.776H36.4465V16.976L42.7185 15.504L41.4385 17.04V8.336L50.4625 6.736V17.04L49.5025 15.824H59.2305L59.1025 21.776H49.5025L50.4625 20.624V38.992C50.4625 40.8267 50.7612 42.1493 51.3585 42.96C51.9558 43.7707 52.8518 44.176 54.0465 44.176C54.7292 44.176 55.4758 44.0693 56.2865 43.856C57.1398 43.6 58.0572 43.28 59.0385 42.896L60.7025 47.824C57.1185 49.7867 53.6838 50.768 50.3985 50.768ZM91.5355 45.456L90.3195 43.664L95.8235 45.392V49.936L84.6235 50.512L83.4075 44.368L84.0475 44.56C82.3408 46.6507 80.4848 48.208 78.4795 49.232C76.4742 50.256 74.4048 50.768 72.2715 50.768C69.5408 50.768 67.2795 49.8933 65.4875 48.144C63.6955 46.3947 62.7995 43.8773 62.7995 40.592C62.7995 38.16 63.3115 36.24 64.3355 34.832C65.4022 33.3813 66.9382 32.336 68.9435 31.696C70.9488 31.056 73.3808 30.736 76.2395 30.736H83.2155L82.5755 31.44V27.216C82.5755 25.2107 82.0848 23.7813 81.1035 22.928C80.1648 22.0747 78.7782 21.648 76.9435 21.648C76.0475 21.648 75.0875 21.7333 74.0635 21.904C73.0395 22.0747 71.9302 22.3307 70.7355 22.672L71.6315 21.712L70.7995 26.896H65.2315L64.7195 17.552C67.6208 16.6987 70.2662 16.08 72.6555 15.696C75.0875 15.2693 77.3062 15.056 79.3115 15.056C83.2795 15.056 86.3088 15.9093 88.3995 17.616C90.4902 19.3227 91.5355 21.968 91.5355 25.552V45.456ZM71.8235 39.696C71.8235 41.2747 72.1862 42.448 72.9115 43.216C73.6795 43.9413 74.6395 44.304 75.7915 44.304C76.8582 44.304 78.0315 43.984 79.3115 43.344C80.5915 42.6613 81.8075 41.744 82.9595 40.592L82.5755 42.128V34.832L83.2155 35.472H77.7115C75.4928 35.472 73.9568 35.8133 73.1035 36.496C72.2502 37.1787 71.8235 38.2453 71.8235 39.696ZM110.899 50.768C107.955 50.768 105.715 49.8933 104.179 48.144C102.685 46.352 101.939 43.7067 101.939 40.208V20.624L103.091 21.776H96.9465V16.976L103.219 15.504L101.939 17.04V8.336L110.963 6.736V17.04L110.003 15.824H119.731L119.603 21.776H110.003L110.963 20.624V38.992C110.963 40.8267 111.261 42.1493 111.859 42.96C112.456 43.7707 113.352 44.176 114.547 44.176C115.229 44.176 115.976 44.0693 116.787 43.856C117.64 43.6 118.557 43.28 119.539 42.896L121.203 47.824C117.619 49.7867 114.184 50.768 110.899 50.768ZM138.35 50.768C135.235 50.768 132.505 50.128 130.158 48.848C127.811 47.5253 125.977 45.584 124.654 43.024C123.374 40.4213 122.734 37.264 122.734 33.552C122.734 29.712 123.417 26.4267 124.782 23.696C126.19 20.9227 128.153 18.7893 130.67 17.296C133.187 15.8027 136.153 15.056 139.566 15.056C142.894 15.056 145.603 15.7173 147.694 17.04C149.785 18.3627 151.321 20.176 152.302 22.48C153.283 24.7413 153.774 27.3013 153.774 30.16C153.774 30.8853 153.731 31.6107 153.646 32.336C153.603 33.0613 153.518 33.8293 153.39 34.64H129.966V29.328H145.71L144.558 30.16C144.601 28.4533 144.43 26.96 144.046 25.68C143.705 24.3573 143.107 23.3333 142.254 22.608C141.443 21.8827 140.313 21.52 138.862 21.52C137.198 21.52 135.854 22.0107 134.83 22.992C133.806 23.9307 133.059 25.2107 132.59 26.832C132.163 28.4533 131.95 30.2667 131.95 32.272C131.95 34.5333 132.227 36.56 132.782 38.352C133.337 40.144 134.233 41.552 135.47 42.576C136.75 43.6 138.414 44.112 140.462 44.112C141.913 44.112 143.47 43.856 145.134 43.344C146.841 42.7893 148.611 41.9787 150.446 40.912L153.454 45.712C150.979 47.4187 148.441 48.6987 145.838 49.552C143.278 50.3627 140.782 50.768 138.35 50.768ZM198.223 45.456L197.007 43.664L202.511 45.392V49.936L191.311 50.512L190.095 44.368L190.735 44.56C189.028 46.6507 187.172 48.208 185.167 49.232C183.162 50.256 181.092 50.768 178.959 50.768C176.228 50.768 173.967 49.8933 172.175 48.144C170.383 46.3947 169.487 43.8773 169.487 40.592C169.487 38.16 169.999 36.24 171.023 34.832C172.09 33.3813 173.626 32.336 175.631 31.696C177.636 31.056 180.068 30.736 182.927 30.736H189.903L189.263 31.44V27.216C189.263 25.2107 188.772 23.7813 187.791 22.928C186.852 22.0747 185.466 21.648 183.631 21.648C182.735 21.648 181.775 21.7333 180.751 21.904C179.727 22.0747 178.618 22.3307 177.423 22.672L178.319 21.712L177.487 26.896H171.919L171.407 17.552C174.308 16.6987 176.954 16.08 179.343 15.696C181.775 15.2693 183.994 15.056 185.999 15.056C189.967 15.056 192.996 15.9093 195.087 17.616C197.178 19.3227 198.223 21.968 198.223 25.552V45.456ZM178.511 39.696C178.511 41.2747 178.874 42.448 179.599 43.216C180.367 43.9413 181.327 44.304 182.479 44.304C183.546 44.304 184.719 43.984 185.999 43.344C187.279 42.6613 188.495 41.744 189.647 40.592L189.263 42.128V34.832L189.903 35.472H184.399C182.18 35.472 180.644 35.8133 179.791 36.496C178.938 37.1787 178.511 38.2453 178.511 39.696ZM205.106 50V45.392L210.482 43.856L209.394 45.136V20.752L210.482 22.224L205.106 20.624V16.016L216.37 15.504L217.522 21.648L216.37 21.2C218.418 19.1093 220.594 17.5733 222.898 16.592C225.202 15.568 227.399 15.056 229.49 15.056C232.391 15.056 234.802 15.9733 236.722 17.808C238.642 19.6 239.581 22.3307 239.538 26V45.136L238.706 43.856L243.826 45.392V50H226.738V45.392L231.602 43.984L230.578 45.328V27.92C230.578 25.8293 230.109 24.2933 229.17 23.312C228.274 22.3307 227.079 21.84 225.586 21.84C224.434 21.84 223.175 22.16 221.81 22.8C220.445 23.44 219.101 24.4 217.778 25.68L218.354 24.336V45.328L217.522 43.984L222.194 45.392V50H205.106ZM259.542 44.752L258.902 43.984L263.83 45.392V50H246.294V45.392L251.222 43.984L250.582 44.752V21.392L251.158 21.968L246.294 20.624V16.016L259.542 15.568V44.752ZM254.806 10.576C253.227 10.576 251.947 10.128 250.966 9.232C250.027 8.336 249.558 7.056 249.558 5.392C249.558 3.6 250.048 2.27733 251.03 1.424C252.054 0.527997 253.334 0.079998 254.87 0.079998C256.363 0.079998 257.6 0.527997 258.582 1.424C259.563 2.27733 260.054 3.57867 260.054 5.328C260.054 7.07733 259.542 8.4 258.518 9.296C257.536 10.1493 256.299 10.576 254.806 10.576ZM299.629 21.008L298.349 21.328C300.397 19.2373 302.573 17.68 304.877 16.656C307.181 15.5893 309.378 15.056 311.469 15.056C314.157 15.056 316.397 15.952 318.189 17.744C320.023 19.4933 320.941 22.2027 320.941 25.872V45.136L320.109 43.856L325.229 45.392V50H308.397V45.392L313.069 43.984L311.981 45.328V27.856C311.981 25.808 311.554 24.2933 310.701 23.312C309.89 22.3307 308.823 21.84 307.501 21.84C306.391 21.84 305.154 22.1813 303.789 22.864C302.423 23.5467 301.058 24.5493 299.693 25.872L300.333 23.888C300.418 24.2293 300.461 24.5493 300.461 24.848C300.461 25.104 300.461 25.3387 300.461 25.552V45.136L299.629 43.856L304.109 45.392V50H287.853V45.392L292.525 43.984L291.501 45.328V27.856C291.501 25.808 291.074 24.2933 290.221 23.312C289.367 22.3307 288.301 21.84 287.021 21.84C285.911 21.84 284.674 22.16 283.309 22.8C281.943 23.44 280.621 24.4 279.341 25.68L279.917 24.336V45.328L279.085 43.984L283.565 45.392V50H266.669V45.392L272.045 43.856L270.957 45.136V20.752L272.045 22.224L266.669 20.624V16.016L277.933 15.504L279.085 21.648L277.933 21.2C279.938 19.1947 282.071 17.68 284.333 16.656C286.637 15.5893 288.834 15.056 290.925 15.056C292.887 15.056 294.637 15.5467 296.173 16.528C297.709 17.4667 298.861 18.96 299.629 21.008ZM356.723 45.456L355.507 43.664L361.011 45.392V49.936L349.811 50.512L348.595 44.368L349.235 44.56C347.528 46.6507 345.672 48.208 343.667 49.232C341.662 50.256 339.592 50.768 337.459 50.768C334.728 50.768 332.467 49.8933 330.675 48.144C328.883 46.3947 327.987 43.8773 327.987 40.592C327.987 38.16 328.499 36.24 329.523 34.832C330.59 33.3813 332.126 32.336 334.131 31.696C336.136 31.056 338.568 30.736 341.427 30.736H348.403L347.763 31.44V27.216C347.763 25.2107 347.272 23.7813 346.291 22.928C345.352 22.0747 343.966 21.648 342.131 21.648C341.235 21.648 340.275 21.7333 339.251 21.904C338.227 22.0747 337.118 22.3307 335.923 22.672L336.819 21.712L335.987 26.896H330.419L329.907 17.552C332.808 16.6987 335.454 16.08 337.843 15.696C340.275 15.2693 342.494 15.056 344.499 15.056C348.467 15.056 351.496 15.9093 353.587 17.616C355.678 19.3227 356.723 21.968 356.723 25.552V45.456ZM337.011 39.696C337.011 41.2747 337.374 42.448 338.099 43.216C338.867 43.9413 339.827 44.304 340.979 44.304C342.046 44.304 343.219 43.984 344.499 43.344C345.779 42.6613 346.995 41.744 348.147 40.592L347.763 42.128V34.832L348.403 35.472H342.899C340.68 35.472 339.144 35.8133 338.291 36.496C337.438 37.1787 337.011 38.2453 337.011 39.696ZM375.958 44.752L375.318 43.984L380.246 45.392V50H362.774V45.392L367.702 43.984L366.998 44.752V6.032L367.574 6.672L362.774 5.328V0.719997L375.958 0.207996V44.752Z" fill="url(#paint0_linear_187_2621)"/>
</g>
<defs>
<filter id="filter0_d_187_2621" x="0.583984" y="0.0800781" width="386.662" height="58.752" filterUnits="userSpaceOnUse" color-interpolation-filters="sRGB">
<feFlood flood-opacity="0" result="BackgroundImageFix"/>
<feColorMatrix in="SourceAlpha" type="matrix" values="0 0 0 0 0 0 0 0 0 0 0 0 0 0 0 0 0 0 127 0" result="hardAlpha"/>
<feOffset dx="3" dy="4"/>
<feGaussianBlur stdDeviation="2"/>
<feComposite in2="hardAlpha" operator="out"/>
<feColorMatrix type="matrix" values="0 0 0 0 0 0 0 0 0 0 0 0 0 0 0 0 0 0 0.25 0"/>
<feBlend mode="normal" in2="BackgroundImageFix" result="effect1_dropShadow_187_2621"/>
<feBlend mode="normal" in="SourceGraphic" in2="effect1_dropShadow_187_2621" result="shape"/>
</filter>
<linearGradient id="paint0_linear_187_2621" x1="309.296" y1="67" x2="-34.256" y2="67" gradientUnits="userSpaceOnUse">
<stop stop-color="#003479"/>
<stop offset="1" stop-color="#CDD9E7"/>
</linearGradient>
</defs>
</svg>
