<svg width="378" height="154" viewBox="0 0 378 154" fill="none" xmlns="http://www.w3.org/2000/svg">
<path d="M303.651 0.168846C303.035 0.742824 302.769 2.32476 302.916 4.51568C303.035 6.22361 303.021 6.83959 302.867 7.16158C302.706 7.50456 302.552 7.60256 301.992 7.70055C301.481 7.79155 301.271 7.94555 301.138 8.32353C301.033 8.64552 301.047 9.59048 301.173 10.3395L301.264 10.9134L300.879 11.1724C298.191 12.9504 295.734 15.9532 294.103 19.4531C291.478 25.0669 290.114 32.2066 289.89 41.4043C289.841 43.4202 289.82 43.6722 289.694 43.9592C289.617 44.1341 289.064 45.0021 288.469 45.8911C286.173 49.2859 285.361 51.6589 285.228 55.3407L285.193 56.4047L284.815 57.1956C281.518 64.1884 281.112 74.009 283.625 86.2725C284.234 89.2474 284.227 89.2124 284.185 89.9474C284.164 90.3114 284.052 91.1303 283.933 91.7673C283.625 93.4472 283.534 94.5812 283.639 95.6942C283.891 98.459 284.99 101.308 287.293 105.172C289.421 108.735 290.674 110.24 291.002 109.624C291.233 109.183 290.925 107.328 290.198 104.829C290.1 104.486 290.03 104.199 290.037 104.185C290.051 104.178 290.31 104.864 290.611 105.718C292.577 111.248 293.921 114.649 294.229 114.838C294.369 114.922 294.439 114.705 294.397 114.306C294.376 114.096 294.278 113.375 294.18 112.703C294.082 112.032 294.012 111.423 294.026 111.339C294.061 111.122 294.257 111.514 294.817 112.941C295.377 114.362 295.524 114.656 296.007 115.391C296.469 116.084 296.973 116.567 297.484 116.805C298.03 117.05 298.779 117.015 299.57 116.693C300.249 116.42 300.312 116.448 300.312 117.078C300.312 117.631 300.487 118.121 300.935 118.807C301.439 119.577 301.992 120.2 303.777 122.006C305.758 124.008 306.822 125.149 306.822 125.275C306.822 125.415 306.038 126.948 305.534 127.802C304.4 129.706 303.315 130.749 301.901 131.281C301.453 131.449 301.39 131.456 300.956 131.379C300.284 131.26 299.276 131.337 298.59 131.554C297.26 131.981 296.035 133.157 295.209 134.802C294.936 135.348 294.488 136.44 294.53 136.475C294.544 136.489 294.635 136.363 294.74 136.195C295.027 135.691 295.783 135.054 296.497 134.704C297.344 134.284 298.156 134.116 299.388 134.116H300.312L300.263 134.305C300.235 134.417 300.214 134.753 300.214 135.068C300.214 136.391 300.984 137.056 302.517 137.056C303.553 137.056 304.771 136.776 306.962 136.041C308.397 135.565 308.572 135.523 308.572 135.691C308.572 135.747 308.684 135.824 308.838 135.859C309.314 135.999 310.392 135.943 312.59 135.684L313.003 135.635L312.723 136.013C312.072 136.902 311.561 138.05 311.197 139.47C310.987 140.296 310.7 141.941 310.763 142.004C310.777 142.018 310.875 141.864 310.98 141.675C311.085 141.479 311.449 140.933 311.785 140.464C312.121 139.995 312.52 139.428 312.667 139.204C312.856 138.924 312.975 138.805 313.045 138.833C313.108 138.854 313.346 138.938 313.577 139.022C313.822 139.113 314.235 139.19 314.564 139.211C315.831 139.281 317.097 138.721 319.246 137.133C321.29 135.614 322.06 135.264 323.173 135.348C323.677 135.39 323.782 135.376 324.069 135.243C324.825 134.872 325.385 134.088 326.554 131.757C327.303 130.266 327.674 129.706 327.912 129.706C327.968 129.706 328.108 129.818 328.22 129.958C328.766 130.644 328.927 130.721 329.396 130.546C329.655 130.448 330.215 129.86 330.859 129.027C331.356 128.369 331.608 128.152 331.727 128.271C331.79 128.327 331.783 128.635 331.713 130.336C331.643 131.869 331.685 132.429 331.888 132.66L332.021 132.821L332.287 132.534C332.427 132.373 332.777 131.834 333.064 131.323C334.009 129.636 334.38 129.258 334.723 129.657C334.807 129.762 334.912 130.007 334.954 130.21C334.989 130.413 335.073 130.847 335.136 131.176C335.388 132.499 335.626 132.1 335.976 129.748C336.298 127.627 336.487 126.528 336.571 126.311L336.655 126.101L336.746 126.311C336.795 126.423 336.872 126.836 336.914 127.221C337.166 129.44 337.551 130.686 338.181 131.316C338.489 131.624 338.909 131.771 339.301 131.708C339.742 131.638 340.512 131.19 341.191 130.616C341.555 130.308 341.891 130.056 341.94 130.056C342.073 130.056 342.052 130.245 341.814 131.155C341.401 132.716 341.541 133.899 342.276 135.033C342.444 135.292 342.968 135.922 343.444 136.426C343.92 136.93 344.347 137.42 344.403 137.504C344.494 137.658 344.48 137.728 344.207 138.344C343.794 139.288 343.563 140.226 343.563 141.024C343.556 141.773 343.675 142.207 344.032 142.725L344.27 143.068L344.193 143.824C343.969 145.952 344.48 149.116 345.306 150.754C345.642 151.412 346.447 152.406 346.559 152.294C346.573 152.28 346.531 152.126 346.475 151.958C346.16 151.09 346.146 149.97 346.405 147.87C346.65 145.917 346.587 146.099 346.986 146.043C348.127 145.875 349.107 145.084 350.017 143.586C350.64 142.564 351.284 140.926 351.69 139.33C351.781 138.98 351.865 138.686 351.872 138.679C351.942 138.581 352.761 139.183 353.503 139.876C353.986 140.331 354.616 140.877 354.896 141.094C355.477 141.535 356.352 141.962 357.01 142.13C357.668 142.298 357.878 142.459 358.333 143.138C358.956 144.055 359.523 144.524 360.622 144.993C361.343 145.308 362.603 145.686 363.562 145.882C364.409 146.05 364.5 146.113 364.815 146.729C365.263 147.59 365.466 148.955 365.529 151.454C365.55 152.469 365.592 153.295 365.62 153.295C365.648 153.295 365.788 153.176 365.928 153.029C366.432 152.532 366.803 151.566 366.95 150.355C367.202 148.255 366.712 145.217 365.858 143.649C365.648 143.264 365.62 143.159 365.662 142.879C365.76 142.116 365.186 141.248 363.149 139.085C362.582 138.49 362.134 138.001 362.141 137.994C362.148 137.987 362.533 137.91 362.995 137.833C365.445 137.399 366.978 136.923 367.706 136.37C367.839 136.265 368.028 135.999 368.175 135.691C368.685 134.606 369.476 134.34 370.54 134.9C371.107 135.194 372.094 136.181 372.71 137.056C372.962 137.42 373.214 137.784 373.27 137.854C373.361 137.987 373.375 137.973 373.48 137.651C373.739 136.895 373.564 135.845 373.053 135.054C372.143 133.661 370.295 132.73 367.762 132.394C367.118 132.31 366.593 132.289 365.585 132.317C364.024 132.366 362.876 132.52 360.867 132.968C358.683 133.451 358.739 133.444 358.382 133.29C358.018 133.122 357.64 132.674 357.213 131.89C357.052 131.596 356.793 131.141 356.646 130.882C356.324 130.343 356.331 130.161 356.674 129.475C357.038 128.747 357.535 128.306 358.004 128.306C358.55 128.306 358.956 128.824 359.32 129.993C359.53 130.665 359.74 131.036 359.908 131.036C360.307 131.036 360.699 130.238 361.518 127.781C361.847 126.78 362.155 125.912 362.19 125.856C362.316 125.667 362.4 125.919 362.4 126.465C362.4 126.738 362.428 127.046 362.47 127.151C362.526 127.305 362.561 127.319 362.68 127.256C363.114 127.025 363.674 125.73 365.886 119.927C366.068 119.458 366.222 119.087 366.236 119.101C366.25 119.115 366.215 119.346 366.152 119.619C366.033 120.123 366.012 120.585 366.082 120.774C366.299 121.334 367.678 119.976 369.784 117.127C370.568 116.063 370.687 115.993 372.185 115.664C373.97 115.265 374.649 114.971 375.174 114.355C375.608 113.851 375.727 113.417 375.734 112.396C375.734 111.906 375.755 111.507 375.79 111.507C375.818 111.507 376.014 111.346 376.217 111.157C377.407 110.037 377.673 107.216 377.057 102.267C376.56 98.2421 375.636 93.8322 373.564 85.5725C372.29 80.4837 372.164 79.9378 372.255 79.9378C372.283 79.9378 372.423 80.1688 372.57 80.4487C372.71 80.7357 372.913 81.0437 373.011 81.1347C373.186 81.3027 373.193 81.3027 373.291 81.1697C373.438 80.9597 373.417 79.5878 373.214 77.3129C373.032 75.2269 372.997 74.156 373.109 73.988C373.172 73.897 373.2 73.904 373.312 74.037C373.389 74.128 373.466 74.198 373.487 74.198C373.508 74.198 373.529 73.939 373.529 73.631C373.529 72.742 373.207 71.2861 372.332 68.2132C371.807 66.3793 371.807 66.3723 372.059 66.8833L372.262 67.3032V66.9533C372.269 66.1553 371.905 64.4964 371.317 62.6974C370.862 61.3045 370.463 60.2335 369.413 57.5736C368.329 54.8367 368.175 54.3048 368.524 54.5987C368.657 54.7107 368.601 54.5777 367.944 53.1848C366.992 51.1899 365.788 49.125 364.801 47.788C363.261 45.7231 362.092 44.6031 358.55 41.8382L356.905 40.5573L356.828 39.5073C356.569 36.2105 355.379 32.5076 353.104 27.9648C351.305 24.3669 348.288 19.5581 346.881 18.0532L346.573 17.7242L346.909 17.4092C347.224 17.1082 347.245 17.0662 347.245 16.7442C347.245 16.4292 347.203 16.3242 346.776 15.7012C346.237 14.9173 346.09 14.6023 346.09 14.2453C346.09 13.8813 346.23 13.5943 346.636 13.1323C346.839 12.9084 347.056 12.5584 347.133 12.3484C347.518 11.3334 347.511 9.79347 347.133 8.65252C346.853 7.81955 346.461 7.51156 345.852 7.64456C345.18 7.78455 345.229 7.51156 346.076 6.4266C346.923 5.34165 347.112 5.05466 347.245 4.63467C347.413 4.13769 347.308 3.8857 346.867 3.68971C346.58 3.56371 346.391 3.54972 345.173 3.54272C343.92 3.53572 343.78 3.52172 343.647 3.40272C343.472 3.24173 343.458 2.94074 343.605 2.52075C343.815 1.92578 343.724 1.90478 342.723 2.31076C342.339 2.46476 341.996 2.59075 341.961 2.59075C341.8 2.59075 341.919 2.32476 342.304 1.78578C342.793 1.12081 342.842 0.952816 342.583 0.924817C342.374 0.903817 341.471 1.2818 340.666 1.73679C338.979 2.68175 338.09 3.68271 337.215 5.64263C336.732 6.70659 336.774 6.68559 335.031 6.68559C333.47 6.67859 333.022 6.6226 328.346 5.80363C323.817 5.01966 324.531 5.07566 319.26 5.09666C314.165 5.11765 313.78 5.09666 312.947 4.69767C312.716 4.58567 312.31 4.29869 312.037 4.0607C310.91 3.06673 309.734 2.44376 307.606 1.72279C306.045 1.19081 305.394 0.882818 304.939 0.462834C304.764 0.294841 304.547 0.126847 304.463 0.0778494C304.204 -0.0551455 303.847 -0.0131471 303.651 0.168846Z" fill="black"/>
<path d="M294.186 137.272C294.088 137.58 294.011 137.888 294.018 137.951C294.018 138.014 294.088 137.832 294.179 137.545C294.263 137.258 294.361 136.95 294.389 136.859C294.417 136.775 294.424 136.705 294.403 136.705C294.382 136.705 294.284 136.957 294.186 137.272Z" fill="black"/>
<path d="M25.8824 62.0394C26.8137 62.1714 27.6206 62.4278 28.5029 62.8765C29.0081 63.1329 29.1741 63.197 29.389 63.2309C29.5322 63.2498 29.6944 63.2762 29.7396 63.2875C29.8829 63.3176 29.8037 63.2422 29.5172 63.0726C29.0006 62.7747 28.5331 62.5899 27.1455 62.1413C26.9457 62.0772 28.5029 62.1149 28.9931 62.1865C29.8452 62.3147 30.6483 62.5635 31.3647 62.9217C31.7757 63.1253 32.4016 63.5099 32.6354 63.7022C32.7673 63.8078 32.8804 63.8493 33.3329 63.9586C33.6308 64.0303 33.9098 64.1019 33.9513 64.117C34.0191 64.1434 34.0229 64.1396 33.9739 64.0793C33.8796 63.9624 33.1896 63.5288 32.7334 63.295L32.2922 63.0688L32.609 63.0914C33.9362 63.197 35.1804 63.7098 36.3078 64.6185C36.5642 64.8258 36.7904 64.9767 36.9488 65.0408C37.0845 65.0935 37.2014 65.1313 37.2127 65.1237C37.2241 65.1124 37.1298 65.0106 37.0054 64.8975C36.3757 64.3244 35.8704 63.9699 35.1578 63.5967C34.9278 63.476 34.7582 63.378 34.7732 63.378C34.8562 63.378 35.4331 63.5439 35.8931 63.6985C36.9413 64.0567 37.6086 64.4563 38.7398 65.4027C39.739 66.236 40.0444 66.4434 40.7759 66.779L41.0021 66.8845L40.5911 66.4886C40.1198 66.0286 39.2865 65.3499 38.457 64.7542C38.1441 64.5242 37.8575 64.3168 37.8198 64.2904C37.718 64.2075 38.7775 64.7655 39.4373 65.1426C40.6401 65.8288 41.5526 66.4886 42.3218 67.2314C42.7139 67.6047 43.2116 68.1891 43.3888 68.4719C43.4341 68.5473 43.6527 68.7585 43.8752 68.9432C44.4521 69.4221 44.4483 69.4183 44.339 69.2411C43.7282 68.2231 42.8647 67.1598 42.1144 66.4886L41.8693 66.2699L42.0578 66.3755C42.7629 66.7676 43.7583 67.6047 44.5765 68.4945C45.9188 69.9613 46.9783 71.5072 47.8304 73.2491C48.0077 73.6111 48.1585 73.8976 48.1698 73.8901C48.1962 73.8637 47.9813 73.1662 47.789 72.6534C47.5137 71.9181 47.3403 71.526 46.8237 70.4967C46.556 69.9613 46.3373 69.5126 46.3373 69.5013C46.3373 69.4711 47.0462 70.4816 47.4685 71.1075C48.215 72.2198 48.8221 73.4188 49.2067 74.5311C49.35 74.9458 49.5837 75.8545 49.6365 76.1901C49.6893 76.5219 49.6968 76.2995 49.6591 75.6999C49.5196 73.6563 48.9804 72.0049 47.9586 70.4665C47.5929 69.916 47.6231 69.9349 48.1811 70.6249C49.2218 71.8955 49.9683 73.5055 50.3303 75.2626C50.3906 75.5604 50.4547 75.8998 50.466 76.0242C50.4849 76.175 50.5414 76.3334 50.6545 76.5332C50.8996 76.9781 51.2578 77.9283 51.42 78.5731C51.6198 79.346 51.6914 79.9681 51.6914 80.8542C51.6914 82.6603 51.337 84.1157 50.089 87.4714C49.6252 88.7119 49.2708 89.7375 49.2934 89.7601C49.3123 89.7827 49.9419 88.399 50.7827 86.4798C52.3475 82.9204 53.0978 81.3896 53.769 80.3904L53.9537 80.119V79.5798C53.9537 77.7473 54.3345 76.1713 55.0208 75.1645C55.2583 74.8139 55.7108 74.3652 56.0652 74.1276C57.0757 73.4527 58.4595 73.2567 60.1185 73.5583L60.5257 73.6299L60.7293 73.449C61.0724 73.1435 61.5513 72.955 61.9887 72.955C62.46 72.955 63.1424 73.219 63.6627 73.6036C63.806 73.7091 64.1378 74.0108 64.398 74.2709C65.2388 75.1155 65.9213 76.126 66.6528 77.5965L67.0939 78.4863L67.4332 78.5354C69.1111 78.7616 70.8078 79.3234 72.2972 80.1491C73.8657 81.0163 75.1741 82.0268 76.6898 83.5463C78.379 85.2393 79.7741 87.0152 82.0703 90.3936C82.4662 90.9742 82.8847 91.6077 83.0016 91.8037C83.9442 93.3609 84.2572 94.6693 83.8877 95.5327C83.6464 96.0945 83.1072 96.4678 82.4398 96.5395C82.2324 96.5621 81.9836 96.5206 81.7762 96.4301C81.731 96.4113 81.6819 96.4641 81.5726 96.6375C81.2596 97.1427 80.7205 97.6668 80.0531 98.1155C79.8796 98.2324 79.7175 98.3342 79.6987 98.338C79.676 98.3455 79.9287 98.6245 80.2605 98.9526C80.6375 99.3334 80.9844 99.7218 81.1955 100.008C81.3803 100.257 81.5387 100.476 81.5537 100.491C81.5688 100.506 81.7649 100.457 81.9911 100.378C82.3531 100.257 82.4473 100.238 82.7603 100.242C83.3372 100.242 83.6388 100.389 84.457 101.068C85.1508 101.645 85.2714 101.724 85.4637 101.724C85.7428 101.724 86.1537 101.833 86.5119 102.007C87.1001 102.289 87.5865 102.821 87.7751 103.383C87.8957 103.741 87.8618 104.175 87.6959 104.401C87.6619 104.45 87.6846 104.51 87.8052 104.699C88.0578 105.091 88.0654 105.408 87.8241 105.755C87.5187 106.192 86.6514 106.705 85.5316 107.104C85.3846 107.157 85.2488 107.217 85.2224 107.244C85.1998 107.267 85.1282 107.417 85.0678 107.576C84.8491 108.126 84.5136 108.556 84.2006 108.688C84.0083 108.767 83.6841 108.76 83.4201 108.665C83.2165 108.594 83.1939 108.594 83.1637 108.647C83.1449 108.68 83.0242 108.835 82.896 108.993C82.3719 109.642 81.5764 110.147 80.8298 110.306C80.4377 110.388 79.7703 110.362 79.4423 110.245C78.9936 110.091 78.5864 109.808 78.2847 109.446C78.2131 109.355 78.1377 109.28 78.1188 109.272C78.0396 109.242 77.4929 110.241 77.3836 110.611C77.3232 110.811 77.3157 110.822 77.2855 110.735C77.2629 110.683 77.2403 110.502 77.229 110.332L77.2064 110.023L77.0631 110.204C76.8444 110.475 76.539 111.014 76.3316 111.478C76.2336 111.701 76.1393 111.9 76.1205 111.923C76.1016 111.942 76.0865 111.712 76.0865 111.384C76.0865 111.067 76.079 110.811 76.0677 110.811C76.0262 110.811 74.1485 112.379 74.0391 112.507C73.7073 112.896 73.4283 113.559 73.3001 114.257L73.2323 114.638L73.1682 114.43C73.0928 114.178 72.9947 113.639 72.9947 113.465C72.9947 113.394 72.9834 113.337 72.9721 113.337C72.9608 113.337 72.6705 113.556 72.3236 113.823C69.9934 115.622 68.0214 116.87 66.3021 117.639C65.2803 118.099 63.9908 118.484 63.2178 118.563C63.0783 118.578 62.9577 118.601 62.9464 118.616C62.92 118.661 63.0293 119.023 63.1462 119.272C63.4931 120.011 64.0662 120.52 64.8505 120.788L65.0955 120.87L64.9108 120.897C64.53 120.957 63.8211 120.848 63.4026 120.671C63.3423 120.644 63.3385 120.652 63.3611 120.731C63.4064 120.897 63.9003 121.281 64.4093 121.549L64.6242 121.666L64.4508 121.692C64.3527 121.708 64.1001 121.708 63.8852 121.696L63.4968 121.677L63.5647 121.817C63.6891 122.054 63.9455 122.345 64.1868 122.518C64.4282 122.688 64.9372 122.952 65.039 122.956C65.1785 122.959 64.8844 123.031 64.5978 123.061C64.3075 123.091 63.8287 123.065 63.6062 123.008L63.5119 122.986L63.4516 123.732C63.4064 124.256 63.4026 124.505 63.429 124.573C63.4478 124.626 63.478 124.878 63.4931 125.139C63.527 125.678 63.6288 126.206 63.8173 126.801C64.0172 127.435 64.1642 127.755 64.53 128.366C64.5677 128.427 64.4357 128.313 64.2396 128.114C63.9267 127.797 63.6514 127.431 63.3121 126.873L63.2291 126.741V127.08C63.2291 127.657 63.38 128.494 63.5685 128.996C63.61 129.101 63.6364 129.196 63.6288 129.203C63.5987 129.23 63.0821 128.528 62.92 128.246L62.7578 127.963L62.6937 128.313C62.5316 129.188 62.5278 130.093 62.6862 130.693C62.7465 130.926 62.9162 131.296 63.0482 131.484C63.0896 131.545 63.116 131.598 63.1085 131.609C63.0746 131.639 62.6485 131.303 62.4788 131.111C62.3883 131.009 62.2375 130.813 62.1432 130.67C62.049 130.53 61.9698 130.417 61.9623 130.417C61.9585 130.417 61.8831 130.632 61.7926 130.896C61.7059 131.164 61.5324 131.658 61.408 132.001L61.1855 132.623L61.2082 134.09C61.2195 134.9 61.2157 135.545 61.1968 135.523C61.1818 135.504 61.0423 135.191 60.8914 134.829C60.7444 134.467 60.6124 134.161 60.6049 134.154C60.5973 134.146 60.5747 134.188 60.5521 134.248C60.1562 135.293 59.0137 137.849 58.1013 139.719C57.7732 140.387 57.6337 140.711 57.6677 140.722C57.6941 140.733 57.8637 140.752 58.0485 140.767C58.4934 140.801 59.255 140.745 60.9857 140.541C61.7737 140.447 62.7729 140.338 63.2065 140.296L63.9946 140.221L64.3603 139.866C65.3255 138.927 65.8383 138.871 66.6754 139.598C66.8526 139.753 67.0185 139.881 67.0449 139.881C67.0713 139.881 67.29 139.795 67.5275 139.689C68.7567 139.146 69.145 139.014 69.5372 139.014C69.8275 139.014 70.1555 139.146 70.4496 139.384C71.3772 140.134 72.7308 141.412 73.2473 142.03C73.8883 142.803 74.1146 143.35 73.8996 143.625C73.6206 143.976 72.4329 143.818 71.2641 143.267C70.7173 143.011 70.3742 142.901 69.8803 142.822C69.6201 142.781 69.3449 142.713 69.2695 142.675C69.1149 142.596 68.915 142.396 68.7454 142.155L68.6323 141.997L68.6134 142.268C68.5946 142.588 68.4664 142.871 68.2514 143.098C67.9611 143.399 67.6934 143.49 67.3465 143.403C66.7319 143.252 65.4009 143.286 58.8742 143.633C58.2936 143.663 57.3434 143.701 56.7627 143.712C55.805 143.735 55.6806 143.742 55.4242 143.821C54.2101 144.195 51.9139 144.436 48.758 144.523C46.1186 144.594 43.0532 144.459 42.3142 144.236C42.2049 144.202 42.0541 144.191 41.8919 144.206C41.6091 144.229 40.7419 144.165 40.2668 144.085C40.0896 144.055 39.6673 143.999 39.3242 143.953C37.4352 143.72 35.6367 143.328 33.8947 142.766C33.5252 142.645 33.2236 142.577 32.8013 142.521C31.2931 142.313 30.275 142.061 29.5662 141.721C29.3927 141.638 29.2608 141.563 29.2645 141.559C29.2721 141.552 29.4116 141.578 29.5775 141.619C29.947 141.706 30.5126 141.767 30.95 141.767L31.2742 141.763L30.6144 141.431C30.2524 141.246 29.8867 141.061 29.8037 141.02C29.7208 140.975 29.2947 140.828 28.8611 140.688C27.3265 140.206 26.35 139.727 25.5242 139.063C25.2263 138.822 24.7362 138.328 24.5854 138.117C24.5062 138.004 24.5401 138.019 24.8304 138.234C25.2 138.513 25.7316 138.799 26.184 138.973C26.5272 139.108 27.0324 139.255 27.055 139.229C27.0663 139.221 26.9495 139.112 26.7986 138.991C26.6478 138.871 26.3537 138.626 26.1463 138.445C25.8937 138.226 25.6977 138.087 25.5619 138.034C25.2075 137.894 24.5929 137.559 24.2724 137.329C23.7068 136.921 23.1073 136.265 22.6813 135.575C22.5191 135.319 22.5116 135.315 22.9791 135.67C23.2808 135.903 23.9406 136.311 23.9708 136.28C23.9783 136.273 23.9029 136.167 23.7973 136.047C23.5221 135.726 23.0734 135.142 22.7906 134.735C22.6549 134.538 22.4927 134.346 22.4362 134.305C22.308 134.214 20.8752 132.597 20.5208 132.144C20.0042 131.481 19.6875 130.892 19.5329 130.289C19.4877 130.123 19.4613 129.984 19.4688 129.976C19.4763 129.969 19.5291 130.044 19.5857 130.142C19.8308 130.561 20.2267 130.987 20.6904 131.326L20.8488 131.443L20.7131 131.149C20.6377 130.983 20.4755 130.613 20.3511 130.323C20.1852 129.938 20.0457 129.686 19.8345 129.392C19.2199 128.525 18.4395 127.118 17.9455 125.987C17.7457 125.531 17.4177 124.701 17.4177 124.66C17.4177 124.645 17.5534 124.837 17.7193 125.078C18.1831 125.753 19.1106 126.967 19.1408 126.933C19.1747 126.903 18.9598 126.225 18.8806 126.096C18.6808 125.78 18.2434 124.909 18.0775 124.498C17.8211 123.868 17.6665 123.261 17.4931 122.217C17.4101 121.708 17.297 121.085 17.248 120.833C17.1952 120.58 17.1575 120.369 17.165 120.361C17.1726 120.358 17.3762 120.761 17.6213 121.263C18.2773 122.62 18.2849 122.639 18.266 122.537C18.2208 122.303 18.1303 121.353 18.0737 120.595L18.0172 119.766L17.8513 119.426C17.4591 118.623 17.2404 117.583 17.1763 116.203C17.1499 115.66 17.1122 115.622 17.4818 116.561C17.5986 116.851 17.757 117.217 17.8362 117.371L17.9832 117.654L17.9681 117.013C17.9606 116.659 17.9267 116.169 17.8965 115.916C17.6703 114.182 17.757 111.927 18.1718 108.662L18.315 107.549L18.3188 108.228C18.3301 109.668 18.4244 112.308 18.4621 112.27C18.4696 112.262 18.5865 111.682 18.7185 110.98C18.8542 110.283 19.0352 109.386 19.1181 108.986C19.269 108.273 19.269 108.262 19.2199 107.945C19.1445 107.463 19.1559 105.721 19.2388 105.072C19.367 104.039 19.6573 102.734 20.0381 101.479C20.434 100.186 20.5396 99.7708 20.566 99.4804C20.6037 99.0054 20.6754 98.5793 20.9054 97.4632C21.0222 96.8939 21.1278 96.2831 21.1391 96.1134C21.1768 95.5818 21.2673 95.9475 21.3578 96.9881C21.388 97.3388 21.4181 97.6291 21.4257 97.6404C21.4672 97.6819 21.7424 95.348 21.7575 94.8126L21.765 94.56L21.3277 93.6814C21.0826 93.1913 20.7508 92.5918 20.5698 92.3165C20.3926 92.0488 20.2455 91.8226 20.2455 91.815C20.2455 91.7886 20.9732 92.3127 21.3427 92.6068C21.569 92.7878 21.7537 92.9122 21.7537 92.8896C21.7537 92.7652 21.667 92.177 21.618 91.9583C21.5652 91.7283 21.5501 91.7057 21.3918 91.6077C21.2975 91.5511 21.1655 91.5059 21.0977 91.5059C20.9468 91.5059 20.796 91.4003 20.3511 90.9855L20.0231 90.6801L19.7591 90.8762C19.3708 91.1665 18.9522 91.4078 18.4583 91.619C18.217 91.7245 18.0096 91.8075 17.9983 91.8075C17.9832 91.8075 18.1793 91.6114 18.4319 91.3701C18.6845 91.1288 18.9975 90.7895 19.1257 90.616C19.4236 90.2201 19.7101 89.696 19.6309 89.696C19.597 89.696 19.4801 89.877 19.3406 90.1372C18.9598 90.8649 18.6845 91.159 18.0963 91.4644C17.806 91.6152 17.2367 91.8263 17.2027 91.7962C17.1952 91.7849 17.2404 91.7396 17.3045 91.6944C17.7381 91.3852 18.134 90.9403 18.2811 90.6047C18.3603 90.4124 18.4545 90.0052 18.4244 89.975C18.4168 89.9637 18.3414 89.9901 18.2547 90.024C18.0134 90.1296 17.6363 90.5972 16.6447 92.0149C15.8793 93.1083 15.5588 93.5193 15.0837 94.0057C14.6199 94.4808 14.5445 94.526 14.7444 94.1942C14.9404 93.8737 15.2609 93.2327 15.4004 92.8821C15.5588 92.4862 15.9811 91.2985 15.966 91.2872C15.9622 91.2834 15.8567 91.34 15.7322 91.4154C15.5475 91.5322 15.5022 91.5813 15.4608 91.7095C15.3778 91.9809 14.899 92.9386 14.6878 93.2554C14.0657 94.1904 13.2663 94.7937 12.1163 95.2009C11.8109 95.3065 10.7854 95.578 10.6911 95.578C10.6685 95.578 10.8532 95.4686 11.1058 95.3367C12.1465 94.79 12.8026 94.2545 13.2173 93.6136C13.3832 93.3572 13.5868 92.9386 13.5567 92.9085C13.5454 92.9009 13.3116 93.0518 13.0363 93.2403C12.6517 93.508 12.4858 93.6513 12.3275 93.8511C12.0409 94.2093 10.9513 95.2801 10.5177 95.6232C9.86536 96.1436 9.00191 96.6677 8.6324 96.7619C8.54191 96.7883 8.54191 96.7845 8.65126 96.7016C8.97929 96.4565 9.9106 95.446 9.85781 95.397C9.82388 95.3631 9.2206 95.7703 8.80962 96.1059C7.9047 96.8373 7.56535 97.0824 7.18831 97.2672C6.84519 97.4368 5.97421 97.7649 5.86863 97.7649C5.84601 97.7649 5.95535 97.6442 6.10994 97.4972C6.26453 97.3501 6.35503 97.2408 6.31355 97.2559C6.27208 97.2709 6.04962 97.3388 5.82339 97.4104C5.59339 97.4859 5.17863 97.6178 4.89962 97.7083C4.6206 97.7988 4.25863 97.9006 4.10027 97.9308C3.78732 97.9949 3.05207 98.0137 3.05207 97.9572C3.05207 97.9383 3.12748 97.878 3.22175 97.8252C3.31601 97.7686 3.39142 97.7121 3.39142 97.697C3.39142 97.6819 3.28207 97.6404 3.15011 97.6027C2.85601 97.516 2.53552 97.3577 2.32814 97.1918L2.17355 97.0711L2.19617 97.1804C2.21125 97.2445 2.23011 97.335 2.24519 97.3878C2.27912 97.5311 1.84175 97.0673 1.61552 96.7204C1.42322 96.4226 1.22339 95.9513 1.15552 95.627C1.13289 95.5177 1.09896 95.4272 1.08011 95.4272C1.06125 95.4272 1.05371 95.759 1.06125 96.1775C1.0688 96.6413 1.06125 96.9052 1.03863 96.8675C0.959451 96.728 0.752074 96.0493 0.680435 95.6949C0.522074 94.9408 0.476828 94.3488 0.503221 93.41C0.514533 92.9122 0.548467 92.3995 0.582402 92.2034C0.650271 91.8 0.695517 91.2231 0.64273 91.4304C0.574861 91.6906 0.41273 92.818 0.371254 93.3345C0.322238 93.9454 0.348631 94.7334 0.431582 95.084C0.465517 95.216 0.484369 95.3329 0.473058 95.3404C0.454205 95.3631 0.273221 94.8503 0.209123 94.5788C-0.035959 93.5683 -0.0698934 91.6793 0.129943 89.9222C0.160107 89.6621 0.205353 89.2737 0.227976 89.055C0.269451 88.6855 0.26568 88.6063 0.171418 87.9427C-0.0623525 86.2988 0.0130574 85.3034 0.457976 84.274C0.540926 84.0704 0.612566 83.8555 0.608795 83.7952C0.608795 83.7311 0.593713 83.4936 0.582402 83.2673C0.552238 82.7809 0.612566 82.385 0.793549 81.8609C1.02732 81.2011 1.57781 80.2509 2.15093 79.5345C2.27158 79.3799 2.36207 79.2517 2.35076 79.2517C2.27912 79.2517 1.77765 79.7117 1.57781 79.9568C1.31011 80.2924 1.15552 80.5865 1.01224 81.0239C0.921746 81.2991 0.906664 81.3293 0.884041 81.2426C0.838795 81.0654 0.936828 80.349 1.05371 79.9983C1.19322 79.5873 1.30634 79.3611 1.57404 78.9501C1.85306 78.5278 2.64863 77.7322 3.36126 77.1629L3.91552 76.7217L4.15683 76.2806C4.2888 76.0393 4.39437 75.8319 4.38683 75.8244C4.37175 75.8055 3.65535 76.3258 3.20289 76.684C3.00683 76.8386 2.67503 77.1365 2.47142 77.3439L2.09437 77.7247L2.22634 77.4872C2.39978 77.1667 2.9465 76.439 3.46683 75.8395C3.7006 75.568 4.42453 74.8139 5.0806 74.1616C5.7329 73.5093 6.34372 72.8721 6.44175 72.7476C6.59634 72.5478 7.10913 71.9295 7.32781 71.6768L7.40699 71.5863L7.29388 71.6504C7.04503 71.7937 6.27962 72.3517 5.89126 72.6685C5.44257 73.038 3.98339 74.4858 3.65535 74.8855C3.54224 75.025 3.44421 75.1306 3.43289 75.1231C3.41781 75.1042 3.92683 74.2634 4.26994 73.7468C5.15978 72.4121 6.21552 71.2017 7.2147 70.3722C7.43339 70.1875 7.61437 70.0329 7.61437 70.0291C7.61437 70.0065 6.95831 70.2252 6.6265 70.3572C5.85732 70.6626 4.71486 71.2922 3.74962 71.937C3.19535 72.3103 3.16519 72.314 3.53093 71.9672C5.48404 70.1158 6.71322 69.309 8.44011 68.7321C8.93027 68.5699 9.1829 68.5021 10.0463 68.3022L10.2726 68.2494L10.0275 68.2683C8.94158 68.3475 7.37306 68.6378 6.53601 68.9206C6.20421 69.0299 6.3588 68.9319 7.0865 68.5662C8.59093 67.8083 10.5516 67.1786 12.6254 66.7903C12.8026 66.7601 12.9496 66.7262 12.9609 66.7186C12.9949 66.6809 12.2445 66.6394 11.6111 66.6432C10.6949 66.647 9.97093 66.7262 8.67388 66.9637C8.33454 67.024 8.04044 67.0693 8.02158 67.0655C7.96503 67.0467 9.27339 66.5263 9.96716 66.2926C11.4188 65.8024 12.2181 65.6629 13.994 65.5875C14.9254 65.5498 15.2383 65.5272 15.3175 65.4819L15.4268 65.4291L15.1667 65.3839C14.5747 65.2821 13.4247 65.1878 12.7045 65.1878C12.4255 65.1878 12.2936 65.1727 12.3275 65.1501C12.3991 65.1124 13.2965 64.8824 13.896 64.7542C14.8122 64.5544 15.2232 64.5054 16.475 64.4526C17.3573 64.4149 17.757 64.3809 17.9003 64.3394C18.0096 64.3055 18.0888 64.264 18.0813 64.249C18.0511 64.2037 17.6778 64.1057 17.248 64.0303C16.935 63.9775 16.6108 63.9662 15.3137 63.9662C14.4578 63.9624 13.7904 63.9511 13.8244 63.936C13.8621 63.9209 14.224 63.8304 14.6275 63.7399C16.7503 63.2498 17.4139 63.1857 18.775 63.3403C19.137 63.3817 19.6988 63.427 20.0231 63.4383C20.5585 63.4609 20.6452 63.4572 20.9657 63.378C21.1618 63.3327 21.3352 63.2799 21.3503 63.2649C21.3804 63.2385 20.5811 63.0575 19.8873 62.9331L19.5103 62.8652L19.695 62.8388C20.2078 62.7672 21.5199 62.7332 22.2514 62.7747C22.6662 62.7973 23.0281 62.8275 23.047 62.8388C23.0696 62.8539 23.5899 62.8652 24.2008 62.869C24.8154 62.8727 25.5016 62.8878 25.7316 62.9029C26.2142 62.9368 26.2104 62.9217 25.6486 62.6993C25.1396 62.4994 24.4534 62.3109 23.8463 62.2129C23.5749 62.1676 23.3147 62.1186 23.2619 62.1073C22.8962 62.0168 25.2904 61.9565 25.8824 62.0394ZM50.5678 76.9178C50.6131 77.2722 50.6282 79.165 50.6018 80.8919C50.5942 81.367 50.6018 82.106 50.6206 82.5321L50.6545 83.305L50.7978 82.8186C51.42 80.7298 51.3709 78.837 50.6508 76.8085C50.5942 76.6576 50.5452 76.5408 50.5377 76.5483C50.5301 76.5558 50.5452 76.7217 50.5678 76.9178ZM1.44962 82.0645C1.1065 82.5132 0.887812 82.9845 0.808631 83.4181C0.782238 83.5614 0.786008 83.5577 0.970763 83.2862C1.07634 83.1316 1.31011 82.8262 1.49486 82.6113C1.81535 82.238 1.83044 82.2116 1.92847 81.8572C1.98503 81.6573 2.03404 81.4801 2.03404 81.4575C2.03404 81.3972 1.66076 81.7855 1.44962 82.0645ZM0.808631 85.8916C0.706828 86.1932 0.582402 86.7513 0.548467 87.0567C0.533385 87.1811 0.578631 87.0454 0.657812 86.7211C0.729451 86.427 0.831254 86.0424 0.884041 85.869C1.03486 85.3788 0.978304 85.3939 0.808631 85.8916ZM20.385 90.3483L20.1626 90.5481L20.5245 90.6349C20.8752 90.7178 21.075 90.7178 21.075 90.6349C21.075 90.5934 20.664 90.1485 20.6263 90.1485C20.615 90.1522 20.5057 90.239 20.385 90.3483ZM20.3436 101.856C20.238 102.742 20.155 103.722 20.1777 103.892C20.1814 103.952 20.3134 103.421 20.4642 102.712C20.6113 101.999 20.7281 101.403 20.7168 101.385C20.6942 101.351 20.6037 100.891 20.5622 100.612L20.5359 100.423L20.4868 100.744C20.4604 100.921 20.3926 101.418 20.3436 101.856ZM75.0232 101.769C74.5255 102.075 73.9223 102.252 72.6064 102.478C71.0416 102.753 70.5628 102.919 70.1518 103.33C69.82 103.662 69.8803 103.771 70.4044 103.79C71.1924 103.82 72.6969 103.53 75.3588 102.832L75.5926 102.772L75.6039 102.044L75.6152 101.32L75.438 101.475C75.34 101.562 75.1514 101.694 75.0232 101.769Z" fill="black"/>
</svg>
