<svg width="63" height="74" viewBox="0 0 63 74" fill="none" xmlns="http://www.w3.org/2000/svg">
<path d="M26.1612 10.3977C26.676 7.81025 20.3577 -1.45772 12.6821 5.59909C10.4356 7.66449 11.3256 13.0572 14.0393 16.1412C7.37777 21.0326 -3.2121 32.5373 7.72098 39.4248C3.97678 49.7277 9.26547 53.8206 8.56343 55.8906C7.86139 57.9606 6.03609 71.3686 21.3873 70.9922C36.7386 70.6159 35.8961 68.2636 50.7794 62.1006C65.6626 55.9377 57.7529 42.5298 58.9698 39.7541C59.9433 37.5335 53.9151 28.6357 50.7794 24.4643L53.4939 22.9589C56.2865 20.8418 60.402 15.5351 54.5236 11.2446C48.6452 6.95401 44.6014 10.3977 42.5889 14.0202C34.7261 8.84523 25.9927 11.2445 26.1612 10.3977Z" fill="#CDD9E7"/>
<path d="M16.6135 18.4895C15.8021 17.9048 14.8846 17.1017 14.0393 16.1412M14.0393 16.1412C11.3256 13.0572 10.4356 7.66449 12.6821 5.59909C20.3577 -1.45772 26.676 7.81025 26.1612 10.3977C25.9927 11.2445 34.7261 8.84523 42.5889 14.0202C44.6014 10.3977 48.6452 6.95401 54.5236 11.2446C60.402 15.5351 56.2865 20.8418 53.4939 22.9589L50.7794 24.4643C53.9151 28.6357 59.9433 37.5335 58.9698 39.7541C57.7529 42.5298 65.6626 55.9377 50.7794 62.1006C35.8961 68.2636 36.7386 70.6159 21.3873 70.9922C6.03609 71.3686 7.86139 57.9606 8.56343 55.8906C9.26547 53.8206 3.97678 49.7277 7.72098 39.4248C-3.2121 32.5373 7.37777 21.0326 14.0393 16.1412Z" stroke="#CDD9E7" stroke-width="5"/>
<path d="M23.3063 62.1948C16.7914 54.8934 14.7259 55.2635 14.5074 56.3612C13.431 57.7255 15.7243 62.5712 23.0255 67.1346C22.2767 64.8764 31.294 60.611 35.8962 58.7605C35.4438 56.5494 32.2924 54.1406 23.3063 62.1948Z" fill="#003479"/>
<path d="M25.6468 23.4766C25.9121 23.7118 26.4144 24.3328 26.3021 24.935C26.1898 25.5372 24.4768 28.6359 23.6343 30.11C21.9182 34.297 19.7029 40.4817 26.3021 42.0125C34.8202 43.9884 34.9138 39.6131 35.335 27.4284C35.6424 18.5368 45.7251 28.9809 45.2571 29.7336" stroke="#003479" stroke-width="2"/>
<ellipse cx="38.1898" cy="30.627" rx="2.29333" ry="2.44636" fill="#003479"/>
<ellipse cx="21.8617" cy="27.1812" rx="2.29333" ry="2.44636" fill="#003479"/>
<ellipse cx="3.23045" cy="2.30447" rx="3.23045" ry="2.30447" transform="matrix(0.96734 0.253482 -0.251038 0.967977 25.3516 35.0493)" fill="#003479"/>
</svg>
