<svg width="81" height="76" viewBox="0 0 81 76" fill="none" xmlns="http://www.w3.org/2000/svg">
<path fill-rule="evenodd" clip-rule="evenodd" d="M21.9218 49.2441C21.8445 49.4826 21.8027 49.7365 21.8027 50C21.8027 51.3807 22.9487 52.5 24.3623 52.5C25.7758 52.5 26.9218 51.3807 26.9218 50C26.9218 49.7365 26.8801 49.4826 26.8027 49.2441H21.9218Z" fill="#003479"/>
<path d="M24.362 42.5L26.8879 49.3895H21.8361L24.362 42.5Z" fill="#003479"/>
<path fill-rule="evenodd" clip-rule="evenodd" d="M36.9218 56.2441C36.8445 56.4826 36.8027 56.7365 36.8027 57C36.8027 58.3807 37.9487 59.5 39.3623 59.5C40.7758 59.5 41.9218 58.3807 41.9218 57C41.9218 56.7365 41.8801 56.4826 41.8027 56.2441H36.9218Z" fill="#003479"/>
<path d="M39.362 49.5L41.8879 56.3895H36.8361L39.362 49.5Z" fill="#003479"/>
<path fill-rule="evenodd" clip-rule="evenodd" d="M27.9218 71.2441C27.8445 71.4826 27.8027 71.7365 27.8027 72C27.8027 73.3807 28.9487 74.5 30.3623 74.5C31.7758 74.5 32.9218 73.3807 32.9218 72C32.9218 71.7365 32.8801 71.4826 32.8027 71.2441H27.9218Z" fill="#003479"/>
<path d="M30.362 64.5L32.8879 71.3895H27.8361L30.362 64.5Z" fill="#003479"/>
<path fill-rule="evenodd" clip-rule="evenodd" d="M52.9218 48.2441C52.8445 48.4826 52.8027 48.7365 52.8027 49C52.8027 50.3807 53.9487 51.5 55.3623 51.5C56.7758 51.5 57.9218 50.3807 57.9218 49C57.9218 48.7365 57.8801 48.4826 57.8027 48.2441H52.9218Z" fill="#003479"/>
<path d="M55.362 41.5L57.8879 48.3895H52.8361L55.362 41.5Z" fill="#003479"/>
<path fill-rule="evenodd" clip-rule="evenodd" d="M53.9218 72.2441C53.8445 72.4826 53.8027 72.7365 53.8027 73C53.8027 74.3807 54.9487 75.5 56.3623 75.5C57.7758 75.5 58.9218 74.3807 58.9218 73C58.9218 72.7365 58.8801 72.4826 58.8027 72.2441H53.9218Z" fill="#003479"/>
<path d="M56.362 65.5L58.8879 72.3895H53.8361L56.362 65.5Z" fill="#003479"/>
<ellipse cx="40.3691" cy="15.9932" rx="18.4726" ry="15.4932" fill="#CDD9E7"/>
<ellipse cx="17.7261" cy="23.7397" rx="17.2808" ry="13.7055" fill="#CDD9E7"/>
<ellipse cx="64.2062" cy="17.1852" rx="16.089" ry="14.3014" fill="#CDD9E7"/>
<ellipse cx="37.9855" cy="27.9107" rx="16.089" ry="14.3014" fill="#CDD9E7"/>
<ellipse cx="58.842" cy="28.5069" rx="13.1096" ry="12.5137" fill="#CDD9E7"/>
</svg>
