<svg width="119" height="70" viewBox="0 0 119 70" fill="none" xmlns="http://www.w3.org/2000/svg">
<path d="M63.6233 1.18645C64.021 0.61244 64.8696 0.612441 65.2673 1.18645L99.731 50.9305C100.19 51.5937 99.7158 52.5 98.909 52.5H29.9816C29.1748 52.5 28.7001 51.5937 29.1596 50.9305L63.6233 1.18645Z" fill="#9BBACE"/>
<path d="M90.6294 20.1515C91.0279 19.5891 91.8627 19.5891 92.2612 20.1515L113.71 50.4219C114.179 51.0841 113.705 52 112.894 52H69.9968C69.1851 52 68.7116 51.0841 69.1808 50.4219L90.6294 20.1515Z" fill="#9BBACE"/>
<path d="M35.1488 13.0493C35.549 12.5221 36.3416 12.5221 36.7418 13.0493L65.4711 50.8954C65.971 51.5539 65.5013 52.5 64.6746 52.5H7.21601C6.38928 52.5 5.91964 51.5539 6.4195 50.8954L35.1488 13.0493Z" fill="#9BBACE"/>
<path d="M61.9453 16L65.8424 8.5H58.0482L61.9453 16Z" fill="#CDD9E7"/>
<path d="M66.9453 16L70.8424 8.5H63.0482L66.9453 16Z" fill="#CDD9E7"/>
<path d="M63.6302 1.14716C64.0288 0.58615 64.8618 0.58615 65.2605 1.14716L70.2513 8.17076C70.7218 8.83287 70.2484 9.75 69.4362 9.75H59.4544C58.6422 9.75 58.1688 8.83287 58.6393 8.17076L63.6302 1.14716Z" fill="#CDD9E7"/>
</svg>
