<svg width="98" height="82" viewBox="0 0 98 82" fill="none" xmlns="http://www.w3.org/2000/svg">
<path d="M0.445312 81.0023V70.1071V42.4579C8.4432 45.4387 11.2117 28.993 15.3132 19.7424C42.3829 -13.2518 67.607 4.7937 77.2455 17.4363C76.1176 17.4363 69.0426 15.6721 58.3787 28.993C47.3047 49.0567 61.2839 57.7803 69.6578 59.6342C73.1559 58.0002 76.2771 56.0684 78.2709 53.867C89.8576 59.8286 91.4982 65.4503 97.4453 65.4503V79.4605V81.0023H0.445312Z" fill="#CDD9E7"/>
<path d="M37.6137 63.4025C32.4517 62.4974 21.7386 73.6533 17.0273 79.3443H73.563C44.6806 76.4645 47.0363 69.6764 37.6137 63.4025Z" fill="#003479"/>
<path d="M78.9912 59.9225C80.2202 66.7517 72.6753 69.6247 67.3154 70.7217C76.3283 75.6586 87.5945 77.407 95.788 77.5099V72.1616L94.3542 70.7217C92.5789 70.0361 85.034 67.0191 78.9912 59.9225Z" fill="#003479"/>
<path d="M77.3525 17.8398C40.4814 36.7811 60.4191 52.5004 70.4904 57.8486C67.4178 60.8312 55.5371 63.4025 52.1573 63.4025C48.7774 63.4025 45.5 57.8486 37.6137 53.7347C29.7274 49.6207 40.0718 19.6912 45.5 17.8398C48.4702 19.3826 50.4161 17.8398 55.5371 14.2401C56.8686 19.5883 60.4533 15.1657 61.0678 16.2971C62.7065 13.8287 72.6822 10.6814 77.3525 17.8398Z" fill="#003479"/>
</svg>
