<svg width="74" height="66" viewBox="0 0 74 66" fill="none" xmlns="http://www.w3.org/2000/svg">
<path fill-rule="evenodd" clip-rule="evenodd" d="M65.9931 65.5C65.9977 65.3338 66 65.1671 66 65C66 52.5736 53.2401 42.5 37.5 42.5C21.7599 42.5 9 52.5736 9 65C9 65.1671 9.00231 65.3338 9.0069 65.5H65.9931Z" fill="#9BBACE"/>
<path fill-rule="evenodd" clip-rule="evenodd" d="M0 27.127C6.63149 24.005 20.6611 21.8521 36.8963 21.8521C52.8533 21.8521 66.6797 23.9319 73.4453 26.9674C72.2778 31.3935 56.2719 34.9003 36.6983 34.9003C17.3605 34.9003 1.50508 31.4775 0 27.127Z" fill="#370C0C"/>
<circle cx="37.0117" cy="27.3379" r="16.1621" fill="#9BBACE"/>
<path fill-rule="evenodd" clip-rule="evenodd" d="M73.3401 27.1155L36.7159 5.83789L0.0917969 27.1155H1.33036C8.37045 24.7517 21.5287 23.1613 36.5994 23.1613C51.6701 23.1613 64.8284 24.7517 71.8685 27.1155H73.3401Z" fill="#037FB2"/>
<path fill-rule="evenodd" clip-rule="evenodd" d="M51.6871 16.514C51.6895 16.3982 51.6907 16.2821 51.6907 16.1657C51.6907 7.51376 45.1185 0.5 37.0113 0.5C28.9042 0.5 22.332 7.51376 22.332 16.1657C22.332 16.2821 22.3332 16.3982 22.3356 16.514H51.6871Z" fill="#037FB2"/>
<path fill-rule="evenodd" clip-rule="evenodd" d="M53.1838 15.6155C53.5647 15.1457 53.7678 14.6517 53.7678 14.1418C53.7678 11.03 46.1999 8.50732 36.8644 8.50732C27.5289 8.50732 19.9609 11.03 19.9609 14.1418C19.9609 14.6177 20.1379 15.0798 20.4711 15.5212C22.974 13.8475 29.3227 12.6588 36.7593 12.6588C44.3349 12.6588 50.7816 13.8924 53.1838 15.6155Z" fill="#003479"/>
<path fill-rule="evenodd" clip-rule="evenodd" d="M44.205 13.0623C44.1995 13.3742 44.2993 13.7076 44.5094 14.0006C44.9658 14.6373 45.7697 14.8424 46.305 14.4586C46.8402 14.0749 46.9041 13.2477 46.4476 12.6111C46.3864 12.5257 46.319 12.4482 46.2469 12.3787C46.2604 12.3639 46.2734 12.3488 46.2859 12.3333C46.3296 12.4284 46.3834 12.5215 46.4475 12.6108C46.9039 13.2475 47.7078 13.4526 48.2431 13.0689C48.7783 12.6852 48.8422 11.858 48.3857 11.2213C48.1756 10.9282 47.8919 10.7266 47.5946 10.6317C47.8458 10.2044 47.8055 9.59411 47.4506 9.09905C46.9941 8.46236 46.1902 8.25728 45.655 8.64099C45.437 8.79725 45.2972 9.02705 45.2389 9.28759C44.7824 8.65155 43.9789 8.44682 43.4439 8.83036C42.9672 9.17215 42.8644 9.86581 43.1703 10.4633C43.0902 10.4939 43.0135 10.5348 42.9416 10.5864C42.4064 10.9701 42.3426 11.7973 42.799 12.434C43.1541 12.9293 43.7195 13.1634 44.205 13.0623Z" fill="url(#paint0_radial_348_981)"/>
<defs>
<radialGradient id="paint0_radial_348_981" cx="0" cy="0" r="1" gradientUnits="userSpaceOnUse" gradientTransform="translate(45.4557 11.2279) rotate(-125.637) scale(2.55313 2.34135)">
<stop stop-color="#00C2FF"/>
<stop offset="1" stop-color="#E8E8E8"/>
</radialGradient>
</defs>
</svg>
