<svg width="782" height="736" viewBox="0 0 782 736" fill="none" xmlns="http://www.w3.org/2000/svg">
<path d="M196.205 515.145C196.892 513.207 197.144 511.085 196.766 510.428C195.023 507.401 199.976 509.652 202.097 512.853C205.831 518.48 212 533.701 212 537.282C212 542.852 204.211 548.592 199.361 546.594C195.723 545.094 193.488 522.819 196.205 515.145Z" fill="#9DB6E6"/>
<path d="M180.105 269.381C182.388 269.992 183.133 269.676 183.133 268.095C183.133 266.943 183.697 266 184.385 266C185.499 266 193.07 271.103 201.349 277.434C202.965 278.671 204.975 279.523 205.812 279.329C206.65 279.135 208.996 280.746 211.028 282.912C213.059 285.076 215.587 286.848 216.647 286.848C217.706 286.848 218.574 287.423 218.574 288.127C218.574 288.829 220.086 289.791 221.935 290.261C223.784 290.731 226.042 291.747 226.955 292.517C227.868 293.287 231.168 294.078 234.288 294.276C237.408 294.474 241.7 294.747 243.825 294.884C247.289 295.107 247.743 295.615 248.21 299.786C248.497 302.345 249.153 305.466 249.67 306.72C250.453 308.617 249.972 309 246.813 309C244.725 309 243.016 308.561 243.016 308.023C243.016 307.485 240.51 306.942 237.446 306.816C234.382 306.69 231.123 305.921 230.204 305.108C229.285 304.295 227.803 303.758 226.914 303.914C224.513 304.336 220.663 302.296 218.504 299.458C217.066 297.569 214.823 296.892 209.339 296.694C205.344 296.551 200.316 295.448 198.165 294.247C196.013 293.044 193.591 292.061 192.78 292.061C191.97 292.061 189.605 290.707 187.525 289.053C185.445 287.4 181.679 285.024 179.153 283.776C175.489 281.965 174.673 280.927 175.105 278.639C177.062 268.292 176.932 268.532 180.105 269.381Z" fill="#75D0D1"/>
<path d="M660.398 96.4509C658.379 94.0021 656.729 91.6215 656.729 91.1592C656.729 90.2609 661.54 93.2779 666.559 97.3256C671.664 101.441 685.078 107.403 689.232 107.403C694.101 107.403 701.291 114.345 697.87 115.743C696.759 116.198 694.822 116.57 693.565 116.57C690.939 116.57 689.813 118.14 688.789 123.221L688.064 126.825L680.691 123.1C674.066 119.753 673.044 119.563 670.617 121.231C668.933 122.389 667.633 122.6 667.165 121.793C665.85 119.525 662.829 120.399 661.806 123.341C661.124 125.305 660.534 125.693 659.898 124.593C659.39 123.718 659.637 122.152 660.447 121.112C661.257 120.073 661.638 118.442 661.295 117.488C660.84 116.225 661.639 115.906 664.229 116.31C668.034 116.905 668.489 115.916 666.644 111.066C666.015 109.412 665.178 106.449 664.784 104.481C664.389 102.514 662.416 98.9009 660.398 96.4509Z" fill="#CDD9E7"/>
<path d="M668.655 131.601C667.219 133.251 665.4 132.005 665.349 129.337C665.327 128.153 665.783 128.119 668.248 129.128C669.733 129.735 669.821 130.263 668.655 131.601Z" fill="#CDD9E7"/>
<path d="M673.444 146.8C672.481 145.948 672.021 144.088 672.396 142.561C672.979 140.186 673.205 140.11 674.177 141.963C674.946 143.427 676.221 143.834 678.298 143.279C679.952 142.838 681.305 143.001 681.305 143.644C681.305 144.287 682.937 145.84 684.933 147.098C692.522 151.875 696.832 164.223 693.128 170.582C692.036 172.456 692.323 174.01 694.515 178.081C696.036 180.906 697.28 185.33 697.28 187.914C697.28 192.277 699.831 198.256 702.782 200.81C703.473 201.408 702.466 201.53 700.544 201.081C697.816 200.443 696.365 200.994 693.925 203.594C692.206 205.426 690.078 206.924 689.194 206.924C688.312 206.924 686.766 208.176 685.761 209.705C684.263 211.983 683.161 212.333 679.67 211.635C677.326 211.166 674.732 209.914 673.905 208.854C673.078 207.792 671.917 206.924 671.325 206.924C669.709 206.924 670.025 214.021 671.72 215.828C672.771 216.948 672.795 217.4 671.802 217.4C671.036 217.4 670.233 218.975 670.02 220.9C669.213 228.164 662.601 224.39 662.39 216.546C662.26 211.714 662.21 211.668 656.763 211.371C653.741 211.206 650.249 211.652 649.003 212.362C646.47 213.808 642.927 214.773 638.19 215.31C634.162 215.765 631.909 217.231 632.819 218.799C633.211 219.475 631.304 220.019 628.538 220.019C625.795 220.019 623.55 219.686 623.55 219.279C623.55 218.873 625.204 217.056 627.227 215.243C629.249 213.43 631.799 210.33 632.894 208.354C634.488 205.479 635.779 204.764 639.355 204.774C641.814 204.779 645.941 204.309 648.526 203.726C651.628 203.027 653.696 203.168 654.609 204.141C658.021 207.778 663.422 203.822 662.191 198.589C661.294 194.781 663.442 189.901 666.015 189.901C669.621 189.901 677.619 183.123 677.619 180.066C677.619 178.449 678.394 176.44 679.34 175.604C681.816 173.414 680.566 158.921 677.5 154.27C676.214 152.318 675.161 150.181 675.161 149.52C675.161 148.859 674.388 147.634 673.444 146.8Z" fill="#CDD9E7"/>
<path d="M700.577 207.17C700.185 208.214 699.894 207.903 699.835 206.378C699.782 204.998 700.072 204.225 700.48 204.66C700.888 205.094 700.932 206.225 700.577 207.17Z" fill="#CDD9E7"/>
<path d="M645.186 222.638C646.98 222.638 648.127 221.872 648.127 220.673C648.127 218.074 652.353 218.16 654.84 220.812C657.325 223.46 655.309 226.61 651.762 225.622C648.779 224.79 645.669 227.359 645.669 230.654C645.669 234.188 643.354 233.683 641.986 229.851C640.407 225.425 641.643 222.638 645.186 222.638Z" fill="#CDD9E7"/>
<path d="M616 230.591L618.853 227.349C622.032 223.736 623.05 223.336 624.164 225.257C624.582 225.977 626.273 226.566 627.923 226.566C629.725 226.566 630.923 227.324 630.923 228.465C630.923 229.51 631.766 230.868 632.796 231.482C635.048 232.824 636.502 249.545 634.482 250.875C633.785 251.333 632.916 250.49 632.55 249C632.105 247.186 631.015 246.384 629.253 246.576C626.901 246.833 626.66 246.3 626.986 241.55C627.468 234.503 623.457 228.597 618.998 229.79L616 230.591Z" fill="#CDD9E7"/>
<path d="M557.043 343.624C556.521 339.55 560.816 328.356 563.791 326.04C564.911 325.169 566.313 324.764 566.909 325.141C568.904 326.403 567.976 345.52 565.634 351.428C563.552 356.677 563.296 356.876 561.451 354.68C559.055 351.827 557.642 348.281 557.043 343.624Z" fill="#07B188"/>
<path d="M95.6249 189.598C99.9291 189.452 103.742 189.019 104.1 188.638C106.508 186.059 118.03 191.88 118.03 195.676C118.03 198.561 124.003 203.15 129.347 204.371C132.225 205.028 132.509 205.49 131.397 207.716C130.686 209.136 128.195 211.153 125.858 212.198C122.312 213.785 120.401 213.831 114.283 212.477C107.946 211.077 106.698 211.132 105.057 212.889C102.939 215.158 103.79 221.897 106.196 221.906C106.967 221.91 107.705 224.126 107.837 226.833C108.028 230.768 109.096 232.743 113.159 236.682C115.953 239.393 119.159 241.618 120.283 241.629C121.674 241.642 121.346 242.191 119.257 243.349C116.701 244.766 116.237 245.883 116.476 250.055C116.664 253.335 115.924 256.319 114.328 258.72C112.989 260.733 111.893 263.324 111.893 264.476C111.893 265.629 111.367 266.573 110.724 266.573C110.08 266.573 108.999 268.726 108.32 271.357C107.642 273.988 105.917 277.473 104.49 279.099C103.061 280.727 100.967 284.013 99.8359 286.402C97.3125 291.73 91.6521 293.862 88.3985 290.71C85.7032 288.098 84.455 288.969 80.4821 296.225C76.7301 303.078 77.1498 308.19 81.5191 308.855C83.6437 309.178 84.3679 310.271 84.6673 313.61C84.9521 316.786 85.8566 318.272 88.0425 319.162C89.6846 319.83 91.0286 321.207 91.0286 322.22C91.0286 323.233 91.857 324.798 92.8695 325.698C93.8821 326.598 94.7105 328.812 94.7105 330.618C94.7105 333.389 94.4221 333.647 92.8695 332.267C91.3955 330.959 90.6383 330.978 89.0759 332.367C87.2227 334.013 80.4748 334.263 76.146 332.847C74.8917 332.437 73.9244 333.119 73.5415 334.685C73.1512 336.285 71.5202 337.397 68.9784 337.796C64.9209 338.433 64.4987 337.975 62.2796 330.5C61.8844 329.166 60.5048 327.78 59.2161 327.42C57.9262 327.059 56.5418 325.359 56.1392 323.64C55.2433 319.818 51.0078 317.064 48.9017 318.937C46.7748 320.826 32.5953 322.334 31.6908 320.768C30.9802 319.536 28.1991 319.906 14.6273 323.041L10.0248 324.104V318.332C10.0248 314.273 10.5328 312.559 11.7344 312.559C12.6745 312.559 13.7473 311.714 14.1167 310.683C14.4861 309.651 16.3407 308.616 18.2369 308.383C21.1076 308.031 21.747 307.264 22.0612 303.802C22.3484 300.634 21.8735 299.453 20.0644 298.838C18.4505 298.29 17.4416 296.356 16.9089 292.791C16.2204 288.184 15.4509 287.197 10.5268 284.616C7.44501 283.002 3.8194 279.776 2.4632 277.443L0 273.203L3.95436 274.678C8.93732 276.537 34.4364 275.309 41.3217 272.878L46.231 271.145L45.81 264.871C45.297 257.226 46.9673 254.748 52.6327 254.748C55.9318 254.748 57.0451 254.124 57.5691 251.982C58.1509 249.599 58.8774 249.325 62.8331 250.002C68.2431 250.928 70.4793 248.88 70.1332 243.317C69.6779 236.018 70.1725 234.029 72.6125 233.347C75.7962 232.455 77.0665 228.77 75.2562 225.669C74.0178 223.546 74.1993 223.212 76.5975 223.195C81.1338 223.162 82.8459 221.269 82.0948 217.113C81.6627 214.728 82.0936 212.552 83.2743 211.144C84.8134 209.308 84.8845 208.122 83.6927 204.255C82.9011 201.687 81.4283 199.09 80.4195 198.486C78.9565 197.61 79.5174 196.627 83.1932 193.626C87.0201 190.5 89.1262 189.818 95.6249 189.598Z" fill="#037FB2"/>
<path d="M94.5313 187C89.9146 186.984 88.1645 186.519 89.369 185.627C90.9836 184.434 99.5698 185.067 100.979 186.483C101.275 186.78 98.373 187.012 94.5313 187Z" fill="#6B2B2B"/>
<path d="M144.78 203.235C144.296 201.884 144.774 200.905 146.099 200.531C147.241 200.207 148.325 199.875 148.508 199.791C148.691 199.706 151.034 201.196 153.716 203.1C158.899 206.78 159.62 209.245 156.714 213.366C155.725 214.77 154.903 217.136 154.889 218.625C154.862 221.277 154.817 221.272 152.744 218.409C151.579 216.801 148.926 214.854 146.848 214.084C144.77 213.312 143.018 211.965 142.954 211.09C142.89 210.215 142.456 208.159 141.99 206.521C141.28 204.033 141.502 203.691 143.339 204.449C145.022 205.142 145.36 204.858 144.78 203.235Z" fill="#CDD9E7"/>
<path d="M113.203 215.517C121.163 217.485 127.232 215.95 132.274 210.697C134.642 208.23 137.076 206.212 137.685 206.212C138.292 206.212 139.165 208.042 139.622 210.278C140.224 213.216 141.564 214.842 144.453 216.137C147.866 217.666 148.554 218.752 149.153 223.546C149.539 226.636 150.511 229.398 151.313 229.685C153.411 230.436 157.366 234.897 157.366 236.511C157.366 237.37 155.757 237.562 153.077 237.023C149.109 236.225 148.788 236.403 148.788 239.431C148.788 241.231 149.618 243.443 150.631 244.345C151.645 245.248 152.918 247.834 153.461 250.094C154.12 252.837 155.31 254.337 157.043 254.609C158.472 254.834 160.299 255.869 161.104 256.91C161.909 257.951 163.536 258.804 164.719 258.804C165.901 258.804 167.604 259.753 168.501 260.912C169.399 262.072 171.413 263.545 172.978 264.182C175.609 265.256 175.69 265.569 174.042 268.319C173.06 269.955 172.078 273.947 171.858 277.191C171.461 283.049 171.498 283.111 177.586 286.67C195.372 297.068 203.791 300.57 209.447 299.925C213.539 299.458 215.005 299.997 218.321 303.187C222.629 307.331 244.066 310.974 244.066 310.974C244.066 310.974 251.725 311.943 251.725 314.363C251.725 317.664 255.031 321.874 257.735 322.017C259.401 322.105 259.418 322.234 257.852 322.888C255.168 324.008 253.033 327.42 252.989 330.659C252.962 332.625 254.046 333.899 256.537 334.831C259.347 335.882 259.978 336.765 259.456 338.911C259.088 340.416 260.033 343.285 260.033 343.285C260.718 344.186 263.175 351.825 263.175 351.825C263.175 351.825 264.831 358.727 263.3 358.727C262.326 358.727 261.528 359.451 261.528 360.335C261.528 361.219 260.669 360.627 259.62 359.021C257.068 355.11 255.171 355.312 256.125 359.391C256.788 362.226 256.307 362.949 252.681 364.574C247.737 366.791 245.044 369.849 246.226 371.903C247.421 373.976 245.751 382.394 244.145 382.394C243.408 382.394 242.065 383.43 241.16 384.695C239.918 386.434 239.272 386.6 238.514 385.372C237.735 384.112 236.907 384.203 234.815 385.775C233.331 386.89 232.118 388.339 232.118 388.997C232.118 393.18 216.909 412.535 210.731 416.213C209.26 417.09 208.316 419.078 208.281 421.381C208.23 424.555 207.663 425.186 204.545 425.535C202.524 425.761 200.318 426.705 199.644 427.634C198.97 428.562 196.693 430.278 194.584 431.447C189.567 434.229 188.899 436.489 190.052 446.787C190.58 451.504 190.866 456.696 190.687 458.323C190.507 459.949 190.932 461.281 191.632 461.281C193.397 461.281 193.221 466.545 191.253 472.62C188.952 479.722 187.929 487.577 189.305 487.577C189.936 487.577 190.453 489.352 190.453 491.521C190.453 494.115 189.837 495.466 188.65 495.466C187.659 495.466 185.474 498.571 183.795 502.368C182.116 506.165 179.696 509.964 178.418 510.809C177.139 511.656 175.763 514.124 175.358 516.292C174.283 522.056 169.986 523.139 166.323 518.569C164.767 516.628 163.493 514.187 163.493 513.141C163.493 512.097 162.942 511.243 162.268 511.243C161.594 511.243 161.043 509.304 161.043 506.934C161.043 504.564 160.188 501.316 159.146 499.719C158.102 498.12 156.586 494.874 155.776 492.506C154.966 490.137 152.011 483.769 149.211 478.355C146.41 472.942 142.901 464.084 141.414 458.671C139.926 453.258 137.669 447.41 136.397 445.674C135.123 443.939 134.083 441.712 134.083 440.724C134.083 439.737 133.666 438.93 133.157 438.93C131.629 438.93 126.793 426.493 125.52 419.288C124.865 415.589 123.748 411.394 123.035 409.966C122.323 408.537 121.573 404.063 121.37 400.021C121.141 395.476 120.34 392.233 119.27 391.522C118.043 390.707 117.623 388.159 117.825 382.767C117.982 378.585 117.475 373.466 116.699 371.394C115.509 368.221 115.61 367.433 117.333 366.399C120.161 364.701 119.895 362.672 116.845 362.672C114.921 362.672 114.487 362.076 115.044 360.195C115.604 358.301 115.01 357.511 112.531 356.843C110.746 356.363 109.195 356.146 109.083 356.362C105.937 362.467 105.412 364.463 106.817 364.969C110.054 366.135 108.235 370.124 103.22 372.856C99.2966 374.994 97.5321 375.331 95.7172 374.288C93.0213 372.74 79.5722 358.608 81.0427 358.869C85.5719 359.671 93.6438 353.175 93.6438 348.727C93.6438 346.623 90.3828 346.215 89.753 348.241C89.5238 348.981 87.3794 349.926 84.9886 350.343C81.4225 350.964 79.9128 350.442 76.5906 347.443C72.9682 344.173 72.7526 343.618 74.5589 342.201C75.6704 341.329 76.4215 339.81 76.2267 338.824C75.9706 337.523 77.3798 337.033 81.3894 337.033C84.4224 337.033 87.5938 336.555 88.4357 335.97C89.2788 335.385 90.5239 335.276 91.204 335.727C91.8841 336.176 93.5384 336.172 94.8803 335.715C98.0235 334.644 98.0173 330.388 94.8643 324.84C93.5187 322.472 92.4183 319.662 92.4183 318.595C92.4183 317.401 91.2382 316.654 89.3548 316.654C86.687 316.654 86.2912 316.076 86.2912 312.181C86.2912 308.376 85.7324 307.499 82.55 306.308C79.1298 305.029 78.9362 304.651 80.2891 301.907C84.1774 294.025 85.2103 292.955 87.0337 294.911C88.5202 296.508 89.5153 296.491 94.1658 294.791C98.6068 293.167 99.9094 291.905 101.474 287.708C102.521 284.899 104.452 281.985 105.766 281.231C107.078 280.478 108.833 277.636 109.664 274.92C110.495 272.202 112.223 269.185 113.502 268.213C114.782 267.242 115.595 265.763 115.309 264.926C115.023 264.09 116.119 261.491 117.744 259.152C120.468 255.232 120.563 254.615 118.942 251.296C117.265 247.863 117.349 247.587 120.731 245.379C125.258 242.426 125.221 240.549 120.603 238.679C118.581 237.86 116.927 236.728 116.927 236.164C116.927 235.599 116.376 235.137 115.702 235.137C113.53 235.137 110.147 230.576 110.569 228.22C110.795 226.962 110.321 225.934 109.514 225.934C108.423 225.934 108.449 225.416 109.62 223.904C110.932 222.206 110.756 221.546 108.544 219.884C106.033 217.998 104.853 214.064 106.817 214.132C107.322 214.151 110.196 214.772 113.203 215.517Z" fill="#CDD9E7"/>
<path d="M568.302 125.892C569.376 125.892 570.157 124.713 570.157 123.089C570.157 120.423 570.271 120.395 572.497 122.513C574.494 124.413 574.631 125.309 573.438 128.633C572.289 131.832 572.425 133.233 574.196 136.478C576.275 140.287 576.262 140.561 573.824 144.161C572.432 146.214 569.685 149.1 567.718 150.573C562.061 154.808 562.898 159.721 569.955 163.691C577.505 167.94 577.986 170.105 571.381 170.105C567.181 170.105 566.089 170.613 565.539 172.823C564.993 175.018 564.242 175.374 561.635 174.681C559.859 174.207 557.191 173.673 555.705 173.492C552.508 173.105 548.904 170.244 549.764 168.78C550.097 168.213 551.484 168.054 552.843 168.429C554.206 168.803 555.315 168.468 555.315 167.681C555.315 166.895 553.924 165.886 552.223 165.438C549.57 164.737 549.131 163.884 549.131 159.422C549.131 155.452 548.713 154.391 547.366 154.934C544.661 156.026 538 152.894 538 150.531C538 149.378 540.226 146.552 542.947 144.253C546.294 141.426 547.894 139.041 547.894 136.884C547.894 133.564 549.038 132.842 551.048 134.893C552.915 136.798 560.7 137.776 562.736 136.362C564.27 135.297 564.321 134.616 563.035 132.434C561.667 130.113 561.779 129.793 563.963 129.793C565.346 129.793 566.446 128.928 566.446 127.842C566.446 126.769 567.281 125.892 568.302 125.892Z" fill="#0042C1"/>
<path d="M255.077 26.8305C253.222 23.4831 253.22 22.9239 255.047 19.7153C256.689 16.8302 257.438 16.4648 259.411 17.5911C260.721 18.3376 266.754 20.0336 272.819 21.3576C282.933 23.567 284.186 24.1903 287.96 28.8918C293.035 35.2134 300.474 37.834 309.074 36.3319C317.995 34.7734 328.064 35.317 332.13 37.5774C334.144 38.6971 336.968 39.6164 338.406 39.6216C339.843 39.6255 341.738 40.5528 342.616 41.6804C345.931 45.9406 351.189 47.6025 361.94 47.7924C375.729 48.0347 385.685 45.4141 389.215 40.6117C392.216 36.5283 396.115 35.9993 401.465 38.9486C403.399 40.0146 407.102 40.7519 409.695 40.5856L414.41 40.2843L414.775 50.7574C414.975 56.5172 415.664 61.7896 416.305 62.4733C417.985 64.2635 434.806 64.4483 437.443 62.7065C439.24 61.5187 441.19 62.1053 447.67 65.7866C452.074 68.288 456.436 71.2347 457.362 72.3348C458.857 74.1067 458.116 74.3451 450.855 74.4263C440.688 74.5416 434.378 77.8706 433.444 83.6134C432.895 86.9987 432.267 87.4754 427.906 87.8185C423.895 88.1341 422.591 88.9448 420.827 92.2228C418.507 96.5315 418.652 96.5223 407.845 93.0989C402.96 91.5509 402.363 91.6217 400.776 93.9345C398.528 97.2125 399.6 100.963 404.057 105.413L407.639 108.989L404.561 111.139C402.868 112.323 401.165 114.641 400.776 116.291C399.841 120.264 395.676 121.768 383.118 122.665C374.649 123.27 371.262 124.199 364.959 127.646C358.319 131.276 356.859 131.647 354.744 130.239C353.386 129.335 351.776 128.925 351.164 129.327C349.495 130.427 333.99 126.218 328.676 123.222C324.151 120.671 315.318 119.779 287.27 119.04C283.554 118.942 279.747 118.273 278.811 117.552C275.224 114.793 265.159 103.658 265.159 102.45C265.159 101.753 263.761 101.182 262.052 101.182C260.345 101.182 255.56 99.359 251.422 97.1326C245.63 94.0157 241.376 92.8305 232.956 91.9884C221.193 90.8124 217.976 89.2224 219.177 85.1849C221.339 77.923 207.511 61.3471 198.025 59.8305C195.071 59.3577 191.329 57.8609 189.712 56.5041C188.093 55.146 186.25 54.0354 185.616 54.0354C183.299 54.0354 180.156 49.0287 181.21 47.0198C182.29 44.9623 182.525 44.868 186.61 44.868C187.999 44.868 190.635 43.1184 192.467 40.9811C194.297 38.8438 198.459 35.6575 201.713 33.9013C206.494 31.32 208.373 30.9349 211.511 31.8948C213.646 32.547 217.384 33.0814 219.816 33.0814C222.558 33.0814 225.022 34.0007 226.293 35.5002C228.735 38.3775 237.093 41.2822 239.773 40.1861C240.816 39.7592 244.702 40.0813 248.408 40.9025C255.49 42.4701 259.378 41.3085 260.863 37.1819C261.791 34.6058 260.385 30.4621 258.584 30.4621C257.763 30.4621 256.184 28.8277 255.077 26.8305Z" fill="#A5CDC9"/>
<path d="M258.312 318.29C256.49 317.26 255 315.623 255 314.654C255 312.3 256.971 312.435 263.112 315.209C266.964 316.949 268.239 318.253 268.243 320.455C268.25 324.737 271.727 326.125 282.453 326.125H292L291.405 329.541C291.077 331.425 289.541 333.592 287.979 334.374C284.174 336.278 283.058 342.984 285.634 348.458C287.379 352.164 287.386 352.588 285.703 352.588C283.681 352.588 282.438 350.068 282.228 345.542C282.068 342.082 278.18 340.929 277.1 344.023C276.675 345.241 276.812 346.625 277.405 347.098C277.999 347.57 278.159 350.636 277.761 353.911C277.364 357.186 276.958 358.759 276.858 357.408C276.737 355.745 276.062 355.21 274.772 355.754C273.725 356.196 272.409 356.557 271.851 356.557C271.291 356.557 270.607 357.6 270.332 358.873C269.939 360.685 269.529 360.38 268.436 357.463C267.671 355.415 267.043 352.565 267.043 351.132C267.043 349.698 266.11 346.96 264.969 345.047C263.829 343.135 263.048 339.967 263.235 338.01C263.51 335.136 262.877 334.132 259.953 332.802C256.792 331.364 256.515 330.835 257.763 328.64C258.549 327.256 260.146 326.125 261.312 326.125C265.476 326.125 263.63 321.303 258.312 318.29Z" fill="#003479"/>
<path d="M366.731 384.693C368.014 384.693 369.43 383.675 369.879 382.43C370.496 380.714 370.928 380.572 371.664 381.843C372.198 382.764 373.416 383.338 374.371 383.12C375.382 382.888 376.16 383.819 376.232 385.35C376.52 391.35 376.677 391.567 380.343 390.994C384.862 390.287 385.451 392.244 384.675 405.386C384.168 413.934 384.341 414.912 386.349 414.912C387.58 414.912 390.149 413.175 392.056 411.05C395.219 407.531 395.761 407.353 398.17 409.034C401.4 411.292 405.87 410.25 406.653 407.059C407.081 405.311 408.066 404.874 410.464 405.362C412.242 405.724 413.698 406.494 413.698 407.07C413.698 407.647 415.362 409.794 417.395 411.84C420.228 414.689 421.093 416.714 421.093 420.493C421.093 424.545 421.999 426.362 426.167 430.675C430.034 434.676 431.074 436.614 430.533 438.817C430.143 440.407 430.442 442.504 431.198 443.475C433.717 446.711 430.312 448.177 420.84 447.938C410.649 447.679 410.099 447.927 405.761 454.742C402.141 460.429 401.789 464.327 404.524 468.487C406.141 470.949 406.165 471.407 404.675 471.407C403.702 471.407 402.25 470.564 401.448 469.533C400.441 468.24 398.611 467.896 395.558 468.424L391.128 469.19L391.868 464.326C392.526 460.007 392.265 459.323 389.538 458.218C387.257 457.294 385.691 457.517 383.438 459.091C380.673 461.021 380.451 461.887 380.903 468.936C381.176 473.185 381.192 476.663 380.938 476.663C379.74 476.663 375.519 465.278 374.787 460.073C374.151 455.553 372.823 453.07 368.937 449.128C364.283 444.408 364.021 443.774 365.386 440.576C366.199 438.678 366.863 435.961 366.863 434.539C366.863 433.119 367.537 430.805 368.362 429.398C369.589 427.302 369.487 426.413 367.797 424.488C356.172 411.244 354.729 408.153 355.036 397.152C355.226 390.353 355.582 389.273 357.67 389.157C363.564 388.83 364.398 388.521 364.398 386.664C364.398 385.58 365.448 384.693 366.731 384.693Z" fill="#037FB2"/>
<path d="M369.769 514.436C371.681 503.755 372.94 498.072 374.136 494.728C374.847 492.741 375.753 491.115 376.149 491.115C376.544 491.115 376.534 491.691 376.128 492.394C374.408 495.359 374.43 503.061 376.172 507.503C377.667 511.317 378.535 512.117 380.466 511.464C382.273 510.853 382.885 511.259 382.885 513.07C382.885 514.403 383.805 516.893 384.929 518.604C386.085 520.363 386.893 523.891 386.789 526.722C386.633 530.965 387.232 532.239 390.715 535.072C392.977 536.91 396.211 538.414 397.902 538.414C400.06 538.414 401.437 539.492 402.522 542.027C403.371 544.015 403.876 545.908 403.643 546.237C402.753 547.495 398.905 547.103 398.87 545.75C398.812 543.624 392.902 539.43 388.661 538.506C385.829 537.889 384.563 536.597 383.387 533.127C382.537 530.615 381.788 529.152 381.726 529.874C381.663 530.597 380.457 529.267 379.046 526.918C377.635 524.569 375.981 522.648 375.37 522.648C374.758 522.648 374.258 521.761 374.258 520.677C374.258 519.542 373.145 518.706 371.631 518.706C369.334 518.706 369.101 518.173 369.769 514.436Z" fill="#037FB2"/>
<path d="M573.804 173.669C576.13 173.669 578.401 173.023 578.85 172.232C580.195 169.869 594.471 186.202 596.043 191.902C596.793 194.621 598.215 197.576 599.204 198.467C600.192 199.357 601 201.786 601 203.865C601 207.246 600.683 207.559 597.997 206.827C596.027 206.29 594.993 206.554 594.993 207.594C594.993 208.524 594.184 208.842 593.034 208.363C591.866 207.876 589.473 208.873 587.108 210.833C582.727 214.463 581.779 214.799 581.779 212.723C581.779 211.953 580.944 210.418 579.925 209.31C578.67 207.947 578.277 205.881 578.711 202.918C579.208 199.524 578.847 198.246 577.112 197.236C574.747 195.862 572.825 190.632 574.684 190.632C575.282 190.632 575.772 189.752 575.772 188.675C575.772 187.598 575.251 186.718 574.613 186.718C573.118 186.718 571.47 183.262 570.413 177.91C569.591 173.756 569.661 173.669 573.804 173.669Z" fill="#037FB2"/>
<path d="M532.624 141.66V142.536H543.388V141.66H532.624ZM537.484 138.54V147.96H538.444V138.54H537.484ZM541.516 137.076C539.608 137.676 536.188 138.156 533.272 138.432C533.368 138.648 533.488 139.008 533.512 139.224C536.476 138.972 539.956 138.504 542.2 137.844L541.516 137.076ZM546.736 140.484H553.384V142.008H546.736V140.484ZM546.736 138.216H553.384V139.716H546.736V138.216ZM545.848 137.4V142.824H554.32V137.4H545.848ZM544.648 146.784V147.624H555.364V146.784H544.648ZM545.452 144.204V145.056H554.716V144.204H545.452ZM549.604 137.916V142.692H549.556V147.264H550.516V142.692H550.468V137.916H549.604ZM558.472 141.408V142.14H566.02V141.408H558.472ZM558.472 139.488V140.232H566.02V139.488H558.472ZM557.992 143.328V144.12H566.476V143.328H557.992ZM566.284 143.328V143.472C566.128 145.884 565.972 146.796 565.72 147.048C565.624 147.144 565.516 147.168 565.3 147.168C565.084 147.168 564.52 147.168 563.932 147.096C564.064 147.336 564.16 147.696 564.172 147.936C564.784 147.972 565.396 147.972 565.708 147.948C566.044 147.924 566.272 147.84 566.488 147.612C566.824 147.24 566.992 146.256 567.172 143.724C567.184 143.592 567.196 143.328 567.196 143.328H566.284ZM561.58 144.972C561.904 145.668 562.204 146.58 562.3 147.132L563.044 146.928C562.948 146.376 562.636 145.476 562.3 144.816L561.58 144.972ZM563.524 144.792C563.932 145.296 564.376 146.004 564.556 146.46L565.252 146.16C565.06 145.704 564.616 145.02 564.184 144.528L563.524 144.792ZM559.516 145.056C559.708 145.824 559.876 146.808 559.876 147.456L560.704 147.324C560.668 146.664 560.5 145.692 560.284 144.924L559.516 145.056ZM557.788 144.636C557.596 145.68 557.188 146.76 556.432 147.396L557.164 147.864C557.98 147.156 558.352 145.98 558.58 144.852L557.788 144.636ZM561.676 137.94V143.652H562.564V137.94H561.676ZM557.992 137.508V143.7H558.868V138.3H566.44V137.508H557.992Z" fill="#003479"/>
<path d="M356.357 571.206C351.783 568.214 344 558.179 344 555.272C344 552.119 345.76 552.239 350.098 555.688C352.168 557.333 354.665 558.218 356.099 557.815C361.473 556.304 366.255 558.639 368.984 564.108C372.079 570.312 374.705 573.244 381.94 578.569C384.874 580.729 387.808 584.144 388.461 586.156C389.114 588.168 390.054 589.815 390.55 589.815C391.047 589.815 393.063 591.579 395.032 593.736C399.215 598.32 400.997 598.796 400.096 595.091C399.743 593.639 399.955 592.782 400.566 593.19C401.179 593.596 401.68 594.8 401.68 595.863C401.68 596.927 403.088 598.373 404.809 599.076C406.57 599.796 408.483 602.035 409.184 604.198C409.903 606.416 412.084 608.925 414.338 610.131C418.075 612.13 418.126 612.26 415.486 613.047C413.968 613.501 412.725 614.466 412.725 615.191C412.725 616.454 415.015 616.174 421.008 614.177C424.209 613.111 424.675 615.041 421.929 617.994C420.916 619.082 420.088 620.827 420.088 621.869C420.088 624.924 424.813 630.505 427.783 630.959C429.857 631.275 430.611 632.392 430.897 635.568C431.105 637.871 432.041 640.44 432.979 641.277C434.248 642.409 434.376 643.658 433.487 646.176C432.024 650.312 433.211 652.013 435.357 648.857C436.22 647.589 437.97 646.554 439.245 646.558C441.904 646.569 446.311 653.934 445.012 656.195C444.211 657.587 443.738 664.385 443.503 677.887C443.449 680.97 442.853 683.494 442.178 683.494C441.503 683.494 440.951 682.604 440.951 681.515C440.951 679.151 439.522 678.961 437.566 681.064C436.491 682.22 435.7 682.194 434.307 680.951C433.295 680.047 431.938 679.66 431.291 680.09C429.831 681.061 411.497 662.562 411.497 660.118C411.497 659.142 410.655 657.995 409.627 657.572C407.062 656.512 399.225 643.575 399.225 640.399C399.225 638.979 398.414 636.666 397.424 635.257C396.432 633.849 395.604 631.914 395.583 630.959C395.561 630.003 394.163 627.276 392.475 624.897C390.788 622.518 389.407 619.92 389.407 619.122C389.407 618.325 388.249 616.8 386.831 615.732C383.492 613.218 380.991 607.942 380.009 601.343C379.351 596.917 378.368 595.508 373.923 592.611C371.008 590.711 368.605 588.418 368.584 587.518C368.522 584.947 360.015 573.596 356.357 571.206Z" fill="#75D0D1"/>
<path d="M540.356 574.754C540.356 572.394 540.724 570.067 541.174 569.584C541.624 569.1 544.937 568.704 548.538 568.704C553.418 568.704 555.083 569.187 555.083 570.605C555.083 571.652 554.508 572.888 553.805 573.355C551.984 574.566 553.531 579.134 557.693 584.831C560.286 588.382 561.078 590.618 560.547 592.893C559.953 595.434 560.792 596.942 564.889 600.715C569.91 605.334 569.899 608.524 564.873 605.632C562.77 604.422 561.935 604.691 559.948 607.221C556.953 611.035 555.917 614.999 556.483 620.496C556.799 623.57 556.144 625.677 554.162 627.957C552.644 629.705 551.401 630.448 551.401 629.606C551.401 628.766 550.849 628.078 550.174 628.078C549.499 628.078 548.946 629.193 548.946 630.556C548.946 631.918 548.118 633.772 547.106 634.676C544.879 636.661 544.643 643.869 546.799 644.016C548.026 644.099 548.026 644.253 546.799 644.785C545.956 645.152 545.265 646.624 545.265 648.057C545.265 649.59 544.717 650.301 543.938 649.783C543.14 649.253 542.726 649.88 542.899 651.354C543.382 655.458 541.605 658.147 536.532 660.989C530.434 664.406 530.538 664.423 530.538 660.009C530.538 657.977 529.875 655.602 529.065 654.731C527.168 652.691 523.521 652.69 522.889 654.73C522.557 655.797 521.103 655.32 518.419 653.265C514.648 650.378 514.355 650.341 512.844 652.563C510.41 656.141 504.844 655.916 503.977 652.204C503.59 650.546 503.191 649.189 503.091 649.189C502.991 649.189 501.118 649.742 498.929 650.416C496.74 651.092 494.949 651.174 494.949 650.598C494.949 650.023 493.568 649.716 491.881 649.914C488.962 650.258 487.925 648.143 488.711 643.443C488.814 642.822 488.318 641.562 487.607 640.641C486.897 639.721 486.665 637.991 487.091 636.798C488.113 633.931 485.292 626.759 483.142 626.759C482.21 626.759 481.449 625.868 481.449 624.78C481.449 623.691 480.483 622.791 479.301 622.781C477.602 622.765 477.507 622.52 478.846 621.608C480.266 620.641 480.217 619.765 478.539 616.148C476.027 610.733 475.949 604.49 478.381 603.487C479.394 603.068 480.266 601.158 480.319 599.24C480.374 597.229 480.698 596.59 481.083 597.731C481.45 598.82 483.47 601.666 485.573 604.054C489.236 608.218 489.675 608.365 496.16 607.574C505.59 606.426 506.989 605.872 507.854 602.942C508.765 599.858 510.664 599.707 515.365 602.341C519.408 604.61 523.175 604.932 523.175 603.009C523.175 602.284 524.817 601.69 526.825 601.69C529.647 601.69 530.911 600.783 532.397 597.693C533.455 595.494 534.01 593.156 533.631 592.496C533.252 591.836 533.864 590.741 534.992 590.063C536.323 589.261 536.803 587.846 536.359 586.023C535.922 584.226 536.25 583.218 537.272 583.218C539.28 583.218 540.356 580.265 540.356 574.754Z" fill="#75D0D1"/>
<path d="M655.013 604.013C654.658 603.632 654.784 601.617 655.292 599.536C655.973 596.747 656.338 596.379 656.683 598.138C657.208 600.827 656.001 605.075 655.013 604.013Z" fill="#75D0D1"/>
<path d="M615.312 608.811C619.978 609.613 620.624 609.323 624.823 604.537C630.858 597.661 631.884 597.783 627.45 604.846C622.944 612.024 618.417 613.989 612.249 611.444C608.214 609.779 610.336 607.954 615.312 608.811Z" fill="#75D0D1"/>
<path d="M366.905 605.817C365.782 604.821 364.863 603.484 364.863 602.848C364.863 600.832 365.954 601.588 367.476 604.658C368.81 607.35 368.755 607.458 366.905 605.817Z" fill="#75D0D1"/>
<path d="M656.91 609.606C657.568 609.606 658.972 607.805 660.031 605.604C661.116 603.348 662.537 601.989 663.288 602.489C664.158 603.067 663.928 603.792 662.622 604.577C661.523 605.238 660.624 606.868 660.624 608.198C660.624 609.53 659.519 610.928 658.169 611.308C656.819 611.687 655.715 611.46 655.715 610.802C655.715 610.145 656.253 609.606 656.91 609.606Z" fill="#75D0D1"/>
<path d="M589.138 607.417C589.982 607.049 590.672 605.907 590.672 604.879C590.672 602.487 592.042 602.508 595.04 604.946C596.349 606.012 599.079 606.944 601.104 607.018C603.128 607.093 605.89 607.663 607.24 608.287L609.694 609.42L607.24 609.693C598.953 610.616 590.769 610.465 589.305 609.365C587.992 608.378 587.954 607.933 589.138 607.417Z" fill="#75D0D1"/>
<path d="M584.536 611.586C583.861 612.034 583.309 611.475 583.309 610.344C583.309 609.213 583.861 608.287 584.536 608.287C585.211 608.287 585.763 608.845 585.763 609.528C585.763 610.212 585.211 611.137 584.536 611.586Z" fill="#75D0D1"/>
<path d="M693.046 633.315C688.858 631.604 689.322 630.155 695.293 626.285C701.647 622.165 702.461 622.109 707.536 625.434C709.746 626.883 712.461 628.07 713.57 628.073C716.226 628.08 717.302 631.38 716.378 636.677C715.688 640.631 715.186 641.025 709.91 641.745C701.759 642.857 699.5 642.19 697.648 638.119C696.749 636.144 694.678 633.983 693.046 633.315Z" fill="#75D0D1"/>
<path d="M598.809 629.54C599.949 630.557 601.153 630.367 603.165 628.853C606.474 626.36 606.626 626.334 606.626 628.23C606.626 631.031 597.973 638.369 595.491 637.672C592.653 636.874 592.118 640.939 594.911 642.092C597.689 643.237 601.713 651.526 601.756 656.191C601.777 658.508 602.606 661.558 603.597 662.965C606.068 666.478 605.882 667.244 602.331 668.203C600.643 668.659 599.263 669.945 599.263 671.063C599.263 672.18 598.71 672.728 598.035 672.279C597.36 671.831 596.808 669.738 596.808 667.63C596.808 665.131 595.943 663.298 594.323 662.366C592.238 661.166 591.892 659.829 592.175 654.072C592.508 647.32 592.459 647.214 589.125 647.461C583.678 647.863 582.49 650.199 582.777 659.94C583.192 674.004 582.148 680.655 579.379 681.6C575.872 682.796 575.646 681.93 577.246 673.409C579.124 663.411 577.603 656.296 573.687 656.76C571.491 657.021 571.036 656.391 571.036 653.079C571.036 650.881 572.255 647.31 573.745 645.144C575.235 642.977 576.753 638.448 577.12 635.077C577.688 629.852 578.204 628.916 580.617 628.729C582.175 628.607 584.108 629.505 584.913 630.722C585.718 631.94 587.597 633.633 589.089 634.484C591.48 635.847 592.123 635.562 594.517 632.083C596.554 629.119 597.626 628.485 598.809 629.54Z" fill="#75D0D1"/>
<path d="M656.61 635.472C656.202 635.911 655.143 635.958 654.258 635.577C653.279 635.156 653.57 634.843 655 634.78C656.293 634.723 657.017 635.034 656.61 635.472Z" fill="#75D0D1"/>
<path d="M443.383 641.273C441.887 641.273 441.265 640.61 441.676 639.454C442.669 636.676 448.302 639.922 448.267 643.252C448.242 645.677 448.139 645.703 446.989 643.582C446.3 642.312 444.678 641.273 443.383 641.273Z" fill="#75D0D1"/>
<path d="M744.236 643.912C745.618 643.912 747.072 642.55 747.757 640.613C749.34 636.136 753.761 636.298 761.72 641.127C765.177 643.224 771.155 645.904 775.002 647.082L782 649.226L781.389 655.475C779.802 671.703 778.264 693.909 778.396 698.668C778.477 701.571 778.197 707.674 777.775 712.232L777.006 720.516L774.348 716.883C772.887 714.885 771.863 712.436 772.075 711.443C772.367 710.078 771.55 709.851 768.747 710.512C766.704 710.995 764.321 710.903 763.451 710.307C761.305 708.837 761.454 704.304 763.711 702.359C765.304 700.989 765.086 700.304 762.1 697.282C757.995 693.129 756.256 688.769 757.184 684.955C757.584 683.31 757.281 682.175 756.439 682.175C755.657 682.175 753.798 680.919 752.307 679.383C748.67 675.635 734.845 668.981 730.696 668.981C727.459 668.981 721.039 665.149 724.133 665.065C727.29 664.978 725.528 662.382 722.292 662.355C720.436 662.339 717.609 661.243 716.01 659.921C713.487 657.835 713.297 657.127 714.575 654.559C715.385 652.934 715.764 651.296 715.417 650.923C714.18 649.594 712.125 652.072 709.678 657.846C707.1 663.931 703.962 665.99 705.233 660.761C705.74 658.679 704.997 656.75 702.692 654.164L699.436 650.509H702.632C704.389 650.509 706.107 649.767 706.45 648.859C706.942 647.555 707.304 647.565 708.187 648.911C709.558 651.001 715.795 648.865 715.946 646.253C715.999 645.328 716.598 646.203 717.275 648.2C717.954 650.196 719.29 651.828 720.246 651.828C721.203 651.828 721.985 652.732 721.985 653.835C721.985 654.939 723.412 656.542 725.158 657.397C728.131 658.854 728.758 658.478 735.106 651.431C738.832 647.296 742.941 643.912 744.236 643.912Z" fill="#75D0D1"/>
<path d="M449.512 650.183C448.265 649.346 447.487 648.242 447.782 647.73C448.757 646.032 453.075 648.07 452.416 649.916C451.917 651.314 451.281 651.372 449.512 650.183Z" fill="#75D0D1"/>
<path d="M465.423 651.828C464.787 651.828 464.268 651.234 464.268 650.509C464.268 649.783 465.129 649.189 466.181 649.189C467.233 649.189 467.753 649.783 467.336 650.509C466.919 651.234 466.059 651.828 465.423 651.828Z" fill="#75D0D1"/>
<path d="M665.614 654.421C662.45 656.24 661.851 656.148 661.851 653.836C661.851 652.279 663.278 651.992 668.908 652.412C677.95 653.088 680.647 654.038 682.478 657.19C684.395 660.49 682.656 660.454 678.706 657.112C676.431 655.19 674.569 654.7 671.791 655.298C669.286 655.836 667.987 655.594 667.987 654.586C667.987 653.481 667.326 653.435 665.614 654.421Z" fill="#75D0D1"/>
<path d="M647.063 659.786C644.975 661.172 640.988 658.949 640.988 656.4C640.988 653.733 646.994 653.888 647.955 656.579C648.37 657.74 647.969 659.184 647.063 659.786Z" fill="#75D0D1"/>
<path d="M719.116 687.783C718.776 688.69 718.497 687.948 718.497 686.133C718.497 684.319 718.776 683.578 719.116 684.484C719.457 685.392 719.457 686.876 719.116 687.783Z" fill="#75D0D1"/>
<path d="M444.007 693.715C445.025 693.101 445.86 691.764 445.86 690.746C445.86 688.49 456.779 688.792 462.2 691.197C464.1 692.04 465.954 692.73 466.319 692.73C466.684 692.73 467.983 694.097 469.205 695.768C471.126 698.392 472.681 698.849 480.634 699.122C488.962 699.408 489.918 699.181 490.637 696.744C491.49 693.856 493.243 693.166 493.948 695.441C494.185 696.206 495.198 697.001 496.198 697.209C506.39 699.316 507.092 699.671 508.274 703.315C509.908 708.356 513.4 710.118 519.632 709.047L524.762 708.165L523.868 711.99C522.683 717.07 522.5 717.181 518.578 715.215C516.718 714.283 510.228 713.328 504.153 713.093C496.167 712.786 490.898 711.771 485.131 709.433C475.984 705.724 472.132 705.03 468.318 706.406C466.641 707.011 464.223 706.604 461.936 705.334C459.91 704.207 456.57 703.286 454.512 703.286C451.629 703.286 450.769 702.699 450.769 700.733C450.769 699.011 449.366 697.633 446.461 696.504C443.136 695.212 442.577 694.575 444.007 693.715Z" fill="#75D0D1"/>
<path d="M715.849 696.029C715.174 696.478 714.622 696.215 714.622 695.447C714.622 694.679 715.174 694.05 715.849 694.05C716.524 694.05 717.076 694.311 717.076 694.632C717.076 694.952 716.524 695.58 715.849 696.029Z" fill="#75D0D1"/>
<path d="M517.933 700.125C517.526 700.563 516.467 700.61 515.582 700.229C514.603 699.808 514.893 699.495 516.323 699.432C517.617 699.375 518.341 699.687 517.933 700.125Z" fill="#75D0D1"/>
<path d="M752.024 713.841C748.175 713.841 748.167 711.961 751.997 707.845C755.255 704.34 756.981 703.824 758.221 705.983C759.601 708.382 755.296 713.841 752.024 713.841Z" fill="#75D0D1"/>
<path d="M530.682 716.21C529.591 715.318 528.468 714.421 528.186 714.215C527.904 714.009 529.491 713.841 531.711 713.841C535.175 713.841 535.529 714.125 534.207 715.836C532.966 717.445 532.282 717.517 530.682 716.21Z" fill="#75D0D1"/>
<path d="M542.679 719.119C541.393 719.119 541.228 717.301 542.402 716.041C543.892 714.438 545.2 715.129 544.482 717.14C544.093 718.228 543.282 719.119 542.679 719.119Z" fill="#75D0D1"/>
<path d="M583.597 719.462C577.878 718.858 577.385 718.577 579.302 717.012C582.063 714.758 583.348 714.752 588.232 716.959C593.453 719.32 591.618 720.309 583.597 719.462Z" fill="#75D0D1"/>
<path d="M550.112 721.758C548.557 721.758 548.028 721.107 548.502 719.779C549.267 717.639 554.507 717.052 555.617 718.981C556.39 720.325 553.55 721.758 550.112 721.758Z" fill="#75D0D1"/>
<path d="M617.048 729.675C618.735 729.675 620.734 728.235 622.09 726.046C623.926 723.08 624.416 722.835 624.771 724.7C625.01 725.955 623.648 728.718 621.744 730.838C618.152 734.84 612.762 737.427 612.762 735.149C612.762 731.877 614.486 729.675 617.048 729.675Z" fill="#75D0D1"/>
<path d="M577.856 733.703C576.306 732.138 573.448 730.346 571.504 729.719C568.036 728.603 568.058 728.579 572.624 728.469C577.757 728.343 584.929 733.72 582.121 735.586C581.312 736.124 579.428 735.291 577.856 733.703Z" fill="#75D0D1"/>
<path d="M572.545 428.198C572.128 425.373 571.42 418.772 570.97 413.531L570.152 404H574.011C576.352 404 578.148 404.79 578.582 406.011C579.032 407.28 580.139 407.732 581.581 407.236C583.338 406.634 583.868 407.11 583.868 409.291C583.868 410.853 584.984 413.664 586.346 415.538C589.397 419.734 588.565 425.629 584.317 429.9C580.776 433.462 580.581 438.966 583.67 448.111C585.588 453.787 585.66 454.964 584.188 456.452C582.757 457.898 582.087 457.737 580.145 455.483C578.78 453.897 578.315 452.446 579.02 451.975C581.231 450.497 580.269 446.262 577.488 445.238C575.985 444.685 574.397 444.331 573.959 444.451C572.6 444.824 570.805 441.668 569.552 436.7C568.433 432.26 568.52 431.98 570.827 432.632C573.092 433.274 573.239 432.897 572.545 428.198Z" fill="#9BBACE"/>
<path d="M596.628 455.313C595.291 454.252 593.97 453.218 593.691 453.013C593.412 452.808 593.756 452.641 594.454 452.641C595.151 452.641 596.473 453.677 597.391 454.941C598.933 457.07 598.876 457.097 596.628 455.313Z" fill="#9BBACE"/>
<path d="M606.045 465.746C605.545 465.723 604.151 464.244 602.95 462.46C600.266 458.468 601.571 458.157 604.688 462.044C607.176 465.147 607.417 465.808 606.045 465.746Z" fill="#9BBACE"/>
<path d="M580.7 467.974C580.243 466.415 578.992 464.389 577.919 463.47C576.268 462.059 576.528 461.938 579.615 462.683C583.975 463.735 585.04 465.207 585.065 470.22C585.081 473.384 584.795 473.738 583.308 472.402C582.331 471.525 581.158 469.532 580.7 467.974Z" fill="#9BBACE"/>
<path d="M618.412 478.092C616.79 476.943 615.463 475.478 615.463 474.838C615.463 473.082 620.284 473.443 622.026 475.33C624.175 477.653 625.519 487.159 623.602 486.476C622.802 486.191 621.97 484.658 621.754 483.07C621.539 481.482 620.035 479.242 618.412 478.092Z" fill="#9BBACE"/>
<path d="M598.888 490.393C594.759 494.532 594.062 494.189 594.585 488.268L595.037 483.144L598.459 485.268L601.881 487.393L598.888 490.393Z" fill="#9BBACE"/>
<path d="M619.994 488.929C619.591 489.366 618.542 489.413 617.666 489.033C616.696 488.614 616.984 488.302 618.4 488.239C619.681 488.183 620.398 488.493 619.994 488.929Z" fill="#9BBACE"/>
<path d="M601.488 502.12C602.632 501.646 603.311 499.636 603.311 496.721C603.311 494.168 603.858 492.079 604.526 492.079C605.988 492.079 605.993 492.606 604.588 499.156C603.938 502.19 603.939 505.528 604.592 507.384C605.671 510.454 605.637 510.471 602.678 508.373C599.283 505.967 598.766 503.251 601.488 502.12Z" fill="#9BBACE"/>
<path d="M622.52 496.714C622.145 497.119 621.466 496.39 621.009 495.094C620.35 493.22 620.489 493.069 621.69 494.357C622.521 495.25 622.894 496.311 622.52 496.714Z" fill="#9BBACE"/>
<path d="M614.917 504.36C613.74 504.849 613.38 504.46 613.832 503.186C614.57 501.107 616.678 500.565 616.678 502.455C616.678 503.101 615.886 503.958 614.917 504.36Z" fill="#9BBACE"/>
<path d="M626.502 515.061C629.825 514.271 630.158 513.78 629.446 510.713L628.644 507.254L631.731 510.857C633.429 512.84 634.539 515.245 634.199 516.206C633.858 517.166 634.757 521.354 636.195 525.515C638.102 531.027 638.447 533.471 637.47 534.528C636.493 535.585 635.635 535.284 634.302 533.419C632.51 530.909 632.426 530.922 629.95 534.089C628.168 536.371 627.655 538.3 628.202 540.662C628.628 542.501 629.145 545.486 629.35 547.293C629.555 549.101 629.485 549.544 629.192 548.279C628.581 545.634 627.452 545.366 625.558 547.415C623.661 549.468 619.291 546.669 617.808 542.45C617.157 540.596 616.964 537.124 617.378 534.733C617.988 531.217 617.646 530.057 615.582 528.664C612.553 526.617 612.277 524.945 614.97 524.945C616.034 524.945 617.192 523.762 617.541 522.315C617.893 520.86 619.198 519.686 620.466 519.686C621.724 519.686 622.754 518.846 622.754 517.818C622.754 516.791 624.441 515.55 626.502 515.061Z" fill="#9BBACE"/>
<path d="M551 518.372L559.506 506.54C560.78 504.914 569.604 494.051 569.835 494.051C574.696 494.051 563.898 507.473 561.329 509.827L551 518.372Z" fill="#9BBACE"/>
<path d="M605.423 522.541C605.835 521.333 606.759 519.921 607.476 519.405C608.193 518.889 609.516 519.264 610.418 520.237C611.658 521.58 611.734 522.657 610.726 524.694C609.699 526.769 608.432 527.281 605.133 526.948C602.165 526.65 600.486 527.181 599.613 528.69C598.518 530.587 598.407 530.529 598.721 528.231C598.94 526.642 600.189 525.431 601.878 525.171C603.417 524.934 605.011 523.751 605.423 522.541Z" fill="#9BBACE"/>
<path d="M260 300.168C260 299.168 260.95 296.574 262.113 294.403C263.982 290.914 264.647 290.561 267.85 291.351C269.843 291.844 273.334 292.357 275.608 292.493C278.621 292.673 280.005 293.482 280.712 295.471C281.244 296.973 282.467 298.516 283.428 298.9C284.388 299.285 285.486 300.446 285.866 301.48C286.436 303.029 285.336 303.317 279.62 303.114C275.804 302.979 271.3 303.255 269.614 303.725C265.83 304.781 260 302.624 260 300.168Z" fill="#CDD9E7"/>
<path d="M546.527 542.968C548.238 542.26 549.638 541.064 549.638 540.315C549.638 539.565 550.785 540.201 552.187 541.729C554.028 543.735 554.517 545.443 553.955 547.89C553.279 550.82 553.511 551.178 555.68 550.561C557.058 550.168 558.185 550.389 558.185 551.053C558.185 551.716 559.284 552.259 560.627 552.259C561.97 552.259 563.069 552.783 563.069 553.423C563.069 554.063 564.855 554.989 567.037 555.479C570.46 556.248 570.709 556.557 568.847 557.722C567.66 558.464 565.737 558.967 564.573 558.839C558.688 558.191 557.459 561.131 562.153 564.624C564.68 566.506 563.818 566.616 551.405 566.012L537.908 565.356L536.448 568.851C535.643 570.772 534.986 574.349 534.986 576.798C534.986 579.528 534.278 581.547 533.155 582.017C532.148 582.437 531.323 584.263 531.323 586.073C531.323 587.882 530.836 589.691 530.24 590.092C529.646 590.492 528.811 592.844 528.385 595.316C527.665 599.492 527.206 599.872 521.906 600.664C518.597 601.159 515.685 600.954 514.971 600.175C512.596 597.587 506.014 598.655 503.647 602.011C502.042 604.291 499.842 605.364 495.861 605.809C491.098 606.343 489.727 605.896 486.159 602.652L482.005 598.871L485.602 600.065C487.58 600.722 491.013 601.981 493.23 602.862C498.03 604.771 498.766 604.264 497.33 600.033C496.577 597.814 496.785 595.963 498.02 593.91C498.992 592.292 499.451 590.373 499.038 589.645C498.121 588.027 501.22 586.194 506.845 585.029C510.977 584.173 516.672 579.619 516.672 577.17C516.672 576.489 517.956 574.268 519.526 572.235C522.294 568.648 522.48 568.603 525.704 570.711C528.797 572.735 529.11 572.727 530.208 570.613C530.862 569.354 532.19 568.674 533.187 569.091C534.564 569.666 534.986 568.735 534.986 565.122C534.986 562.526 535.574 560.005 536.29 559.522C537.008 559.039 537.317 557.855 536.978 556.892C536.64 555.929 537.134 554.818 538.078 554.423C539.021 554.029 540.608 551.58 541.604 548.981C542.663 546.221 544.709 543.721 546.527 542.968Z" fill="#475B7F"/>
<path d="M392.313 552.253C391.824 548.956 391.001 545.513 390.485 544.602C389.146 542.241 390.686 542.552 393.805 545.272C395.274 546.553 396.281 548.651 396.044 549.934C395.55 552.609 398.574 554.349 400.924 552.743C401.796 552.147 403.512 551.839 404.736 552.059C406.125 552.309 407.203 551.46 407.601 549.805C408.181 547.383 408.606 547.563 412.424 551.848C418.367 558.519 418.792 559.781 419.469 572.809C419.846 580.079 420.725 585.309 421.797 586.671C422.745 587.871 424.327 590.682 425.315 592.916C426.774 596.213 426.817 597.277 425.546 598.572C423.367 600.789 423.278 600.758 415.612 595.213C406.883 588.897 403.12 585.082 403.12 582.544C403.12 581.437 402.324 579.809 401.349 578.93C397.686 575.616 394.288 565.585 392.313 552.253Z" fill="#475B7F"/>
<path d="M409.748 456.136C410.679 453.831 412.225 451.782 413.186 451.583C416.576 450.88 427.773 451.231 427.773 452.041C427.773 453.494 438.444 456.703 439.946 455.701C440.744 455.169 441.085 453.858 440.704 452.788C440.155 451.247 440.996 450.881 444.745 451.031C448.136 451.167 449.479 451.792 449.484 453.237C449.488 454.346 450.032 455.835 450.692 456.547C451.352 457.258 452.141 461.032 452.446 464.936L453 472.031L448.229 474.516C445.605 475.883 443.459 477.451 443.459 478.002C443.459 478.553 442.236 479.19 440.744 479.418C438.618 479.744 438.029 480.68 438.029 483.736C438.029 487.025 437.509 487.703 434.711 488.049C432.885 488.275 431.393 489.236 431.393 490.185C431.393 492.436 425.564 493.991 423.625 492.258C422.798 491.518 421.764 491.296 421.328 491.767C420.891 492.238 420.534 491.062 420.534 489.156C420.534 485.69 418.924 484.533 417.517 486.988C415.984 489.663 414.501 488.142 414.501 483.895C414.501 481.479 413.686 478.774 412.691 477.883C411.696 476.992 410.881 475.27 410.881 474.054C410.881 472.839 409.845 469.548 408.578 466.739C407.31 463.931 406.675 461.339 407.166 460.979C407.656 460.619 408.819 458.439 409.748 456.136Z" fill="#849EA5"/>
<path d="M427.784 607.485C429.23 608.559 429.815 608.624 430.661 607.802C432.308 606.202 433.325 604.616 432.763 604.522C432.482 604.476 430.838 604.82 429.111 605.288C426.05 606.115 426.016 606.172 427.784 607.485Z" fill="#849EA5"/>
<path d="M431.44 602.616C432.512 603.792 432.664 605.08 432.664 606.536C432.664 607.56 432.608 608.656 432.424 608.896C432.368 608.968 432.296 609 432.2 609.008C432.064 609.024 431.84 609.024 431.56 609.008C431.656 609.168 431.704 609.384 431.712 609.56C431.976 609.576 432.24 609.568 432.432 609.528C432.624 609.504 432.752 609.424 432.848 609.288C433.144 608.872 433.208 607.696 433.208 606.552C433.208 605.008 433.048 603.616 431.848 602.328L431.44 602.616ZM432.632 605.208C432.36 605.944 431.8 606.776 431.288 607.2C431.408 607.32 431.56 607.536 431.632 607.672C432.176 607.152 432.76 606.24 433.064 605.456L432.632 605.208ZM433.072 602.296C432.696 603.088 432 603.968 431.256 604.568C431.392 604.656 431.56 604.816 431.648 604.928C432.408 604.296 433.104 603.448 433.536 602.576L433.072 602.296ZM433.536 603.36V609.472H434.024V603.36H433.536ZM435.816 604.2V608.464H436.28V604.72H438.296V604.2H435.816ZM436.896 602.864V609.632H437.392V602.864H436.896ZM435.688 602.704V603.224H438.656V602.704H435.688ZM438.032 604.2V607.864C438.032 607.928 438.016 607.944 437.952 607.944C437.888 607.952 437.72 607.952 437.512 607.944C437.584 608.072 437.664 608.296 437.688 608.432C437.976 608.432 438.184 608.416 438.328 608.328C438.464 608.24 438.504 608.096 438.504 607.864V604.2H438.032ZM434.256 602.312C434.176 602.696 433.992 603.248 433.856 603.6L434.304 603.704C434.464 603.384 434.648 602.872 434.816 602.424L434.256 602.312ZM433.744 603.36V603.88H434.88V605.072H433.744V605.584H435.376V603.36H433.744ZM433.784 606.368V606.896H434.96V608.336H433.784V608.864H435.464V606.368H433.784Z" fill="#003479"/>
<path d="M427.719 7.72198C423.821 7.72198 425.722 3.52578 430.447 1.69833C436.511 -0.648053 447.015 -0.546824 451.427 1.90072C453.471 3.0345 456.887 3.99085 459.019 4.025C462.984 4.08807 473.109 9.95143 477.703 14.8452C479.114 16.3468 483.216 20.2356 486.819 23.4872C490.423 26.7387 496.172 32.5101 499.594 36.3122C504.614 41.8891 506.758 43.3368 510.683 43.8032C522.359 45.1866 532.933 50.6204 540.814 59.2874C546.125 65.1284 546.891 65.5277 552.764 65.5277C557.525 65.5277 559.547 64.8932 561.137 62.9002C562.291 61.4551 564.181 60.2727 565.338 60.2727C566.497 60.2727 567.784 59.6815 568.2 58.9589C569.214 57.1985 573.71 57.2746 573.71 59.0521C573.71 59.8272 574.556 61.367 575.59 62.4759C577.037 64.0287 577.142 64.9128 576.051 66.3238C575.089 67.5693 575.03 68.6808 575.868 69.7975C578.059 72.7153 580.033 89.3988 578.395 91.1553C578.057 91.5179 576.02 91.1565 573.867 90.3512C570.321 89.0243 569.671 89.2148 566.934 92.3836C563.483 96.3788 563.196 97.7951 565.634 98.7988C566.579 99.1877 569.6 103.532 572.347 108.455C576.736 116.318 577.085 117.501 575.22 118.221C574.053 118.671 572.914 118.528 572.69 117.902C572.135 116.357 565.139 116.448 565.139 118.001C565.139 118.681 565.761 119.65 566.52 120.153C567.465 120.779 567.272 121.448 565.908 122.267C564.812 122.925 563.914 124.321 563.914 125.37C563.914 126.61 562.634 127.275 560.241 127.275C556.39 127.275 555.424 129.463 558.037 132.267C560.319 134.716 555.265 134.295 551.885 131.756C548.197 128.984 546.066 130.073 545.106 135.222C544.391 139.06 539.021 145.662 536.611 145.666C536.074 145.666 534.909 147.516 534.024 149.774C533.115 152.093 532.06 153.266 531.599 152.469C530.696 150.899 524.732 154.19 520.109 158.811C517.94 160.979 517.384 161.122 517.384 159.513C517.384 158.395 516.334 157.491 515.033 157.491C512.783 157.491 512.766 157.267 514.631 152.173L516.577 146.855L512.831 143.183C507.722 138.178 502.41 138.908 499.723 144.987C498.676 147.352 496.436 150.26 494.745 151.449C492.831 152.794 491.671 154.84 491.671 156.865C491.671 160.19 491.423 160.307 483.712 160.625C480.848 160.743 479.949 161.451 479.634 163.839C479.411 165.525 480.238 168.101 481.471 169.563C484.804 173.518 492.682 177.447 495.414 176.517C497.286 175.88 497.793 176.333 497.793 178.648C497.793 185.859 507.738 189.601 509.992 183.237C511.647 178.568 513.34 178.023 518.32 180.558C520.787 181.814 524.755 182.968 527.136 183.12C529.518 183.274 531.741 183.505 532.078 183.635C532.415 183.765 529.66 185.272 525.956 186.984C522.252 188.696 519.044 191.037 518.826 192.186C518.608 193.336 517.325 194.277 515.973 194.277C513.88 194.277 513.636 194.861 514.323 198.218C514.786 200.479 514.625 202.159 513.945 202.159C513.292 202.159 512.397 204.232 511.954 206.765C511.158 211.315 512.16 215.184 514.094 215.033C517.285 214.785 524.922 220.489 527.199 224.822C528.621 227.532 530.266 229.748 530.852 229.748C531.439 229.748 532.616 231.815 533.468 234.341C534.319 236.868 536.062 239.29 537.341 239.726C538.62 240.161 540.714 241.642 541.995 243.016C544.282 245.47 544.28 245.514 541.874 245.514C540.527 245.514 539.425 244.845 539.425 244.028C539.425 243.059 537.91 242.806 535.076 243.3C531.921 243.849 530.539 243.535 530.047 242.158C529.318 240.12 524.731 239.485 524.731 241.421C524.731 243.37 531.297 247.349 534.108 247.106C536.96 246.859 546.821 252.265 549.253 255.409C550.461 256.97 550.367 257.337 548.758 257.337C547.666 257.337 546.772 257.885 546.772 258.557C546.772 259.227 544.568 260.817 541.874 262.093C539.18 263.369 536.976 265.184 536.976 266.129C536.976 268.276 538.478 268.338 540.405 266.271C541.547 265.045 541.874 265.191 541.874 266.928C541.874 269.449 544.378 269.891 546.396 267.725C547.364 266.686 548.638 266.924 551 268.585C553.23 270.152 553.801 271.187 552.801 271.85C551.714 272.572 551.672 273.849 552.639 276.825C553.714 280.135 553.637 280.704 552.192 280.11C551.126 279.67 550.445 280.213 550.445 281.501C550.445 282.663 551.016 283.613 551.713 283.613C552.571 283.613 552.585 284.405 551.755 286.068C551.082 287.417 550.908 288.927 551.37 289.421C551.83 289.916 551.222 289.915 550.015 289.418C548.075 288.619 547.919 289.062 548.659 293.29C549.212 296.453 549.035 298.064 548.132 298.064C547.384 298.064 546.772 299.524 546.772 301.308C546.772 303.642 546.26 304.34 544.945 303.799C542.453 302.773 541.361 306.405 543.109 309.909C544.394 312.484 544.282 312.678 541.979 311.894C538.37 310.666 538.556 314.853 542.18 316.416C543.695 317.069 544.247 317.642 543.404 317.688C542.563 317.733 541.874 318.658 541.874 319.741C541.874 320.825 541.383 321.712 540.782 321.712C540.182 321.712 539.336 323.228 538.902 325.08C538.39 327.268 536.806 328.939 534.381 329.845C531.566 330.899 530.8 331.858 531.261 333.754C531.853 336.18 528.009 341.418 525.637 341.418C523.882 341.418 521.058 345.006 521.058 347.237C521.058 348.372 520.37 349.327 519.527 349.359C511.463 349.667 505.904 350.583 504.78 351.789C502.871 353.837 499.589 353.593 497.793 351.272C496.74 349.911 496.693 349.301 497.644 349.301C498.399 349.301 499.017 348.71 499.017 347.987C499.017 346.035 495.081 346.474 492.289 348.737C490.708 350.02 490.313 351.048 491.167 351.651C492.038 352.266 492.127 354.048 491.429 356.87C490.507 360.594 489.975 361.047 487.347 360.341C485.426 359.823 484.324 360.086 484.324 361.06C484.324 361.904 483.817 362.257 483.199 361.847C482.579 361.436 481.308 361.921 480.374 362.923C478.652 364.77 471.386 367.097 468.869 366.609C466.417 366.133 465.711 374.42 467.973 377.104C469.094 378.431 469.44 379.518 468.745 379.518C466.433 379.518 464.336 375.507 464.184 370.796C464.022 365.822 460.384 361.987 458.663 364.975C458.026 366.08 457.346 365.941 456.209 364.471C455.344 363.353 453.877 362.439 452.95 362.439C452.022 362.439 451.263 361.847 451.263 361.125C451.263 358.746 448.599 359.756 447.959 362.378C447.446 364.48 446.636 364.798 443.482 364.129C437.158 362.791 432.896 358.631 432.896 353.801C432.896 349.794 432.627 349.557 427.08 348.677C423.881 348.168 420.345 346.872 419.222 345.794C417.632 344.269 416.618 344.16 414.631 345.301C413.227 346.107 412.08 347.632 412.08 348.69C412.08 349.867 410.891 350.615 409.019 350.615C407.335 350.615 405.958 351.211 405.958 351.939C405.958 352.725 404.961 352.596 403.509 351.624C401.541 350.306 400.559 350.318 398.515 351.688C396.681 352.916 395.528 352.999 394.384 351.981C392.593 350.386 388.464 351.57 389.507 353.38C389.879 354.027 388.498 354.556 386.438 354.556C383.245 354.556 382.693 355.047 382.693 357.886C382.693 359.719 383.549 362.62 384.596 364.334C385.642 366.047 385.999 367.782 385.388 368.188C384.776 368.594 383.655 367.465 382.898 365.682C381.456 362.286 379.689 361.527 378.407 363.752C376.939 366.302 372.85 365.106 371.673 361.782C370.793 359.301 369.623 358.497 366.891 358.497C363.391 358.497 363.309 358.357 364.411 354.237C365.037 351.893 365.55 349.838 365.55 349.671C365.55 349.505 363.902 348.454 361.887 347.336C359.034 345.752 358.049 344.129 357.432 339.989C356.652 334.757 356.566 334.68 351.903 335.041C348.208 335.328 346.762 334.789 345.324 332.587C344.312 331.037 343.98 329.438 344.585 329.036C345.191 328.634 346.063 326.7 346.522 324.739C346.981 322.777 348.419 320.373 349.719 319.397C354.105 316.101 351.444 297.389 346.224 294.827C344.805 294.132 343.352 292.311 342.993 290.782C342.154 287.193 334.021 282.267 332.705 284.552C331.433 286.761 326.375 285.112 326.333 282.474C326.315 281.294 324.626 278.565 322.581 276.412C318.914 272.548 318.812 272.526 315.238 274.726C312.356 276.501 311.004 276.66 308.634 275.502C306.067 274.247 305.067 274.569 301.387 277.844C299.039 279.933 295.433 283.092 293.375 284.865C291.317 286.637 289.633 288.785 289.633 289.639C289.633 291.885 284.199 292.657 281.773 290.753C280.636 289.861 277.686 289.131 275.22 289.131C272.754 289.131 270.534 288.48 270.286 287.685C269.497 285.142 263.904 286.136 260.906 289.354C258.342 292.105 257.792 292.24 256.189 290.522C254.676 288.898 253.629 288.839 249.871 290.17C247.394 291.047 243.619 291.387 241.481 290.928C239.343 290.468 235.707 289.833 233.404 289.518C231.1 289.201 228.648 288.336 227.955 287.592C227.262 286.849 225.703 286.24 224.491 286.24C223.279 286.24 222.287 285.723 222.287 285.091C222.287 284.459 220.7 283.601 218.762 283.184C215.456 282.475 214.34 281.583 210.252 276.376C209.307 275.173 207.677 274.628 206.363 275.076C205.053 275.521 203.678 275.064 203.092 273.988C202.538 272.966 199.843 270.915 197.103 269.428C194.364 267.942 191.405 265.796 190.526 264.659C188.706 262.307 180.655 261.824 180.655 264.067C180.655 265.043 179.989 264.948 178.687 263.789C176.421 261.771 173.247 259.734 167.186 256.406C164.829 255.112 162.459 253.315 161.921 252.411C161.382 251.508 160.002 250.769 158.853 250.769C158.045 250.769 157.123 249.726 156.346 248.341C154.821 245.62 153.86 241.579 155.43 241.53C156.172 241.508 157.818 240.643 159.09 239.611C161.121 237.961 161.217 237.256 159.876 233.784C159.037 231.613 157.308 229.48 156.033 229.047C153.335 228.127 152.923 223.786 155.438 222.753C156.385 222.362 157.531 220.23 157.984 218.014C158.438 215.796 159.316 213.983 159.936 213.983C160.557 213.983 161.064 211.323 161.064 208.071C161.064 203.535 160.609 202.159 159.109 202.159C158.036 202.159 155.549 200.931 153.585 199.431C149.436 196.26 144.56 196.832 140.065 201.015C137.886 203.043 136.239 203.46 132.924 202.823C130.554 202.367 128.003 201.144 127.256 200.106C126.508 199.068 125 198.218 123.905 198.218C122.81 198.218 121.157 196.276 120.233 193.902C119.089 190.965 116.982 188.827 113.628 187.205C109.842 185.373 108.844 184.245 109.313 182.324C109.647 180.95 109.367 179.825 108.689 179.825C108.012 179.825 106.729 177.179 105.839 173.945C104.597 169.431 103.419 167.765 100.772 166.774C98.874 166.065 96.5109 165.819 95.5203 166.226C94.2946 166.731 93.7178 166.107 93.7178 164.278C93.7178 162.799 93.2586 161.283 92.6978 160.911C91.0497 159.818 92.5987 152.236 94.4684 152.236C95.4027 152.236 96.1667 151.703 96.1667 151.051C96.1667 150.399 97.8198 149.247 99.8401 148.492C102.07 147.658 103.514 147.607 103.514 148.363C103.514 149.048 105.127 149.609 107.1 149.609C110.923 149.609 114.534 146.692 114.534 143.603C114.534 142.436 115.807 141.72 117.901 141.708C123.155 141.68 126.778 140.278 126.778 138.275C126.778 137.267 129.824 134.839 133.546 132.881C139.894 129.541 140.309 129.031 140.223 124.684C140.173 122.135 140.494 118.443 140.937 116.481C141.57 113.675 140.834 111.57 137.49 106.627C135.151 103.171 133.485 99.6027 133.785 98.6989C134.085 97.795 133.078 96.5575 131.548 95.9506C129.084 94.9731 129.339 94.7471 133.767 93.9878C136.517 93.5162 141.304 93.5029 144.406 93.9588C149.61 94.7234 150.043 94.5685 150.043 91.941C150.043 90.375 149.217 88.7524 148.207 88.3372C146.838 87.7736 146.37 85.4299 146.37 79.1356C146.37 71.5197 146.581 70.8063 148.513 71.8692C149.692 72.5168 153.523 73.3945 157.028 73.8175C162.129 74.4324 163.957 74.1026 166.192 72.1609C168.937 69.7764 168.948 69.6567 166.86 64.96C164.071 58.6855 164.166 57.8132 167.798 56.3313C169.904 55.4721 170.859 54.0861 170.859 51.8881C170.859 48.0178 173.659 48.4014 178.591 52.9483C182.349 56.4127 190.151 60.6102 197.186 62.9526C204.029 65.232 213.514 75.3192 214.394 81.2548C215.759 90.4603 216.157 91.3772 219.503 93.0273C221.371 93.947 227.282 95.0284 232.639 95.4291C245.895 96.4196 258.305 102.652 269.362 113.872L277.407 122.035L299.743 122.816C318.046 123.456 322.635 124.005 325.143 125.857C328.182 128.101 343.183 132.54 347.708 132.534C349.008 132.531 351.93 133.251 354.204 134.134C357.149 135.275 358.582 135.327 359.189 134.31C361.816 129.907 377.726 124.664 388.569 124.627C395.228 124.605 399.862 122.466 401.667 118.583C402.364 117.082 404.476 114.431 406.361 112.693C410.371 108.992 409.931 106.474 404.695 103.155C402.539 101.787 401.06 99.7513 401.06 98.1485C401.06 95.2424 402.048 95.2437 412.569 98.1695C416.998 99.4005 417.601 99.2192 420.928 95.6497C422.899 93.5346 425.592 91.803 426.911 91.803C431.107 91.803 435.422 87.8539 435.061 84.3448C434.774 81.5688 435.594 80.8396 441.467 78.6417C446.178 76.8799 449.903 76.3517 453.861 76.8838C464.624 78.3316 462.907 72.5078 450.177 64.3926C442.273 59.3557 434.772 57.3837 432.557 59.7616C432.145 60.203 428.61 60.6194 424.702 60.689C417.786 60.8099 417.574 60.7101 416.819 56.9304C416.393 54.7942 415.978 50.5967 415.898 47.6027L415.753 42.1597L420.408 43.4275C424.521 44.5469 425.662 44.2735 430.203 41.0837C435.336 37.4774 436.299 35.6303 434.27 33.2747C432.75 31.5117 431.747 19.6509 433.044 18.7904C436.435 16.5426 432.191 7.72198 427.719 7.72198Z" fill="#345764"/>
<path d="M144.814 203.126C144.33 201.776 144.808 200.798 146.131 200.424C147.273 200.101 148.356 199.768 148.539 199.684C148.722 199.6 151.063 201.089 153.743 202.991C158.922 206.668 159.642 209.131 156.739 213.249C155.751 214.652 154.929 217.017 154.914 218.504C154.887 221.154 154.843 221.148 152.772 218.288C151.607 216.682 148.956 214.736 146.881 213.966C144.804 213.195 143.053 211.85 142.989 210.975C142.926 210.101 142.492 208.046 142.026 206.409C141.317 203.924 141.538 203.582 143.374 204.339C145.056 205.031 145.393 204.747 144.814 203.126Z" fill="#345764"/>
<path d="M309.965 279.717C313.848 281.092 314.621 281.018 315.581 279.177C316.977 276.5 319.02 276.403 319.02 279.015C319.02 280.098 319.887 280.985 320.946 280.985C325.165 280.985 321.906 285.367 316.41 287.084C313.269 288.066 309.894 290.179 308.849 291.819C303.841 299.674 301.311 301.582 294.837 302.392C288.989 303.122 288.409 302.959 288.409 300.588C288.409 299.111 287.213 297.464 285.653 296.791L282.898 295.603L285.553 295.519C289.35 295.401 292.076 294.081 292.122 292.34C292.187 289.944 296.584 284.927 298.618 284.927C299.639 284.927 301.597 283.396 302.97 281.525C305.312 278.33 305.737 278.22 309.965 279.717Z" fill="#345764"/>
<path d="M465.522 386.921C467.107 386.823 468.413 386.152 468.424 385.43C468.434 384.707 468.91 384.905 469.479 385.87C470.05 386.835 470.868 387.574 471.298 387.512C473.922 387.136 474.174 387.861 472.973 392.327C470.506 401.486 465.478 405.093 459.754 401.806C454.126 398.574 458.473 387.356 465.522 386.921Z" fill="#345764"/>
<path d="M332.108 292.356C331.212 291.863 329.006 290.982 327.206 290.399C324.578 289.547 324.43 289.315 326.454 289.225C327.842 289.163 330.048 290.043 331.356 291.182C332.664 292.321 333.002 292.849 332.108 292.356Z" fill="#DBDBDB"/>
<path d="M334.989 295.663C336.045 294.721 336.627 293.158 336.281 292.189C334.849 288.187 339.51 290.771 341.102 294.863C342.053 297.303 343.87 299.591 345.143 299.949C349.006 301.033 350.558 314.929 347.216 318.515C346.205 319.6 345.377 321.073 345.377 321.787C345.377 322.503 344.778 323.301 344.046 323.563C342.874 323.982 342.484 328.888 342.834 338.839C342.935 341.672 343.305 341.819 348.307 341.014C353.649 340.154 353.685 340.175 355.849 345.44C357.044 348.348 359.093 351.028 360.401 351.395C362.45 351.971 362.662 352.802 361.935 357.412C361.115 362.627 361.181 362.762 364.578 362.762C367.256 362.762 368.433 363.658 369.658 366.627C370.693 369.137 372.311 370.636 374.271 370.902L377.291 371.311L374.509 375.563C372.978 377.901 371.019 379.824 370.156 379.837C369.292 379.849 368.267 380.747 367.88 381.832C367.492 382.917 366.13 383.805 364.854 383.805C363.578 383.805 362.534 384.657 362.534 385.699C362.534 386.937 360.945 387.734 357.939 388.001L353.343 388.408L352.73 395.642C352.393 399.62 351.58 402.683 350.923 402.448C348.687 401.648 348.989 404.365 351.477 407.443C352.839 409.13 353.956 411.198 353.956 412.037C353.956 412.876 355.665 415.301 357.756 417.425C359.846 419.549 362.114 422.768 362.797 424.576C364.677 429.555 364.821 438.829 363.03 439.566C362.188 439.914 361.316 441.565 361.094 443.237C360.871 444.909 359.9 441.372 358.936 435.377C357.696 427.664 356.73 424.665 355.632 425.118C354.779 425.469 353.697 424.455 353.228 422.865C352.201 419.381 348.799 414.153 347.522 414.095C347.017 414.073 346.603 416.386 346.603 419.237C346.603 422.089 346.051 424.786 345.377 425.233C344.703 425.681 344.152 425.074 344.152 423.887C344.152 422.698 343.463 421.973 342.62 422.274C341.778 422.575 341.088 423.661 341.088 424.685C341.088 429.524 331.799 431.149 329.152 426.773C328.467 425.64 327.921 425.732 327.09 427.117C326.369 428.321 326.203 426.14 326.631 421.073C327.322 412.888 327.279 412.738 318.024 391.696C316.201 387.551 314.722 385.873 311.866 384.711C310.622 384.205 309.31 382.578 308.948 381.093C308.552 379.469 307.611 378.674 306.585 379.098C304.83 379.82 300.034 375.594 300.034 373.324C300.034 372.625 300.948 372.427 302.066 372.888C303.802 373.603 303.992 373.023 303.368 368.901C302.816 365.246 303.06 364.077 304.377 364.077C306.154 364.077 307.383 360.228 307.105 355.529C307.021 354.082 307.049 350.319 307.169 347.167C307.375 341.748 307.555 341.48 310.451 342.26C312.512 342.815 313.517 342.538 313.522 341.415C313.527 340.497 314.384 337.985 315.43 335.834C316.476 333.682 317.222 330.131 317.088 327.942C316.954 325.754 317.505 322.212 318.311 320.07C319.117 317.929 319.482 314.91 319.121 313.365C318.619 311.22 319.646 309.535 323.453 306.251C327.886 302.428 328.76 302.129 331.279 303.576C335.306 305.888 337.239 304.207 334.919 300.408C333.26 297.69 333.267 297.196 334.989 295.663Z" fill="#DBDBDB"/>
<path d="M305.94 302.445C307.503 300.537 310.127 297.347 311.771 295.359C315.055 291.383 320.034 290.65 326.729 293.155C331.222 294.835 331.819 299.633 327.535 299.633C326.097 299.633 322.905 301.734 320.442 304.299C316.611 308.292 315.965 309.811 315.965 314.821C315.965 318.246 315.399 320.676 314.601 320.676C313.77 320.676 313.456 322.279 313.796 324.77C314.104 327.022 313.666 331.016 312.824 333.646C311.436 337.981 310.922 338.388 307.345 337.984L303.399 337.541L304.242 343.575C304.75 347.205 304.615 349.61 303.902 349.61C303.229 349.61 303.001 351.876 303.376 354.871C303.737 357.764 303.531 360.132 302.917 360.132C301.859 360.132 297.583 346.64 297.583 343.299C297.583 340.552 291.694 341.471 290.843 344.35C289.966 347.314 288.259 347.808 287.433 345.336C286.681 343.082 288.742 339.089 290.659 339.089C292.28 339.089 296.357 331.16 296.357 328.006C296.357 325.404 293.525 324.622 284.102 324.622C274.695 324.622 271.847 323.839 271.847 321.255C271.847 317.249 268.911 312.614 266.757 313.219C265.562 313.554 263.945 313.002 263.163 311.992C262.383 310.982 260.846 310.136 259.749 310.112C255.422 310.022 251.014 303.781 251.014 297.747C251.014 292.18 254.281 293.724 255.173 299.712C255.853 304.277 256.612 305.34 260.406 307.042C265.565 309.355 264.548 309.298 283.396 308.317C300.615 307.42 302.203 307.007 305.94 302.445Z" fill="#DBDBDB"/>
<path d="M293.348 356.186C291.417 356.186 291.457 354.586 293.584 346.333C294.043 344.556 295.177 347.089 297.117 354.224C300.242 365.716 300.558 368.023 299.006 368.023C297.528 368.023 294.666 361.209 295.002 358.488C295.169 357.137 294.485 356.186 293.348 356.186Z" fill="#DBDBDB"/>
<path d="M403.601 357.507C407.095 358.932 414.814 355.406 415.643 352.009C416.342 349.137 417.499 349.049 420.673 351.625C421.982 352.687 424.91 353.556 427.179 353.556C429.768 353.556 431.008 354.074 430.507 354.946C428.829 357.859 431.35 362.648 436.48 366.295C440.78 369.351 441.502 370.393 440.215 371.683C439.336 372.564 437.231 373.284 435.534 373.284C432.757 373.284 432.523 373.678 433.188 377.25C433.782 380.435 433.294 381.849 430.707 384.422C428.034 387.081 427.486 388.775 427.486 394.394C427.486 400.329 427.976 401.656 431.469 405.179C433.659 407.388 435.291 409.771 435.094 410.474C434.898 411.178 435.672 412.863 436.816 414.219C437.959 415.575 438.307 416.685 437.589 416.685C436.871 416.685 434.851 414.762 433.102 412.41C431.354 410.059 428.823 406.931 427.479 405.46C426.134 403.987 425.035 402.064 425.035 401.185C425.035 400.307 424.379 399.587 423.579 399.587C421.861 399.587 414.026 394.049 414.014 392.825C414.009 392.362 415.318 391.628 416.923 391.195C420.514 390.228 421.934 385.352 419.474 382.435C418.488 381.267 417.682 379.684 417.682 378.92C417.682 378.156 416.21 376.497 414.41 375.231C411.852 373.432 410.656 373.253 408.929 374.411C405.401 376.775 400.525 373.761 400.525 369.217C400.525 366.668 399.419 364.727 396.848 362.762C392.608 359.522 391.473 355.025 395.592 357.785C397.418 359.01 398.359 359.036 399.424 357.893C400.335 356.916 401.817 356.778 403.601 357.507Z" fill="#DBDBDB"/>
<path d="M389.495 370.613C389.495 368.394 388.653 364.831 387.625 362.696C386.597 360.563 386.233 358.817 386.816 358.817C388.682 358.817 396.72 368.989 397.504 372.342C398.536 376.756 407.467 381.385 409.188 378.397C409.679 377.543 410.999 377.224 412.121 377.685C413.243 378.147 413.808 379.139 413.377 379.887C412.945 380.636 413.825 382.319 415.333 383.629C418.518 386.396 417.6 389.066 413.464 389.066C411.649 389.066 410.383 390.017 409.976 391.687C409.488 393.689 410.629 395.246 414.796 398.263C417.799 400.438 420.78 402.218 421.42 402.218C422.061 402.218 422.584 402.999 422.584 403.954C422.584 404.907 423.825 406.922 425.341 408.428C432.225 415.267 438.515 423.223 438.515 425.091C438.515 426.217 440.17 428.057 442.192 429.179C444.743 430.595 445.868 432.195 445.868 434.408C445.868 436.163 446.833 438.176 448.013 438.885C450.914 440.628 450.921 448.02 448.024 449.008C446.85 449.407 445.36 449.382 444.71 448.951C442.788 447.676 437.29 449.697 437.29 451.679C437.29 452.687 436.12 453.51 434.689 453.51C432.558 453.51 432.354 453.165 433.559 451.607C434.569 450.301 434.758 447.359 434.161 442.231C433.422 435.883 432.579 434.016 428.551 429.822C424.786 425.902 423.809 423.914 423.809 420.177C423.809 416.392 422.751 414.302 418.404 409.501C412.358 402.825 407.799 401.748 404.397 406.191C402.58 408.565 401.938 408.674 398.385 407.219C394.596 405.667 394.249 405.795 391.032 409.938L387.657 414.283L388.057 404.406C388.536 392.569 387.031 388.454 382.655 389.633C380.07 390.328 379.691 389.978 379.691 386.893C379.691 384.947 378.778 382.273 377.663 380.95C375.776 378.711 375.776 378.544 377.663 378.544C378.996 378.544 379.691 377.445 379.691 375.334C379.691 372.141 381.56 369.621 382.345 371.757C382.57 372.372 384.271 373.276 386.125 373.762C389.249 374.584 389.495 374.354 389.495 370.613Z" fill="#DBDBDB"/>
<path d="M444.013 425.891C442.809 425.891 439.741 420.617 439.741 418.55C439.741 418.196 440.844 418.54 442.192 419.315C443.54 420.09 444.643 421.59 444.643 422.649C444.643 423.709 445.338 424.576 446.186 424.576C447.035 424.576 448.418 425.76 449.26 427.206C450.102 428.653 451.496 429.837 452.357 429.837C454.512 429.837 462.078 441.054 464.777 448.249C467.817 456.356 470.153 468.87 469 470.872C468.478 471.779 468.368 475.009 468.757 478.049C469.377 482.903 469.049 483.989 466.064 486.956C464.197 488.815 461.921 490.335 461.008 490.335C460.095 490.335 459.349 490.906 459.349 491.604C459.349 493.86 454.345 496.013 452.845 494.403C450.883 492.297 447.094 492.65 447.094 494.938C447.094 496.023 446.627 496.911 446.056 496.911C445.485 496.911 443.715 498.124 442.122 499.606C439.667 501.892 439.453 502.689 440.709 504.85C442.697 508.265 442.578 510.063 440.363 510.063C439.359 510.063 437.847 511.247 437.005 512.693C434.591 516.841 432.388 515.9 432.388 510.721C432.388 508.189 432.939 506.117 433.613 506.117C435.767 506.117 434.927 502.253 432.406 500.563C430.032 498.973 430.052 498.861 433.229 495.932C435.776 493.582 437.369 493.109 440.563 493.752C444.155 494.475 444.643 494.236 444.643 491.756C444.643 490.205 443.816 488.596 442.805 488.181C440.105 487.068 440.564 483.759 443.417 483.759C444.765 483.759 445.868 483.262 445.868 482.656C445.868 482.048 448.056 480.421 450.729 479.039L455.589 476.526L455.497 468.771C455.446 464.508 454.719 459.269 453.881 457.131C452.829 454.446 452.682 451.382 453.408 447.221C454.289 442.16 454.088 440.76 452.156 438.475C450.892 436.979 450.122 434.972 450.444 434.018C451.105 432.066 446.219 425.891 444.013 425.891Z" fill="#DBDBDB"/>
<path d="M366.059 457.165C364.12 453.026 362.534 449.228 362.534 448.725C362.534 447.634 362.366 447.45 367.917 454.621C370.762 458.297 372.338 461.698 372.338 464.16C372.338 466.265 373.441 470.194 374.789 472.895C377.693 478.708 377.97 485.418 375.402 487.705C374.115 488.85 373.517 488.899 373.411 487.865C373.326 487.054 373.118 484.763 372.949 482.773C372.778 480.783 372.305 477.677 371.897 475.868C371.488 474.06 370.8 470.805 370.369 468.635C369.936 466.465 367.998 461.302 366.059 457.165Z" fill="#DBDBDB"/>
<path d="M444.336 504.971C443.156 503.978 442.192 502.941 442.192 502.669C442.192 501.587 443.198 502.282 444.8 504.473C446.323 506.559 446.28 506.605 444.336 504.971Z" fill="#DBDBDB"/>
<path d="M526.751 568.589C526.077 568.142 525.526 567.22 525.526 566.538C525.526 565.857 526.077 565.301 526.751 565.301C527.425 565.301 527.977 566.224 527.977 567.351C527.977 568.478 527.425 569.036 526.751 568.589Z" fill="#DBDBDB"/>
<path d="M365.799 607.555C364.678 606.562 363.76 605.23 363.76 604.596C363.76 602.586 364.849 603.34 366.369 606.4C367.701 609.083 367.647 609.191 365.799 607.555Z" fill="#DBDBDB"/>
<path d="M626.887 723.123C626.404 721.143 627.063 720.532 630.132 720.118C636.109 719.312 641.183 719.121 640.621 719.725C640.34 720.026 637.272 721.474 633.801 722.941C627.655 725.541 627.477 725.545 626.887 723.123Z" fill="#DBDBDB"/>
</svg>
