<svg width="1217" height="479" viewBox="0 0 1217 479" fill="none" xmlns="http://www.w3.org/2000/svg">
<path d="M372.886 259.934C378.909 259.934 387.137 257.205 389.475 254.433C391.152 252.444 392.54 252.039 395.371 252.713C397.409 253.197 400.793 253.646 402.891 253.713C405.651 253.8 407.347 254.867 409.018 257.568C410.29 259.623 411.173 262.161 410.979 263.212C410.554 265.517 415.589 267.115 419.298 265.853C421.126 265.229 422.435 265.693 423.593 267.377C424.87 269.233 425.599 269.438 426.717 268.257C428.446 266.427 431.552 267.405 431.552 269.778C431.552 272.751 434.998 274.929 436.949 273.19C437.929 272.318 440.039 272.026 441.851 272.514C443.728 273.02 445.032 272.818 445.032 272.021C445.032 271.278 446.914 269.422 449.216 267.895L453.4 265.12L461.777 269.985C471.006 275.344 479.572 282.596 491.448 295.106C495.746 299.632 499.988 303.335 500.876 303.335C501.764 303.335 503.35 302.02 504.399 300.412C505.448 298.805 506.311 298.066 506.314 298.768C506.327 300.777 513.514 304.656 517.129 304.605C518.929 304.578 521.779 303.712 523.464 302.678C527.609 300.136 527.452 300.093 533.268 305.308C536.092 307.84 539.154 309.911 540.074 309.911C540.995 309.911 543.013 311.377 544.56 313.166C546.632 315.565 548.981 316.568 553.494 316.978C561.964 317.747 563.394 318.593 563.227 322.733C563.12 325.342 562.296 326.483 560.124 327.029C556.369 327.97 555.577 333.395 558.499 338.18C561.532 343.147 559.676 344.198 550.415 342.762C546.039 342.083 541.77 341.517 540.927 341.502C539.824 341.484 539.394 344.51 539.392 352.326L539.388 363.176L535.409 363.312C528.704 363.541 521.013 366.371 521.013 368.611C521.013 369.735 522.116 370.966 523.464 371.344C524.812 371.723 525.915 372.902 525.915 373.965C525.915 375.029 527.571 378.372 529.593 381.396C532.975 386.449 533.152 387.235 531.775 391.145C530.05 396.052 529.453 396.225 525.007 393.097C522.341 391.222 518.704 390.764 505.388 390.623C493.219 390.494 487.634 389.873 483.542 388.197C478.461 386.115 477.814 386.105 475.019 388.07C473.355 389.241 471.993 391.141 471.993 392.295C471.993 393.872 471.312 394.156 469.236 393.442C460.006 390.268 452.805 391.216 451.716 395.747C451.326 397.363 449.041 400.166 446.636 401.975C440.612 406.505 435.232 412.681 435.21 415.091C435.2 416.251 434.522 415.71 433.607 413.811C432.218 410.93 431.314 410.563 426.292 410.84C420.738 411.147 420.484 410.995 418.065 405.908C416.694 403.021 414.814 400.659 413.889 400.659C411.935 400.659 410.718 397.841 410.718 393.318C410.718 391.569 410.116 390.138 409.381 390.138C408.646 390.138 405.755 388.035 402.957 385.465C399.361 382.162 397.148 381.027 395.409 381.598C394.055 382.041 388.1 382.518 382.174 382.654L371.4 382.904L367.042 378.114C364.645 375.48 360.67 372.346 358.208 371.15C355.063 369.622 353.02 367.332 351.335 363.446C350.017 360.404 348.796 357.691 348.623 357.416C348.45 357.142 346.143 356.72 343.496 356.48C340.116 356.172 337.899 356.771 336.048 358.494C334.599 359.842 329.531 361.968 324.786 363.216C319.955 364.486 315.856 366.328 315.472 367.401C314.796 369.295 315.478 373.247 320.368 395.737C321.746 402.072 322.499 407.655 322.042 408.145C321.585 408.636 319.154 406.926 316.639 404.346C308.654 396.155 305.049 395.137 297.896 399.051L293.627 401.387L294.092 397.099C294.497 393.381 294.094 392.623 291.058 391.41C283.908 388.55 280.815 386.835 280.815 385.732C280.815 385.108 279.153 382.347 277.124 379.595C274.3 375.769 273.94 374.724 275.592 375.149C276.78 375.455 278.511 375.171 279.44 374.52C281.37 373.165 280.266 370.41 277.794 370.41C276.721 370.41 276.378 369.445 276.815 367.652C277.368 365.381 278.131 365.033 281.142 365.679C283.153 366.112 286.955 366.464 289.59 366.464C293.948 366.464 294.268 366.695 293.113 369.008C292.416 370.407 291.845 372.479 291.845 373.611C291.845 376.81 294.924 376.038 296.747 372.383C297.649 370.574 299.396 369.095 300.63 369.095C303.183 369.095 303.372 368.041 301.679 363.262C300.516 359.981 296.747 358.477 296.747 361.296C296.747 362.069 295.505 362.512 293.989 362.281C291.75 361.938 291.286 361.117 291.517 357.914C291.914 352.435 289.65 345.669 287.173 344.932C286.036 344.594 281.395 343.929 276.86 343.453C269.96 342.729 267.864 343.016 263.993 345.214C258.071 348.577 253.854 349.568 253.854 347.599C253.854 346.763 251.712 343.563 249.094 340.49C245.174 335.886 243.551 334.9 239.903 334.9C236.341 334.9 235.472 334.401 235.472 332.358C235.472 330.96 234.369 329.441 233.021 328.982C230.557 328.142 229.505 323.063 231.795 323.063C233.625 323.063 233.276 320.284 231.125 317.734C229.413 315.703 229.413 315.287 231.125 313.449C232.168 312.33 233.021 310.343 233.021 309.033C233.021 307.067 233.576 307.293 236.2 310.33C240.491 315.297 244.702 314.755 244.562 309.254C244.507 307.084 245.196 304.835 246.094 304.256C246.993 303.677 247.727 302.411 247.727 301.44C247.727 300.47 249.218 299.273 251.042 298.782C252.865 298.29 255.121 296.719 256.054 295.289C257.163 293.59 258.244 293.101 259.173 293.878C259.955 294.533 264.224 295.108 268.66 295.155C275.249 295.225 277.772 295.919 282.446 298.949C285.593 300.989 288.168 303.402 288.168 304.313C288.168 305.221 289.271 305.966 290.619 305.966C291.967 305.966 293.07 305.429 293.07 304.774C293.07 304.109 295.021 304.224 297.478 305.033C301.399 306.325 302.109 306.18 303.912 303.722C305.611 301.405 307.144 300.99 313.41 301.16C317.934 301.282 321.738 302.125 323.053 303.297C325.328 305.324 340.383 305.826 345.599 304.05C349.791 302.623 349.169 296.04 344.603 293.506C342.614 292.402 340.177 291.499 339.189 291.499C336.586 291.499 336.035 288.472 338.306 286.647C339.922 285.349 339.992 284.626 338.72 282.39C336.481 278.455 336.744 278.138 341.477 279.091C345.243 279.849 345.767 279.627 345.767 277.267C345.767 275.734 344.714 274.22 343.316 273.744C341.968 273.285 340.865 272.338 340.865 271.639C340.865 270.942 339.623 269.786 338.107 269.072C335.927 268.045 336.568 267.882 341.171 268.295C344.372 268.583 346.992 268.348 346.992 267.773C346.992 266.59 357.76 263.88 362.459 263.88C364.159 263.88 366.377 262.992 367.388 261.907C368.399 260.822 370.872 259.934 372.886 259.934Z" fill="#DBDBDB"/>
<path d="M321.895 388.512C317.511 368.479 317.505 368.528 325.239 366.082C334.211 363.244 334.737 363.324 334.737 367.528C334.737 372.034 337.496 376.435 339.491 375.112C340.419 374.496 340.657 372.531 340.153 369.65C339.72 367.174 339.659 365.149 340.015 365.149C342.387 365.149 344.541 367.135 344.541 369.322C344.541 375.997 351.343 380.19 352.757 374.387C353.556 371.107 356.074 372.375 364.604 380.353L370.573 385.936L383.599 385.696C396.693 385.457 401.132 386.646 403.733 391.093C404.272 392.015 405.512 392.768 406.49 392.768C407.638 392.768 408.267 394.132 408.267 396.624C408.267 399.407 409.29 401.262 411.944 403.29C413.966 404.835 415.62 406.989 415.62 408.077C415.62 411.834 419.088 414.028 424.382 413.618C428.683 413.285 429.61 413.67 430.465 416.148C431.213 418.32 432.463 419.072 435.32 419.072C438.248 419.072 438.996 418.597 438.456 417.086C438.027 415.884 439.406 413.265 441.95 410.455L446.153 405.808L448.701 408.542C450.103 410.047 451.781 410.924 452.429 410.493C453.079 410.063 453.611 410.236 453.611 410.881C453.611 412.426 448.878 414.919 445.032 415.4C442.742 415.687 441.993 416.531 442.065 418.743C442.134 420.815 441.461 421.702 439.824 421.702C437.898 421.702 437.618 422.355 438.239 425.389C438.966 428.94 438.837 429.057 434.769 428.546C431.353 428.119 430.259 428.586 429.063 430.983C427.776 433.565 427.961 434.261 430.487 436.345C432.083 437.663 434.08 438.755 434.922 438.771C435.765 438.786 436.454 439.911 436.454 441.27C436.454 442.627 437.266 444.461 438.26 445.347C439.836 446.75 439.842 447.419 438.309 450.602C437.342 452.608 436.897 454.619 437.32 455.072C438.293 456.118 436.565 456.118 431.705 455.075C428.737 454.439 427.875 453.566 427.875 451.204C427.875 447.597 423.681 444.073 419.33 444.026C417.626 444.008 413.225 441.936 409.549 439.423C405.874 436.91 402.34 434.854 401.7 434.854C401.057 434.854 398.826 433.502 396.74 431.85C394.654 430.198 391.42 428.135 389.554 427.263C387.686 426.392 385.676 424.317 385.086 422.65C384.495 420.984 383.127 418.834 382.046 417.87C380.965 416.907 380.081 415.376 380.081 414.469C380.081 411.802 376.318 409.218 372.232 409.078C361.751 408.717 361.698 408.699 361.698 405.262C361.698 403.454 361.147 401.975 360.473 401.975C359.799 401.975 359.247 401.098 359.247 400.027C359.247 398.956 357.731 397.674 355.877 397.179C354.023 396.685 350.839 395.279 348.801 394.056C344.89 391.709 340.741 392.383 338.824 395.675C338.262 396.643 336.23 398.508 334.308 399.82C331.65 401.638 330.952 402.963 331.382 405.378C331.849 408.001 331.449 408.55 329.075 408.55C327.097 408.55 326.015 407.631 325.595 405.591C325.259 403.963 323.594 396.278 321.895 388.512Z" fill="#DBDBDB"/>
<path d="M476.286 395.41C475.859 393.97 475.856 392.195 476.275 391.465C477.308 389.672 477.907 389.748 485.868 392.688C489.899 394.175 493.07 394.724 493.486 394.003C493.877 393.323 497.059 392.856 500.558 392.965C504.086 393.075 505.419 393.406 503.55 393.71C499.135 394.428 499.254 397.447 503.795 399.967C509.66 403.222 514.221 402.543 517.885 397.87C520.792 394.163 521.308 393.954 523.203 395.721C524.357 396.795 526.841 398.068 528.723 398.548C533.085 399.662 532.006 401.521 525.167 404.667C522.189 406.037 519.787 408.032 519.787 409.136C519.787 411.15 517.317 412.134 510.596 412.793C507.901 413.058 506.819 413.908 506.545 415.979C506.097 419.341 501.875 420.968 500.872 418.164C499.939 415.554 492.791 417.225 490.612 420.563C489.732 421.913 488.269 423.018 487.362 423.018C486.455 423.018 485.162 424.711 484.491 426.783C483.395 430.154 482.578 430.621 476.711 431.232C473.104 431.608 469.879 431.474 469.542 430.932C468.429 429.145 464.058 428.318 462.231 429.549C461.102 430.307 459.856 430.244 458.883 429.378C458.031 428.619 455.117 428.224 452.408 428.502C449.098 428.84 447.483 428.481 447.483 427.404C447.483 424.65 449.935 424.014 453.848 425.754C457.052 427.177 457.823 427.125 458.995 425.404C459.913 424.055 461.653 423.582 464.207 423.984C466.64 424.367 469.321 423.712 471.548 422.189C478.089 417.717 478.649 414.516 473.096 413.324C471.008 412.876 467.656 411.027 465.65 409.214C461.481 405.45 459.738 405.06 459.738 407.893C459.738 408.978 458.911 409.866 457.9 409.866C456.889 409.866 456.061 409.274 456.061 408.55C456.061 407.827 454.82 407.217 453.304 407.193C450.608 407.154 450.622 407.081 453.917 403.968C457.325 400.749 458.308 398.029 456.061 398.029C455.387 398.029 454.836 397.501 454.836 396.856C454.836 394.57 460.526 394.199 466.413 396.101C474.858 398.828 477.247 398.661 476.286 395.41Z" fill="#DBDBDB"/>
<path d="M342.335 399.081C344.583 401.493 346.127 400.963 345.411 398.026L344.769 395.393L348.215 398.026C350.11 399.474 352.727 400.659 354.031 400.659C355.71 400.659 356.875 402.189 358.014 405.895C359.79 411.671 361.019 412.407 369.574 412.806C375.174 413.068 375.583 413.363 379.77 420.132C382.169 424.01 386.392 428.733 389.153 430.626C398.912 437.313 413.852 445.631 419.341 447.433C423.545 448.811 424.898 449.904 424.898 451.919C424.898 454.756 423.612 455.439 422.36 453.267C421.213 451.276 418.071 451.692 418.071 453.838C418.071 454.913 416.632 455.901 414.716 456.139C411.896 456.488 411.244 457.331 410.63 461.418C409.679 467.746 407.736 470.105 402.63 471.134C399.272 471.81 398.463 472.583 398.463 475.113C398.463 478.66 396.747 479.007 389.665 476.897C385.704 475.716 384.911 474.759 383.133 469.013C381.268 462.986 380.801 462.473 377.191 462.473C374.789 462.473 372.46 461.455 371.174 459.843C370.019 458.396 368.242 457.212 367.225 457.212C366.207 457.212 365.375 456.714 365.375 456.104C365.375 454.508 358.386 451.165 351.379 449.408C348.063 448.577 344.707 446.954 343.922 445.802C342.736 444.06 341.071 443.871 334.045 444.679C326.53 445.543 325.148 446.158 321.557 450.244C316.058 456.501 314.306 455.334 313.246 444.713C312.632 438.568 311.743 435.566 310.241 434.558C308.991 433.72 308.351 432.122 308.696 430.702C309.021 429.37 308.672 428.278 307.919 428.278C307.166 428.278 306.551 427.438 306.551 426.409C306.551 425.382 304.896 424.151 302.874 423.675C300.519 423.12 299.198 421.992 299.198 420.536C299.198 418.692 300.328 418.263 305.177 418.263C309.057 418.263 311.855 417.513 313.143 416.131C315.372 413.739 315.808 409.866 313.848 409.866C312.184 409.866 306.551 403.82 306.551 402.034C306.551 399.274 309.094 400.791 314.168 406.578C319.344 412.48 319.38 412.496 327.796 412.496H336.236L335.429 407.884C334.711 403.779 334.966 403.13 337.743 401.998C339.46 401.297 340.865 399.999 340.865 399.114C340.865 397.861 341.192 397.854 342.335 399.081Z" fill="#DBDBDB"/>
<path d="M457.519 412.94C459.331 413.424 461.135 413.261 461.529 412.579C462.422 411.028 469.524 415.204 469.535 417.287C469.544 419.323 466.145 420.692 460.964 420.738C457.564 420.768 456.753 420.307 457.055 418.512C457.265 417.266 456.714 415.304 455.83 414.153C454.412 412.305 454.611 412.163 457.519 412.94Z" fill="#DBDBDB"/>
<path d="M447.411 419.072C448.72 419.072 450.13 418.48 450.547 417.757C450.964 417.033 451.891 416.442 452.607 416.442C453.498 416.442 453.478 417.002 452.545 418.206C451.795 419.177 451.543 420.361 451.987 420.837C452.43 421.313 451.047 421.702 448.913 421.702C446.778 421.702 445.032 421.11 445.032 420.387C445.032 419.664 446.102 419.072 447.411 419.072Z" fill="#DBDBDB"/>
<path d="M435.892 431.663C439.924 432.475 440.335 432.246 441.675 428.435C443.457 423.369 444.531 423.182 444.467 427.949C444.422 431.395 444.709 431.575 450.547 431.753C453.917 431.855 457.639 432.363 458.819 432.88C459.999 433.397 461.861 433.451 462.957 433C464.053 432.547 465.57 432.699 466.327 433.335C468.368 435.05 473.953 436.259 474.939 435.199C475.412 434.692 477.731 434.206 480.092 434.118C483.857 433.977 484.471 434.408 485.068 437.609C485.823 441.658 488.189 443.253 492.863 442.865C495.412 442.653 496.284 443.499 497.759 447.609C498.747 450.359 499.73 453.014 499.943 453.51C500.156 454.006 497.017 454.147 492.965 453.823C487.024 453.347 485.171 453.689 483.391 455.592C482.177 456.889 479.632 458.793 477.735 459.822C473.471 462.135 472.041 460.415 472.011 452.938C472.002 450.226 471.442 448.006 470.768 448.006C470.094 448.006 469.542 447.139 469.542 446.079C469.542 443.517 465.127 441.087 462.253 442.067C459.471 443.013 455.673 448.898 456.695 450.673C457.101 451.377 456.02 451.952 454.295 451.952C452.272 451.952 451.16 452.679 451.16 454.002C451.16 455.129 450.624 455.697 449.97 455.263C449.316 454.829 447.059 455.43 444.954 456.598C442.85 457.766 440.814 458.385 440.43 457.974C440.048 457.562 440.443 454.922 441.308 452.108C442.678 447.652 442.597 446.299 440.685 441.647C439.292 438.259 437.218 435.739 435.02 434.762C430.131 432.588 430.686 430.615 435.892 431.663Z" fill="#DBDBDB"/>
<path d="M58.2242 247.542C60.1874 247.542 62.0696 246.767 62.409 245.819C63.2509 243.465 72.0091 244.631 73.857 247.343C74.9881 249.003 75.8508 249.124 78.2355 247.959C82.4669 245.891 85.1838 248.016 86.0906 254.103C86.6469 257.832 88.2314 260.585 91.9175 264.23C94.7017 266.984 97.9772 269.532 99.1965 269.894C102.462 270.863 101.178 273.174 97.3461 273.225C92.9615 273.286 92.002 274.538 93.5988 278.114C96.5006 284.61 96.4504 285.671 93.2385 285.671C91.17 285.671 89.7362 286.734 88.7865 288.97C87.3932 292.25 87.3222 292.264 75.6401 291.421C69.1784 290.955 63.2448 290.027 62.4531 289.359C61.6615 288.69 56.1373 287.804 50.178 287.39C41.0755 286.757 39.0768 286.979 37.681 288.783C35.4275 291.698 33.87 291.484 33.87 288.26C33.87 286.79 32.9545 285.211 31.8357 284.751C30.0993 284.036 30.1925 283.757 32.4755 282.851C36.5844 281.221 37.0524 277.901 33.979 272.174C31.3541 267.28 31.3358 267.059 33.6053 267.831C34.9202 268.279 37.5867 267.973 39.5291 267.15C41.4714 266.328 44.1636 265.573 45.5116 265.473C47.3264 265.339 48.0604 264.203 48.341 261.095C48.6303 257.89 49.5837 256.491 52.374 255.179C55.288 253.807 55.8885 252.861 55.342 250.501C54.7476 247.942 55.1374 247.542 58.2242 247.542Z" fill="#037FB2"/>
<path d="M0.981741 360.977C-0.425057 358.817 -0.360172 358.211 1.43754 356.746C2.5919 355.806 4.49383 355.017 5.66657 354.995C8.2363 354.943 12.7263 358.839 12.7263 361.119C12.7263 362.021 13.9676 363.516 15.4835 364.443C16.9994 365.37 18.2407 366.928 18.2407 367.905C18.2407 368.883 20.4465 370.954 23.1425 372.506C27.3383 374.925 27.9865 375.872 27.6446 379.084C27.3812 381.548 28.141 383.861 29.8554 385.819C32.0882 388.369 32.1898 388.915 30.5612 389.585C29.5134 390.017 28.6569 391.497 28.6569 392.876C28.6569 395.322 27.924 395.656 17.8093 397.823C14.0337 398.632 11.3526 396.146 12.181 392.603C12.692 390.414 11.9274 389.27 8.71549 387.416C5.19482 385.382 4.6715 384.472 5.12491 381.158C5.41656 379.025 4.93131 376.344 4.04532 375.199C3.16056 374.055 2.47792 370.955 2.52939 368.308C2.58086 365.663 1.88488 362.364 0.981741 360.977Z" fill="#B8C9EA"/>
<path d="M412.869 3.72088C409.603 3.72088 409.917 1.39896 413.277 0.704749C418.778 -0.432544 424.138 -0.190639 428.921 1.41077C431.606 2.31009 433.803 3.41455 433.803 3.86421C433.803 5.18294 416.075 6.1914 415.626 4.89764C415.401 4.25077 414.161 3.72088 412.869 3.72088Z" fill="#A5CDC9"/>
<path d="M219.02 3.20023C218.613 3.63674 217.556 3.68405 216.672 3.30407C215.694 2.88466 215.985 2.57305 217.412 2.50994C218.704 2.4534 219.427 2.76372 219.02 3.20023Z" fill="#A5CDC9"/>
<path d="M446.977 14.9124C436.207 14.1156 426.451 11.2007 426.451 8.78022C426.451 8.16753 430.311 7.66525 435.029 7.66525C442.091 7.66525 443.607 8.03864 443.607 9.77811C443.607 11.2888 444.218 11.6109 445.751 10.9075C452.356 7.87693 458.312 9.26797 458.312 13.8421C458.312 15.4343 456.43 15.6119 446.977 14.9124Z" fill="#A5CDC9"/>
<path d="M474.165 19.0961C475.636 19.5089 476.574 18.812 477.023 16.9753C477.786 13.8395 480.37 13.2505 480.37 16.2114C480.37 18.4347 484.137 18.8751 486.005 16.8701C487.364 15.412 499.977 18.0652 499.977 19.81C499.977 20.3608 496.805 20.8184 492.93 20.8249C489.055 20.8302 483.074 21.1984 479.638 21.6415C474.714 22.2765 473.244 22.0267 472.684 20.4634C472.178 19.0461 472.599 18.6569 474.165 19.0961Z" fill="#A5CDC9"/>
<path d="M495.276 34.4909C492.616 32.4911 492.588 32.3031 494.697 30.5873C496.088 29.4566 499.88 28.8268 504.878 28.8965C509.259 28.957 511.879 29.2778 510.699 29.6078C509.519 29.9391 508.555 31.054 508.555 32.0848C508.555 33.5613 510.752 33.961 518.856 33.961C528.804 33.961 529.133 34.0583 528.467 36.7957C527.815 39.4713 528.045 39.5686 532.563 38.5049C539.396 36.8983 560.987 37.1376 566.668 38.8836C569.313 39.6962 571.958 41.2857 572.549 42.4178C573.139 43.5485 576.076 45.1367 579.076 45.948C582.077 46.7579 584.531 47.8031 584.531 48.2699C584.531 49.256 576.396 53.1833 571.772 54.4284C570.028 54.8977 568.601 55.8523 568.601 56.5491C568.601 58.2333 565.428 61.5716 563.828 61.5716C560.811 61.5716 554.371 65.9604 553.081 68.895C551.817 71.7678 551.947 72.0899 554.378 72.0899C555.865 72.0899 557.606 71.5587 558.246 70.9092C558.886 70.261 561.616 69.4393 564.312 69.083C572.281 68.0325 583.819 64.5193 584.291 63.0007C584.6 62.0081 585.474 62.0199 587.258 63.0442C588.649 63.8435 591.891 64.1933 594.464 63.8238C597.619 63.3689 599.604 63.7489 600.564 64.99C602.192 67.095 607.815 67.4987 607.815 65.512C607.815 64.6969 612.857 64.2761 620.988 64.4129C630.975 64.5798 634.482 65.0992 635.49 66.5638C637.258 69.1356 646.238 70.6016 660.815 70.6962C671.798 70.7685 672.763 70.5713 672.763 68.2547C672.763 66.8689 672.074 65.3844 671.231 64.9558C670.389 64.5272 672.456 64.5903 675.826 65.0952C679.196 65.6014 686.089 66.1115 691.144 66.2325C696.199 66.3521 701.713 67.07 703.398 67.8286C707.358 69.6115 711.976 74.3276 711.976 76.5904C711.976 77.5633 715.148 79.6775 719.023 81.2908C722.898 82.9027 727.723 84.984 729.745 85.9136C736.146 88.86 745.061 91.8117 747.557 91.8117C749.416 91.8117 749.965 90.9124 749.965 87.8674C749.965 85.698 749.413 83.923 748.739 83.923C748.065 83.923 747.514 83.3616 747.514 82.6753C747.514 81.989 749.306 82.2098 751.497 83.1657C756.228 85.2299 767.121 86.6604 767.121 85.2168C767.121 82.9106 771.043 82.9395 779.55 85.3101C790.252 88.292 793.343 88.4985 792.513 86.1765C792.073 84.9472 793.041 84.6277 796.058 85.0051C801.047 85.6309 801.863 82.5254 797.296 80.2915C795.094 79.216 794.523 78.0919 794.952 75.6832C795.48 72.7197 795.959 72.533 801.846 73.001C813.532 73.9319 818.589 74.872 818.589 76.1144C818.589 76.7942 820.387 77.3491 822.583 77.3491C825.251 77.3491 827.086 78.2234 828.108 79.9786C829.041 81.5814 830.951 82.6003 832.998 82.5885C836.945 82.5648 838.7 81.4749 839.76 78.3904C840.399 76.526 841.635 76.2643 847.023 76.8573C855.423 77.7816 856.667 78.2392 856.282 80.2705C856.085 81.3184 857.576 82.1151 860.249 82.3873C862.605 82.6266 865.203 83.4207 866.024 84.1504C866.844 84.8801 870.983 85.8137 875.22 86.2239C879.458 86.6341 883.476 87.6938 884.15 88.5773C886.31 91.4107 895.158 91.8946 904.975 89.716C912.858 87.9673 916.108 87.8726 925.001 89.1375C940.296 91.3121 947.555 93.3973 948.136 95.7811C948.411 96.9118 950.813 98.8472 953.474 100.084C957.356 101.888 963.384 102.454 983.988 102.943C999.684 103.316 1009.95 103.065 1010.39 102.295C1010.81 101.565 1013.28 102.233 1016.26 103.884C1019.08 105.451 1023.74 107.222 1026.61 107.819C1045.62 111.781 1044.69 111.774 1043.56 107.926C1042.81 105.411 1035.71 101.015 1032.39 101.015C1031.4 101.015 1030.59 100.367 1030.59 99.573C1030.59 98.6118 1032.73 98.3909 1037.02 98.9103C1040.56 99.3376 1050.62 100.258 1059.39 100.953C1077.75 102.412 1087.27 103.857 1096.76 106.625C1100.47 107.708 1105.71 108.997 1108.4 109.492C1111.1 109.986 1116.89 111.58 1121.27 113.032C1125.65 114.485 1135.03 117.048 1142.1 118.726C1157.06 122.271 1160.71 123.691 1171.51 130.167C1179.66 135.05 1187.44 137.669 1187.44 135.526C1187.44 134.868 1186 133.498 1184.23 132.483L1181.02 130.637L1185.15 129.697C1188.2 129.003 1192.49 129.83 1201.54 132.858C1212.9 136.66 1220.75 140.523 1212.87 138.437C1210.81 137.892 1209.5 138.079 1209.5 138.919C1209.5 139.755 1207.82 140.001 1205.21 139.546C1199.89 138.621 1199.46 140.97 1204.6 142.891C1206.62 143.647 1208.28 144.888 1208.28 145.65C1208.28 146.411 1209.05 147.033 1210 147.033C1211.06 147.033 1211.5 147.949 1211.14 149.423C1210.58 151.731 1210.24 151.728 1201.4 149.381C1196.37 148.044 1189.13 145.421 1185.33 143.553C1179.46 140.674 1177.37 140.285 1171.62 141.011C1164.43 141.917 1157.89 139.599 1154.68 135.003C1153.77 133.696 1151.43 132.833 1148.79 132.833C1145.02 132.833 1144.47 133.22 1144.79 135.66C1145.02 137.376 1146.73 139.226 1149.15 140.367C1151.34 141.402 1153.13 142.979 1153.13 143.873C1153.13 144.767 1153.78 145.731 1154.57 146.015C1155.37 146.298 1155.61 147.235 1155.11 148.097C1153.88 150.238 1145.85 149.987 1142.1 147.69C1138.35 145.389 1131.54 145.154 1130.32 147.284C1129.82 148.145 1130.07 149.085 1130.88 149.373C1131.68 149.661 1133.12 150.733 1134.07 151.754C1135.38 153.152 1136.6 153.287 1139.01 152.303C1141.61 151.245 1142.89 151.524 1145.71 153.757C1147.62 155.277 1150.81 156.656 1152.78 156.823C1157.68 157.236 1164.16 160.456 1164.16 162.474C1164.16 163.382 1165.27 164.125 1166.63 164.125C1168.87 164.125 1171.18 165.103 1176.42 168.277C1177.43 168.89 1179.49 169.967 1181.01 170.67C1182.53 171.374 1183.77 172.115 1183.77 172.319C1183.77 173.422 1171.56 171.558 1168.27 169.952C1163.43 167.596 1162.94 167.604 1162.94 170.042C1162.94 171.126 1163.49 172.014 1164.16 172.014C1167.55 172.014 1164.58 174.591 1157.95 177.403C1151.83 180 1150.39 181.202 1149.83 184.176C1149.45 186.164 1148.63 187.791 1148 187.791C1147.38 187.791 1147.17 188.336 1147.56 189C1147.94 189.665 1147.37 191.16 1146.28 192.321C1145.2 193.483 1144.61 195.265 1144.98 196.282C1145.44 197.571 1144.33 197.3 1141.31 195.389C1138.54 193.641 1134.91 192.663 1131.27 192.688C1120.31 192.765 1118.83 193.19 1118.06 196.499L1117.33 199.619L1114.92 196.335C1112.01 192.364 1110.97 192.268 1107.79 195.68C1106.16 197.433 1103.71 198.31 1100.44 198.31C1094.89 198.31 1094.2 200.054 1097.8 205.035C1099.05 206.76 1100.4 210.442 1100.81 213.218C1101.21 215.995 1102.26 219.192 1103.14 220.324C1105.4 223.25 1113.11 226.545 1113.65 224.816C1114.31 222.686 1117.59 224.607 1117.59 227.123C1117.59 228.354 1119.69 231.052 1122.25 233.12C1126.11 236.232 1126.82 237.525 1126.4 240.606C1125.74 245.468 1128.66 250.094 1134.75 253.824C1139.89 256.977 1141.36 259.549 1137.2 258.133C1130.62 255.891 1126.91 262.148 1131.15 268.35C1133.9 272.373 1133.41 274.567 1129.78 274.567C1126.47 274.567 1126.8 276.253 1130.96 280.656C1132.92 282.731 1134.68 285.612 1134.87 287.058C1135.34 290.605 1133.67 295.604 1132.02 295.604C1131.29 295.604 1127.37 292.054 1123.33 287.715C1119.29 283.376 1115.52 279.827 1114.95 279.827C1113.3 279.827 1083.66 249.656 1078.98 243.207C1075.6 238.551 1074.7 236.131 1074.7 231.621C1074.7 227.959 1074.16 225.906 1073.17 225.878C1072.28 225.854 1072.58 225.073 1073.9 223.997C1075.15 222.984 1077.01 222.502 1078.03 222.923C1079.47 223.516 1079.7 223.051 1079.05 220.86C1078.59 219.304 1078.74 218.031 1079.38 218.031C1080.03 218.031 1080.61 214.038 1080.68 209.157C1080.9 194.364 1080.83 194.623 1084.64 193.198C1086.59 192.468 1088.18 191.34 1088.18 190.69C1088.18 190.04 1085.71 186.607 1082.7 183.061C1077.03 176.408 1075.8 173.773 1078.99 175.16C1080 175.599 1081.66 176.317 1082.67 176.756C1083.96 177.315 1084.51 176.725 1084.51 174.784C1084.51 172.592 1083.75 172.014 1080.89 172.014C1078.9 172.014 1075.99 171.387 1074.42 170.62C1071.18 169.036 1064.9 170.917 1064.9 173.475C1064.9 174.313 1066.27 176.362 1067.94 178.026C1070.87 180.933 1070.89 181.086 1068.56 181.881C1067.22 182.336 1066.13 183.739 1066.13 184.999C1066.13 186.258 1065.39 188.373 1064.49 189.697C1063 191.872 1062.77 191.896 1062.07 189.948C1061.65 188.762 1060.22 187.791 1058.9 187.791C1057.49 187.791 1056.13 186.584 1055.63 184.895C1054.04 179.515 1052.35 178.855 1040.63 179.041C1028.24 179.239 1027.87 179.488 1027.54 188.029C1027.44 190.69 1026.73 193.68 1025.96 194.672C1024.45 196.627 1025.31 202.367 1027.34 203.798C1029.49 205.317 1025.67 208.828 1021.86 208.828C1019.92 208.828 1018.33 208.365 1018.33 207.8C1018.33 206.521 1008.27 203.265 1003.15 202.886C1001.05 202.731 997.19 202.138 994.561 201.568C990.629 200.714 989.492 200.959 988.138 202.944C986.649 205.129 984.665 205.331 967.034 205.089C946.975 204.811 941.563 205.768 940.398 209.794C940.03 211.071 939.217 213.142 938.592 214.397C937.967 215.653 937.456 218.189 937.456 220.033C937.456 221.875 936.554 224.859 935.453 226.663C934.351 228.467 932.983 232.623 932.414 235.897C931.763 239.633 929.72 244.02 926.927 247.676C924.277 251.146 922.768 254.313 923.196 255.508C924.149 258.173 929.145 260.105 935.085 260.105C937.737 260.105 939.909 260.549 939.913 261.091C939.917 261.633 941.193 263.784 942.748 265.87C945.159 269.103 945.952 269.448 948.115 268.206C950.236 266.988 950.626 267.12 950.487 269.015C950.253 272.238 961.733 272.802 962.869 269.624C963.288 268.452 962.981 267.261 962.185 266.977C961.39 266.692 960.739 265.917 960.739 265.255C960.739 263.53 969.006 263.76 970.016 265.512C970.479 266.318 973.336 268.153 976.362 269.588C979.389 271.025 982.139 273.325 982.474 274.699C982.809 276.073 983.824 277.197 984.731 277.197C985.638 277.197 988.715 279.711 991.571 282.785C995.282 286.779 996.681 289.31 996.475 291.66C996.141 295.494 999.432 302.859 1004.19 308.931C1006.04 311.282 1008.91 316.492 1010.57 320.51C1013.05 326.494 1013.34 328.275 1012.15 330.35C1011.3 331.823 1010.69 337.882 1010.7 344.813C1010.71 354.192 1010.08 358.531 1007.78 365.116C1006.17 369.721 1004.85 375.379 1004.85 377.689C1004.85 381.89 1001.16 386.87 995.757 389.944C992.974 391.53 986.665 389.693 984.377 386.633C983.368 385.283 981.606 384.869 978.862 385.34C975.019 385.998 974.589 385.628 969.602 377.373C965.336 370.314 964.662 368.405 965.949 367.025C967.148 365.737 968.625 365.657 972.114 366.692C974.638 367.439 977.209 367.715 977.829 367.305C979.252 366.361 978.35 352.983 976.452 346.887C975.663 344.352 975.121 340.498 975.25 338.32C975.55 333.203 969.114 325.093 965.909 326.554C964.751 327.081 962.004 328.219 959.806 329.079C957.607 329.94 955.109 331.67 954.254 332.924C951.887 336.398 941.128 334.229 939.102 329.869C938.296 328.133 936.769 326.193 935.707 325.556C934.647 324.92 933.78 323.541 933.78 322.491C933.78 321.258 932.508 320.585 930.176 320.585C928.193 320.585 926.21 319.957 925.768 319.189C924.34 316.712 919.08 314.809 908.654 313C901.531 311.764 899.468 310.644 899.468 308.017C899.468 306.974 899.001 306.122 898.43 306.122C897.86 306.122 895.506 304.2 893.2 301.849C873.573 281.845 859.302 270.899 855.101 272.628C854.157 273.017 851.363 272.43 848.893 271.321C840.04 267.353 822.425 269.477 818.31 275.008C815.305 279.048 815.635 280.963 819.508 281.955C825.385 283.461 825.797 284.451 825.039 295.216C824.425 303.935 824.622 305.427 826.597 306.977C828.796 308.701 828.796 308.752 826.579 308.752C825.324 308.752 823.303 309.716 822.091 310.894C820.187 312.742 819.168 312.813 814.642 311.418C811.757 310.53 806.365 309.353 802.659 308.806C798.952 308.257 794.172 307.093 792.038 306.218C788.798 304.889 787.511 304.985 784.237 306.802C782.081 307.999 780.041 310.11 779.702 311.495C779.278 313.234 778.007 314.011 775.581 314.011C773.651 314.011 769.772 314.998 766.96 316.205C762.604 318.076 760.826 318.172 754.914 316.863C751.1 316.017 746.852 315.326 745.475 315.326C744.098 315.326 741.482 313.847 739.665 312.039C737.846 310.231 735.354 308.752 734.127 308.752C732.9 308.752 729.299 307.52 726.128 306.015C720.286 303.242 711.769 303.068 701.202 305.506C697.248 306.418 686.242 303.138 686.242 301.047C686.242 300.545 684.619 298.227 682.635 295.897C680.254 293.099 677.889 291.66 675.675 291.66C673.832 291.66 670.63 291.114 668.561 290.447C658.238 287.122 650.925 285.086 649.312 285.086C647.413 285.086 644.578 291.962 644.578 296.566C644.578 298.078 646.287 300.858 648.376 302.743C654.566 308.332 652.574 310.175 641.251 309.326C626.95 308.255 624.288 307.63 621.885 304.781C620.433 303.06 618.118 302.178 615.05 302.178C612.498 302.178 610.109 301.655 609.74 301.014C608.011 298.013 598.734 298.773 595.56 302.178C595.223 302.54 592.268 304.341 588.991 306.181C585.715 308.022 583.143 310.026 583.275 310.636C583.65 312.369 580.578 313.969 576.834 313.991C574.948 314.002 573.11 314.892 572.721 315.983C571.648 318.98 567.627 318.345 564.17 314.636C561.45 311.718 560.38 311.413 555.34 312.126C550.244 312.845 549.277 312.557 546.636 309.529C545.001 307.655 542.863 306.122 541.883 306.122C540.902 306.122 537.905 303.994 535.221 301.393C531.071 297.37 529.767 296.791 526.494 297.522C515.802 299.913 513.324 299.872 510.617 297.261C506.318 293.115 503.932 292.76 501.845 295.956C499.991 298.796 499.845 298.698 489.25 287.509C478.862 276.538 468.146 267.7 463.182 266.011C461.646 265.487 460.763 264.018 460.763 261.989C460.763 260.23 460.092 258.79 459.271 258.79C456.833 258.79 447.283 263.009 447.283 264.087C447.283 265.255 444.486 266.596 439.215 267.958C435.743 268.853 435.48 268.688 435.972 265.917C436.43 263.347 435.994 262.899 433.011 262.882C428.483 262.854 426.481 262.329 422.949 260.248C420.86 259.017 419.69 258.944 418.722 259.982C416.684 262.169 414.2 261.698 414.162 259.119C414.112 255.728 407.704 249.572 404.287 249.632C402.66 249.661 398.572 249.316 395.202 248.863C390.076 248.177 388.646 248.478 386.45 250.705C384.928 252.25 380.551 254.02 376.034 254.918C371.748 255.77 366.312 257.267 363.953 258.246C358.287 260.595 347.526 262.992 340.67 263.432C337.637 263.627 334.467 263.845 333.624 263.918C331.52 264.098 331.694 269.068 333.885 271.42C335.295 272.933 335.387 274.026 334.318 276.546C333.315 278.908 333.322 280.221 334.348 281.546C335.438 282.954 335.079 283.724 332.69 285.095C331.013 286.057 329.641 287.563 329.641 288.441C329.641 290.07 330.26 290.4 338.832 293.34C342.354 294.547 343.844 295.843 344.126 297.942C344.455 300.407 343.941 300.863 340.828 300.863C338.799 300.863 336.798 300.272 336.381 299.548C335.23 297.551 333.318 297.977 333.318 300.231C333.318 302.848 327.6 301.51 324.048 298.061C321.306 295.399 313.711 294.677 313.711 297.079C313.711 298.105 313.154 298.06 311.888 296.933C309.502 294.809 303.91 296.33 301.709 299.702C300.023 302.284 299.989 302.284 295.763 299.609C293.425 298.13 290.346 296.919 288.923 296.919C287.497 296.919 285.365 295.981 284.185 294.835C283.005 293.69 279.653 292.417 276.737 292.008C273.819 291.6 271.045 290.622 270.569 289.837C269.95 288.814 268.648 288.837 265.979 289.918C263.93 290.748 261.983 290.959 261.653 290.386C261.323 289.812 259.714 289.069 258.077 288.734C255.851 288.277 254.702 288.921 253.52 291.293C252.647 293.042 250.402 294.791 248.513 295.198C246.628 295.601 245.086 296.652 245.086 297.529C245.086 298.407 243.73 299.79 242.071 300.6C239.23 301.989 239.156 302.284 240.799 305.682C243.144 310.531 242.37 310.895 238.304 306.852C234.386 302.956 230.602 302.495 229.619 305.794C229.242 307.06 228.341 309.421 227.618 311.041C226.682 313.138 226.68 314.882 227.614 317.08C228.408 318.948 228.495 320.902 227.835 322.021C225.916 325.273 226.618 328.01 229.768 329.549C231.566 330.427 232.832 332.146 232.832 333.705C232.832 335.872 233.634 336.363 237.182 336.363C240.495 336.363 242.584 337.459 245.948 340.964C248.377 343.495 249.728 345.566 248.95 345.566C246.58 345.566 247.306 350.821 249.682 350.867C251.418 350.9 251.205 351.496 248.562 353.992C246.274 356.155 244.332 356.88 242.067 356.416C239.095 355.806 238.9 356.032 239.644 359.215C240.169 361.454 239.758 363.819 238.481 365.908C235.675 370.505 236.035 373.775 239.572 375.806C241.46 376.89 242.636 378.712 242.636 380.552C242.636 382.196 243.187 383.905 243.861 384.352C244.535 384.799 245.086 386.56 245.086 388.265C245.086 389.969 245.501 391.561 246.007 391.803C246.513 392.044 248.993 394.86 251.519 398.063L256.11 403.883L253.611 406.381C251.144 408.848 251.063 408.83 247.371 404.956C245.313 402.799 241.691 400.642 239.321 400.167C236.668 399.631 234.792 398.395 234.439 396.951C233.618 393.583 226.793 390.505 221.315 391.033C218.343 391.319 214.886 390.533 211.882 388.89C207.29 386.377 198.167 384.247 185.801 382.802C181.549 382.305 178.248 380.814 174.371 377.64C171.374 375.185 168.168 373.177 167.247 373.177C166.325 373.177 164.758 371.929 163.763 370.405C162.767 368.88 161.333 368.044 160.576 368.546C159.125 369.508 155.63 367.093 155.63 365.127C155.63 364.492 156.457 363.973 157.468 363.973C158.479 363.973 159.306 363.078 159.306 361.982C159.306 358.422 162.03 355.093 164.4 355.757C167.612 356.659 167.197 354.94 163.289 351.152C161.435 349.356 160.67 348.328 161.588 348.867C162.506 349.407 163.609 349.314 164.039 348.662C164.469 348.01 166.374 346.417 168.273 345.119C171.057 343.216 171.444 342.397 170.274 340.884C169.362 339.706 167.509 339.258 165.29 339.677C163.346 340.044 161.757 339.807 161.757 339.151C161.757 337.459 165.416 335.922 169.722 335.805L173.399 335.705L173.618 324.46L173.838 313.216L168.103 311.526C164.95 310.598 160.835 309.219 158.961 308.46C157.086 307.703 155.234 307.423 154.847 307.838C154.461 308.254 152.962 307.406 151.517 305.953C149.722 304.149 147.863 303.53 145.649 303.999C139.677 305.265 133.606 303.439 132.836 300.143C132.207 297.458 130.234 296.117 123.558 293.836C122.288 293.402 121.732 292.217 122.096 290.725C122.455 289.248 121.47 287.092 119.554 285.161C117.026 282.614 115.21 282.037 110.1 282.162C106.384 282.252 103.369 283.019 102.793 284.019C101.648 286.007 100.372 284.752 98.3627 279.662C97.1091 276.486 97.2366 276.211 99.9644 276.211C103.126 276.211 106.612 273.794 106.612 271.603C106.612 270.047 101.833 265.364 100.246 265.364C99.2072 265.364 97.6938 264.202 93.6977 260.333C92.7063 259.374 91.2749 255.947 90.5175 252.72C89.0323 246.391 84.0241 242.167 79.5108 243.433C78.2425 243.79 76.9409 243.622 76.6174 243.061C76.2951 242.501 73.8124 241.662 71.1018 241.198C68.1375 240.689 66.1731 239.636 66.1731 238.557C66.1731 237.568 65.346 236.024 64.335 235.124C63.324 234.223 62.4968 232.062 62.4968 230.32C62.4968 228.577 61.6231 226.793 60.5558 226.353C59.0448 225.731 58.9639 225.323 60.193 224.508C61.4025 223.706 61.4527 222.752 60.4062 220.418C57.8781 214.776 57.8415 213.278 60.1453 210.061C61.4087 208.298 62.4552 206.117 62.4699 205.212C62.4846 204.309 63.5667 203.569 64.8754 203.569C66.1842 203.569 67.5726 203.017 67.961 202.341C68.3507 201.665 70.5883 201.447 72.935 201.856C75.6322 202.325 77.202 202.069 77.202 201.157C77.202 199.434 72.7807 196.727 69.2882 196.312C67.912 196.149 66.3716 195.94 65.8668 195.848C65.3619 195.755 64.9588 194.35 64.971 192.722C64.987 190.717 67.7245 187.221 73.4644 181.875C83.9553 172.103 84.7225 168.451 77.2547 163.838C73.3517 161.428 72.538 160.282 73.0808 157.96C73.5612 155.905 72.7365 154.005 70.2146 151.361C67.3164 148.32 66.7306 146.696 66.9867 142.41C67.2527 137.949 66.6486 136.458 62.911 132.352C58.5693 127.581 58.551 127.515 61.1231 125.79C64.8877 123.268 64.3668 119.167 59.9393 116.464C57.8671 115.198 55.388 114.163 54.4322 114.163C53.4763 114.163 52.6934 113.378 52.6934 112.42C52.6934 109.176 58.1735 105.225 65.3546 103.291C71.5712 101.616 72.5907 101.612 73.1802 103.261C73.6373 104.536 74.8369 104.891 76.8577 104.347C79.2007 103.717 79.9996 104.126 80.5106 106.222C81.2974 109.451 81.3954 109.463 85.2004 106.787C86.9528 105.555 89.1119 105.054 90.3656 105.589C91.5506 106.096 95.6435 106.996 99.4607 107.59C103.278 108.186 111.256 110.795 117.187 113.39C123.119 115.984 128.871 118.108 129.97 118.108C133.108 118.108 139.588 122.002 140.931 124.695C142.997 128.835 142.352 129.993 136.414 132.811C131.671 135.062 129.284 135.384 122.628 134.671C110.605 133.384 87.2457 128.095 85.5497 126.275C83.7642 124.359 75.9766 124.133 75.9766 125.996C75.9766 126.719 76.7229 127.311 77.6358 127.311C78.5488 127.311 80.762 128.769 82.5548 130.552C84.3476 132.335 88.3816 134.728 91.5187 135.872C99.1801 138.662 99.4595 138.918 98.0099 141.824C97.0283 143.789 97.298 144.928 99.2317 147.003C100.596 148.466 101.711 150.337 101.711 151.161C101.711 153.128 105.469 156.142 107.989 156.194C109.082 156.218 112.507 157.437 115.599 158.904C121.043 161.489 126.587 161.419 128.126 158.748C129.353 156.616 126.152 152.292 123.347 152.292C121.814 152.292 119.544 151.495 118.303 150.521C114.645 147.651 118.253 146.615 122.814 149.225C125.023 150.489 128.211 151.649 129.896 151.8C131.581 151.952 135.854 152.448 139.393 152.902C146.906 153.868 147.368 152.834 141.997 147.071C138.327 143.133 138.263 142.883 140.465 141.095C141.728 140.068 143.378 139.209 144.129 139.186C144.88 139.163 146.952 137.915 148.733 136.412C151.136 134.385 152.915 133.903 155.638 134.545C157.655 135.02 159.306 136.023 159.306 136.772C159.306 137.523 160.388 137.832 161.712 137.461C163.035 137.089 164.757 137.612 165.539 138.622C168.034 141.849 168.878 140.621 168.607 134.158C168.302 126.871 167.337 124.681 164.433 124.681C162.719 124.681 162.43 123.639 162.79 118.765C163.192 113.343 163.501 112.854 166.476 112.904C168.261 112.934 171.652 114.092 174.011 115.478L178.3 117.997L174.467 118.052C172.359 118.083 169.954 118.987 169.123 120.063C167.303 122.415 168.329 125.996 170.821 125.996C171.805 125.996 173.49 126.94 174.566 128.095C175.849 129.471 178.619 130.175 182.622 130.142C189.243 130.087 191.33 129.281 191.055 126.884C190.615 123.055 191.401 122.052 194.844 122.052C196.866 122.052 198.52 121.555 198.52 120.949C198.52 119.62 203.379 117.121 210.468 114.806C213.568 113.794 215.676 113.623 215.676 114.383C215.676 115.086 216.917 115.471 218.433 115.24C220.115 114.984 221.13 113.965 221.037 112.629C220.953 111.424 221.917 110.149 223.181 109.795C225.911 109.029 227.685 111.386 225.479 112.848C222.465 114.847 225.715 116.832 231.634 116.607C235.35 116.467 237.859 115.711 238.251 114.614C238.671 113.437 241.094 112.848 245.51 112.848C249.157 112.848 254.119 111.961 256.539 110.876C262.264 108.31 262.665 108.362 264.096 111.862C265.534 115.377 272.046 116.868 272.046 113.682C272.046 112.597 273.149 111.335 274.497 110.876C275.845 110.417 276.948 109.198 276.948 108.169C276.948 107.14 275.845 105.558 274.497 104.655C269.99 101.635 271.97 100.784 281.543 101.629C292.25 102.575 315.99 109.095 325.583 113.724C329.08 115.412 332.526 116.793 333.242 116.793C333.957 116.793 334.543 114.426 334.543 111.534C334.543 106.8 334.237 106.274 331.479 106.274C329.794 106.274 327.389 105.173 326.133 103.825C324.877 102.477 321.829 100.969 319.359 100.471C316.889 99.9739 315.142 99.093 315.477 98.5119C316.582 96.5936 313.279 89.3781 310.74 88.1619C308.315 87.0009 308.331 86.9207 311.285 85.2483C315.526 82.8488 316.312 81.2461 315.553 76.5523L314.892 72.4699L321.96 71.681C329.746 70.8146 338.058 72.3108 339.516 74.8431C340.032 75.7397 339.929 77.9552 339.287 79.7669C337.672 84.324 338.668 86.262 343.286 87.5452C346.159 88.3446 347.562 89.7107 348.405 92.5296C349.045 94.6662 350.28 97.301 351.151 98.3857C352.021 99.4704 353.13 102.066 353.617 104.152C354.263 106.928 355.739 108.47 359.11 109.891C364.837 112.305 366.067 116.857 362.62 122.875C359.913 127.599 355.63 128.973 347.389 127.762C342.855 127.095 341.896 127.322 341.896 129.058C341.896 132.32 346.029 133.961 357.413 135.222L367.88 136.38L372.044 132.042C374.334 129.655 376.208 126.709 376.208 125.494C376.208 124.278 377.035 122.943 378.046 122.528C380.877 121.362 380.226 117.336 376.82 114.941C372.618 111.987 372.973 110.67 378.255 109.606C384.118 108.425 391.524 112.102 393.499 117.171C395.343 121.909 398.031 123.367 404.924 123.367C409.081 123.367 410.52 122.859 410.52 121.394C410.52 120.124 409.321 119.416 407.15 119.404C401.497 119.374 398.372 118.026 399.118 115.939C400.194 112.931 394.938 108.014 388.074 105.605C383.44 103.979 379.796 103.63 374.186 104.275C367.675 105.023 366.246 104.79 364.255 102.654C361.083 99.2509 360.204 96.3609 361.815 94.632C363.569 92.7505 360.336 88.8206 354.651 85.9267C350.161 83.6403 349.006 79.9786 352.775 79.9786C356.454 79.9786 358.484 76.5234 356.444 73.7334C354.921 71.6481 354.964 71.6021 356.907 73.2364C358.087 74.2291 359.064 76.2999 359.079 77.8382C359.139 83.9493 362.683 86.3909 373.757 87.9463C388.512 90.021 391.223 90.0578 391.817 88.1961C392.147 87.1666 391.187 86.5526 389.249 86.5526C387.548 86.5526 385.815 85.9609 385.398 85.2378C384.982 84.5147 383.157 83.877 381.344 83.8217C379.53 83.7665 375.84 82.9119 373.144 81.9232L368.242 80.1246L374.249 80.8885C380.013 81.6208 380.228 81.5327 379.538 78.702C378.84 75.8357 379.008 75.7779 385.566 76.6575C389.277 77.1545 394.617 78.6836 397.434 80.0562C403.583 83.0513 411.745 83.4681 411.745 80.7872C411.745 78.0893 406.509 74.8957 400.496 73.9267C396.984 73.3614 393.836 71.6916 391.145 68.966L387.086 64.8586L402.786 63.933C411.421 63.4228 420.294 62.981 422.506 62.9495C427.93 62.8706 428.892 59.7112 424.675 55.8233L421.382 52.7875L424.223 50.8206C427.162 48.784 436.584 46.5751 448.831 45.0513C452.715 44.5674 456.194 43.6497 456.562 43.0107C457.482 41.4146 465.664 41.5381 465.664 43.1487C465.664 43.9547 468.104 44.102 472.098 43.5353C475.637 43.033 481.722 42.6347 485.622 42.6491C490.981 42.6688 492.56 42.2534 492.093 40.9478C491.41 39.0361 492.103 38.8757 499.67 39.1978C502.697 39.3266 504.878 38.827 504.878 38.0053C504.878 37.2269 503.346 36.5906 501.475 36.5906C499.603 36.5906 496.814 35.6453 495.276 34.4909Z" fill="#A5CDC9"/>
<path d="M250.839 40.9794C256.322 41.9339 272.934 38.455 275.369 35.8412C277.335 33.7336 285.176 33.3483 287.941 35.2245C288.932 35.8977 289.484 36.6748 289.166 36.9535C288.237 37.7673 273.481 41.6236 262.855 43.8298C250.035 46.4909 250.197 46.4476 249.206 47.5086C248.738 48.0122 247.344 48.4237 246.107 48.4237C244.872 48.4237 242.758 49.607 241.41 51.0533C240.062 52.4995 237.581 53.6829 235.896 53.6829C232.667 53.6829 231.77 55.5511 234.364 56.8751C235.207 57.3051 234.583 57.3893 232.978 57.0619C228.782 56.2086 226.172 59.3601 228.015 63.0547C229.25 65.5317 229.162 65.7999 227.361 65.0584C226.216 64.5864 223.945 64.2012 222.315 64.2012C220.498 64.2012 219.352 63.4386 219.352 62.229C219.352 61.1443 219.904 60.2568 220.578 60.2568C221.252 60.2568 221.803 59.3982 221.803 58.3503C221.803 57.3011 222.768 55.7878 223.948 54.9871C225.483 53.9432 225.657 53.3345 224.56 52.8401C222.545 51.9303 222.581 48.4237 224.608 48.4237C225.476 48.4237 228.349 47.2404 230.994 45.7941C233.638 44.3479 238.166 43.1646 241.056 43.1646C244.149 43.1646 246.312 42.5519 246.312 41.6775C246.312 40.698 247.856 40.46 250.839 40.9794Z" fill="#A5CDC9"/>
<path d="M747.965 50.2999C740.187 48.0411 735.26 45.1959 735.26 42.9634C735.26 41.6907 744.286 42.7478 752.144 44.9382C757.868 46.5357 758.735 46.5067 759.68 44.695C760.611 42.9082 761.311 43.0593 765.128 45.8638L769.507 49.0811L766.169 50.0462C764.334 50.5773 761.798 50.6615 760.534 50.2342C759.271 49.8069 757.812 50.1947 757.293 51.0953C756.554 52.3786 754.53 52.2064 747.965 50.2999Z" fill="#A5CDC9"/>
<path d="M779.533 48.0359C776.587 47.6401 773.555 46.6027 772.794 45.7297C771.72 44.499 772.645 44.3426 776.924 45.0355C784.406 46.2477 786.811 49.0141 779.533 48.0359Z" fill="#A5CDC9"/>
<path d="M809.092 49.2941C808.25 49.6596 806.872 49.6596 806.028 49.2941C805.187 48.9299 805.875 48.6315 807.56 48.6315C809.245 48.6315 809.935 48.9299 809.092 49.2941Z" fill="#A5CDC9"/>
<path d="M822.589 50.6641C821.082 50.9757 818.324 50.9836 816.462 50.6825C814.599 50.3801 815.832 50.1251 819.202 50.1145C822.572 50.1053 824.096 50.3525 822.589 50.6641Z" fill="#A5CDC9"/>
<path d="M590.988 57.1749C590.159 57.5352 588.504 57.5575 587.312 57.2236C586.12 56.8896 586.798 56.5951 588.82 56.5688C590.842 56.5425 591.818 56.8147 590.988 57.1749Z" fill="#A5CDC9"/>
<path d="M782.835 63.6792C781.705 63.6568 781.048 63.173 781.375 62.605C782.276 61.0417 788.04 61.5466 792.855 63.6109L797.144 65.4489L791.017 64.5851C787.647 64.1091 783.966 63.7015 782.835 63.6792Z" fill="#A5CDC9"/>
<path d="M322.595 66.3863C321.753 66.7518 320.375 66.7518 319.531 66.3863C318.69 66.0221 319.378 65.7237 321.063 65.7237C322.748 65.7237 323.438 66.0221 322.595 66.3863Z" fill="#A5CDC9"/>
<path d="M207.735 75.983C208.733 73.9135 209.549 71.0078 209.549 69.526C209.549 67.1134 210.307 66.8307 216.795 66.8307H224.041L222.649 70.7883C221.31 74.5933 221.514 74.9982 227.944 81.3066C231.621 84.9144 235.053 87.8674 235.57 87.8674C236.086 87.8674 236.508 88.3118 236.508 88.8535C236.508 89.3952 234.716 89.762 232.526 89.666C230.335 89.57 226.718 89.4227 224.488 89.3373C222.258 89.2518 220.693 88.7325 221.009 88.1816C221.327 87.6307 220.809 86.0424 219.861 84.6501C218.567 82.7515 216.221 81.9811 210.473 81.563C206.257 81.2579 202.257 80.3994 201.583 79.6565C200.75 78.7388 201.249 78.5363 203.14 79.0267C205.31 79.5881 206.321 78.9189 207.735 75.983Z" fill="#A5CDC9"/>
<path d="M1079.71 86.8905C1070.48 87.7648 1067.97 87.348 1069.24 85.147C1070.07 83.7113 1076.95 83.6666 1083.9 85.0511C1088.5 85.9688 1088.24 86.0819 1079.71 86.8905Z" fill="#A5CDC9"/>
<path d="M259.959 96.7922C259.075 97.1077 257.77 96.7422 257.056 95.977C256.147 95.0014 256.626 94.8305 258.664 95.4025C260.321 95.8679 260.877 96.4635 259.959 96.7922Z" fill="#A5CDC9"/>
<path d="M194.614 108.099C190.507 108.98 187.871 107.491 189.263 105.074C190.191 103.465 191.752 103.32 195.763 104.473C199.664 105.595 199.182 107.119 194.614 108.099Z" fill="#A5CDC9"/>
<path d="M1132.98 241.698C1132.69 241.698 1132.1 241.106 1131.69 240.383C1131.27 239.66 1131.51 239.068 1132.23 239.068C1132.94 239.068 1133.53 239.66 1133.53 240.383C1133.53 241.106 1133.28 241.698 1132.98 241.698Z" fill="#A5CDC9"/>
<path d="M943.034 255.348C941.988 254.917 941.132 254.331 941.132 254.047C941.132 252.983 943.468 253.581 944.188 254.831C944.616 255.575 944.125 255.796 943.034 255.348Z" fill="#A5CDC9"/>
<path d="M994.21 273.253C995.347 273.253 996.277 272.661 996.277 271.938C996.277 271.215 996.439 270.623 996.637 270.623C997.886 270.623 1007.12 281.08 1007.75 283.204C1008.17 284.63 1012.52 289.453 1017.41 293.925C1029.32 304.819 1038.84 315.326 1036.81 315.326C1035.89 315.326 1034.48 316.303 1033.67 317.498C1032.5 319.216 1032.56 320.467 1033.97 323.496C1034.95 325.601 1035.41 327.682 1035 328.123C1033.8 329.415 1028.07 322.931 1026.21 318.166C1025.27 315.75 1022.28 310.792 1019.58 307.147C1016.87 303.502 1014.66 299.857 1014.65 299.047C1014.65 298.239 1011.66 295.263 1008.02 292.437C1004.37 289.61 1000.67 285.764 999.809 283.891C998.941 282.017 996.861 278.856 995.188 276.868C992.679 273.89 992.508 273.253 994.21 273.253Z" fill="#A5CDC9"/>
<path d="M1039.04 338.612C1037.76 337.318 1036.72 335.474 1036.72 334.513C1036.72 333.551 1038.69 334.757 1041.09 337.193C1043.5 339.628 1045.92 341.622 1046.48 341.622C1048.32 341.622 1048.57 344.869 1046.98 348.167L1045.4 351.425L1043.38 346.194C1042.27 343.318 1040.32 339.906 1039.04 338.612Z" fill="#A5CDC9"/>
<path d="M110.349 168.293C113.892 168.293 112.143 164.834 107.487 162.629C104.901 161.406 102.144 160.404 101.36 160.404C99.4247 160.404 99.6282 163.147 101.79 166.213C103.11 168.084 103.219 169.187 102.214 170.486C101.22 171.769 101.24 172.73 102.285 174.082C103.07 175.096 103.204 176.132 102.584 176.383C101.964 176.634 101.08 178.711 100.621 180.998C99.9346 184.415 100.21 185.302 102.164 185.968C103.569 186.446 104.853 188.445 105.302 190.851C106.04 194.808 106.206 194.9 111.152 194.051C117.934 192.887 118.315 192.53 118.315 187.326C118.315 184.194 117.578 182.426 115.864 181.441C114.516 180.667 113.413 179.247 113.413 178.285C113.413 177.323 112.31 175.033 110.962 173.193C108.03 169.192 107.917 168.293 110.349 168.293Z" fill="#003479"/>
<path d="M88.6703 184.113C87.5306 184.089 86.2575 183.479 85.8408 182.756C84.6975 180.77 80.1278 181.348 76.3338 183.957C71.0522 187.59 71.04 187.79 75.8167 192.484C78.297 194.921 80.3264 198.147 80.3264 199.651C80.3264 201.155 81.5236 203.072 82.9868 203.912C85.1718 205.168 85.9218 205.037 87.1852 203.182C88.2391 201.636 89.5588 201.209 91.3725 201.825C95.1297 203.105 99.2139 198.245 98.1613 193.746C97.252 189.86 91.6493 184.172 88.6703 184.113Z" fill="#003479"/>
<path d="M721.689 258.523C721.689 257.53 720.561 253.98 719.181 250.634C717.549 246.674 715.909 244.551 714.484 244.551C711.054 244.551 710.821 245.455 711.558 255.907C712.168 264.576 711.941 266.176 709.616 269.549C708.169 271.65 706.984 274.24 706.984 275.304C706.984 278.725 701.558 286.573 698.713 287.267C697.197 287.636 694.577 288.246 692.892 288.621C689.078 289.471 688.888 292.621 692.585 293.684C700.487 295.956 709.631 293.357 710.487 288.596C711 285.733 713.519 283.229 717.826 281.304C719.406 280.597 720.987 278.842 721.338 277.405C721.688 275.968 722.463 274.791 723.058 274.791C723.652 274.791 724.14 271.537 724.14 267.56C724.14 263.582 723.589 260.328 722.915 260.328C722.241 260.328 721.689 259.516 721.689 258.523Z" fill="#003479"/>
<path d="M36.5701 381.697C52.5877 384.069 56.492 383.989 59.7737 381.22C63.5995 377.991 68.7181 377.82 75.7117 380.685L80.9295 382.822L77.8978 385.382C76.2299 386.789 74.8648 388.962 74.8648 390.213C74.8648 391.462 74.2055 393.191 73.3992 394.056C72.2607 395.277 72.4666 396.087 74.3182 397.674C76.638 399.664 76.6282 399.698 73.942 398.904C70.2412 397.811 59.8252 403.326 60.7442 405.894C61.281 407.394 60.4072 407.579 56.1881 406.85C53.3181 406.355 47.7264 405.848 43.7622 405.725C37.6154 405.533 36.4119 405.086 35.5774 402.676C35.0382 401.123 34.0076 399.461 33.2858 398.982C31.3827 397.72 31.6794 393.138 33.8128 390.849C36.2784 388.204 36.1289 386.802 33.2001 385.121C28.6611 382.515 30.3706 380.778 36.5701 381.697Z" fill="#849EA5"/>
<path d="M72.5194 340.357C67.685 334.618 65.5295 330.652 66.6103 329.493C67.6972 328.326 69.1653 328.461 69.9349 329.798C70.2952 330.421 73.0842 331.682 76.1343 332.598C80.7419 333.981 81.6806 334.799 81.6806 337.421C81.6806 339.158 82.5078 340.919 83.5188 341.335C84.5298 341.752 85.3569 342.886 85.3569 343.858C85.3569 344.83 86.3213 346.254 87.5014 347.021C89.3016 348.193 89.0823 348.363 86.1351 348.072C82.5764 347.722 82.3619 347.948 79.0655 355.512C77.3917 359.35 77.3917 359.349 77.0131 352.299L77.013 352.298C76.6993 346.448 75.9322 344.412 72.5194 340.357Z" fill="#87B0FF"/>
<path d="M7.42551 422.59C5.80881 420.716 5.17823 417.191 4.8636 408.253C4.44948 396.476 4.46321 396.41 7.12204 397.878C10.828 399.924 11.798 401.738 11.0282 405.176C10.3318 408.284 13.1709 415.372 15.4281 416.162C16.1593 416.418 15.1409 418.528 13.1635 420.851C9.65656 424.975 9.51726 425.016 7.42551 422.59Z" fill="#003479"/>
<path d="M232.998 411.091C243.381 414.596 247.253 412.836 242.407 406.811L239.521 403.223L242.585 405.902C244.271 407.376 246.091 409.339 246.63 410.262C248.274 413.082 254.34 412.258 256.518 408.918L258.49 405.893L260.651 408.968C261.839 410.659 264.578 414.12 266.737 416.658C268.897 419.196 270.138 421.63 269.496 422.066C268.853 422.501 268.324 424.183 268.32 425.803C268.315 427.423 267.488 430.482 266.481 432.6C265.474 434.719 264.65 437.713 264.65 439.255C264.65 443.567 262.255 440.115 261.983 435.412C261.857 433.226 261.235 430.682 260.6 429.757C258.781 427.107 253.439 427.792 250.244 431.084L247.324 434.092L245.261 431.279C244.126 429.732 242.275 428.113 241.149 427.681C239.823 427.175 239.322 425.958 239.731 424.241C240.157 422.454 239.524 421.091 237.797 420.077C236.385 419.249 235.23 417.412 235.23 415.997C235.23 414.579 234.266 412.74 233.085 411.908C231.212 410.586 231.201 410.483 232.998 411.091Z" fill="#9BBACE"/>
<path d="M237.069 434.844C235.721 433.759 234.388 432.7 234.106 432.491C233.826 432.281 234.172 432.11 234.876 432.11C235.58 432.11 236.913 433.17 237.839 434.463C239.394 436.64 239.337 436.668 237.069 434.844Z" fill="#9BBACE"/>
<path d="M94.8457 289.665C96.3617 289.352 100.36 288.534 103.731 287.849C113.483 285.863 116.241 286.005 117.274 288.54C117.788 289.806 118.106 291.552 117.977 292.421C117.552 295.299 121.961 299.391 125.488 299.391C127.696 299.391 129.168 300.215 129.594 301.692C130.893 306.205 132.23 307.941 134.508 308.072C135.779 308.144 138.285 308.639 140.075 309.17C141.866 309.702 144.39 309.528 145.684 308.784C147.505 307.738 148.466 307.971 149.937 309.813C150.982 311.123 154.407 312.61 157.548 313.115C165.901 314.459 172.415 317.611 170.682 319.471C168.966 321.312 168.855 327.878 170.52 328.982C173.006 330.63 171.749 333.586 168.564 333.586C164.491 333.586 157.898 338.552 158.762 340.968C159.146 342.045 158.627 342.792 157.493 342.792C156.437 342.792 153.834 343.591 151.71 344.57C149.586 345.547 145.105 347.06 141.751 347.932C138.396 348.803 135.29 350.146 134.846 350.917C134.393 351.705 128.747 352.502 121.949 352.737C112.542 353.065 110.47 352.839 112.615 351.719C116.215 349.843 116.134 348.053 112.452 348.053C110.561 348.053 109.305 347.124 108.89 345.422C108.538 343.976 107.609 342.792 106.826 342.792C105.938 342.792 105.695 343.903 106.179 345.751C106.811 348.163 106.696 348.346 105.555 346.737C104.5 345.249 104.004 345.168 103.536 346.409C103.194 347.313 101.884 348.053 100.625 348.053C99.3677 348.053 97.842 349.003 97.2354 350.166C96.2942 351.972 95.5736 351.638 92.2782 347.864C90.1581 345.437 88.4203 342.773 88.4179 341.946C88.4142 341.119 87.5846 340.102 86.5735 339.685C85.5625 339.27 84.7353 337.501 84.7353 335.755C84.7353 333.099 83.8504 332.344 79.2928 331.112C76.3001 330.303 73.5097 329.049 73.0931 328.326C71.8712 326.203 64.5171 326.811 59.4227 329.454C52.251 333.174 47.2485 334.644 45.3747 333.582C44.4433 333.054 40.4519 332.235 36.5058 331.76C26.9689 330.616 24.2434 329.038 25.9383 325.639C26.6454 324.223 28.0315 323.064 29.018 323.064C30.9138 323.064 31.3918 321.492 29.9604 319.958C27.8231 317.662 28.9873 314.806 33.9861 310.083C40.0867 304.321 40.5892 301.991 36.648 297.761C34.0365 294.958 34.0181 294.794 36.2559 294.332C37.5488 294.064 39.3734 293.023 40.3122 292.015C42.6909 289.462 49.637 289.749 58.9385 292.784C63.2854 294.202 68.1188 295.019 69.6777 294.599C71.2365 294.18 73.3737 294.603 74.4277 295.542C75.9938 296.937 76.5233 296.938 77.3223 295.549C78.0503 294.285 78.5269 294.242 79.1838 295.382C79.7156 296.305 81.4363 296.592 83.5098 296.103C85.4473 295.646 87.3039 295.9 87.7549 296.683C89.4473 299.623 92.0883 298.083 92.0883 294.155C92.0883 291.135 92.722 290.104 94.8457 289.665Z" fill="#DBDBDB"/>
<path d="M82.9167 362.52C81.3529 362.52 81.3849 361.877 83.1435 357.916C84.8629 354.047 85.826 353.313 89.179 353.313C93.9119 353.313 95.6607 355.385 91.9854 356.637C90.5614 357.122 88.3469 358.644 87.065 360.019C85.7843 361.394 83.9167 362.52 82.9167 362.52Z" fill="#DBDBDB"/>
<path d="M117.385 362.15L121.587 359.939C126.66 357.269 130.326 358.325 135.434 363.927L138.95 367.783L135.155 368.598C133.068 369.046 130.728 370.229 129.956 371.227C127.498 374.406 124.462 373.422 124.516 369.464C124.552 366.783 123.663 365.417 120.975 364.018L117.385 362.15Z" fill="#DBDBDB"/>
<path d="M145.091 366.445C143.258 366.428 143.214 366.239 144.785 365.15C147.097 363.545 147.236 363.545 147.236 365.15C147.236 365.873 146.271 366.456 145.091 366.445Z" fill="#DBDBDB"/>
</svg>
