<svg width="488" height="610" viewBox="0 0 488 610" fill="none" xmlns="http://www.w3.org/2000/svg">
<path d="M163.847 308.382C163.847 307.416 166.15 306.095 169.055 305.397C171.92 304.708 174.4 304.081 174.57 304.004C174.739 303.926 175.979 305.047 177.327 306.494C178.675 307.94 181.087 309.124 182.687 309.124C188.084 309.124 203.062 319.326 203.062 323.002C203.062 323.873 203.857 325.292 204.828 326.157C206.788 327.902 206.08 331.482 203.774 331.482C202.735 331.482 202.352 334.43 202.48 341.402C202.601 347.92 202.158 351.639 201.19 352.252C199.734 353.171 198.33 358.743 197.66 366.245C197.377 369.427 196.479 370.408 192.53 371.85C189.898 372.812 186.917 373.985 185.905 374.457C184.894 374.928 181.586 376.301 178.552 377.506C173.877 379.364 173.045 380.232 173.085 383.209C173.121 385.748 172.516 386.72 170.902 386.72C166.285 386.72 160.264 390.462 159.479 393.818C158.996 395.884 156.658 398.43 153.308 400.536C150.341 402.402 147.915 404.361 147.915 404.888C147.915 405.417 146.267 407.995 144.253 410.617C140.759 415.165 140.378 415.325 135.981 414.11C133.445 413.411 130.452 412.696 129.328 412.525C128.205 412.353 126.458 411.475 125.444 410.572C124.322 409.573 120.671 409.047 116.09 409.224L108.576 409.515L103.178 403.049L97.7797 396.584L97.7247 377.722L97.6695 358.858L104.103 359.143C117.459 359.734 116.735 360.228 117.077 350.278C117.245 345.426 117.496 341.361 117.635 341.246C117.775 341.132 119.89 340.65 122.336 340.176C126.004 339.465 126.883 339.733 127.365 341.708C128.357 345.78 144.187 349.442 144.278 345.621C144.298 344.717 145.419 345.562 146.765 347.497C148.112 349.435 150.853 351.405 152.854 351.877C154.856 352.348 156.493 353.238 156.493 353.854C156.493 354.469 157.735 357.023 159.251 359.529C161.676 363.533 162.636 364.086 167.217 364.113L172.425 364.142V355.923C172.425 351.402 172.055 347.307 171.604 346.821C171.152 346.337 169.568 346.794 168.084 347.837C165.601 349.583 165.115 349.429 161.963 345.899C158.584 342.114 158.561 341.971 160.131 334.946C161.006 331.032 161.464 324.499 161.149 320.428C160.748 315.237 161.066 312.593 162.212 311.573C163.111 310.772 163.847 309.337 163.847 308.382Z" fill="#DBDBDB"/>
<path d="M207.657 332.525C209.684 330.721 209.591 328.239 207.32 323.526C205.645 320.048 205.645 319.646 207.32 319.646C208.497 319.646 209.19 320.864 209.19 322.934C209.19 324.742 209.787 326.222 210.516 326.222C211.409 326.222 211.614 329.331 211.141 335.757C209.976 351.599 210.654 362.298 212.992 364.954C215.307 367.583 214.18 372.18 211.012 373.033C207.76 373.909 204.288 371.805 204.288 368.957C204.288 368.046 203.15 366.979 201.757 366.589C199.333 365.909 199.31 365.705 201.195 361.793C202.277 359.547 202.833 357.136 202.43 356.438C202.028 355.738 203.109 354.477 204.832 353.635C208.173 352.001 208.764 350.58 206.675 349.195C204.92 348.031 205.733 334.24 207.657 332.525Z" fill="#DBDBDB"/>
<path d="M264.038 336.039C266.906 334.756 269.869 332.911 270.622 331.937C272.674 329.282 272.858 329.745 271.607 334.423C270.717 337.754 270.844 355.757 271.913 378.172C272.057 381.17 270.535 386.773 269.022 388.818C265.341 393.796 255.364 403.819 254.079 403.829C250.155 403.863 234.925 413.961 234.925 416.529C234.925 417.164 230.771 421.721 225.692 426.657C218.071 434.066 216.147 435.352 214.663 434.03C213.127 432.661 212.866 433.344 212.866 438.735C212.866 442.201 213.623 445.973 214.547 447.115C216.012 448.927 219.303 468.053 219.09 473.523C218.723 482.9 217.739 488.709 216.189 490.653C215.177 491.921 211.17 494.234 207.284 495.795C195.719 500.439 188.687 507.283 191.919 510.751C194.11 513.103 193.557 518.239 191.114 518.235C189.212 518.231 188.92 516.407 188.533 502.124C188.281 492.762 187.453 484.64 186.557 482.729C185.711 480.921 184.713 476.888 184.342 473.767C183.746 468.764 184.124 467.521 187.541 463.245C189.673 460.58 192.107 457.924 192.95 457.346C193.794 456.767 194.484 454.384 194.484 452.049C194.484 449.428 195.424 446.94 196.94 445.547C199.002 443.651 199.358 441.861 199.158 434.355C199.027 429.44 199.358 424.658 199.893 423.728C200.429 422.798 200.838 417.335 200.804 411.586C200.733 400.009 199.622 397.753 193.33 396.402C191.268 395.959 189.582 395.139 189.582 394.578C189.582 394.017 186.952 392.882 183.738 392.053C178.652 390.744 177.724 389.972 176.598 386.111L175.304 381.672L180.912 380.006C183.995 379.09 189.662 376.977 193.503 375.312C200.68 372.202 203.576 372.308 204.798 375.728C205.267 377.039 206.815 377.548 209.488 377.27C213.908 376.811 213.896 376.75 212.175 390.666C211.532 395.866 211.827 396.971 214.605 399.772C216.346 401.527 217.768 404.085 217.768 405.459C217.768 407.127 218.48 407.811 219.913 407.52C221.455 407.206 222.161 405.593 222.422 401.79C222.695 397.814 223.457 396.18 225.485 395.225C227.848 394.113 228.229 392.787 228.542 384.605C228.891 375.435 228.804 375.128 223.946 368.532C219.836 362.951 218.994 360.811 218.994 355.938C218.994 347.204 220.593 343.831 225.201 342.842C227.373 342.376 229.759 342.517 230.505 343.155C231.251 343.793 235.057 344.303 238.961 344.287C244.5 344.265 246.416 343.715 247.674 341.787C248.704 340.21 250.046 339.627 251.38 340.176C252.531 340.65 254.677 340.439 256.147 339.706C257.619 338.972 261.169 337.323 264.038 336.039Z" fill="#DBDBDB"/>
<path d="M215.332 387.321C216.169 384.112 216.51 379.639 216.09 377.382L215.325 373.276L219.907 374.2C222.428 374.707 224.863 375.369 225.318 375.671C225.773 375.974 225.969 379.618 225.754 383.771C225.433 389.97 224.892 391.559 222.739 392.639C221.297 393.362 219.805 395.283 219.423 396.91L218.729 399.867L216.27 396.51C214.043 393.472 213.955 392.602 215.332 387.321Z" fill="#DBDBDB"/>
<path d="M3.74623 408.234C5.18987 408.611 7.73647 408.122 9.40559 407.149C12.0637 405.598 12.848 405.691 15.7218 407.886C18.6397 410.115 21.3064 410.393 39.7636 410.393C58.5419 410.393 60.7244 410.63 62.6141 412.871C64.2771 414.844 67.3764 415.57 77.8165 416.432C85.0285 417.027 89.4133 417.727 87.5592 417.986L84.189 418.46V439.99V461.52L79.9218 460.777C76.9046 460.252 75.4904 460.565 75.0946 461.846C74.2563 464.567 73.2293 493.941 73.1926 516.311L73.1595 536.084L69.526 538.387C62.7845 542.662 51.1007 541.07 51.1007 535.879C51.1007 533.67 47.1069 531.268 45.4304 532.469C44.7441 532.961 43.7943 534.488 43.32 535.862C42.5014 538.236 42.3029 538.205 39.3103 535.205C34.6656 530.548 33.299 526.932 30.4166 511.663C28.9828 504.068 27.2599 495.33 26.5883 492.245C25.9155 489.16 25.3652 482.412 25.3652 477.247C25.3652 469.027 24.8468 466.857 21.2108 459.839C18.9264 455.429 14.723 445.904 11.8701 438.67C9.01588 431.437 5.44222 424.183 3.92751 422.55C1.21425 419.626 -0.945038 411.139 0.422623 408.767C0.807426 408.097 2.30382 407.858 3.74623 408.234Z" fill="#DBDBDB"/>
<path d="M106.393 413.179L110.303 412.654C118.588 411.543 122.874 411.692 120.954 413.024C119.943 413.725 118.331 414.307 117.374 414.319C116.416 414.33 114.669 415.275 113.491 416.418C111.529 418.324 111.143 418.277 108.871 415.838L106.393 413.179Z" fill="#DBDBDB"/>
<path d="M183.008 523.48C178.644 523.417 176.438 517.264 178.761 511.634C180.592 507.194 180.779 507.12 183.852 509.619C185.696 511.12 185.94 512.494 185.245 517.468C184.78 520.785 183.776 523.49 183.008 523.48Z" fill="#DBDBDB"/>
<path d="M349.438 363.301C353.079 359.472 354.387 357.025 354.387 354.047C354.387 351.327 354.996 350 356.243 350C357.263 350 358.099 351.133 358.099 352.52C358.099 353.906 358.695 355.251 359.422 355.509C360.151 355.767 361.533 361.576 362.496 368.418C363.457 375.262 364.514 381.608 364.844 382.521C365.173 383.434 364.964 385.513 364.379 387.141C363.33 390.057 363.301 390.048 362.428 386.485C360.55 378.818 356.771 384.416 357.73 393.446C358.204 397.92 357.866 399.844 356.374 401.16C355.158 402.233 354.366 405.019 354.332 408.339C354.303 411.324 353.437 416.132 352.407 419.025C351.378 421.917 350.019 426.059 349.387 428.228C348.755 430.398 347.723 433.356 347.095 434.802C346.465 436.248 344.223 443.052 342.111 449.922C329.722 490.23 327.775 495.218 323.97 496.428C321.986 497.059 318.886 498.39 317.079 499.386C312.858 501.714 310.114 501.554 305.516 498.709C300.443 495.57 297.311 488.686 298.113 482.436C298.509 479.351 298.041 476.022 296.875 473.626C295.844 471.508 295 468.159 295 466.187C295 461.081 297.681 453.866 299.579 453.866C300.463 453.866 301.255 453.274 301.341 452.551C301.614 450.226 301.927 449.353 304.28 444.334C305.552 441.623 307.04 439.404 307.587 439.404C308.857 439.404 308.643 432.984 307.258 429.543C306.677 428.097 305.729 422.963 305.154 418.135C304.206 410.178 304.376 408.885 306.971 404.33C308.545 401.565 309.837 398.267 309.841 397.003C309.844 395.733 310.817 394.653 312.012 394.593C317.904 394.294 320.28 393.651 320.724 392.237C321.044 391.218 322.661 390.973 325.427 391.524C328.002 392.038 329.642 391.84 329.642 391.014C329.642 390.27 329.042 389.449 328.31 389.19C327.572 388.929 328.124 387.615 329.547 386.247C331.921 383.964 332.117 383.951 332.117 386.061C332.117 389.636 335.164 387.677 335.595 383.826C335.858 381.47 336.537 380.612 337.75 381.106C338.722 381.502 339.848 380.915 340.25 379.802C340.652 378.688 341.771 378.098 342.736 378.491C344.882 379.366 345.073 376.127 343.004 373.929C341.85 372.702 341.85 372.351 343.004 372.351C343.821 372.351 344.489 371.486 344.489 370.43C344.489 369.373 346.716 366.165 349.438 363.301Z" fill="#38C1DF"/>
<path d="M118.676 415.788C119.841 416.186 121.165 415.864 121.619 415.074C123.097 412.502 124.908 414.401 128.586 422.376C130.572 426.684 132.61 431.096 133.114 432.181C133.619 433.265 136.048 435.583 138.515 437.332C140.981 439.079 142.999 441.235 142.999 442.121C142.999 443.007 143.754 444.043 144.678 444.424C145.601 444.806 146.723 447.217 147.17 449.782C148.207 455.723 150.782 458.474 155.308 458.474C160.371 458.474 160.186 462.943 155.003 465.826C152.867 467.014 149.429 469.897 147.365 472.232C145.299 474.569 142.984 476.717 142.219 477.008C141.454 477.299 139.804 479.904 138.553 482.796C137.154 486.026 134.802 488.816 132.451 490.027C129.728 491.431 128.319 493.325 127.563 496.6C126.668 500.469 125.779 501.393 121.971 502.404C118.163 503.416 116.503 503.084 111.525 500.305C104.776 496.538 100.222 497.201 100.222 501.948C100.222 503.501 97.7934 507.401 94.777 510.693C90.2072 515.679 88.8163 516.495 86.1336 515.772C83.3494 515.02 83.0364 514.419 83.7111 511.113C84.6754 506.394 82.2641 497.373 79.2575 494.445C77.3154 492.555 77 490.166 77 477.333V462.418H81.8888H86.7776V440.726V419.034L90.1387 418.976C91.9879 418.944 96.2497 418.123 99.6108 417.151C105.551 415.434 105.791 415.476 108.18 418.614L110.637 421.845L113.598 418.455C115.441 416.345 117.357 415.338 118.676 415.788Z" fill="#CDD9E7"/>
<path d="M181.809 233.355C184.248 232.348 184.206 224.721 181.739 220.933C179.849 218.029 179.887 218 185.461 218C190.855 218 191.032 218.12 189.672 220.855C188.324 223.565 188.785 237.16 190.279 238.768C190.637 239.152 192.307 238.497 193.991 237.309C198.058 234.442 199.498 234.589 198.719 237.791C198.307 239.484 198.679 240.423 199.753 240.41C202.523 240.375 204.869 238.191 203.916 236.531C203.378 235.594 203.681 235.12 204.679 235.339C206.844 235.817 211.853 232.317 211.853 230.327C211.853 229.473 211.164 228.465 210.32 228.088C209.204 227.588 209.372 226.89 210.933 225.524C212.114 224.491 213.079 222.623 213.079 221.372C213.079 218.62 212.677 218.437 224.507 226.576C244.383 240.251 245.575 241.212 245.25 243.295C244.939 245.295 247.432 248.43 255.981 256.79C259.113 259.851 259.743 261.301 259.135 264.047C256.711 274.992 256.878 278.376 260.058 282.862C262.256 285.964 262.862 287.888 262.101 289.352C258.997 295.32 263.093 319.979 267.919 324.382L271 327.193L262.921 331.473C257.708 334.234 253.866 335.478 252.093 334.979C250.387 334.499 248.479 335.049 247.06 336.431C244.579 338.847 231.972 339.998 230.777 337.918C230.405 337.27 228.007 337.1 225.449 337.539C220.066 338.465 219.362 337.41 218.432 327.029C217.626 318.027 214.88 313.861 210.388 314.828C207.749 315.396 204.25 314.092 196.04 309.482C185.779 303.722 185.038 303.013 182.575 296.621C181.142 292.9 179.969 288.664 179.969 287.206C179.969 283.744 176.64 278.692 174.358 278.692C173.069 278.692 172.776 277.785 173.318 275.466C173.731 273.691 173.476 269.262 172.751 265.625C171.478 259.236 171.558 258.86 175.087 254.703C177.099 252.334 178.743 249.911 178.743 249.316C178.743 248.722 179.847 246.961 181.196 245.404C184.083 242.068 184.428 237.791 181.809 237.791C180.797 237.791 179.969 236.963 179.969 235.953C179.969 234.942 180.797 233.773 181.809 233.355Z" fill="#9BBACE"/>
<path d="M362.431 72.7942C364.655 72.3132 367.118 70.8113 367.903 69.4587C368.689 68.1062 370.214 67 371.292 67C372.908 67 373.191 68.3264 372.899 74.5362C372.366 85.8379 370.389 95.4397 367.591 100.309C366.215 102.703 365.089 105.553 365.089 106.642C365.089 107.73 364.32 109.306 363.381 110.145C362.441 110.983 361.308 113.232 360.863 115.14C360.417 117.048 359.06 120.121 357.848 121.967C356.635 123.814 355.251 127.388 354.771 129.911C354.29 132.434 352.577 136.698 350.964 139.386C349.349 142.073 348.028 144.875 348.028 145.611C348.028 146.347 347.479 146.95 346.809 146.95C346.139 146.95 345.59 147.754 345.59 148.737C345.59 150.909 332.856 168.318 327.155 173.94C324.895 176.169 321.125 179.243 318.779 180.769C311.349 185.603 287.093 213.79 287.093 217.588C287.093 219.984 284.917 219.222 282.898 216.121C281.381 213.794 281 209.188 281 193.189V173.169L285.265 166.783C287.611 163.271 289.531 159.795 289.531 159.057C289.531 157.554 292.37 156.124 295.352 156.124C296.433 156.124 298.893 154.503 300.817 152.52C303.596 149.656 305.552 148.881 310.329 148.752C313.636 148.661 316.873 148.514 317.522 148.424C318.171 148.334 320.844 145.164 323.461 141.379C326.078 137.594 332.387 129.485 337.479 123.358C342.572 117.231 346.754 111.776 346.774 111.234C346.793 110.693 344.4 110.251 341.454 110.251C338.07 110.251 331.577 108.323 323.801 105.009C317.038 102.125 311.164 99.7662 310.748 99.7662C309.382 99.7662 302.443 92.9665 300.893 90.1093C296.626 82.2428 296.429 81.4709 297.84 78.1405C299.702 73.7459 301.008 74.0092 303.952 79.375C307.324 85.5206 313.249 86.8078 319.389 82.7278C322.613 80.5849 324.79 80.0434 327.776 80.6463C330.772 81.2505 332.595 80.7918 334.883 78.856C336.576 77.4248 339.54 76.261 341.471 76.2715C344.667 76.2872 351.675 75.1246 362.431 72.7942Z" fill="#CDD9E7"/>
<path d="M216.831 159.303C214.616 158.388 214.396 153.683 216.526 152.756C219.326 151.538 229.491 151.867 230.255 153.201C230.67 153.925 233.223 154.517 235.93 154.517C239.76 154.517 241.924 155.506 245.686 158.978C249.421 162.425 252.079 163.65 257.361 164.362C261.122 164.868 264.835 165.546 265.61 165.867C266.386 166.187 267.791 164.899 268.732 163.003C269.673 161.106 271.917 158.734 273.72 157.728C276.524 156.165 277.203 156.169 278.428 157.761C279.215 158.785 280.964 159.805 282.314 160.03C284.679 160.423 284.653 160.619 281.616 165.429C278.523 170.325 278.462 170.86 278.489 193.058C278.513 213.499 278.748 216.015 280.903 218.984C284.018 223.277 283.944 224.065 280.293 225.562C278.615 226.25 277.238 227.863 277.234 229.147C277.23 230.431 275.537 232.52 273.472 233.787C271.407 235.053 269.964 236.83 270.266 237.733C270.569 238.637 270.101 240.857 269.226 242.666C268.352 244.475 266.685 248.44 265.521 251.478L263.403 257L259.645 254.133C252.302 248.534 249.172 244.834 249.172 241.758C249.172 239.475 247.701 237.706 243.608 235.068C231.719 227.405 215.763 215.623 215.333 214.189C215.085 213.361 216.569 211.881 218.631 210.899C223.244 208.706 223.051 205.147 218.323 205.221C215.714 205.262 215 204.662 215 202.422C215 200.854 215.824 198.835 216.831 197.934C217.837 197.032 218.673 195.629 218.688 194.813C218.703 193.996 219.789 191.849 221.102 190.04C222.768 187.743 223.497 184.667 223.516 179.843C223.531 176.044 223.13 172.931 222.628 172.926C221.289 172.911 218.661 166.3 218.661 162.948C218.661 161.36 217.837 159.72 216.831 159.303Z" fill="#345764"/>
<path d="M156.641 470.084C157.716 470.084 159.633 468.853 160.902 467.349C162.725 465.188 163.984 464.818 166.912 465.585C168.95 466.117 172.547 466.713 174.906 466.909C177.265 467.105 179.575 467.307 180.039 467.36C180.504 467.411 181.228 470.265 181.648 473.7C182.07 477.134 183.238 482.038 184.244 484.597C185.375 487.473 185.93 492.223 185.697 497.045C185.331 504.675 185.246 504.842 181.752 504.884C179.107 504.915 177.624 505.946 176.021 508.87C173.013 514.359 173.188 517.777 176.685 521.826C180.482 526.221 187.16 526.762 187.16 522.675C187.16 520.923 187.978 520.046 189.611 520.046C192.664 520.046 192.657 520.701 189.506 530.865C187.588 537.053 185.995 539.766 183.122 541.74C181.018 543.186 176.516 549.209 173.118 555.123C166.764 566.184 149.63 585.474 139.56 592.905C136.702 595.012 131.768 597.231 128.594 597.833C125.422 598.435 121.446 599.278 119.761 599.705C118.076 600.131 111.843 600.429 105.908 600.368C98.032 600.285 94.0616 600.849 91.2026 602.455C89.0496 603.666 84.9261 604.774 82.0402 604.917C79.1531 605.06 75.8015 606.138 74.5908 607.314C71.7894 610.034 70.5518 610.004 68.0298 607.151C66.911 605.886 64.5888 603.666 62.8682 602.22C61.1477 600.774 59.7348 598.794 59.7275 597.821C59.7213 596.848 58.5745 594.334 57.1812 592.233C55.0648 589.045 54.9644 588.415 56.5685 588.415C58.5193 588.415 59.0939 585.705 58.5939 578.862C58.4468 576.86 56.2143 570.648 53.6323 565.056C51.0491 559.463 48.532 552.826 48.0381 550.306C47.5443 547.785 46.3312 544.398 45.3422 542.78C43.7443 540.164 43.7687 539.597 45.5615 537.673C46.6706 536.483 47.6889 535.729 47.8262 535.995C47.9622 536.262 48.6778 537.651 49.4156 539.08C51.0025 542.158 54.5782 543.402 62.3426 543.58C67.1095 543.691 68.6964 543.048 72.1093 539.628L76.1838 535.543L76.8345 516.291C77.4374 498.406 77.598 497.382 79.0856 501.885C79.9655 504.551 80.5169 509.58 80.3111 513.06L79.9349 519.389L85.7361 519.788C91.0826 520.156 91.9281 519.775 96.5051 514.912C99.2366 512.01 102.056 507.837 102.772 505.637C104.19 501.272 106.354 500.536 108.733 503.611C109.572 504.696 111.025 505.583 111.963 505.583C112.9 505.583 114.714 506.284 115.993 507.141C117.791 508.346 119.461 508.331 123.362 507.078C127.532 505.737 128.743 504.555 130.344 500.261C131.41 497.402 132.8 495.065 133.432 495.065C135.193 495.065 140.476 488.496 142.628 483.633C143.684 481.242 145.29 479.287 146.195 479.287C147.101 479.287 149.381 477.217 151.264 474.686C153.146 472.155 155.566 470.084 156.641 470.084Z" fill="#037FB2"/>
<path d="M162.507 546.402C162.507 545.321 161.026 542.775 159.214 540.748C157.403 538.719 154.785 537.094 153.394 537.138C149.846 537.245 141.675 543.25 141.675 545.748C141.675 546.891 140.572 548.134 139.224 548.512C135.978 549.423 136.133 551.803 139.853 558.123C142.321 562.318 143.656 563.356 146.592 563.356C149.038 563.356 150.253 562.697 150.253 561.373C150.253 560.282 152.321 558.498 154.848 557.408C159.249 555.509 162.507 550.827 162.507 546.402Z" fill="#003479"/>
<path d="M243.604 5.91205C243.604 4.97041 245.402 3.29236 247.599 2.18448C249.795 1.0779 251.879 0.0946294 252.227 0.00241418C252.967 -0.195004 257.125 11.7748 257.125 14.0997C257.125 14.9686 258.623 19.1273 260.454 23.3419C263.61 30.6074 265.684 32.9663 265.766 29.3816C265.787 28.4802 266.361 28.7698 267.057 30.031C267.746 31.2804 269.47 32.3039 270.887 32.3039C273.381 32.3039 294 53.3003 294 55.8408C294 58.0929 290.88 56.8927 288.469 53.7132C283.21 46.7802 274.832 37.7639 272.49 36.5183C267.599 33.9181 256.914 32.1713 255.183 33.6883C253.956 34.7637 252.875 34.4495 250.806 32.4117C247.257 28.9179 245.272 28.9854 244.399 32.6286C243.854 34.9041 242.738 35.6028 239.35 35.7833C235.165 36.0067 235 35.8457 235 31.5207C235 29.0477 235.83 24.9266 236.844 22.3627C237.858 19.7976 238.688 15.4336 238.688 12.6632C238.688 8.49277 239.11 7.62656 241.146 7.62656C242.498 7.62656 243.604 6.85498 243.604 5.91205Z" fill="#75D0D1"/>
<path d="M161.84 394.928C162.799 392.455 164.287 390.128 165.145 389.756C168.254 388.41 172.433 388.914 174.231 390.85C175.241 391.938 177.469 392.828 179.181 392.828C180.895 392.828 184.3 393.962 186.749 395.35C189.199 396.736 192.175 398.205 193.364 398.613C197.732 400.112 199.625 414.929 196.332 421.843C195.258 424.098 195.052 427.156 195.681 431.52C196.56 437.616 195.19 442.944 192.744 442.944C192.234 442.944 191.815 444.725 191.815 446.901C191.815 449.077 190.851 451.901 189.671 453.177C188.492 454.453 186.341 457.258 184.892 459.41C182.088 463.572 181.734 463.631 168.85 462.022C164.609 461.491 162.42 460.608 162.42 459.423C162.42 457.667 161.429 457.163 154.911 455.611C151.745 454.856 150.242 452.069 149.729 446.001C149.495 443.221 145.818 439.03 137.996 432.623C135.935 430.936 134.25 428.798 134.25 427.874C134.25 426.949 132.867 423.391 131.177 419.969C128.519 414.588 128.396 413.831 130.259 414.381C139.125 417.003 141.878 416.772 145.425 413.113C147.363 411.115 148.948 408.731 148.948 407.816C148.948 405.899 156.41 399.422 158.617 399.422C159.43 399.422 160.881 397.399 161.84 394.928Z" fill="#AED3B6"/>
<path d="M5.01209 265.639C4.6195 266.686 4.32782 266.375 4.26874 264.845C4.21582 263.46 4.5063 262.686 4.91489 263.122C5.32348 263.558 5.36776 264.691 5.01209 265.639Z" fill="#75D0D1"/>
<path d="M7.31845 278.952C6.68956 276.687 7.10929 275.973 9.34793 275.502C10.9011 275.175 19.5848 274.983 28.6464 275.075L45.1219 275.242L46.7131 281.808C47.5881 285.42 49.5067 291.258 50.9786 294.78L53.6531 301.185L59.9873 300.373C63.4714 299.927 68.0877 299.555 70.2463 299.55C73.952 299.538 74.2166 299.208 75.0005 293.628C75.7648 288.194 76.1168 287.718 79.3843 287.718C81.3374 287.718 82.9361 288.309 82.9361 289.032C82.9361 289.754 85.6092 290.345 88.8767 290.345C94.7238 290.345 94.8086 290.404 94.2954 294.134C94.0087 296.218 94.3484 299.066 95.0499 300.465C95.9249 302.212 95.9285 304.67 95.0596 308.321C93.9791 312.865 94.1835 314.448 96.4726 319.235C98.3605 323.183 98.929 326.085 98.4023 329.082C97.3304 335.177 98.5142 337.725 101.809 336.414C103.275 335.832 107.066 334.948 110.237 334.452L116 333.55L115.39 341.168C114.251 355.386 114.771 354.697 105.198 354.697C94.864 354.697 95.1951 353.873 95.5803 378.592L95.8584 396.375L101.304 402.678L106.75 408.982L99.4792 410.913C90.3203 413.347 69.3713 411.424 65.6238 407.805C63.6264 405.877 60.5314 405.613 42.3331 405.819C22.8352 406.041 21.1171 405.866 18.1302 403.361C14.6793 400.462 10.9416 399.848 9.70969 401.975C9.29125 402.698 7.16088 403.289 4.97393 403.289H1L1.89358 394.424C2.38463 389.549 3.41221 383.195 4.1777 380.306C4.94197 377.417 6.12952 372.098 6.81502 368.486C7.49929 364.875 9.12382 360.699 10.4234 359.209C11.7231 357.717 12.7864 355.817 12.7864 354.987C12.7864 354.155 13.8276 352.881 15.1002 352.154C17.8446 350.587 21.4013 341.732 21.4013 336.465C21.4013 334.413 19.8199 328.958 17.8877 324.343C13.2381 313.242 12.6843 310.457 14.7593 308.618C16.9708 306.66 16.9684 300.271 14.7531 296.537C13.8042 294.937 12.624 291.567 12.1305 289.05C11.637 286.532 10.5305 283.873 9.67273 283.14C8.8137 282.407 7.75534 280.523 7.31845 278.952Z" fill="#75D0D1"/>
<path d="M200.861 66.6225C201.711 66.6225 202.408 66.0324 202.408 65.3112C202.408 64.5901 202.914 64 203.532 64C204.163 64 204.076 65.6363 203.332 67.7343C202.273 70.7266 202.476 72.6711 204.359 77.5201C205.651 80.8494 207.869 84.2336 209.288 85.0427C211.542 86.329 211.844 87.6128 211.684 95.2535L211.502 103.993L207.096 104.392C203.237 104.739 202.591 105.309 201.903 108.974C201.121 113.143 203.239 116.45 206.69 116.45C209.037 116.45 217.686 128.601 220.396 135.704L223 142.529L214.858 150.453C209.166 155.993 205.721 158.382 203.411 158.392C201.593 158.402 198.743 158.961 197.077 159.637C195.41 160.312 193.681 160.476 193.236 160C191.929 158.607 184.071 158.447 183.288 159.797C182.195 161.68 180.256 161.268 180.256 159.153C180.256 158.12 179.287 156.944 178.102 156.538C176.917 156.133 174.841 154.03 173.487 151.865C170.912 147.746 168.285 146.771 167.282 149.559C166.723 151.107 156.395 151.929 155.311 150.511C151.254 145.203 148.258 140.031 148.258 138.336C148.258 137.167 147.011 135.503 145.489 134.639C142.236 132.793 139.737 129.598 139.682 127.212C139.633 125.086 136.194 121.215 132.566 119.203C131.044 118.359 129.797 116.456 129.797 114.975C129.797 111.877 125.279 107.379 122.105 107.314C119.475 107.262 119.238 103.547 121.798 102.501C122.813 102.085 123.644 100.329 123.644 98.5985C123.644 96.8689 125.028 94.1704 126.72 92.6022C128.413 91.0352 129.797 88.9726 129.797 88.0219C129.797 87.0503 131.146 86.2912 132.874 86.2912C134.674 86.2912 135.951 87.0438 135.951 88.1072C135.951 91.8417 141.415 94.0445 148.692 93.2446C154.281 92.6297 155.73 92.8789 156.333 94.5533C157.517 97.8419 163.988 98.7583 166.809 96.0374C169.011 93.9145 172.298 91.6424 176.344 89.4447C177.239 88.9583 179.591 89.8367 181.571 91.3958C184.967 94.0707 185.381 94.1138 188.929 92.1588C190.997 91.0193 193.031 89.0854 193.451 87.862C193.87 86.6373 195.551 83.9072 197.186 81.7948C199.536 78.7579 200.071 76.7649 199.736 72.2883C199.444 68.3729 199.792 66.6225 200.861 66.6225Z" fill="#037FB2"/>
<path d="M204.631 162.366C206.863 162.851 208.606 162.446 209.539 161.224C210.779 159.601 211.229 159.596 212.693 161.186C213.633 162.207 214.402 163.71 214.402 164.526C214.402 165.342 215.46 168.39 216.755 171.301C221.414 181.778 221.157 185.676 215.33 192.875C214.164 194.317 212.892 196.582 212.504 197.911C211.77 200.424 208.305 201.325 208.305 199.003C208.305 196.842 205.992 197.489 203.808 200.26C202.689 201.68 201.295 202.52 200.71 202.128C199.138 201.072 191.234 205.48 191.234 207.413C191.234 208.326 190.6 210.533 189.825 212.319C188.663 214.993 187.482 215.586 183.117 215.691C180.044 215.765 176.883 216.738 175.59 218.009C172.115 221.428 171.519 220.682 172.31 213.908C173.656 202.377 175.723 197.151 181.708 190.139C187.821 182.976 189.103 178.51 185.409 177.236C183.687 176.642 183.328 175.335 183.658 170.853C184.224 163.165 184.828 161.539 186.653 162.783C187.496 163.357 189.098 163.665 190.211 163.466C191.326 163.267 192.566 163.68 192.966 164.385C193.408 165.163 195.164 164.87 197.432 163.641C199.603 162.464 202.62 161.93 204.631 162.366Z" fill="#849EA5"/>
<path d="M246.777 39.6625C247.745 38.2543 248.537 36.6234 248.537 36.0367C248.537 34.5125 250.697 34.7182 251.623 36.3307C252.052 37.0796 254.977 37.5806 258.122 37.4461C270.249 36.9253 270.327 36.9636 280.428 48.3051L289.955 59.0018L287.614 63.138C286.252 65.5429 285.271 69.6894 285.269 73.0502L285.264 78.8264L289.963 78.1474C294.385 77.5093 294.63 77.6556 294.105 80.6142C293.741 82.6658 294.661 85.3331 296.751 88.2825C298.512 90.7718 299.954 93.3282 299.954 93.9651C299.954 97.7939 331.152 112.76 339.135 112.76H343L339.314 117.045C332.733 124.696 318.317 143.532 318.317 144.481C318.317 144.989 315.066 145.659 311.092 145.969C305.913 146.372 302.706 147.452 299.768 149.784C297.513 151.573 292.695 154.152 289.059 155.517C282.932 157.814 282.339 157.836 280.966 155.815C280.151 154.615 278.829 153.633 278.029 153.633C275.775 153.633 268.897 157.758 267.342 160.043C264.868 163.681 255.307 162.042 248.562 156.822C245.361 154.345 240.878 151.937 238.601 151.472C233.213 150.37 231.399 148.733 231.399 144.973C231.399 142.985 230.272 141.308 228.189 140.191C226.084 139.062 224.359 136.466 223.178 132.649C222.188 129.448 220.594 125.986 219.636 124.955C218.679 123.924 216.488 121.093 214.768 118.664C213.048 116.234 210.086 113.879 208.185 113.43C202.936 112.188 204.522 107.756 210.406 107.228L214.872 106.827L215.061 99.5753C215.361 88.1718 216.81 80.8767 218.625 81.6269C220.831 82.538 222.366 80.0237 223.364 73.8651C224.623 66.0848 227.998 58.9702 230.802 58.1831C232.603 57.6768 233.675 55.6016 234.781 50.4766C235.613 46.6188 236.295 42.4972 236.295 41.3172C236.295 39.822 237.036 39.3803 238.744 39.8616C240.301 40.3006 241.207 39.8958 241.231 38.7501C241.257 37.5713 241.918 37.8602 243.144 39.5847C244.995 42.19 245.037 42.1913 246.777 39.6625Z" fill="#003479"/>
<ellipse cx="409.358" cy="450.755" rx="2.45087" ry="2.62958" fill="#003479"/>
<path d="M431.331 442.822L426.49 442.32L431.102 437.61L431.331 442.822Z" fill="#003479"/>
<ellipse cx="485.948" cy="433.662" rx="1.83815" ry="1.31479" fill="#003479"/>
</svg>
