<svg width="548" height="519" viewBox="0 0 548 519" fill="none" xmlns="http://www.w3.org/2000/svg">
<path d="M46.7255 132.434C49.0023 132.902 49.8197 132.508 49.8197 130.945C49.8197 128.273 52.7032 128.182 54.7215 130.791C55.5609 131.876 57.0069 132.763 57.9346 132.763C58.8634 132.763 59.6232 133.706 59.6232 134.859C59.6232 136.011 60.7567 137.272 62.1439 137.661C63.7186 138.103 64.4073 139.083 63.9821 140.275C63.6059 141.324 63.2995 142.707 63.2995 143.347C63.2995 143.989 62.4723 144.173 61.4613 143.757C60.2972 143.277 59.6232 143.774 59.6232 145.113C59.6232 146.275 59.2102 147.301 58.7041 147.394C58.198 147.486 56.6822 147.737 55.3342 147.953C51.8111 148.517 37.6303 153.656 33.0852 156.016C28.2545 158.525 16.733 157.298 16.733 154.276C16.733 153.228 16.0443 152.465 15.2012 152.584C11.46 153.104 6.43697 152.363 7.72612 151.479C10.1696 149.804 10.2627 145.231 7.84863 145.436C6.66977 145.536 5.70413 145.093 5.70413 144.45C5.70413 143.807 6.25557 143.281 6.92956 143.281C7.60355 143.281 8.15499 142.394 8.15499 141.309C8.15499 140.225 8.98216 139.337 9.99314 139.337C11.0041 139.337 11.8313 139.929 11.8313 140.652C11.8313 142.725 15.5064 142.184 16.2894 139.994C16.6779 138.91 17.7807 138.022 18.7415 138.022C19.7022 138.022 20.9142 136.786 21.435 135.277C22.2854 132.809 22.544 132.742 23.9962 134.62C25.985 137.191 27.7619 137.319 27.7619 134.889C27.7619 131.88 32.5264 131.346 33.9479 134.196C35.4417 137.19 37.5654 137.507 37.5654 134.735C37.5654 132.346 39.5604 132.12 40.4562 134.407C40.928 135.612 41.4365 135.485 42.3654 133.925C43.1877 132.544 44.7121 132.022 46.7255 132.434Z" fill="#CDD9E7"/>
<path d="M8.18566 136.423C6.93572 135.586 6.27885 133.978 6.61707 132.588C7.08028 130.69 7.67828 130.471 9.51521 131.526C10.7897 132.257 11.8313 133.165 11.8313 133.544C11.8313 133.923 11.1928 133.81 10.4122 133.293C9.44658 132.651 9.20883 133.231 9.66592 135.109C10.2406 137.467 10.0275 137.657 8.18566 136.423Z" fill="#CDD9E7"/>
<path d="M2.92117 134.872C2.51433 135.309 1.45676 135.356 0.573223 134.976C-0.404672 134.556 -0.11424 134.245 1.31339 134.182C2.605 134.125 3.32802 134.436 2.92117 134.872Z" fill="#CDD9E7"/>
<path d="M171.069 299.299C171.069 297.664 171.437 295.931 171.887 295.45C173.428 293.796 177.196 294.573 177.196 296.545C177.196 297.63 178.002 298.518 178.984 298.518C181.914 298.518 189.388 302.99 189.42 304.763C189.45 306.312 191.121 306.999 193.627 306.493C194.24 306.368 195.067 306.743 195.465 307.323C196.87 309.367 201.705 311.665 204.602 311.665C206.214 311.665 208.218 312.553 209.058 313.638C209.897 314.722 212.125 315.61 214.01 315.61C215.893 315.61 218.294 315.963 219.343 316.395C221.044 317.096 221.055 317.59 219.443 320.932C218.449 322.995 217.636 326.191 217.636 328.035C217.636 330.51 216.995 331.387 215.185 331.387C213.837 331.387 212.734 331.978 212.734 332.698C212.734 333.42 210.878 336.23 208.608 338.943C203.154 345.466 201.834 349.794 205.299 349.794C206.693 349.794 207.832 349.203 207.832 348.48C207.832 347.756 208.723 347.165 209.814 347.165C211.25 347.165 211.6 347.958 211.089 350.055C210.702 351.644 210.996 353.734 211.741 354.697C212.768 356.025 212.533 356.899 210.771 358.301C208.797 359.872 208.677 360.56 209.977 362.845C210.82 364.325 211.509 366.706 211.509 368.137C211.509 369.567 212.747 371.45 214.262 372.319C216.369 373.529 216.59 374.053 215.203 374.549C214.206 374.907 212.375 376.582 211.135 378.274C208.58 381.758 201.693 382.53 199.416 379.586C198.666 378.616 195.335 377.719 192.016 377.594C184.441 377.306 177.196 381.387 177.196 385.941C177.196 390.22 174.916 390.647 167.343 387.785C163.34 386.273 159.232 385.584 156.953 386.043C151.482 387.144 136.089 380.054 140.517 378.471C141.224 378.217 142.474 373.354 143.294 367.662C144.682 358.026 144.887 357.553 146.259 360.786C147.07 362.695 148.307 364.257 149.009 364.257C150.498 364.257 149.471 358.738 147.002 353.476C146.085 351.522 145.335 349.008 145.335 347.888C145.335 346.766 144.54 345.85 143.567 345.85C141.626 345.85 137.983 340.968 137.983 338.368C137.983 337.391 138.793 337.062 139.987 337.555C141.367 338.123 141.813 337.801 141.419 336.527C141.101 335.508 139.824 334.463 138.581 334.204C137.336 333.945 135.598 332.961 134.717 332.016C132.801 329.961 121.219 327.105 119.192 328.188C118.406 328.609 118.863 327.998 120.208 326.831C122.308 325.009 122.394 324.535 120.82 323.467C119.813 322.783 118.437 322.146 117.763 322.05C117.089 321.954 119.293 321.38 122.661 320.777C126.368 320.113 129.246 320.173 129.952 320.931C130.594 321.62 134.006 322.184 137.533 322.184H143.946L143.866 317.911C143.823 315.56 143.241 312.899 142.573 311.994C141.759 310.894 141.789 310.351 142.662 310.351C143.378 310.351 144.268 310.875 144.637 311.517C145.632 313.245 153.303 314.509 156.903 313.54C158.886 313.006 160.04 311.78 160.04 310.209C160.04 308.657 160.901 307.721 162.326 307.721C165.804 307.721 171.069 302.649 171.069 299.299Z" fill="#16B8C2"/>
<path d="M230.102 397.759C228.249 393.397 228.28 390.938 230.196 390.108C233.139 388.834 233.566 389.268 233.548 393.511C233.52 399.862 231.863 401.905 230.102 397.759Z" fill="#16B8C2"/>
<path d="M239.806 224.673C237.182 224.673 237.175 224.63 239.499 222.743C242.482 220.323 242.491 220.321 242.491 222.701C242.491 223.854 241.375 224.673 239.806 224.673Z" fill="#75D0D1"/>
<path d="M232.866 232.664C235.224 234.019 235.426 233.886 234.819 231.396C234.3 229.264 234.702 228.618 236.551 228.618C238.006 228.618 238.626 229.196 238.117 230.08C237.654 230.883 237.996 232.019 238.878 232.604C241.671 234.457 241.175 237.561 237.947 238.43C235.468 239.098 234.986 239.887 235.454 242.515C235.774 244.307 235.549 246.095 234.954 246.489C234.359 246.884 234.158 247.702 234.507 248.308C234.856 248.914 234.038 249.099 232.688 248.721C231.34 248.342 230.236 247.248 230.236 246.288C230.236 245.329 229.011 243.623 227.512 242.498C226.015 241.372 225.522 240.451 226.418 240.451C227.38 240.451 227.743 239.643 227.304 238.478C226.895 237.394 226.201 235.55 225.762 234.383C225.125 232.687 225.496 232.44 227.6 233.156C229.211 233.704 230.236 233.49 230.236 232.604C230.236 231.567 230.984 231.584 232.866 232.664Z" fill="#75D0D1"/>
<path d="M258.033 240.698C257.642 241.746 257.351 241.434 257.293 239.902C257.24 238.517 257.529 237.741 257.936 238.177C258.343 238.614 258.387 239.749 258.033 240.698Z" fill="#75D0D1"/>
<path d="M252.863 245.449C249.818 243.961 249.213 242.879 250.597 241.396C251.664 240.249 257.311 244.446 256.529 245.804C256.174 246.421 254.524 246.261 252.863 245.449Z" fill="#75D0D1"/>
<path d="M244.329 246.984C243.655 246.984 242.276 246.411 241.265 245.71C240.254 245.009 239.979 244.436 240.653 244.436C241.327 244.436 242.705 245.009 243.716 245.71C244.727 246.411 245.003 246.984 244.329 246.984Z" fill="#75D0D1"/>
<path d="M124.673 211.96C125.187 212.291 127.813 212.103 130.509 211.54C133.204 210.979 135.962 210.47 136.636 210.409C138.701 210.225 133.137 214.226 130.246 215.006C127.132 215.845 125.345 220.322 127.291 222.409C128.224 223.411 129.514 223.373 131.759 222.277C133.494 221.429 137.35 220.734 140.328 220.734H145.744L143.134 225.48C141.675 228.133 138.96 230.81 136.974 231.553C134.703 232.402 133.658 233.542 134.077 234.713C134.577 236.108 133.973 236.34 131.542 235.685C129.133 235.037 128.489 235.275 128.914 236.655C129.254 237.761 131.919 238.752 135.647 239.161C142.963 239.965 145.378 241.808 146.502 247.45C147.51 252.509 149.174 254.919 151.662 254.919C153.455 254.919 156.737 258.477 156.816 260.507C156.838 261.049 155.753 261.493 154.405 261.493C150.643 261.493 151.456 265.201 155.324 265.679C157.998 266.009 158.694 266.773 158.694 269.382C158.694 274.633 160.358 276.533 162.843 274.119C165.132 271.895 169.807 272.583 170.773 275.284C171.403 277.044 167.391 282.53 165.473 282.53C163.764 282.53 160.532 286.462 160.532 288.539C160.532 289.699 161.821 290.438 163.902 290.471L167.272 290.523L163.689 292.605C161.067 294.127 158.152 294.497 152.826 293.979C148.278 293.536 143.832 293.92 140.97 295.003C138.453 295.956 135.697 296.274 134.847 295.71C132.994 294.481 128.396 295.553 127.21 297.489C126.743 298.25 124.356 299.012 121.904 299.18C117.872 299.456 117.602 299.273 119.075 297.253C122.222 292.941 124.384 291.821 128.17 292.542C131.274 293.132 132.657 292.513 135.83 289.11C139.315 285.371 141.117 281.528 138.78 282.817C131.581 286.795 128.234 287.844 127.396 286.39C126.891 285.513 124.767 284.729 122.676 284.649C117.915 284.465 117.909 283.781 122.644 280.89C125.819 278.951 126.343 277.926 126.006 274.316C125.613 270.102 125.683 270.038 130.798 269.992C136.035 269.944 140.707 267.061 137.555 265.821C135.727 265.102 135.511 260.672 137.249 259.521C139.506 258.023 138.505 256.234 135.41 256.234C131.668 256.234 131.183 252.37 134.798 251.356C136.146 250.977 137.249 250.119 137.249 249.448C137.249 248.746 133.527 248.52 128.504 248.916C119.949 249.589 119.806 249.549 121.883 247.087C124.296 244.227 124.963 235.488 122.876 234.103C122.115 233.6 121.592 232.011 121.712 230.576C121.836 229.1 121.265 228.109 120.399 228.295C119.379 228.513 118.867 226.878 118.867 223.405C118.867 219.538 119.3 218.365 120.538 218.875C121.652 219.334 122.465 218.194 122.975 215.461C123.396 213.203 124.16 211.628 124.673 211.96Z" fill="#345764"/>
<path d="M96.096 251.491C93.3572 252.619 93.1328 252.53 93.1328 250.317C93.1328 249.222 94.2222 248.345 95.5837 248.345C98.5051 248.345 98.8349 250.365 96.096 251.491Z" fill="#345764"/>
<path d="M98.363 256.234C97.0604 256.234 97.7037 254.944 100.371 252.209C105.413 247.039 110.306 247.25 111.653 252.696C112.86 257.574 110.088 258.765 105.013 255.549C102.382 253.88 101.092 253.623 100.76 254.694C100.496 255.541 99.4181 256.234 98.363 256.234Z" fill="#345764"/>
<path d="M114.272 302.42C112.328 304.054 112.285 304.008 113.808 301.923C114.734 300.658 115.699 299.622 115.953 299.622C116.961 299.622 116.313 300.701 114.272 302.42Z" fill="#345764"/>
<path d="M349.946 101.885C349.979 98.4129 351.921 96.3618 356.203 95.2797C358.48 94.7051 361.171 94.5289 362.182 94.8892C370.759 97.9435 370.966 98.1105 369.037 100.398C368.021 101.603 367.312 104.344 367.46 106.491C367.683 109.706 368.754 110.955 373.525 113.565C379.034 116.579 379.198 116.825 376.877 118.57C373.311 121.249 373.795 126.16 377.936 129.325C381.168 131.793 381.392 132.507 380.847 138.595C380.375 143.863 380.657 145.357 382.247 146.012C383.343 146.463 384.24 147.566 384.24 148.463C384.24 149.36 385.481 150.736 386.997 151.521C388.513 152.305 389.066 152.987 388.223 153.036C384.68 153.242 386.817 158.4 391.509 160.968C394.16 162.419 396.677 164.213 397.105 164.954C397.815 166.188 383.479 181.943 381.577 182.018C381.122 182.036 379.151 183.495 377.195 185.263C374.525 187.673 371.979 188.55 366.991 188.776C363.335 188.941 359.517 189.551 358.506 190.131C355.182 192.036 344.457 194.726 342.269 194.203C341.089 193.922 340.124 192.807 340.124 191.726C340.124 190.444 339.369 190.019 337.95 190.502C336.755 190.91 333.86 190.139 331.517 188.79C327.829 186.668 327.311 185.777 327.663 182.157C327.886 179.856 327.549 177.263 326.915 176.397C326.282 175.529 325.425 172.9 325.011 170.554C324.366 166.9 324.737 165.964 327.595 164.022C331.268 161.529 333.111 159.925 341.487 151.939C344.595 148.976 348.271 146.551 349.656 146.551C355.385 146.551 353.038 138.414 346.34 135.053C340.889 132.317 339.153 129.943 339.829 126.148C340.118 124.523 339.776 122.809 339.068 122.339C338.36 121.87 338.091 120.617 338.471 119.556C338.85 118.495 338.551 117.626 337.805 117.626C337.058 117.626 336.448 116.128 336.448 114.298C336.448 112.426 335.568 110.608 334.438 110.142C332.587 109.38 332.592 109.186 334.492 107.694C336.004 106.508 337.639 106.432 340.605 107.407C343.95 108.509 345.109 108.32 347.289 106.317C348.74 104.984 349.936 102.99 349.946 101.885Z" fill="#9BBACE"/>
<path d="M292.101 256.676C293.207 255.619 295.689 254.247 297.615 253.627C303.365 251.779 306.236 252.127 308.013 254.891C309.063 256.524 311.076 257.502 313.371 257.497C344.467 257.427 348.295 257.966 348.295 262.423C348.295 263.488 349.25 266.095 350.418 268.215C352.525 272.042 352.514 272.094 348.886 275.315C345.288 278.511 345.27 278.591 347.683 280.6C349.031 281.723 349.961 283.799 349.749 285.216C349.538 286.633 350.503 289.505 351.893 291.601C353.284 293.697 354.423 295.878 354.423 296.447C354.423 297.017 352.217 299.69 349.521 302.388C346.825 305.084 344.619 308.521 344.619 310.024C344.619 313.266 344.781 313.239 339.561 310.925C336.596 309.61 333.697 309.393 329.301 310.157C324.441 311.001 322.876 310.81 321.732 309.239C320.879 308.066 319.337 307.582 317.955 308.053C316.46 308.563 314.817 307.895 313.387 306.2C312.158 304.744 309.919 303.553 308.41 303.553C306.902 303.553 305.37 302.72 305.007 301.704C304.042 299.006 296.791 297.556 295.467 299.796C294.689 301.115 294.41 300.847 294.395 298.768C294.38 296.589 293.389 295.757 289.988 295.073C286.898 294.452 284.995 293.049 283.555 290.334C282.43 288.213 281.095 286.473 280.59 286.468C280.086 286.464 279.671 283.827 279.671 280.609C279.671 277.083 279.012 274.339 278.012 273.707C276.681 272.863 276.621 271.494 277.706 266.773C278.995 261.169 279.32 260.836 284.573 259.745C287.606 259.115 290.993 257.735 292.101 256.676Z" fill="#A5CDC9"/>
<path d="M275.279 321.846C279.113 321.846 280.921 321.232 281.452 319.747C282.027 318.138 283.09 317.871 286.009 318.601C288.102 319.126 291.194 319.688 292.879 319.853C294.903 320.05 295.827 320.851 295.603 322.214C295.417 323.349 295.831 324.653 296.522 325.112C298.517 326.433 297.992 328.053 295.329 328.801C293.55 329.299 292.879 330.595 292.879 333.523C292.879 336.702 292.076 338.002 289.088 339.659C287.004 340.816 285.017 341.46 284.673 341.092C284.33 340.722 282.644 340.994 280.926 341.694C276.351 343.561 263.579 341.686 260.838 338.746C258.308 336.031 251.268 335.462 249.09 337.798C247.441 339.568 243.459 338.258 244.111 336.161C244.603 334.58 252.059 333.411 261.324 333.463C267.33 333.498 268.048 332.688 265.876 328.333C264.873 326.323 265.009 325.79 266.527 325.79C267.583 325.79 268.764 324.903 269.152 323.818C269.632 322.476 271.59 321.846 275.279 321.846Z" fill="#CDD9E7"/>
<path d="M241.834 337.951C241.113 339.204 237.734 336.627 237.734 334.821C237.734 334.181 238.802 334.372 240.105 335.246C241.411 336.119 242.189 337.337 241.834 337.951Z" fill="#CDD9E7"/>
<path d="M330.236 241.085C329.306 238.248 329.441 237.12 330.826 236.135C332.736 234.777 355.419 235.397 359.579 236.921C364.746 238.815 369.995 242.169 369.995 243.577C369.995 244.385 368.906 246.104 367.576 247.396C366.246 248.689 364.867 250.723 364.514 251.918C364.16 253.112 362.269 255.105 360.311 256.346C356.635 258.676 349.163 259.449 349.163 257.499C349.163 256.892 347.795 255.725 346.124 254.909C344.332 254.033 343.348 252.683 343.728 251.622C344.63 249.099 341.269 246.474 335.949 245.546C332.436 244.934 331.176 243.95 330.236 241.085Z" fill="#003479"/>
<path d="M336.982 245.253V246.153H344.59V245.253H336.982ZM336.922 241.557V242.445H344.602V241.557H336.922ZM336.514 237.921V247.029H337.414V238.821H344.146V246.981H345.082V237.921H336.514ZM340.138 235.953C339.97 236.649 339.61 237.621 339.31 238.269L340.186 238.473C340.522 237.873 340.918 236.973 341.254 236.157L340.138 235.953ZM348.61 243.165V243.741H352.642V243.165H348.61ZM348.61 244.437V245.025H352.642V244.437H348.61ZM348.61 245.757V246.417H352.918V245.757H348.61ZM347.374 236.865V237.549H353.158V236.865H347.374ZM350.23 242.181V246.081H351.01V242.181H350.23ZM348.718 236.001V238.281H349.522V236.001H348.718ZM350.998 236.001V238.281H351.802V236.001H350.998ZM348.31 239.073H349.33V240.129H348.31V239.073ZM347.662 238.485V240.729H350.002V238.485H347.662ZM351.154 239.073H352.246V240.129H351.154V239.073ZM350.506 238.485V240.729H352.906V238.485H350.506ZM348.946 241.785H348.862L348.166 242.553V246.933H348.946V242.445H352.918V241.785H348.946ZM350.554 240.765C350.446 241.137 350.218 241.725 350.05 242.097L350.662 242.301C350.866 241.953 351.106 241.449 351.358 240.969L350.554 240.765ZM348.706 240.729C348.358 241.821 347.782 242.877 347.11 243.585C347.266 243.741 347.53 244.113 347.614 244.269C348.382 243.453 349.054 242.181 349.462 240.933L348.706 240.729ZM353.95 237.105V237.765H356.926V239.961H353.95V240.621H357.694V237.105H353.95ZM353.554 237.105V243.069H354.322V237.105H353.554ZM353.962 241.329V242.001H358.342V241.329H353.962ZM353.554 242.721V243.417H357.79V242.721H353.554ZM353.974 238.557V239.157H357.382V238.557H353.974ZM357.55 242.721V242.853C357.442 245.217 357.298 246.081 357.106 246.309C357.022 246.405 356.938 246.429 356.77 246.429C356.614 246.429 356.242 246.417 355.822 246.369C355.918 246.549 355.99 246.825 356.002 247.017C356.422 247.041 356.842 247.041 357.082 247.017C357.346 247.005 357.538 246.933 357.706 246.741C357.97 246.417 358.114 245.529 358.258 243.057C358.27 242.937 358.27 242.721 358.27 242.721H357.55ZM355.39 235.989C355.306 236.385 355.138 236.973 354.982 237.381L355.678 237.537C355.858 237.177 356.086 236.661 356.29 236.145L355.39 235.989ZM353.446 243.969C353.398 244.857 353.266 245.805 352.918 246.357L353.506 246.717C353.926 246.093 354.034 245.061 354.094 244.101L353.446 243.969ZM354.466 244.269C354.586 244.905 354.658 245.721 354.646 246.237L355.174 246.165C355.174 245.649 355.09 244.833 354.958 244.197L354.466 244.269ZM355.426 244.161C355.63 244.689 355.846 245.385 355.906 245.829L356.398 245.697C356.338 245.253 356.122 244.581 355.894 244.053L355.426 244.161ZM356.326 243.969C356.578 244.353 356.842 244.857 356.962 245.193L357.418 244.989C357.298 244.665 357.022 244.161 356.746 243.801L356.326 243.969Z" fill="#003479"/>
<path d="M204.56 271.284C204.56 268.958 205.366 268.095 207.929 267.678C209.784 267.377 211.575 267.051 211.912 266.954C212.249 266.857 213.233 267.259 214.098 267.848C215.796 269.004 214.865 273.311 212.918 273.311C212.269 273.311 211.837 274.642 211.96 276.269C212.372 281.722 211.978 282.824 209.918 281.975C206.968 280.761 204.345 283.572 205.768 286.425C208.063 291.026 203.37 290.874 199.514 286.221C198.424 284.906 196.632 283.829 195.532 283.829C193.29 283.829 193.212 283.62 194.303 280.571C194.728 279.384 197.209 277.496 199.817 276.376C203.42 274.83 204.56 273.606 204.56 271.284Z" fill="#CDD9E7"/>
<path d="M113.252 174.106C110.513 175.234 110.289 175.145 110.289 172.932C110.289 171.837 111.378 170.96 112.74 170.96C115.661 170.96 115.991 172.979 113.252 174.106Z" fill="#003479"/>
<path d="M353.733 221.464C353.331 220.339 353.932 218.909 355.117 218.167C357.913 216.417 357.856 216.408 362.448 219.412C364.655 220.856 368.137 222.037 370.187 222.037C375.025 222.037 378.741 224.213 377.901 226.557C377.537 227.575 378.436 229.69 379.898 231.259C382.453 234 382.469 234.175 380.3 235.766C375.701 239.14 371.61 239.259 366.15 236.181C361.455 233.533 359.133 233.213 344.653 233.213C333.698 233.213 328.418 232.743 328.416 231.771C328.414 230.979 329.265 228.495 330.308 226.252C333.417 219.565 338.2 219.424 343.627 225.859C344.904 227.372 346.88 228.611 348.019 228.611C350.844 228.611 354.606 223.905 353.733 221.464Z" fill="#75D0D1"/>
<path d="M333.929 404.256C332.237 400.275 334.199 395.956 338.061 395.157C343.847 393.962 346.83 394.303 348.995 396.405C352.355 399.667 351.835 403.246 347.867 404.156C346.013 404.582 343.23 405.48 341.682 406.153C337.25 408.081 335.355 407.616 333.929 404.256Z" fill="#003479"/>
<path d="M337.434 396.089C338.506 397.265 338.658 398.553 338.658 400.009C338.658 401.033 338.602 402.129 338.418 402.369C338.362 402.441 338.29 402.473 338.194 402.481C338.058 402.497 337.834 402.497 337.554 402.481C337.65 402.641 337.698 402.857 337.706 403.033C337.97 403.049 338.234 403.041 338.426 403.001C338.618 402.977 338.746 402.897 338.842 402.761C339.138 402.345 339.202 401.169 339.202 400.025C339.202 398.481 339.042 397.089 337.842 395.801L337.434 396.089ZM338.626 398.681C338.354 399.417 337.794 400.249 337.282 400.673C337.402 400.793 337.554 401.009 337.626 401.145C338.17 400.625 338.754 399.713 339.058 398.929L338.626 398.681ZM339.066 395.769C338.69 396.561 337.994 397.441 337.25 398.041C337.386 398.129 337.554 398.289 337.642 398.401C338.402 397.769 339.098 396.921 339.53 396.049L339.066 395.769ZM339.53 396.833V402.945H340.018V396.833H339.53ZM341.81 397.673V401.937H342.274V398.193H344.29V397.673H341.81ZM342.89 396.337V403.105H343.386V396.337H342.89ZM341.682 396.177V396.697H344.65V396.177H341.682ZM344.026 397.673V401.337C344.026 401.401 344.01 401.417 343.946 401.417C343.882 401.425 343.714 401.425 343.506 401.417C343.578 401.545 343.658 401.769 343.682 401.905C343.97 401.905 344.178 401.889 344.322 401.801C344.458 401.713 344.498 401.569 344.498 401.337V397.673H344.026ZM340.25 395.785C340.17 396.169 339.986 396.721 339.85 397.073L340.298 397.177C340.458 396.857 340.642 396.345 340.81 395.897L340.25 395.785ZM339.738 396.833V397.353H340.874V398.545H339.738V399.057H341.37V396.833H339.738ZM339.778 399.841V400.369H340.954V401.809H339.778V402.337H341.458V399.841H339.778Z" fill="#003479"/>
<path d="M359.996 329.761C367.998 331.13 376.098 330.064 378.636 327.309C380.648 325.126 381.664 325.547 384.009 329.532C385.192 331.542 387.956 335.281 390.15 337.84C393.66 341.934 394.141 343.382 394.15 349.91C394.16 356.392 394.535 357.547 397.123 359.05C399.33 360.331 401.026 360.415 403.765 359.38C406.659 358.284 407.582 358.381 408.097 359.834C408.984 362.348 406.391 363.888 405.096 361.614C403.41 358.654 401.312 362.087 400.596 368.978C400.158 373.209 399.539 374.741 398.591 373.952C397.838 373.325 394.635 372.052 391.47 371.123C386.256 369.593 385.22 369.697 380.37 372.247C374.846 375.148 369.254 375.673 359.432 374.213C355.829 373.677 353.75 372.704 353.75 371.554C353.75 370.557 352.974 369.741 352.028 369.741C350.896 369.741 350.53 368.809 350.959 367.029C351.531 364.654 351.095 364.356 347.43 364.623C342.376 364.993 340.279 363.769 340.279 360.447C340.279 359.078 339.177 357.577 337.83 357.113C336.483 356.65 335.381 355.755 335.381 355.125C335.381 354.495 334.516 353.041 333.458 351.894C331.712 349.998 331.8 349.699 334.416 348.618C336.15 347.903 338.682 344.458 340.779 339.96C345.44 329.96 349.27 327.926 359.996 329.761Z" fill="#037FB2"/>
<path d="M77.0764 406.985C76.9576 404.642 76.9159 401.572 76.9845 400.161C77.0801 398.167 77.4355 397.949 78.5788 399.175C80.3741 401.102 88.397 401.263 90.1273 399.407C90.9827 398.489 92.0671 398.874 93.5377 400.618C95.6025 403.067 95.5866 403.234 93.1407 404.64C91.3209 405.684 90.5881 407.392 90.5881 410.583C90.5881 413.045 90.0219 415.435 89.3296 415.894C88.6384 416.353 88.1519 417.423 88.2499 418.273C88.6617 421.852 87.9975 423.105 85.6863 423.105C84.3249 423.105 83.2355 423.982 83.2355 425.077C83.2355 426.162 83.7232 427.049 84.3175 427.049C85.9326 427.049 86.8763 432.177 85.4364 433.131C84.7514 433.586 84.4867 435.916 84.8494 438.31C85.2856 441.2 84.9192 443.187 83.7587 444.221C82.7968 445.077 82.01 447.149 82.01 448.826C82.01 452.661 81.1448 453.191 76.2002 452.384C72.9234 451.848 72.3205 451.244 72.7531 448.924C74.3229 440.511 74.6256 434.803 73.4614 435.575C72.7605 436.041 72.2066 435.212 72.2066 433.7C72.2066 430.729 70.3231 430.028 69.3415 432.637C68.9592 433.656 68.6871 433.441 68.6271 432.073C68.5744 430.859 69.3464 428.991 70.3439 427.921C73.0864 424.978 77.3228 411.805 77.0764 406.985Z" fill="#475B7F"/>
<path d="M249.559 342.882C250.422 342.125 252.512 341.301 254.204 341.051C255.977 340.788 258.193 341.57 259.434 342.898C260.62 344.163 262.676 345.2 264.007 345.2C266.088 345.2 268.972 348.615 268.972 351.08C268.972 351.514 266.555 352.978 263.602 354.332C258.454 356.691 258.23 357.027 258.188 362.507C258.163 365.649 258.931 369.552 259.894 371.181C260.886 372.856 261.098 374.141 260.386 374.141C259.693 374.141 259.127 375.325 259.127 376.772C259.127 379.717 263.47 380.531 264.391 377.758C265.253 375.155 271.759 380.925 272.843 385.254C274.556 392.101 282.785 399.135 289.081 399.135C291.161 399.135 292.03 399.827 291.912 401.387C291.796 402.907 294.177 404.952 299.221 407.666C309.996 413.463 313.278 416.001 313.278 418.534C313.278 420.342 312.912 420.211 311.362 417.845C310.308 416.237 308.647 414.921 307.67 414.921C306.692 414.921 305.894 414.329 305.894 413.606C305.894 410.943 302.331 412.405 299.234 416.338C295.255 421.392 295.21 423.778 299.057 425.652C303.281 427.708 303.752 430.128 300.263 431.828C297.526 433.162 297.14 432.899 295.438 428.543C294.42 425.938 293.587 423.247 293.587 422.559C293.587 420.741 289.909 417.098 289.025 418.042C287.808 419.343 284.972 416.126 284.972 413.445C284.972 411.917 284.102 410.975 282.69 410.975C281.435 410.975 278.99 409.57 277.258 407.853C275.525 406.136 272.068 404.324 269.574 403.824C266.979 403.303 263.328 401.124 261.031 398.724C258.825 396.417 254.508 392.088 251.436 389.102C248.182 385.939 245.51 382.017 245.035 379.701C244.168 375.483 242.41 373.529 236.169 369.851C230.941 366.77 228.807 366.965 225.171 370.852C221.6 374.668 220.975 374.864 220.975 372.168C220.975 370.936 219.809 370.194 217.875 370.194C215.22 370.194 214.881 369.742 215.513 367.049C215.929 365.275 215.639 363.5 214.847 362.976C213.881 362.338 214.137 361.497 215.671 360.282C217.557 358.786 217.661 358.099 216.35 355.804C214.904 353.274 215.079 353.093 218.968 353.093C221.259 353.093 223.84 352.185 224.701 351.076C226.09 349.287 226.594 349.387 229.154 351.957C230.742 353.552 232.182 354.608 232.354 354.304C232.526 353.999 233.287 352.567 234.044 351.12C234.894 349.496 236.701 348.489 238.761 348.489C240.718 348.489 243.014 347.286 244.308 345.585C245.521 343.987 246.847 343.036 247.253 343.47C247.659 343.904 248.697 343.64 249.559 342.882Z" fill="#849EA5"/>
<path d="M227.282 415.067C226.486 413.775 227.11 412.344 229.411 410.176C231.202 408.491 233.014 407.093 233.44 407.07C234.893 406.991 236.54 410.316 236.351 412.948C236.249 414.395 236.07 418.39 235.954 421.828C235.784 426.884 235.321 428.076 233.528 428.076C232.31 428.076 230.648 428.787 229.836 429.655C228.165 431.441 228.04 430.847 228.269 422.156C228.344 419.262 227.901 416.072 227.282 415.067Z" fill="#849EA5"/>
<path d="M292.128 442.547C291.536 442.547 292.303 440.736 293.834 438.524C295.364 436.311 296.822 435.163 297.073 435.969C297.577 437.582 293.844 442.547 292.128 442.547Z" fill="#849EA5"/>
<path d="M272.689 450.149C267.965 447.777 264.088 445.196 264.074 444.415C264.052 443.161 266.698 443.085 275.126 444.095C276.141 444.217 279.452 443.844 282.482 443.266C287.417 442.324 287.824 442.431 286.383 444.287C285.497 445.428 284.877 448.018 285.002 450.045C285.129 452.071 285.173 454.469 285.102 455.373C284.951 457.288 281.28 457.641 281.28 455.74C281.28 455.037 277.414 452.522 272.689 450.149Z" fill="#849EA5"/>
<path d="M83.5026 258.873C85.4878 260.201 90.9963 259.087 90.9963 257.357C90.9963 256.631 92.4211 257.049 94.1633 258.285C96.0703 259.637 98.4705 260.221 100.196 259.753C104.071 258.7 106.598 262.8 106.245 269.568C105.869 276.787 104.321 278.286 95.2218 280.246C90.884 281.179 87.3337 282.443 87.3337 283.055C87.3337 283.667 85.9505 284.736 84.2595 285.433C81.8044 286.443 80.6983 286.17 78.7656 284.078C77.4349 282.637 76.8952 281.458 77.5667 281.458C78.2382 281.458 78.7876 280.632 78.7876 279.622C78.7876 278.564 80.6324 277.411 83.1388 276.902C87.4265 276.031 88.5742 272.672 84.4549 273.049C83.3525 273.149 82.4502 272.704 82.4502 272.058C82.4502 271.411 83.2743 270.882 84.2815 270.882C87.9783 270.882 86.1189 267.085 82.2182 266.669C78.4311 266.268 78.3859 266.188 80.5847 263.822C82.3232 261.952 82.4881 261.149 81.2965 260.352C80.4443 259.782 80.2453 258.983 80.8521 258.577C81.4588 258.171 82.6529 258.303 83.5026 258.873Z" fill="#92B0EA"/>
<path d="M280.724 346.295C281.898 345.732 285.055 344.576 287.737 343.725C290.419 342.873 292.819 342.1 293.067 342.007C293.317 341.914 292.839 342.715 292.004 343.787C291.169 344.86 289.73 345.737 288.808 345.737C287.883 345.737 287.127 346.907 287.127 348.337C287.127 349.782 286.314 350.937 285.299 350.937C284.293 350.937 283.47 351.425 283.47 352.02C283.47 353.547 275.862 353.45 274.021 351.901C273.183 351.196 272.497 349.51 272.497 348.154C272.497 346.173 273.097 345.848 275.543 346.503C277.218 346.951 279.549 346.858 280.724 346.295Z" fill="#475B7F"/>
<path d="M289.566 351.032C289.566 349.656 290.525 348.261 291.699 347.933C295.656 346.831 296.396 347.028 300.539 350.287C303.439 352.569 306.235 353.537 309.919 353.537C312.806 353.537 315.169 354.074 315.169 354.731C315.169 355.387 315.536 356.946 315.986 358.194C316.5 359.624 316.328 360.152 315.521 359.619C314.815 359.155 308.413 358.446 301.293 358.043L289.566 358.505V360.85C289.566 364.501 292.799 371.852 297.09 375.556L299.919 378L296.266 377.26C291.576 376.31 285.409 371.57 287.269 370.344C288.187 369.74 287.787 368.541 286.052 366.691C284.632 365.177 283.47 363.253 283.47 362.415C283.47 361.578 282.558 359.818 281.443 358.505C279.511 356.227 279.595 356.156 283.272 356.941C286.335 357.593 287.127 357.328 287.127 355.65C287.127 354.488 287.676 353.537 288.347 353.537C289.017 353.537 289.566 352.41 289.566 351.032Z" fill="#475B7F"/>
<path d="M276.155 358.043C276.19 356.162 271.313 357.002 271.278 357.465C271.296 357.259 272.65 362.415 274.021 362.415C275.401 362.415 276.119 359.931 276.155 358.043Z" fill="#475B7F"/>
<path d="M356.246 404.464C358.099 404.412 360.717 403.859 362.065 403.233C363.412 402.607 364.59 402.054 364.68 402.002C364.772 401.952 366.633 402.721 368.817 403.713C371.197 404.795 372.235 405.886 371.407 406.438C370.649 406.945 369.498 407.006 368.853 406.575C368.206 406.143 366.691 406.363 365.484 407.062C364.277 407.762 362.287 408.672 361.061 409.085C359.482 409.618 359.06 410.61 359.612 412.49C360.179 414.418 359.836 415.144 358.358 415.144C357.238 415.144 356.034 413.953 355.682 412.497C354.942 409.441 354.751 409.381 351.571 411.22C348.578 412.951 348.572 415.997 351.553 421.279C353.618 424.937 353.698 425.84 352.222 428.913C350.579 432.334 350.671 432.473 357.225 436.47C364.384 440.834 365.788 442.957 360.84 441.935C359.155 441.587 357.777 440.873 357.777 440.346C357.777 438.677 351.692 436.318 347.386 436.318C342.627 436.318 335.568 433.664 337.87 432.741C340.753 431.585 339.404 428.708 335.593 427.885C332.153 427.143 331.865 426.709 332.621 423.419C333.08 421.415 333.969 419.577 334.592 419.335C335.216 419.091 335.744 417.9 335.766 416.688C335.786 415.474 336.476 413.589 337.297 412.497C339.027 410.195 346.326 407.203 350.208 407.203C351.675 407.203 352.877 406.608 352.877 405.88C352.877 405.152 354.392 404.514 356.246 404.464Z" fill="#75D0D1"/>
<path d="M378.296 407.071C374.525 406.946 374.476 406.884 377.378 405.88C381.701 404.384 382.278 404.384 382.278 405.88C382.278 406.608 380.486 407.144 378.296 407.071Z" fill="#75D0D1"/>
<path d="M342.996 446.164C340.605 443.827 340.584 443.595 342.617 441.988C345.443 439.756 345.991 439.814 351.701 442.961C356.43 445.568 358.391 447.584 354.715 446.06C352.578 445.174 352.234 448.428 354.073 452.139C355.018 454.05 354.763 454.696 352.848 455.237C351.219 455.697 350.427 455.261 350.427 453.905C350.427 452.541 349.634 452.114 347.977 452.582C346.215 453.08 345.527 452.622 345.527 450.956C345.527 449.681 344.387 447.524 342.996 446.164Z" fill="#75D0D1"/>
<path d="M377.889 475.999C375.924 475.987 373.488 475.371 372.478 474.627C371.161 473.657 372.029 473.526 375.54 474.161C381.618 475.26 382.595 476.026 377.889 475.999Z" fill="#75D0D1"/>
<path d="M292.582 3.48732L296.264 1.79337C298.289 0.862198 301.021 0.396629 302.335 0.758313C304.702 1.41066 304.702 1.42644 302.335 2.41943C301.021 2.97051 298.289 3.43608 296.264 3.45449L292.582 3.48732Z" fill="#97A3B9"/>
<path d="M314.368 5.25368C314.874 4.94986 315.297 3.41895 315.307 1.85253C315.32 -0.208409 315.613 -0.512253 316.362 0.7543C317.099 1.99981 318.959 2.27211 322.788 1.69736C325.751 1.2515 330.661 1.4343 333.699 2.10243C336.737 2.77056 337.979 3.38216 336.461 3.46107C334.942 3.5413 333.699 4.13967 333.699 4.79202C333.699 6.68198 318.834 8.12875 317.802 6.33875C317.324 5.51016 316.149 5.05115 315.19 5.31814C314.232 5.58644 313.862 5.55618 314.368 5.25368Z" fill="#97A3B9"/>
<path d="M283.683 13.9078C282.613 13.3988 277.239 5.37995 277.239 4.29095C277.239 3.12304 283.905 5.18661 284.785 6.62677C285.222 7.34356 286.775 7.59347 288.235 7.18444C289.912 6.7149 291.138 7.13051 291.56 8.31157C291.929 9.34007 293.414 10.191 294.861 10.2015C296.308 10.2134 298.32 10.796 299.332 11.497C300.943 12.6123 300.928 12.7741 299.217 12.7925C296.781 12.8175 290.741 18.2506 290.741 20.4168C290.741 21.298 289.961 22.0187 289.009 22.0187C288.056 22.0187 285.882 23.7943 284.178 25.9644C280.8 30.2665 279.37 31.028 280.477 27.9372C281.049 26.3405 279.975 25.9644 274.843 25.9644C271.356 25.9644 268.812 25.4291 269.189 24.7742C269.567 24.1205 272.169 23.914 274.972 24.3164C278.643 24.8451 279.825 24.6255 279.196 23.5338C278.622 22.5408 279.404 22.0187 281.463 22.0187C283.445 22.0187 284.604 21.2862 284.604 20.0341C284.604 18.4203 283.287 18.1717 277.546 18.6992C272.58 19.1555 271.398 19.003 273.557 18.1849C275.245 17.5444 278.421 16.9617 280.615 16.8894C284.214 16.771 286.018 15.0192 283.683 13.9078Z" fill="#97A3B9"/>
<path d="M248.016 7.53162C246.228 7.51321 246.195 7.33436 247.782 6.23616C250.185 4.57109 251.81 4.57109 250.85 6.23616C250.433 6.95952 249.158 7.54214 248.016 7.53162Z" fill="#97A3B9"/>
<path d="M255.34 12.8122C253.457 12.8122 252.922 10.0016 253.838 4.92094C253.903 4.55926 254.362 4.86574 254.858 5.60094C255.354 6.33746 258.107 7.58687 260.976 8.37731C265.054 9.50182 266.193 9.45582 266.193 8.16691C266.193 4.82627 269.837 5.1761 274.258 8.94156C276.758 11.0709 278.497 12.8122 278.122 12.8122C277.747 12.8122 276.567 13.1713 275.499 13.6106C274.219 14.1366 273.557 13.6803 273.557 12.2704C273.557 10.6053 272.808 10.3225 270.182 10.9906C268.325 11.4641 265.935 12.6583 264.868 13.646C262.593 15.7556 259.291 15.9951 258.215 14.1274C257.797 13.4041 256.504 12.8122 255.34 12.8122Z" fill="#97A3B9"/>
<path d="M315.788 21.4703C312.436 22.145 311.606 21.8912 311.606 20.1919C311.606 18.6466 312.77 18.0731 315.902 18.0731C318.265 18.0731 320.198 18.6649 320.198 19.3883C320.198 20.1117 321.164 20.7127 322.346 20.7233C324.178 20.7404 324.222 20.9284 322.653 21.9963C321.469 22.8013 320.662 22.7816 320.39 21.9398C320.149 21.1862 318.195 20.9876 315.788 21.4703Z" fill="#97A3B9"/>
<path d="M336.034 89.0947C337.396 89.0947 339.224 88.2293 340.095 87.1719C342.153 84.6717 343.518 84.6506 343.518 87.1219C343.518 88.2069 342.966 89.0947 342.291 89.0947C340.32 89.0947 340.878 91.7317 343.037 92.6195C344.357 93.1613 346.049 92.0106 348.134 89.1552C350.783 85.5279 351.425 85.1991 352.358 86.9865C353.572 89.3104 357.101 89.7839 358.922 87.8676C359.645 87.1074 360.945 87.3191 362.345 88.4279C364.386 90.043 364.034 90.3007 358.663 91.1306C351.765 92.1946 348.428 94.8145 348.428 99.1626C348.428 100.859 347.738 102.306 346.894 102.378C333.866 103.5 329.147 103.12 325.349 100.644C321.404 98.0711 318.105 98.0105 312.326 100.406C310.683 101.085 310.243 100.916 310.864 99.84C311.352 98.993 312.624 98.3012 313.692 98.3012C314.758 98.3012 316.322 97.2885 317.166 96.0522C318.46 94.1569 319.206 94.0478 321.904 95.3657C324.632 96.698 325.107 96.6164 325.107 94.8212C325.107 93.2126 325.924 92.8865 328.54 93.4468C332.466 94.2885 335.645 92.7194 334.397 90.5572C333.886 89.6681 334.526 89.0947 336.034 89.0947Z" fill="#97A3B9"/>
<path d="M368.734 90.3166C367.094 93.1587 365.886 91.6239 367.261 88.4476C368.628 85.2872 371.748 83.8522 371.748 86.3827C371.748 87.5427 372.535 87.6927 379.404 87.8374C381.619 87.8847 381.797 88.1425 380.324 89.167C379.32 89.8654 376.485 90.0943 374.023 89.6734C371.392 89.2249 369.21 89.4893 368.734 90.3166Z" fill="#97A3B9"/>
<path d="M296.805 102.247C298.116 102.247 299.524 101.663 299.935 100.95C301.063 98.9956 308.081 100.244 309.322 102.62C310.838 105.523 309.401 106.1 301.392 105.798C296.771 105.623 294.426 104.981 294.425 103.891C294.424 102.987 295.494 102.247 296.805 102.247Z" fill="#97A3B9"/>
<path d="M321.732 103.732C320.214 102.864 318.97 101.879 318.97 101.543C318.97 100.15 321.241 101.083 322.81 103.12C324.337 105.104 324.236 105.161 321.732 103.732Z" fill="#97A3B9"/>
<path d="M285.249 115.145C284.872 115.55 283.882 115.146 283.048 114.247C281.846 112.947 281.987 112.798 283.736 113.51C284.946 114.005 285.627 114.74 285.249 115.145Z" fill="#97A3B9"/>
<path d="M277.853 121.2C279.623 121.675 280.921 121.458 280.921 120.685C280.921 119.948 281.804 119.345 282.883 119.345C285.784 119.345 278.782 127.734 274.325 129.599C271.464 130.798 270.907 131.693 271.38 134.339C271.793 136.662 270.952 138.787 268.463 141.707C264.561 146.284 264.058 148.279 266.806 148.279C271.057 148.279 268.222 150.793 263.554 151.164C255.562 151.798 253.552 155.676 254.627 168.392C255.352 176.958 255.857 178.594 257.997 179.321C260.359 180.125 260.381 180.283 258.367 181.861C256.709 183.16 256.403 184.596 257.026 188.157C257.7 192.001 257.406 193.016 255.263 194.245C253.541 195.233 252.691 197.007 252.691 199.619C252.691 203.926 252.381 204.137 248.928 202.157C247.567 201.376 246.554 199.412 246.554 197.554C246.554 195.55 245.852 194.312 244.713 194.312C243.701 194.312 242.872 195.2 242.872 196.285C242.872 197.37 242.381 198.258 241.781 198.258C241.181 198.258 240.767 199.293 240.86 200.559C240.975 202.105 240.233 202.785 238.605 202.628C237.229 202.497 234.571 204.28 232.468 206.747C230.426 209.141 227.551 211.761 226.077 212.57C222.747 214.397 215.87 214.5 215.87 212.725C215.87 212.002 214.81 211.41 213.515 211.41C210.452 211.41 207.278 210.083 207.278 208.803C207.278 208.248 208.935 207.438 210.96 207.004C214.078 206.336 214.642 205.604 214.642 202.236C214.642 199.577 214.032 198.258 212.801 198.258C210.593 198.258 210.291 194.332 212.494 194.269C214.135 194.221 219.552 189.803 219.552 188.512C219.552 186.972 213.903 187.779 211.369 189.681C208.921 191.518 208.747 191.409 208.243 187.728C207.736 184.026 207.915 183.844 211.786 184.137C214.03 184.308 215.866 184.892 215.867 185.434C215.871 187.124 218.188 186.519 220.766 184.156C222.123 182.91 223.234 180.839 223.234 179.553C223.234 176.987 221.385 176.415 220.129 178.593C219.692 179.35 218.416 179.873 217.295 179.756C216.174 179.638 214.98 179.687 214.642 179.863C212.848 180.802 207.543 180.448 208.131 179.429C208.51 178.773 208.229 177.844 207.507 177.365C206.786 176.888 208.338 176.497 210.958 176.497C216.199 176.497 218.545 175.04 216.01 173.362C214.869 172.606 214.788 172.012 215.738 171.382C216.486 170.888 217.097 171.11 217.097 171.876C217.097 172.641 217.925 173.268 218.938 173.268C219.951 173.268 220.779 172.381 220.779 171.296C220.779 170.211 221.608 169.323 222.62 169.323C223.633 169.323 224.461 168.77 224.461 168.094C224.461 167.42 225.842 167.134 227.53 167.463C229.854 167.914 230.601 167.495 230.606 165.732C230.615 163.072 237.192 158.539 238.763 160.11C239.336 160.682 241.619 160.846 243.837 160.477C247.633 159.843 251.464 155.079 251.464 150.99C251.464 148.769 255.538 144.334 257.579 144.334C260.279 144.334 263.09 139.168 261.384 137.339C259.204 135.004 259.873 133.573 262.696 134.533C264.763 135.235 265.178 134.987 264.604 133.387C264.074 131.906 264.759 131.229 267.086 130.933C268.854 130.708 270.554 129.694 270.865 128.68C271.268 127.366 270.701 127.041 268.886 127.55C266.65 128.176 266.517 127.961 267.788 125.777C268.586 124.41 270.486 123.29 272.012 123.29C273.536 123.29 274.784 122.634 274.784 121.833C274.784 120.935 275.963 120.691 277.853 121.2Z" fill="#97A3B9"/>
<path d="M244.1 152.163C242.683 152.146 242.796 151.706 244.587 150.252C245.868 149.213 247.446 148.715 248.094 149.143C249.512 150.084 246.721 152.193 244.1 152.163Z" fill="#97A3B9"/>
<path d="M303.949 109.391C309.734 110.096 313.22 108.722 313.22 105.738C313.22 103.321 313.337 103.332 319.566 106.358C322.424 107.747 326.5 109.573 328.624 110.417C331.782 111.673 332.628 112.867 333.27 116.981C333.703 119.747 334.833 122.331 335.782 122.725C337.174 123.303 337.235 124.084 336.094 126.789C334.891 129.642 335.027 130.413 337.013 131.995C339.119 133.673 338.852 133.781 334.244 133.121C330.479 132.583 328.628 132.951 327.171 134.525C326.085 135.699 324.352 136.659 323.319 136.659C322.04 136.659 321.644 137.495 322.077 139.285C322.49 140.992 322.114 141.911 321.003 141.911C318.991 141.911 318.744 144.73 320.583 146.716C322.275 148.545 315.408 154.896 310.619 155.931C308.708 156.344 307.144 157.089 307.144 157.588C307.144 158.085 305.23 159.48 302.891 160.685C300.552 161.89 298.639 162.295 298.639 161.584C298.639 160.874 298.032 160.292 297.292 160.292C296.463 160.292 296.238 161.553 296.708 163.575C297.271 165.997 296.986 166.857 295.624 166.857C294.464 166.857 293.713 168.198 293.601 170.468C293.504 172.453 293.268 177.418 293.079 181.5L292.732 188.919L296.741 189.732C298.945 190.18 302.288 191.973 304.169 193.72L307.587 196.894L304.32 198.503C302.482 199.407 301.189 201.008 301.365 202.163C301.537 203.291 300.856 204.262 299.854 204.318C298.851 204.374 296.492 205.127 294.611 205.991C292.73 206.853 290.712 207.56 290.126 207.56C287.785 207.56 287.469 210.693 289.638 212.406C291.023 213.5 291.461 214.601 290.735 215.161C290.07 215.674 289.415 218.887 289.28 222.299C288.951 230.654 287.221 233.819 282.986 233.819C277.595 233.819 271.584 237.596 272.296 240.537C272.789 242.574 272.22 243.009 269.059 243C264.766 242.988 261.9 238.569 263.065 233.755C263.457 232.136 262.776 229.917 261.353 228.176C256.693 222.474 254.678 217.869 255.429 214.637C256.032 212.038 255.55 211.177 252.798 209.93C249.566 208.466 249.54 208.383 252.162 207.891C254.3 207.489 254.896 206.499 254.896 203.352C254.896 200.698 255.979 198.243 258.073 196.146C260.554 193.661 261.096 192.148 260.554 189.217C260.1 186.769 260.475 184.917 261.63 183.88C264.013 181.744 263.865 179.084 261.275 177.52C259.849 176.659 258.714 173.385 257.826 167.57C256.171 156.733 257.218 154.819 265.363 153.806C269.866 153.246 271.376 152.484 271.709 150.603C271.95 149.245 271.424 147.651 270.54 147.06C269.278 146.218 269.492 145.339 271.538 142.965C272.971 141.301 274.323 138.169 274.544 136.002C274.842 133.082 275.652 131.954 277.679 131.643C279.182 131.413 280.413 130.419 280.413 129.436C280.413 128.451 282.088 126.358 284.136 124.783C286.527 122.942 287.602 121.2 287.143 119.908C286.018 116.737 290.024 113.025 294.574 113.025C297.521 113.025 298.639 112.437 298.639 110.885C298.639 109.135 299.606 108.863 303.949 109.391Z" fill="#003479"/>
<path d="M305.049 222.804C304.675 222.398 305.059 221.165 305.905 220.065C308.09 217.221 308.68 217.588 307.088 220.803C306.342 222.309 305.425 223.209 305.049 222.804Z" fill="#003479"/>
<path d="M278.33 151.956V154.176H279.194V151.956H278.33ZM275.954 153.684V155.904H276.77V154.464H280.826V155.904H281.666V153.684H275.954ZM276.866 155.676V161.436C276.866 162.528 277.178 162.816 278.318 162.816C278.57 162.816 280.166 162.816 280.43 162.816C281.462 162.816 281.714 162.324 281.834 160.596C281.594 160.536 281.234 160.392 281.03 160.248C280.982 161.712 280.886 161.988 280.37 161.988C280.022 161.988 278.666 161.988 278.39 161.988C277.826 161.988 277.718 161.904 277.718 161.436V155.676H276.866ZM280.658 156.66C279.866 157.32 278.45 158.088 277.19 158.64C277.298 158.808 277.442 159.096 277.502 159.276C278.846 158.736 280.346 158.028 281.378 157.284L280.658 156.66ZM271.766 154.236V154.956H275.534V154.236H271.766ZM271.766 156.048V156.768H275.534V156.048H271.766ZM271.322 157.872V158.604H275.45V157.872H271.322ZM273.266 152.832V158.268H274.01V152.832H273.266ZM273.842 159.204C274.13 159.696 274.43 160.356 274.526 160.788L274.982 160.596C274.862 160.176 274.574 159.528 274.262 159.048L273.842 159.204ZM272.978 159.396C273.206 160.02 273.41 160.824 273.458 161.34L273.938 161.232C273.89 160.716 273.686 159.912 273.434 159.312L272.978 159.396ZM272.09 159.528C272.21 160.236 272.282 161.136 272.258 161.736L272.762 161.664C272.774 161.076 272.69 160.164 272.558 159.468L272.09 159.528ZM271.238 159.396C271.19 160.416 271.058 161.484 270.614 162.072L271.13 162.372C271.61 161.724 271.73 160.584 271.802 159.504L271.238 159.396ZM271.322 152.412V158.376H272.102V153.168H275.762V152.412H271.322ZM275.09 157.872V158.016C274.97 160.86 274.826 161.88 274.598 162.132C274.526 162.24 274.418 162.264 274.262 162.264C274.094 162.264 273.722 162.252 273.29 162.216C273.41 162.42 273.482 162.732 273.494 162.948C273.938 162.972 274.37 162.984 274.61 162.96C274.898 162.936 275.078 162.852 275.27 162.636C275.57 162.276 275.702 161.208 275.858 158.232C275.87 158.124 275.87 157.872 275.87 157.872H275.09ZM284.63 156.492V152.952H283.754V156.492C283.754 158.256 283.67 160.692 282.662 162.408C282.866 162.504 283.25 162.756 283.394 162.9C284.462 161.088 284.63 158.364 284.63 156.492ZM293.594 152.952H284.198V153.756H293.594V152.952ZM289.082 151.932H288.158V153.468H289.082V151.932ZM293.294 154.992H284.306V155.748H292.43V157.26H284.306V158.016H293.294V154.992ZM290.282 161.736V158.292H289.418V161.736C289.418 162.648 289.682 162.9 290.738 162.9C290.954 162.9 292.322 162.9 292.55 162.9C293.39 162.9 293.642 162.54 293.738 161.184C293.498 161.136 293.15 161.004 292.97 160.86C292.934 161.952 292.85 162.144 292.466 162.144C292.178 162.144 291.05 162.144 290.834 162.144C290.366 162.144 290.282 162.072 290.282 161.736ZM293.33 159.372L292.646 158.76C292.01 159.168 290.822 159.612 289.79 159.912C289.898 160.092 290.018 160.368 290.066 160.536C291.17 160.26 292.442 159.84 293.33 159.372ZM284.414 162.084L284.522 162.9C285.722 162.72 287.402 162.468 288.998 162.204L288.962 161.46C287.27 161.712 285.542 161.952 284.414 162.084ZM286.454 158.28H285.602V162.336H286.454V158.28ZM288.842 159.408H285.998V160.164H288.842V159.408ZM290.342 153.6H289.49V157.62H290.342V153.6ZM287.402 153.6H286.562V157.62H287.402V153.6ZM272.414 173.748V174.516H280.61V173.748H272.414ZM272.882 172.044V172.788H281.666V172.044H272.882ZM280.346 173.748V173.88C280.226 176.076 280.094 176.892 279.878 177.108C279.806 177.216 279.686 177.228 279.482 177.228C279.278 177.228 278.762 177.228 278.186 177.168C278.318 177.384 278.402 177.708 278.426 177.948C279.014 177.972 279.578 177.984 279.878 177.948C280.202 177.924 280.43 177.852 280.622 177.636C280.922 177.3 281.066 176.424 281.198 174.12C281.21 174 281.222 173.748 281.222 173.748H280.346ZM275.834 166.884C275.726 167.28 275.51 167.868 275.318 168.288L276.098 168.444C276.326 168.084 276.626 167.544 276.866 167.028L275.834 166.884ZM272.906 168.06V168.78H279.038V170.412H272.906V171.144H279.914V168.06H272.906ZM272.414 168.06V174.18H273.314V168.06H272.414ZM275.666 175.248C275.942 175.884 276.206 176.736 276.278 177.264L276.998 177.048C276.938 176.532 276.662 175.704 276.35 175.08L275.666 175.248ZM277.574 175.092C277.934 175.584 278.306 176.244 278.462 176.688L279.122 176.4C278.966 175.98 278.57 175.332 278.198 174.852L277.574 175.092ZM273.71 175.272C273.902 175.98 274.01 176.892 273.986 177.48L274.766 177.36C274.766 176.772 274.646 175.86 274.442 175.164L273.71 175.272ZM272.078 174.936C271.874 175.872 271.466 176.82 270.77 177.372L271.502 177.84C272.246 177.228 272.618 176.172 272.834 175.188L272.078 174.936ZM282.866 168.18V168.96H287.918V168.18H282.866ZM283.886 172.116H286.922V173.088H283.886V172.116ZM283.886 170.544H286.922V171.492H283.886V170.544ZM283.166 169.884V173.748H287.654V169.884H283.166ZM285.782 173.892L285.302 174.312C285.722 174.732 286.766 175.932 287.114 176.448L287.654 175.752C287.366 175.44 286.13 174.18 285.782 173.892ZM288.674 168.036V168.696H292.106V170.892H288.674V171.552H292.922V168.036H288.674ZM288.254 173.652V174.348H293.006V173.652H288.254ZM288.71 169.488V170.088H292.43V169.488H288.71ZM292.79 173.652V173.772C292.658 176.1 292.502 176.964 292.286 177.204C292.19 177.3 292.094 177.324 291.902 177.324C291.722 177.324 291.23 177.312 290.702 177.264C290.81 177.444 290.882 177.732 290.894 177.936C291.446 177.972 291.962 177.972 292.238 177.96C292.538 177.936 292.742 177.864 292.922 177.66C293.234 177.324 293.378 176.424 293.534 174C293.546 173.88 293.558 173.652 293.558 173.652H292.79ZM290.174 166.92C290.102 167.316 289.922 167.904 289.766 168.312L290.51 168.48C290.69 168.12 290.918 167.604 291.134 167.088L290.174 166.92ZM288.254 168.036V174H289.07V168.036H288.254ZM288.134 174.888C288.026 175.776 287.786 176.712 287.282 177.264L287.906 177.648C288.458 177.036 288.686 176.016 288.806 175.068L288.134 174.888ZM289.19 175.212C289.334 175.848 289.442 176.664 289.43 177.192L290.018 177.096C290.018 176.58 289.91 175.764 289.754 175.14L289.19 175.212ZM290.27 175.104C290.498 175.62 290.738 176.316 290.81 176.772L291.35 176.616C291.266 176.172 291.026 175.5 290.774 174.972L290.27 175.104ZM291.254 174.876C291.542 175.272 291.854 175.8 291.986 176.172L292.49 175.932C292.346 175.596 292.034 175.068 291.71 174.684L291.254 174.876ZM288.65 172.26V172.932H293.81V172.26H288.65ZM285.038 173.352C284.558 174.492 283.562 175.836 282.71 176.52C282.89 176.688 283.118 176.988 283.238 177.204C284.114 176.376 285.122 174.936 285.65 173.712L285.038 173.352ZM284.99 166.944V170.328H285.074V173.472H285.734V170.328H285.818V166.944H284.99ZM284.99 173.448V177.96H285.818V173.448H284.99Z" fill="#003479"/>
<path d="M443.479 479.23C441.716 478.5 441.821 478.167 444.278 476.697C445.834 475.767 448.721 475.004 450.692 475.003L454.278 475L451.456 477.535C448.462 480.226 446.758 480.588 443.479 479.23Z" fill="#037FB2"/>
<path d="M207.548 308.805C206.849 308.286 206.278 307.206 206.278 306.405C206.278 304.181 207.198 304.672 208.052 307.35C208.49 308.726 208.274 309.347 207.548 308.805Z" fill="#CDD9E7"/>
<path d="M346.686 206.148C343.627 206.148 345.916 203.631 350.055 202.442C359.421 199.751 377.221 201.088 374.758 204.297C373.636 205.758 373.86 211.533 375.273 217.571C375.384 218.045 373.683 218.645 371.493 218.904C369.304 219.163 367.512 218.88 367.512 218.274C367.512 216.621 358.242 213.639 355.507 214.412C353.63 214.943 353.254 214.544 353.739 212.537C354.267 210.355 353.89 210.112 351.133 210.861C348.417 211.598 347.911 211.297 347.911 208.941C347.911 207.405 347.36 206.148 346.686 206.148Z" fill="#CDD9E7"/>
<path d="M464.278 518.414L464.542 519C464.754 518.907 465.131 518.659 464.937 518.414C464.744 518.17 465.413 517.396 465.772 517.039L465.421 516.708L464.278 518.414Z" fill="#003479"/>
<path d="M467.553 516.708C467.816 517.197 467.443 517.795 467.223 518.032C467.597 518.355 468.594 518.664 469.597 517.32C469.544 516.179 470.029 515.775 470.278 515.715V512.1C470.073 511.794 469.495 511.148 468.827 511.005C467.992 510.827 466.959 515.512 467.728 515.359C468.344 515.237 468.717 515.648 468.827 515.868C468.292 515.945 467.289 516.22 467.553 516.708Z" fill="#003479"/>
<path d="M326.813 252.305C328.05 252.305 329.425 251.672 329.87 250.9C330.315 250.127 331.496 249.831 332.493 250.242C333.491 250.653 335.642 250.989 337.272 250.989C339.418 250.989 340.235 251.714 340.235 253.62C340.235 255.999 339.418 256.25 331.694 256.25C324.607 256.25 323.275 255.915 323.86 254.277C324.248 253.192 325.577 252.305 326.813 252.305Z" fill="#DBDBDB"/>
<path d="M238.825 265.413C236.565 265.305 232.15 259.943 231.842 256.934C231.551 254.087 231.992 253.62 234.972 253.62C237.553 253.62 238.261 254.125 237.737 255.593C237.335 256.716 237.748 257.652 238.694 257.765C239.608 257.876 240.908 258.103 241.582 258.272C242.256 258.44 243.635 258.654 244.646 258.749C246.257 258.899 246.26 259.073 244.682 260.144C242.418 261.681 243.019 262.241 248.016 263.261C250.304 263.73 251.999 263.53 251.999 262.793C251.999 262.088 253.378 261.511 255.063 261.511C256.748 261.511 258.127 260.982 258.127 260.336C258.127 258.073 262.178 257.522 264.221 259.507C265.357 260.609 266.678 261.511 267.16 261.511C267.64 261.511 269.181 262.659 270.584 264.061C272.496 265.973 272.929 267.496 272.312 270.135C271.748 272.543 272.121 274.408 273.49 276.03C274.591 277.336 275.795 280.832 276.166 283.799C276.536 286.766 277.317 289.51 277.9 289.897C279.79 291.15 279.023 293.075 276.634 293.075C275.355 293.075 271.909 294.548 268.975 296.348C266.041 298.147 262.814 299.646 261.803 299.678C260.792 299.709 258.991 300.528 257.8 301.499C255.743 303.172 255.772 303.543 258.366 308.755C259.868 311.776 262.882 315.432 265.063 316.879C268.84 319.383 268.931 319.632 266.982 322.074C265.856 323.485 264.166 324.64 263.226 324.64C262.064 324.64 261.705 325.692 262.103 327.928C262.652 331.009 262.368 331.216 257.589 331.216C254.785 331.216 251.917 331.83 251.219 332.579C250.341 333.521 248.851 333.496 246.404 332.498C244.225 331.609 242.709 331.535 242.468 332.307C242.236 333.057 239.301 332.785 235.196 331.635C228.565 329.777 226.941 329.806 222.281 331.865C219.319 333.173 219.449 329.272 222.587 322.667C223.935 319.829 225.038 317.062 225.038 316.516C225.038 315.97 222.234 315.124 218.807 314.636C214.652 314.046 212.375 313.044 211.977 311.633C211.648 310.467 210.902 308.547 210.32 307.365C209.739 306.182 209.569 303.96 209.943 302.426C210.316 300.893 210.082 298.9 209.422 298.001C208.762 297.1 208.482 294.145 208.799 291.431C209.221 287.819 209.956 286.499 211.549 286.499C213.438 286.499 215.05 283.76 215.808 279.266C215.93 278.543 216.777 275.394 217.69 272.269C219.016 267.732 219.799 266.739 221.581 267.337C222.809 267.75 224.916 268.451 226.264 268.898C228.122 269.512 228.715 269.102 228.715 267.204C228.715 264.162 232.819 263.498 234.911 266.202C236.579 268.36 239.744 268.733 239.744 266.772C239.744 266.048 239.33 265.437 238.825 265.413Z" fill="#DBDBDB"/>
<path d="M186.556 293.283C189.572 293.405 192.65 292.85 193.397 292.048C195.488 289.804 202.275 293.236 202.759 296.782C202.973 298.36 203.939 299.651 204.903 299.651C207.213 299.651 207.155 301.795 204.817 302.758C203.806 303.173 202.979 305.017 202.979 306.855C202.979 309.866 202.738 310.033 200.528 308.552C199.18 307.649 198.077 305.868 198.077 304.595C198.077 302.083 196.232 301.481 195.013 303.597C193.906 305.52 191.95 305.203 191.95 303.098C191.95 302.102 190.295 300.55 188.273 299.651C186.251 298.753 184.597 297.497 184.597 296.862C184.597 296.225 183.461 295.706 182.073 295.706C180.686 295.706 179.893 295.11 180.312 294.383C180.73 293.655 183.54 293.161 186.556 293.283Z" fill="#DBDBDB"/>
<path d="M260.803 304.232C261.049 303.966 264.217 302.275 267.842 300.473C276.86 295.99 284.488 296.983 290.857 303.471C293.948 306.618 296.173 306.947 298.405 304.583C299.65 303.265 300.274 303.397 301.544 305.241C302.415 306.506 304.275 307.542 305.677 307.542C313.335 307.542 307.4 316.152 298.786 317.539C295.474 318.072 290.785 317.769 287.236 316.792C282.086 315.376 281.061 315.428 279.804 317.173C277.311 320.636 274.811 320.205 268.306 315.19C262.879 311.007 259.326 305.817 260.803 304.232Z" fill="#DBDBDB"/>
<path d="M113.824 303.765C111.88 305.4 111.838 305.354 113.361 303.268C114.286 302.003 115.252 300.966 115.505 300.966C116.514 300.966 115.866 302.046 113.824 303.765Z" fill="#DBDBDB"/>
<path d="M302.096 320.694C303.283 320.694 306.008 319.013 308.152 316.96C312.315 312.971 318.751 312.176 320.62 315.422C321.237 316.494 322.452 316.761 323.873 316.136C327.894 314.368 335.854 314.066 339.236 315.552C342.179 316.845 342.383 317.337 341.17 320.197C340.24 322.386 339.414 322.97 338.552 322.045C336.538 319.883 326.795 320.364 325.973 322.667C325.584 323.752 324.029 324.64 322.517 324.64C318.77 324.64 312.049 327.256 312.049 328.714C312.049 330.377 306.636 330.194 302.982 328.408C298 325.971 297.393 320.694 302.096 320.694Z" fill="#DBDBDB"/>
<path d="M320.617 328.585C324.165 328.585 325.925 327.87 327.024 325.98C328.813 322.906 333.045 323.126 341.391 326.726C346.832 329.072 346.833 329.075 343.521 330.26C341.168 331.101 339.284 333.537 337.03 338.648C333.728 346.14 330.881 348.313 324.365 348.313C322.464 348.313 318.077 349.294 314.616 350.494C309.123 352.398 307.898 352.44 304.977 350.825C303.138 349.807 301.191 348.234 300.651 347.329C300.112 346.423 298.872 345.683 297.894 345.683C296.917 345.683 296.072 345.24 296.018 344.697C295.383 338.406 295.707 336.426 297.612 334.953C298.812 334.025 299.794 332.39 299.794 331.32C299.794 329.807 300.121 329.726 301.264 330.953C303.514 333.367 315.725 333.035 315.725 330.558C315.725 329.134 317.085 328.585 320.617 328.585Z" fill="#DBDBDB"/>
<path d="M213.264 339.782C215.2 337.856 219.054 335.798 221.83 335.207C231.462 333.16 233.617 333.495 233.617 337.046C233.617 339.09 234.502 340.546 236.068 341.08C237.416 341.539 238.519 342.762 238.519 343.798C238.519 346.106 234.858 346.343 234.803 344.039C234.782 343.135 233.589 344.087 232.152 346.155L229.541 349.916L227.561 347.1C225.61 344.325 225.547 344.322 223.071 346.795C219.14 350.727 215.376 351.566 214.385 348.733C213.924 347.418 212.691 345.653 211.645 344.812C209.982 343.475 210.185 342.843 213.264 339.782Z" fill="#DBDBDB"/>
<path d="M292.932 363.522C295.058 364.095 296.117 363.847 296.117 362.776C296.117 361.623 297.409 361.452 300.713 362.165C303.241 362.712 306.789 363.067 308.598 362.955C310.408 362.843 312.233 363.35 312.653 364.081C313.074 364.812 314.471 365.411 315.759 365.411C317.327 365.411 317.868 366.056 317.399 367.366C317.014 368.443 317.299 371.165 318.029 373.415C319.193 376.999 319.069 377.587 317.029 378.159C315.748 378.519 314.037 380.533 313.226 382.633C312.415 384.735 311.111 386.454 310.329 386.454C308.626 386.454 296.392 373.099 292.506 366.997L289.746 362.664L292.932 363.522Z" fill="#DBDBDB"/>
<path d="M316.486 392.343C313.455 389.092 314.242 384.941 318.144 383.593C319.138 383.25 321.438 383.885 323.256 385.004C326.595 387.061 326.81 389.084 323.688 389.084C322.755 389.084 321.199 390.297 320.232 391.78C318.61 394.266 318.318 394.309 316.486 392.343Z" fill="#DBDBDB"/>
<path d="M386.347 403.088C385.948 401.388 385.98 399.612 386.418 399.143C388.38 397.038 391.39 398.171 399.938 404.235L403.681 406.892L398.858 407.027C395.994 407.107 392.938 408.194 391.337 409.698C387.87 412.959 383.138 412.339 384.016 408.739C384.358 407.332 385.186 406.181 385.854 406.181C386.523 406.181 386.744 404.79 386.347 403.088Z" fill="#DBDBDB"/>
<path d="M427.245 407.693C427.245 406.198 435.249 401.332 440.726 399.498C444.929 398.089 457.768 398.956 459.45 400.761C460.206 401.573 462.007 402.236 463.453 402.236C464.899 402.236 467.097 403.441 468.339 404.912C469.58 406.385 471.274 407.31 472.101 406.969C472.93 406.628 476.548 407.564 480.144 409.048C485.691 411.34 487.458 411.53 491.795 410.312C495.448 409.286 497.982 409.279 500.676 410.287C503.91 411.497 505.197 411.224 509.756 408.357C513.195 406.193 517.244 404.91 521.245 404.714C526.62 404.451 527.883 404.906 530.951 408.205C532.89 410.293 534.305 412.576 534.094 413.281C533.131 416.508 535.247 420.65 537.87 420.668C542.575 420.704 544.176 422.545 541.758 425.141C539.805 427.236 539.799 427.823 541.668 434.032C542.767 437.687 543.668 442.027 543.668 443.675C543.668 445.323 544.495 447.011 545.506 447.428C549.521 449.081 546.936 450.261 539.072 450.366C526.293 450.536 514.174 452.381 508.333 455.049C502.157 457.87 499.192 458.077 495.965 455.915C494.273 454.78 492.361 454.724 488.936 455.705C483.79 457.179 476.257 457.121 473.947 455.589C473.14 455.054 471.219 455.503 469.677 456.589C467.866 457.863 466.259 458.142 465.135 457.379C462.195 455.383 458.107 456.027 456.317 458.77C455.002 460.785 446.225 465.365 443.678 465.365C443.449 465.365 441.45 463.673 439.237 461.607C434.796 457.462 426.916 454.192 424.131 455.339C423.147 455.744 422.343 457.215 422.343 458.607C422.343 463.257 413.245 464.564 411.927 460.104C411.499 458.657 410.129 457.474 408.882 457.474C407.636 457.474 406.433 457.031 406.207 456.487C405.983 455.944 403.179 454.087 399.978 452.359C395.471 449.926 394.157 448.507 394.157 446.07C394.157 444.035 393.183 442.502 391.4 441.732C389.884 441.079 389.332 440.505 390.174 440.459C391.795 440.371 392.374 436.431 390.766 436.431C390.249 436.431 389.908 433.768 390.011 430.512C390.189 424.82 390.061 424.594 386.662 424.594C382.71 424.594 382.148 422.826 385.094 419.665C386.654 417.99 389.322 417.616 397.962 417.854C407.115 418.105 408.863 417.826 408.863 416.112C408.863 414.813 409.976 414.073 411.927 414.073C413.834 414.073 414.99 413.327 414.99 412.1C414.99 411.015 414.026 410.118 412.846 410.107C411.666 410.095 409.987 409.6 409.113 409.005C408.24 408.411 411.962 408.2 417.385 408.537C424.127 408.956 427.245 408.688 427.245 407.693Z" fill="#DBDBDB"/>
</svg>
