<svg width="501" height="284" viewBox="0 0 501 284" fill="none" xmlns="http://www.w3.org/2000/svg">
<path d="M92.3485 3.30053C93.7406 3.30053 94.8802 2.44708 94.8802 1.40314C94.8802 0.110699 95.7589 -0.275814 97.6374 0.189621C101.314 1.09814 128.148 2.92702 141.666 3.18866C144.819 3.25046 148.128 4.06833 149.019 5.00709C151.587 7.71293 163.615 11.2326 169.433 10.9801C172.829 10.8329 175.125 11.4047 175.794 12.5657C176.488 13.77 179.287 14.3972 184.11 14.4287C190.823 14.4721 191.312 14.6747 190.489 17.0689C189.464 20.0456 184.263 23.4194 174.918 27.1718C171.336 28.6089 168.406 30.4167 168.406 31.1871C168.406 31.9576 166.201 35.1565 163.505 38.2949C158.225 44.4402 157.055 50.2477 160.48 53.298C162.122 54.76 161.815 55.5041 158.029 59.2237C155.65 61.564 153.686 64.2857 153.669 65.2731C153.652 66.2605 151.446 68.1524 148.767 69.4764C146.089 70.8017 143.898 72.6898 143.898 73.6719C143.898 76.4317 142.352 76.9366 131.404 77.7505C125.806 78.1659 120.703 79.0389 120.063 79.6897C119.422 80.3406 117.974 80.8731 116.842 80.8731C115.711 80.8731 113.958 82.2036 112.944 83.8314C111.111 86.7765 111.09 86.7777 108.436 84.2178C106.582 82.4284 105.985 80.7284 106.475 78.63C107.039 76.22 106.676 75.6139 104.669 75.6139C103.287 75.6139 101.838 74.7264 101.451 73.6417C101.063 72.557 99.7011 71.6696 98.4254 71.6696C95.4513 71.6696 95.4893 70.2456 98.5565 66.7128C101.241 63.6217 101.727 60.4688 99.7219 59.1396C98.8433 58.5571 98.8886 57.7039 99.8665 56.4403C100.653 55.424 101.001 52.9614 100.641 50.9695C100.249 48.7975 100.68 46.5176 101.717 45.2778C102.668 44.1405 103.793 40.2947 104.218 36.7317C104.735 32.3981 105.954 29.257 107.9 27.2428C111.458 23.5614 111.482 22.9762 108.233 19.233C106.097 16.7731 104.854 16.4089 101.002 17.1071C94.629 18.2615 88.1489 14.4091 89.6072 10.3306C89.9699 9.31559 89.0386 8.10215 87.3953 7.45001L84.5547 6.32188L87.1857 4.81112C88.633 3.98018 90.9564 3.30053 92.3485 3.30053Z" fill="#75D0D1"/>
<path d="M190.23 46.6687C189.09 46.6792 187.817 46.0969 187.401 45.3738C186.442 43.7093 188.065 43.7093 190.464 45.3738C192.049 46.4716 192.015 46.6503 190.23 46.6687Z" fill="#75D0D1"/>
<path d="M263.62 131.502C265.54 130.442 266.377 128.798 266.377 126.083C266.377 121.938 267.431 121.211 269.78 123.732C270.604 124.615 274.256 125.194 278.289 125.081C283.228 124.941 286.75 125.662 289.996 127.477C292.549 128.905 295.462 130.073 296.469 130.073C297.527 130.073 298.614 131.755 299.042 134.058C299.96 138.978 304.764 143.221 309.419 143.221C314.34 143.221 324.459 147.579 328.949 151.633C333.943 156.141 336.579 155.949 341.929 150.688L346.37 146.321L344.707 139.362C343.06 132.466 343.075 132.375 346.353 129.35C352.238 123.917 368.359 123.385 369.626 128.581C370.201 130.941 380.134 135.332 384.895 135.332C386.879 135.332 387.091 136.238 386.661 142.892C385.861 155.281 385.934 157.857 387.406 168.859C388.18 174.644 389.122 192.69 389.499 208.96C389.875 225.231 390.5 246.086 390.888 255.307L391.593 272.07H386.581C382.845 272.07 381.568 272.596 381.568 274.132C381.568 275.897 381.083 275.833 378.198 273.69C376.344 272.312 365.178 265.392 353.383 258.311C341.588 251.231 328.078 243.066 323.36 240.167C306.605 229.871 308.754 230.276 299.297 235.643C294.595 238.312 290.634 239.826 290.223 239.114C289.049 237.076 280.733 232.922 275.863 231.942C272.533 231.271 270.746 229.904 268.961 226.655C266.407 222.011 259.868 217.535 257.226 218.624C254.912 219.576 252.898 216.839 252.898 212.743C252.898 210.773 251.532 207.421 249.863 205.292C246.913 201.532 246.892 201.361 249.115 199.203C251.15 197.227 251.378 195.063 251.193 179.498C251.034 166.209 250.53 161.278 249.089 158.951C247.284 156.035 247.394 155.701 251.394 151.933C254.955 148.579 255.497 147.339 254.956 143.772C254.447 140.398 254.969 138.918 257.592 136.295C259.391 134.496 262.104 132.34 263.62 131.502Z" fill="#475B7F"/>
<path d="M105.387 103.831C105.387 103.138 106.344 100.201 107.515 97.3035C108.685 94.4057 110.021 92.0352 110.484 92.0352C110.947 92.0352 112.886 93.4366 114.79 95.1485C117.697 97.7596 119.976 98.3567 128.943 98.855C143.213 99.6478 144.601 100.962 144.601 113.682C144.601 119.916 145.208 123.948 146.4 125.64C149.753 130.394 148.744 131.479 140.968 131.479C134.996 131.479 133.426 131.944 132.391 134.022C131.692 135.419 129.605 136.75 127.751 136.98C124.91 137.33 124.381 138.015 124.381 141.34C124.381 144.665 123.525 145.773 118.926 148.403C115.926 150.117 112.514 152.826 111.345 154.419C109.991 156.267 106.636 157.935 102.096 159.017C93.8842 160.975 87.7264 164.076 82.2683 169.004C79.2071 171.768 78.4277 173.484 78.4277 177.46C78.4277 183.835 77.6349 184.066 56.3699 183.921C43.8607 183.834 40.9564 183.521 44.4611 182.635C47.0113 181.992 50.5957 180.615 52.4265 179.578C56.9324 177.026 68.063 165.4 71.0739 160.102C73.6988 155.482 74.2894 151.201 72.3006 151.201C70.0458 151.201 71.0716 144.031 74.1535 138.247C75.8299 135.1 77.2023 131.777 77.2023 130.865C77.2023 127.317 82.8332 121.814 89.9848 118.372C96.8142 115.083 105.387 106.991 105.387 103.831Z" fill="#849EA5"/>
<path d="M29.7021 199.958C32.4201 197.367 35.4029 193.324 36.3317 190.973L38.0215 186.7H57.6114H77.2023V194.549V202.398L61.578 202.767L45.9537 203.135L45.6082 217.829L45.2626 232.524L39.7874 235.368L34.3121 238.211V248.033V257.856L17.1561 257.587C1.4742 257.34 0 257.111 0 254.923C0 253.607 1.65433 250.714 3.6763 248.495C5.69826 246.276 7.3526 243.805 7.3526 243.006C7.3526 240.129 12.823 229.337 16.5655 224.829C18.6683 222.295 21.3691 216.731 22.5737 212.449C24.2109 206.63 26.0062 203.483 29.7021 199.958Z" fill="#849EA5"/>
<path d="M390.781 144.156C390.187 140.221 390.428 139.783 393.399 139.414C397.893 138.856 409.309 140.505 411.096 141.97C411.901 142.629 416.249 144.212 420.756 145.485C428.855 147.773 428.997 147.768 432.557 145.045C434.538 143.53 436.763 142.29 437.499 142.29C438.236 142.29 438.838 141.825 438.838 141.258C438.838 140.691 439.938 140.115 441.283 139.977C442.627 139.839 444.415 139.638 445.255 139.529C447.913 139.184 450.402 140.253 451.892 142.381C453.57 144.777 467.019 145.67 470.585 143.621C472.501 142.52 473.263 143.616 476.499 152.151C478.542 157.538 479.777 162.234 479.243 162.589C478.709 162.943 477.897 166.791 477.439 171.14C476.981 175.487 476.009 179.044 475.279 179.044C473.17 179.044 468.172 172.59 468.172 169.865C468.172 168.501 467.56 166.978 466.812 166.482C466.062 165.986 464.373 162.962 463.056 159.764C460.476 153.501 458.013 152.89 457.407 158.363C456.971 162.287 461.815 173.282 465.596 176.951C467.012 178.326 468.171 180.098 468.168 180.889C468.167 181.679 469.24 184.689 470.554 187.577C471.868 190.465 475.583 198.632 478.808 205.727C482.034 212.822 485.772 219.935 487.117 221.533C490.672 225.759 490.43 235.653 486.727 237.446C485.248 238.161 483.74 239.757 483.374 240.994C482.157 245.117 475.765 247.303 464.928 247.303C458.943 247.303 454.727 246.761 454.727 245.99C454.727 245.268 453.902 244.677 452.894 244.677C451.886 244.677 451.061 245.268 451.061 245.99C451.061 246.828 440.735 247.303 422.527 247.303H393.994L393.125 205.76C392.499 175.868 391.781 162.735 390.561 158.933C389.329 155.092 389.218 152.946 390.151 151.072C390.858 149.654 391.141 146.542 390.781 144.156Z" fill="#9BBACE"/>
<path d="M485.48 244.081C486.232 242.311 487.732 240.607 488.815 240.296C489.897 239.986 490.957 239.663 491.17 239.579C491.945 239.273 496.806 242.472 499.188 244.855C501.591 247.261 501.482 247.303 492.874 247.303H484.114L485.48 244.081Z" fill="#9BBACE"/>
<path d="M206.567 78.9209C209.595 80.0961 211.578 80.062 215.245 78.772C219.389 77.3159 224.799 76.9809 234.239 77.5955C235.921 77.705 236.454 78.3091 235.829 79.3959C235.31 80.2955 235.031 85.4896 235.207 90.9369C235.515 100.48 235.39 100.98 231.774 104.582C229.71 106.638 228.022 109.267 228.022 110.423C228.022 113.503 230.818 121.286 231.924 121.286C232.448 121.286 233.769 123.142 234.861 125.41C235.954 127.678 238.138 130.794 239.715 132.334C242.644 135.198 246.917 151.442 245.664 154.946C245.327 155.89 245.918 158.46 246.978 160.66C249.915 166.757 250.168 194.116 247.318 197.495C244.583 200.739 244.681 203.278 247.698 207.394C249.056 209.247 250.535 212.737 250.984 215.15C252.053 220.882 254.028 222.847 258.719 222.847C262.546 222.847 268.641 228.089 268.531 231.283C268.502 232.084 260.394 238.378 250.512 245.27C239.903 252.669 228.281 262.121 222.131 268.352C212.085 278.528 211.38 278.983 202.354 281.136C189.104 284.297 189.1 284.295 189.66 279.149C190.102 275.082 189.764 274.608 184.805 272.328C181.872 270.98 178.92 269.811 178.244 269.727C176.526 269.516 170.255 263.049 170.255 261.488C170.255 260.781 167.074 257.557 163.188 254.326C156.567 248.822 150.658 243.927 131.846 228.362C115.568 214.895 99.1995 201.894 90.0576 195.173L80.5322 188.169V180.42C80.5322 173.433 80.8346 172.522 83.6049 171.167C85.2949 170.341 86.6776 169.21 86.6776 168.655C86.6776 167.237 93.9587 163.494 96.7155 163.494C97.9728 163.494 99.9627 162.936 101.136 162.254C102.31 161.573 104.875 160.648 106.837 160.2C108.8 159.752 111.842 157.788 113.597 155.834C115.353 153.881 119.448 150.888 122.699 149.184C128.175 146.312 128.551 145.805 127.825 142.259C127.172 139.071 127.436 138.433 129.408 138.433C130.708 138.433 132.826 137.179 134.114 135.646C136.152 133.22 137.359 132.961 143.432 133.637L150.407 134.415L151.245 130.324C151.704 128.074 151.577 125.862 150.959 125.408C148.767 123.799 147.045 116.543 146.633 107.187C146.246 98.3824 146.417 97.6056 149.018 96.3328C150.558 95.5796 151.819 94.357 151.819 93.6158C151.819 92.8758 152.892 92.2691 154.204 92.2691C155.517 92.2691 156.917 91.7019 157.316 91.0081C157.716 90.3143 158.89 90.0953 159.926 90.5214C161.06 90.9883 162.56 90.1467 163.698 88.4017C166.034 84.8207 169.949 83.1734 179.466 81.7621C183.525 81.1606 190.401 79.9327 194.744 79.0332C200.784 77.7815 203.564 77.755 206.567 78.9209Z" fill="#A5CDC9"/>
<path d="M290.532 86.3783V86.9454C290.532 87.1722 291.008 87.3423 291.246 87.399C291.388 87.2982 291.745 87.0966 292.03 87.0966C292.23 86.9454 291.709 86.5043 291.424 86.3027L290.532 86.3783Z" fill="#003479"/>
<path d="M292.245 87.4746L291.923 87.7392C292.03 87.7392 292.352 88.533 292.03 89.2135C293.85 91.1414 294.599 90.0451 294.528 89.4403C294.528 89.0245 293.16 88.0542 292.245 87.4746Z" fill="#003479"/>
<path d="M302.988 64.0066C302.399 64.0066 303.163 62.1968 304.687 59.9847C306.21 57.7725 307.663 56.6245 307.913 57.4307C308.414 59.0431 304.697 64.0066 302.988 64.0066Z" fill="#DBDBDB"/>
<path d="M283.632 71.607C278.927 69.2357 275.067 66.6553 275.053 65.8741C275.031 64.6207 277.666 64.5446 286.058 65.5546C287.069 65.6769 290.366 65.3033 293.383 64.7259C298.297 63.7842 298.703 63.8909 297.268 65.7466C296.385 66.8869 295.768 69.4764 295.893 71.5031C296.019 73.5285 296.063 75.9262 295.992 76.8297C295.841 78.7446 292.186 79.097 292.186 77.1966C292.186 76.4942 288.336 73.9796 283.632 71.607Z" fill="#DBDBDB"/>
<path d="M237.341 92.6605C237.035 82.1692 237.09 81.9457 240.932 78.2658C245.59 73.8021 248.358 73.5601 251.63 77.3308C253.31 79.2654 254.937 79.8967 256.886 79.3719L259.71 78.6105L256.953 81.054C253.541 84.0789 253.424 87.8392 256.646 90.968C260.373 94.5874 259.72 99.1496 254.808 103.816C248.926 109.405 249.603 114.873 256.466 117.21C263.46 119.593 266.276 127.079 261.242 129.908C259.726 130.76 256.757 133.247 254.646 135.434C251.382 138.816 250.896 140.126 251.402 144.178C251.812 147.451 251.418 149.462 250.146 150.595C248.554 152.012 248.107 151.304 246.956 145.543C246.22 141.858 245.617 137.954 245.617 136.869C245.617 135.784 243.702 132.78 241.362 130.195C239.021 127.608 236.778 124.383 236.376 123.026C235.976 121.67 235.107 120.56 234.445 120.56C233.785 120.56 232.482 118.637 231.55 116.285C229.927 112.183 230.016 111.835 233.754 107.663C237.55 103.429 237.642 103.04 237.341 92.6605Z" fill="#DBDBDB"/>
</svg>
