<svg width="1227" height="614" viewBox="0 0 1227 614" fill="none" xmlns="http://www.w3.org/2000/svg">
<path d="M884.701 6.00191C889.78 6.49323 893.725 6.36517 893.725 5.70921C893.725 5.06761 897.999 4.81407 903.223 5.14598C908.448 5.47657 919.479 5.82943 927.736 5.93005C935.994 6.02936 942.751 6.51149 942.749 7.0002C942.749 7.49022 943.991 8.11219 945.507 8.38268C949.724 9.13665 927.728 11.1556 914.24 11.2523C905.199 11.3176 902.422 11.737 902.866 12.9719C903.275 14.11 901.976 14.6053 898.589 14.6053C895.083 14.6053 893.725 15.1528 893.725 16.5653C893.725 17.6433 894.415 18.5633 895.257 18.6077C896.1 18.6534 895.502 19.2402 893.93 19.9131C892.357 20.5848 889.738 20.7782 888.108 20.3417C886.31 19.8608 885.146 20.1183 885.146 20.9977C885.146 21.881 882.522 22.4455 878.405 22.4455C871.637 22.4455 869.269 24.2919 874.421 25.5516C875.938 25.9227 874.146 25.9618 870.438 25.6378C866.731 25.315 862.539 24.7126 861.122 24.2997C859.508 23.8293 857.71 24.4408 856.303 25.937C854.544 27.8095 852.454 28.2591 846.622 28.0186C838.583 27.6867 824.771 31.2867 825.518 33.5185C825.765 34.2555 828.94 34.7743 832.575 34.6697C838.942 34.4881 838.83 34.7835 831.525 37.4308C830.009 37.981 828.767 38.9505 828.767 39.5856C828.767 40.2193 826.01 40.7394 822.639 40.7394C818.219 40.7394 816.511 41.2464 816.511 42.5597C816.511 45.1247 813.743 45.9662 805.299 45.9662C797.284 45.9662 791.667 43.8808 794.556 41.9769C797.617 39.9593 794.405 38.8773 790.42 40.5839C788.255 41.5116 785.381 42.557 784.033 42.9085C781.734 43.507 781.715 43.4299 783.726 41.6724C784.905 40.6414 785.871 38.8342 785.871 37.6556C785.871 35.0422 790.592 34.8004 796.575 37.1081C799.473 38.224 800.968 38.2854 801.565 37.3093C802.033 36.5423 803.933 35.5191 805.787 35.0356C811.289 33.5996 809.818 31.335 803.949 32.2027C797.791 33.1134 795.497 31.8198 795.018 27.168C794.694 24.024 795.032 23.7522 799.278 23.7522C804.34 23.7522 811.609 26.0376 811.609 27.6292C811.609 29.0457 819.003 30.1642 822.99 29.3528C827.691 28.3936 827.126 26.3656 822.158 26.3656C819.591 26.3656 817.73 25.6156 817.293 24.4056C816.693 22.7369 818.585 22.4455 830.031 22.4455C838.176 22.4455 843.475 21.9307 843.475 21.1388C843.475 20.4201 845.681 19.8321 848.377 19.8321C853.088 19.8321 854.942 18.1516 851.748 16.777C850.906 16.415 852.007 16.0713 854.199 16.0152C856.39 15.959 858.182 15.2481 858.182 14.4366C858.182 12.7614 841.908 14.0081 838.516 15.9447C837.431 16.5627 833.692 17.4721 830.205 17.9648C824.722 18.741 823.865 18.562 823.865 16.6372C823.865 14.8039 822.828 14.4707 817.978 14.7451C814.74 14.928 811.57 14.7503 810.931 14.3504C810.292 13.9519 808.116 13.8068 806.094 14.0303C804.071 14.2524 799.383 14.6902 795.676 15.0025C791.968 15.3148 791.004 15.3187 793.531 15.0116C798.342 14.4288 799.651 12.6034 795.982 11.5933C794.803 11.2679 799.215 11.3136 805.787 11.6939C813.846 12.1604 817.737 11.9317 817.737 10.9909C817.737 10.2239 817.048 9.3 816.205 8.93674C815.363 8.57478 816.631 8.2311 819.024 8.17492C821.417 8.11873 823.899 8.61794 824.539 9.28567C825.179 9.95209 829.288 10.7792 833.67 11.1203C838.051 11.4626 843.152 12.1565 845.007 12.6622C849.162 13.7951 849.674 11.1294 845.62 9.47644L842.862 8.35269L845.926 7.63266C853.039 5.96138 866.565 5.37075 867.335 6.69705C868.395 8.52644 873.746 8.45722 874.823 6.60039C875.407 5.59423 878.522 5.40474 884.701 6.00191Z" fill="#2C4395"/>
<path d="M755.231 18.5254C757.927 18.5254 760.133 17.8981 760.133 17.1311C760.133 15.0456 765.37 17.1716 767.25 20.0189C768.13 21.3544 769.89 22.4455 771.161 22.4455C772.431 22.4455 773.811 23.0335 774.228 23.7522C774.644 24.4709 776.165 25.0589 777.609 25.0589C779.65 25.0589 779.906 25.4078 778.762 26.627C776.202 29.3567 777.161 30.521 781.275 29.6794C784.37 29.047 784.796 29.1738 783.186 30.2505C782.046 31.0123 778.185 31.6956 774.606 31.7675C771.028 31.8394 766.445 32.7959 764.423 33.8923C757.412 37.6935 756.483 38.126 755.337 38.126C754.704 38.126 754.006 37.1394 753.788 35.932C753.424 33.9184 753.232 33.9106 751.424 35.838C750.34 36.9931 747.307 38.275 744.683 38.6866C742.058 39.0995 740.6 39.093 741.442 38.6722C743.793 37.5001 743.261 35.5126 740.596 35.5126C739.287 35.5126 737.876 34.9246 737.459 34.2059C736.976 33.3735 740.511 32.8992 747.192 32.8992C755.227 32.8992 757.682 32.4823 757.682 31.1194C757.682 29.1136 742.712 26.904 740.164 28.5347C739.258 29.1136 739.337 28.6236 740.366 27.2699C741.292 26.0533 742.809 25.0589 743.737 25.0589C744.666 25.0589 745.426 24.4709 745.426 23.7522C745.426 23.0335 746.529 22.4455 747.877 22.4455C749.239 22.4455 750.328 21.5739 750.328 20.4854C750.328 19.0703 751.69 18.5254 755.231 18.5254Z" fill="#2C4395"/>
<path d="M807.64 19.4231C806.469 19.7498 804.263 19.7615 802.738 19.4492C801.213 19.1369 802.172 18.8691 804.868 18.8547C807.564 18.8403 808.812 19.0964 807.64 19.4231Z" fill="#2C4395"/>
<path d="M735.314 25.9593C734.135 26.2886 732.204 26.2886 731.025 25.9593C729.846 25.6313 730.81 25.3621 733.17 25.3621C735.529 25.3621 736.493 25.6313 735.314 25.9593Z" fill="#2C4395"/>
<path d="M673.501 36.3254C673.857 35.3349 673.53 33.8648 672.774 33.0586C671.758 31.9753 672.422 31.5925 675.321 31.5925C678.012 31.5925 679.243 32.2157 679.243 33.5773C679.243 35.0448 680.045 35.3479 682.323 34.7377C684.06 34.2738 686.173 34.5966 687.171 35.4786C688.144 36.3397 689.556 36.6377 690.31 36.1411C691.113 35.6119 691.008 36.3959 690.057 38.0371C687.872 41.807 682.95 43.0876 681.472 40.2703C680.811 39.0119 678.799 38.126 676.599 38.126C673.92 38.126 673.037 37.6138 673.501 36.3254Z" fill="#2C4395"/>
<path d="M705.642 39.0184C704.668 37.9796 704.255 36.7213 704.724 36.2222C705.957 34.9063 712.658 36.5736 713.772 38.4723C715.176 40.8662 707.837 41.3588 705.642 39.0184Z" fill="#2C4395"/>
<path d="M777.137 37.4883C773.496 37.8425 772.388 37.619 773.632 36.7801C775.551 35.4865 784.319 34.9899 783.145 36.2404C782.77 36.6403 780.066 37.2022 777.137 37.4883Z" fill="#2C4395"/>
<path d="M629.912 37.7196C628.733 38.0489 626.801 38.0489 625.622 37.7196C624.443 37.3917 625.408 37.1224 627.767 37.1224C630.126 37.1224 631.091 37.3917 629.912 37.7196Z" fill="#2C4395"/>
<path d="M607.766 45.1535C603.051 45.7206 600.894 45.5599 601.404 44.6818C601.827 43.9513 605.266 43.3528 609.047 43.3528C617.583 43.3528 617.099 44.0323 607.766 45.1535Z" fill="#2C4395"/>
<path d="M758.09 45.8748C756.053 45.7911 756.071 45.6788 758.295 44.6726C761.264 43.3267 765.292 44.3511 766.629 46.7907C767.879 49.0723 780.057 49.2095 783.406 46.979C785.391 45.6579 786.083 45.7572 787.372 47.5474C788.367 48.9299 791.384 49.9426 795.676 50.3385C799.383 50.6795 802.692 51.0323 803.029 51.1225C803.367 51.2127 802.263 52.1261 800.578 53.1531C796.585 55.5862 791.911 55.5901 787.543 53.1609C783.68 51.0127 779.743 50.575 779.743 52.2933C779.743 52.8983 776.162 53.242 771.785 53.0577C767.408 52.8722 763.515 53.259 763.133 53.9162C762.206 55.5156 757.682 55.4529 757.682 53.8417C757.682 53.1244 755.005 52.7689 751.554 53.0277C748.183 53.2786 745.426 52.9689 745.426 52.3391C745.426 51.7092 747.218 51.1343 749.409 51.0624C754.976 50.8808 759.249 49.4473 759.838 47.563C760.112 46.6849 759.327 45.9244 758.09 45.8748Z" fill="#2C4395"/>
<path d="M789.854 45.9466C788.021 45.9296 787.977 45.7415 789.548 44.6595C791.861 43.0653 791.999 43.0653 791.999 44.6595C791.999 45.3782 791.033 45.9571 789.854 45.9466Z" fill="#2C4395"/>
<path d="M646.151 47.2729C645.477 47.2729 644.925 46.6849 644.925 45.9662C644.925 45.2475 645.477 44.6595 646.151 44.6595C646.825 44.6595 647.377 45.2475 647.377 45.9662C647.377 46.6849 646.825 47.2729 646.151 47.2729Z" fill="#2C4395"/>
<path d="M739.604 46.8313C738.762 47.1945 737.383 47.1945 736.54 46.8313C735.698 46.4693 736.387 46.1727 738.072 46.1727C739.757 46.1727 740.447 46.4693 739.604 46.8313Z" fill="#2C4395"/>
<path d="M534.62 57.2235C534.62 56.0292 538.689 54.2913 546.57 52.1221C560.169 48.3758 574.893 47.303 570.743 50.3607C567.079 53.0577 560.358 53.783 560.358 51.4806C560.358 50.2301 559.645 49.9008 558.213 50.4914C557.034 50.9775 554.54 51.7053 552.672 52.1064C550.805 52.5089 548.98 53.3491 548.617 53.975C548.254 54.6009 546.473 55.1315 544.659 55.155C542.845 55.1772 540.29 56.0592 538.982 57.115C536.003 59.5181 534.62 59.5521 534.62 57.2235Z" fill="#2C4395"/>
<path d="M708.047 54.2782C704.82 55.598 701.86 55.266 698.073 53.1609L694.563 51.2088L700.691 51.2205C707.549 51.2349 711.487 52.8709 708.047 54.2782Z" fill="#2C4395"/>
<path d="M604.697 60.2368C605.42 58.0246 607.185 55.7103 608.617 55.0936C612.082 53.6013 613.06 53.5752 613.06 54.9734C613.06 55.615 612.232 56.4787 611.221 56.8929C610.21 57.3058 609.383 58.4779 609.383 59.4972C609.383 61.6506 616.751 63.2723 618.514 61.5069C619.153 60.8653 620.808 60.3662 622.19 60.3975C624.013 60.4393 623.357 61.2116 619.8 63.2122C615.761 65.4845 612.365 66.0307 600.497 66.3169C592.577 66.5076 586.096 66.1457 586.096 65.5133C586.096 64.8808 583.319 64.4862 579.924 64.6378C576.425 64.7946 573.373 64.2797 572.877 63.4486C572.237 62.3784 570.352 62.4517 565.873 63.7179C562.503 64.6718 557.815 65.3983 555.456 65.3343C551.43 65.2245 551.504 65.154 556.681 64.1805C565.929 62.4399 568.94 61.4011 568.238 60.191C567.869 59.5547 568.979 59.0333 570.704 59.0333C573.967 59.0333 574.97 57.1242 572.308 55.9782C571.466 55.6163 572.016 55.2726 573.534 55.2164C575.123 55.1563 576.161 55.8057 575.985 56.7466C575.808 57.6874 577.214 58.5668 579.304 58.819C581.297 59.0621 583.843 60.3844 584.962 61.7591C586.588 63.7571 588.645 64.2601 595.189 64.2601C603.238 64.2601 603.405 64.1883 604.697 60.2368Z" fill="#2C4395"/>
<path d="M666.811 59.0529C667.74 59.0425 668.18 58.2153 667.808 57.1817C667.282 55.7208 668.532 55.3432 673.732 55.3928C681.297 55.4647 680.981 56.3768 671.428 62.0296C667.71 64.2314 663.774 65.5081 661.01 65.4101L656.569 65.2533L662.084 63.8982C668.733 62.2661 669.281 61.8597 666.951 60.2891C665.538 59.3365 665.508 59.0686 666.811 59.0529Z" fill="#2C4395"/>
<path d="M708.351 64.822C710.648 62.6555 712.334 59.8042 712.334 58.0885C712.334 55.6855 713.01 55.1132 715.841 55.1132C718.939 55.1132 719.278 55.5013 718.75 58.4466C718.205 61.486 718.435 61.7043 721.372 60.9176C723.769 60.276 724.59 60.5544 724.59 62.0061C724.59 64.2131 729.884 66.1902 730.516 64.2184C730.743 63.514 731.444 63.2775 732.075 63.693C734.64 65.3826 748.978 65.282 756.226 63.5231C766.331 61.0717 777.36 61.0914 780.428 63.565C781.736 64.6208 782.202 65.5028 781.462 65.5251C780.723 65.5486 778.846 66.7429 777.292 68.1803C773.696 71.5058 761.359 72.0115 761.359 68.8336C761.359 66.4567 760.758 66.4031 757.295 68.473C753.374 70.8146 727.042 71.1622 727.042 68.8715C727.042 67.1715 724.818 67.4472 716.332 70.2005C714.402 70.8264 713.367 70.4736 712.839 69.0061C712.253 67.378 711.563 67.2212 709.693 68.2887C705.159 70.876 704.297 68.6455 708.351 64.822Z" fill="#2C4395"/>
<path d="M529.386 57.2092C528.979 57.643 527.921 57.69 527.037 57.3124C526.059 56.8955 526.35 56.5858 527.778 56.5231C529.07 56.4669 529.793 56.7753 529.386 57.2092Z" fill="#2C4395"/>
<path d="M658.752 60.3204C656.802 60.3348 656.238 59.7703 656.759 58.3237C657.158 57.2143 657.83 56.7662 658.253 57.3281C658.674 57.89 659.572 58.789 660.246 59.3247C660.92 59.8618 660.248 60.3086 658.752 60.3204Z" fill="#2C4395"/>
<path d="M564.929 58.5159C564.522 58.9497 563.464 58.9967 562.58 58.6191C561.602 58.2022 561.893 57.8925 563.32 57.8298C564.612 57.7736 565.335 58.082 564.929 58.5159Z" fill="#2C4395"/>
<path d="M681.037 68.635C679.229 67.8954 679.337 67.557 681.857 66.0673C685.019 64.1987 695.176 63.6172 695.176 65.3055C695.176 68.8846 686.589 70.9061 681.037 68.635Z" fill="#2C4395"/>
<path d="M562.197 71.8887C558.223 71.809 558.921 71.4824 565.873 70.1626C577.549 67.9451 583.729 67.9856 574.453 70.2174C570.408 71.1896 564.893 71.9423 562.197 71.8887Z" fill="#2C4395"/>
<path d="M485.104 79.154C484.11 76.3929 487.188 74.8824 494.831 74.3806C510.38 73.36 511.16 73.4084 513.129 75.5082C515.3 77.8224 517.891 78.0486 525.792 76.6151C530.203 75.8154 531.432 76.0872 533.358 78.2903C535.642 80.905 535.598 80.9324 526.253 82.6128C521.081 83.5432 515.746 84.5089 514.398 84.7585C508.806 85.7908 488.347 93.3461 484.37 95.8459C482.011 97.3277 477.323 99.0408 473.952 99.6523C470.582 100.263 466.033 101.142 463.841 101.607C460.56 102.302 459.858 102.048 459.858 100.161C459.858 98.8997 458.892 97.1081 457.713 96.1765C455.767 94.6411 455.985 94.2974 460.081 92.4589C462.563 91.3456 464.939 89.8363 465.362 89.1072C465.785 88.3781 467.201 87.7809 468.51 87.7809C469.818 87.7809 470.888 87.1954 470.888 86.4794C470.888 85.7646 474.22 84.1913 478.291 82.9839C483.153 81.5426 485.492 80.2281 485.104 79.154Z" fill="#2C4395"/>
<path d="M675.147 79.3526C674.615 77.876 675.866 77.3729 680.837 77.0659C684.341 76.8503 688.86 77.1142 690.877 77.6539C692.895 78.1923 696.48 78.3308 698.844 77.9597C702.817 77.3364 702.91 77.3951 700.078 78.741C698.393 79.5421 693.705 81.8563 689.66 83.883C683.347 87.0466 681.291 87.466 675.125 86.8479C668.349 86.1671 667.988 86.2755 668.724 88.7517C669.277 90.6086 668.869 91.5716 667.327 92.0447C666.129 92.4105 664.179 93.1371 662.993 93.6559C661.265 94.4151 660.903 94.0047 661.155 91.5782C661.589 87.4294 668.37 81.2473 672.488 81.2473C674.902 81.2473 675.639 80.722 675.147 79.3526Z" fill="#2C4395"/>
<path d="M636.197 82.554C635.235 82.554 635.203 82.0627 636.092 80.9207C637.462 79.1618 643.7 78.6392 643.7 80.283C643.7 80.8305 646.044 80.8958 648.909 80.428C654.996 79.4336 654.191 81.267 647.681 83.2205C642.35 84.8186 640.893 87.7809 645.437 87.7809C652.144 87.7809 647.575 94.2438 639.017 96.8612C636.079 97.7589 635.178 97.589 634.884 96.0772C634.581 94.5248 633.975 94.6764 631.802 96.8429C628.062 100.571 625.564 100.222 623.113 95.6289C621.966 93.4781 620.129 91.714 619.031 91.7088C617.934 91.7049 616.35 90.819 615.511 89.7409C614.587 88.5545 614.489 87.7809 615.261 87.7809C615.962 87.7809 617.408 87.4242 618.474 86.9877C619.785 86.452 620.413 86.9316 620.413 88.4669C620.413 90.3695 621.223 90.623 625.411 90.0232C628.159 89.6312 631.434 88.3192 632.688 87.1105C633.94 85.9005 635.552 85.2981 636.269 85.7699C636.986 86.2416 637.572 85.7111 637.572 84.5912C637.572 83.4714 636.953 82.554 636.197 82.554Z" fill="#2C4395"/>
<path d="M597.362 84.5481C597.066 84.2319 597.15 83.0663 597.549 81.9569C598.287 79.908 605.706 79.0011 605.706 80.9612C605.706 82.1516 598.159 85.3961 597.362 84.5481Z" fill="#2C4395"/>
<path d="M695.176 93.8035C698.586 90.3773 710.797 83.8921 717.411 81.9961C721.023 80.9599 725.908 80.0739 728.267 80.0282C732.347 79.9472 732.176 80.1353 724.769 83.8712C719.734 86.4101 717.2 88.4068 717.599 89.5175C717.939 90.4622 717.169 91.9336 715.888 92.7856C713.079 94.6568 712.96 96.102 715.402 98.7049C717.482 100.922 717.005 101.197 708.351 102.753C705.333 103.295 703.755 104.281 703.755 105.62C703.755 107.089 704.357 107.37 705.9 106.622C707.079 106.051 710.664 105.532 713.864 105.47C718.205 105.384 720.384 104.597 722.443 102.373C725.116 99.4837 725.131 99.3335 722.908 97.5707C720.731 95.8446 720.785 95.706 723.958 94.8567C726.209 94.2543 727.641 94.5405 728.332 95.7335C729.536 97.8085 730.106 97.3421 731.261 93.3344C731.965 90.8935 731.645 90.3943 729.371 90.3943C727.865 90.3943 727.046 89.9526 727.551 89.4143C728.056 88.8759 731.45 88.3937 735.093 88.3428C742.619 88.2395 744.013 87.4228 741.71 84.4632C740.289 82.639 740.472 82.49 743.239 83.2309C745.03 83.7105 746.736 83.4648 747.203 82.6599C747.653 81.8824 750.746 81.2473 754.077 81.2473C759.725 81.2473 760.133 81.4682 760.133 84.5246C760.133 87.1288 759.126 88.2317 755.231 89.8938C751.425 91.5168 750.328 92.6837 750.328 95.1102C750.328 98.6109 752.274 99.0538 755.656 96.3228C756.901 95.3167 758.7 94.8135 759.655 95.2042C760.609 95.5936 762.223 95.1769 763.241 94.2753C764.775 92.9189 764.964 92.992 764.348 94.7038C763.783 96.2731 764.67 96.9814 768.054 97.6583C772.895 98.6266 775.231 97.5002 772.354 95.5871C771.171 94.8005 772.131 94.6594 775.147 95.1755C778.881 95.8158 779.743 95.5636 779.743 93.8322C779.743 92.4066 778.626 91.6618 776.372 91.5834C773.076 91.4684 773.089 91.4384 776.989 90.2375C779.845 89.3594 782.625 89.5515 786.794 90.9183C791.949 92.6079 792.184 92.8365 788.863 92.9162C786.801 92.9672 784.044 93.8897 782.735 94.9678C780.383 96.9056 780.384 96.9513 782.807 98.961C784.155 100.078 785.096 101.842 784.898 102.881C784.475 105.1 785.218 105.233 788.281 103.485C789.934 102.541 790.706 102.694 791.198 104.062C792.095 106.554 796.763 106.145 800.767 103.222C802.556 101.917 805.59 100.908 807.508 100.981L810.996 101.116L807.043 102.117C799.973 103.908 793.557 109.995 798.74 109.995C799.761 109.995 800.578 111.157 800.578 112.608C800.578 116.122 802.534 115.899 807.023 111.873C809.823 109.36 810.995 108.936 811.714 110.177C813.032 112.449 811.948 113.915 808.954 113.915C807.168 113.915 806.659 114.512 807.188 115.982C807.597 117.119 807.932 118.589 807.932 119.249C807.932 119.909 808.759 120.449 809.77 120.449C811.85 120.449 812.301 123.905 810.313 124.612C808.339 125.313 810.365 129.596 812.67 129.596C813.784 129.596 815.398 130.794 816.256 132.26C817.114 133.725 818.355 134.57 819.011 134.136C819.668 133.704 820.548 134.304 820.968 135.468C821.387 136.633 822.486 137.276 823.41 136.899C824.334 136.521 825.091 136.781 825.091 137.476C825.091 138.173 826.393 138.742 827.984 138.742C830.411 138.742 830.784 139.27 830.293 142.009C829.652 145.584 830.234 145.929 833.631 143.992C835.533 142.907 835.779 143.121 835.225 145.382C834.627 147.816 835.024 148.006 839.674 147.511C842.481 147.211 845.069 147.469 845.425 148.082C845.78 148.694 844.619 149.196 842.847 149.196C839.506 149.196 836.121 151.824 836.121 154.418C836.121 155.274 835.153 155.578 833.843 155.135C831.377 154.3 829.289 156.272 828.593 160.094C828.179 162.365 827.993 162.347 825.209 159.767L822.264 157.036L825.016 154.492C826.529 153.091 828.407 151.702 829.187 151.403C829.967 151.105 830.194 150.39 829.692 149.816C829.189 149.242 827.433 149.425 825.789 150.223C823.538 151.317 822.67 151.289 822.268 150.108C821.856 148.901 821.145 148.914 819.159 150.163C816.948 151.555 816.4 151.416 815.279 149.183C813.097 144.836 801.907 146.806 803.509 151.257C804.266 153.359 802.354 153.815 801.191 151.81C800.774 151.091 799.364 150.503 798.055 150.503C796.746 150.503 795.676 151.091 795.676 151.81C795.676 152.528 796.151 153.116 796.731 153.116C797.312 153.116 797.524 154.586 797.202 156.383C796.785 158.708 797.153 159.65 798.478 159.65C799.501 159.65 800.897 161.359 801.58 163.447C802.262 165.535 803.912 167.613 805.244 168.064C807.83 168.939 809.787 174.107 807.983 175.296C807.388 175.688 806.531 177.578 806.08 179.496C805.629 181.413 804.62 183.241 803.838 183.557C801.832 184.371 796.901 182.227 796.901 180.541C796.901 179.769 796.213 179.231 795.369 179.348C791.673 179.859 789.548 179.108 789.548 177.29C789.548 176.212 788.996 175.33 788.322 175.33C787.648 175.33 787.097 175.939 787.097 176.683C787.097 177.596 786.29 177.575 784.62 176.623C783.258 175.845 781.603 175.566 780.943 176.001C778.642 177.516 779.775 180.594 784.426 185.459C789.093 190.342 791.629 194.931 789.659 194.931C789.088 194.931 786.642 194.049 784.221 192.971C781.802 191.893 778.374 191.011 776.603 191.011C774.416 191.011 773.18 190.173 772.745 188.397C772.263 186.433 771.073 185.784 767.956 185.784C764.955 185.784 763.81 185.201 763.81 183.671C763.81 182.133 763.061 181.761 761.052 182.3C758.543 182.973 758.488 182.886 760.44 181.328C761.619 180.386 762.584 179.197 762.584 178.686C762.584 177.118 759.55 174.417 756.705 173.455C753.836 172.484 753.21 170.782 755.231 169.45C757.902 167.689 756.353 165.879 752.819 166.633C750.133 167.205 748.868 166.82 747.985 165.163C746.925 163.174 746.463 163.128 743.961 164.76C741.445 166.402 741.306 166.383 742.689 164.598C743.544 163.495 746.998 162.204 750.365 161.727C753.732 161.252 757.307 160.527 758.309 160.116C760.755 159.115 760.626 156.211 758.09 155.173C755.258 154.015 757.119 152.537 764.727 149.906C768.612 148.562 772.599 148.018 774.794 148.532C777.99 149.28 778.255 149.68 776.988 151.844C775.03 155.185 776.614 156.478 780.408 154.635C782.128 153.8 785.201 153.116 787.235 153.116C791.842 153.116 795.676 151.018 795.676 148.497C795.676 147.444 794.612 146.583 793.312 146.583C792.012 146.583 790.121 145.701 789.11 144.623C788.099 143.545 786.473 142.663 785.496 142.663C784.519 142.663 783.034 143.545 782.194 144.623C780.495 146.805 776.593 147.241 775.507 145.37C775.121 144.704 775.915 143.781 777.273 143.322C779.309 142.634 779.743 141.355 779.743 136.041C779.743 132.496 779.209 129.596 778.555 129.596C777.903 129.596 777.717 128.626 778.143 127.442C778.77 125.703 778.313 125.413 775.766 125.932C773.47 126.399 772.785 126.096 773.245 124.818C773.65 123.693 772.957 123.062 771.318 123.062C769.611 123.062 768.503 121.975 767.991 119.795C767.568 117.998 766.705 116.528 766.072 116.528C765.441 116.528 763.597 115.205 761.975 113.588C755.929 107.562 755.357 107.272 751.559 108.321C748.204 109.247 746.298 111.955 749.001 111.955C749.619 111.955 750.583 112.471 751.146 113.101C752.482 114.6 729.586 112.753 726.746 111.133C725.209 110.256 724.589 110.384 724.588 111.583C724.587 112.746 722.608 113.241 718.153 113.192C708.067 113.083 701.774 112.463 703.448 111.743C707.247 110.109 704.452 108.673 698.655 109.278C690.893 110.089 686.531 109.084 687.395 106.682C687.866 105.373 688.815 105.236 691.07 106.149C694.867 107.689 698.937 107.698 701.196 106.173C704.42 103.997 699.691 100.853 693.118 100.805L687.209 100.76L690.273 98.2057C691.958 96.7997 694.164 94.8188 695.176 93.8035Z" fill="#2C4395"/>
<path d="M765.955 82.5344C764.841 82.5201 764.808 82.2522 765.831 81.5544C767.264 80.577 780.662 80.8331 785.43 81.9281C786.872 82.26 788.357 83.376 788.728 84.4096C789.284 85.9567 787.469 86.2873 778.445 86.2873C769.765 86.2873 767.487 85.8992 767.487 84.4214C767.487 83.3943 766.798 82.5449 765.955 82.5344Z" fill="#2C4395"/>
<path d="M515.433 89.1242C518.908 88.3532 525.061 86.9185 529.105 85.9358C539.042 83.5223 542.518 83.6085 536.765 86.1252C534.238 87.2307 532.169 89.0027 532.169 90.0637C532.169 91.5808 533.15 91.8003 536.765 91.0908C539.294 90.5956 541.886 89.6482 542.526 88.9857C543.165 88.3232 545.923 87.8188 548.654 87.8645L553.617 87.9481L549.634 90.0611C547.443 91.224 545.651 92.7293 545.651 93.4075C545.651 94.1158 547.346 94.2504 549.634 93.7237C551.826 93.2181 555.823 92.4798 558.52 92.0813C561.216 91.6827 564.388 90.4609 565.567 89.3672C567.494 87.5783 567.712 87.5874 567.712 89.4534C567.712 90.5955 567.144 93.1214 566.452 95.0644C564.85 99.5569 565.388 100.052 570.718 98.9859C573.785 98.3718 575.066 97.4231 575.066 95.7648C575.066 92.9737 580.022 86.4742 582.152 86.4742C582.973 86.4742 583.645 86.0037 583.645 85.4301C583.645 83.6739 592.369 85.3569 593.049 87.2438C593.398 88.216 592.528 90.5772 591.116 92.4915C589.703 94.4072 588.547 96.771 588.547 97.7458C588.547 98.7219 587.444 100.253 586.096 101.151C584.748 102.049 583.645 104.056 583.645 105.612C583.645 107.793 584.837 108.842 588.854 110.197C594.25 112.018 595.033 114.872 589.945 114.17C588.352 113.95 586.019 114.767 584.758 115.984C582.895 117.782 582.119 117.89 580.619 116.561C579.103 115.22 578.621 115.346 577.931 117.261C577.469 118.545 576.022 120.736 574.715 122.129C572.519 124.471 571.787 124.539 565.085 123.023C561.064 122.112 557.349 120.46 556.748 119.314C555.77 117.452 555.193 117.492 550.963 119.713C548.378 121.069 543.782 122.628 540.748 123.178C525.264 125.981 506.877 128.382 503.568 128.03C500.016 127.654 499.94 127.527 501.987 125.359C505.181 121.975 503.375 120.449 496.175 120.449C489.949 120.449 484.025 117.769 485.879 115.79C487.337 114.236 506.294 112.813 516.849 113.467C527.985 114.155 531.939 112.709 527.873 109.434C525.964 107.896 521.561 107.456 507.759 107.423C498.041 107.4 490.503 106.94 491.007 106.401C491.512 105.863 497.808 104.539 505 103.461C519.157 101.339 522.097 98.7363 509.895 99.1284C504.785 99.2917 501.86 98.7742 500.66 97.495C499.134 95.8681 499.212 95.6211 501.254 95.6211C502.547 95.6211 504.844 94.4752 506.36 93.0744C507.875 91.6723 511.958 89.8951 515.433 89.1242Z" fill="#2C4395"/>
<path d="M645.747 103.075C646.603 103.425 648.774 102.479 650.569 100.973C654.31 97.8373 658.407 97.3656 658.407 100.072C658.407 101.266 659.265 101.671 660.858 101.227C663.703 100.434 664.249 103.16 661.471 104.295C659.428 105.131 658.932 108.688 660.858 108.688C661.533 108.688 662.084 109.217 662.084 109.864C662.084 110.511 659.326 111.746 655.956 112.608C651.797 113.672 649.783 114.869 649.686 116.332C649.563 118.197 649.468 118.179 648.983 116.202C648.253 113.222 647.535 113.315 643.917 116.855C641.83 118.898 640.745 119.296 640.365 118.162C640.065 117.264 638.807 116.528 637.569 116.528C634.581 116.528 631.444 115.19 631.444 113.918C631.444 113.353 633.65 111.951 636.346 110.801C641.045 108.797 642.931 106.126 639.717 106.029C638.875 106.003 639.535 105.185 641.187 104.21C642.838 103.234 644.89 102.723 645.747 103.075Z" fill="#2C4395"/>
<path d="M818.35 110.444C814.933 110.998 814.19 110.881 815.898 110.056C818.252 108.919 824.816 108.179 823.763 109.168C823.483 109.432 821.046 110.007 818.35 110.444Z" fill="#2C4395"/>
<path d="M399.19 118.472C402.661 118.461 406.913 117.493 408.995 116.237C414.64 112.833 418.187 113.213 418.187 117.222C418.187 121.294 421.064 122.65 425.721 120.775C427.644 120.002 429.218 119.863 429.218 120.467C429.218 122.663 433.646 122.56 439.635 120.225C447.159 117.293 451.231 117.22 457.14 119.911C468.405 125.043 476.467 127.152 481.978 126.407C485.717 125.903 488.299 126.237 489.82 127.424C491.92 129.06 491.78 129.257 487.932 130.078C482.962 131.137 477.017 133.819 477.017 135.001C477.017 137.842 494.984 139.285 506.312 137.352C509.955 136.731 513.748 136.709 514.743 137.302C515.737 137.896 517.446 141.172 518.538 144.581C519.631 147.991 521.077 150.572 521.751 150.316C522.425 150.06 522.901 149.115 522.807 148.216C522.713 147.318 523.9 146.583 525.443 146.583C527.674 146.583 528.471 145.582 529.332 141.698C530.122 138.139 531.235 136.564 533.438 135.893C535.1 135.386 539.585 134.016 543.407 132.848C549.733 130.915 550.687 130.909 554.07 132.773C556.114 133.901 559.081 134.822 560.665 134.822C562.249 134.822 564.068 135.363 564.709 136.023C565.349 136.684 572.65 137.42 580.931 137.657C592.505 137.989 596.223 137.685 597 136.346C597.806 134.957 598.168 135.041 598.787 136.76C599.838 139.679 606.151 138.916 606.705 135.802C606.994 134.177 606.288 133.486 604.263 133.412C601.686 133.32 601.755 133.179 604.986 131.925C607.99 130.762 608.823 130.931 610.237 132.994C611.38 134.66 611.487 135.599 610.572 135.924C609.83 136.188 608.721 137.816 608.104 139.542C607.489 141.27 606.284 142.531 605.426 142.345C604.569 142.161 603.923 142.745 603.99 143.643C604.057 144.542 604.195 146.543 604.296 148.092C604.469 150.735 604.618 150.776 606.722 148.745C607.955 147.556 609.435 146.583 610.013 146.583C611.697 146.583 616.736 141.059 616.736 139.214C616.736 137.185 620.566 134.822 623.857 134.822C627.957 134.822 639.822 128.517 641.314 125.547C642.221 123.74 643.044 123.237 643.58 124.162C644.143 125.134 645.886 124.503 648.854 122.253C651.81 120.011 654.116 119.173 655.783 119.736C658.627 120.699 660.722 125.942 658.57 126.706C656.995 127.266 656.642 133.516 658.185 133.516C658.738 133.516 662.147 131.164 665.761 128.289C673.04 122.499 673.476 122.337 675.345 124.74C676.991 126.853 675.757 128.976 672.194 130.161C667.194 131.825 666.344 137.965 670.301 143.862C670.665 144.406 675.731 142.139 679.243 139.86C680.254 139.204 682.701 137.655 684.681 136.418C686.66 135.182 689.581 132.845 691.17 131.229C692.761 129.611 695.158 128.289 696.5 128.289C700.028 128.289 705.516 124.222 703.649 122.993C702.837 122.457 702.511 121.077 702.925 119.927C703.478 118.393 705.321 117.835 709.845 117.835C713.236 117.835 716.011 118.423 716.011 119.142C716.011 119.861 717.067 120.449 718.361 120.449C722.634 120.449 721.931 123.659 717.347 125.068L712.947 126.422L713.136 133.84C713.304 140.405 713.022 141.352 710.685 142.064C709.232 142.508 706.185 143.767 703.912 144.863C701.639 145.959 698.142 147.358 696.141 147.969C693.052 148.914 692.619 148.761 693.268 146.956C693.689 145.788 693.325 144.352 692.46 143.767C690.355 142.344 685.183 142.416 682.983 143.9C681.563 144.858 681.868 145.416 684.515 146.703C686.334 147.586 687.821 148.655 687.819 149.08C687.813 150.563 680.587 150.106 680.041 148.587C679.711 147.67 677.344 147.172 674.156 147.348C669.667 147.598 668.84 148.065 668.914 150.306C668.983 152.317 667.298 153.783 662.02 156.309C654.316 159.995 651.054 160.5 651.054 158.009C651.054 155.556 645.133 153.406 637.878 153.227C632.875 153.103 631.444 153.51 631.444 155.053C631.444 156.475 632.748 157.036 636.051 157.036C639.29 157.036 641.102 157.793 642.149 159.581C643.248 161.456 645.289 162.228 649.912 162.521L656.185 162.917L647.489 167.821C640.002 172.043 638.018 172.625 633.213 172.01C628.583 171.418 627.28 171.753 625.556 173.977C624.412 175.451 622.098 176.757 620.413 176.881C616.543 177.164 604.383 174.118 602.284 172.339C601.193 171.417 600.283 171.443 599.363 172.423C597.487 174.423 599.154 178.397 601.473 177.449C602.55 177.008 603.654 177.535 604.07 178.686C604.567 180.071 605.788 180.47 608.006 179.973C609.775 179.578 611.981 179.776 612.91 180.413C616.018 182.545 612.979 184.477 606.518 184.477C601.639 184.477 599.624 185.097 598.024 187.091C596.869 188.528 594.816 189.704 593.462 189.704C592.107 189.704 590.999 190.253 590.999 190.923C590.999 192.163 586.237 194.355 584.564 193.883C584.058 193.741 583.645 194.442 583.645 195.443C583.645 196.443 582.405 197.595 580.887 198.004C579.37 198.413 575.648 201.106 572.614 203.989C569.581 206.872 566.548 209.25 565.873 209.272C565.199 209.296 561.975 212.841 558.708 217.15C555.441 221.46 552.305 224.985 551.737 224.985C551.17 224.985 550.789 226.161 550.89 227.599C550.992 229.036 551.595 230.212 552.23 230.212C552.865 230.212 552.471 231.287 551.356 232.602C550.241 233.917 549.328 235.387 549.328 235.869C549.328 237.787 551.937 236.57 554.459 233.479C557.12 230.216 560.358 229.105 560.358 231.455C560.358 232.138 559.761 235.668 559.031 239.298C557.962 244.609 557.125 246.052 554.741 246.69C553.112 247.126 551.779 248.007 551.779 248.647C551.779 250.244 556.942 250.109 563.531 248.34C568.081 247.12 570.212 247.261 576.024 249.168C583.972 251.778 587.322 254.353 587.322 257.855C587.322 259.182 588.104 260.266 589.058 260.266C590.013 260.266 593.46 261.484 596.717 262.972C601.713 265.255 602.304 265.879 600.496 266.958C599.317 267.661 598.352 269.089 598.352 270.132C598.352 272.372 600.394 272.681 601.063 270.542C601.356 269.607 604.445 269.145 609.438 269.292C613.789 269.42 618.591 269.562 620.107 269.608C623.578 269.711 623.554 270.122 619.8 274.878C618.115 277.013 616.736 279.619 616.736 280.667C616.736 282.731 613.237 289.118 611.319 290.553C610.573 291.112 610.673 292.699 611.59 294.844C612.79 297.654 612.725 298.38 611.214 298.998C608.646 300.049 608.929 302.081 611.644 302.081C614.468 302.081 618.132 306.23 616.98 308.122C616.51 308.897 614.883 310.227 613.366 311.078C609.949 312.997 609.786 315.148 613.06 315.148C614.408 315.148 615.511 314.56 615.511 313.841C615.511 311.024 620.505 312.621 621.639 315.801C623.293 320.442 625.802 320.027 624.908 315.262C623.996 310.399 627.454 306.404 628.584 311.014C629.372 314.224 631.444 314.854 631.444 311.881C631.444 310.803 631.995 309.921 632.669 309.921C633.343 309.921 633.895 309.149 633.895 308.206C633.895 307.262 635.466 304.885 637.387 302.924C639.595 300.667 640.916 297.936 640.981 295.49C641.113 290.602 642.442 285.995 644.039 284.902C644.717 284.438 645.332 281.871 645.406 279.201C645.535 274.49 645.742 274.276 652.279 272.096C677.467 263.694 692.063 244.99 682.09 233.89C680.284 231.882 679.044 230.08 679.332 229.885C679.62 229.691 682.167 227.626 684.992 225.299C687.818 222.97 690.627 221.065 691.236 221.065C693.37 221.065 696.458 216.209 695.687 214.068C695.257 212.871 695.515 211.918 696.27 211.918C697.016 211.918 697.627 210.662 697.627 209.128C697.627 207.593 698.944 205.036 700.556 203.443C702.618 201.406 703.312 199.584 702.901 197.292C702.423 194.621 702.994 193.737 706.08 192.374C709.956 190.662 718.462 191.473 718.462 193.556C718.462 194.764 727.296 194.42 734.597 192.929C738.679 192.095 739.13 192.294 739.529 195.105C739.771 196.806 740.686 198.036 741.563 197.838C742.439 197.641 742.808 198.083 742.38 198.818C741.954 199.555 742.124 200.158 742.759 200.158C743.395 200.158 744.183 201.254 744.511 202.593C744.895 204.155 746.692 205.347 749.514 205.911C754.72 206.953 755.286 207.686 753.901 211.591C753.028 214.052 751.941 214.532 747.231 214.532C743.792 214.532 741.898 215.04 742.362 215.838C742.778 216.557 744.801 217.145 746.855 217.145C749.758 217.145 750.425 217.606 749.846 219.212C749.437 220.349 749.103 222.441 749.103 223.863C749.103 225.283 748.573 226.097 747.927 225.671C746.943 225.023 745.411 225.629 740.654 228.547C740.391 228.709 740.859 229.723 741.697 230.799C743.043 232.529 743.628 232.533 746.714 230.831C751.17 228.374 754.005 228.376 754.005 230.835C754.005 233.104 749.88 236.091 745.119 237.268C743.265 237.727 741.749 238.753 741.749 239.547C741.749 240.515 743.062 240.655 745.732 239.972C747.924 239.41 751.37 238.886 753.392 238.808C755.414 238.729 758.433 237.645 760.1 236.398C761.766 235.151 764.071 234.132 765.221 234.132C766.37 234.132 768.178 233.208 769.238 232.079C770.988 230.212 771.164 230.271 771.164 232.733C771.164 236.505 772.58 236.104 775.453 231.519C776.801 229.367 778.594 227.604 779.436 227.603C780.28 227.6 780.969 227.05 780.969 226.379C780.969 225.709 782.112 224.775 783.508 224.302C785.035 223.786 785.784 222.708 785.386 221.601C785.001 220.531 785.478 219.758 786.522 219.758C787.512 219.758 788.322 219.17 788.322 218.452C788.322 217.733 789.15 217.145 790.161 217.145C791.288 217.145 791.999 218.367 791.999 220.303C791.999 222.04 792.689 223.757 793.531 224.12C794.447 224.514 794.199 224.821 792.918 224.882C791.739 224.938 790.773 225.893 790.773 227.003C790.773 228.112 791.463 228.925 792.305 228.807C796.551 228.221 797.067 229.215 793.399 230.912C790.471 232.268 789.498 233.416 790.028 234.889C790.438 236.027 790.773 237.562 790.773 238.299C790.773 239.036 791.641 239.283 792.703 238.849C793.764 238.416 795.458 238.94 796.468 240.016C798.096 241.753 798.087 241.972 796.376 241.972C793.96 241.972 793.939 242.921 796.3 245.438C798.801 248.105 797.656 249.604 793.732 248.804C790.634 248.173 790.541 248.322 791.412 252.55C791.911 254.972 793.967 258.488 795.982 260.363C799.119 263.282 799.448 264.168 798.274 266.507C796.208 270.625 796.542 271.112 800.885 270.319C803.076 269.918 804.179 269.893 803.336 270.264C802.494 270.635 801.804 271.839 801.804 272.939C801.804 274.733 802.099 274.734 804.65 272.953C806.983 271.322 808.308 271.236 812.003 272.468C814.483 273.296 816.511 274.295 816.511 274.688C816.511 275.607 806.211 278.56 803.012 278.56C801.674 278.56 800.573 279.002 800.568 279.54C800.564 280.079 799.093 281.246 797.301 282.133C794.874 283.335 793.618 283.37 792.379 282.274C790.211 280.356 788.984 281.729 790.202 284.711C790.729 285.999 791.049 287.789 790.913 288.687C790.542 291.141 792.216 290.737 802.664 285.848C814.076 280.507 818.963 279.044 818.963 280.967C818.963 281.728 817.997 282.931 816.818 283.641C815.195 284.617 815.017 285.302 816.087 286.454C817.048 287.49 818.182 287.571 819.632 286.706C820.803 286.007 822.748 285.711 823.954 286.046C826.717 286.817 828.119 290.321 825.665 290.321C824.04 290.321 823.323 291.887 823.72 294.567C823.8 295.106 823.038 295.547 822.027 295.547C819.648 295.547 819.643 298.02 822.019 298.992C824.644 300.066 823.192 301.808 817.334 304.609C812.227 307.053 804.585 308.892 799.976 308.786C798.634 308.754 796.153 310.109 794.461 311.795C787.889 318.347 772.344 323.825 766.672 321.588C762.783 320.053 733.469 320.257 727.5 321.859C724.23 322.737 720.994 324.729 719.351 326.874C717.694 329.037 714.339 331.09 710.802 332.108C707.601 333.028 704.98 334.293 704.98 334.919C704.98 335.543 704.173 336.055 703.185 336.055C702.197 336.055 699.432 337.886 697.042 340.124C692.576 344.306 692.744 344.286 683.226 341.721C681.216 341.179 680.468 341.55 680.468 343.089C680.468 344.404 681.511 345.21 683.226 345.222C684.742 345.234 686.686 345.717 687.545 346.299C689.396 347.552 688.199 348.764 677.711 356.273C671.04 361.047 669.083 363.496 671.938 363.496C674.384 363.496 683.574 357.881 689.048 353.043C696.492 346.462 703.413 342.867 717.13 338.457C732.249 333.597 737.459 333.651 737.459 338.669C737.459 342.368 731.13 345.462 723.15 345.665C718.341 345.786 715.419 346.448 715.093 347.489C714.771 348.519 715.766 349.122 717.786 349.122C719.551 349.122 721.318 350.033 721.72 351.151C722.256 352.639 723.468 352.971 726.278 352.398L730.106 351.618L726.429 355.067C724.035 357.312 723.286 358.739 724.284 359.154C725.127 359.506 725.816 361.378 725.816 363.315C725.816 365.331 726.994 367.936 728.574 369.413C732.41 372.997 742.098 376.314 745.183 375.097C746.753 374.478 748.181 374.726 748.985 375.76C750.676 377.933 738.954 383.25 731.253 383.802C727.372 384.082 724.42 385.363 720.996 388.254C718.352 390.488 714.494 392.944 712.422 393.714C710.351 394.484 708.622 395.79 708.58 396.619C708.537 397.447 707.973 396.714 707.328 394.992C706.432 392.604 706.642 391.283 708.214 389.43C709.349 388.094 710.532 387.273 710.845 387.606C711.158 387.94 712.31 387.128 713.405 385.802C716.112 382.528 722.699 380.297 724.377 382.085C725.268 383.035 726.268 382.802 727.663 381.315C728.766 380.139 731.008 379.177 732.644 379.177C734.281 379.177 735.621 378.589 735.621 377.87C735.621 377.151 733 376.545 729.799 376.524C724.855 376.49 724.348 376.264 726.429 375.024C729.99 372.903 729.972 372.969 727.667 370.509C725.695 368.407 725.469 368.402 724.402 370.436C722.745 373.593 713.198 378.054 712.111 376.179C711.52 375.16 710.508 375.432 708.82 377.06C705.655 380.114 701.758 378.814 700.975 374.441C700.646 372.603 701.22 368.281 702.252 364.84C704.603 357.002 703.708 354.032 699.166 354.588C697.296 354.818 695.185 354.181 694.437 353.16C693.273 351.576 692.745 351.576 690.657 353.16C686.46 356.345 680.468 361.99 680.468 362.758C680.468 363.164 679.337 364.819 677.954 366.436C671.552 373.925 668.682 376.561 666.925 376.562C665.88 376.562 664.437 377.19 663.718 377.957C662.998 378.725 655.134 379.697 646.241 380.119C631.02 380.84 629.752 381.109 624.677 384.694C621.028 387.27 617.088 388.743 612.495 389.249C608.761 389.661 605.706 390.418 605.706 390.933C605.706 391.449 602.35 392.245 598.248 392.702C588.712 393.765 583.645 396.826 583.645 401.524C583.645 405.35 581.216 406.347 570.163 407.063C567.13 407.259 563.131 408.483 561.277 409.782C559.423 411.081 557.924 411.637 557.946 411.015C558 409.448 561.045 405.311 562.143 405.311C564.576 405.311 570.061 399.631 570.721 396.429C571.448 392.901 578.742 384.167 578.742 386.825C578.742 387.56 579.708 388.12 580.887 388.068C582.066 388.017 583.891 388.367 584.942 388.846C588.082 390.278 591.76 385.671 591.877 380.157C591.935 377.462 591.485 375.257 590.877 375.257C590.269 375.257 589.773 374.345 589.773 373.23C589.773 370.292 582.808 367.638 573.118 366.883C568.479 366.523 564.492 365.612 564.258 364.862C564.023 364.11 562.911 363.487 561.788 363.477C560.507 363.463 560.249 363.099 561.097 362.496C561.84 361.969 562.371 359.289 562.275 356.542C562.181 353.795 562.537 351.261 563.069 350.911C563.6 350.561 564.035 349.428 564.035 348.392C564.035 347.118 562.673 346.509 559.823 346.509C555.967 346.509 555.578 346.15 555.227 342.262C554.916 338.828 554.256 337.949 551.779 337.668C550.094 337.476 546.713 336.671 544.268 335.878C540.484 334.651 539.297 334.807 536.302 336.931C534.365 338.304 531.895 339.991 530.809 340.681C529.724 341.371 527.518 342.935 525.906 344.157C523.495 345.986 522.031 346.152 517.627 345.098C514.685 344.392 511.272 344.156 510.044 344.571C507.884 345.302 502.97 343.155 501.349 340.77C500.914 340.13 498.432 339.476 495.833 339.319C486.411 338.751 486.824 338.981 487.618 334.749C488.45 330.311 485.962 329.318 482.707 332.789C481.099 334.503 466.542 334.746 366.492 334.729C303.586 334.717 252.825 334.23 253.69 333.644C255.856 332.178 254.353 328.658 251.113 327.602C249.472 327.068 249.032 326.472 249.972 326.058C251.68 325.306 252.091 321.682 250.468 321.682C249.898 321.682 248.434 322.858 247.214 324.295C245.995 325.732 244.391 326.89 243.654 326.867C242.916 326.844 243.861 325.373 245.753 323.598C247.645 321.823 248.877 319.823 248.491 319.156C248.104 318.488 248.348 317.573 249.033 317.121C250.917 315.88 250.524 313.841 248.402 313.841C247.368 313.841 246.207 314.723 245.819 315.801C245.431 316.879 244.553 317.761 243.869 317.761C243.16 317.761 243.292 316.904 244.175 315.77C246.351 312.972 244.558 311.634 241.427 313.72C239.192 315.207 238.605 315.152 237.364 313.343C236.566 312.179 235.285 311.228 234.517 311.228C233.748 311.228 233.119 310.64 233.119 309.921C233.119 309.203 234.791 308.614 236.834 308.614C239.206 308.614 240.841 307.808 241.352 306.385C241.793 305.16 243.018 303.083 244.072 301.77C245.126 300.457 246.036 298.961 246.094 298.446C246.153 297.93 246.634 296.453 247.165 295.165C248.627 291.612 247.117 291.077 244.252 294.132C242.847 295.63 240.761 296.854 239.615 296.854C238.018 296.854 237.869 296.495 238.973 295.317C240.069 294.149 240.074 293.342 238.991 291.951C237.892 290.539 237.968 289.855 239.326 288.956C240.39 288.252 241.248 288.291 241.494 289.056C241.72 289.751 242.408 290.321 243.026 290.321C244.726 290.321 244.372 285.407 242.618 284.652C241.702 284.259 241.95 283.952 243.231 283.89C245.727 283.77 246.191 279.867 243.709 279.867C242.791 279.867 240.033 281.319 237.581 283.095C233.39 286.126 233.119 286.168 233.119 283.788C233.119 282.074 233.714 281.499 234.958 282.007C235.969 282.422 236.796 282.109 236.796 281.313C236.796 280.518 237.624 279.867 238.635 279.867C240.86 279.867 241.075 277.73 238.941 276.812C238.072 276.438 238.395 276.109 239.685 276.05C241.186 275.982 241.721 275.28 241.255 273.987C240.778 272.66 241.316 272.027 242.919 272.027C244.224 272.027 245.879 270.851 246.601 269.413C247.323 267.976 248.659 266.8 249.572 266.8C251.404 266.8 253.186 259.137 252.074 256.046C251.686 254.968 249.989 253.417 248.304 252.597C246.617 251.778 245.601 250.482 246.045 249.715C247.411 247.359 250.261 231.24 249.534 229.985C249.157 229.335 248.848 226.18 248.848 222.974C248.848 217.516 248.638 217.145 245.546 217.145C243.73 217.145 239.055 218.909 235.158 221.065C231.259 223.221 227.613 224.985 227.054 224.985C225.435 224.985 224.115 215.336 225.659 214.788C226.392 214.526 226.991 213.413 226.991 212.311C226.991 210.643 225.848 210.462 220.11 211.227L213.227 212.144L224.847 201.25C244.547 182.781 275.711 155.25 295.626 138.722C297.311 137.323 302.249 133.162 306.6 129.475C310.951 125.789 315.783 121.883 317.339 120.798C320.775 118.396 326.226 119.309 331.26 123.131C333.219 124.618 336.896 126.176 339.429 126.59C341.964 127.006 345.003 127.872 346.182 128.516C347.778 129.388 348.327 129.166 348.327 127.649C348.327 125.802 348.676 125.801 352.004 127.635C355.229 129.414 355.681 129.423 355.681 127.715C355.681 125.635 359.369 122.994 362.034 123.165C363.27 123.244 363.288 123.423 362.115 123.927C361.273 124.29 360.583 125.466 360.583 126.542C360.583 128.065 361.462 128.293 364.566 127.575C366.758 127.068 368.826 126.276 369.163 125.815C370.422 124.09 380.768 121.938 381.524 123.244C381.973 124.017 384.431 123.325 387.667 121.512C391.193 119.537 395.185 118.483 399.19 118.472Z" fill="#2C4395"/>
<path d="M827.848 114.78C827.006 115.143 825.627 115.143 824.784 114.78C823.942 114.418 824.631 114.122 826.316 114.122C828.001 114.122 828.691 114.418 827.848 114.78Z" fill="#2C4395"/>
<path d="M613.204 120.449C614.552 120.449 615.315 119.861 614.898 119.142C613.832 117.303 618.179 117.589 620.489 119.51C623.972 122.407 624.121 125.24 620.872 126.82C617.042 128.679 611.003 128.719 609.943 126.891C609.497 126.121 607.948 124.983 606.5 124.36L603.867 123.228L606.553 123.144C608.03 123.1 609.579 122.474 609.996 121.755C610.412 121.037 611.856 120.449 613.204 120.449Z" fill="#2C4395"/>
<path d="M580.202 123.042C578.416 123.024 578.383 122.846 579.968 121.755C582.368 120.101 583.99 120.101 583.032 121.755C582.615 122.474 581.342 123.053 580.202 123.042Z" fill="#2C4395"/>
<path d="M552.672 126.465C552.266 126.898 551.208 126.946 550.324 126.568C549.346 126.151 549.637 125.841 551.064 125.779C552.356 125.722 553.079 126.031 552.672 126.465Z" fill="#2C4395"/>
<path d="M543.506 129.154C542.664 129.517 541.285 129.517 540.442 129.154C539.6 128.792 540.289 128.495 541.974 128.495C543.659 128.495 544.349 128.792 543.506 129.154Z" fill="#2C4395"/>
<path d="M749.337 140.031C744.619 140.052 745.056 138.435 750.768 134.722C752.886 133.344 756.423 132.217 758.629 132.214C762.581 132.209 762.611 132.256 760.716 135.34C758.618 138.754 755.587 140.003 749.337 140.031Z" fill="#2C4395"/>
<path d="M656.824 172.942C657.218 171.741 660.356 167.678 663.796 163.915C670.215 156.894 671.876 155.82 671.907 158.67C671.918 159.569 672.47 161.185 673.133 162.263C674.207 164.005 674.476 164.005 675.566 162.263C676.335 161.031 677.133 160.789 677.711 161.612C678.217 162.331 680.009 163.688 681.694 164.624C683.379 165.563 685.861 167.214 687.209 168.298C689.523 170.156 689.54 170.36 687.516 171.962C684.302 174.504 684.888 175.33 689.905 175.33C693.265 175.33 694.082 175.712 693.061 176.8C691.077 178.916 683.796 177.134 681.69 174.017C679.828 171.264 675.015 170.494 673.713 172.742C672.851 174.227 663.036 179.701 658.608 181.165C656.025 182.019 655.875 181.852 657.076 179.459C658.981 175.667 658.798 175.345 655.037 175.84C653.182 176.084 652.665 176.024 653.886 175.707C655.107 175.388 656.429 174.144 656.824 172.942Z" fill="#2C4395"/>
<path d="M724.182 170.084C718.3 170.109 718.693 167.979 725.294 164.042C727.94 162.463 731.209 161.41 732.557 161.7C733.905 161.99 736.041 162.236 737.302 162.245C739.203 162.261 739.336 162.6 738.072 164.223C737.232 165.301 737.028 166.209 737.616 166.241C740.874 166.416 728.109 170.067 724.182 170.084Z" fill="#2C4395"/>
<path d="M712.002 181.346C711.595 181.78 710.537 181.827 709.654 181.45C708.676 181.033 708.966 180.723 710.394 180.66C711.686 180.604 712.409 180.913 712.002 181.346Z" fill="#2C4395"/>
<path d="M665.148 190.97C663.118 190.97 663.013 190.753 664.535 189.704C665.546 189.008 667.477 188.438 668.825 188.438C670.855 188.438 670.96 188.655 669.438 189.704C668.427 190.401 666.496 190.97 665.148 190.97Z" fill="#2C4395"/>
<path d="M690.273 194.931C686.274 198.267 684.378 198.267 687.209 194.931C688.429 193.494 690.307 192.331 691.382 192.346C692.805 192.367 692.504 193.07 690.273 194.931Z" fill="#2C4395"/>
<path d="M621.945 292.492C621.103 292.856 619.724 292.856 618.881 292.492C618.039 292.13 618.728 291.834 620.413 291.834C622.098 291.834 622.789 292.13 621.945 292.492Z" fill="#2C4395"/>
<path d="M237.204 305.084C235.708 304.471 235.67 304.125 237 303.226C239.444 301.574 240.478 301.852 239.721 303.959C239.349 304.991 238.217 305.498 237.204 305.084Z" fill="#2C4395"/>
<path d="M809.736 316.521C811.066 314.406 813.272 312.096 814.638 311.386C816.005 310.678 817.261 310.058 817.43 310.01C817.6 309.96 817.737 311.195 817.737 312.753C817.737 314.309 817.448 315.275 817.093 314.898C816.152 313.894 804.255 327.046 804.255 329.091C804.255 331.458 805.167 331.282 808.845 328.197C810.571 326.749 812.312 325.948 812.716 326.416C813.117 326.884 812.758 327.529 811.915 327.849C811.073 328.171 810.383 329.541 810.383 330.896C810.383 332.549 810.989 333.113 812.222 332.608C813.497 332.086 814.06 332.698 814.06 334.609C814.06 337.438 816.346 338.269 818.411 336.19C819.051 335.546 822.057 334.635 825.091 334.168L830.606 333.319L827.217 335.654C825.354 336.94 824.095 338.732 824.421 339.637C824.747 340.541 824.42 341.282 823.693 341.282C822.914 341.282 822.675 342.56 823.108 344.4C823.682 346.844 823.247 347.73 821.095 348.498C816.888 350.001 809.856 350.233 809.052 348.896C808.64 348.212 805.884 348.588 802.593 349.78C799.435 350.922 796.297 351.491 795.619 351.046C794.942 350.599 790.816 350.211 786.452 350.185C782.088 350.157 778.517 349.917 778.517 349.652C778.517 349.385 781.317 347.654 784.738 345.805C789.865 343.036 790.704 342.115 789.504 340.571C788.358 339.1 788.43 338.543 789.839 337.966C790.826 337.562 792.405 337.408 793.348 337.623C794.438 337.873 795.027 336.944 794.966 335.075C794.912 333.448 795.596 332.135 796.498 332.135C797.394 332.135 798.127 331.104 798.127 329.845C798.127 327.567 804.321 320.379 806.29 320.371C806.856 320.37 808.406 318.637 809.736 316.521Z" fill="#2C4395"/>
<path d="M219.336 322.598L222.732 321.117C225.138 320.069 227.685 320.022 231.462 320.956C236.557 322.216 236.796 322.489 236.796 327.046C236.796 330.427 237.538 332.342 239.346 333.621C241.335 335.03 241.709 336.211 241.05 339.007C240.124 342.944 238.412 343.483 235.082 340.886C233.096 339.339 233.075 339.028 234.848 337.46C237.013 335.543 237.477 332.135 235.571 332.135C234.897 332.135 234.345 332.723 234.345 333.442C234.345 334.161 233.242 334.749 231.894 334.749C230.546 334.749 229.443 333.984 229.443 333.049C229.443 328.85 226.221 324.116 222.857 323.374L219.336 322.598Z" fill="#2C4395"/>
<path d="M755.266 333.442C754.048 333.442 751.749 332.225 750.158 330.737L747.264 328.034L750.941 328.872C752.963 329.334 756.272 330.899 758.295 332.352C760.317 333.804 760.962 334.644 759.726 334.217C758.492 333.791 756.484 333.442 755.266 333.442Z" fill="#2C4395"/>
<path d="M825.24 358.269C826.137 358.269 826.029 357.501 824.934 356.065C823.453 354.125 823.52 353.968 825.497 354.758C826.732 355.252 828.254 355.656 828.878 355.656C829.503 355.656 829.325 356.832 828.483 358.269C826.888 360.991 823.865 361.847 823.865 359.576C823.865 358.858 824.484 358.269 825.24 358.269Z" fill="#2C4395"/>
<path d="M752.779 372.352C752.779 371.629 755.124 368.812 757.988 366.091C760.853 363.37 763.458 361.412 763.776 361.739C764.094 362.067 761.751 364.885 758.567 368C755.384 371.117 752.779 373.076 752.779 372.352Z" fill="#2C4395"/>
<path d="M211.572 109.59C214.774 109.531 219.874 108.72 222.907 107.787C230.382 105.488 230.258 105.488 230.258 107.721C230.258 110.045 231.381 110.173 235.842 108.352C238.155 107.407 239.621 107.441 240.773 108.468C241.723 109.315 243.974 109.56 246.137 109.049C248.492 108.494 249.863 108.693 249.863 109.591C249.863 110.372 250.933 111.011 252.242 111.011C253.55 111.011 254.934 111.558 255.318 112.225C255.705 112.897 260.017 113.113 264.991 112.709C270.389 112.271 275.677 112.587 278.261 113.503C280.623 114.339 289.123 115.333 297.149 115.711C306.982 116.173 312.281 116.973 313.4 118.164C315.189 120.071 316.537 118.77 288.46 142.217C275.051 153.416 275.606 152.93 261.415 165.839C255.976 170.787 249.121 176.909 246.181 179.442C243.243 181.975 235.228 189.378 228.371 195.892C221.515 202.406 214.723 208.766 213.279 210.025C209.546 213.282 209.901 216.285 214.023 216.309C216.649 216.325 216.987 216.612 215.555 217.605C213.049 219.345 207.285 219.254 206.731 217.468C206.449 216.56 202.252 215.994 195.564 215.962C184.888 215.909 180.792 214.49 186.71 212.895C188.423 212.433 189.823 211.232 189.823 210.225C189.823 207.955 189.877 207.954 184.347 210.434C181.845 211.558 180.157 211.854 180.594 211.092C181.033 210.332 180.696 209.709 179.848 209.709C178.649 209.709 178.633 209.358 179.776 208.13C182.383 205.33 181.349 204.132 177.072 204.994C174.397 205.532 172.729 205.296 172.43 204.335C172.098 203.265 170.299 203.443 166.148 204.956C159.709 207.304 155.515 207.687 155.515 205.926C155.515 205.293 157.169 204.419 159.191 203.985C161.213 203.55 162.867 202.513 162.867 201.682C162.867 200.658 161.576 200.474 158.884 201.109C156.695 201.628 152.731 202.287 150.077 202.574C147.423 202.862 144.694 203.697 144.012 204.43C143.33 205.161 141.772 205.761 140.549 205.761C138.214 205.761 137.235 206.186 128.928 210.8C126.099 212.371 122.712 213.657 121.401 213.657C120.09 213.657 118.701 214.545 118.312 215.631C117.925 216.717 116.212 217.605 114.505 217.605C112.8 217.605 111.404 218.05 111.403 218.592C111.403 219.134 107.13 219.593 101.907 219.612C91.8212 219.647 84.4473 221.957 84.4473 225.084C84.4473 226.584 85.5966 226.793 89.9771 226.088C94.757 225.318 95.4039 225.485 94.7472 227.324C94.2791 228.632 94.6271 229.459 95.6502 229.478C97.9195 229.517 88.0154 234.256 79.078 237.407C72.9111 239.582 71.1368 239.736 67.6949 238.399C65.4514 237.529 63.622 236.491 63.6269 236.093C63.6331 235.696 66.9414 233.771 70.9788 231.815C75.0174 229.858 78.3208 227.575 78.3208 226.739C78.3208 225.813 77.4827 225.584 76.1765 226.152C68.1912 229.629 67.1681 229.769 65.6867 227.593C64.3315 225.601 63.8107 225.639 59.1252 228.071C56.3254 229.524 53.7534 231.464 53.4091 232.383C53.0648 233.302 52.7389 232.733 52.6862 231.119C52.5661 227.475 48.0105 225.98 42.8813 227.9C39.9369 229.003 39.3794 228.915 39.91 227.429C40.269 226.423 41.6144 225.243 42.8997 224.805C44.1863 224.367 45.2376 223.252 45.2376 222.327C45.2376 219.503 50.5542 213.887 54.121 212.945C55.9737 212.457 57.4906 211.232 57.4906 210.225C57.4906 209.217 57.2823 208.393 57.0275 208.393C55.5056 208.393 46.6516 213.026 44.174 215.119C42.4415 216.583 39.2826 217.605 36.4951 217.605C32.6243 217.605 31.7593 217.139 31.7593 215.051C31.7593 212.108 34.1082 210.061 35.2661 211.995C36.3333 213.78 43.4548 213.161 45.789 211.079C48.8032 208.393 48.1869 205.577 44.7855 206.493C42.3973 207.138 41.7786 206.693 41.297 203.986C40.791 201.142 41.558 200.201 46.9469 197.051C50.3765 195.047 54.7031 193.531 56.5618 193.683C58.4206 193.835 59.9412 193.358 59.9412 192.623C59.9412 191.887 60.7414 191.286 61.7179 191.286C62.6957 191.286 63.9982 190.321 64.6133 189.141C65.411 187.61 67.347 187.031 71.3868 187.118C74.4978 187.185 79.399 186.338 82.2773 185.234C85.1555 184.129 90.1351 182.979 93.3418 182.678C100.167 182.036 105.371 179.429 108.586 175.04C109.85 173.313 112.055 171.501 113.485 171.014C116.424 170.013 119.46 166.599 118.413 165.476C117.617 164.621 104.507 167.455 101.295 169.175C100.116 169.806 99.1509 169.823 99.1509 169.213C99.1509 168.602 94.1799 168.359 88.1036 168.671C78.2889 169.175 77.142 169 77.8196 167.102C78.2803 165.812 79.9872 164.966 82.1278 164.966C86.42 164.966 86.9677 161.657 82.9157 160.214C80.3879 159.314 80.5153 159.134 84.4473 158.05C86.806 157.399 91.4928 156.386 94.8624 155.798C98.2319 155.21 103.105 154.029 105.692 153.174C109.671 151.858 110.612 151.934 111.818 153.674C114.134 157.016 134.567 156.791 135.616 153.412C135.843 152.683 137.14 152.399 138.5 152.78C141.081 153.505 146.938 150.847 146.938 148.952C146.938 148.351 145.335 147.859 143.377 147.859C140.335 147.859 139.916 147.445 140.505 145.025C141.154 142.362 140.886 142.246 136.01 143.083C131.135 143.92 130.874 143.808 131.645 141.199C132.213 139.276 131.628 137.465 129.739 135.306L127.012 132.188L131.155 130.286C133.434 129.24 139.879 127.751 145.478 126.974C152.042 126.065 159.444 123.855 166.309 120.757C172.553 117.939 180.439 115.5 185.373 114.861C190.002 114.261 194.073 113.467 194.418 113.095C194.764 112.723 196.077 113.012 197.336 113.735C198.887 114.628 199.626 114.612 199.626 113.689C199.626 112.941 201.004 112.327 202.689 112.327C204.374 112.327 205.752 111.735 205.752 111.011C205.752 110.288 208.371 109.648 211.572 109.59Z" fill="#475B7F"/>
<path d="M134.052 214.456C136.063 212.931 139.371 211.036 141.404 210.245C143.437 209.453 147.03 208.975 149.388 209.182C151.747 209.388 154.389 209.592 155.258 209.633C156.212 209.679 155.619 211.123 153.764 213.27C151.413 215.994 149.7 216.762 146.484 216.529C144.172 216.362 139.449 217.424 135.986 218.888C128.812 221.925 128.121 222.062 129.171 220.237C129.587 219.513 129.206 218.874 128.324 218.817C127.226 218.746 127.301 218.479 128.558 217.971C129.569 217.563 132.042 215.981 134.052 214.456Z" fill="#475B7F"/>
<path d="M15.4517 217.585C13.2694 217.568 13.1114 217.326 14.605 216.289C17.0189 214.614 19.8579 214.614 18.8936 216.289C18.477 217.013 16.9282 217.596 15.4517 217.585Z" fill="#475B7F"/>
<path d="M216.417 224.68C213.738 223.728 213.74 223.714 216.78 222.768C218.465 222.244 220.473 221.757 221.244 221.685C223.21 221.5 224.472 225.661 222.947 227.3C221.038 229.35 221.407 230.494 224.294 231.478C226.346 232.178 226.543 232.615 225.213 233.52C222.615 235.288 222.285 235.047 220.646 230.177C219.771 227.576 217.966 225.231 216.417 224.68Z" fill="#475B7F"/>
<path d="M235.262 228.526C234.069 228.004 234.832 227.022 237.713 225.373C243.831 221.874 244.512 222.337 240.207 227.067C238.104 229.375 236.385 231.744 236.385 232.331C236.385 232.916 235.452 233.397 234.313 233.397C232.497 233.397 232.535 233.141 234.619 231.34C236.522 229.695 236.651 229.132 235.262 228.526Z" fill="#475B7F"/>
<path d="M244.174 233.946C241.168 235.184 240.89 234.088 243.065 229.571C245.502 224.509 246.187 224.451 246.187 229.308C246.187 231.625 245.399 233.44 244.174 233.946Z" fill="#475B7F"/>
<path d="M246.872 238.661C246.574 238.661 245.991 238.068 245.575 237.345C245.158 236.621 245.402 236.029 246.115 236.029C246.828 236.029 247.413 236.621 247.413 237.345C247.413 238.068 247.17 238.661 246.872 238.661Z" fill="#475B7F"/>
<path d="M54.7263 244.168C55.1527 242.948 56.3621 241.229 57.4147 240.348C59.9988 238.183 60.3395 238.251 62.1076 241.293C63.4039 243.523 63.3316 243.925 61.6285 243.925C60.522 243.925 57.8987 245.044 55.7973 246.414C53.6959 247.784 50.0469 249.333 47.6882 249.857C45.3295 250.379 42.8483 251.247 42.1743 251.782C41.5004 252.318 38.2803 253.456 35.0173 254.312C31.7556 255.167 27.6202 256.97 25.8276 258.319C24.0362 259.666 20.0882 261.156 17.0556 261.627C8.8657 262.898 12.2463 260.511 24.4074 256.434C30.1357 254.514 37.528 251.418 40.8351 249.556C44.1409 247.692 48.4454 246.217 50.3998 246.276C52.674 246.346 54.2313 245.587 54.7263 244.168Z" fill="#475B7F"/>
<path d="M233.934 243.092C233.934 242.343 234.302 241.336 234.752 240.854C235.2 240.371 235.853 240.282 236.201 240.657C236.549 241.031 236.181 242.037 235.384 242.894C234.505 243.838 233.934 243.915 233.934 243.092Z" fill="#475B7F"/>
<path d="M244.974 247.841C242.961 253.06 241.977 252.003 243.063 245.788C243.664 242.339 244.286 241.356 245.224 242.364C246.163 243.372 246.092 244.944 244.974 247.841Z" fill="#475B7F"/>
<path d="M75.8702 247.872C74.4427 247.872 73.6156 247.28 74.0322 246.556C74.4488 245.833 75.2759 245.241 75.8702 245.241C76.4644 245.241 77.2915 245.833 77.7081 246.556C78.1247 247.28 77.2976 247.872 75.8702 247.872Z" fill="#475B7F"/>
<path d="M224.132 248.53C223.458 248.978 222.907 248.716 222.907 247.95C222.907 247.184 223.458 246.556 224.132 246.556C224.806 246.556 225.357 246.817 225.357 247.137C225.357 247.457 224.806 248.083 224.132 248.53Z" fill="#475B7F"/>
<path d="M245.366 258.962C243.282 259.821 241.339 257.796 241.304 254.73C241.291 253.519 241.725 253.425 242.818 254.401C243.661 255.154 245.66 256.842 247.262 258.153L250.173 260.537L247.121 264.075C245.442 266.02 243.77 267.612 243.405 267.612C242.029 267.612 244.052 262.499 245.696 261.823C246.639 261.434 247.413 260.441 247.413 259.616C247.413 258.758 246.539 258.479 245.366 258.962Z" fill="#475B7F"/>
<path d="M1.43301 264.96C-0.400046 264.943 -0.444157 264.754 1.12668 263.664C3.43883 262.059 3.57729 262.059 3.57729 263.664C3.57729 264.388 2.61297 264.971 1.43301 264.96Z" fill="#475B7F"/>
<path d="M228.42 264.98C227.41 264.98 226.582 264.388 226.582 263.664C226.582 262.94 227.41 262.348 228.42 262.348C229.431 262.348 230.258 262.94 230.258 263.664C230.258 264.388 229.431 264.98 228.42 264.98Z" fill="#475B7F"/>
<path d="M240.061 265.638C239.387 266.086 238.835 265.824 238.835 265.058C238.835 264.292 239.387 263.664 240.061 263.664C240.735 263.664 241.286 263.925 241.286 264.244C241.286 264.564 240.735 265.191 240.061 265.638Z" fill="#475B7F"/>
<path d="M209.735 286.204C207.791 287.84 207.748 287.794 209.271 285.707C210.873 283.514 211.879 282.818 211.879 283.901C211.879 284.174 210.914 285.211 209.735 286.204Z" fill="#475B7F"/>
<path d="M238.018 307.483C236.522 306.866 236.484 306.517 237.814 305.612C240.257 303.949 241.291 304.229 240.534 306.35C240.162 307.39 239.03 307.901 238.018 307.483Z" fill="#475B7F"/>
<path d="M220.154 325.121L223.55 323.63C225.955 322.575 228.501 322.528 232.278 323.468C237.371 324.737 237.61 325.012 237.61 329.601C237.61 333.007 238.351 334.935 240.159 336.223C242.147 337.642 242.521 338.831 241.863 341.647C240.937 345.612 239.225 346.154 235.896 343.54C233.911 341.982 233.89 341.668 235.662 340.089C237.827 338.159 238.29 334.727 236.385 334.727C235.711 334.727 235.16 335.319 235.16 336.043C235.16 336.766 234.057 337.359 232.709 337.359C231.361 337.359 230.258 336.589 230.258 335.647C230.258 331.418 227.037 326.65 223.675 325.903L220.154 325.121Z" fill="#475B7F"/>
<path d="M367.563 341.306C442.883 341.306 482.787 340.852 483.283 339.99C484.386 338.074 484.873 338.374 484.679 340.851C484.481 343.394 489.888 345.561 495.843 345.328C498.509 345.224 499.825 345.781 499.825 347.015C499.825 348.968 505.408 350.396 513.916 350.617C518.137 350.726 518.392 350.887 515.754 351.768C509.756 353.773 494.924 362.717 494.924 364.329C494.924 367.092 508.22 367.986 516.177 365.76C520.003 364.69 523.68 363.452 524.346 363.011C525.011 362.569 525.556 362.877 525.556 363.695C525.556 364.512 526.845 365 528.42 364.779C529.994 364.557 532.239 365.403 533.408 366.659C535.929 369.366 539.41 369.528 547.185 367.297C551.773 365.981 553.023 365.981 553.431 367.297C553.713 368.202 554.999 368.942 556.291 368.942C557.582 368.942 558.64 369.61 558.64 370.426C558.64 371.397 557.052 371.65 554.045 371.159C551.435 370.732 545.676 371.376 540.713 372.65C533.664 374.461 530.89 375.972 526.344 380.472C523.245 383.54 520.147 386.05 519.457 386.05C517.665 386.05 517.904 390.958 519.736 391.786C520.833 392.281 520.659 392.89 519.124 393.935C517.945 394.736 516.979 395.98 516.979 396.698C516.979 397.416 515.922 399.222 514.629 400.712C509.783 406.3 506.516 423.518 510.029 424.965C516.082 427.46 529.224 413.261 529.237 404.21C529.245 399.204 537.765 386.368 540.066 387.895C541.931 389.133 546.387 386.409 546.387 384.03C546.387 382.969 547.426 382.102 548.694 382.102C550.02 382.102 551.293 380.907 551.686 379.292L552.37 376.482L556.228 379.105C560.823 382.229 560.65 381.734 558.954 386.963C558.181 389.343 555.689 392.481 553.205 394.201C550.794 395.869 548.968 398.124 549.148 399.209C549.599 401.933 554.224 402.411 556.14 399.93C557.006 398.811 558.415 397.893 559.273 397.893C561.68 397.893 558.42 408.385 555.492 410.063C552.609 411.715 543.936 421.071 543.936 422.53C543.936 424.611 549.348 427.147 553.642 427.079C558.529 427 578.475 419.172 586.515 414.177C589.665 412.22 591.723 409.984 591.723 408.518C591.723 405.438 595.087 404.502 603.129 405.347C611.279 406.204 617.845 403.366 620.039 398.042C620.961 395.807 624.271 392.457 627.874 390.112C633.927 386.172 634.557 386.05 648.792 386.05C659.699 386.05 664.128 385.555 666.032 384.122C667.442 383.062 668.99 382.617 669.472 383.135C669.955 383.652 674.852 378.858 680.355 372.482C689.901 361.418 690.627 360.865 696.18 360.403C699.38 360.137 702 360.42 702 361.032C702 361.644 700.863 364.994 699.472 368.477C697.352 373.789 697.149 375.667 698.215 380.101C699.817 386.773 697.656 388.976 689.998 388.483C685.733 388.209 684.082 388.806 681.296 391.631C678.932 394.027 677.033 394.886 675.225 394.377C673.693 393.947 672.593 394.252 672.593 395.107C672.593 395.917 671.97 396.577 671.208 396.577C669.017 396.577 659.114 407.491 659.114 409.905C659.114 411.106 658.287 412.428 657.276 412.845C655.236 413.686 654.732 417.633 656.664 417.633C658.59 417.633 658.094 421.215 656.051 422.057C655.04 422.473 654.213 422.259 654.213 421.581C654.213 419.913 650.168 421.606 648.944 423.785C648.405 424.746 645.86 425.529 643.279 425.529C640.702 425.529 636.318 426.391 633.537 427.445C630.751 428.5 628.482 428.795 628.482 428.103C628.482 427.41 627.655 426.845 626.644 426.845C625.633 426.845 624.806 428.008 624.806 429.431C624.806 430.852 623.698 432.652 622.344 433.431C620.617 434.425 620.08 435.712 620.544 437.754C621.469 441.82 612.58 452.047 609.65 450.286C606.953 448.666 607.133 446.938 610.102 445.926C611.45 445.467 612.553 444.243 612.553 443.206C612.553 440.778 611.937 440.831 608 443.601C606.217 444.856 604.169 445.892 603.448 445.904C600.954 445.946 594.202 449.852 594.333 451.176C594.693 454.818 594.047 456.026 592.158 455.247C591.026 454.78 589.148 455.384 587.869 456.626C585.45 458.978 584.808 462.376 586.784 462.376C587.435 462.376 587.645 463.286 587.247 464.398C586.85 465.512 587.525 467.609 588.749 469.061C590.727 471.409 590.743 471.606 588.897 470.845C587.649 470.331 586.822 470.627 586.822 471.588C586.822 472.467 586.048 472.867 585.104 472.477C581.574 471.022 582.102 473.435 586.231 477.617C588.577 479.994 590.497 482.508 590.497 483.202C590.497 485.234 587.248 485.995 585.694 484.326C584.611 483.163 583.987 483.266 583.097 484.758C581.257 487.836 582.344 490.702 585.226 490.377C587.034 490.174 587.729 490.751 587.52 492.28C587.194 494.662 584.371 496.346 584.371 494.159C584.371 492.752 578.802 492.922 577.454 494.368C577.022 494.833 577.574 495.587 578.682 496.042C581.351 497.143 581.261 498.978 578.551 498.748C577.372 498.648 576.533 499.269 576.688 500.13C576.843 500.99 575.935 502.047 574.67 502.479C573.406 502.909 570.345 505.315 567.869 507.823C565.234 510.492 562.11 512.383 560.338 512.383C558.439 512.383 555.111 514.591 551.414 518.305C548.172 521.562 544.888 524.227 544.115 524.227C543.343 524.227 542.711 524.761 542.711 525.414C542.711 526.873 535.844 529.573 534.85 528.506C534.456 528.082 534.134 528.653 534.134 529.775C534.134 530.896 532.011 534.103 529.416 536.902C521.82 545.098 521.082 550.761 523.941 578.839C525.561 594.748 525.101 603.502 522.375 608.512C521.017 611.01 519.288 613.055 518.534 613.055C516.039 613.055 510.624 603.027 511.377 599.803C512.284 595.925 511.078 592.657 508.74 592.657C506.889 592.657 506.944 591.1 509.059 583.774C509.71 581.517 509.425 580.813 507.863 580.813C505.988 580.813 505.976 580.562 507.72 577.888C510.283 573.958 510.127 569.496 507.352 567.4C506.101 566.453 504.709 564.426 504.258 562.892C503.807 561.359 502.341 559.038 501 557.735C498.645 555.447 498.377 555.464 493.239 558.219C486.566 561.799 486.347 561.784 486.347 557.784C486.347 555.405 485.689 554.494 483.968 554.494C482.66 554.494 481.218 553.846 480.762 553.054C480.306 552.262 478.638 551.88 477.056 552.204C475.473 552.529 473.991 552.188 473.76 551.447C473.503 550.617 471.842 550.904 469.429 552.196C465.709 554.189 465.517 554.168 465.517 551.761C465.517 550.37 464.689 549.23 463.679 549.23C462.668 549.23 461.841 550.118 461.841 551.204C461.841 553.166 459.748 553.489 445.328 553.748C439.739 553.849 437.92 557.277 442.162 559.716C445.803 561.808 445.308 563.923 441.422 562.875C438.755 562.157 438.294 562.38 438.909 564.099C439.415 565.519 439.122 565.982 438.008 565.523C437.101 565.148 435.993 565.474 435.548 566.248C434.396 568.25 432.433 567.988 432.433 565.831C432.433 564.828 430.962 562.973 429.162 561.707C426.513 559.842 425.444 559.704 423.545 560.978C420.634 562.929 414.054 561.555 414.054 558.996C414.054 557.967 413.502 557.126 412.829 557.126C412.155 557.126 411.595 557.867 411.585 558.771C411.571 559.971 411.279 559.93 410.504 558.617C409.646 557.161 408.698 557.407 405.559 559.901C402.492 562.336 401.464 562.616 400.669 561.236C399.876 559.858 399.093 559.813 396.98 561.026C395.506 561.874 394.514 563.256 394.774 564.095C395.805 567.419 385.524 574.066 381.755 572.512C380.8 572.119 377.766 574.089 374.891 576.968C372.057 579.806 369.232 582.129 368.615 582.129C367.997 582.129 367.492 583.591 367.492 585.378C367.492 587.725 366.983 588.416 365.654 587.87C364.136 587.243 363.816 588.608 363.816 595.714V604.316L360.447 603.249C350.889 600.219 349.479 598.364 350.251 589.839C350.359 588.652 349.325 585.536 347.954 582.914C346.582 580.292 345.095 575.694 344.649 572.696C344.196 569.652 342.42 565.541 340.628 563.387C337.976 560.2 336.42 559.513 331.677 559.435C325.913 559.342 322.156 561.287 322.156 564.364C322.156 568.409 318.973 568.914 314.42 565.59C310.359 562.628 309.903 561.708 309.903 556.48C309.903 552.241 309.156 549.83 307.146 547.581C305.629 545.885 302.869 542.6 301.01 540.283C297.983 536.51 296.939 536.07 291.002 536.07C283.245 536.07 280.496 536.968 280.496 539.501C280.496 540.509 279.807 541.367 278.964 541.407C278.122 541.446 272.138 541.499 265.667 541.524C255.054 541.563 253.192 541.188 246.675 537.695C242.7 535.566 236.828 532.769 233.628 531.479C230.392 530.175 227.808 528.292 227.808 527.239C227.808 525.662 225.959 525.5 216.78 526.272L205.752 527.198V523.65C205.752 519.522 198.782 509.81 195.793 509.775C194.696 509.761 193.113 508.863 192.274 507.777C191.435 506.691 189.118 505.803 187.125 505.803C183.824 505.803 183.563 505.482 184.187 502.184C184.568 500.171 183.879 495.501 182.636 491.659C180.711 485.713 180.634 484.393 182.087 482.167C183.471 480.043 183.492 479.069 182.203 476.728C180.953 474.458 180.946 473.754 182.165 473.28C183.008 472.952 183.697 471.668 183.697 470.426C183.697 469.183 184.311 467.507 185.061 466.701C186.729 464.909 185.262 461.955 183.137 462.83C182.268 463.188 180.762 461.581 179.679 459.14C177.986 455.326 177.97 454.383 179.541 451.131C180.52 449.104 181.192 445.11 181.035 442.257C180.836 438.628 181.377 436.576 182.835 435.43C186.589 432.484 190.681 424.764 192.276 417.624C193.47 412.279 195.182 409.154 199.491 404.455C204.723 398.747 214.507 385.106 219.519 376.528C221.076 373.864 222.635 372.89 225.339 372.89C229.594 372.89 230.176 371.208 226.525 369.458C224.031 368.263 224.031 368.238 226.416 365.489C227.737 363.966 228.778 361.9 228.732 360.897C228.506 356.041 229.174 352.14 230.565 350.193C231.9 348.323 232.834 348.255 237.844 349.655L243.591 351.261L240.109 352.916C236.924 354.431 234.065 360.309 235.673 362.037C237.901 364.429 249.166 354.346 250.47 348.793C250.672 347.932 251.233 345.897 251.718 344.267L252.599 341.306H367.563Z" fill="#475B7F"/>
<path d="M599.557 457.562C599.073 455.626 599.761 453.743 601.719 451.64L604.588 448.558L604.974 454.358C605.272 458.831 604.782 460.778 602.83 462.875C600.35 465.539 600.3 465.542 600.283 462.997C600.274 461.569 599.947 459.124 599.557 457.562Z" fill="#475B7F"/>
<path d="M52.5894 579.497C51.9155 579.497 51.3641 578.905 51.3641 578.181C51.3641 577.458 51.9155 576.865 52.5894 576.865C53.2633 576.865 53.8147 577.458 53.8147 578.181C53.8147 578.905 53.2633 579.497 52.5894 579.497Z" fill="#475B7F"/>
<path d="M59.8518 595.401C59.4658 593.53 59.6312 590.946 60.2194 589.659C61.3123 587.269 62.5462 587.556 66.3741 591.087C69.4189 593.895 69.0661 595.039 64.5361 597.043C60.6948 598.742 60.5294 598.684 59.8518 595.401Z" fill="#475B7F"/>
<path d="M1123.88 0.608056C1123.05 0.968417 1121.39 0.990759 1120.2 0.656701C1119.01 0.322643 1119.69 0.0280603 1121.71 0.00175657C1123.73 -0.0245472 1124.71 0.247694 1123.88 0.608056Z" fill="#DBDBDB"/>
<path d="M1084.02 5.12042C1090.54 5.66622 1095.28 4.98893 1096.74 3.30417C1097.56 2.36776 1100.48 1.56155 1103.23 1.51289C1105.98 1.46291 1107.26 1.68124 1106.08 1.99557C1104.9 2.31121 1103.94 3.45939 1103.94 4.54968C1103.94 6.00428 1104.83 6.34356 1107.31 5.82538C1109.16 5.43871 1120.33 4.7772 1132.12 4.35502C1143.92 3.93416 1155.5 3.33577 1157.86 3.02539C1160.22 2.715 1161.46 2.78735 1160.62 3.18585C1159.78 3.58435 1159.09 4.77721 1159.09 5.83726C1159.09 7.46677 1156.43 7.67586 1141.93 7.18792C1132.49 6.87096 1124.77 7.10373 1124.77 7.70608C1124.77 8.30844 1122.47 8.98183 1119.66 9.20542C1116.77 9.43294 1114.31 10.3707 1114.01 11.3623C1113.57 12.7946 1116.31 12.9418 1128.95 12.1685C1143.5 11.2795 1144.38 11.3636 1143.59 13.5692C1142.82 15.7261 1143.39 15.8418 1150.61 15.0014C1154.94 14.4977 1161.92 13.1773 1166.13 12.0673C1170.34 10.956 1174.48 10.2971 1175.32 10.6009C1176.86 11.1572 1167.2 16.2575 1161.91 17.6818C1160.36 18.1 1159.09 19.2666 1159.09 20.2727C1159.09 22.4796 1160.82 22.6072 1164.23 20.6488C1169.38 17.6884 1185.5 14.5188 1193.01 14.9883C1198.06 15.304 1201.74 14.816 1204.04 13.5298C1207.95 11.3439 1222.4 10.9125 1225.26 12.8972C1226.8 13.9598 1226.69 14.2019 1224.65 14.3478C1223.3 14.4452 1221.47 14.4175 1220.58 14.2886C1219.68 14.1584 1218.24 14.6898 1217.36 15.4684C1215.85 16.8138 1205.25 17.7029 1186.97 18.0159C1180.49 18.1277 1178.69 18.5853 1178.69 20.1307C1178.69 21.2157 1179.66 22.1508 1180.84 22.2073C1182.12 22.2691 1182.37 22.5782 1181.45 22.9741C1178.9 24.0789 1179.73 27.3642 1182.56 27.3642C1185.12 27.3642 1185.14 27.4418 1182.98 29.9946C1181.76 31.4413 1179.38 32.625 1177.69 32.625C1175.72 32.625 1172.71 34.6359 1169.31 38.2145C1166.39 41.2881 1164 44.1802 1164 44.6405C1163.99 45.1021 1166.61 45.932 1169.81 46.487L1175.63 47.4958L1171.34 48.5821C1168.98 49.1792 1165.67 49.7579 1163.99 49.867C1158.69 50.2103 1156.63 51.1494 1156.63 53.2221C1156.63 54.3256 1157.7 55.5276 1159 55.8933C1161.72 56.6574 1161.06 60.2439 1158.2 60.2439C1156.95 60.2439 1156.56 61.1014 1156.99 62.8742C1157.41 64.584 1157.03 65.5046 1155.91 65.5046C1152.74 65.5046 1154.13 67.7378 1158.17 69.1253L1162.15 70.4971L1158.7 70.6312C1154.64 70.7891 1150.51 72.9183 1150.51 74.8517C1150.51 75.6013 1151.36 77.1296 1152.4 78.2488C1153.45 79.3693 1153.97 80.6412 1153.56 81.0765C1153.16 81.5118 1152.44 81.2277 1151.97 80.4451C1150.71 78.3316 1139.98 76.9599 1137.2 78.5552C1135.42 79.5784 1134.46 79.4325 1133.33 77.9713C1131.73 75.9091 1128.45 75.308 1128.45 77.0783C1128.45 77.6569 1129.04 78.7656 1129.76 79.5416C1131.73 81.6551 1126.03 82.8059 1121.1 81.2895C1117.78 80.265 1116.74 80.4518 1115.43 82.3062C1111.65 87.6458 1115.41 90.8772 1124.46 90.0552C1127.67 89.7645 1128.74 89.7843 1126.84 90.0999C1122.32 90.8509 1123.33 93.8759 1127.97 93.4747C1132.85 93.0526 1139.48 95.5619 1139.48 97.8293C1139.48 98.8578 1140.34 99.6995 1141.39 99.6995C1142.44 99.6995 1142.96 100.295 1142.54 101.025C1142.12 101.754 1142.64 103.281 1143.7 104.418C1144.76 105.556 1145.29 107.067 1144.89 107.775C1144.47 108.502 1143.43 108.026 1142.51 106.683C1140.97 104.433 1140.83 104.428 1140.05 106.604C1138.8 110.041 1133.52 109.561 1132.22 105.893C1131.63 104.236 1130.41 102.24 1129.49 101.461C1127.72 99.9441 1119.02 97.7662 1116.53 98.2147C1115.7 98.3633 1113.77 97.636 1112.24 96.5996C1110.71 95.5619 1108.25 94.3269 1106.78 93.8574C1104.42 93.1038 1104.11 93.4839 1104.21 97.0073L1104.31 101.015H1112.09C1117.09 101.015 1119.87 101.55 1119.87 102.513C1119.87 103.536 1117.64 103.8 1112.82 103.344C1104.96 102.601 1100.87 103.649 1100.87 106.408C1100.87 107.438 1099.39 108.431 1097.5 108.664C1092.24 109.315 1093.55 111.514 1099.34 111.733C1103 111.872 1103.55 112.094 1101.18 112.478C1099.33 112.779 1097.81 113.664 1097.81 114.443C1097.81 115.419 1100.57 115.541 1106.7 114.836C1115.52 113.819 1120.88 113.598 1127.72 113.972L1131.27 114.167L1128.45 116.797C1126.89 118.244 1125.02 119.431 1124.28 119.435C1123.54 119.44 1121.34 120.335 1119.39 121.424C1111.57 125.805 1095.93 129.342 1081.01 130.107C1078.17 130.253 1076.14 130.868 1076.49 131.476C1077.94 133.994 1072.41 132.332 1069.41 129.345C1066.63 126.571 1065.95 126.383 1064.69 128.023C1063.87 129.074 1063.5 131.122 1063.85 132.573C1064.35 134.606 1063.89 135.215 1061.85 135.231C1060.4 135.241 1056.73 137.599 1053.69 140.47C1050.66 143.341 1047.67 145.699 1047.05 145.71C1046.43 145.722 1045.01 146.617 1043.89 147.7C1042.78 148.782 1040.25 149.792 1038.28 149.945C1036.31 150.097 1034.34 150.784 1033.89 151.469C1032.6 153.487 1025.51 153.46 1025.51 151.438C1025.51 150.301 1023.98 149.677 1021.22 149.677C1018.15 149.677 1016.93 150.261 1016.93 151.727C1016.93 152.854 1016.41 153.434 1015.78 153.015C1015.14 152.595 1014.09 153.282 1013.43 154.54C1012.62 156.107 1010.99 156.727 1008.3 156.508C1002.85 156.062 1000.15 157.197 999.406 160.242C998.925 162.209 997.719 162.828 994.371 162.828C989.866 162.828 988.287 165.482 991.499 167.655C992.506 168.336 991.778 168.93 989.369 169.387C985.496 170.122 983.296 174.665 986.814 174.665C987.874 174.665 988.741 175.175 988.741 175.798C988.741 176.421 987.363 176.648 985.678 176.303C983.89 175.936 982.614 176.285 982.614 177.142C982.614 177.95 981.787 178.611 980.776 178.611C979.764 178.611 978.937 179.498 978.937 180.583C978.937 181.669 978.11 182.556 977.099 182.556C976.088 182.556 975.261 183.08 975.261 183.718C975.261 185.006 970.609 186.9 968.214 186.587C965.919 186.286 966.367 191.351 968.722 192.322C970.508 193.057 970.419 193.441 967.995 195.421C966.473 196.664 963.926 199.012 962.334 200.64C960.742 202.268 958.864 203.599 958.159 203.599C957.454 203.599 956.878 204.783 956.878 206.23C956.878 208.648 955.538 209.52 952.702 208.947C952.089 208.822 951.132 209.493 950.576 210.434C949.827 211.701 949.558 211.525 949.544 209.758C949.53 207.97 948.909 207.578 947.074 208.202C945.669 208.681 944.623 208.439 944.623 207.633C944.623 206.861 945.175 206.23 945.849 206.23C946.523 206.23 947.073 205.49 947.072 204.586C947.069 202.615 938.384 201.666 937.317 203.519C936.914 204.219 934.215 205.197 931.319 205.694C926.607 206.503 926.096 206.339 926.454 204.124C926.704 202.572 925.843 201.17 924.142 200.361C922.151 199.416 921.607 198.307 922.099 196.203C922.654 193.833 922.115 193.18 918.991 192.444C914.508 191.388 914.389 190.926 917.825 187.939C920.164 185.907 920.265 185.33 918.791 182.468C917.884 180.708 917.259 178.824 917.403 178.282C917.545 177.74 917.078 177.296 916.364 177.296C915.651 177.296 915.407 176.704 915.824 175.98C916.241 175.257 918.203 174.665 920.186 174.665C922.169 174.665 923.79 174.092 923.79 173.391C923.79 172.691 924.617 172.458 925.628 172.874C926.792 173.354 927.466 172.857 927.466 171.518C927.466 170.355 926.847 169.404 926.091 169.404C925.079 169.404 925.077 168.938 926.08 167.639C927.715 165.525 926.684 164.044 924.269 165.038C923.034 165.547 922.769 165.101 923.347 163.483C924.069 161.466 923.566 161.323 918.793 162.188C913.928 163.07 913.583 162.961 915.083 161.021C916.17 159.617 918.661 158.883 922.346 158.883C926.425 158.883 927.589 158.488 926.608 157.436C925.868 156.642 923.898 155.901 922.231 155.792C920.358 155.67 919.425 154.968 919.789 153.951C920.111 153.047 919.643 152.307 918.746 152.307C915.05 152.307 922.407 148.578 928.998 147.112C936.311 145.485 937.091 144.758 934.513 141.971C933.285 140.644 933.374 140.476 934.965 141.124C936.236 141.643 937.226 141.081 937.723 139.559C938.149 138.252 938.795 136.518 939.16 135.705C939.524 134.894 938.678 133.909 937.281 133.517C934.754 132.807 934.756 132.788 937.541 129.562C939.08 127.78 941.442 126.094 942.789 125.815C944.134 125.538 945.236 124.43 945.236 123.354C945.236 122.28 945.997 120.76 946.928 119.977C949.378 117.916 950.345 105.01 948.161 103.525C946.94 102.694 946.892 102.364 947.993 102.35C948.837 102.339 949.525 101.079 949.525 99.5509C949.525 97.2322 948.936 96.8639 945.976 97.3295C943.23 97.7622 942.583 97.4505 943.118 95.9525C943.642 94.49 943.148 94.202 941.104 94.7754C938.805 95.4212 938.517 95.1253 939.198 92.8224C939.871 90.5471 939.582 90.2262 937.41 90.8351C935.303 91.427 934.819 90.9719 934.819 88.3968C934.819 86.6568 934.131 85.2232 933.287 85.2127C932.249 85.1982 932.347 84.7432 933.594 83.7976C934.783 82.894 934.954 82.1891 934.078 81.7984C933.334 81.467 932.982 79.7468 933.297 77.9779C934.196 72.9354 932.568 68.1758 929.42 66.637C927.548 65.7217 926.733 64.4222 927.096 62.9334C927.545 61.0948 925.992 60.0676 919.289 57.7621C911.894 55.2185 908.679 54.9266 891.62 55.2435C881.004 55.4408 872.319 55.9366 872.319 56.3443C872.319 56.752 870.251 56.7823 867.723 56.4127L863.128 55.7407L867.934 55.0331C870.577 54.6438 872.987 53.5233 873.287 52.5435C873.706 51.1783 872.936 50.9718 870.012 51.661C867.576 52.2357 866.191 52.0476 866.191 51.1414C866.191 50.23 870.193 49.7224 877.392 49.7224C886.623 49.7224 888.879 49.3173 890.221 47.4208C891.117 46.1543 891.867 44.6655 891.888 44.1104C891.91 43.5567 887.549 43.3714 882.199 43.7002C875.544 44.1079 872.325 43.8225 872.005 42.7927C871.729 41.9049 869.403 41.4235 866.326 41.6195C859.722 42.0364 855.322 40.7318 857.757 39.0773C858.689 38.4447 861.381 37.9173 863.74 37.9054C866.099 37.8949 872.166 37.0401 877.221 36.0076C882.276 34.9752 891.1 33.8257 896.829 33.4535C908.15 32.7197 914.648 30.8389 915.661 28.0021C916.016 27.0078 918.268 25.7992 920.661 25.3178C927.904 23.8593 925.828 21.6524 917.969 22.4547C910.507 23.2161 911.98 22.0929 921.662 19.6375C928.909 17.8015 933.215 17.7515 934.219 19.4941C934.643 20.2293 935.51 20.4845 936.149 20.061C936.787 19.6375 936.942 18.6524 936.492 17.8712C935.925 16.8848 937.544 16.7178 941.791 17.3215C947.229 18.0961 948.275 17.8265 951.23 14.887C955.06 11.0782 959.916 10.664 967.295 13.5166C969.991 14.5596 973.163 15.4381 974.342 15.4696C977.962 15.567 976.719 13.0445 972.503 11.7385C968.882 10.6166 969.188 10.4917 975.874 10.3733C979.918 10.3023 986.26 9.88276 989.967 9.44086C996.203 8.69909 996.524 8.78984 994.259 10.66C990.81 13.5061 992.928 15.0186 997.744 13.1497C1002.77 11.198 1008.06 11.1519 1013.04 13.0168C1016.13 14.1729 1017.24 14.0624 1018.74 12.4526C1021.13 9.89456 1021.08 9.30016 1018.46 8.4466C1014.55 7.17613 1029.69 8.78853 1035.31 10.2418C1046.6 13.1615 1051.24 13.4219 1051.24 11.1374C1051.24 9.44345 1052.49 9.09098 1057.68 9.32245C1062.21 9.52499 1064.02 9.13312 1063.81 7.99812C1063.59 6.80261 1065.73 6.54482 1072.09 6.99856C1077.64 7.39575 1080.65 7.12349 1080.65 6.22521C1080.65 5.4624 1082.17 4.96523 1084.02 5.12042Z" fill="#DBDBDB"/>
<path d="M1167.97 5.87667C1167.13 6.24229 1165.75 6.24229 1164.91 5.87667C1164.06 5.51236 1164.75 5.21386 1166.44 5.21386C1168.12 5.21386 1168.81 5.51236 1167.97 5.87667Z" fill="#DBDBDB"/>
<path d="M1178.36 5.80041C1177.95 6.23705 1176.9 6.28437 1176.01 5.90428C1175.04 5.48474 1175.33 5.17303 1176.75 5.10991C1178.05 5.05335 1178.77 5.36377 1178.36 5.80041Z" fill="#DBDBDB"/>
<path d="M1047.23 7.1156C1046.83 7.55224 1045.77 7.59956 1044.89 7.21947C1043.91 6.79993 1044.2 6.48822 1045.63 6.42509C1046.92 6.36854 1047.64 6.67896 1047.23 7.1156Z" fill="#DBDBDB"/>
<path d="M1185.71 49.2016C1185.31 49.6382 1184.25 49.6855 1183.37 49.3054C1182.39 48.8859 1182.68 48.5742 1184.11 48.5111C1185.4 48.4545 1186.12 48.7649 1185.71 49.2016Z" fill="#DBDBDB"/>
<path d="M1166.12 63.1833C1164.26 62.8466 1162.41 62.0128 1162.02 61.3302C1161.6 60.599 1163.74 60.2557 1167.24 60.495C1171.53 60.7883 1173.18 61.4486 1173.18 62.8742C1173.18 63.9843 1172.37 64.6169 1171.34 64.3223C1170.33 64.033 1167.98 63.5213 1166.12 63.1833Z" fill="#DBDBDB"/>
<path d="M1171.01 72.8749C1170.6 73.3116 1169.54 73.3589 1168.66 72.9788C1167.68 72.5593 1167.97 72.2476 1169.4 72.1844C1170.69 72.1279 1171.42 72.4383 1171.01 72.8749Z" fill="#DBDBDB"/>
<path d="M1162.15 79.9717C1160.92 82.1154 1156.63 81.496 1156.63 79.1734C1156.63 77.7859 1157.3 77.3347 1158.57 77.8582C1159.64 78.2975 1161.05 78.6565 1161.71 78.6565C1162.37 78.6565 1162.57 79.2483 1162.15 79.9717Z" fill="#DBDBDB"/>
<path d="M1144.38 90.5181C1144.38 91.6979 1138.59 91.0048 1137.13 89.6502C1136.85 89.3911 1138.36 89.178 1140.5 89.178C1142.63 89.178 1144.38 89.7816 1144.38 90.5181Z" fill="#DBDBDB"/>
<path d="M924.945 98.162C927.267 97.4466 930.285 96.0209 931.653 94.9925C934.737 92.6738 934.819 92.6764 934.819 95.0963C934.819 96.1919 933.73 97.0691 932.368 97.0691C931.02 97.0691 929.917 97.6609 929.917 98.3843C929.917 99.1076 927.85 99.6455 925.322 99.5811L920.726 99.4628L924.945 98.162Z" fill="#DBDBDB"/>
<path d="M1120.18 107.146C1119.33 107.512 1117.96 107.512 1117.11 107.146C1116.27 106.782 1116.96 106.483 1118.64 106.483C1120.33 106.483 1121.02 106.782 1120.18 107.146Z" fill="#DBDBDB"/>
<path d="M1112.18 108.385C1111.78 108.822 1110.72 108.869 1109.84 108.489C1108.86 108.069 1109.15 107.758 1110.58 107.694C1111.87 107.638 1112.59 107.948 1112.18 108.385Z" fill="#DBDBDB"/>
<path d="M944.623 112.963C944.623 113.902 935.707 112.315 930.53 110.454L926.854 109.132L930.856 109.019C935.086 108.899 944.623 111.631 944.623 112.963Z" fill="#DBDBDB"/>
<path d="M924.526 118.584C920.018 117.921 919.29 117.407 919.813 115.258C920.313 113.205 921.123 112.88 924.031 113.566C926.012 114.032 928.996 115.174 930.662 116.102C934.785 118.397 931.711 119.64 924.526 118.584Z" fill="#DBDBDB"/>
<path d="M920.113 139.622C917.096 140.216 916.369 140.084 917.662 139.173C918.673 138.462 920.833 137.871 922.463 137.86C926.395 137.833 925.399 138.582 920.113 139.622Z" fill="#DBDBDB"/>
<path d="M921.645 145.711C919.319 145.742 919.814 143.366 922.258 142.77C923.437 142.484 924.876 142.514 925.453 142.839C926.694 143.537 923.85 145.682 921.645 145.711Z" fill="#DBDBDB"/>
<path d="M1170.7 154.609C1172.97 155.077 1173.79 154.682 1173.79 153.118C1173.79 150.446 1176.68 150.355 1178.69 152.965C1179.53 154.05 1180.98 154.937 1181.91 154.937C1182.84 154.937 1183.6 155.88 1183.6 157.034C1183.6 158.186 1184.73 159.447 1186.12 159.836C1187.69 160.278 1188.38 161.259 1187.95 162.451C1187.58 163.501 1187.27 164.884 1187.27 165.525C1187.27 166.166 1186.44 166.351 1185.43 165.935C1184.27 165.455 1183.6 165.952 1183.6 167.291C1183.6 168.454 1183.18 169.479 1182.68 169.573C1182.17 169.665 1180.65 169.916 1179.31 170.132C1175.78 170.696 1161.6 175.837 1157.06 178.198C1152.23 180.707 1140.7 179.48 1140.7 176.456C1140.7 175.408 1140.01 174.645 1139.17 174.764C1135.43 175.285 1130.41 174.543 1131.7 173.659C1134.14 171.983 1134.23 167.409 1131.82 167.614C1130.64 167.714 1129.67 167.271 1129.67 166.628C1129.67 165.985 1130.23 165.459 1130.9 165.459C1131.57 165.459 1132.12 164.571 1132.12 163.486C1132.12 162.401 1132.95 161.513 1133.96 161.513C1134.97 161.513 1135.8 162.105 1135.8 162.828C1135.8 164.902 1139.48 164.361 1140.26 162.171C1140.65 161.086 1141.75 160.198 1142.71 160.198C1143.67 160.198 1144.88 158.962 1145.41 157.452C1146.26 154.983 1146.51 154.916 1147.97 156.794C1149.96 159.367 1151.73 159.494 1151.73 157.064C1151.73 154.054 1156.5 153.52 1157.92 156.371C1159.41 159.366 1161.54 159.683 1161.54 156.91C1161.54 154.52 1163.53 154.294 1164.43 156.581C1164.9 157.787 1165.41 157.66 1166.34 156.1C1167.16 154.718 1168.68 154.196 1170.7 154.609Z" fill="#DBDBDB"/>
<path d="M916.105 153.101C915.698 153.538 914.64 153.585 913.757 153.205C912.779 152.786 913.069 152.474 914.497 152.411C915.789 152.354 916.512 152.665 916.105 153.101Z" fill="#DBDBDB"/>
<path d="M1132.16 158.599C1130.91 157.761 1130.25 156.153 1130.59 154.762C1131.05 152.863 1131.65 152.645 1133.48 153.7C1134.76 154.431 1135.8 155.34 1135.8 155.719C1135.8 156.097 1135.16 155.984 1134.38 155.467C1133.42 154.826 1133.18 155.406 1133.64 157.284C1134.21 159.643 1134 159.832 1132.16 158.599Z" fill="#DBDBDB"/>
<path d="M1126.89 157.047C1126.48 157.484 1125.43 157.531 1124.54 157.151C1123.56 156.731 1123.85 156.42 1125.28 156.356C1126.57 156.3 1127.3 156.61 1126.89 157.047Z" fill="#DBDBDB"/>
</svg>
