<svg width="653" height="510" viewBox="0 0 653 510" fill="none" xmlns="http://www.w3.org/2000/svg">
<path d="M230.532 458.19C230.404 455.138 230.949 450.776 231.743 448.498C233.093 444.621 233.414 444.441 236.752 445.689C238.714 446.422 240.623 447.553 240.997 448.199C241.966 449.884 247.308 449.653 254.651 447.609C258.143 446.637 261 446.106 261 446.429C261 447.759 255.301 455.622 250.499 460.917C246.549 465.27 244.775 466.384 242.836 465.723C241.003 465.099 240.314 465.435 240.314 466.952C240.314 468.099 239.356 469.432 238.184 469.914C237.013 470.394 235.225 471.886 234.21 473.228C232.41 475.606 232.298 475.605 229.647 473.138C226.493 470.203 226.072 465.672 228.846 464.53C230.231 463.96 230.7 462.203 230.532 458.19Z" fill="#CDD9E7"/>
<path d="M522.389 386.207C521.987 385.073 522.688 383.068 523.961 381.715C526.013 379.533 526.456 379.485 528.098 381.275C529.494 382.797 529.567 383.425 528.404 383.891C527.562 384.228 526.872 385.348 526.872 386.379C526.872 388.911 523.301 388.773 522.389 386.207Z" fill="#38C1DF"/>
<path d="M524.618 402.812C525.183 402.812 525.71 401.77 525.788 400.496C525.916 398.418 525.991 398.431 526.513 400.619C526.882 402.162 527.881 402.836 529.233 402.454C530.904 401.982 531.254 402.512 530.836 404.873C530.423 407.201 531.161 408.379 534.042 409.987C539.077 412.798 541.807 412.621 547.334 409.119L552 406.164L547.913 411.766C545.665 414.848 543.073 417.369 542.152 417.369C541.231 417.369 540.005 418.281 539.426 419.395C538.849 420.509 536.753 421.736 534.77 422.119C529.934 423.054 525.493 426.318 524.721 429.505C523.936 432.747 498.308 452.561 497.653 450.435C497.393 449.592 499.447 446.55 502.219 443.674C508.141 437.531 508.462 435.089 503.889 430.989C500.6 428.041 500.576 427.919 502.897 425.976C504.206 424.882 506.207 423.986 507.345 423.986C509.464 423.986 520.043 411.131 522.319 405.789C523.017 404.152 524.051 402.812 524.618 402.812Z" fill="#38C1DF"/>
<path d="M463.932 455.747C464.773 455.747 468.093 453.062 471.311 449.78C477.523 443.444 479.939 442.834 479.27 447.771C478.909 450.429 479.245 450.692 482.028 449.939C486.299 448.781 486.204 451.608 481.825 455.943C477.597 460.13 463.877 469.872 460.651 470.977C459.319 471.434 458.23 472.679 458.23 473.744C458.23 474.81 457.541 475.899 456.697 476.166C447.368 479.116 439.401 483.217 435.175 487.246C423.923 497.973 420.426 500.718 412.223 505.262C407.526 507.864 402.987 509.996 402.138 510C399.473 510.012 389.643 504.118 390.01 502.728C390.201 502 391.564 500.817 393.038 500.098C394.511 499.38 395.716 498.052 395.716 497.147C395.716 495.433 404.246 490.156 407.017 490.156C407.893 490.156 409.264 489.023 410.066 487.639C410.866 486.254 414.447 484.077 418.021 482.802C424.096 480.634 440.211 472.982 449.392 467.906C451.611 466.679 455.446 463.442 457.914 460.711C460.384 457.981 463.092 455.747 463.932 455.747Z" fill="#38C1DF"/>
<path d="M304.746 112.53C305.691 111.52 306.839 108.314 307.298 105.408C308.433 98.2109 311.596 98.1925 311.596 105.382C311.596 108.273 312.131 110.639 312.785 110.639C313.437 110.639 313.652 111.534 313.261 112.628C312.868 113.721 313.219 115.481 314.039 116.54C314.86 117.598 315.708 122.898 315.925 128.317C316.382 139.785 317.013 141.347 320.771 140.336C322.647 139.831 324.489 140.541 326.466 142.53C329.068 145.148 329.358 146.474 329.115 154.669C328.964 159.729 329.19 164.756 329.616 165.841C330.043 166.925 330.303 168.255 330.196 168.798C330.088 169.341 330.553 169.784 331.228 169.784C332.857 169.784 332.8 177.153 331.143 180.469C330.195 182.365 330.223 183.601 331.244 184.919C332.022 185.922 332.316 187.895 331.899 189.304C331.104 191.988 335.205 196.473 339.918 198.075C341.212 198.516 342.271 199.738 342.271 200.791C342.271 201.845 343.651 203.268 345.339 203.956C347.026 204.643 348.406 205.811 348.406 206.551C348.406 207.293 349.183 207.899 350.131 207.899C351.18 207.899 351.635 208.813 351.288 210.232C350.974 211.514 351.576 214.323 352.622 216.475C353.669 218.625 354.529 222.856 354.534 225.877C354.537 229.108 355.335 232.219 356.469 233.435C358.992 236.136 360.676 236.057 360.676 233.235C360.676 231.386 361.03 231.512 362.608 233.925C363.886 235.881 364.271 238.183 363.747 240.74C363.09 243.948 363.644 245.35 367.031 249.042C369.271 251.486 372.566 256.476 374.35 260.134C377.566 266.725 377.578 266.867 375.859 276.442C374.906 281.754 373.998 289.996 373.842 294.757C373.619 301.623 372.889 304.476 370.317 308.557C366.534 314.557 362.193 322.718 357.592 332.479C355.79 336.301 352.986 340.361 351.361 341.502C349.736 342.643 348.406 344.295 348.406 345.174C348.406 346.054 347.026 347.564 345.339 348.531C343.651 349.498 342.271 350.781 342.271 351.382C342.271 351.982 341.532 352.474 340.631 352.474C338.919 352.474 332.435 359.157 325.093 368.488C322.731 371.49 318.107 376.952 314.819 380.624C309.005 387.12 299.326 401.519 299.326 403.675C299.326 406.16 292.579 409.143 284.502 410.23C278.455 411.044 274.32 412.469 270.832 414.941C268.082 416.89 264.396 418.949 262.64 419.515C260.885 420.082 258.391 421.003 257.099 421.563C255.446 422.278 255.013 422.124 255.638 421.042C256.126 420.196 255.992 419.504 255.341 419.504C254.689 419.504 254.467 418.23 254.848 416.671C255.322 414.728 255.093 414.131 254.12 414.777C253.213 415.376 252.699 414.704 252.699 412.922C252.699 410.634 252.198 410.29 249.938 411.024C248.419 411.517 246.073 412.95 244.724 414.209C243.374 415.467 240.449 417.613 238.221 418.979C234.205 421.442 234.138 421.438 229.389 418.511C226.759 416.889 223 415.561 221.04 415.561C213.905 415.561 207.939 404.888 212.401 400.108C213.183 399.27 213.884 395.752 213.959 392.287C214.035 388.823 214.534 385.245 215.07 384.337C216.313 382.229 212.746 380.623 210.658 382.352C209.824 383.044 208.08 384.018 206.784 384.516C204.948 385.222 205.15 384.647 207.705 381.912C210.254 379.181 210.981 377.129 210.981 372.667C210.981 366.158 208.835 365.034 205.673 369.889C204.614 371.515 203.718 372.073 203.682 371.129C203.648 370.184 205.246 367.819 207.235 365.872C213.024 360.206 216.784 348.531 212.821 348.531C211.809 348.531 210.981 349.426 210.981 350.521C210.981 353.006 204.403 359.637 198.711 362.893C196.349 364.243 191.787 367.831 188.574 370.864C183.015 376.115 182.795 376.203 184.04 372.693C184.761 370.665 184.967 367.505 184.498 365.668C184.031 363.834 183.471 360.861 183.257 359.064C183.042 357.267 182.369 355.621 181.763 355.404C181.158 355.188 180.912 353.611 181.217 351.9C181.854 348.331 178.463 343.976 174.74 343.581C166.406 342.698 163.851 341.911 161.44 339.485C159.009 337.039 157.688 336.836 148.355 337.48C141.487 337.953 134.279 339.542 127.057 342.175C119.776 344.829 114.923 345.893 112.487 345.371C109.823 344.801 106.255 345.835 99.3227 349.188C94.0907 351.718 89.3495 353.788 88.785 353.788C88.2206 353.788 85.4807 356.184 82.6954 359.111C79.9101 362.04 76.5763 364.451 75.2867 364.471C73.9971 364.492 67.1013 364.412 59.9637 364.294C46.9672 364.077 37.972 366.205 37.972 369.493C37.972 370.253 37.0064 370.877 35.8247 370.881C34.6431 370.885 31.4688 372.345 28.7694 374.126C25.0528 376.579 22.119 377.374 16.6846 377.405C10.2685 377.442 9.14335 377.028 6.06968 373.503C4.17885 371.335 2.02422 369.56 1.2831 369.56C-0.272749 369.56 -0.337711 369.22 0.679482 366.382C1.0893 365.239 2.38377 364.303 3.55679 364.303C6.38383 364.303 9.40477 360.575 11.0833 355.017C11.8343 352.534 13.2453 348.582 14.222 346.236C15.649 342.803 15.7398 340.456 14.6821 334.209C13.7508 328.709 13.7483 324.625 14.6734 320.202C15.898 314.349 15.2956 303.506 13.5827 300.558C13.1619 299.836 12.8133 296.583 12.8084 293.33C12.8022 290.077 12.352 286.085 11.806 284.459C10.9925 282.036 11.3532 281.283 13.8073 280.284C17.8773 278.625 18.681 274.006 16.3558 265.621C14.1214 257.562 14.6993 249.597 17.7828 245.947C18.9411 244.576 20.0146 241.058 20.1692 238.128C20.4159 233.432 22.0208 228.686 22.0208 232.651C22.0208 235.456 25.2626 234.235 26.989 230.78C27.9239 228.908 30.9167 226.168 33.637 224.69C36.3585 223.214 40.7426 220.188 43.3782 217.965C47.0519 214.869 49.5269 213.878 53.965 213.726C57.1515 213.619 61.0533 212.558 62.6349 211.371C64.2178 210.184 66.7025 209.213 68.1565 209.213C69.6105 209.213 71.4241 208.409 72.1861 207.424C72.9493 206.441 76.5432 205.307 80.1739 204.906C90.1606 203.802 100.336 196.877 102.333 189.827C102.793 188.201 103.546 186.85 104.006 186.826C104.468 186.801 106.11 185.651 107.658 184.27C109.947 182.224 110.216 181.317 109.097 179.385C107.356 176.377 109.47 169.784 112.176 169.784C113.205 169.784 114.047 169.192 114.047 168.469C114.047 165.6 116.008 167.455 118.232 172.427C120.775 178.111 122.636 179.216 122.636 175.041C122.636 173.581 123.454 172.412 124.476 172.412C126.528 172.412 127.009 167.769 125.09 166.498C121.356 164.027 125.983 161.77 131.516 163.364C134.689 164.279 138.256 161.999 135.301 160.943C134.605 160.695 134.296 159.034 134.614 157.251C134.999 155.092 134.634 154.005 133.516 153.992C132.166 153.975 132.186 153.736 133.613 152.768C134.689 152.039 136.226 152.047 137.52 152.789C140.413 154.447 141.041 154.334 141.041 152.149C141.041 151.125 140.352 149.99 139.507 149.624C138.664 149.26 139.226 148.915 140.758 148.858C143.06 148.773 143.415 148.214 142.812 145.638C142.181 142.944 142.485 142.569 145.063 142.873C146.871 143.086 148.706 142.242 149.722 140.732C150.645 139.361 152.35 138.24 153.512 138.24C154.674 138.24 156.46 136.965 157.479 135.406L159.332 132.572L163.173 136.978C166.634 140.947 166.936 141.943 166.223 147.04C165.787 150.151 165.696 152.697 166.019 152.697C167.968 152.697 170.489 150.856 170.489 149.431C170.489 148.514 171.378 146.972 172.462 146.007C174.132 144.523 174.675 144.604 175.988 146.527C176.909 147.876 178.351 148.466 179.536 147.979C180.639 147.525 181.533 147.809 181.533 148.614C181.533 149.414 182.085 150.069 182.76 150.069C183.434 150.069 183.987 148.886 183.987 147.44C183.987 145.994 184.539 144.811 185.214 144.811C187.053 144.811 186.693 142.641 184.459 140.248C182.634 138.294 182.634 137.939 184.459 135.778C185.549 134.489 186.441 132.727 186.441 131.865C186.441 131.003 187.828 129.621 189.525 128.793C191.655 127.753 192.4 126.574 191.93 124.988C191.285 122.811 192.945 120.762 195.643 120.403C196.318 120.312 197.561 120.149 198.404 120.039C199.248 119.93 199.938 118.735 199.938 117.387C199.938 115.263 200.871 114.955 206.919 115.087C214.235 115.247 214.004 115.418 217.929 106.919C218.04 106.682 219.534 107.471 221.249 108.675C222.966 109.881 224.95 110.481 225.659 110.012C226.368 109.543 227.294 110.12 227.715 111.294C228.192 112.626 229.689 113.329 231.694 113.164C233.461 113.017 236.288 113.498 237.975 114.231C240.142 115.173 241.308 115.131 241.944 114.088C242.607 113.001 242.85 113.007 242.865 114.111C242.892 116.327 248.959 117.585 250.976 115.792C252.326 114.591 252.699 114.691 252.699 116.253C252.699 117.347 251.835 118.599 250.781 119.032C249.726 119.466 249.196 120.399 249.605 121.106C250.012 121.812 248.928 122.772 247.196 123.238C243.596 124.205 241.315 127.871 242.409 130.93C242.843 132.137 241.813 134.895 239.952 137.508C238.19 139.982 236.754 142.786 236.763 143.737C236.781 146.074 247.752 157.434 251.012 158.495C252.446 158.96 255.594 161.395 258.007 163.906C260.419 166.416 263.525 168.469 264.908 168.469C266.315 168.469 267.423 169.33 267.423 170.422C267.423 171.496 269.658 173.958 272.388 175.894C277.202 179.307 277.476 179.349 281.502 177.293C288.69 173.621 297.896 152.296 298.272 138.453C298.382 134.36 299.24 129.664 300.177 128.017C301.115 126.37 301.55 124.447 301.145 123.745C300.739 123.042 301.338 122.468 302.474 122.468C304.128 122.468 304.389 121.66 303.785 118.42C303.289 115.767 303.621 113.737 304.746 112.53Z" fill="#CDD9E7"/>
<path d="M199.324 108.01C198.392 108.01 197.287 107.419 196.87 106.696C196.438 105.948 197.495 105.382 199.324 105.382C201.154 105.382 202.21 105.948 201.778 106.696C201.361 107.419 200.257 108.01 199.324 108.01Z" fill="#CDD9E7"/>
<path d="M301.165 52.0206C301.526 43.398 303.894 0.897925 304.062 0.0166147C304.103 -0.200405 307.645 1.73424 311.931 4.3173C316.217 6.90036 320.625 9.01374 321.728 9.01374C324.425 9.01374 337.66 16.7801 338.892 19.0852C339.432 20.0962 340.642 20.9233 341.583 20.9233C343.888 20.9233 345.18 23.4454 345.234 28.0557C345.258 30.1597 346.107 32.3497 347.12 32.924C349.688 34.3796 359.572 38.9689 362.164 39.9097C363.347 40.3385 364.313 41.9635 364.313 43.521C364.313 45.7997 363.772 46.2059 361.54 45.6025C354.118 43.5951 354.175 52.3248 361.632 59.5844C364.12 62.006 366.197 64.5693 366.247 65.2825C366.298 65.9945 367.043 68.5114 367.903 70.8774C369.399 74.9928 370.424 75.7537 373.831 75.2774C374.676 75.1583 375.366 76.3346 375.366 77.8908C375.366 79.6058 376.333 80.9913 377.822 81.4108C379.173 81.7919 380.279 82.9392 380.279 83.9621C380.279 84.985 381.66 86.4988 383.349 87.3285C385.037 88.1568 386.419 89.3359 386.419 89.9473C386.419 91.5762 384.838 91.3064 382.043 89.1958C379.716 87.4398 373.041 85.9273 361.55 84.551C361.044 84.4915 360.629 83.5822 360.629 82.5315C360.629 81.4808 359.663 79.8361 358.48 78.8767C356.509 77.2755 355.277 75.3462 351.472 67.9C347.859 60.8297 346.392 59.2987 343.228 59.2987C341.412 59.2987 339.197 58.5204 338.304 57.5702C335.261 54.3295 332.162 53.8254 330.472 56.2986C328.953 58.5204 328.833 58.5219 328.041 56.3213C326.724 52.6597 323.391 53.3901 324.065 57.1932C324.499 59.6334 324.194 60.1996 322.767 59.6094C321.411 59.0484 321.118 59.4415 321.693 61.0532C322.357 62.9204 321.62 63.2685 316.994 63.2685C310.746 63.2685 308.992 66.75 314.872 67.4818C318.882 67.9794 320.031 71.7719 316.747 73.6656C315.493 74.3881 310.997 74.6368 306.736 74.2213L299 73.4658L299.888 67.3747C300.377 64.0241 300.952 57.1152 301.165 52.0206Z" fill="#345764"/>
<path d="M415.148 20.9233C414.882 20.9233 414.665 20.0301 414.665 18.9384C414.665 17.8467 415.2 16.9535 415.855 16.9535C416.508 16.9535 416.726 17.8467 416.338 18.9384C415.948 20.0301 415.413 20.9233 415.148 20.9233Z" fill="#345764"/>
<path d="M409.007 22.7997C407.939 25.7983 404.84 25.3868 404.84 22.2466C404.84 20.4827 405.659 19.6 407.296 19.6C410.001 19.6 410.088 19.7641 409.007 22.7997Z" fill="#345764"/>
<path d="M398.211 30.8279C399.259 29.105 401.04 27.4907 402.171 27.2419C403.301 26.9918 404.564 27.7011 404.978 28.818C405.489 30.1995 404.899 30.9948 403.136 31.3058C401.709 31.5585 400.133 32.5365 399.633 33.4813C398.525 35.5734 389.502 40.7726 386.979 40.7726C385.977 40.7726 384.197 40.2313 383.025 39.5697C381.852 38.9067 378.958 37.4286 376.594 36.2826L372.296 34.1998L378.436 34.1759C396.17 34.1031 396.224 34.0938 398.211 30.8279Z" fill="#345764"/>
<path d="M436.156 40.7726C435.143 39.8662 434.326 38.1564 434.341 36.9721C434.362 35.3537 434.982 35.6422 436.833 38.1261C441.189 43.975 441.992 46.0658 439.883 46.0658C438.847 46.0658 437.998 45.2453 437.998 44.2422C437.998 43.2405 437.17 41.6791 436.156 40.7726Z" fill="#345764"/>
<path d="M481.421 83.1514C479.647 83.25 477.447 82.2979 476.519 81.0287C475.056 79.0257 475.077 78.9243 476.676 80.2447C477.687 81.0799 479.893 82.0347 481.578 82.3675L484.642 82.9726L481.421 83.1514Z" fill="#DBDBDB"/>
<path d="M535.5 150.405C534.826 150.405 534.274 149.813 534.274 149.09C534.274 148.366 534.826 147.774 535.5 147.774C536.174 147.774 536.725 148.366 536.725 149.09C536.725 149.813 536.174 150.405 535.5 150.405Z" fill="#DBDBDB"/>
<path d="M650.318 163.537C649.441 163.524 649.593 163.007 650.697 162.241C653.051 160.608 653.475 160.608 652.535 162.241C652.118 162.965 651.121 163.547 650.318 163.537Z" fill="#DBDBDB"/>
<path d="M644.191 166.167C643.313 166.154 643.465 165.637 644.569 164.872C646.924 163.238 647.347 163.238 646.407 164.872C645.991 165.595 644.993 166.178 644.191 166.167Z" fill="#DBDBDB"/>
<path d="M633.626 180.654C628.03 180.654 627.307 179.176 631.395 176.096C634.995 173.384 637.732 174.031 638.221 177.708C638.572 180.345 638.09 180.654 633.626 180.654Z" fill="#DBDBDB"/>
<path d="M517.833 229.316C515.182 229.316 504.001 218.7 501.414 213.726C497.877 206.926 499.909 206.572 504.4 213.205C506.237 215.918 510.259 220.653 513.339 223.726C516.419 226.8 518.442 229.316 517.833 229.316Z" fill="#DBDBDB"/>
</svg>
