<svg width="541" height="777" viewBox="0 0 541 777" fill="none" xmlns="http://www.w3.org/2000/svg">
<path d="M209.602 4.85011C209.211 5.89799 208.92 5.58641 208.862 4.05468C208.809 2.6689 209.098 1.89316 209.505 2.32967C209.912 2.76618 209.956 3.90083 209.602 4.85011Z" fill="#75D0D1"/>
<path d="M195.285 18.6121C195.285 17.033 201.449 13.521 207.199 11.825C214.573 9.649 216.425 9.55293 220.327 11.1438C222.419 11.9971 223.476 13.4263 223.488 15.4169C223.526 21.4163 224.919 22.1053 234.957 21.0956C243.218 20.2646 244.621 20.4579 247.405 22.8087C252.304 26.9424 257.187 27.5828 261.137 24.6074C266.067 20.8958 273.292 19.7413 275.665 22.2881C276.71 23.4083 276.974 24.3248 276.251 24.3248C275.529 24.3248 274.938 24.9164 274.938 25.6396C274.938 26.3627 275.909 26.9543 277.094 26.9543C278.28 26.9543 279.884 28.0429 280.659 29.3735C281.964 31.6165 286.231 32.3699 287.841 30.641C288.707 29.7114 294.523 32.5054 294.535 33.857C294.54 34.4 294.054 34.8431 293.452 34.8431C292.852 34.8431 292.013 36.3222 291.591 38.1301C291.168 39.9379 289.96 41.417 288.906 41.417C287.851 41.417 287.228 42.1573 287.522 43.0605C287.892 44.2004 290.361 44.5724 295.589 44.2766C299.845 44.0347 303.123 44.3949 303.123 45.1062C303.123 45.7978 301.193 47.9435 298.834 49.8736C294.212 53.6562 293.557 55.9467 296.267 58.8537C297.745 60.4407 297.419 60.9218 293.951 62.2681C290.434 63.6316 289.808 64.5862 289.097 69.6678C288.261 75.6488 289.249 79.0962 292.671 82.1439C294.431 83.7111 294.42 84.0884 292.548 86.3078C291.415 87.6515 289.815 88.7494 288.99 88.7494C288.167 88.7494 286.807 89.6369 285.967 90.7216C285.128 91.8063 282.9 92.6938 281.015 92.6938C276.191 92.6938 273.713 93.9466 273.713 96.3843C273.713 98.0133 273.386 98.1277 272.242 96.901C271.433 96.0333 269.338 95.3234 267.586 95.3234C265.833 95.3234 263.875 94.7935 263.235 94.1466C262.596 93.4997 260.28 92.5661 258.088 92.0704C253.436 91.0186 252.864 92.8566 256.25 97.9883C258.695 101.695 261.413 109.376 261.44 112.657C261.452 114.07 262.678 115.048 264.828 115.362L268.198 115.853L264.71 117.437C262.792 118.308 260.968 120.049 260.661 121.306C260.352 122.563 257.923 124.722 255.264 126.104C252.605 127.486 250.43 129.057 250.43 129.596C250.43 130.135 249.324 130.266 247.973 129.886C246.621 129.508 244.675 129.946 243.647 130.861C240.631 133.546 236.381 128.155 234.535 119.304C233.675 115.183 232.075 111.06 230.978 110.141C229.145 108.605 229.157 108.326 231.129 106.683C233.897 104.374 233.825 102.16 230.823 97.2955C228.178 93.0107 227.55 83.8925 229.597 79.5275C230.271 78.0917 231.406 75.6868 232.118 74.184C234.457 69.2509 231.808 67.8349 221.764 68.6501L212.841 69.3746L210.091 64.5993C208.577 61.9724 206.419 59.7294 205.294 59.6137C204.171 59.498 200.036 59.252 196.109 59.068C187.783 58.6762 185.066 56.2215 186.099 50.0197C186.535 47.4006 185.724 43.89 183.608 39.2502C180.493 32.4185 180.484 32.3121 182.485 24.927C184.376 17.9481 187.779 12.4917 190.24 12.4917C192.615 12.4917 192.647 19.7124 190.285 22.4367C187.428 25.7329 187.309 29.1539 189.86 34.6405C192.905 41.1908 197.747 39.8365 199.599 31.9175C200.189 29.3958 199.678 27.0398 197.86 23.8816C196.443 21.423 195.285 19.0525 195.285 18.6121Z" fill="#75D0D1"/>
<path d="M292.85 23.01C292.592 23.01 292.092 21.8267 291.739 20.3804C291.387 18.9341 291.598 17.7508 292.209 17.7508C292.82 17.7508 293.32 18.9341 293.32 20.3804C293.32 21.8267 293.108 23.01 292.85 23.01Z" fill="#75D0D1"/>
<path d="M299.258 57.5C296.811 57.5 298.122 54.3233 302.015 50.8207C306.34 46.929 307.069 47.1118 312.488 53.4452C314.986 56.3666 315.206 57.5485 314.453 64.0107C313.679 70.6688 313.778 71.1341 315.622 69.492C316.731 68.5045 317.639 66.8598 317.639 65.8382C317.639 63.423 321.749 65.6516 325.672 70.1928C328.054 72.9513 328.248 73.9465 327.146 77.7949C326.45 80.2312 324.634 82.8333 323.111 83.5775C319.094 85.5418 317.711 96.7306 320.903 101.435C322.142 103.257 323.844 104.768 324.686 104.792C325.994 104.826 326.855 108.389 326.362 111.735C326.282 112.278 326.728 112.721 327.353 112.721C327.977 112.721 328.669 113.732 328.893 114.968C329.169 116.517 327.578 118.151 323.774 120.222C320.737 121.876 317.545 123.231 316.682 123.234C315.818 123.237 314.794 124.127 314.407 125.212C314.018 126.296 313.236 127.184 312.67 127.184C310.945 127.184 305.388 121.087 305.342 119.144C305.318 118.142 304.566 115.907 303.673 114.176C302.281 111.482 302.375 110.068 304.329 104.334C307.144 96.073 307.179 93.7973 304.542 90.9679C303.405 89.7477 302.439 86.8946 302.397 84.6292C302.331 81.0674 301.88 80.5088 299.068 80.5088C295.504 80.5088 289.664 74.107 291.883 72.6345C292.569 72.1796 293.131 70.4926 293.131 68.8859C293.131 66.848 294.242 65.5148 296.807 64.4761C299.274 63.4769 300.483 62.0845 300.483 60.2438C300.483 58.7344 299.932 57.5 299.258 57.5Z" fill="#9BBACE"/>
<path d="M148.865 166.348C153.683 158.688 155.76 152.802 155.051 148.817C154.727 147.004 154.815 145.52 155.245 145.52C157.329 145.52 161.476 149.895 161.476 152.093C161.476 153.458 163.13 155.622 165.152 156.904C167.174 158.186 168.828 159.952 168.828 160.829C168.828 161.706 169.79 163.456 170.965 164.717C172.14 165.978 173.678 168.238 174.383 169.74C175.708 172.565 176.836 172.678 191.499 171.472C196.501 171.062 201.888 172.861 201.905 174.947C201.91 175.585 200.773 178.091 199.376 180.515C197.856 183.151 197.142 185.956 197.596 187.493C198.457 190.404 196.339 191.995 189.844 193.317C187.587 193.778 184.098 195.635 182.092 197.447C180.085 199.259 177.994 200.741 177.447 200.741C176.486 200.741 175.242 206.463 174.48 214.384C174.28 216.464 172.997 219.127 171.63 220.301C168.63 222.876 167.027 230.624 168.974 233.141C169.733 234.122 169.984 234.925 169.532 234.925C169.081 234.925 170.529 237.736 172.752 241.17C174.975 244.605 176.793 248.895 176.793 250.703C176.793 253.457 177.488 254.096 181.082 254.647C184.367 255.151 185.463 255.997 185.764 258.263C186.093 260.757 186.909 261.221 190.972 261.221C194.154 261.221 196.619 260.33 198.239 258.591L200.689 255.962V263.147C200.689 269.093 201.132 270.586 203.254 271.805C204.665 272.615 207.138 272.923 208.748 272.489C211.31 271.798 212.173 272.644 215.645 279.244C219.361 286.31 219.599 287.521 219.382 298.333C219.255 304.684 218.551 311.083 217.817 312.553C217.084 314.024 216.798 316.287 217.181 317.584C217.717 319.394 217.234 319.917 215.105 319.835C212.844 319.749 212.26 320.522 211.946 324.011C211.662 327.183 212.139 328.528 213.784 329.197C215.007 329.694 216.686 330.821 217.517 331.7C218.348 332.58 219.632 333.516 220.372 333.78C221.997 334.361 219.349 341.423 217.506 341.423C216.861 341.423 216.623 342.606 216.975 344.053C217.327 345.499 217.116 346.682 216.505 346.682C215.895 346.682 215.395 348.18 215.395 350.01C215.395 351.841 214.605 353.664 213.641 354.061C211.5 354.942 205.188 350.129 203.164 346.072C202.351 344.442 199.944 342.093 197.817 340.854C189.428 335.965 174.959 327.469 170.38 324.742C161.279 319.323 152.932 308.661 152.85 302.354C152.824 300.34 150.912 295.438 148.604 291.461C146.295 287.484 143.584 282.298 142.579 279.938C141.576 277.578 139.902 275.296 138.86 274.867C137.819 274.438 136.967 273.099 136.967 271.892C136.967 270.683 136.221 268.527 135.308 267.102C134.396 265.675 131.549 259.479 128.982 253.332C126.413 247.186 122.577 239.441 120.454 236.123C118.332 232.804 115.9 228.289 115.05 226.088C113.529 222.147 104.278 213.889 101.385 213.889C100.241 213.889 100.248 213.444 101.416 211.933C102.395 210.669 102.591 208.696 101.972 206.346C101.446 204.347 100.971 202.318 100.917 201.836C100.862 201.355 100.404 200.516 99.8976 199.974C98.4503 198.421 98.8241 192.849 100.51 190.831C101.353 189.824 102.787 188.052 103.698 186.895C104.608 185.738 105.695 185.156 106.113 185.606C106.531 186.054 106.156 186.897 105.278 187.478C102.715 189.178 104.028 196.08 106.944 196.224C112.51 196.502 113.426 196.916 114.039 199.426C114.462 201.161 115.711 202.055 117.709 202.055C120.819 202.055 121.274 201.284 124.873 189.894C125.73 187.183 126.807 184.963 127.266 184.963C127.727 184.963 128.391 183.78 128.744 182.334C129.154 180.653 132.25 178.325 137.328 175.881C143.422 172.947 146.109 170.727 148.865 166.348Z" fill="#A5CDC9"/>
<path d="M278.967 96.8823C283.48 96.8245 294.291 90.2597 295.8 86.6611C297.659 82.2316 300.19 82.997 299.309 87.7223C298.852 90.1744 299.079 91.6667 299.909 91.6667C301.912 91.6667 304.124 96.8403 302.897 98.6534C302.317 99.5107 301.112 102.514 300.219 105.326C297.059 115.293 304.766 129.796 313.224 129.796C314.627 129.796 316.072 128.963 316.434 127.947C316.798 126.931 318.749 125.709 320.77 125.233C322.791 124.757 325.029 123.611 325.745 122.687C326.674 121.485 328.708 121.281 332.876 121.968C339.844 123.12 340.953 122.592 340.217 118.466C339.706 115.598 340.064 115.333 344.434 115.333C347.06 115.333 350.43 116.145 351.923 117.138C354.152 118.621 363.797 119.131 370.259 118.107C370.763 118.028 372.457 115.151 374.026 111.717C380.15 98.3011 384.66 93.4022 384.66 100.167C384.66 101.95 385.427 105.943 386.364 109.042C387.301 112.141 388.413 116.294 388.834 118.271C389.339 120.644 390.634 122.145 392.644 122.687C396.22 123.649 396.357 124.595 393.721 130.066C391.395 134.89 390.085 136.695 385.599 141.252C383.757 143.123 381.061 147.287 379.61 150.505C377.83 154.449 375.829 156.782 373.462 157.666C369.323 159.215 368.865 162.052 372.587 163.096C375.302 163.859 383.804 159.957 385.375 157.229C385.91 156.299 386.785 157.451 387.603 160.163C388.666 163.691 389.958 164.982 393.755 166.316C397.661 167.688 398.748 167.689 399.558 166.322C400.172 165.283 400.56 166.528 400.573 169.568C400.59 174.21 402.865 176.777 403.195 172.526C403.28 171.441 403.417 169.915 403.501 169.133C403.586 168.352 404.62 166.955 405.799 166.03C406.978 165.104 407.988 163.525 408.04 162.521C408.111 161.186 408.304 161.136 408.755 162.337C409.42 164.105 412.755 164.623 412.985 162.994C413.062 162.451 413.311 160.285 413.54 158.179C413.768 156.074 414.507 153.985 415.182 153.538C416.955 152.361 426.325 153.52 426.325 154.915C426.325 155.561 427.395 156.091 428.704 156.091C430.012 156.091 431.423 156.683 431.84 157.406C432.256 158.129 433.648 158.721 434.933 158.721C436.217 158.721 437.872 159.933 438.611 161.413C439.494 163.182 440.71 163.848 442.158 163.355C445.051 162.371 448.388 166.295 446.003 167.877C445.033 168.52 444.791 169.636 445.393 170.681C445.943 171.637 446.272 175.106 446.122 178.389L445.851 184.359L448.273 181.072C449.605 179.264 451.297 177.785 452.033 177.785C452.771 177.785 453.778 177.083 454.274 176.225C456.209 172.865 461.795 171.764 465.755 173.961C471.323 177.05 481.113 179.496 482.939 178.253C488.282 174.617 499.188 180.077 508.993 191.295C515.344 198.563 523.952 204.01 528.503 203.642C534.515 203.156 536.472 204.518 537.272 209.742C537.681 212.414 538.665 216.021 539.46 217.756C541.852 222.989 541.048 239.967 538.069 247.14C536.558 250.78 534.668 253.386 533.541 253.386C532.476 253.386 531.725 254.126 531.87 255.029C532.317 257.788 529.026 263.807 526.624 264.624C525.379 265.049 524.36 265.929 524.36 266.581C524.36 267.233 523.533 267.425 522.522 267.009C521.389 266.543 520.683 267.012 520.683 268.234C520.683 269.324 518.701 275.298 516.276 281.512C511.924 292.665 511.842 292.771 509.734 289.979C507.14 286.542 504.886 287.707 504.777 292.544C504.585 301.095 504.606 306.568 504.91 327.283C505.19 346.4 504.964 349.566 503.155 351.711C501.638 353.508 501.077 356.544 501.077 362.946C501.077 367.77 500.568 371.717 499.947 371.717C499.324 371.717 498.151 373.936 497.34 376.647C496.529 379.36 495.027 382.607 494.003 383.865C492.979 385.124 491.88 389.075 491.56 392.645C491.057 398.253 490.508 399.348 487.537 400.668C484.009 402.237 482.152 405.211 483.376 407.334C483.755 407.993 482.102 408.531 479.704 408.531C477.306 408.531 475.342 407.939 475.342 407.216C475.342 406.493 474.515 405.901 473.504 405.901C472.493 405.901 471.666 406.706 471.666 407.689C471.666 408.967 470.236 409.367 466.648 409.094C461.061 408.666 458.186 409.464 458.186 411.44C458.186 413.067 451.857 418.518 450.514 418.05C449.067 417.545 442.824 421.241 439.394 424.634C429.981 433.947 427.679 435.92 425.29 436.734C422.644 437.635 421.987 438.936 423.407 440.462C423.825 440.909 424.313 443.522 424.492 446.268C424.671 449.014 425.444 455.655 426.211 461.028C427.258 468.371 427.254 471.025 426.194 471.727C425.42 472.241 425.192 473.367 425.688 474.228C426.211 475.137 425.569 476.563 424.16 477.622C421.35 479.733 416.588 489.947 416.379 494.306C416.273 496.532 416.096 496.702 415.677 494.978C415.024 492.296 413.903 492.069 411.905 494.212C410.815 495.382 410.288 495.225 409.691 493.554C409.26 492.349 408.138 491.363 407.2 491.363C405.194 491.363 404.983 492.919 406.734 494.798C408.19 496.36 406.161 503.907 403.345 507.405C402.348 508.643 401.312 513.267 401.024 517.75C400.738 522.21 399.633 527.665 398.569 529.873C396.845 533.45 396.503 533.634 395.422 531.562C394.599 529.983 394.644 528.772 395.562 527.787C398.101 525.063 396.917 522.251 391.301 517.652C388.213 515.125 384.658 512.052 383.401 510.825C382.143 509.599 379.528 507.714 377.59 506.639C375.652 505.563 373.35 503.757 372.473 502.625C371.597 501.493 370.075 500.566 369.092 500.566C368.108 500.566 364.873 498.429 361.903 495.818C358.343 492.688 355.767 491.345 354.344 491.876C352.373 492.614 352.36 492.538 354.199 490.996C355.305 490.067 357.403 486.586 358.86 483.259C362.132 475.793 371.663 464.793 377.001 462.323C380.548 460.682 380.983 459.903 380.977 455.214C380.973 452.317 380.391 447.706 379.681 444.969C378.662 441.026 377.669 439.834 374.914 439.243C371.471 438.504 371.443 438.419 372.09 430.769C372.89 421.3 371.421 418.829 365.302 419.345C361.074 419.7 360.976 419.593 359.578 413.133C357.492 403.49 355.798 400.872 351.026 399.911C348.718 399.447 346.253 399.45 345.547 399.918C344.841 400.387 342.323 400.379 339.953 399.902C335.708 399.047 335.643 398.935 335.643 392.481C335.643 388.613 334.769 384.34 333.509 382.053C331.692 378.753 331.636 378.008 333.125 377.02C334.572 376.061 334.598 375.506 333.271 373.79C332.072 372.241 331.989 370.807 332.941 368.102C335.383 361.162 335.592 354.597 333.516 349.927C332.414 347.448 330.8 345.421 329.93 345.421C327.126 345.421 324.533 339.61 325.359 335.179L326.124 331.079L317.285 330.69L308.447 330.301L306.887 325.418C306.029 322.733 305.563 320.281 305.854 319.969C306.144 319.658 305.669 315.699 304.798 311.171C303.484 304.347 302.58 302.513 299.515 300.46C297.425 299.061 294.34 298.195 292.423 298.468C290.516 298.742 288.412 298.156 287.619 297.131C286.843 296.128 284.372 294.483 282.128 293.477C279.883 292.472 278.048 291.027 278.048 290.267C278.048 289.507 276.978 288.885 275.669 288.885C274.36 288.885 272.92 288.242 272.467 287.456C272.015 286.67 270.639 286.308 269.411 286.652C268.182 286.997 265.901 286.322 264.341 285.152C255.718 278.686 254.42 275.787 254.247 262.589L254.152 255.358L247.855 255.406C242.876 255.444 240.497 256.27 236.491 259.351C233.704 261.494 230.13 263.981 228.546 264.881C226.963 265.78 225.059 267.303 224.315 268.265C223.322 269.548 221.238 269.769 216.499 269.097C212.944 268.592 209.129 268.683 208.02 269.301C204.531 271.242 202.867 267.372 203.745 259.36C204.174 255.438 204.039 251.907 203.445 251.512C202.849 251.118 200.291 252.561 197.76 254.72C193.069 258.718 188.591 259.883 188.591 257.105C188.591 254.633 184.733 250.756 182.274 250.756C181.03 250.756 180.013 249.879 180.013 248.808C180.013 247.735 177.813 243.001 175.125 238.289C172.436 233.576 170.782 229.72 171.448 229.72C172.115 229.72 172.66 228.274 172.66 226.507C172.66 224.74 173.684 222.521 174.936 221.577C176.468 220.419 177.496 217.398 178.085 212.318C178.829 205.902 179.579 204.23 183.119 201.099C188.079 196.713 200.649 192.169 202.457 194.108C203.233 194.941 204.456 194.962 205.837 194.169C207.437 193.25 208.202 190.612 208.773 184.041C209.198 179.154 210.157 171.163 210.906 166.281C212.371 156.73 210.798 147.844 207.269 145.724C206.23 145.101 205.707 143.17 205.953 140.858C206.299 137.607 206.963 136.965 210.342 136.615C213.654 136.272 214.325 135.657 214.325 132.967C214.325 130.421 213.538 129.561 210.649 128.941C208.627 128.507 206.973 127.338 206.973 126.344C206.973 124.978 209.121 124.536 215.76 124.536C222.332 124.536 225.132 123.97 226.864 122.288C228.862 120.347 229.336 120.303 230.312 121.959C230.935 123.015 231.452 125.078 231.463 126.544C231.485 129.755 241.162 137.027 242.912 135.149C243.612 134.399 244.929 134.517 246.333 135.458C248.234 136.732 248.94 136.49 250.559 134.012C251.626 132.375 254.527 130.018 257.002 128.773C259.479 127.527 262.036 125.209 262.686 123.623C263.334 122.034 265.127 120.396 266.668 119.982C270.775 118.876 270.645 112.703 266.514 112.703C263.988 112.703 263.432 111.889 262.695 107.115C262.221 104.043 261.346 100.534 260.752 99.32C259.801 97.3728 260.129 97.2519 263.52 98.2958C265.636 98.9467 267.845 99.1635 268.427 98.777C269.01 98.3905 269.818 98.9993 270.222 100.13C271.319 103.196 275.597 102.74 275.597 99.5554C275.597 97.574 276.428 96.9152 278.967 96.8823Z" fill="#003479"/>
<path d="M392.432 153.614C391.865 153.169 391.252 151.25 391.071 149.349C390.743 145.912 390.78 145.896 398.423 146.304C402.648 146.529 407.032 146.752 408.164 146.801C409.833 146.871 410.035 147.59 409.233 150.593C407.377 157.535 405.387 159.539 398.895 160.999C391.622 162.635 389.387 161.428 391.85 157.197C392.738 155.672 392.999 154.06 392.432 153.614Z" fill="#003479"/>
<path d="M381.577 155.511C379.854 157.878 379.824 157.801 381.16 154.448C382.604 150.831 383.435 149.897 383.435 151.896C383.435 152.481 382.599 154.107 381.577 155.511Z" fill="#003479"/>
<path d="M251.668 415.602C251.97 408.295 252.525 406.406 255.228 403.498C257.427 401.13 258.822 400.476 259.687 401.407C260.38 402.153 263.057 402.762 265.638 402.762C269.573 402.762 270.664 403.396 272.407 406.693C275.107 411.799 277.213 411.688 278.484 406.372C279.33 402.831 280.159 402.036 283.358 401.697C286.749 401.339 288.399 402.558 297.103 411.851C304.746 420.012 308.296 422.83 312.717 424.243C315.863 425.248 320.898 427.815 323.905 429.946C326.912 432.077 331.567 434.68 334.251 435.733C337.988 437.2 339.215 438.431 339.497 440.996C339.698 442.844 339.016 445.101 337.972 446.033C336.932 446.963 336.08 449.683 336.08 452.079C336.08 454.477 335.531 456.802 334.861 457.248C334.19 457.695 333.641 459.217 333.641 460.629C333.641 462.603 334.419 463.155 336.995 463.011C338.841 462.907 344.083 463.504 348.645 464.338C353.208 465.172 357.599 465.411 358.402 464.869C359.207 464.326 360.414 463.809 361.085 463.72C361.755 463.629 362.991 463.466 363.829 463.356C364.668 463.247 365.354 462.339 365.354 461.338C365.354 460.338 366.694 458.574 368.332 457.419C370.576 455.836 371.402 453.942 371.686 449.731C372.201 442.079 375.641 441.231 377.467 448.306C379.5 456.19 379.09 457.655 373.85 461.216C367.822 465.311 359.255 474.635 359.255 477.101C359.255 478.096 358.743 478.912 358.117 478.912C357.491 478.912 356.591 480.23 356.117 481.841C355.174 485.037 350.822 492.147 348.906 493.622C347.418 494.768 347.891 529.166 349.57 541.933C349.981 545.053 351.856 546.985 358.205 550.822C363.668 554.126 364.131 554.795 364.133 559.39C364.134 563.529 364.742 564.751 367.726 566.593C372.399 569.48 372.887 571.985 370.089 578.714C368.826 581.75 367.793 585.033 367.793 586.013C367.793 590.441 346.681 596.473 335.212 595.319C330.994 594.895 327.546 594.97 327.551 595.484C327.554 595.998 328.605 598.129 329.884 600.217C331.512 602.876 332.01 605.347 331.542 608.454C331.065 611.618 331.492 613.625 333.027 615.453C335.107 617.926 335.068 618.063 331.893 619.363C327.369 621.214 324.742 621.058 319.031 618.597C316.335 617.437 313.306 616.827 312.298 617.244C310.3 618.068 309.726 624.647 311.651 624.647C312.303 624.647 313.29 626.568 313.845 628.914C314.411 631.312 316.01 633.741 317.494 634.456C319.507 635.429 319.962 636.477 319.404 638.865C318.982 640.674 319.285 642.403 320.122 642.96C321.219 643.69 321.233 644.717 320.176 647.211C319.165 649.6 319.141 651.885 320.085 655.568C321.023 659.225 321.011 660.887 320.039 661.533C319.298 662.025 319.069 663.086 319.53 663.888C320.043 664.782 319.374 665.348 317.803 665.348C314.213 665.348 309.648 670.448 308.652 675.569C307.906 679.412 308.326 680.393 312.495 684.554C317.591 689.64 321.262 691.607 325.661 691.607C328.8 691.607 330.776 695.216 328.802 697.34C326.867 699.424 327.307 701.176 329.537 700.255C330.633 699.802 329.296 701.908 326.566 704.936C321.506 710.548 318.953 716.753 321.352 717.613C322.761 718.119 323.209 723.117 321.845 723.117C321.395 723.117 319.989 722.106 318.721 720.872C316.732 718.934 316.261 718.89 315.289 720.544C313.628 723.371 313.875 724.43 316.199 724.43C317.811 724.43 317.947 724.781 316.809 726.006C314.724 728.249 314.908 736.247 317.044 736.247C317.978 736.247 319.059 737.133 319.446 738.216C319.873 739.416 319.447 740.185 318.357 740.185C317.371 740.185 316.565 740.776 316.565 741.498C316.565 742.22 317.8 742.83 319.309 742.853C320.818 742.876 323.151 743.842 324.493 744.999L326.932 747.103L324.493 746.057C323.151 745.482 317.388 744.664 311.686 744.24C300.007 743.371 297.647 742.047 293.921 734.277C291.826 729.913 290.796 729.039 287.822 729.105C285.395 729.161 283.457 728.119 281.803 725.873C277.047 719.416 276.559 717.481 278.791 713.927C281.348 709.855 281.609 702.803 279.279 700.722C277.195 698.859 277.009 695.322 278.891 693.297C279.682 692.446 279.822 691.103 279.227 690.08C278.664 689.115 278.357 687.327 278.544 686.107C278.729 684.886 277.805 681.489 276.489 678.558C275.172 675.625 274.596 673.226 275.205 673.226C276.737 673.226 276.606 668.323 275.044 667.285C274.347 666.82 274.117 665.28 274.536 663.862C275.532 660.48 273.107 657.471 269.385 657.471C267.749 657.471 266.732 656.915 267.122 656.235C268.243 654.281 263.761 644.396 261.385 643.585C260.204 643.182 259.238 641.744 259.238 640.392C259.238 639.038 258.631 637.527 257.888 637.033C256.947 636.407 257.039 635.802 258.19 635.036C259.558 634.127 259.49 633.192 257.802 629.621C254.93 623.54 253.328 617.263 252.515 608.892C252.129 604.92 251.526 600.638 251.174 599.373C250.823 598.109 251.139 597.076 251.876 597.076C254.803 597.076 254.452 592.719 250.894 584.918C245.622 573.358 245.215 570.7 248.185 567.268C250.04 565.124 250.477 563.382 249.916 560.361C249.503 558.138 248.767 556.055 248.279 555.732C247.792 555.407 247.857 552.021 248.423 548.208C249.483 541.078 248.78 533.226 246.847 530.593C245.26 528.43 239.734 516.522 239.727 515.252C239.725 514.659 238.885 513.271 237.86 512.168C235.888 510.045 236.285 503.187 238.691 497.835C239.575 495.867 239.435 493.833 238.193 490.614C236.237 485.545 236.634 477.532 239.132 471.691C240.058 469.524 241.129 466.128 241.512 464.141C241.901 462.125 243.023 460.531 244.053 460.531C246.783 460.531 247.513 457.104 245.455 453.942C244.462 452.418 243.929 450.023 244.271 448.622C244.611 447.222 244.242 445.234 243.449 444.207C242.657 443.179 241.906 439.496 241.78 436.022C241.559 429.895 241.698 429.624 246.431 426.983C251.3 424.265 251.311 424.243 251.668 415.602Z" fill="#037FB2"/>
<path d="M327.676 639.835C326.991 639.378 326.775 638.034 327.2 636.846C327.875 634.947 328.072 634.992 328.822 637.216C329.812 640.152 329.438 641.008 327.676 639.835Z" fill="#037FB2"/>
<path d="M325.013 759.086C320.002 759.949 319.756 759.508 322.832 755.178C323.387 754.396 325.067 753.806 326.566 753.865C328.651 753.946 330.091 755.775 332.687 761.639C334.553 765.856 336.08 769.56 336.08 769.869C336.08 770.649 329.862 768.978 327.118 767.46C324.965 766.271 324.978 766.128 327.423 764.285C328.83 763.225 329.982 761.428 329.982 760.293C329.982 758.616 329.054 758.39 325.013 759.086Z" fill="#037FB2"/>
<path d="M342.374 774.114C342.146 773.476 340.658 770.32 339.067 767.099L336.175 761.245L341.922 765.589C345.082 767.979 351.235 771.524 355.596 773.467L363.524 777L353.156 776.137C347.454 775.663 342.602 774.752 342.374 774.114Z" fill="#037FB2"/>
<path d="M173.149 13.0134C176.722 13.0134 186.286 7.53257 190.726 2.94234C194.081 -0.526848 196.996 -1.00359 196.996 1.91425C196.996 3.07195 195.497 4.23235 193.428 4.67369C188.835 5.6546 180.308 16.6959 178.509 23.9879C177.777 26.9555 176.373 30.726 175.389 32.3669C173.308 35.8348 174.077 37.8962 177.451 37.8962C178.93 37.8962 179.831 38.7933 179.831 40.2653C179.831 41.5684 180.592 43.7462 181.523 45.1055C182.758 46.9102 182.899 48.5447 182.043 51.1665C181.085 54.1001 181.389 55.5067 183.702 58.8489C186.335 62.652 187.009 62.9192 193.297 62.6547C202.21 62.2814 204.425 63.206 207.742 68.6867C210.5 73.2468 210.561 73.2704 217.55 72.5016C221.419 72.076 225.255 71.5076 226.077 71.2391C228.699 70.3813 228.728 72.4833 226.172 78.4355C223.368 84.9692 223.718 94.8777 226.936 100.124C228.585 102.813 228.531 103.303 226.362 105.401C223.208 108.449 223.334 109.452 227.342 113.22C229.869 115.596 230.209 116.402 228.699 116.432C227.591 116.455 226.321 117.488 225.874 118.729C225.205 120.593 224.88 120.664 223.997 119.14C223.192 117.746 222.525 117.657 221.263 118.776C220.345 119.589 216.302 120.435 212.279 120.656L204.966 121.057L204.581 126.796C204.254 131.685 204.496 132.41 206.224 131.702C207.34 131.245 208.892 131.302 209.674 131.83C210.525 132.404 209.63 133.065 207.445 133.479C202.563 134.402 200.808 139.401 203.491 144.739C207.23 152.182 209.234 157.361 208.719 158.253C208.432 158.749 207.536 165.421 206.729 173.079C205.358 186.094 205.115 186.906 203.008 185.5C200.829 184.047 200.836 183.842 203.229 179.512C204.591 177.046 205.429 174.261 205.092 173.322C203.495 168.874 188.389 164.768 185.394 167.968C184.407 169.022 182.183 169.507 179.94 169.154C176.922 168.682 176.153 167.927 176.153 165.436C176.153 163.531 175.434 162.31 174.314 162.31C173.302 162.31 172.473 161.278 172.471 160.018C172.47 158.759 170.825 156.55 168.817 155.114C166.81 153.677 164.581 150.99 163.865 149.143C162.515 145.664 156.906 141.356 153.723 141.356C152.722 141.356 150.6 140.226 149.008 138.843C146.716 136.852 144.902 136.482 140.29 137.061C135.369 137.679 134.466 137.448 134.466 135.578C134.466 134.339 132.711 132.537 130.481 131.484C124.745 128.779 118.502 123.036 121.285 123.028C122.833 123.023 123.431 121.966 123.431 119.238C123.431 116.022 124.027 115.326 127.416 114.589C130.787 113.855 131.919 112.551 134.772 106.113C138.106 98.5878 139.008 94.2113 137.224 94.2087C136.049 94.2061 136.196 78.1827 137.39 76.1175C137.884 75.2636 137.856 73.8296 137.327 72.9286C136.799 72.0289 136.538 70.181 136.746 68.8242C136.956 67.4674 136.143 64.4043 134.939 62.0155L132.749 57.674L136.336 54.662C138.307 53.0053 140.624 51.8226 141.484 52.0335C142.504 52.2836 143.048 50.9426 143.048 48.1793C143.048 44.9078 144.19 42.8045 148.056 38.9542C150.81 36.2119 153.437 33.9674 153.896 33.9674C154.354 33.9674 155.413 30.8871 156.251 27.1219C157.088 23.3567 158.904 19.0834 160.286 17.6271C162.642 15.1415 162.872 15.1193 164.018 17.2697C165.693 20.4115 166.928 20.1456 168.573 16.2875C169.54 14.0205 170.948 13.0134 173.149 13.0134Z" fill="#475B7F"/>
<path d="M329.06 84.0544C329.472 82.0645 330.09 79.3395 330.433 77.998C330.93 76.0436 331.81 75.7213 334.853 76.3736C336.943 76.8221 339.031 77.848 339.494 78.6528C339.959 79.4577 340.96 79.7037 341.721 79.2C342.481 78.6963 342.802 77.7599 342.433 77.1207C341.72 75.8818 356.328 76.4802 357.498 77.7362C357.877 78.1426 356.99 79.843 355.528 81.5133C352.355 85.1379 351.974 93.0358 354.7 98.6477C356.145 101.619 356.253 103.527 355.226 107.904L353.932 113.417L346.545 113.637C338.35 113.881 334.79 115.803 337.07 118.753C338.141 120.138 338.038 120.551 336.623 120.551C334.182 120.551 332.814 118.515 330.185 110.972C328.979 107.512 327.352 104.257 326.569 103.739C323.163 101.484 321.168 96.5854 322.325 93.3198C322.956 91.5377 323.161 89.5387 322.778 88.8759C322.397 88.213 323.486 87.6712 325.198 87.6712C327.595 87.6712 328.483 86.84 329.06 84.0544Z" fill="#DBDBDB"/>
<path d="M357.792 97.5835C354.695 91.0641 354.706 89.8543 357.925 83.7097C360.471 78.8462 360.618 78.7712 364.303 80.4336C368.358 82.2644 373.7 87.2042 373.7 89.1244C373.7 89.7715 374.51 90.3015 375.501 90.3015C376.596 90.3015 377.024 91.0722 376.595 92.2743C376.148 93.5237 376.611 94.2471 377.859 94.2471C380.479 94.2471 380.356 94.9822 376.906 99.9246C375.3 102.228 373.566 105.591 373.053 107.399C371.046 114.483 368.778 116.72 364.48 115.855C362.279 115.412 359.344 115.7 357.958 116.496C355.558 117.876 355.498 117.74 356.709 113.658C357.407 111.301 358.493 107.891 359.122 106.081C359.988 103.587 359.667 101.529 357.792 97.5835Z" fill="#DBDBDB"/>
<path d="M117.721 132.387C118.987 132.387 120.022 131.814 120.022 131.112C120.022 129.559 128.141 134.988 132.031 139.141C133.946 141.189 136.494 142.232 139.997 142.405C146.055 142.705 149.434 143.957 149.434 145.905C149.434 146.676 150.285 148.314 151.325 149.548C153.04 151.58 152.928 152.465 150.136 159.015C146.657 167.179 140.376 173.8 134.883 175.094C129.88 176.274 124.393 182.584 122.514 189.321C121.663 192.366 120.369 196.225 119.636 197.896L118.304 200.934L116.2 197.939C115.042 196.292 112.257 194.23 110.012 193.358C107.766 192.485 106.619 191.726 107.461 191.671C108.304 191.615 108.993 190.158 108.993 188.433C108.993 186.707 109.808 183.611 110.803 181.552C111.798 179.493 112.55 174.857 112.474 171.25L112.337 164.691L109.098 168.854C104.695 174.515 102.631 172.881 102.419 163.563C102.29 157.92 102.735 155.957 104.397 154.844C105.576 154.054 106.559 152.081 106.581 150.461C106.602 148.839 107.445 146.34 108.455 144.907C109.652 143.206 110.016 140.97 109.502 138.462C108.866 135.351 109.075 134.771 110.603 135.399C111.641 135.827 113.15 135.324 113.955 134.283C114.761 133.24 116.456 132.387 117.721 132.387Z" fill="#DBDBDB"/>
<path d="M392.502 154.898C391.935 154.452 391.322 152.533 391.141 150.632C390.813 147.194 390.85 147.178 398.494 147.586C402.719 147.811 407.103 148.034 408.235 148.083C409.904 148.153 410.106 148.872 409.304 151.876C407.448 158.82 405.458 160.824 398.965 162.286C391.692 163.922 389.457 162.714 391.92 158.482C392.808 156.956 393.069 155.344 392.502 154.898Z" fill="#DBDBDB"/>
<path d="M1.38282 154.726C-0.402728 154.707 -0.435828 154.529 1.14874 153.43C3.54827 151.765 5.17083 151.765 4.21249 153.43C3.79582 154.154 2.52254 154.736 1.38282 154.726Z" fill="#DBDBDB"/>
<path d="M381.647 156.796C379.924 159.163 379.893 159.086 381.23 155.732C382.673 152.114 383.504 151.18 383.504 153.179C383.504 153.764 382.669 155.391 381.647 156.796Z" fill="#DBDBDB"/>
<path d="M229.693 269.135C230.373 269.117 233.411 267.069 236.445 264.583C240.862 260.963 242.934 260.12 246.861 260.342C250.559 260.55 251.636 261.104 251.247 262.591C249.91 267.705 252.402 279.896 255.459 283.204C260.141 288.266 265.236 291.525 268.473 291.525C270.325 291.525 272.186 292.126 272.609 292.861C273.033 293.596 273.896 293.856 274.528 293.436C275.16 293.016 276.009 293.599 276.413 294.73C276.817 295.86 277.839 296.786 278.684 296.786C279.529 296.786 282.252 298.266 284.735 300.074C287.218 301.882 290.64 303.362 292.34 303.362C296.726 303.362 300.17 305.662 300.17 308.591C300.17 309.969 300.783 311.504 301.531 312C302.329 312.529 302.613 314.742 302.219 317.345C301.819 319.996 302.255 323.243 303.303 325.398C304.267 327.384 305.06 330.023 305.065 331.264C305.076 334.471 308.878 336.242 315.754 336.242C321.314 336.242 321.712 336.468 321.967 339.767C322.293 344.005 325.375 349.393 327.473 349.393C328.304 349.393 329.715 351.165 330.608 353.33C332.189 357.162 331.83 362.031 329.475 368.741L328.454 371.649L322.585 368.863C316.928 366.178 316.428 366.153 308.749 368.156C304.368 369.299 299.344 370.565 297.587 370.97C293.582 371.895 290.375 380.125 290.348 389.55C290.337 393.143 289.924 396.674 289.429 397.398C288.934 398.121 286.101 398.771 283.134 398.842C279.4 398.93 277.229 399.718 276.082 401.401C274.796 403.287 274.098 403.48 272.96 402.259C272.153 401.393 269.621 400.686 267.332 400.686C265.044 400.686 261.644 399.718 259.779 398.535C256.429 396.411 256.334 396.447 251.964 401.495C249.532 404.305 247.525 407.047 247.507 407.59C247.418 410.269 243.739 408.111 243.025 404.96C242.574 402.97 241.462 400.175 240.551 398.748C239.641 397.323 238.895 394.807 238.895 393.159C238.895 391.512 238.316 390.164 237.607 390.164C235.569 390.164 232.647 381.279 233.492 377.659C233.932 375.779 233.729 374.382 233.016 374.382C232.332 374.382 232.051 373.236 232.392 371.836C232.762 370.322 231.761 367.525 229.922 364.931C228.223 362.533 226.422 358.797 225.921 356.627C225.421 354.457 223.936 351.112 222.621 349.193L220.23 345.706L224.148 339.594L228.066 333.484L225.087 329.272C220.995 323.488 219.853 316.189 222.389 312.033C223.898 309.562 224.055 308.178 223.051 306.167C221.397 302.848 221.339 294.575 222.964 293.498C225.016 292.138 224.376 289.501 219.964 281.126L215.74 273.103L220.479 273.917C224.451 274.599 225.48 274.279 226.837 271.949C227.728 270.419 229.012 269.153 229.693 269.135Z" fill="#DBDBDB"/>
<path d="M216.774 357.709C218.511 356.405 219.279 354.763 218.895 353.185C218.563 351.822 218.698 350.709 219.196 350.709C220.273 350.709 222.257 354.926 224.104 361.145C224.842 363.629 226.371 366.759 227.501 368.099C228.96 369.83 229.462 372.425 229.232 377.062C229.035 381.051 229.421 383.588 230.226 383.588C230.951 383.588 231.543 384.68 231.543 386.015C231.543 387.35 232.623 389.491 233.945 390.774C235.266 392.058 236.251 393.481 236.132 393.937C236.014 394.394 237.277 398.805 238.938 403.738C241.779 412.174 242.16 412.679 245.329 412.187C248.157 411.748 248.699 412.142 248.699 414.637C248.699 419.986 246.581 423.657 241.99 426.266L237.478 428.831L238.125 436.13C239.188 448.123 240.315 454.581 241.476 455.351C243.188 456.488 242.762 458.554 240.816 458.554C239.027 458.554 238.47 459.868 237.051 467.431C236.61 469.783 235.813 471.706 235.28 471.706C233.756 471.706 232.476 489.707 233.81 492.38C234.608 493.98 234.421 497.147 233.239 502.133C231.457 509.638 232.383 516.422 235.188 516.422C235.88 516.422 236.445 517.606 236.445 519.052C236.445 520.499 236.861 521.683 237.371 521.683C237.881 521.683 239.046 523.606 239.962 525.957C240.878 528.309 242.723 532.762 244.062 535.854C245.718 539.677 246.111 541.993 245.293 543.087C243.125 545.986 242.861 555.014 244.815 559.466C246.527 563.369 246.497 563.924 244.454 566.347C241.388 569.983 242.707 579.589 247.381 587.674C250.277 592.682 250.6 593.963 249.125 594.57C247.638 595.183 247.434 597.473 247.987 607.332C248.362 614.018 249.35 620.24 250.213 621.363C251.448 622.971 251.453 623.493 250.231 623.933C249.389 624.237 248.699 625.397 248.699 626.511C248.699 628.222 248.394 628.263 246.729 626.779C245.055 625.289 244.503 625.397 243.074 627.495C241.458 629.867 241.271 629.824 238.305 626.39C235.12 622.702 234.915 621.603 234.722 607.142C234.631 600.363 234.029 597.777 231.849 594.799C230.333 592.728 229.092 590.002 229.092 588.742C229.092 587.48 228.324 585.765 227.386 584.93C224.881 582.698 224.052 578.236 226.143 578.236C227.289 578.236 227.919 576.585 228.024 573.304C228.111 570.592 228.383 566.597 228.63 564.426C229.774 554.33 229.963 525.739 228.916 521.025C228.274 518.132 226.637 512.907 225.28 509.412C223.345 504.434 222.989 501.543 223.629 496.039C224.273 490.517 223.979 488.169 222.253 485.035C220.56 481.958 220.348 480.361 221.323 478.023C222.929 474.169 223.366 447.985 221.867 445.519C221.154 444.348 221.245 442.793 222.115 441.299C223.143 439.532 223.114 437.809 222.002 434.511C221.183 432.08 220.513 427.439 220.513 424.2C220.513 420.96 219.828 417.574 218.991 416.676C217.78 415.376 217.808 414.819 219.136 413.939C220.444 413.069 220.648 409.91 220.085 399.197C219.316 384.55 217.963 374.458 215.558 365.426C214.148 360.121 214.225 359.626 216.774 357.709Z" fill="#DBDBDB"/>
<path d="M295.48 379.413C296.715 374.978 297.393 374.419 303.706 372.638C313.949 369.75 319.584 369.956 324.29 373.396C326.518 375.022 328.343 377.377 328.348 378.625C328.353 379.873 329.378 382.696 330.625 384.898C332.301 387.855 332.745 390.57 332.324 395.28C331.62 403.132 332.298 403.668 343.612 404.198C352.432 404.613 355.318 406.311 355.318 411.086C355.318 414.732 359.235 424.176 361.058 424.927C362.042 425.333 363.959 425.027 365.316 424.247C366.672 423.469 368.074 423.144 368.431 423.526C368.787 423.909 369.009 430.615 368.923 438.429C368.776 451.807 368.589 452.804 365.719 455.531C364.042 457.124 362.671 459.001 362.671 459.701C362.671 461.963 347.82 462.737 341.937 460.783C338.739 459.72 337.108 458.595 337.954 458.033C338.742 457.511 339.386 455.659 339.386 453.918C339.386 452.176 340.312 448.67 341.443 446.125C344.221 439.872 342.217 435.896 334.744 432.833C331.68 431.577 326.922 428.932 324.169 426.954C321.417 424.976 317.402 422.951 315.247 422.453C313.091 421.956 309.337 419.853 306.906 417.779C304.473 415.704 302.097 413.822 301.624 413.594C301.152 413.367 298.933 410.668 296.692 407.597C292.748 402.188 292.645 401.738 293.379 393.13C293.795 388.244 294.741 382.071 295.48 379.413Z" fill="#DBDBDB"/>
<path d="M350.32 511.156C350.073 499.058 350.146 498.695 352.998 497.837C354.611 497.353 356.206 496.901 356.543 496.831C357.655 496.605 365.122 504.689 365.122 506.12C365.122 506.901 366.46 507.247 368.143 506.903C369.805 506.562 371.321 506.641 371.513 507.078C371.705 507.516 375.171 510.209 379.215 513.063C389.976 520.66 393.391 524.859 392.535 529.45C392.15 531.511 392.403 534.334 393.095 535.722C394.719 538.977 391.797 545.81 388.025 547.581C384.062 549.442 370.941 548.563 366.583 546.144C364.498 544.988 361.524 544.021 359.975 543.998C353.768 543.9 348.898 535.736 351.698 530.12C352.813 527.883 352.871 526.56 351.906 525.313C351.175 524.367 350.461 517.996 350.32 511.156Z" fill="#DBDBDB"/>
<path d="M254.202 634.81C252.798 637.248 250.26 632.162 250.985 628.364C251.541 625.45 251.718 625.327 252.141 627.555C252.415 629.002 253.18 630.9 253.839 631.772C254.499 632.645 254.662 634.012 254.202 634.81Z" fill="#DBDBDB"/>
<path d="M242.137 646.626C241.283 646.626 240.05 643.716 239.35 640.05C238.659 636.433 238.23 633.474 238.394 633.474C240.358 633.474 242.275 635.403 241.757 636.854C241.393 637.87 241.675 640.485 242.383 642.663C243.367 645.693 243.31 646.626 242.137 646.626Z" fill="#DBDBDB"/>
<path d="M252.25 641.938C251.298 641.307 251.388 640.703 252.551 639.929C253.76 639.125 254.475 639.889 255.169 642.723C255.693 644.87 256.796 646.64 257.62 646.659C259.125 646.69 263.405 654.656 263.405 657.426C263.405 658.244 264.319 659.995 265.434 661.318C266.647 662.756 266.893 663.723 266.046 663.723C263.334 663.723 264.654 667.17 267.837 668.401C270.534 669.444 271.082 670.515 271.283 675.126C271.414 678.143 272.268 681.577 273.18 682.756C274.27 684.164 274.743 687.769 274.557 693.252C274.402 697.844 274.798 701.949 275.437 702.374C276.996 703.407 276.477 709.561 274.453 714.029C272.548 718.239 270.758 718.754 270.758 715.093C270.758 711.547 268.714 710.544 267.195 713.344C266.164 715.244 265.924 715.297 265.893 713.634C265.874 712.512 266.495 710.91 267.276 710.073C268.349 708.921 268.333 708.084 267.204 706.626C265.964 705.021 266.137 704.819 268.238 705.408C270.037 705.913 270.758 705.488 270.758 703.927C270.758 701.135 264.728 695.383 261.742 695.33C260.143 695.299 259.696 694.647 260.238 693.131C261.141 690.605 256.755 686.739 252.989 686.739C250.242 686.739 248.84 681.458 250.978 679.164C251.842 678.237 252.023 678.699 251.551 680.631C251.01 682.858 251.41 683.451 253.458 683.451C254.886 683.451 256.052 684.043 256.052 684.766C256.052 685.489 256.869 686.081 257.867 686.081C260.184 686.081 261.955 679.205 259.833 678.446C258.811 678.081 259.197 676.909 261.032 674.814L263.739 671.721L260.5 670.137C257.5 668.669 257.405 668.383 259.215 666.236C261.848 663.114 260.961 659.218 257.495 658.688C255.097 658.323 254.787 657.706 255.426 654.581C255.983 651.863 255.649 650.687 254.148 650.067C252.701 649.472 252.331 648.312 252.864 646.036C253.282 644.248 253.011 642.443 252.25 641.938Z" fill="#DBDBDB"/>
<path d="M278.678 735.966C276.52 735.883 276.494 735.782 278.43 734.98C279.616 734.488 282.787 733.951 285.477 733.787C289.45 733.544 290.366 733.926 290.366 735.826C290.366 737.11 291.056 738.945 291.898 739.901C293.161 741.335 292.96 741.382 290.754 740.164C286.864 738.021 285.085 738.326 285.945 740.99C286.366 742.297 285.477 741.729 283.885 739.675C282.344 737.685 280.001 736.016 278.678 735.966Z" fill="#DBDBDB"/>
<path d="M407.495 743.949C406.577 743.949 405.508 743.062 405.12 741.977C404.706 740.818 405.104 740.004 406.083 740.004C407.001 740.004 408.07 740.892 408.458 741.977C408.872 743.135 408.474 743.949 407.495 743.949Z" fill="#DBDBDB"/>
<path d="M397.569 743.974C396.009 745.365 395.829 745.283 396.475 743.477C396.9 742.291 397.74 741.319 398.342 741.319C399.918 741.319 399.696 742.081 397.569 743.974Z" fill="#DBDBDB"/>
<path d="M301.195 750.525C299.608 750.525 297.657 749.403 296.859 748.033C295.477 745.658 295.576 745.632 299.006 747.468C300.985 748.526 303.717 749.014 305.076 748.551C306.436 748.088 310.592 748.117 314.312 748.616C320.325 749.422 320.832 749.719 318.895 751.297C317.695 752.273 315.749 753.091 314.57 753.114C312.084 753.162 311.635 758.32 313.75 762.561C315.32 765.709 314.75 766.677 311.994 765.542C310.445 764.904 310.148 763.622 310.694 759.922C311.326 755.628 311.019 754.889 307.74 752.827C305.728 751.56 302.783 750.525 301.195 750.525Z" fill="#DBDBDB"/>
<path d="M300.783 757.614C298.098 758.259 297.603 758.136 298.945 757.162C299.956 756.427 301.84 755.818 303.132 755.806C306.267 755.78 305.289 756.532 300.783 757.614Z" fill="#DBDBDB"/>
</svg>
