<svg width="2071" height="241" viewBox="0 0 2071 241" fill="none" xmlns="http://www.w3.org/2000/svg">
<path d="M1365.16 4.11131C1367.68 2.92085 1371.93 1.37435 1374.62 0.673997C1382.76 -1.44544 1393.34 1.72911 1392.65 6.08099C1392.22 8.83377 1396.9 12.3684 1400.98 12.3684C1402.72 12.3684 1404.66 12.9059 1405.3 13.5629C1407.6 15.9215 1441.67 19.2063 1466.8 19.4941C1475.16 19.5887 1475.68 19.7699 1475.68 22.5411C1475.68 24.1599 1474.58 26.2243 1473.23 27.127C1471.89 28.0297 1470.78 29.4435 1470.78 30.27C1470.78 31.0952 1469.68 32.0807 1468.33 32.4591C1466.9 32.8625 1465.88 34.2512 1465.88 35.8188C1465.88 39.4165 1464.05 40.4007 1461.07 38.4035C1458.93 36.9712 1458.13 37.2525 1454.9 40.5768C1450.34 45.2651 1450.26 46.8929 1454.45 49.8388C1457.57 52.0332 1457.79 52.0283 1459.35 49.7394C1460.25 48.4215 1460.97 47.8994 1460.96 48.58C1460.93 50.9715 1459.1 52.8153 1454.35 55.2461C1451.72 56.5956 1448.41 59.3731 1447 61.4163C1444.45 65.1256 1444.45 65.1362 1446.89 67.1098C1448.63 68.5105 1451.05 68.8813 1455.17 68.382C1461.67 67.5963 1473.23 62.4112 1473.23 60.2865C1473.23 58.5612 1486.13 49.1597 1488.49 49.1597C1489.46 49.1597 1491.03 47.9509 1492 46.474C1494.13 43.2127 1506.31 38.3272 1517.95 36.0645C1529.58 33.8045 1529.73 33.7402 1530.46 30.7575C1530.81 29.316 1531.68 28.1361 1532.39 28.1361C1533.1 28.1361 1534.56 27.2847 1535.63 26.2441C1536.79 25.1154 1542.43 23.8197 1549.62 23.0313C1556.7 22.2547 1562.9 20.841 1564.67 19.5993C1567.39 17.6835 1568.02 17.6769 1571.48 19.5269C1573.57 20.6491 1577.82 21.5609 1580.92 21.5556C1589.82 21.5386 1608.3 18.9843 1609.91 17.5481C1611.99 15.7007 1631.37 15.0726 1637.65 16.6507C1642.19 17.7912 1650.62 18.4297 1667.99 18.954C1670.34 19.025 1673.26 20.0551 1674.49 21.2456C1676.57 23.2665 1677.21 23.1417 1684.31 19.3417C1695.02 13.6075 1701.35 12.9256 1712.34 16.3222C1717.27 17.8477 1722.26 19.6518 1723.43 20.3312C1726.4 22.0551 1728.91 21.8737 1732.07 19.7043C1733.56 18.6794 1738.37 17.6453 1742.75 17.4049C1750.69 16.9686 1750.71 16.9766 1752.55 21.2562C1754.5 25.813 1759.15 28.144 1761.43 25.704C1762.42 24.6449 1763.32 25.5516 1764.76 29.0573C1766.56 33.4407 1767.38 34.0082 1774.03 35.5141C1782.76 37.4876 1790.13 37.7727 1791.05 36.1736C1791.41 35.535 1796.07 34.3302 1801.4 33.4945C1806.73 32.6588 1812.77 31.4579 1814.83 30.8245C1817.6 29.9731 1818.95 30.1569 1820.01 31.5327C1821.87 33.9333 1827.43 33.9045 1832.87 31.4684C1835.23 30.4093 1836.87 30.0519 1836.52 30.6734C1836.16 31.2949 1836.73 32.1608 1837.8 32.5971C1840.78 33.827 1845.42 33.5366 1846.27 32.0689C1847.66 29.6459 1854.32 26.6763 1856.6 27.4555C1857.85 27.8773 1859.12 29.2662 1859.43 30.5421C1860.12 33.3684 1867.79 36.02 1875.29 36.02C1879.51 36.02 1881.39 35.2855 1883.59 32.7732C1887.6 28.2058 1892.23 26.939 1906.42 26.5369C1915.57 26.2768 1919.34 26.6618 1920.85 28.0086C1922 29.0322 1926.24 29.9691 1930.52 30.1478C1934.71 30.3226 1941.45 31.1201 1945.49 31.9216C1949.54 32.7218 1955.63 33.3802 1959.04 33.3841C1962.45 33.3881 1966.26 34.1975 1967.52 35.1817C1968.77 36.1659 1970.95 36.6546 1972.35 36.267C1974.62 35.6415 1974.71 35.8082 1973.19 37.7949C1972.25 39.0208 1971.7 40.1904 1971.96 40.3914C1976.55 43.884 1978.9 44.7303 1981.33 43.7659C1983.39 42.9473 1984.08 43.1561 1984.08 44.6028C1984.08 45.968 1985.47 46.5317 1988.85 46.5317C1992.63 46.5317 1993.57 47.0048 1993.44 48.8312C1993.29 50.8009 1994.21 51.0755 1999.85 50.747C2004.62 50.4697 2007.05 50.9572 2008.65 52.5117C2010.34 54.1489 2012.85 54.5733 2019.22 54.2934C2029.21 53.8545 2032.22 54.7741 2034.84 59.0655C2036.09 61.1114 2037.97 62.2994 2039.96 62.2994C2041.73 62.2994 2044.07 63.574 2045.3 65.2139C2046.96 67.4069 2047.92 67.78 2049.18 66.721C2051.26 64.9694 2058.79 66.9273 2058.85 69.236C2058.95 73.3422 2067.36 80.2906 2070.17 78.5929C2071.17 77.9832 2071.27 78.1199 2070.45 79.0055C2068.99 80.5809 2059.16 86.1062 2051.46 89.6815C2048.43 91.0888 2041.59 92.5982 2036.27 93.037C2030.95 93.4746 2024.94 94.7205 2022.92 95.8058C2020.89 96.8898 2018.06 97.7768 2016.64 97.7768C2015.21 97.7768 2012 99.5821 2009.5 101.788C2006.27 104.646 2003.46 105.895 1999.73 106.13C1993.53 106.523 1982.7 111.968 1981.94 115.075C1981.64 116.279 1980.05 117.628 1978.4 118.072C1976.74 118.518 1973.62 120.834 1971.46 123.222C1969.3 125.608 1966.28 128.281 1964.75 129.16C1963.22 130.039 1962.26 131.271 1962.62 131.901C1962.98 132.529 1962.41 133.973 1961.35 135.109C1960.29 136.246 1959.74 137.724 1960.13 138.394C1960.51 139.064 1958.89 140.297 1956.53 141.134C1950.76 143.176 1950.9 145.655 1956.72 144.642C1959.23 144.205 1960.71 144.357 1960.09 144.988C1959.47 145.608 1954.01 146.444 1947.94 146.846C1929.6 148.061 1918.64 150.66 1912.74 155.194C1909.34 157.807 1905.27 159.537 1901.08 160.151C1896.79 160.781 1894.65 161.708 1894.65 162.942C1894.65 163.958 1895.48 164.789 1896.49 164.789C1899.29 164.789 1898.71 166.809 1894.65 171.157C1890.09 176.051 1890.06 176.746 1894.48 175.798C1897.41 175.17 1898.1 175.55 1898.75 178.13C1899.24 180.111 1898.87 181.73 1897.72 182.658C1895.58 184.369 1896.57 185.813 1899.87 185.813C1901.17 185.813 1903.8 187.007 1905.71 188.469C1908.75 190.785 1909.1 191.727 1908.48 195.845L1907.76 200.568L1914.07 199.637C1919.53 198.832 1920.38 199.007 1920.38 200.938C1920.38 202.779 1921.29 203.069 1925.59 202.594C1928.45 202.277 1936.86 202.568 1944.27 203.239C1951.68 203.91 1966.56 204.847 1977.34 205.32L1996.94 206.18L1973.67 219.51C1960.87 226.842 1946.96 234.676 1942.77 236.92L1935.15 241H1020.08H105.012L85.6337 234.276C66.9516 227.796 41.8845 217.427 42.7237 216.527C42.9466 216.288 51.9165 216.65 62.6554 217.331C85.3912 218.776 161.196 218.567 161.196 217.059C161.196 216.496 172.222 216.034 185.698 216.034C205.495 216.034 210.199 215.693 210.199 214.254C210.199 212.924 206.063 212.074 193.852 210.893C184.861 210.023 176.178 209.667 174.557 210.101C172.936 210.534 167.577 209.977 162.648 208.863C157.719 207.749 149.427 206.837 144.223 206.837C139.018 206.837 131.527 205.934 127.576 204.83C120.108 202.743 106.256 194.156 106.138 191.538C106.048 189.573 103.151 188.441 98.2102 188.441C93.2279 188.441 80.072 185.768 78.7244 184.483C78.1707 183.955 84.0975 183.825 91.8938 184.194L106.069 184.866V181.356C106.069 179.426 106.896 177.506 107.907 177.091C108.917 176.674 109.744 175.236 109.744 173.893C109.744 168.815 98.3707 165.252 76.5732 163.502C54.962 161.766 36.0692 159.574 34.6591 158.64C34.0356 158.228 34.2169 157.435 35.0634 156.874C37.4694 155.279 35.5693 152.07 31.7471 151.275C27.8245 150.459 21.8009 151.449 20.8711 153.061C20.0307 154.519 9.33838 150.952 6.98505 148.428C5.27364 146.592 5.34348 146.394 7.69927 146.394C9.13503 146.394 10.4936 145.867 10.719 145.223C10.9555 144.547 13.707 144.584 17.2523 145.314C20.6212 146.006 26.597 146.8 30.5319 147.078C34.468 147.356 39.5459 148.24 41.8171 149.044C45.1799 150.234 46.7541 150.097 50.2872 148.298C52.692 147.074 56.0915 146.39 57.9132 146.763C59.7201 147.134 61.9228 147.139 62.8085 146.775C64.7245 145.987 64.9793 142.452 63.1197 142.452C62.4067 142.452 62.1653 141.857 62.5855 141.127C63.4467 139.633 61.6643 137.441 56.8339 134.053C55.022 132.783 53.7896 131.041 54.0959 130.186C54.4266 129.264 52.0574 127.641 48.283 126.202C40.3115 123.165 42.0119 121.759 55.0918 120.574C61.8137 119.964 65.0381 119.031 66.9185 117.152C68.7818 115.291 70.503 114.785 73.0855 115.338C77.8754 116.366 84.0179 114.945 84.0179 112.81C84.0179 110.29 90.0562 109.877 95.4367 112.031C99.1486 113.517 101.079 113.596 104.765 112.41C108.049 111.355 111.31 111.303 115.872 112.23C124.13 113.911 130.57 113.911 130.57 112.232C130.57 110.835 166.257 111.378 178.028 112.953C181.715 113.446 186.066 113.205 188.256 112.387C190.466 111.56 192.913 111.43 194.088 112.076C196.245 113.263 199.527 112.591 198.681 111.133C198.403 110.652 201.982 110.455 206.636 110.696C213.52 111.051 215.099 110.764 215.099 109.162C215.099 108.08 214.411 106.854 213.568 106.44C212.726 106.025 213.415 106.035 215.099 106.462C216.783 106.891 218.758 108.044 219.486 109.027C220.787 110.78 226.398 113.544 228.654 113.544C229.284 113.544 230.955 112.305 232.369 110.789L234.936 108.035L238.267 112.315C241.38 116.313 241.917 116.521 246.419 115.476C251.569 114.28 272.198 114.355 290.746 115.635C301.491 116.377 302.078 116.282 302.078 113.799C302.078 110.074 293.685 105.588 288.379 106.479C285.754 106.921 283.447 106.446 281.865 105.139C279.573 103.247 279.873 103.114 286.497 103.075C291.914 103.042 293.761 102.524 294.353 100.872C295.167 98.594 290.422 93.9516 285.612 92.3236C283.868 91.7323 284.61 91.4288 288.023 91.3381C290.738 91.2658 294.045 92.019 295.373 93.0123C296.702 94.0057 305.024 96.1148 313.864 97.7007C328.784 100.375 330.269 100.434 334.533 98.522C337.618 97.1397 343.007 96.4588 350.924 96.4509C368.161 96.4352 375.581 95.2763 375.581 92.6011C375.581 91.4001 374.92 89.7089 374.111 88.8417C372.968 87.6157 373.113 87.265 374.762 87.265C375.929 87.265 377.239 88.2991 377.674 89.5644C378.11 90.8298 379.057 92.2989 379.78 92.8298C381.764 94.287 395.012 94.0255 397.713 92.475C399.152 91.6485 400.083 91.6077 400.083 92.3698C400.083 93.0609 403.804 94.0002 408.352 94.4575C412.899 94.9161 419.102 95.823 422.134 96.4721C435.647 99.3707 437.327 99.3615 440.325 96.3656C442.8 93.8914 443.556 93.7323 446.048 95.1633C447.627 96.0699 449.813 96.4445 450.904 95.9951C451.996 95.5457 454.103 96.0319 455.587 97.0752C459.083 99.531 474.812 98.9882 490.749 95.861C505.429 92.9807 505.338 93.0121 506.28 90.3815C507.303 87.5223 493.977 73.9504 485.764 69.4868C479.154 65.8944 477.425 63.8143 479.762 62.2664C481.037 61.4202 480.913 59.9582 479.138 54.8586C477.922 51.3621 476.175 47.57 475.256 46.4281C472.973 43.5939 473.158 42.5898 475.964 42.5898C478.719 42.5898 480.408 40.2549 479.927 37.1132C479.74 35.8873 481.507 33.2817 483.939 31.2003C487.024 28.5592 488.287 26.4292 488.287 23.8657C488.287 21.2088 488.894 20.2523 490.583 20.2523C493.172 20.2523 501.762 12.3552 501.762 9.9756C501.762 9.12414 503.177 8.42648 504.906 8.42648C506.634 8.42648 509.061 7.84566 510.299 7.1348C512.162 6.06523 512.445 6.26499 511.95 8.2964C511.566 9.86528 510.574 10.5315 509.194 10.1439C507.875 9.77463 505.295 11.3002 502.562 14.0648C498.874 17.7951 498.087 19.5086 498.087 23.8014C498.087 29.9245 497.312 31.1148 494.405 29.4461C491.822 27.9626 487.599 32.2056 488.674 35.2055C489.05 36.2566 488.565 37.443 487.597 37.8411C486.629 38.2392 485.837 39.5534 485.837 40.761C485.837 41.9698 485.018 43.6133 484.019 44.4161C478.986 48.4526 487.21 55.7296 496.805 55.7296C499.601 55.7296 503.928 56.8766 506.42 58.2786C508.912 59.6819 512.705 61.511 514.85 62.344C517.268 63.2835 518.511 64.5225 518.123 65.6065C517.452 67.4829 521.739 70.5512 525.494 70.8797C526.755 70.9914 528.298 72.0623 528.923 73.2607C529.549 74.459 530.801 75.4392 531.706 75.4392C533.793 75.4392 535.165 79.0459 533.328 79.7016C530.761 80.6201 533.742 83.323 537.323 83.323C539.979 83.323 540.708 83.8223 540.186 85.2834C539.771 86.445 540.371 87.608 541.662 88.1388C545.123 89.5632 548.315 93.5985 548.315 96.5497C548.315 98.0424 548.845 100.326 549.493 101.624C550.48 103.603 549.787 104.473 545.205 107.001C540.023 109.859 537.944 113.387 541.27 113.68C544.218 113.939 529.287 118.64 525.263 118.72C522.911 118.766 519.51 120.183 517.185 122.085C513.661 124.967 511.982 125.362 503.485 125.303C493.849 125.236 483.431 124.026 471.748 121.619C466.995 120.639 465.235 120.756 463.891 122.14C461.451 124.654 463.637 127.103 470.847 129.932C474.038 131.183 478.804 133.303 481.436 134.64L486.225 137.072L473 136.27C461.943 135.597 459.87 135.769 460.349 137.317C460.664 138.334 463.634 139.869 466.947 140.725C472.779 142.234 472.662 142.26 463.354 141.517C454.375 140.801 453.766 140.917 454.18 143.244C454.447 144.747 455.834 145.896 457.673 146.136C462.962 146.83 475.787 151.719 478.726 154.163C480.831 155.915 484.779 156.717 494.256 157.321C503.393 157.902 507.868 158.781 510.182 160.448C521.616 168.688 557.068 176.582 582.851 176.63C587.101 176.638 593.06 177.451 596.092 178.436C599.124 179.422 605.739 180.639 610.792 181.141C622.815 182.332 627.312 183.928 629.709 187.851C631.22 190.325 632.744 191.069 636.302 191.069C638.846 191.069 641.563 190.388 642.339 189.556C645.055 186.643 664.587 184.571 710.022 182.377C719.792 181.905 728.474 180.935 729.314 180.222C730.156 179.508 738.701 178.128 748.303 177.153C772.654 174.681 785.008 173.005 796.389 170.625C801.779 169.498 808.67 168.068 811.702 167.449C819.641 165.826 821.671 164.736 821.245 162.324C820.953 160.679 818.924 160.041 812.377 159.534L803.887 158.877L811.164 155.731C819.929 151.941 821.239 150.842 819.376 148.843C818.337 147.729 816.489 147.858 812.087 149.353C802.159 152.726 791.556 153.408 787.141 150.96C784.868 149.698 778.753 148.534 772.087 148.094C755.773 147.015 753.067 144.75 760.556 138.442C764.741 134.916 777.28 131.501 792.101 129.848C796.481 129.361 801.442 128.244 803.126 127.368C808.026 124.82 822.417 121.547 834.599 120.21C840.792 119.531 846.958 118.346 848.3 117.575C849.643 116.803 852.847 116.166 855.417 116.158C863.04 116.134 869.28 114.634 869.28 112.824C869.28 111.895 868.624 110.901 867.824 110.616C865.428 109.759 870.643 103.286 875.019 101.684C877.165 100.899 879.095 99.8464 879.307 99.3458C879.519 98.8438 881.76 97.4087 884.287 96.1552C891.56 92.5483 890.183 90.6972 880.918 91.6249C874.409 92.2766 872.955 92.0717 872.955 90.5002C872.955 89.4437 872.936 88.1348 872.913 87.5935C872.891 87.0521 875.77 86.2125 879.312 85.7303C882.853 85.2481 885.95 84.2126 886.193 83.4308C886.435 82.649 888.758 82.0091 891.353 82.0091C897.683 82.0091 901.995 80.0919 907.016 75.0462C909.318 72.7336 912.231 69.8193 913.489 68.571C916.27 65.8103 918.718 66.6236 920.54 70.9125C922.457 75.4247 928.893 75.4626 930.486 70.9728C931.1 69.2383 932.863 66.8732 934.403 65.7169C937.79 63.1717 940.527 62.8684 937.306 65.3938C931.217 70.1701 940.899 74.0397 952.167 71.3356C957.394 70.0807 959.473 70.0638 961.259 71.2596C964.23 73.2502 967.62 73.2397 969.489 71.2345C970.471 70.182 970.959 70.1349 970.959 71.0928C970.959 73.6576 977.173 74.2814 983.634 72.3669C994.778 69.0623 1004.28 67.6826 1020.36 67.0296C1030.06 66.6367 1036.77 65.7817 1037.87 64.7962C1039.23 63.5873 1040.01 63.5688 1041.08 64.7198C1043.03 66.8051 1046.85 66.6341 1047.64 64.4279C1048.17 62.9536 1049.25 63.1051 1053.42 65.2363C1056.24 66.6777 1059.48 68.7285 1060.61 69.7942C1061.88 70.9938 1066.45 72.0112 1072.59 72.4632C1082.43 73.1859 1082.54 73.1595 1085.85 69.2373C1088.5 66.0877 1090.55 65.1075 1095.92 64.4189C1099.62 63.9433 1103.34 63.6121 1104.18 63.683C1113 64.4281 1121.25 63.0694 1132.45 59.0315C1138.01 57.0264 1139.7 56.9186 1143.98 58.2943C1156.27 62.2441 1185.08 61.1469 1194.21 56.3811C1196.06 55.418 1199.37 54.2104 1201.56 53.698C1203.76 53.1855 1207.37 51.0674 1209.58 48.9913C1211.79 46.9165 1214.05 45.2178 1214.59 45.2178C1215.13 45.2178 1216.21 43.7396 1216.97 41.9328C1218.35 38.7005 1221.15 37.8374 1225.06 39.4457C1226.12 39.8846 1227 41.0092 1227 41.9447C1227 42.8816 1228.51 44.3086 1230.37 45.118C1232.22 45.9287 1235.28 47.6118 1237.17 48.8601C1240.44 51.0176 1240.69 51.0138 1242.23 48.8011C1243.77 46.5817 1243.88 46.5881 1244.45 48.9335C1245.7 54.0751 1260.07 53.4457 1260.07 48.249C1260.07 47.3725 1260.71 45.1468 1261.5 43.3033C1263.3 39.0644 1276.44 32.2225 1285.78 30.6628C1294.52 29.2043 1300.56 27.575 1303.59 25.8655C1304.92 25.1126 1309.04 24.0615 1312.75 23.5293C1316.46 22.9985 1320.99 21.4217 1322.83 20.0275C1325.3 18.1472 1327.25 17.7124 1330.38 18.3405C1335.92 19.4574 1339.7 18.0671 1339.7 14.9083C1339.7 11.8704 1341.93 11.5288 1342.96 14.4077C1343.5 15.928 1344.66 16.2263 1347.51 15.5824C1349.62 15.1081 1351.86 14.1909 1352.5 13.5444C1353.14 12.898 1355.55 12.3684 1357.84 12.3684C1361.6 12.3684 1361.95 12.0623 1361.31 9.32134C1360.71 6.76171 1361.32 5.92722 1365.16 4.11131Z" fill="#DBDBDB"/>
<path d="M1921.22 19.1853C1920.82 20.2325 1920.53 19.9211 1920.48 18.3904C1920.42 17.0054 1920.71 16.2302 1921.12 16.6664C1921.53 17.1026 1921.57 18.2366 1921.22 19.1853Z" fill="#DBDBDB"/>
<path d="M1118.27 57.9132C1117.43 58.2785 1116.05 58.2785 1115.21 57.9132C1114.37 57.5493 1115.06 57.2511 1116.74 57.2511C1118.43 57.2511 1119.12 57.5493 1118.27 57.9132Z" fill="#DBDBDB"/>
<path d="M458.885 61.1773C458.885 60.59 459.253 59.7148 459.702 59.2339C460.945 57.9016 465.011 58.1879 465.011 59.6083C465.011 60.2968 467.455 62.6632 470.441 64.8668C473.429 67.0716 476.191 69.9494 476.579 71.2634C476.968 72.5761 479.227 74.6444 481.6 75.8585C486.192 78.2065 488.981 83.2772 486.601 84.9459C485.844 85.4768 482.623 85.9196 479.443 85.9314C474.828 85.9472 473.804 85.5567 474.362 83.9983C474.816 82.729 473.985 81.6069 471.992 80.7949C467.779 79.0762 466.584 76.6717 470.146 77.0829C471.978 77.2958 472.974 76.7164 472.974 75.4392C472.974 74.3552 473.467 73.0843 474.071 72.6152C475.922 71.1764 473.815 67.5553 471.126 67.5553C468.147 67.5553 458.885 62.7304 458.885 61.1773Z" fill="#DBDBDB"/>
<path d="M539.811 80.6951C539.098 80.6951 538.514 80.1038 538.514 79.3811C538.514 78.6584 538.757 78.0671 539.054 78.0671C539.352 78.0671 539.935 78.6584 540.352 79.3811C540.768 80.1038 540.524 80.6951 539.811 80.6951Z" fill="#DBDBDB"/>
<path d="M289.603 82.0642C287.682 83.2665 264.329 81.3772 262.96 79.9082C262.668 79.5955 266.803 79.6294 272.146 79.9855C277.491 80.3403 284.07 80.6637 286.765 80.7031C290.572 80.7596 291.206 81.063 289.603 82.0642Z" fill="#DBDBDB"/>
<path d="M463.025 81.2825C460.449 83.218 455.21 82.6896 455.21 80.4952C455.21 79.8317 456.372 79.9552 457.791 80.7698C459.658 81.842 460.744 81.8554 461.712 80.8173C462.448 80.0276 463.614 79.3811 464.304 79.3811C464.992 79.3811 464.417 80.2365 463.025 81.2825Z" fill="#DBDBDB"/>
<path d="M297.105 83.323C295.719 83.323 294.909 82.758 295.307 82.0668C295.705 81.3757 296.841 81.1433 297.83 81.5507C300.362 82.5926 300.064 83.323 297.105 83.323Z" fill="#DBDBDB"/>
<path d="M264.557 93.6825C262.45 93.7666 260.04 92.9479 259.201 91.8639C257.967 90.2687 258.009 89.8929 259.419 89.8929C260.377 89.8929 261.685 90.4265 262.325 91.0795C262.964 91.7326 264.591 92.5496 265.939 92.8978C267.583 93.3222 267.13 93.58 264.557 93.6825Z" fill="#DBDBDB"/>
<path d="M282.145 93.3145C281.738 93.7507 280.681 93.7979 279.798 93.4181C278.82 92.999 279.111 92.6876 280.538 92.6245C281.829 92.568 282.552 92.8783 282.145 93.3145Z" fill="#DBDBDB"/>
<path d="M672.045 150.993C669.593 149.366 670.831 143.025 674.427 138.803C677.943 134.674 678.287 134.569 688.209 134.61C694.721 134.636 699.156 135.28 700.528 136.397C703.545 138.853 703.201 139.821 699.303 139.844C690.296 139.897 690.843 146.297 699.877 146.573C703.098 146.671 704.462 147.013 702.907 147.331C698.203 148.295 700.056 152.236 705.438 152.714C710.3 153.148 712.179 156.906 707.534 156.906C706.164 156.906 704.727 157.793 704.34 158.877C703.952 159.961 702.351 160.848 700.783 160.848C699.215 160.848 696.654 161.364 695.095 161.995C693.535 162.625 683.99 163.482 673.883 163.899C656.795 164.602 655.964 164.531 662.023 162.872C665.608 161.892 669.605 160.057 670.905 158.794C673.449 156.325 674.035 152.312 672.045 150.993Z" fill="#DBDBDB"/>
<path d="M500.537 137.196C498.123 138.87 493.187 138.87 493.187 137.196C493.187 136.473 495.255 135.891 497.781 135.902C501.198 135.917 501.904 136.249 500.537 137.196Z" fill="#DBDBDB"/>
<path d="M480.324 144.188C476.955 143.771 473.97 143.209 473.688 142.94C472.724 142.017 480.326 142.715 483.387 143.83C485.452 144.583 484.455 144.7 480.324 144.188Z" fill="#DBDBDB"/>
<path d="M488.287 152.795C485.492 152.781 485.438 152.68 487.674 151.65C489.022 151.028 492.605 150.547 495.637 150.579L501.15 150.638L496.25 151.724C493.554 152.322 489.971 152.804 488.287 152.795Z" fill="#DBDBDB"/>
<path d="M601.868 163.544C604.508 163.498 606.238 162.61 607.117 160.848C609.17 156.733 613.674 157.489 615.341 162.229C616.649 165.946 616.525 166.328 613.619 167.515C611.249 168.48 608.954 168.16 604.207 166.202C598.329 163.778 598.181 163.608 601.868 163.544Z" fill="#DBDBDB"/>
<path d="M1.00067 163.047C0.146805 162.46 -0.235413 161.432 0.15048 160.762C0.553524 160.064 2.38988 160.396 4.44798 161.538C6.42522 162.635 11.2176 164.356 15.0974 165.365C21.1051 166.926 21.5155 167.206 17.8648 167.251C13.3835 167.304 3.66762 164.883 1.00067 163.047Z" fill="#DBDBDB"/>
<path d="M591.192 163.299C587.486 163.374 583.627 162.862 582.616 162.162C580.378 160.611 588.571 160.611 594.254 162.162C597.324 163 596.821 163.186 591.192 163.299Z" fill="#DBDBDB"/>
<path d="M74.5409 182.796C73.034 183.107 70.2777 183.115 68.4156 182.815C66.5535 182.512 67.7859 182.257 71.1548 182.247C74.5237 182.238 76.0477 182.485 74.5409 182.796Z" fill="#DBDBDB"/>
</svg>
