<svg width="329" height="450" viewBox="0 0 329 450" fill="none" xmlns="http://www.w3.org/2000/svg">
<path d="M313.842 65.2147C314.045 63.4069 314.44 61.1888 314.723 60.2843C315.684 57.2129 318.99 58.4856 318.99 61.9278C318.99 63.8329 319.695 65.2147 320.667 65.2147C321.707 65.2147 322.603 67.2854 323.026 70.6631C323.4 73.6595 324.433 76.5941 325.321 77.1818C326.607 78.0351 326.625 78.5861 325.414 79.8851C323.19 82.2714 323.552 85.5124 326.343 88.2235C329.311 91.1055 329.459 94.4581 326.811 98.7943C325.276 101.308 325.151 102.46 326.257 103.89C328.303 106.534 325.933 107.744 320.749 106.702C317.271 106.001 316.54 106.249 316.54 108.129C316.54 109.381 317.738 111.775 319.204 113.449L321.869 116.491H319.276C317.851 116.491 316.238 117.232 315.693 118.135C314.66 119.847 314.569 120.524 314.27 128.678C314.102 133.28 313.869 133.574 311.015 132.807C307.537 131.869 298.909 135.641 300.04 137.604C300.432 138.285 299.293 138.843 297.507 138.843C292.47 138.843 289.475 143.593 290.337 150.217C291.133 156.333 290.745 156.656 280.881 158.08C265.81 160.253 255.933 160.029 249.753 157.375C246.384 155.927 244.215 154.716 244.933 154.682C245.651 154.648 247.461 152.287 248.956 149.433C252.672 142.338 251.609 138.105 245.735 136.614C241.771 135.608 241.139 134.827 239.533 128.952C238.549 125.352 237.77 120.229 237.801 117.566C237.835 114.589 237.198 112.452 236.146 112.018C234.252 111.239 233.763 105.973 235.585 105.973C236.217 105.973 236.77 104.937 236.814 103.672C237.121 94.9395 237.576 93.4707 240.103 93.0842C241.536 92.8646 243.587 93.6285 244.662 94.7816C246.426 96.6749 246.967 96.6842 250.242 94.8658C252.237 93.7601 254.178 91.8116 254.556 90.5389C254.933 89.2648 257.593 87.0151 260.464 85.5373C265.054 83.1746 265.73 82.2635 266.064 77.9773C266.358 74.2078 266.973 73.1035 268.773 73.1035C270.054 73.1035 271.775 72.3316 272.596 71.3876C274.516 69.1827 289.07 71.0536 291.666 73.8384C293.87 76.2037 293.901 76.2023 297.708 73.5254C300.102 71.8425 301.358 71.6572 302.984 72.7472C305.675 74.551 308.567 72.7484 307.55 69.9032C306.937 68.19 307.462 67.8285 310.128 68.1269C312.899 68.4372 313.54 67.935 313.842 65.2147Z" fill="#9EB6E3"/>
<path d="M203.12 225.355C204.644 224.023 204.757 222.961 203.695 219.965C202.576 216.809 202.678 216.257 204.355 216.385C205.445 216.469 207.547 218.365 209.026 220.599C211.764 224.737 214.425 226.255 224.068 229.183C227.633 230.266 230.131 232.005 231.34 234.248C232.353 236.127 234.715 238.826 236.591 240.244L240 242.823L237.69 248.314C236.421 251.333 234.243 255.106 232.851 256.697C231.459 258.288 230.32 260.362 230.32 261.308C230.32 262.263 228.966 263.025 227.269 263.025C223.753 263.025 222.368 266.725 222.488 275.793C222.545 280.086 222.106 281.358 220.565 281.358C217.179 281.358 213.337 285.097 212.488 289.216C211.939 291.875 210.933 293.144 209.374 293.144C204.474 293.144 200.804 296.038 200.804 299.902C200.804 303.317 200.429 303.624 196.192 303.665C193.656 303.692 190.197 304.555 188.506 305.584C184.077 308.28 182.506 307.98 181.632 304.275C181.208 302.474 180.275 301.001 179.559 301.001C178.843 301.001 178.602 300.633 179.024 300.184C179.446 299.734 178.109 295.926 176.054 291.721C173.999 287.515 172.658 283.485 173.076 282.764C173.495 282.044 175.616 280.879 177.789 280.174C187.561 277.01 197.625 272.392 198.948 270.465C199.743 269.308 201.131 263.312 202.033 257.141C203.636 246.162 203.612 245.836 200.861 241.873C198.26 238.128 198.169 237.421 199.636 232.419C200.508 229.446 202.076 226.267 203.12 225.355Z" fill="#345764"/>
<path d="M80.2553 52.8414C78.7166 48.8989 78.6235 47.4706 79.8058 45.9452C81.086 44.294 81.6495 44.4934 83.7959 47.3565C89.2281 54.6054 96.6756 55.1773 103.433 48.8648C109.798 42.9196 111.933 42.8736 110.912 48.7035C110.216 52.6735 110.565 53.4185 114.452 56.2448C116.824 57.9708 119.105 60.5626 119.52 62.0053C120.78 66.3767 123.859 69.2188 127.337 69.2188C129.15 69.2188 131.598 70.361 132.777 71.7565C136.694 76.3889 145.637 80.014 151.133 79.1956C153.88 78.7864 158.883 78.0768 162.252 77.6191C168.373 76.7863 170.648 75.1521 169.672 72.2903C169.386 71.4549 170.495 70.411 172.136 69.9703C173.775 69.5296 175.116 68.3149 175.116 67.2723C175.116 64.7672 178.963 62.661 183.539 62.661C185.565 62.661 187.563 62.0709 187.98 61.3495C189.046 59.5042 193.179 59.7166 194.35 61.6774C195.415 63.4585 206.604 67.9072 210.02 67.9072C211.18 67.9072 213.715 69.2345 215.654 70.8582C225.059 78.7301 226.515 79.7111 228.789 79.7111C230.428 79.7111 231.675 81.0711 232.577 83.8411C234.412 89.4768 234.311 100.338 232.419 101.013C230.547 101.682 230.387 112.769 232.24 113.43C232.969 113.689 233.319 115.282 233.019 116.968C232.717 118.654 233.302 121.751 234.316 123.853C235.332 125.954 236.548 129.882 237.023 132.582C237.907 137.633 240.441 140.042 244.867 140.042C248.314 140.042 248.117 143.547 244.335 149.505C242.651 152.158 241.273 154.947 241.273 155.699C241.273 156.454 243.202 159.776 245.56 163.083C247.919 166.391 249.848 169.552 249.848 170.109C249.848 170.665 252.087 172.201 254.824 173.522C260.446 176.237 262.1 178.743 262.1 184.548C262.1 187.695 262.632 188.569 264.55 188.569C265.911 188.569 267 189.444 267 190.537C267 191.798 265.817 192.504 263.698 192.504C258.498 192.504 253.524 198.47 253.524 204.707C253.524 209.669 253.4 209.827 250.155 208.97C245.891 207.844 240.78 206.97 234.534 206.301C231.839 206.013 226.326 204.983 222.283 204.014C215.062 202.281 214.899 202.145 213.095 196.234C209.565 184.675 205.729 183.31 195.578 189.996C190.384 193.418 188.975 193.826 186.502 192.619C184.894 191.835 182.804 191.193 181.858 191.193C180.914 191.193 177.584 189.275 174.46 186.93C164.531 179.48 162.3 178.091 160.252 178.083C159.045 178.08 157.043 175.345 155.206 171.191C153.53 167.405 150.158 161.742 147.712 158.607C145.265 155.474 143.263 152.413 143.263 151.804C143.263 151.197 141.413 151.021 139.153 151.413C135.703 152.013 134.934 151.682 134.365 149.358C133.497 145.802 129.787 147.069 129.787 150.923V153.652L127.337 150.836C125.989 149.289 124.886 146.798 124.886 145.302C124.886 143.806 124.059 142.243 123.049 141.828C121.909 141.36 121.211 139.363 121.211 136.57C121.211 131.841 116.982 124.304 114.327 124.304C112.091 124.304 104.172 118.635 104.111 116.99C104.083 116.215 102.681 114.194 100.997 112.5C97.3715 108.855 96.7821 100.805 99.8952 97.4721C101.175 96.1015 101.593 94.247 101.097 92.1314C100.661 90.2743 100.87 88.892 101.586 88.892C102.272 88.892 102.834 88.0067 102.834 86.9246C102.834 85.6577 101.635 84.9506 99.4652 84.9375C97.6116 84.9257 95.4898 84.4837 94.7473 83.9538C92.6708 82.4691 86.9078 72.1395 86.9078 69.9006C86.9078 68.8042 86.3565 67.9072 85.6826 67.9072C85.0088 67.9072 84.4575 67.0036 84.4575 65.8992C84.4575 64.7936 83.6918 63.5751 82.7558 63.1908C81.8186 62.8065 81.3102 61.4386 81.6238 60.1519C81.9387 58.8653 81.3224 55.576 80.2553 52.8414Z" fill="#41A79B"/>
<path d="M158.65 215.29C156.499 216.041 155.363 211.258 156.372 205.703C156.849 203.081 157.832 201.141 158.557 201.39C160.422 202.031 160.507 214.642 158.65 215.29Z" fill="#475B7F"/>
<path d="M60.4299 77.9803C62.441 76.6491 64.9163 74.2661 65.9323 72.6858C67.415 70.3775 68.5086 69.9816 71.4741 70.6793C73.5061 71.158 75.9999 71.5882 77.0158 71.6354C78.0318 71.6826 79.5453 72.657 80.379 73.8032C81.6044 75.4859 82.1007 75.5528 82.9689 74.1521C83.7595 72.876 84.5526 73.5645 85.9898 76.7751C88.1991 81.7168 92.5241 87.0324 94.3356 87.0324C95.0031 87.0324 96.0919 88.5523 96.7557 90.4094C97.6571 92.9367 97.4945 94.4974 96.1091 96.6037C95.0906 98.1525 94.2569 101.687 94.2569 104.458C94.2569 108.428 95.0277 110.188 97.8897 112.753C99.9488 114.597 101.237 116.807 100.861 117.849C100.434 119.034 101.659 120.356 104.308 121.568C106.569 122.602 110.738 125.594 113.572 128.219C118.12 132.431 118.647 133.493 118.069 137.286C117.612 140.279 118.01 142.109 119.382 143.321C120.464 144.277 121.35 145.679 121.35 146.435C121.35 147.192 122.143 148.742 123.111 149.881C124.686 151.731 124.395 151.952 120.38 151.952C116.353 151.952 115.577 152.544 112.914 157.659L109.943 163.368L101.792 162.441C97.3086 161.932 93.364 161.089 93.0254 160.567C92.6867 160.045 86.1253 154.554 78.4456 148.363C63.2661 136.131 51.855 129.024 47.2874 128.958C43.28 128.901 40.9748 126.596 39.0351 120.708C37.5389 116.167 37.598 115.521 39.6509 113.864C40.8972 112.857 42.3724 112.015 42.9278 111.993C44.2504 111.938 55.1863 104.004 56.424 102.201C56.9523 101.433 57.2478 96.2128 57.0803 90.6009C56.781 80.5653 56.8352 80.3607 60.4299 77.9803Z" fill="#037FB2"/>
<path d="M7.26177 112.942C7.99699 107.75 8.5196 105.908 9.7344 104.224C10.4832 103.188 11.3214 103.092 12.2127 103.94C13.6345 105.295 13.0011 108.986 11.3463 108.986C10.8101 108.986 9.56706 110.618 8.583 112.612C6.79812 116.23 6.79462 116.23 7.26177 112.942Z" fill="#849EA5"/>
<path d="M190.103 221.209C194.554 215.374 194.763 215.076 198.763 208.846C201.044 205.292 201.956 204.718 203.336 205.975C205.909 208.321 205.414 212.195 202.429 213.052C200.17 213.701 199.901 214.492 200.521 218.677C201.048 222.249 200.76 223.75 199.442 224.305C198.453 224.722 197.735 225.753 197.846 226.597C197.957 227.44 197.614 230.75 197.084 233.952C196.127 239.733 196.089 239.768 191.684 239.047C189.243 238.649 184.483 237.941 181.105 237.475C176.388 236.826 174.178 235.678 171.583 232.531C168.426 228.703 168.345 228.314 170.355 226.671C171.821 225.471 174.675 225.152 179.313 225.671C186.03 226.421 186.17 226.363 190.103 221.209Z" fill="#CDD9E7"/>
<path d="M4.76 122.84C3.81751 122.84 3.32681 122.059 3.66986 121.103C4.01414 120.149 4.78574 119.368 5.38517 119.368C5.98461 119.368 6.47532 120.149 6.47532 121.103C6.47532 122.059 5.70371 122.84 4.76 122.84Z" fill="#003479"/>
<path d="M5.25448 131.083C4.58302 131.083 4.03364 129.876 4.03364 128.403C4.03364 126.929 4.58302 126.085 5.25448 126.527C5.92594 126.97 6.47532 128.175 6.47532 129.207C6.47532 130.24 5.92594 131.083 5.25448 131.083Z" fill="#003479"/>
<path d="M1.38928 147.286C0.240476 143.494 -0.28319 139.084 0.152649 136.873C0.814344 133.516 0.962058 133.401 1.33563 135.964C1.57004 137.576 2.54781 138.893 3.50861 138.893C5.418 138.893 5.55975 140.766 4.24735 148.656L3.38164 153.862L1.38928 147.286Z" fill="#003479"/>
<path d="M52.1083 15.2134C51.2382 10.2341 46.4636 4.88267 40.3606 2.04581C37.939 0.920009 37.0223 0.0295782 38.2552 0.000644046C39.4561 -0.0269749 42.4195 0.837184 44.8387 1.92221C47.259 3.00724 51.3876 3.89499 54.015 3.89499C56.9844 3.89499 60.607 5.12459 63.5911 7.14603C67.2602 9.63173 69.585 10.2697 73.4723 9.8541C79.0912 9.25437 84.4784 11.2572 84.4784 13.9442C84.4784 14.9003 85.8536 16.0511 87.5337 16.5049C89.2139 16.9573 90.2701 17.8819 89.8792 18.5592C89.4882 19.2378 89.8363 20.6543 90.6501 21.7078C91.829 23.2321 91.7751 23.6228 90.3878 23.6228C89.4295 23.6228 87.9834 22.9125 87.1734 22.0432C86.0643 20.8529 84.7224 20.8227 81.7199 21.9183C73.1132 25.0629 69.107 25.1325 65.6315 22.197C63.4121 20.3242 61.3791 19.6719 59.4109 20.2019C55.02 21.3855 52.938 19.9626 52.1083 15.2134Z" fill="#DBDBDB"/>
<path d="M72.2235 32.3911C72.2235 29.9791 72.5912 27.6117 73.0409 27.1304C74.4147 25.6547 80.0643 26.2347 82.3339 28.0839C83.514 29.0453 84.4784 30.8195 84.4784 32.0294C84.4784 33.2381 85.3376 34.5808 86.3866 35.0122C87.4969 35.4699 87.9933 36.647 87.5717 37.8254C87.1722 38.9407 87.5386 40.3111 88.3842 40.8727C89.2298 41.433 89.59 42.2484 89.1856 42.6837C88.7799 43.1177 85.9319 41.9669 82.8571 40.1243C79.7823 38.2817 76.1316 36.7747 74.7455 36.7747C72.7038 36.7747 72.2235 35.9382 72.2235 32.3911Z" fill="#DBDBDB"/>
<path d="M96.0497 49.9265C95.7985 49.9265 95.0043 48.7429 94.2825 47.2961C93.5582 45.8429 93.4749 44.6658 94.0962 44.6658C94.7151 44.6658 95.5105 45.8494 95.8634 47.2961C96.2151 48.7429 96.2997 49.9265 96.0497 49.9265Z" fill="#DBDBDB"/>
<path d="M313.4 65.7087C313.603 63.9004 313.998 61.6816 314.282 60.7768C315.242 57.7045 318.549 58.9776 318.549 62.4208C318.549 64.3265 319.254 65.7087 320.225 65.7087C321.266 65.7087 322.162 67.7801 322.584 71.1588C322.958 74.1561 323.991 77.0916 324.88 77.6795C326.165 78.533 326.184 79.0841 324.973 80.3835C322.749 82.7706 323.11 86.0126 325.902 88.7245C328.87 91.6074 329.018 94.961 326.37 99.2985C324.834 101.813 324.709 102.965 325.816 104.396C327.861 107.041 325.491 108.251 320.308 107.208C316.83 106.507 316.098 106.756 316.098 108.636C316.098 109.888 317.296 112.283 318.762 113.958L321.428 117.001H318.834C317.409 117.001 315.796 117.742 315.251 118.645C314.218 120.357 314.127 121.035 313.828 129.191C313.66 133.795 313.427 134.089 310.573 133.321C307.095 132.383 298.467 136.157 299.598 138.12C299.99 138.802 298.85 139.359 297.065 139.359C292.027 139.359 289.031 144.111 289.894 150.737C290.69 156.855 290.302 157.177 280.437 158.602C265.366 160.776 255.488 160.552 249.308 157.897C245.938 156.449 243.769 155.237 244.487 155.203C245.205 155.169 247.015 152.807 248.51 149.953C252.227 142.855 251.163 138.621 245.29 137.13C241.325 136.124 240.693 135.343 239.088 129.465C238.103 125.864 237.324 120.74 237.355 118.075C237.389 115.098 236.752 112.961 235.7 112.527C233.806 111.747 233.317 106.48 235.139 106.48C235.771 106.48 236.324 105.443 236.368 104.178C236.674 95.4426 237.13 93.9733 239.657 93.5866C241.09 93.367 243.141 94.1311 244.216 95.2845C245.981 97.1784 246.521 97.1877 249.797 95.3688C251.792 94.2628 253.733 92.3136 254.111 91.0405C254.488 89.7661 257.148 87.5157 260.019 86.0375C264.61 83.6741 265.285 82.7626 265.62 78.4751C265.914 74.7045 266.529 73.5999 268.329 73.5999C269.61 73.5999 271.33 72.8278 272.151 71.8835C274.072 69.6779 288.627 71.5494 291.223 74.335C293.427 76.701 293.458 76.6997 297.266 74.0219C299.659 72.3385 300.915 72.1532 302.541 73.2435C305.232 75.0479 308.125 73.2447 307.107 70.3986C306.495 68.6849 307.019 68.3233 309.686 68.6218C312.457 68.9322 313.098 68.4299 313.4 65.7087Z" fill="#DBDBDB"/>
<path d="M53.9759 74.4835C55.7896 74.8728 58.2945 74.556 59.5408 73.7787C62.6732 71.8243 62.9807 71.9467 61.0885 74.3943C60.1902 75.5543 58.1794 77.0257 56.6181 77.6623C53.8803 78.7789 53.8091 79.1854 54.5898 89.2281C55.5591 101.703 55.8214 101.337 37.2968 113.372C30.5565 117.751 23.9034 122.43 22.5125 123.77C21.1203 125.111 18.9144 126.188 17.6105 126.164C12.7293 126.073 6.64701 117.681 10.3566 116.153C11.3566 115.741 12.1741 114.58 12.1741 113.572C12.1741 112.565 12.6889 111.74 13.3175 111.74C15.0161 111.74 16.1778 106.743 15.3249 103.097C14.8494 101.061 13.6986 99.9036 12.1508 99.9036C10.1937 99.9036 9.72305 99.0119 9.72305 95.3004C9.72305 92.7687 9.17161 90.6973 8.49759 90.6973C7.82356 90.6973 7.27212 90.1239 7.27212 89.4229C7.27212 88.7232 8.13251 88.5034 9.18399 88.9361C10.4597 89.4622 11.3212 88.7941 11.7771 86.9225C12.1534 85.3811 13.2599 84.1214 14.2378 84.1214C15.4854 84.1214 15.7722 83.2992 15.1999 81.3606C14.5209 79.0669 14.7844 78.7369 16.7575 79.4103C18.0639 79.8548 21.1215 79.3261 23.5529 78.2358C26.3446 76.9837 28.2513 76.7338 28.7256 77.5572C29.983 79.7417 39.7759 79.013 45.385 76.3182C48.5015 74.8202 52.0322 74.0666 53.9759 74.4835Z" fill="#DBDBDB"/>
<path d="M8.39712 83.9477C7.85423 83.0047 8.00863 81.4646 8.7427 80.5163C10.5185 78.22 11.0099 78.9802 10.1177 82.6456C9.58461 84.8302 9.11159 85.1879 8.39712 83.9477Z" fill="#DBDBDB"/>
<path d="M17.2649 130.152C18.1718 130.15 22.4989 127.521 26.88 124.309L34.8459 118.47L36.0713 122.668C36.7453 124.976 37.7442 127.605 38.2896 128.512C39.27 130.137 34.9022 132.783 31.2392 132.783C28.2563 132.783 20.7526 136.751 20.7526 138.328C20.7526 139.188 22.434 141.753 24.4879 144.028C27.8691 147.771 28.0822 148.496 26.7427 151.652C25.7537 153.98 24.3066 155.141 22.3936 155.141C20.8176 155.141 19.5088 155.585 19.4867 156.128C19.4634 156.671 18.3861 158.478 17.0919 160.144C15.1091 162.696 14.0271 163.031 10.2378 162.268L5.73782 161.362L6.4252 154.215C6.80265 150.284 7.77336 146.214 8.58096 145.17C9.55523 143.91 9.84451 140.189 9.44009 134.118L8.82974 124.967L12.2232 127.559C14.0896 128.986 16.3581 130.152 17.2649 130.152Z" fill="#DBDBDB"/>
<path d="M29.6375 136.731C32.5027 135.954 35.9487 134.788 37.2968 134.139C41.3593 132.186 46.8214 132.69 52.0028 135.494C64.5189 142.266 67.2945 144.112 75.8999 151.384C80.9551 155.656 86.1942 160.229 87.5423 161.545C91.9872 165.886 95.003 166.844 106.411 167.538C118.525 168.275 120.018 168.726 120.018 171.659C120.018 172.937 121.373 173.554 124.178 173.554C127.764 173.554 128.657 174.237 130.625 178.486C131.882 181.199 135.833 186.343 139.405 189.919C144.529 195.048 145.756 197.039 145.214 199.353C144.767 201.265 145.489 203.581 147.285 206.004C148.802 208.049 151.094 211.942 152.38 214.654C154.539 219.207 155.73 220.208 158.405 219.709C158.962 219.605 159.088 220.091 158.686 220.788C158.285 221.485 158.659 222.534 159.518 223.122C160.376 223.709 163.413 227.487 166.265 231.517L171.451 238.846L183.33 240.659C191.917 241.969 196.042 243.241 198.215 245.247L201.222 248.023L199.223 256.575C198.124 261.278 197.224 266.357 197.224 267.862C197.224 269.365 196.26 270.997 195.08 271.488C174.428 280.074 167.05 282.175 143.915 286.059C137.356 287.16 131.94 291.814 128.755 299.086C126.028 305.312 124.453 306.46 123.251 303.097C122.819 301.891 120.98 301.128 118.524 301.138C106.416 301.185 93.4688 300.305 92.0607 299.341C89.7519 297.759 85.7126 302.129 85.6636 306.263L85.6219 309.676L83.519 306.793C74.5409 294.492 69.7186 286.484 68.3313 281.576C67.0678 277.101 65.1279 274.496 59.558 269.785C51.0629 262.601 48.5714 258.023 48.341 249.177C48.1143 240.496 43.5751 229.732 38.0616 224.803C30.6497 218.177 29.4794 216.755 30.0713 215.099C30.3838 214.225 29.2429 211.299 27.5346 208.597C25.8262 205.897 24.4291 203.447 24.4291 203.154C24.4291 202.621 17.413 191.172 15.5601 188.679C15.0221 187.955 12.9338 184.848 10.9191 181.774C8.90438 178.7 6.56754 176.185 5.72439 176.185C4.66556 176.185 4.32236 174.404 4.61648 170.432L5.043 164.679L9.44742 165.745C14.5149 166.972 17.4168 165.704 20.2808 161.014C21.369 159.23 23.2624 157.772 24.4867 157.772C26.597 157.772 31.7821 151.493 31.7821 148.938C31.7821 148.28 30.1277 146.042 28.1056 143.962C26.0835 141.883 24.4291 139.724 24.4291 139.163C24.4291 138.604 26.7723 137.509 29.6375 136.731Z" fill="#DBDBDB"/>
<path d="M117.848 165.071C114.335 164.244 114.221 164.012 115.517 160.329C116.892 156.419 121.421 154.888 123.082 157.772C123.498 158.495 123.254 159.087 122.541 159.087C121.828 159.087 121.243 160.271 121.243 161.717C121.243 163.179 122.061 164.348 123.082 164.348C124.093 164.348 124.92 164.891 124.92 165.555C124.92 166.219 125.255 167.699 125.664 168.843C126.137 170.167 125.743 170.924 124.582 170.924C123.577 170.924 122.481 169.803 122.148 168.433C121.795 166.983 119.996 165.577 117.848 165.071Z" fill="#DBDBDB"/>
<path d="M132.85 298.132C135.144 292.242 139.535 289.984 153.635 287.447C166.761 285.083 170.263 284.988 170.263 286.999C170.263 287.909 171.642 291.433 173.327 294.83C175.012 298.227 176.391 301.921 176.391 303.039C176.391 304.157 176.879 305.073 177.473 305.073C178.069 305.073 178.843 306.251 179.194 307.691C179.659 309.601 178.95 310.762 176.58 311.975C174.216 313.185 173.222 314.806 172.942 317.91C172.516 322.658 169.418 324.676 154.528 329.899C150.255 331.4 144.833 334.441 142.479 336.66C139.794 339.19 137.398 340.418 136.049 339.959C134.744 339.515 132.623 340.495 130.655 342.45C128.592 344.503 125.291 345.974 121.571 346.497C114.901 347.434 112.121 348.629 107.703 352.46C103.871 355.782 94.6906 356.55 93.0043 353.689C92.3805 352.629 91.8609 350.126 91.8499 348.127C91.8401 346.128 91.34 343.464 90.7395 342.208C89.0398 338.652 85.8645 321.932 86.1022 317.789C86.2198 315.741 87.3253 313.276 88.5581 312.308C90.2334 310.994 90.5079 309.94 89.6427 308.14C87.5533 303.788 89.0826 303.092 100.104 303.381C114.659 303.763 119.937 304.46 121.576 306.218C125.046 309.943 129.495 306.752 132.85 298.132Z" fill="#DBDBDB"/>
<path d="M78.351 372.419C78.351 368.778 82.1145 363.17 86.0471 360.954C87.5435 360.109 89.1819 359.654 89.6868 359.942C91.7701 361.129 90.3707 364.319 86.9295 366.229C82.7174 368.566 82.0201 372.147 85.7763 372.147C89.84 372.147 87.3547 374.437 82.6513 375.026C78.7934 375.509 78.351 375.241 78.351 372.419Z" fill="#DBDBDB"/>
<path d="M192.629 359.866C191.787 360.232 190.408 360.232 189.565 359.866C188.723 359.502 189.412 359.203 191.097 359.203C192.782 359.203 193.472 359.502 192.629 359.866Z" fill="#DBDBDB"/>
<path d="M11.7464 449.743L14.6252 446.455C16.2085 444.647 17.9584 443.167 18.5148 443.167C19.0712 443.167 19.5271 444.647 19.5271 446.455C19.5271 449.272 18.9696 449.743 15.6375 449.743H11.7464Z" fill="#DBDBDB"/>
</svg>
