<svg width="459" height="468" viewBox="0 0 459 468" fill="none" xmlns="http://www.w3.org/2000/svg">
<path d="M163.692 191.213C163.063 191.213 162.549 190.326 162.549 189.241C162.549 187.028 162.773 186.939 165.512 188.067C166.578 188.506 167.451 190.247 167.451 191.936C167.451 193.626 168.466 195.782 169.709 196.726C172.866 199.127 173.71 203.776 174.622 223.757C175.344 239.588 175.226 241.18 173.341 241.178C169.386 241.172 167.793 236.526 168.297 226.473C168.558 221.287 168.435 216.114 168.023 214.977C167.61 213.838 167.068 209.189 166.818 204.645C166.304 195.285 165.356 191.213 163.692 191.213Z" fill="#003479"/>
<path d="M38.7964 215.751C38.4766 209.035 42.822 201.42 47.6711 200.196C49.481 199.739 51.2382 199.304 51.5752 199.231C54.9856 198.476 58.8016 208.262 58.4352 216.819C58.2011 222.258 57.4721 224.106 54.1622 227.646C49.6048 232.52 46.3254 231.907 44.9248 225.922C44.3966 223.663 43.5204 222.729 42.3722 223.201C40.023 224.168 39.1064 222.257 38.7964 215.751Z" fill="#CDD9E7"/>
<path d="M90.2573 196.78C92.186 198.878 94.6565 198.708 96.8463 196.326C98.4713 194.559 98.88 194.558 100.504 196.324C101.887 197.829 102.914 197.971 104.732 196.914C107.655 195.212 111.922 196.473 111.922 199.038C111.922 200.068 113.314 201.901 115.015 203.113C117.92 205.184 118.367 205.166 122.353 202.831C127.837 199.619 130.099 201.091 132.948 209.729C135.458 217.34 135.611 219.786 133.704 221.859C132.935 222.695 131.273 226.547 130.01 230.417C128.058 236.402 127.921 238.399 129.09 243.761C129.848 247.229 130.96 250.399 131.563 250.805C134.307 252.649 132.103 253.527 125.777 253.115C116.857 252.532 106.427 254.634 97.9089 258.731C94.1709 260.528 90.8026 262 90.4232 262C90.0438 262 90.117 258.964 90.5867 255.253C91.3699 249.054 91.1637 248.194 88.0321 244.639C86.1594 242.513 84.0281 240.772 83.2961 240.772C82.53 240.772 81.981 238.247 82.0005 234.806C82.0176 231.525 82.458 228.838 82.9777 228.835C84.9943 228.826 86.4021 221.938 84.8125 219.855C83.4889 218.119 83.6572 217.968 86.0069 218.779C88.3553 219.589 88.7421 219.242 88.7421 216.316C88.7421 214.443 88.0564 212.901 87.2171 212.89C86.052 212.875 86.0691 212.609 87.2878 211.769C89.0324 210.566 88.0797 203.623 86.1704 203.623C84.3685 203.623 84.9467 198.763 86.9633 196.943C88.3895 195.656 89.1886 195.618 90.2573 196.78Z" fill="#9BBACE"/>
<path d="M398.86 257.847C401.626 258.066 403.083 257.498 403.621 255.991C404.204 254.361 405.195 254.059 407.602 254.777C409.363 255.302 413.238 255.877 416.212 256.052C420.635 256.312 422.378 257.234 425.786 261.11C429.758 265.628 433.796 267.17 435.212 264.711C435.573 264.085 437.195 263.845 438.818 264.177C440.44 264.51 442.107 264.193 442.521 263.473C443.299 262.122 451.857 270.446 451.857 272.555C451.857 273.206 452.593 273.739 453.49 273.739C454.714 273.739 454.987 275.499 454.579 280.778C454.075 287.294 454.249 287.878 456.922 288.628C459.71 289.411 459.606 289.657 453.905 295.736C447.771 302.277 444.447 310.224 442.756 322.386C442.304 325.64 440.582 331.372 438.93 335.123C435.461 343.003 435.308 344.517 437.618 348.059C438.826 349.913 439.059 352.422 438.433 356.848C437.411 364.064 438.212 377.343 439.732 378.35C440.308 378.731 440.145 380.131 439.371 381.46C438.271 383.351 438.41 384.885 440.009 388.501C441.134 391.044 442.054 393.451 442.054 393.852C442.054 394.252 443.433 396.059 445.117 397.866C446.802 399.674 448.181 402.246 448.181 403.58C448.181 404.915 448.785 406.654 449.524 407.447C450.497 408.491 449.403 409.133 445.541 409.778C437.215 411.171 435.927 411.794 435.927 414.435C435.927 415.791 434.771 417.77 433.358 418.831C431.428 420.282 431.013 421.51 431.684 423.781C432.695 427.199 432.625 435.548 431.503 445.491C430.784 451.863 430.962 452.463 434.742 456.338C438.952 460.655 440.773 461.287 442.788 459.125C443.604 458.249 443.848 459.318 443.522 462.323C442.86 468.399 439.903 469.407 436.361 464.762C434.823 462.746 433.545 460.475 433.52 459.717C433.496 458.958 431.546 457.588 429.188 456.673C426.829 455.758 424.366 454.013 423.714 452.794C420.429 446.65 420.102 446.468 417.843 449.511C415.87 452.171 415.264 452.279 409.886 450.934C404.994 449.71 404.066 448.988 404.066 446.412C404.066 443.05 402.362 442.606 397.336 444.657C395.569 445.378 394.416 445.456 394.776 444.833C395.136 444.209 394.467 442.763 393.29 441.62C391.589 439.969 390.148 439.791 386.272 440.756C383.59 441.423 379.974 441.983 378.237 442C375.453 442.028 375.14 441.586 375.595 438.261C375.883 436.154 375.143 432.528 373.916 430.043C372.316 426.798 371.653 422.153 371.467 412.852C371.326 405.843 370.85 399.484 370.409 398.718C369.969 397.954 367.16 397.329 364.167 397.329C359.972 397.329 358.725 396.842 358.725 395.203C358.725 393.641 357.994 393.287 355.967 393.871C354.451 394.306 351.764 394.671 349.997 394.681C347.199 394.696 346.682 395.38 346 399.958C345.307 404.603 344.824 405.219 341.86 405.232C340.015 405.24 336.484 405.605 334.015 406.043C329.867 406.779 329.353 406.502 327.275 402.413C326.037 399.978 324.135 394.436 323.05 390.097L321.073 382.209H300.804C281.55 382.209 280.596 382.089 281.737 379.805C282.396 378.482 282.651 376.604 282.302 375.628C281.369 373.018 284.528 370.803 287.892 371.709C289.948 372.262 291.5 371.692 293.101 369.793C295.981 366.378 297.453 366.354 297.453 369.718C297.453 373.171 303 373.338 304.696 369.935C305.358 368.608 307.83 366.105 310.188 364.372C315.588 360.402 317.06 356.93 317.06 348.163C317.06 343.082 317.724 340.373 319.511 338.163C320.859 336.496 321.962 334.384 321.962 333.471C321.962 332.557 324.11 329.985 326.735 327.754C331.64 323.586 332.103 322.21 333.641 307.266C334.731 296.672 336.303 288.739 338.299 283.768C339.423 280.967 340.343 275.594 340.343 271.824C340.343 265.96 340.928 264.248 344.396 259.942L348.449 254.912L352.825 259.608C357.133 264.229 358.499 264.732 373.99 267.408C375.609 267.688 376.927 266.644 378.042 264.2C379.317 261.408 380.315 260.744 382.397 261.306C383.884 261.706 387.299 261.021 389.988 259.782C392.675 258.544 396.668 257.672 398.86 257.847Z" fill="#003479"/>
<path d="M445.905 332.952C446.603 333.415 448.143 333.195 449.328 332.464C451.964 330.836 454.281 333.505 454.072 337.929C453.956 340.41 453.333 340.818 450.179 340.48C447.147 340.155 446.147 340.73 444.988 343.461C443.727 346.43 443.253 346.644 441.114 345.211C439.531 344.15 439.096 343.128 439.872 342.296C440.529 341.591 441.067 339.725 441.067 338.15C441.067 334.874 444.019 331.701 445.905 332.952Z" fill="#A5CDC9"/>
<path d="M202.921 163.271C202.921 160.649 206.811 157.518 210.85 156.889C212.863 156.577 214.581 156.232 214.666 156.124C215.476 155.104 224.065 160.619 225.605 163.149C227.895 166.906 230.513 167.284 234.333 164.406C236.773 162.569 237.451 162.619 241.977 164.97C250.773 169.54 253.901 169.728 257.213 165.885C260.531 162.034 266.288 161.424 275.185 163.982C280 165.366 280.747 165.215 285.218 161.951L290.049 158.427L292.206 161.44C293.393 163.098 294.724 166.449 295.165 168.887C295.66 171.63 296.829 173.562 298.23 173.956C299.98 174.447 300.322 175.375 299.736 178.05C298.81 182.289 298.139 183.091 295.026 183.688C293.349 184.009 292.015 186.067 290.756 190.279C289.75 193.648 288.514 196.84 288.011 197.372C287.509 197.906 287.096 199.391 287.096 200.672C287.096 201.954 285.986 203.839 284.63 204.861C283.25 205.9 282.462 207.561 282.844 208.628C283.218 209.678 282.133 212.153 280.431 214.127C278.729 216.102 277.337 218.29 277.337 218.99C277.337 219.692 275.61 224.691 273.498 230.101C270 239.058 269.538 239.682 268.313 237.086C266.534 233.319 262.583 230.771 261.852 232.921C261.559 233.782 260.487 234.144 259.469 233.723C256.733 232.595 246.514 245.69 245.001 252.261C244.088 256.229 243.23 257.492 241.646 257.205C240.417 256.982 239.519 257.642 239.519 258.767C239.519 261.442 237.018 262.886 235.864 260.878C235.345 259.976 234.172 259.525 233.256 259.877C232.339 260.228 230.535 259.931 229.246 259.214C227.52 258.257 226.556 258.42 225.586 259.831C224.862 260.884 222.751 262.154 220.895 262.65C218.003 263.425 217.345 263.057 216.29 260.071C215.612 258.156 215.357 255.574 215.723 254.336C216.449 251.876 213.51 244.675 212.307 245.968C211.898 246.408 209.851 245.218 207.759 243.324C205.666 241.431 202.944 239.882 201.709 239.882C200.475 239.882 199.269 239.255 199.033 238.488C198.729 237.51 197.558 237.52 195.102 238.525C193.177 239.311 191.407 239.744 191.167 239.485C189.928 238.155 189.517 213.79 190.719 212.991C191.447 212.507 192.904 209.8 193.955 206.976C195.006 204.151 196.355 201.84 196.954 201.84C197.552 201.84 198.041 200.695 198.041 199.294C198.041 197.893 198.639 196.35 199.371 195.863C200.667 195.003 199.931 187.013 198.291 184.16C196.939 181.809 198.183 173.722 200.575 169.299C201.865 166.913 202.921 164.2 202.921 163.271Z" fill="#ABFFB8"/>
<path d="M264.094 304.509C272.554 304.509 272.363 304.727 271.919 295.606L271.646 290H279.365H287.084L286.855 295.936C286.607 302.354 287.392 302.933 293.136 300.567C295.871 299.44 296.445 299.666 297.335 302.215C298.104 304.414 297.781 305.771 296.074 307.528C292.249 311.464 293.868 321.656 298.319 321.656C299.348 321.656 299.203 327.067 297.938 335.845C297.391 339.641 296.971 340.047 294.332 339.33C292.507 338.834 291.345 339.086 291.345 339.98C291.345 342.593 288.303 341.522 287.068 338.474C286.407 336.842 284.633 335.316 283.127 335.084C280.886 334.74 280.388 335.29 280.388 338.113C280.388 341.34 280.114 341.505 276.127 340.695C271.932 339.843 271.866 339.898 271.95 344.263C271.998 346.701 272.459 349.869 272.976 351.303C273.701 353.313 273.223 354.297 270.883 355.612C269.215 356.55 267.774 357.158 267.681 356.964C266.363 354.219 256.689 341.442 255.928 341.442C255.361 341.442 255.212 340.551 255.597 339.463C255.983 338.375 255.656 337.485 254.869 337.485C254.044 337.485 253.734 336.477 254.136 335.104C254.55 333.691 253.84 331.566 252.393 329.882C249.747 326.807 249.231 323.613 251.168 322.316C251.837 321.868 252.385 320.093 252.385 318.373C252.385 316.171 253.168 315.119 255.03 314.824C258.002 314.349 259.648 311.104 256.917 311.104C255.697 311.104 255.337 310.094 255.74 307.807C256.289 304.699 256.771 304.509 264.094 304.509Z" fill="#037FB2"/>
<path d="M22.5058 156.798C17.9988 150.502 13.4917 156.798 5.60439 156.798C2.44946 158.309 4.66542 159.527 6.16777 159.947C7.67012 160.367 11.2382 160.702 13.4917 158.688C16.3086 156.169 20.8157 158.688 20.8157 159.317C20.8157 159.947 25.3227 161.836 28.1397 160.576C30.3932 159.569 30.6217 156.169 28.703 156.169C27.0128 156.169 27.4636 156.798 22.5058 156.798Z" fill="#475B7F"/>
<path d="M83.3423 14.0121L83.7162 7.00604L84.0899 0L88.0054 3.11169C90.1586 4.82275 96.5471 9.75079 102.203 14.0633L112.485 21.9032L106.492 22.5608C100.736 23.1921 100.507 23.3736 100.679 27.1639C102.07 57.5329 107.317 124.158 108.422 125.504C108.882 126.065 109.017 128.285 108.723 130.439L108.187 134.356L89.2616 133.941C78.8534 133.712 70.1437 133.862 69.9071 134.274C69.303 135.322 57.2098 135.021 56.1951 133.932C55.7355 133.439 53.798 133.036 51.8874 133.036C48.8617 133.036 48.4156 133.533 48.4156 136.904C48.4156 139.032 47.8262 141.163 47.1044 141.642C45.6056 142.636 38.9132 135.179 37.2857 130.701C36.6865 129.055 35.2244 127.327 34.0344 126.86C32.8444 126.393 30.5086 124.584 28.8444 122.838C25.6961 119.537 25.6152 119.532 12.5697 121.951C7.35157 122.919 7.30744 122.828 9.81236 116.394C12.1616 110.359 12.2634 95.614 9.9705 93.315C8.54892 91.8893 8.55502 90.8308 10.0097 86.4039C11.9913 80.3764 10.5514 74.6409 6.19724 71.2227C3.91291 69.4288 5.41281 69.1908 22.6801 68.5923L41.6753 67.9348L41.7403 59.3491C41.8175 49.3169 42.4425 47.8951 47.847 45.4713L51.8825 43.6628L52.7551 29.2051L53.6277 14.7485L68.4857 14.3802L83.3423 14.0121Z" fill="#DBDBDB"/>
<path d="M105.437 54.7829C104.436 40.3158 103.605 28.0359 103.59 27.4927C103.575 26.9496 106.856 26.5063 110.882 26.5063C118.013 26.5063 118.474 26.7298 128.958 35.2667C134.875 40.0855 142.805 46.7443 146.582 50.0625C157.249 59.4372 160.114 61.7994 166.338 66.3407C169.523 68.6646 172.142 71.3845 172.159 72.3867C172.21 75.2485 178.074 80.3698 184.288 82.9804C189.411 85.1321 189.998 85.8198 190.337 90.0652C190.744 95.1366 193.436 97.0832 197.927 95.5536C200.265 94.7566 200.376 95.3128 200.359 107.631C200.348 114.731 199.604 123.205 198.705 126.461C196.754 133.52 193.011 135.476 181.226 135.593C175.865 135.646 173.245 136.276 172.071 137.796C170.754 139.498 168.787 139.799 162.246 139.297C154.815 138.726 153.583 139.009 148.73 142.404C145.794 144.459 142.732 146.737 141.926 147.465C141.12 148.194 139.674 148.466 138.714 148.072C136.69 147.238 132.975 150.762 132.975 153.515C132.975 154.549 132.212 155.395 131.28 155.395C130.348 155.395 129.268 156.693 128.882 158.28C128.214 161.016 128.06 161.05 125.873 158.927C123.701 156.816 123.453 156.825 121.531 159.105C120.411 160.433 119.495 162.51 119.495 163.718C119.495 164.927 118.909 165.916 118.192 165.916C117.476 165.916 117.062 167.238 117.273 168.854C117.566 171.095 116.577 172.418 113.11 174.425C109.393 176.58 108.692 177.606 109.264 180.053C109.649 181.7 109.404 183.78 108.719 184.675C108.035 185.569 107.284 187.735 107.051 189.487C106.585 192.988 103.563 194.958 103.563 191.759C103.563 190.396 102.401 189.801 99.8866 189.878C97.8326 189.941 96.2101 190.71 96.2101 191.621C96.2101 193.858 92.3191 195.291 91.2554 193.444C90.6218 192.342 89.726 192.332 87.862 193.402C84.9134 195.096 84.574 194.654 83.3999 187.617C82.9171 184.723 81.8142 181.468 80.9477 180.383C80.0813 179.298 78.8546 176.677 78.221 174.558C76.6046 169.155 73.4722 167.24 71.3484 170.357C70.0775 172.222 67.9146 172.812 61.7932 172.959L53.8801 173.15L54.3581 168.756C54.8814 163.958 52.5651 158.025 50.1705 158.025C48.0516 158.025 47.314 146.4 49.3189 144.614C50.1706 143.856 50.8666 141.864 50.8666 140.187C50.8666 136.059 52.5027 135.26 54.591 138.368C56.5469 141.281 58.9929 141.714 59.7588 139.284C60.0505 138.36 62.3765 137.611 65.0689 137.575C67.7049 137.54 79.0655 137.391 90.3143 137.246L110.765 136.982L111.595 131.052C112.075 127.613 111.905 124.436 111.188 123.49C110.509 122.591 109.347 112.684 108.605 101.472C107.863 90.26 106.437 69.25 105.437 54.7829Z" fill="#DBDBDB"/>
<path d="M223.895 83.8708C231.712 75.518 241.553 67.4231 260.419 53.8254C273.136 44.6585 274.942 43.7404 278.81 44.4742C285.163 45.6776 288.544 47.252 292.55 50.8701C295.345 53.3939 296.652 53.8239 298.426 52.8046C301.794 50.8713 301.871 50.9583 302.793 57.7421C303.764 64.8993 306.624 73.561 309.005 76.5635C310.24 78.1194 310.333 79.7134 309.391 83.1395C308.707 85.6278 307.853 93.5809 307.494 100.814C306.614 118.548 306.514 118.898 300.269 126.445C293.384 134.763 287.138 147.948 288.11 152.105C288.663 154.467 288.203 155.356 286.055 156.089C284.533 156.607 282.203 158.116 280.877 159.441C278.676 161.642 278.095 161.685 274.199 159.939C271.852 158.886 268.051 158.025 265.753 158.025C260.872 158.025 253.074 161.22 253.074 163.219C253.074 165.494 246.95 164.782 243.437 162.098C238.948 158.668 237.193 158.426 232.383 160.579C228.4 162.362 228.143 162.297 225.847 158.915C224.533 156.978 222.433 155.395 221.182 155.395C219.929 155.395 218.526 154.737 218.063 153.932C216.955 152.009 205.617 153.573 201.91 156.161C200.394 157.22 199.152 159.31 199.152 160.807C199.152 162.303 198.049 165.034 196.701 166.872C195.353 168.712 194.232 171.469 194.21 172.998C194.169 175.726 194.121 175.719 191.761 172.679C190.227 170.702 188.624 169.879 187.341 170.407C186.063 170.933 184.67 170.227 183.523 168.47C182.256 166.529 180.898 165.927 178.966 166.447C177.127 166.942 175.48 166.321 174.011 164.58C172.757 163.092 172.42 161.971 173.227 161.971C175.94 161.971 174.616 158.576 171.012 156.29C168.659 154.799 166.936 152.268 166.116 149.103C164.381 142.398 164.424 142.243 167.983 142.243C169.712 142.243 172.108 141.68 173.306 140.991C174.504 140.303 180.064 139.374 185.659 138.926C194.063 138.255 196.223 137.613 198.065 135.246C199.292 133.669 200.314 131.462 200.337 130.34C200.359 129.218 201.006 127.627 201.776 126.801C202.591 125.926 203.427 118.701 203.781 109.467L204.389 93.6321L208.816 92.8337C216.445 91.4593 217.229 90.9925 223.895 83.8708Z" fill="#DBDBDB"/>
<path d="M305.835 55.8284C305.039 49.5247 305.223 48.5041 307.464 46.8193C311.198 44.0127 312.49 44.3402 324.029 51.0253C344.229 62.7279 381.585 85.7817 383.985 88.0294C386.136 90.0416 386.477 92.5234 387.049 110.349C387.693 130.352 387.686 130.406 384.995 130.406C381.734 130.406 376.721 133.952 376.95 136.094C377.218 138.6 375.428 143.558 374.255 143.558C373.661 143.558 373.173 145.298 373.173 147.426C373.173 149.554 372.621 151.66 371.947 152.107C371.273 152.554 370.722 154.385 370.722 156.176C370.722 157.967 369.835 160.887 368.749 162.664C366.396 166.518 367.26 169.862 370.608 169.862C372.528 169.862 373.191 171.066 373.843 175.738C374.295 178.969 375.434 182.298 376.373 183.134C377.764 184.373 377.165 185.141 373.141 187.279C370.424 188.721 367.575 191.162 366.809 192.704C366.043 194.246 363.446 198.041 361.037 201.138C356.703 206.712 352.417 208.898 344.374 209.637C341.316 209.918 340.697 210.548 340.697 213.381C340.697 218.351 337.969 221.154 333.133 221.154C330.823 221.154 327.192 222.119 325.065 223.3C322.391 224.785 321.055 224.988 320.735 223.958C320.095 221.901 318.198 222.096 316.012 224.442C313.037 227.635 310.962 226.737 309.371 221.566C308.551 218.898 305.19 213.83 301.902 210.3C298.612 206.771 296.24 203.33 296.63 202.654C297.018 201.978 300.612 201.426 304.617 201.426C312.701 201.426 313.572 200.219 309.141 195.158C307.072 192.796 306.348 190.31 306.241 185.21C306.046 175.939 304.631 168.945 302.578 167.117C301.638 166.279 300.869 164.778 300.869 163.783C300.869 162.786 299.829 161.971 298.559 161.971C296.146 161.971 293.274 158.195 291.747 153.01C290.427 148.535 296.719 135.334 304.211 126.859C309.113 121.313 309.93 118.129 310.733 101.43C311.169 92.3657 312.09 83.7841 312.78 82.3597C313.76 80.3436 313.23 77.9128 310.386 71.354C308.377 66.7245 306.331 59.7371 305.835 55.8284Z" fill="#DBDBDB"/>
<path d="M6.74625 129.755C7.97543 125.759 8.66168 125.236 13.2561 124.789C25.0956 123.637 26.304 123.776 27.8665 126.461C28.7084 127.907 30.3077 129.091 31.4205 129.091C32.5332 129.091 33.7697 130.484 34.168 132.186C34.5663 133.889 37.0736 137.554 39.7415 140.332C42.4082 143.109 44.3004 145.886 43.9463 146.501C43.5921 147.115 43.967 148.478 44.7783 149.526C45.5896 150.576 45.9487 152.69 45.5749 154.224C44.8016 157.397 47.015 161.971 49.3238 161.971C50.2319 161.971 50.8666 163.646 50.8666 166.049V170.126L45.0454 169.251C41.8444 168.769 33.9928 168.074 27.5981 167.706C20.6888 167.308 15.5932 166.409 15.0368 165.49C14.3922 164.423 13.8161 164.375 13.1825 165.335C11.9067 167.267 4.00468 166.939 3.37968 164.93C3.03041 163.809 4.36501 163.271 7.56602 163.24C10.1494 163.213 13.6298 162.381 15.3014 161.388C17.8994 159.844 18.848 159.866 21.8664 161.542C26.3371 164.022 31.2586 162.856 31.2586 159.315C31.2586 157.492 30.4302 156.707 28.5013 156.702C26.9853 156.697 24.1274 155.789 22.1519 154.683C19.3847 153.135 17.7243 152.985 14.9228 154.033C12.9215 154.782 9.87853 155.395 8.15916 155.395C5.72777 155.395 5.36019 155.043 6.50358 153.816C8.65801 151.504 8.3039 150.134 5.55143 150.134C4.21931 150.134 2.26455 148.719 1.20817 146.989C-0.587187 144.047 -0.514881 143.533 2.33073 139.034C4.00353 136.387 5.99135 132.212 6.74625 129.755Z" fill="#DBDBDB"/>
<path d="M144.005 151.029C144.005 149.96 146.348 147.569 149.213 145.716C152.078 143.862 156.151 142.322 158.265 142.294C161.885 142.245 162.157 142.585 162.926 148.09C163.436 151.745 164.86 155.075 166.721 156.967C168.358 158.634 169.707 161.026 169.719 162.285C169.751 165.72 173.596 169.862 176.753 169.862C178.686 169.862 179.544 170.636 179.544 172.383C179.544 173.769 180.234 175.172 181.076 175.501C183.831 176.577 180.213 181.028 176.463 181.176C174.577 181.251 172.316 182.366 171.439 183.654C170.127 185.578 168.776 185.845 163.881 185.148C160.603 184.682 157.562 184.684 157.125 185.153C156.687 185.623 151.443 185.892 145.473 185.752C132.718 185.45 131.057 186.561 132.315 194.549L133.11 199.599L128.726 199.051C126.315 198.748 122.598 199.276 120.466 200.224C117.223 201.665 116.501 201.651 116.029 200.133C115.72 199.136 114.222 197.082 112.702 195.571C110.095 192.979 110.034 192.521 111.626 187.588C112.553 184.71 113.026 181.364 112.675 180.153C112.223 178.598 112.86 177.825 114.84 177.523C118.148 177.019 123.274 167.855 122.326 164.142C121.821 162.17 122.189 161.876 124.275 162.587C127.664 163.741 131.75 162.277 131.75 159.909C131.75 158.873 132.517 158.025 133.456 158.025C134.393 158.025 135.517 156.503 135.952 154.644C136.643 151.684 137.197 151.369 140.373 152.117C143.12 152.764 144.005 152.5 144.005 151.029Z" fill="#DBDBDB"/>
<path d="M298.5 170.573C297.78 170.097 297.236 168.41 297.289 166.825C297.355 164.864 297.609 164.573 298.085 165.916C298.47 167.001 299.376 168.3 300.098 168.804C301.794 169.985 300.228 171.72 298.5 170.573Z" fill="#DBDBDB"/>
<path d="M6.74864 175.347C6.74864 174.696 8.8173 173.253 11.3443 172.141C16.2463 169.983 31.9437 169.02 28.9388 171.062C27.9376 171.742 27.5099 173.368 27.9045 174.988C28.3016 176.619 27.9964 177.757 27.1606 177.76C26.3811 177.766 24.2096 178.629 22.3334 179.678C20.4571 180.728 19.218 181.073 19.5796 180.446C21.8198 176.557 13.6629 172.649 8.89323 175.326C7.63832 176.031 6.74864 176.039 6.74864 175.347Z" fill="#DBDBDB"/>
<path d="M30.9522 174.252C31.7954 173.886 32.4841 172.75 32.4841 171.725C32.4841 169.453 35.7611 169.232 36.4523 171.458C36.7636 172.462 39.5393 173.056 43.907 173.056C48.4328 173.056 50.8666 173.598 50.8666 174.605C50.8666 176.605 54.977 178.329 55.526 176.56C55.7993 175.681 56.7257 175.742 58.2073 176.735C59.9586 177.908 60.9231 177.85 62.4611 176.48C63.9158 175.186 64.8165 175.1 65.8067 176.163C66.7981 177.227 68.0518 177.124 70.466 175.785C73.6695 174.007 73.8435 174.103 76.2688 178.98C77.8693 182.198 78.3864 184.657 77.7051 185.812C76.1707 188.411 76.3595 189.589 78.3081 189.589C80.1525 189.589 81.5986 194.112 82.0937 201.426C82.2652 203.958 82.9613 208.199 83.6402 210.851C84.7186 215.059 84.5911 215.752 82.6328 216.301C80.8105 216.812 80.5225 217.803 81.096 221.59C81.7259 225.758 81.5433 226.179 79.3705 225.569C77.846 225.142 76.6634 225.662 76.1965 226.966C74.8828 230.64 73.2663 229.192 72.5849 223.733C71.7075 216.72 69.6486 214.216 65.3165 214.899C62.1425 215.399 61.7981 215.037 61.1216 210.503C60.7172 207.786 58.9144 203.672 57.1154 201.36C53.9622 197.306 53.6141 197.19 47.3702 198.112C42.2427 198.868 40.6227 199.708 39.5871 202.147C37.5234 207.008 34.9229 207.256 33.3359 202.744C32.5712 200.573 31.2402 198.796 30.3775 198.796C29.5135 198.796 28.8076 198.272 28.8076 197.634C28.8076 196.995 27.7047 196.163 26.3566 195.784C24.723 195.326 23.9056 193.99 23.9056 191.779C23.9056 189.955 23.0429 187.536 21.989 186.405C19.9179 184.183 19.3492 184.642 29.4204 180.411C32.5748 179.086 33.6778 175.204 30.9522 175.018C29.7267 174.936 29.7267 174.782 30.9522 174.252Z" fill="#DBDBDB"/>
<path d="M178.37 184.141C182.787 183.171 185.672 180.029 185.672 176.186C185.672 174.878 186.435 173.807 187.369 173.807C189.509 173.807 193.025 179.453 193.025 182.89C193.025 184.32 193.635 185.894 194.383 186.39C196.348 187.693 194.661 197.162 191.759 201.124C190.433 202.932 189.348 205.302 189.348 206.391C189.348 207.479 188.471 209.058 187.4 209.898C185.81 211.147 185.463 214.147 185.525 226.156C185.598 240.865 185.596 240.882 182.644 240.882C178.314 240.882 177.712 238.864 178.123 225.757C178.551 212.09 176.112 199.986 171.974 195.259L169.284 192.187L171.768 188.616C173.197 186.562 176.002 184.661 178.37 184.141Z" fill="#DBDBDB"/>
<path d="M297.551 185.305C301.326 183.383 302.126 182.272 302.279 178.729C302.381 176.384 302.818 178.992 303.251 184.523C303.697 190.222 304.812 195.589 305.823 196.905C307.496 199.08 307.271 199.168 302.236 198.309C298.109 197.605 296.351 197.89 294.659 199.534C291.812 202.298 292.66 204.673 299.096 211.948C305.655 219.36 308.827 226.868 306.338 229.086C305.404 229.917 304.279 231.875 303.838 233.438C303.397 235 301.69 238.205 300.046 240.561C298.247 243.136 297.442 245.495 298.023 246.479C298.555 247.379 299.093 250.927 299.218 254.365C299.351 258.025 300.502 262.449 301.996 265.042C303.398 267.476 304.545 270.343 304.545 271.414C304.545 272.483 306.377 275.383 308.617 277.857C312.816 282.497 314.659 287.145 313.541 290.271C312.861 292.175 307.986 291.778 301.897 289.321C300.104 288.598 289.139 287.909 277.53 287.789L256.425 287.571L256.135 279.614C255.722 268.264 254.84 265.94 251.21 266.646C248.83 267.109 248.072 266.558 247.455 263.917C247.029 262.098 246.203 260.61 245.618 260.61C245.035 260.61 245.094 259.092 245.752 257.236C246.409 255.38 246.96 252.57 246.977 250.989C246.994 249.408 249.22 245.599 251.923 242.526C255.623 238.318 257.767 236.936 260.586 236.936C263.334 236.936 264.508 237.656 264.991 239.635C265.439 241.478 266.474 242.209 268.246 241.937C271.083 241.503 276.863 230.456 278.3 222.723C278.756 220.275 280.383 217.478 282.023 216.324C283.933 214.98 284.937 213.018 284.937 210.622C284.937 208.587 285.752 206.633 286.775 206.211C287.786 205.795 288.614 204.351 288.614 203.002C288.614 201.652 289.028 200.114 289.533 199.581C290.038 199.048 291.027 196.139 291.73 193.114C292.767 188.65 293.862 187.181 297.551 185.305Z" fill="#DBDBDB"/>
<path d="M17.2378 184.329C16.94 184.329 16.3565 183.737 15.9399 183.014C15.5232 182.29 15.7671 181.698 16.4804 181.698C17.1936 181.698 17.7781 182.29 17.7781 183.014C17.7781 183.737 17.5356 184.329 17.2378 184.329Z" fill="#DBDBDB"/>
<path d="M134.963 191.25C134.881 190.698 140.052 189.951 146.456 189.589C157.261 188.979 158.168 189.121 159.064 191.562C159.594 193.009 160.899 194.9 161.964 195.766C163.544 197.049 163.657 198.084 162.575 201.414C161.543 204.593 161.605 205.637 162.863 206.154C163.827 206.551 164.246 208.105 163.904 210.018C163.592 211.779 163.73 214.265 164.213 215.542C164.696 216.82 165.002 222.627 164.895 228.445C164.725 237.608 165.037 239.351 167.219 241.472C168.605 242.818 169.74 244.538 169.74 245.294C169.74 246.137 169.172 246.058 168.27 245.09C167.461 244.222 165.392 243.546 163.674 243.59C161.023 243.655 160.847 243.886 162.515 245.106C164.173 246.319 163.499 247.104 158.225 250.11C154.785 252.071 150.592 254.123 148.907 254.667C147.222 255.213 144.978 256.472 143.92 257.466C141.024 260.185 135.463 257.09 135.392 252.718C135.364 250.91 134.551 247.951 133.588 246.143C131.556 242.328 131.188 234.833 132.975 233.648C133.649 233.201 134.201 231.825 134.201 230.592C134.201 229.358 135.279 226.19 136.596 223.55C138.462 219.818 138.748 217.837 137.89 214.628C137.284 212.359 136.411 206.396 135.951 201.377C135.49 196.359 135.045 191.802 134.963 191.25Z" fill="#DBDBDB"/>
<path d="M369.496 194.243C369.496 193.351 370.738 191.979 372.254 191.194C376.755 188.865 377.879 189.321 381.744 195.047C385.278 200.283 386.597 207.072 384.367 208.551C383.783 208.937 383.571 210.748 383.897 212.574C384.322 214.959 385.269 215.893 387.266 215.893C389.014 215.893 390.282 216.869 390.685 218.524C391.048 220.012 392.357 221.154 393.701 221.154C396.451 221.154 399.688 224.636 400.314 228.269C400.552 229.65 402.526 231.721 404.701 232.872C406.877 234.022 408.669 235.704 408.684 236.607C408.7 237.512 409.195 238.251 409.785 238.251C410.374 238.251 411.162 239.878 411.536 241.868C411.943 244.041 413.716 246.433 415.978 247.861C420.009 250.405 420.866 253.289 417.948 254.491C416.961 254.898 413.054 254.532 409.265 253.68C403.018 252.273 402.261 252.35 401.136 254.507C400.286 256.14 399.031 256.652 397.135 256.142C395.533 255.711 392.128 256.561 389.032 258.167C385.488 260.004 383.537 260.439 383.232 259.457C382.326 256.542 378.125 258.005 376.254 261.889C374.291 265.964 374.071 265.998 363.892 263.845C362.495 263.549 358.805 261.22 355.694 258.67C352.582 256.119 349.132 254.034 348.028 254.034C346.923 254.034 343.817 256.421 341.126 259.339C336.969 263.844 336.349 265.22 337.013 268.464L337.795 272.284L330.055 272.092C319.939 271.843 316.843 273.681 316.658 280.055C316.579 282.741 316.264 283.912 315.958 282.656C315.652 281.4 313.509 278.282 311.198 275.727C308.887 273.173 306.996 270.127 306.996 268.961C306.996 267.793 305.939 264.993 304.644 262.737C301.36 257.008 301.069 246.688 304.029 240.882C305.32 238.35 306.658 235.186 307.002 233.851C307.72 231.073 316.318 227.421 319.576 228.511C320.766 228.91 323.588 228.009 325.848 226.509C328.146 224.985 332.054 223.78 334.714 223.775C338.757 223.767 339.903 223.087 342.342 219.243C343.92 216.755 344.899 214.175 344.517 213.513C344.136 212.848 346.705 211.95 350.225 211.515C356.054 210.794 357.206 210.056 363.062 203.292C366.602 199.206 369.496 195.133 369.496 194.243Z" fill="#DBDBDB"/>
<path d="M60.6706 224.919C60.6706 224.312 61.6326 222.608 62.8091 221.134C66.162 216.931 68.5813 218.377 69.0163 224.846C69.3178 229.32 70.0077 230.788 72.3496 231.933C74.6046 233.035 75.7688 232.964 77.2627 231.632C79.02 230.067 79.1817 230.556 78.8312 236.371C78.4918 242.005 78.7614 242.912 80.8913 243.291C82.2394 243.532 84.5324 245.335 85.987 247.298C88.3486 250.488 88.4945 251.512 87.3462 256.896L86.0605 262.922L80.2786 259.702C77.0984 257.932 72.5236 254.248 70.1118 251.518C67.7012 248.787 62.9353 244.267 59.5223 241.474C56.1105 238.681 53.3176 235.919 53.3176 235.338C53.3176 234.757 54.972 232.424 56.9941 230.154C59.0162 227.882 60.6706 225.527 60.6706 224.919Z" fill="#DBDBDB"/>
<path d="M320.477 279.823C320.477 277.504 321.266 276.408 323.234 275.991C325.673 275.475 336.497 276.263 337.344 277.018C337.523 277.177 336.305 280.503 334.638 284.412C332.641 289.094 331.388 294.881 330.966 301.38C329.849 318.524 329.105 321.42 324.548 326.369C316.888 334.685 314.352 340.169 314.331 348.456C314.309 357.121 314.519 356.697 306.059 365.085C300.284 370.81 299.641 371.151 299.931 368.324C300.224 365.482 299.839 365.202 296.079 365.528C293.782 365.728 291.161 366.912 290.257 368.159C288.701 370.305 288.542 370.303 287.327 368.126C285.458 364.78 281.811 365.304 278.246 369.428C275.697 372.378 275.133 372.605 275.133 370.685C275.133 369.395 273.754 366.744 272.069 364.795C268.137 360.241 268.205 359.059 272.376 359.527C275.072 359.83 275.824 359.312 276.138 356.939C276.354 355.307 275.665 352.11 274.606 349.833C272.144 344.534 272.056 344.781 276.398 344.781C279.101 344.781 280.42 343.975 281.237 341.822L282.361 338.863L283.18 341.822C283.63 343.449 284.898 344.87 286 344.976C287.1 345.083 288.828 345.231 289.839 345.305C290.85 345.379 292.255 345.844 292.962 346.339C296.485 348.807 300.869 339.109 300.869 328.844C300.869 322.547 300.437 320.953 298.418 319.793C295.253 317.975 295.243 312.678 298.399 309.291C300.511 307.025 300.636 306.198 299.344 303.044C297.361 298.201 295.98 297.241 292.094 298C288.596 298.683 286.89 296.48 288.609 293.497C289.944 291.178 305.403 292.537 310.616 295.43C314.513 297.594 317.327 297.072 316.423 294.355C316.143 293.517 316.941 290.635 318.196 287.952C319.45 285.268 320.477 281.61 320.477 279.823Z" fill="#DBDBDB"/>
<path d="M261.753 302.695C252.555 302.695 251.834 302.131 254.178 296.755C255.999 292.576 256.547 292.257 261.959 292.217L267.78 292.174V297.435V302.695H261.753Z" fill="#DBDBDB"/>
</svg>
