<svg width="43" height="43" viewBox="0 0 43 43" fill="none" xmlns="http://www.w3.org/2000/svg">
<circle cx="21.5" cy="21.5" r="21" fill="#CD3030" stroke="#003479"/>
<path d="M14.84 30.28C16.76 30.28 18.34 29.54 19.56 28.12L18 26.26C17.22 27.12 16.22 27.72 14.96 27.72C12.6 27.72 11.1 25.8 11.1 22.56C11.1 19.4 12.78 17.48 15 17.48C16.14 17.48 16.98 17.98 17.74 18.72L19.3 16.82C18.34 15.82 16.84 14.94 14.96 14.94C11.2 14.94 8.08 17.78 8.08 22.66C8.08 27.6 11.1 30.28 14.84 30.28ZM22.945 30H25.905V24.42H28.085C31.185 24.42 33.645 22.98 33.645 19.68C33.645 16.28 31.185 15.2 28.085 15.2H22.945V30ZM25.905 22.08V17.56H27.805C29.725 17.56 30.765 18.1 30.765 19.68C30.765 21.26 29.725 22.08 27.805 22.08H25.905ZM30.985 30H34.285L29.605 21.8L27.545 23.66L30.985 30Z" fill="#FFCDCD"/>
</svg>
