<svg width="43" height="43" viewBox="0 0 43 43" fill="none" xmlns="http://www.w3.org/2000/svg">
<circle cx="21.5" cy="21.5" r="21.5" fill="#003479"/>
<path d="M6.82 30H16.12V27.52H9.78V23.58H14.96V21.08H9.78V17.66H15.9V15.2H6.82V30ZM21.5247 30H25.1447L26.7647 22.68C26.9847 21.54 27.2047 20.38 27.4047 19.26H27.4847C27.6647 20.38 27.8647 21.54 28.1247 22.68L29.7647 30H33.4647L36.2047 15.2H33.4047L32.2047 22.42C32.0047 23.98 31.7647 25.56 31.5647 27.16H31.4647C31.1247 25.56 30.8447 23.96 30.5247 22.42L28.8047 15.2H26.2647L24.5647 22.42C24.2447 23.98 23.9247 25.56 23.6247 27.16H23.5447C23.3047 25.56 23.0847 23.98 22.8447 22.42L21.6847 15.2H18.6647L21.5247 30Z" fill="white"/>
</svg>
