<svg width="43" height="43" viewBox="0 0 43 43" fill="none" xmlns="http://www.w3.org/2000/svg">
<circle cx="21.5" cy="21.5" r="21.5" fill="#003479"/>
<path d="M9.82 30H19.12V27.52H12.78V23.58H17.96V21.08H12.78V17.66H18.9V15.2H9.82V30ZM21.5847 30H24.7247L26.3047 26.72C26.6447 25.96 27.0047 25.2 27.3647 24.28H27.4447C27.8847 25.2 28.2447 25.96 28.6247 26.72L30.2847 30H33.5647L29.3847 22.52L33.2847 15.2H30.1647L28.7647 18.26C28.4447 18.96 28.1447 19.68 27.7847 20.6H27.7047C27.2647 19.68 26.9447 18.96 26.5847 18.26L25.1047 15.2H21.8247L25.7447 22.38L21.5847 30Z" fill="#B82929"/>
</svg>
