<svg width="43" height="43" viewBox="0 0 43 43" fill="none" xmlns="http://www.w3.org/2000/svg">
<circle cx="21.5" cy="21.5" r="21" fill="#006666" stroke="#003479"/>
<path d="M10.82 30H19.8V27.52H13.78V15.2H10.82V30ZM28.5431 30.28C30.4631 30.28 32.0431 29.54 33.2631 28.12L31.7031 26.26C30.9231 27.12 29.9231 27.72 28.6631 27.72C26.3031 27.72 24.8031 25.8 24.8031 22.56C24.8031 19.4 26.4831 17.48 28.7031 17.48C29.8431 17.48 30.6831 17.98 31.4431 18.72L33.0031 16.82C32.0431 15.82 30.5431 14.94 28.6631 14.94C24.9031 14.94 21.7831 17.78 21.7831 22.66C21.7831 27.6 24.8031 30.28 28.5431 30.28Z" fill="white"/>
</svg>
