<svg width="43" height="43" viewBox="0 0 43 43" fill="none" xmlns="http://www.w3.org/2000/svg">
<circle cx="21.5" cy="21.5" r="21" fill="#CD9A00" stroke="#003479"/>
<path d="M11.42 30H14.94L19.48 15.2H16.46L14.54 22.4C14.1 24.06 13.78 25.52 13.3 27.2H13.2C12.74 25.52 12.4 24.06 11.94 22.4L10 15.2H6.88L11.42 30ZM27.5508 30.28C31.1708 30.28 33.2708 28.26 33.2708 23.36V15.2H30.4308V23.62C30.4308 26.68 29.2908 27.72 27.5508 27.72C25.8108 27.72 24.7308 26.68 24.7308 23.62V15.2H21.7908V23.36C21.7908 28.26 23.9308 30.28 27.5508 30.28Z" fill="#FFFFCD"/>
</svg>
