<svg width="380" height="51" viewBox="0 0 380 51" fill="none" xmlns="http://www.w3.org/2000/svg">
<path d="M9.48 16.272C9.48 17.5093 9.90667 18.5333 10.76 19.344C11.6133 20.1547 12.7227 20.8587 14.088 21.456C15.4533 22.0107 16.968 22.5653 18.632 23.12C20.296 23.632 21.9387 24.2293 23.56 24.912C25.1813 25.552 26.6747 26.384 28.04 27.408C29.448 28.3893 30.5573 29.648 31.368 31.184C32.2213 32.72 32.648 34.64 32.648 36.944C32.648 40.1013 31.816 42.704 30.152 44.752C28.5307 46.8 26.3547 48.336 23.624 49.36C20.8933 50.3413 17.864 50.832 14.536 50.832C12.2747 50.832 9.94933 50.5973 7.56 50.128C5.21333 49.7013 2.888 49.04 0.584 48.144L0.904 35.984H6.216L7.56 43.728L6.728 42.192C8.008 42.7893 9.352 43.2587 10.76 43.6C12.2107 43.8987 13.6187 44.048 14.984 44.048C16.5627 44.048 18.0133 43.8347 19.336 43.408C20.6587 42.9813 21.704 42.32 22.472 41.424C23.24 40.528 23.624 39.4187 23.624 38.096C23.624 36.7733 23.2187 35.6853 22.408 34.832C21.5973 33.9787 20.488 33.2747 19.08 32.72C17.7147 32.1227 16.2213 31.5893 14.6 31.12C12.9787 30.608 11.336 30.032 9.672 29.392C8.05067 28.752 6.536 27.9413 5.128 26.96C3.76267 25.9787 2.67467 24.7413 1.864 23.248C1.05333 21.712 0.648 19.792 0.648 17.488C0.648 14.4587 1.37333 11.984 2.824 10.064C4.27467 8.10133 6.23733 6.62933 8.712 5.648C11.1867 4.66667 13.9813 4.176 17.096 4.176C19.3147 4.176 21.6187 4.41066 24.008 4.88C26.3973 5.34933 28.7867 6.05333 31.176 6.992L30.472 18.192H25.032L23.688 11.216L24.712 12.24C23.6453 11.8133 22.4933 11.4933 21.256 11.28C20.0613 11.024 18.8453 10.896 17.608 10.896C16.1573 10.896 14.8133 11.088 13.576 11.472C12.3387 11.8133 11.336 12.3893 10.568 13.2C9.84267 13.968 9.48 14.992 9.48 16.272ZM49.3985 50.768C46.4545 50.768 44.2145 49.8933 42.6785 48.144C41.1852 46.352 40.4385 43.7067 40.4385 40.208V20.624L41.5905 21.776H35.4465V16.976L41.7185 15.504L40.4385 17.04V8.336L49.4625 6.736V17.04L48.5025 15.824H58.2305L58.1025 21.776H48.5025L49.4625 20.624V38.992C49.4625 40.8267 49.7612 42.1493 50.3585 42.96C50.9558 43.7707 51.8518 44.176 53.0465 44.176C53.7292 44.176 54.4758 44.0693 55.2865 43.856C56.1398 43.6 57.0572 43.28 58.0385 42.896L59.7025 47.824C56.1185 49.7867 52.6838 50.768 49.3985 50.768ZM90.5355 45.456L89.3195 43.664L94.8235 45.392V49.936L83.6235 50.512L82.4075 44.368L83.0475 44.56C81.3408 46.6507 79.4848 48.208 77.4795 49.232C75.4742 50.256 73.4048 50.768 71.2715 50.768C68.5408 50.768 66.2795 49.8933 64.4875 48.144C62.6955 46.3947 61.7995 43.8773 61.7995 40.592C61.7995 38.16 62.3115 36.24 63.3355 34.832C64.4022 33.3813 65.9382 32.336 67.9435 31.696C69.9488 31.056 72.3808 30.736 75.2395 30.736H82.2155L81.5755 31.44V27.216C81.5755 25.2107 81.0848 23.7813 80.1035 22.928C79.1648 22.0747 77.7782 21.648 75.9435 21.648C75.0475 21.648 74.0875 21.7333 73.0635 21.904C72.0395 22.0747 70.9302 22.3307 69.7355 22.672L70.6315 21.712L69.7995 26.896H64.2315L63.7195 17.552C66.6208 16.6987 69.2662 16.08 71.6555 15.696C74.0875 15.2693 76.3062 15.056 78.3115 15.056C82.2795 15.056 85.3088 15.9093 87.3995 17.616C89.4902 19.3227 90.5355 21.968 90.5355 25.552V45.456ZM70.8235 39.696C70.8235 41.2747 71.1862 42.448 71.9115 43.216C72.6795 43.9413 73.6395 44.304 74.7915 44.304C75.8582 44.304 77.0315 43.984 78.3115 43.344C79.5915 42.6613 80.8075 41.744 81.9595 40.592L81.5755 42.128V34.832L82.2155 35.472H76.7115C74.4928 35.472 72.9568 35.8133 72.1035 36.496C71.2502 37.1787 70.8235 38.2453 70.8235 39.696ZM109.899 50.768C106.955 50.768 104.715 49.8933 103.179 48.144C101.685 46.352 100.939 43.7067 100.939 40.208V20.624L102.091 21.776H95.9465V16.976L102.219 15.504L100.939 17.04V8.336L109.963 6.736V17.04L109.003 15.824H118.731L118.603 21.776H109.003L109.963 20.624V38.992C109.963 40.8267 110.261 42.1493 110.859 42.96C111.456 43.7707 112.352 44.176 113.547 44.176C114.229 44.176 114.976 44.0693 115.787 43.856C116.64 43.6 117.557 43.28 118.539 42.896L120.203 47.824C116.619 49.7867 113.184 50.768 109.899 50.768ZM137.35 50.768C134.235 50.768 131.505 50.128 129.158 48.848C126.811 47.5253 124.977 45.584 123.654 43.024C122.374 40.4213 121.734 37.264 121.734 33.552C121.734 29.712 122.417 26.4267 123.782 23.696C125.19 20.9227 127.153 18.7893 129.67 17.296C132.187 15.8027 135.153 15.056 138.566 15.056C141.894 15.056 144.603 15.7173 146.694 17.04C148.785 18.3627 150.321 20.176 151.302 22.48C152.283 24.7413 152.774 27.3013 152.774 30.16C152.774 30.8853 152.731 31.6107 152.646 32.336C152.603 33.0613 152.518 33.8293 152.39 34.64H128.966V29.328H144.71L143.558 30.16C143.601 28.4533 143.43 26.96 143.046 25.68C142.705 24.3573 142.107 23.3333 141.254 22.608C140.443 21.8827 139.313 21.52 137.862 21.52C136.198 21.52 134.854 22.0107 133.83 22.992C132.806 23.9307 132.059 25.2107 131.59 26.832C131.163 28.4533 130.95 30.2667 130.95 32.272C130.95 34.5333 131.227 36.56 131.782 38.352C132.337 40.144 133.233 41.552 134.47 42.576C135.75 43.6 137.414 44.112 139.462 44.112C140.913 44.112 142.47 43.856 144.134 43.344C145.841 42.7893 147.611 41.9787 149.446 40.912L152.454 45.712C149.979 47.4187 147.441 48.6987 144.838 49.552C142.278 50.3627 139.782 50.768 137.35 50.768ZM197.223 45.456L196.007 43.664L201.511 45.392V49.936L190.311 50.512L189.095 44.368L189.735 44.56C188.028 46.6507 186.172 48.208 184.167 49.232C182.162 50.256 180.092 50.768 177.959 50.768C175.228 50.768 172.967 49.8933 171.175 48.144C169.383 46.3947 168.487 43.8773 168.487 40.592C168.487 38.16 168.999 36.24 170.023 34.832C171.09 33.3813 172.626 32.336 174.631 31.696C176.636 31.056 179.068 30.736 181.927 30.736H188.903L188.263 31.44V27.216C188.263 25.2107 187.772 23.7813 186.791 22.928C185.852 22.0747 184.466 21.648 182.631 21.648C181.735 21.648 180.775 21.7333 179.751 21.904C178.727 22.0747 177.618 22.3307 176.423 22.672L177.319 21.712L176.487 26.896H170.919L170.407 17.552C173.308 16.6987 175.954 16.08 178.343 15.696C180.775 15.2693 182.994 15.056 184.999 15.056C188.967 15.056 191.996 15.9093 194.087 17.616C196.178 19.3227 197.223 21.968 197.223 25.552V45.456ZM177.511 39.696C177.511 41.2747 177.874 42.448 178.599 43.216C179.367 43.9413 180.327 44.304 181.479 44.304C182.546 44.304 183.719 43.984 184.999 43.344C186.279 42.6613 187.495 41.744 188.647 40.592L188.263 42.128V34.832L188.903 35.472H183.399C181.18 35.472 179.644 35.8133 178.791 36.496C177.938 37.1787 177.511 38.2453 177.511 39.696ZM204.106 50V45.392L209.482 43.856L208.394 45.136V20.752L209.482 22.224L204.106 20.624V16.016L215.37 15.504L216.522 21.648L215.37 21.2C217.418 19.1093 219.594 17.5733 221.898 16.592C224.202 15.568 226.399 15.056 228.49 15.056C231.391 15.056 233.802 15.9733 235.722 17.808C237.642 19.6 238.581 22.3307 238.538 26V45.136L237.706 43.856L242.826 45.392V50H225.738V45.392L230.602 43.984L229.578 45.328V27.92C229.578 25.8293 229.109 24.2933 228.17 23.312C227.274 22.3307 226.079 21.84 224.586 21.84C223.434 21.84 222.175 22.16 220.81 22.8C219.445 23.44 218.101 24.4 216.778 25.68L217.354 24.336V45.328L216.522 43.984L221.194 45.392V50H204.106ZM258.542 44.752L257.902 43.984L262.83 45.392V50H245.294V45.392L250.222 43.984L249.582 44.752V21.392L250.158 21.968L245.294 20.624V16.016L258.542 15.568V44.752ZM253.806 10.576C252.227 10.576 250.947 10.128 249.966 9.232C249.027 8.336 248.558 7.056 248.558 5.392C248.558 3.6 249.048 2.27733 250.03 1.424C251.054 0.527997 252.334 0.079998 253.87 0.079998C255.363 0.079998 256.6 0.527997 257.582 1.424C258.563 2.27733 259.054 3.57867 259.054 5.328C259.054 7.07733 258.542 8.4 257.518 9.296C256.536 10.1493 255.299 10.576 253.806 10.576ZM298.629 21.008L297.349 21.328C299.397 19.2373 301.573 17.68 303.877 16.656C306.181 15.5893 308.378 15.056 310.469 15.056C313.157 15.056 315.397 15.952 317.189 17.744C319.023 19.4933 319.941 22.2027 319.941 25.872V45.136L319.109 43.856L324.229 45.392V50H307.397V45.392L312.069 43.984L310.981 45.328V27.856C310.981 25.808 310.554 24.2933 309.701 23.312C308.89 22.3307 307.823 21.84 306.501 21.84C305.391 21.84 304.154 22.1813 302.789 22.864C301.423 23.5467 300.058 24.5493 298.693 25.872L299.333 23.888C299.418 24.2293 299.461 24.5493 299.461 24.848C299.461 25.104 299.461 25.3387 299.461 25.552V45.136L298.629 43.856L303.109 45.392V50H286.853V45.392L291.525 43.984L290.501 45.328V27.856C290.501 25.808 290.074 24.2933 289.221 23.312C288.367 22.3307 287.301 21.84 286.021 21.84C284.911 21.84 283.674 22.16 282.309 22.8C280.943 23.44 279.621 24.4 278.341 25.68L278.917 24.336V45.328L278.085 43.984L282.565 45.392V50H265.669V45.392L271.045 43.856L269.957 45.136V20.752L271.045 22.224L265.669 20.624V16.016L276.933 15.504L278.085 21.648L276.933 21.2C278.938 19.1947 281.071 17.68 283.333 16.656C285.637 15.5893 287.834 15.056 289.925 15.056C291.887 15.056 293.637 15.5467 295.173 16.528C296.709 17.4667 297.861 18.96 298.629 21.008ZM355.723 45.456L354.507 43.664L360.011 45.392V49.936L348.811 50.512L347.595 44.368L348.235 44.56C346.528 46.6507 344.672 48.208 342.667 49.232C340.662 50.256 338.592 50.768 336.459 50.768C333.728 50.768 331.467 49.8933 329.675 48.144C327.883 46.3947 326.987 43.8773 326.987 40.592C326.987 38.16 327.499 36.24 328.523 34.832C329.59 33.3813 331.126 32.336 333.131 31.696C335.136 31.056 337.568 30.736 340.427 30.736H347.403L346.763 31.44V27.216C346.763 25.2107 346.272 23.7813 345.291 22.928C344.352 22.0747 342.966 21.648 341.131 21.648C340.235 21.648 339.275 21.7333 338.251 21.904C337.227 22.0747 336.118 22.3307 334.923 22.672L335.819 21.712L334.987 26.896H329.419L328.907 17.552C331.808 16.6987 334.454 16.08 336.843 15.696C339.275 15.2693 341.494 15.056 343.499 15.056C347.467 15.056 350.496 15.9093 352.587 17.616C354.678 19.3227 355.723 21.968 355.723 25.552V45.456ZM336.011 39.696C336.011 41.2747 336.374 42.448 337.099 43.216C337.867 43.9413 338.827 44.304 339.979 44.304C341.046 44.304 342.219 43.984 343.499 43.344C344.779 42.6613 345.995 41.744 347.147 40.592L346.763 42.128V34.832L347.403 35.472H341.899C339.68 35.472 338.144 35.8133 337.291 36.496C336.438 37.1787 336.011 38.2453 336.011 39.696ZM374.958 44.752L374.318 43.984L379.246 45.392V50H361.774V45.392L366.702 43.984L365.998 44.752V6.032L366.574 6.672L361.774 5.328V0.719997L374.958 0.207996V44.752Z" fill="url(#paint0_linear_187_2621)"/>
<defs>
<linearGradient id="paint0_linear_187_2621" x1="308.296" y1="67" x2="-35.256" y2="67" gradientUnits="userSpaceOnUse">
<stop stop-color="#003479"/>
<stop offset="1" stop-color="#CDD9E7"/>
</linearGradient>
</defs>
</svg>
