<svg width="38" height="89" viewBox="0 0 38 89" fill="none" xmlns="http://www.w3.org/2000/svg">
<path d="M2.15554 68.5588C-2.72988 55.6694 6.49118 36.5378 11.7124 28.5832C13.552 26.5016 18.3072 23.2079 22.6118 26.6863C27.9924 31.0344 29.9725 38.6165 36.4281 58.6308C41.5927 74.6423 22.2009 88.8503 22.2009 88.8503C22.2009 88.8503 7.04097 81.4481 2.15554 68.5588Z" fill="black"/>
<path d="M2.33254 33.5181C-1.84671 31.6031 1.37872 13.2067 3.51384 4.24791C4.79582 1.49266 7.35996 -2.49858 7.3607 3.57842C7.36161 11.1747 11.9346 22.2689 12.0462 22.91C12.1577 23.5512 7.55661 35.9117 2.33254 33.5181Z" fill="black"/>
</svg>
