<svg width="33" height="62" viewBox="0 0 33 62" fill="none" xmlns="http://www.w3.org/2000/svg">
<path d="M3.48618 53.1425C-1.18761 40.1749 -1.12221 38.4957 4.2285 30.6276C6.1019 28.5764 9.13121 22.005 13.0641 23.9745C18.0695 26.481 20.3875 24.4639 29.2934 39.2096C37.9912 53.6106 25.9978 60.1497 25.9978 60.1497C25.9978 60.1497 8.15997 66.1101 3.48618 53.1425Z" fill="black"/>
<path d="M3.92939 22.4397C-0.217961 20.4566 1.30155 5.7248 5.24582 1.48147C6.57273 -1.25242 9.31695 -0.278749 9.21821 5.79746C9.09479 13.3927 10.9387 16.7408 11.3417 19.3043C11.7447 21.8678 8.58115 22.6965 3.92939 22.4397Z" fill="black"/>
</svg>
