<svg width="32" height="69" viewBox="0 0 32 69" fill="none" xmlns="http://www.w3.org/2000/svg">
<path d="M3.83034 61.2955C-0.843448 48.3279 -0.81036 44.3481 4.54035 36.48C6.41376 34.4288 7.8645 29.3763 12.2095 28.6932C17.674 27.8341 22.0731 26.4836 27.2443 34.2346C36.5812 48.2296 28.2384 65.6992 28.2384 65.6992C28.2384 65.6992 8.50413 74.2631 3.83034 61.2955Z" fill="black"/>
<path d="M13.9027 24.7972C9.75539 22.8141 14.4893 7.57693 18.4336 3.3336C21.4468 1.54858 25.4588 -4.35858 23.0488 7.54852C21.3374 13.4238 20.912 19.0983 21.315 21.6618C21.7181 24.2253 18.5545 25.054 13.9027 24.7972Z" fill="black"/>
</svg>
