<svg width="1217" height="442" viewBox="0 0 1217 442" fill="none" xmlns="http://www.w3.org/2000/svg">
<path d="M58.733 247.542C60.6962 247.542 62.5783 246.767 62.9178 245.819C63.7597 243.465 72.5179 244.631 74.3658 247.343C75.4969 249.003 76.3596 249.124 78.7443 247.959C82.9757 245.891 85.6926 248.016 86.5994 254.103C87.1557 257.832 88.7402 260.585 92.4263 264.23C95.2105 266.984 98.486 269.532 99.7053 269.894C102.971 270.863 101.687 273.174 97.8549 273.225C93.4703 273.286 92.5108 274.538 94.1075 278.114C97.0094 284.61 96.9592 285.671 93.7473 285.671C91.6788 285.671 90.245 286.734 89.2953 288.97C87.902 292.25 87.831 292.264 76.1489 291.421C69.6872 290.955 63.7535 290.027 62.9619 289.359C62.1703 288.69 56.6461 287.804 50.6868 287.39C41.5843 286.757 39.5856 286.979 38.1898 288.783C35.9363 291.698 34.3787 291.484 34.3787 288.26C34.3787 286.79 33.4633 285.211 32.3445 284.751C30.608 284.036 30.7013 283.757 32.9843 282.851C37.0932 281.221 37.5612 277.901 34.4878 272.174C31.8629 267.28 31.8446 267.059 34.1141 267.831C35.429 268.279 38.0955 267.973 40.0378 267.15C41.9802 266.328 44.6724 265.573 46.0204 265.473C47.8352 265.339 48.5692 264.203 48.8498 261.095C49.139 257.89 50.0924 256.491 52.8828 255.179C55.7968 253.807 56.3973 252.861 55.8508 250.501C55.2564 247.942 55.6462 247.542 58.733 247.542Z" fill="#037FB2"/>
<path d="M1.49053 360.976C0.0837324 358.816 0.148617 358.21 1.94633 356.745C3.10069 355.805 5.00262 355.017 6.17536 354.994C8.74509 354.943 13.2351 358.839 13.2351 361.118C13.2351 362.02 14.4764 363.515 15.9923 364.442C17.5081 365.369 18.7495 366.927 18.7495 367.904C18.7495 368.882 20.9553 370.953 23.6512 372.506C27.8471 374.925 28.4953 375.872 28.1534 379.084C27.89 381.548 28.6498 383.86 30.3642 385.818C32.5969 388.369 32.6986 388.914 31.07 389.585C30.0222 390.016 29.1657 391.497 29.1657 392.876C29.1657 395.321 28.4328 395.655 18.3181 397.822C14.5425 398.632 11.8614 396.146 12.6898 392.602C13.2008 390.413 12.4361 389.269 9.22428 387.415C5.70361 385.381 5.18029 384.472 5.6337 381.157C5.92535 379.024 5.4401 376.344 4.55411 375.198C3.66935 374.055 2.98671 370.954 3.03818 368.308C3.08965 365.662 2.39367 362.363 1.49053 360.976Z" fill="#B8C9EA"/>
<path d="M413.378 3.72088C410.112 3.72088 410.426 1.39896 413.786 0.704749C419.287 -0.432544 424.647 -0.190639 429.43 1.41077C432.115 2.31009 434.312 3.41455 434.312 3.86421C434.312 5.18294 416.584 6.1914 416.135 4.89764C415.91 4.25077 414.669 3.72088 413.378 3.72088Z" fill="#A5CDC9"/>
<path d="M219.529 3.20023C219.122 3.63674 218.065 3.68405 217.181 3.30407C216.203 2.88466 216.494 2.57305 217.921 2.50994C219.213 2.4534 219.936 2.76372 219.529 3.20023Z" fill="#A5CDC9"/>
<path d="M447.485 14.9124C436.716 14.1156 426.959 11.2007 426.959 8.78022C426.959 8.16753 430.819 7.66525 435.537 7.66525C442.599 7.66525 444.115 8.03864 444.115 9.77811C444.115 11.2888 444.727 11.6109 446.26 10.9075C452.865 7.87693 458.821 9.26797 458.821 13.8421C458.821 15.4343 456.938 15.6119 447.485 14.9124Z" fill="#A5CDC9"/>
<path d="M474.674 19.0961C476.145 19.5089 477.083 18.812 477.532 16.9753C478.295 13.8395 480.878 13.2505 480.878 16.2114C480.878 18.4347 484.645 18.8751 486.514 16.8701C487.873 15.412 500.485 18.0652 500.485 19.81C500.485 20.3608 497.314 20.8184 493.439 20.8249C489.564 20.8302 483.583 21.1984 480.147 21.6415C475.223 22.2765 473.752 22.0267 473.192 20.4634C472.686 19.0461 473.108 18.6569 474.674 19.0961Z" fill="#A5CDC9"/>
<path d="M495.784 34.4909C493.125 32.4911 493.097 32.3031 495.206 30.5873C496.597 29.4566 500.388 28.8268 505.387 28.8965C509.768 28.957 512.388 29.2778 511.208 29.6078C510.028 29.9391 509.063 31.054 509.063 32.0848C509.063 33.5613 511.261 33.961 519.364 33.961C529.312 33.961 529.642 34.0583 528.975 36.7957C528.323 39.4713 528.554 39.5686 533.072 38.5049C539.905 36.8983 561.496 37.1376 567.177 38.8836C569.821 39.6962 572.467 41.2857 573.058 42.4178C573.647 43.5485 576.585 45.1367 579.585 45.948C582.586 46.7579 585.04 47.8031 585.04 48.2699C585.04 49.256 576.905 53.1833 572.281 54.4284C570.537 54.8977 569.11 55.8523 569.11 56.5491C569.11 58.2333 565.937 61.5716 564.336 61.5716C561.319 61.5716 554.88 65.9604 553.589 68.895C552.326 71.7678 552.456 72.0899 554.887 72.0899C556.374 72.0899 558.115 71.5587 558.755 70.9092C559.394 70.261 562.125 69.4393 564.821 69.083C572.789 68.0325 584.328 64.5193 584.8 63.0007C585.109 62.0081 585.982 62.0199 587.767 63.0442C589.158 63.8435 592.4 64.1933 594.972 63.8238C598.128 63.3689 600.113 63.7489 601.073 64.99C602.701 67.095 608.323 67.4987 608.323 65.512C608.323 64.6969 613.366 64.2761 621.497 64.4129C631.484 64.5798 634.991 65.0992 635.999 66.5638C637.767 69.1356 646.747 70.6016 661.323 70.6962C672.307 70.7685 673.271 70.5713 673.271 68.2547C673.271 66.8689 672.583 65.3844 671.74 64.9558C670.898 64.5272 672.965 64.5903 676.335 65.0952C679.705 65.6014 686.598 66.1115 691.653 66.2325C696.708 66.3521 702.222 67.07 703.907 67.8286C707.867 69.6115 712.485 74.3276 712.485 76.5904C712.485 77.5633 715.657 79.6775 719.531 81.2908C723.406 82.9027 728.232 84.984 730.254 85.9136C736.654 88.86 745.57 91.8117 748.066 91.8117C749.925 91.8117 750.474 90.9124 750.474 87.8674C750.474 85.698 749.922 83.923 749.248 83.923C748.574 83.923 748.023 83.3616 748.023 82.6753C748.023 81.989 749.814 82.2098 752.005 83.1657C756.737 85.2299 767.63 86.6604 767.63 85.2168C767.63 82.9106 771.552 82.9395 780.059 85.3101C790.761 88.292 793.852 88.4985 793.022 86.1765C792.582 84.9472 793.55 84.6277 796.567 85.0051C801.556 85.6309 802.372 82.5254 797.805 80.2915C795.603 79.216 795.032 78.0919 795.461 75.6832C795.989 72.7197 796.468 72.533 802.355 73.001C814.041 73.9319 819.098 74.872 819.098 76.1144C819.098 76.7942 820.896 77.3491 823.092 77.3491C825.759 77.3491 827.595 78.2234 828.617 79.9786C829.55 81.5814 831.46 82.6003 833.507 82.5885C837.454 82.5648 839.208 81.4749 840.268 78.3904C840.908 76.526 842.143 76.2643 847.532 76.8573C855.932 77.7816 857.176 78.2392 856.791 80.2705C856.594 81.3184 858.085 82.1151 860.758 82.3873C863.114 82.6266 865.712 83.4207 866.533 84.1504C867.353 84.8801 871.491 85.8137 875.729 86.2239C879.966 86.6341 883.985 87.6938 884.659 88.5773C886.819 91.4107 895.667 91.8946 905.484 89.716C913.367 87.9673 916.617 87.8726 925.51 89.1375C940.804 91.3121 948.064 93.3973 948.645 95.7811C948.92 96.9118 951.322 98.8472 953.983 100.084C957.865 101.888 963.893 102.454 984.497 102.943C1000.19 103.316 1010.46 103.065 1010.9 102.295C1011.32 101.565 1013.79 102.233 1016.77 103.884C1019.59 105.451 1024.25 107.222 1027.12 107.819C1046.13 111.781 1045.2 111.774 1044.06 107.926C1043.32 105.411 1036.22 101.015 1032.89 101.015C1031.91 101.015 1031.1 100.367 1031.1 99.573C1031.1 98.6118 1033.24 98.3909 1037.53 98.9103C1041.07 99.3376 1051.13 100.258 1059.9 100.953C1078.26 102.412 1087.78 103.857 1097.27 106.625C1100.98 107.708 1106.22 108.997 1108.91 109.492C1111.61 109.986 1117.4 111.58 1121.78 113.032C1126.16 114.485 1135.54 117.048 1142.61 118.726C1157.57 122.271 1161.22 123.691 1172.02 130.167C1180.17 135.05 1187.95 137.669 1187.95 135.526C1187.95 134.868 1186.51 133.498 1184.74 132.483L1181.52 130.637L1185.66 129.697C1188.71 129.003 1193 129.83 1202.05 132.858C1213.41 136.66 1221.26 140.523 1213.38 138.437C1211.32 137.892 1210.01 138.079 1210.01 138.919C1210.01 139.755 1208.33 140.001 1205.72 139.546C1200.4 138.621 1199.97 140.97 1205.11 142.891C1207.13 143.647 1208.79 144.888 1208.79 145.65C1208.79 146.411 1209.56 147.033 1210.51 147.033C1211.57 147.033 1212.01 147.949 1211.65 149.423C1211.09 151.731 1210.75 151.728 1201.91 149.381C1196.88 148.044 1189.64 145.421 1185.84 143.553C1179.97 140.674 1177.88 140.285 1172.13 141.011C1164.94 141.917 1158.4 139.599 1155.19 135.003C1154.28 133.696 1151.94 132.833 1149.3 132.833C1145.52 132.833 1144.98 133.22 1145.3 135.66C1145.53 137.376 1147.24 139.226 1149.66 140.367C1151.85 141.402 1153.64 142.979 1153.64 143.873C1153.64 144.767 1154.29 145.731 1155.08 146.015C1155.88 146.298 1156.12 147.235 1155.62 148.097C1154.39 150.238 1146.36 149.987 1142.61 147.69C1138.86 145.389 1132.05 145.154 1130.83 147.284C1130.33 148.145 1130.58 149.085 1131.39 149.373C1132.19 149.661 1133.63 150.733 1134.58 151.754C1135.89 153.152 1137.11 153.287 1139.52 152.303C1142.12 151.245 1143.4 151.524 1146.21 153.757C1148.13 155.277 1151.32 156.656 1153.29 156.823C1158.19 157.236 1164.67 160.456 1164.67 162.474C1164.67 163.382 1165.78 164.125 1167.14 164.125C1169.38 164.125 1171.69 165.103 1176.92 168.277C1177.94 168.89 1180 169.967 1181.52 170.67C1183.04 171.374 1184.28 172.115 1184.28 172.319C1184.28 173.422 1172.07 171.558 1168.77 169.952C1163.94 167.596 1163.44 167.604 1163.44 170.042C1163.44 171.126 1164 172.014 1164.67 172.014C1168.06 172.014 1165.09 174.591 1158.46 177.403C1152.34 180 1150.89 181.202 1150.34 184.176C1149.96 186.164 1149.14 187.791 1148.51 187.791C1147.88 187.791 1147.68 188.336 1148.07 189C1148.45 189.665 1147.88 191.16 1146.79 192.321C1145.71 193.483 1145.12 195.265 1145.49 196.282C1145.95 197.571 1144.83 197.3 1141.82 195.389C1139.05 193.641 1135.42 192.663 1131.78 192.688C1120.81 192.765 1119.34 193.19 1118.57 196.499L1117.84 199.619L1115.43 196.335C1112.52 192.364 1111.48 192.268 1108.3 195.68C1106.67 197.433 1104.22 198.31 1100.95 198.31C1095.4 198.31 1094.71 200.054 1098.31 205.035C1099.55 206.76 1100.91 210.442 1101.31 213.218C1101.72 215.995 1102.77 219.192 1103.65 220.324C1105.91 223.25 1113.62 226.545 1114.16 224.816C1114.82 222.686 1118.1 224.607 1118.1 227.123C1118.1 228.354 1120.2 231.052 1122.76 233.12C1126.62 236.232 1127.33 237.525 1126.91 240.606C1126.25 245.468 1129.17 250.094 1135.26 253.824C1140.4 256.977 1141.87 259.549 1137.71 258.133C1131.13 255.891 1127.42 262.148 1131.66 268.35C1134.4 272.373 1133.92 274.567 1130.29 274.567C1126.98 274.567 1127.31 276.253 1131.47 280.656C1133.43 282.731 1135.19 285.612 1135.38 287.058C1135.85 290.605 1134.18 295.604 1132.53 295.604C1131.79 295.604 1127.88 292.054 1123.84 287.715C1119.79 283.376 1116.02 279.827 1115.46 279.827C1113.81 279.827 1084.17 249.656 1079.49 243.207C1076.11 238.551 1075.21 236.131 1075.21 231.621C1075.21 227.959 1074.67 225.906 1073.68 225.878C1072.78 225.854 1073.09 225.073 1074.41 223.997C1075.66 222.984 1077.51 222.502 1078.54 222.923C1079.98 223.516 1080.21 223.051 1079.56 220.86C1079.1 219.304 1079.25 218.031 1079.89 218.031C1080.53 218.031 1081.12 214.038 1081.19 209.157C1081.4 194.364 1081.34 194.623 1085.15 193.198C1087.1 192.468 1088.69 191.34 1088.69 190.69C1088.69 190.04 1086.22 186.607 1083.21 183.061C1077.54 176.408 1076.31 173.773 1079.5 175.16C1080.51 175.599 1082.17 176.317 1083.18 176.756C1084.47 177.315 1085.02 176.725 1085.02 174.784C1085.02 172.592 1084.26 172.014 1081.4 172.014C1079.41 172.014 1076.5 171.387 1074.93 170.62C1071.69 169.036 1065.41 170.917 1065.41 173.475C1065.41 174.313 1066.78 176.362 1068.45 178.026C1071.38 180.933 1071.4 181.086 1069.07 181.881C1067.73 182.336 1066.64 183.739 1066.64 184.999C1066.64 186.258 1065.9 188.373 1064.99 189.697C1063.51 191.872 1063.28 191.896 1062.58 189.948C1062.16 188.762 1060.73 187.791 1059.4 187.791C1058 187.791 1056.64 186.584 1056.14 184.895C1054.55 179.515 1052.86 178.855 1041.14 179.041C1028.75 179.239 1028.38 179.488 1028.05 188.029C1027.95 190.69 1027.23 193.68 1026.47 194.672C1024.95 196.627 1025.82 202.367 1027.85 203.798C1030 205.317 1026.18 208.828 1022.37 208.828C1020.43 208.828 1018.84 208.365 1018.84 207.8C1018.84 206.521 1008.78 203.265 1003.66 202.886C1001.56 202.731 997.699 202.138 995.07 201.568C991.138 200.714 990.001 200.959 988.646 202.944C987.158 205.129 985.173 205.331 967.543 205.089C947.484 204.811 942.071 205.768 940.907 209.794C940.538 211.071 939.726 213.142 939.101 214.397C938.476 215.653 937.965 218.189 937.965 220.033C937.965 221.875 937.063 224.859 935.961 226.663C934.86 228.467 933.492 232.623 932.922 235.897C932.272 239.633 930.229 244.02 927.436 247.676C924.785 251.146 923.277 254.313 923.705 255.508C924.658 258.173 929.654 260.105 935.594 260.105C938.245 260.105 940.418 260.549 940.422 261.091C940.426 261.633 941.701 263.784 943.256 265.87C945.668 269.103 946.461 269.448 948.624 268.206C950.745 266.988 951.135 267.12 950.996 269.015C950.762 272.238 962.242 272.802 963.378 269.624C963.797 268.452 963.49 267.261 962.694 266.977C961.899 266.692 961.248 265.917 961.248 265.255C961.248 263.53 969.515 263.76 970.525 265.512C970.988 266.318 973.844 268.153 976.871 269.588C979.898 271.025 982.648 273.325 982.982 274.699C983.318 276.073 984.333 277.197 985.24 277.197C986.147 277.197 989.224 279.711 992.08 282.785C995.791 286.779 997.19 289.31 996.984 291.66C996.65 295.494 999.941 302.859 1004.7 308.931C1006.55 311.282 1009.42 316.492 1011.08 320.51C1013.56 326.494 1013.85 328.275 1012.66 330.35C1011.81 331.823 1011.2 337.882 1011.21 344.813C1011.22 354.192 1010.59 358.531 1008.29 365.116C1006.68 369.721 1005.36 375.379 1005.36 377.689C1005.36 381.89 1001.67 386.87 996.266 389.944C993.483 391.53 987.173 389.693 984.885 386.633C983.877 385.283 982.115 384.869 979.371 385.34C975.528 385.998 975.098 385.628 970.111 377.373C965.845 370.314 965.171 368.405 966.457 367.025C967.657 365.737 969.134 365.657 972.623 366.692C975.147 367.439 977.718 367.715 978.338 367.305C979.761 366.361 978.859 352.983 976.961 346.887C976.172 344.352 975.63 340.498 975.758 338.32C976.059 333.203 969.623 325.093 966.418 326.554C965.26 327.081 962.513 328.219 960.314 329.079C958.116 329.94 955.617 331.67 954.763 332.924C952.396 336.398 941.636 334.229 939.611 329.869C938.804 328.133 937.277 326.193 936.216 325.556C935.156 324.92 934.289 323.541 934.289 322.491C934.289 321.258 933.017 320.585 930.685 320.585C928.702 320.585 926.719 319.957 926.277 319.189C924.849 316.712 919.588 314.809 909.162 313C902.04 311.764 899.977 310.644 899.977 308.017C899.977 306.974 899.51 306.122 898.939 306.122C898.369 306.122 896.015 304.2 893.708 301.849C874.082 281.845 859.811 270.899 855.61 272.628C854.666 273.017 851.872 272.43 849.402 271.321C840.549 267.353 822.933 269.477 818.818 275.008C815.814 279.048 816.143 280.963 820.017 281.955C825.894 283.461 826.306 284.451 825.547 295.216C824.933 303.935 825.131 305.427 827.106 306.977C829.305 308.701 829.305 308.752 827.088 308.752C825.833 308.752 823.812 309.716 822.6 310.894C820.696 312.742 819.676 312.813 815.151 311.418C812.266 310.53 806.874 309.353 803.167 308.806C799.46 308.257 794.681 307.093 792.546 306.218C789.306 304.889 788.02 304.985 784.745 306.802C782.59 307.999 780.549 310.11 780.211 311.495C779.787 313.234 778.515 314.011 776.09 314.011C774.16 314.011 770.28 314.998 767.469 316.205C763.113 318.076 761.335 318.172 755.423 316.863C751.608 316.017 747.361 315.326 745.984 315.326C744.606 315.326 741.991 313.847 740.174 312.039C738.355 310.231 735.863 308.752 734.636 308.752C733.408 308.752 729.808 307.52 726.636 306.015C720.795 303.242 712.278 303.068 701.711 305.506C697.757 306.418 686.751 303.138 686.751 301.047C686.751 300.545 685.127 298.227 683.143 295.897C680.762 293.099 678.397 291.66 676.184 291.66C674.341 291.66 671.139 291.114 669.069 290.447C658.746 287.122 651.434 285.086 649.82 285.086C647.922 285.086 645.086 291.962 645.086 296.566C645.086 298.078 646.796 300.858 648.885 302.743C655.075 308.332 653.082 310.175 641.759 309.326C627.459 308.255 624.797 307.63 622.394 304.781C620.942 303.06 618.627 302.178 615.558 302.178C613.007 302.178 610.617 301.655 610.249 301.014C608.52 298.013 599.243 298.773 596.069 302.178C595.732 302.54 592.776 304.341 589.5 306.181C586.224 308.022 583.652 310.026 583.784 310.636C584.159 312.369 581.087 313.969 577.343 313.991C575.457 314.002 573.619 314.892 573.229 315.983C572.157 318.98 568.135 318.345 564.678 314.636C561.959 311.718 560.889 311.413 555.849 312.126C550.753 312.845 549.786 312.557 547.145 309.529C545.51 307.655 543.372 306.122 542.391 306.122C541.411 306.122 538.414 303.994 535.73 301.393C531.579 297.37 530.276 296.791 527.002 297.522C516.311 299.913 513.833 299.872 511.126 297.261C506.827 293.115 504.441 292.76 502.354 295.956C500.5 298.796 500.354 298.698 489.759 287.509C479.371 276.538 468.655 267.7 463.69 266.011C462.155 265.487 461.271 264.018 461.271 261.989C461.271 260.23 460.601 258.79 459.78 258.79C457.341 258.79 447.792 263.009 447.792 264.087C447.792 265.255 444.995 266.596 439.723 267.958C436.252 268.853 435.988 268.688 436.481 265.917C436.939 263.347 436.503 262.899 433.52 262.882C428.992 262.854 426.99 262.329 423.458 260.248C421.369 259.017 420.199 258.944 419.23 259.982C417.193 262.169 414.709 261.698 414.671 259.119C414.62 255.728 408.213 249.572 404.796 249.632C403.169 249.661 399.081 249.316 395.711 248.863C390.585 248.177 389.155 248.478 386.959 250.705C385.437 252.25 381.06 254.02 376.543 254.918C372.257 255.77 366.821 257.267 364.462 258.246C358.796 260.595 348.035 262.992 341.179 263.432C338.146 263.627 334.976 263.845 334.133 263.918C332.029 264.098 332.203 269.068 334.394 271.42C335.804 272.933 335.896 274.026 334.826 276.546C333.824 278.908 333.831 280.221 334.857 281.546C335.946 282.954 335.587 283.724 333.199 285.095C331.521 286.057 330.15 287.563 330.15 288.441C330.15 290.07 330.769 290.4 339.341 293.34C342.863 294.547 344.353 295.843 344.635 297.942C344.964 300.407 344.45 300.863 341.337 300.863C339.308 300.863 337.307 300.272 336.89 299.548C335.739 297.551 333.826 297.977 333.826 300.231C333.826 302.848 328.109 301.51 324.557 298.061C321.815 295.399 314.219 294.677 314.219 297.079C314.219 298.105 313.663 298.06 312.397 296.933C310.011 294.809 304.418 296.33 302.218 299.702C300.531 302.284 300.498 302.284 296.272 299.609C293.934 298.13 290.855 296.919 289.431 296.919C288.006 296.919 285.874 295.981 284.694 294.835C283.514 293.69 280.162 292.417 277.246 292.008C274.328 291.6 271.554 290.622 271.078 289.837C270.459 288.814 269.157 288.837 266.488 289.918C264.439 290.748 262.491 290.959 262.162 290.386C261.832 289.812 260.223 289.069 258.586 288.734C256.359 288.277 255.211 288.921 254.029 291.293C253.156 293.042 250.911 294.791 249.021 295.198C247.137 295.601 245.595 296.652 245.595 297.529C245.595 298.407 244.239 299.79 242.579 300.6C239.739 301.989 239.665 302.284 241.307 305.682C243.653 310.531 242.878 310.895 238.812 306.852C234.895 302.956 231.111 302.495 230.128 305.794C229.75 307.06 228.85 309.421 228.127 311.041C227.19 313.138 227.189 314.882 228.123 317.08C228.917 318.948 229.004 320.902 228.344 322.021C226.424 325.273 227.127 328.01 230.277 329.549C232.075 330.427 233.341 332.146 233.341 333.705C233.341 335.872 234.142 336.363 237.691 336.363C241.004 336.363 243.093 337.459 246.457 340.964C248.885 343.495 250.237 345.566 249.459 345.566C247.089 345.566 247.814 350.821 250.191 350.867C251.927 350.9 251.714 351.496 249.071 353.992C246.783 356.155 244.84 356.88 242.576 356.416C239.604 355.806 239.409 356.032 240.153 359.215C240.677 361.454 240.267 363.819 238.99 365.908C236.184 370.505 236.544 373.775 240.081 375.806C241.969 376.89 243.144 378.712 243.144 380.552C243.144 382.196 243.696 383.905 244.37 384.352C245.044 384.799 245.595 386.56 245.595 388.265C245.595 389.969 246.009 391.561 246.515 391.803C247.022 392.044 249.502 394.86 252.027 398.063L256.619 403.883L254.119 406.381C251.653 408.848 251.572 408.83 247.879 404.956C245.822 402.799 242.2 400.642 239.83 400.167C237.176 399.631 235.3 398.395 234.947 396.951C234.126 393.583 227.302 390.505 221.824 391.033C218.851 391.319 215.394 390.533 212.391 388.89C207.799 386.377 198.676 384.247 186.31 382.802C182.058 382.305 178.756 380.814 174.88 377.64C171.883 375.185 168.677 373.177 167.756 373.177C166.834 373.177 165.267 371.929 164.272 370.405C163.275 368.88 161.842 368.044 161.084 368.546C159.633 369.508 156.139 367.093 156.139 365.127C156.139 364.492 156.966 363.973 157.977 363.973C158.988 363.973 159.815 363.078 159.815 361.982C159.815 358.422 162.539 355.093 164.909 355.757C168.121 356.659 167.705 354.94 163.798 351.152C161.943 349.356 161.179 348.328 162.097 348.867C163.015 349.407 164.117 349.314 164.548 348.662C164.978 348.01 166.883 346.417 168.781 345.119C171.566 343.216 171.953 342.397 170.782 340.884C169.871 339.706 168.018 339.258 165.799 339.677C163.855 340.044 162.266 339.807 162.266 339.151C162.266 337.459 165.925 335.922 170.231 335.805L173.907 335.705L174.127 324.46L174.347 313.216L168.612 311.526C165.459 310.598 161.344 309.219 159.469 308.46C157.594 307.703 155.743 307.423 155.355 307.838C154.969 308.254 153.471 307.406 152.026 305.953C150.231 304.149 148.372 303.53 146.157 303.999C140.186 305.265 134.115 303.439 133.344 300.143C132.716 297.458 130.743 296.117 124.067 293.836C122.797 293.402 122.241 292.217 122.605 290.725C122.964 289.248 121.978 287.092 120.063 285.161C117.535 282.614 115.719 282.037 110.609 282.162C106.893 282.252 103.878 283.019 103.302 284.019C102.157 286.007 100.881 284.752 98.8715 279.662C97.6179 276.486 97.7454 276.211 100.473 276.211C103.635 276.211 107.121 273.794 107.121 271.603C107.121 270.047 102.342 265.364 100.755 265.364C99.716 265.364 98.2026 264.202 94.2064 260.333C93.2151 259.374 91.7836 255.947 91.0263 252.72C89.5411 246.391 84.5328 242.167 80.0196 243.433C78.7512 243.79 77.4497 243.622 77.1262 243.061C76.8039 242.501 74.3212 241.662 71.6106 241.198C68.6462 240.689 66.6819 239.636 66.6819 238.557C66.6819 237.568 65.8547 236.024 64.8438 235.124C63.8328 234.223 63.0056 232.062 63.0056 230.32C63.0056 228.577 62.1319 226.793 61.0645 226.353C59.5536 225.731 59.4727 225.323 60.7018 224.508C61.9113 223.706 61.9615 222.752 60.915 220.418C58.3869 214.776 58.3503 213.278 60.6541 210.061C61.9175 208.298 62.964 206.117 62.9787 205.212C62.9934 204.309 64.0755 203.569 65.3842 203.569C66.693 203.569 68.0813 203.017 68.4698 202.341C68.8595 201.665 71.0971 201.447 73.4438 201.856C76.141 202.325 77.7108 202.069 77.7108 201.157C77.7108 199.434 73.2894 196.727 69.797 196.312C68.4208 196.149 66.8804 195.94 66.3756 195.848C65.8707 195.755 65.4676 194.35 65.4798 192.722C65.4957 190.717 68.2333 187.221 73.9732 181.875C84.4641 172.103 85.2313 168.451 77.7635 163.838C73.8605 161.428 73.0468 160.282 73.5896 157.96C74.07 155.905 73.2453 154.005 70.7234 151.361C67.8252 148.32 67.2394 146.696 67.4955 142.41C67.7614 137.949 67.1574 136.458 63.4198 132.352C59.0781 127.581 59.0598 127.515 61.6319 125.79C65.3965 123.268 64.8756 119.167 60.4481 116.464C58.3759 115.198 55.8968 114.163 54.941 114.163C53.9851 114.163 53.2021 113.378 53.2021 112.42C53.2021 109.176 58.6823 105.225 65.8634 103.291C72.08 101.616 73.0995 101.612 73.689 103.261C74.146 104.536 75.3457 104.891 77.3665 104.347C79.7095 103.717 80.5084 104.126 81.0194 106.222C81.8062 109.451 81.9042 109.463 85.7092 106.787C87.4616 105.555 89.6207 105.054 90.8743 105.589C92.0593 106.096 96.1523 106.996 99.9695 107.59C103.787 108.186 111.764 110.795 117.696 113.39C123.628 115.984 129.38 118.108 130.479 118.108C133.616 118.108 140.096 122.002 141.439 124.695C143.506 128.835 142.861 129.993 136.922 132.811C132.18 135.062 129.793 135.384 123.136 134.671C111.114 133.384 87.7545 128.095 86.0585 126.275C84.273 124.359 76.4854 124.133 76.4854 125.996C76.4854 126.719 77.2317 127.311 78.1446 127.311C79.0576 127.311 81.2707 128.769 83.0636 130.552C84.8564 132.335 88.8904 134.728 92.0275 135.872C99.6889 138.662 99.9683 138.918 98.5186 141.824C97.5371 143.789 97.8068 144.928 99.7405 147.003C101.104 148.466 102.219 150.337 102.219 151.161C102.219 153.128 105.978 156.142 108.497 156.194C109.591 156.218 113.016 157.437 116.107 158.904C121.552 161.489 127.096 161.419 128.635 158.748C129.862 156.616 126.661 152.292 123.856 152.292C122.323 152.292 120.053 151.495 118.812 150.521C115.154 147.651 118.762 146.615 123.323 149.225C125.532 150.489 128.719 151.649 130.404 151.8C132.089 151.952 136.362 152.448 139.902 152.902C147.415 153.868 147.877 152.834 142.506 147.071C138.835 143.133 138.772 142.883 140.974 141.095C142.237 140.068 143.887 139.209 144.638 139.186C145.389 139.163 147.461 137.915 149.242 136.412C151.645 134.385 153.424 133.903 156.147 134.545C158.164 135.02 159.815 136.023 159.815 136.772C159.815 137.523 160.897 137.832 162.22 137.461C163.544 137.089 165.266 137.612 166.047 138.622C168.542 141.849 169.387 140.621 169.116 134.158C168.811 126.871 167.846 124.681 164.942 124.681C163.228 124.681 162.938 123.639 163.299 118.765C163.701 113.343 164.009 112.854 166.985 112.904C168.77 112.934 172.161 114.092 174.52 115.478L178.809 117.997L174.976 118.052C172.868 118.083 170.463 118.987 169.632 120.063C167.812 122.415 168.838 125.996 171.33 125.996C172.314 125.996 173.999 126.94 175.075 128.095C176.358 129.471 179.128 130.175 183.131 130.142C189.752 130.087 191.839 129.281 191.563 126.884C191.123 123.055 191.91 122.052 195.352 122.052C197.374 122.052 199.029 121.555 199.029 120.949C199.029 119.62 203.888 117.121 210.977 114.806C214.077 113.794 216.185 113.623 216.185 114.383C216.185 115.086 217.426 115.471 218.942 115.24C220.623 114.984 221.639 113.965 221.546 112.629C221.461 111.424 222.426 110.149 223.689 109.795C226.42 109.029 228.194 111.386 225.988 112.848C222.974 114.847 226.223 116.832 232.142 116.607C235.859 116.467 238.368 115.711 238.76 114.614C239.18 113.437 241.603 112.848 246.019 112.848C249.666 112.848 254.628 111.961 257.048 110.876C262.773 108.31 263.174 108.362 264.605 111.862C266.043 115.377 272.555 116.868 272.555 113.682C272.555 112.597 273.658 111.335 275.006 110.876C276.354 110.417 277.456 109.198 277.456 108.169C277.456 107.14 276.354 105.558 275.006 104.655C270.498 101.635 272.479 100.784 282.052 101.629C292.758 102.575 316.499 109.095 326.091 113.724C329.589 115.412 333.035 116.793 333.75 116.793C334.466 116.793 335.052 114.426 335.052 111.534C335.052 106.8 334.745 106.274 331.988 106.274C330.303 106.274 327.898 105.173 326.642 103.825C325.386 102.477 322.338 100.969 319.867 100.471C317.398 99.9739 315.651 99.093 315.985 98.5119C317.091 96.5936 313.788 89.3781 311.249 88.1619C308.824 87.0009 308.84 86.9207 311.794 85.2483C316.034 82.8488 316.821 81.2461 316.061 76.5523L315.401 72.4699L322.469 71.681C330.254 70.8146 338.566 72.3108 340.025 74.8431C340.54 75.7397 340.438 77.9552 339.795 79.7669C338.18 84.324 339.177 86.262 343.795 87.5452C346.668 88.3446 348.071 89.7107 348.914 92.5296C349.554 94.6662 350.789 97.301 351.66 98.3857C352.53 99.4704 353.639 102.066 354.126 104.152C354.771 106.928 356.248 108.47 359.619 109.891C365.346 112.305 366.576 116.857 363.129 122.875C360.422 127.599 356.139 128.973 347.898 127.762C343.364 127.095 342.404 127.322 342.404 129.058C342.404 132.32 346.538 133.961 357.922 135.222L368.388 136.38L372.553 132.042C374.843 129.655 376.717 126.709 376.717 125.494C376.717 124.278 377.544 122.943 378.555 122.528C381.385 121.362 380.735 117.336 377.329 114.941C373.127 111.987 373.481 110.67 378.764 109.606C384.627 108.425 392.033 112.102 394.007 117.171C395.852 121.909 398.54 123.367 405.433 123.367C409.59 123.367 411.029 122.859 411.029 121.394C411.029 120.124 409.83 119.416 407.659 119.404C402.006 119.374 398.881 118.026 399.627 115.939C400.703 112.931 395.447 108.014 388.582 105.605C383.949 103.979 380.305 103.63 374.695 104.275C368.184 105.023 366.755 104.79 364.764 102.654C361.592 99.2509 360.712 96.3609 362.324 94.632C364.077 92.7505 360.845 88.8206 355.16 85.9267C350.67 83.6403 349.514 79.9786 353.284 79.9786C356.963 79.9786 358.993 76.5234 356.953 73.7334C355.429 71.6481 355.472 71.6021 357.416 73.2364C358.596 74.2291 359.573 76.2999 359.587 77.8382C359.647 83.9493 363.191 86.3909 374.266 87.9463C389.021 90.021 391.732 90.0578 392.326 88.1961C392.656 87.1666 391.696 86.5526 389.758 86.5526C388.057 86.5526 386.324 85.9609 385.907 85.2378C385.491 84.5147 383.666 83.877 381.852 83.8217C380.039 83.7665 376.349 82.9119 373.653 81.9232L368.751 80.1246L374.758 80.8885C380.521 81.6208 380.737 81.5327 380.047 78.702C379.349 75.8357 379.517 75.7779 386.075 76.6575C389.786 77.1545 395.126 78.6836 397.942 80.0562C404.092 83.0513 412.254 83.4681 412.254 80.7872C412.254 78.0893 407.018 74.8957 401.005 73.9267C397.492 73.3614 394.344 71.6916 391.653 68.966L387.595 64.8586L403.295 63.933C411.929 63.4228 420.803 62.981 423.015 62.9495C428.438 62.8706 429.4 59.7112 425.184 55.8233L421.891 52.7875L424.731 50.8206C427.671 48.784 437.092 46.5751 449.339 45.0513C453.224 44.5674 456.703 43.6497 457.071 43.0107C457.991 41.4146 466.173 41.5381 466.173 43.1487C466.173 43.9547 468.613 44.102 472.607 43.5353C476.146 43.033 482.231 42.6347 486.131 42.6491C491.489 42.6688 493.069 42.2534 492.602 40.9478C491.918 39.0361 492.612 38.8757 500.179 39.1978C503.206 39.3266 505.387 38.827 505.387 38.0053C505.387 37.2269 503.855 36.5906 501.984 36.5906C500.112 36.5906 497.322 35.6453 495.784 34.4909Z" fill="#A5CDC9"/>
<path d="M251.347 40.9794C256.831 41.9339 273.443 38.455 275.878 35.8412C277.844 33.7336 285.685 33.3483 288.45 35.2245C289.441 35.8977 289.993 36.6748 289.675 36.9535C288.746 37.7673 273.99 41.6236 263.364 43.8298C250.543 46.4909 250.705 46.4476 249.715 47.5086C249.247 48.0122 247.852 48.4237 246.616 48.4237C245.381 48.4237 243.267 49.607 241.919 51.0533C240.571 52.4995 238.089 53.6829 236.404 53.6829C233.175 53.6829 232.278 55.5511 234.873 56.8751C235.716 57.3051 235.092 57.3893 233.487 57.0619C229.291 56.2086 226.681 59.3601 228.524 63.0547C229.759 65.5317 229.671 65.7999 227.869 65.0584C226.725 64.5864 224.454 64.2012 222.824 64.2012C221.007 64.2012 219.861 63.4386 219.861 62.229C219.861 61.1443 220.413 60.2568 221.087 60.2568C221.76 60.2568 222.312 59.3982 222.312 58.3503C222.312 57.3011 223.276 55.7878 224.456 54.9871C225.992 53.9432 226.166 53.3345 225.069 52.8401C223.053 51.9303 223.09 48.4237 225.117 48.4237C225.984 48.4237 228.858 47.2404 231.503 45.7941C234.147 44.3479 238.675 43.1646 241.565 43.1646C244.658 43.1646 246.821 42.5519 246.821 41.6775C246.821 40.698 248.365 40.46 251.347 40.9794Z" fill="#A5CDC9"/>
<path d="M748.474 50.2999C740.696 48.0411 735.768 45.1959 735.768 42.9634C735.768 41.6907 744.795 42.7478 752.652 44.9382C758.376 46.5357 759.244 46.5067 760.189 44.695C761.12 42.9082 761.82 43.0593 765.637 45.8638L770.016 49.0811L766.678 50.0462C764.843 50.5773 762.306 50.6615 761.043 50.2342C759.78 49.8069 758.321 50.1947 757.802 51.0953C757.063 52.3786 755.038 52.2064 748.474 50.2999Z" fill="#A5CDC9"/>
<path d="M780.042 48.0359C777.096 47.6401 774.063 46.6027 773.302 45.7297C772.229 44.499 773.154 44.3426 777.433 45.0355C784.914 46.2477 787.32 49.0141 780.042 48.0359Z" fill="#A5CDC9"/>
<path d="M809.601 49.2941C808.759 49.6596 807.38 49.6596 806.537 49.2941C805.695 48.9299 806.384 48.6315 808.069 48.6315C809.754 48.6315 810.444 48.9299 809.601 49.2941Z" fill="#A5CDC9"/>
<path d="M823.098 50.6641C821.591 50.9757 818.833 50.9836 816.971 50.6825C815.108 50.3801 816.341 50.1251 819.711 50.1145C823.081 50.1053 824.605 50.3525 823.098 50.6641Z" fill="#A5CDC9"/>
<path d="M591.497 57.1749C590.667 57.5352 589.013 57.5575 587.821 57.2236C586.628 56.8896 587.307 56.5951 589.329 56.5688C591.351 56.5425 592.327 56.8147 591.497 57.1749Z" fill="#A5CDC9"/>
<path d="M783.343 63.6792C782.214 63.6568 781.557 63.173 781.884 62.605C782.785 61.0417 788.549 61.5466 793.364 63.6109L797.653 65.4489L791.526 64.5851C788.156 64.1091 784.475 63.7015 783.343 63.6792Z" fill="#A5CDC9"/>
<path d="M323.104 66.3863C322.262 66.7518 320.883 66.7518 320.04 66.3863C319.198 66.0221 319.887 65.7237 321.572 65.7237C323.257 65.7237 323.947 66.0221 323.104 66.3863Z" fill="#A5CDC9"/>
<path d="M208.244 75.983C209.241 73.9135 210.058 71.0078 210.058 69.526C210.058 67.1134 210.816 66.8307 217.304 66.8307H224.55L223.157 70.7883C221.819 74.5933 222.023 74.9982 228.453 81.3066C232.13 84.9144 235.561 87.8674 236.078 87.8674C236.594 87.8674 237.017 88.3118 237.017 88.8535C237.017 89.3952 235.224 89.762 233.034 89.666C230.843 89.57 227.227 89.4227 224.997 89.3373C222.767 89.2518 221.202 88.7325 221.518 88.1816C221.835 87.6307 221.318 86.0424 220.37 84.6501C219.076 82.7515 216.73 81.9811 210.982 81.563C206.766 81.2579 202.766 80.3994 202.092 79.6565C201.259 78.7388 201.758 78.5363 203.649 79.0267C205.819 79.5881 206.83 78.9189 208.244 75.983Z" fill="#A5CDC9"/>
<path d="M1080.22 86.8905C1070.99 87.7648 1068.48 87.348 1069.75 85.147C1070.58 83.7113 1077.46 83.6666 1084.4 85.0511C1089 85.9688 1088.75 86.0819 1080.22 86.8905Z" fill="#A5CDC9"/>
<path d="M260.468 96.7922C259.583 97.1077 258.278 96.7422 257.565 95.977C256.656 95.0014 257.135 94.8305 259.173 95.4025C260.83 95.8679 261.386 96.4635 260.468 96.7922Z" fill="#A5CDC9"/>
<path d="M195.123 108.099C191.016 108.98 188.38 107.491 189.772 105.074C190.699 103.465 192.261 103.32 196.271 104.473C200.173 105.595 199.69 107.119 195.123 108.099Z" fill="#A5CDC9"/>
<path d="M1133.49 241.698C1133.2 241.698 1132.61 241.106 1132.2 240.383C1131.78 239.66 1132.02 239.068 1132.74 239.068C1133.45 239.068 1134.03 239.66 1134.03 240.383C1134.03 241.106 1133.79 241.698 1133.49 241.698Z" fill="#A5CDC9"/>
<path d="M943.543 255.348C942.497 254.917 941.641 254.331 941.641 254.047C941.641 252.983 943.977 253.581 944.696 254.831C945.125 255.575 944.634 255.796 943.543 255.348Z" fill="#A5CDC9"/>
<path d="M994.718 273.253C995.856 273.253 996.786 272.661 996.786 271.938C996.786 271.215 996.947 270.623 997.146 270.623C998.395 270.623 1007.63 281.08 1008.26 283.204C1008.68 284.63 1013.03 289.453 1017.92 293.925C1029.83 304.819 1039.35 315.326 1037.31 315.326C1036.4 315.326 1034.99 316.303 1034.18 317.498C1033.01 319.216 1033.07 320.467 1034.48 323.496C1035.45 325.601 1035.92 327.682 1035.51 328.123C1034.3 329.415 1028.58 322.931 1026.72 318.166C1025.78 315.75 1022.79 310.792 1020.08 307.147C1017.38 303.502 1015.16 299.857 1015.16 299.047C1015.16 298.239 1012.17 295.263 1008.52 292.437C1004.88 289.61 1001.18 285.764 1000.32 283.891C999.45 282.017 997.37 278.856 995.696 276.868C993.188 273.89 993.016 273.253 994.718 273.253Z" fill="#A5CDC9"/>
<path d="M1039.55 338.612C1038.27 337.318 1037.23 335.474 1037.23 334.513C1037.23 333.551 1039.19 334.757 1041.6 337.193C1044.01 339.628 1046.43 341.622 1046.98 341.622C1048.83 341.622 1049.08 344.869 1047.48 348.167L1045.91 351.425L1043.89 346.194C1042.78 343.318 1040.83 339.906 1039.55 338.612Z" fill="#A5CDC9"/>
<path d="M110.858 168.293C114.401 168.293 112.652 164.834 107.996 162.629C105.41 161.406 102.653 160.404 101.868 160.404C99.9335 160.404 100.137 163.147 102.299 166.213C103.618 168.084 103.727 169.187 102.723 170.486C101.729 171.769 101.748 172.73 102.794 174.082C103.579 175.096 103.713 176.132 103.093 176.383C102.473 176.634 101.589 178.711 101.13 180.998C100.443 184.415 100.719 185.302 102.672 185.968C104.078 186.446 105.362 188.445 105.811 190.851C106.548 194.808 106.715 194.9 111.661 194.051C118.443 192.887 118.824 192.53 118.824 187.326C118.824 184.194 118.087 182.426 116.373 181.441C115.025 180.667 113.922 179.247 113.922 178.285C113.922 177.323 112.819 175.033 111.471 173.193C108.539 169.192 108.426 168.293 110.858 168.293Z" fill="#003479"/>
<path d="M89.1791 184.113C88.0394 184.089 86.7663 183.479 86.3496 182.756C85.2063 180.77 80.6366 181.348 76.8426 183.957C71.561 187.59 71.5488 187.79 76.3255 192.484C78.8058 194.921 80.8352 198.147 80.8352 199.651C80.8352 201.155 82.0324 203.072 83.4956 203.912C85.6806 205.168 86.4305 205.037 87.694 203.182C88.7478 201.636 90.0676 201.209 91.8813 201.825C95.6384 203.105 99.7227 198.245 98.6701 193.746C97.7608 189.86 92.1581 184.172 89.1791 184.113Z" fill="#003479"/>
<path d="M722.198 258.523C722.198 257.53 721.07 253.98 719.69 250.634C718.057 246.674 716.418 244.551 714.993 244.551C711.563 244.551 711.33 245.455 712.066 255.907C712.677 264.576 712.45 266.176 710.125 269.549C708.678 271.65 707.493 274.24 707.493 275.304C707.493 278.725 702.067 286.573 699.221 287.267C697.705 287.636 695.085 288.246 693.4 288.621C689.587 289.471 689.397 292.621 693.094 293.684C700.996 295.956 710.14 293.357 710.995 288.596C711.509 285.733 714.028 283.229 718.334 281.304C719.915 280.597 721.496 278.842 721.846 277.405C722.197 275.968 722.971 274.791 723.567 274.791C724.161 274.791 724.649 271.537 724.649 267.56C724.649 263.582 724.098 260.328 723.424 260.328C722.75 260.328 722.198 259.516 722.198 258.523Z" fill="#003479"/>
<path d="M37.0788 381.697C53.0965 384.069 57.0008 383.989 60.2825 381.22C64.1083 377.991 69.2269 377.82 76.2205 380.685L81.4383 382.822L78.4066 385.382C76.7387 386.789 75.3736 388.962 75.3736 390.213C75.3736 391.462 74.7143 393.191 73.908 394.056C72.7695 395.277 72.9754 396.087 74.827 397.674C77.1468 399.664 77.137 399.698 74.4508 398.904C70.75 397.811 60.334 403.326 61.253 405.894C61.7898 407.394 60.916 407.579 56.6968 406.85C53.8269 406.355 48.2352 405.848 44.2709 405.725C38.1242 405.533 36.9207 405.086 36.0862 402.676C35.547 401.123 34.5164 399.461 33.7946 398.982C31.8915 397.72 32.1881 393.138 34.3216 390.849C36.7872 388.204 36.6377 386.802 33.7089 385.121C29.1699 382.515 30.8794 380.778 37.0788 381.697Z" fill="#849EA5"/>
<path d="M73.0281 340.357C68.1938 334.618 66.0382 330.653 67.1191 329.493C68.206 328.327 69.6741 328.461 70.4437 329.798C70.804 330.421 73.593 331.682 76.6431 332.599C81.2507 333.982 82.1894 334.8 82.1894 337.421C82.1894 339.158 83.0166 340.92 84.0276 341.335C85.0386 341.752 85.8657 342.887 85.8657 343.858C85.8657 344.83 86.8301 346.254 88.0102 347.022C89.8104 348.193 89.591 348.363 86.6439 348.072C83.0852 347.723 82.8707 347.949 79.5743 355.513C77.9005 359.35 77.9005 359.349 77.5219 352.3L77.5218 352.298C77.2081 346.449 76.441 344.412 73.0281 340.357Z" fill="#87B0FF"/>
<path d="M7.93429 422.59C6.3176 420.716 5.68702 417.191 5.37239 408.253C4.95827 396.476 4.97199 396.41 7.63083 397.878C11.3368 399.924 12.3068 401.738 11.537 405.176C10.8406 408.284 13.6797 415.372 15.9368 416.162C16.6681 416.418 15.6497 418.528 13.6723 420.851C10.1653 424.975 10.026 425.016 7.93429 422.59Z" fill="#003479"/>
<path d="M233.507 411.091C243.889 414.596 247.762 412.836 242.916 406.811L240.029 403.223L243.094 405.902C244.779 407.376 246.6 409.339 247.139 410.262C248.783 413.082 254.848 412.258 257.027 408.918L258.999 405.893L261.16 408.968C262.348 410.659 265.086 414.12 267.246 416.658C269.406 419.196 270.647 421.63 270.004 422.066C269.362 422.501 268.832 424.183 268.829 425.803C268.824 427.423 267.996 430.482 266.99 432.6C265.982 434.719 265.159 437.713 265.159 439.255C265.159 443.567 262.763 440.115 262.491 435.412C262.366 433.226 261.744 430.682 261.109 429.757C259.29 427.107 253.947 427.792 250.753 431.084L247.833 434.092L245.77 431.279C244.635 429.732 242.784 428.113 241.657 427.681C240.332 427.175 239.831 425.958 240.24 424.241C240.666 422.454 240.033 421.091 238.306 420.077C236.894 419.249 235.739 417.412 235.739 415.997C235.739 414.579 234.774 412.74 233.594 411.908C231.721 410.586 231.71 410.483 233.507 411.091Z" fill="#9BBACE"/>
<path d="M237.578 434.844C236.229 433.759 234.897 432.7 234.615 432.491C234.334 432.281 234.681 432.11 235.385 432.11C236.089 432.11 237.422 433.17 238.348 434.463C239.903 436.64 239.846 436.668 237.578 434.844Z" fill="#9BBACE"/>
</svg>
