<svg width="487" height="610" viewBox="0 0 487 610" fill="none" xmlns="http://www.w3.org/2000/svg">
<path d="M348.438 363.301C352.079 359.472 353.387 357.025 353.387 354.047C353.387 351.327 353.996 350 355.243 350C356.263 350 357.099 351.133 357.099 352.52C357.099 353.906 357.695 355.251 358.422 355.509C359.151 355.767 360.533 361.576 361.496 368.418C362.457 375.262 363.514 381.608 363.844 382.521C364.173 383.434 363.964 385.513 363.379 387.141C362.33 390.057 362.301 390.048 361.428 386.485C359.55 378.818 355.771 384.416 356.73 393.446C357.204 397.92 356.866 399.844 355.374 401.16C354.158 402.233 353.366 405.019 353.332 408.339C353.303 411.324 352.437 416.132 351.407 419.025C350.378 421.917 349.019 426.059 348.387 428.228C347.755 430.398 346.723 433.356 346.095 434.802C345.465 436.248 343.223 443.052 341.111 449.922C328.722 490.23 326.775 495.218 322.97 496.428C320.986 497.059 317.886 498.39 316.079 499.386C311.858 501.714 309.114 501.554 304.516 498.709C299.443 495.57 296.311 488.686 297.113 482.436C297.509 479.351 297.041 476.022 295.875 473.626C294.844 471.508 294 468.159 294 466.187C294 461.081 296.681 453.866 298.579 453.866C299.463 453.866 300.255 453.274 300.341 452.551C300.614 450.226 300.927 449.353 303.28 444.334C304.552 441.623 306.04 439.404 306.587 439.404C307.857 439.404 307.643 432.984 306.258 429.543C305.677 428.097 304.729 422.963 304.154 418.135C303.206 410.178 303.376 408.885 305.971 404.33C307.545 401.565 308.837 398.267 308.841 397.003C308.844 395.733 309.817 394.653 311.012 394.593C316.904 394.294 319.28 393.651 319.724 392.237C320.044 391.218 321.661 390.973 324.427 391.524C327.002 392.038 328.642 391.84 328.642 391.014C328.642 390.27 328.042 389.449 327.31 389.19C326.572 388.929 327.124 387.615 328.547 386.247C330.921 383.964 331.117 383.951 331.117 386.061C331.117 389.636 334.164 387.677 334.595 383.826C334.858 381.47 335.537 380.612 336.75 381.106C337.722 381.502 338.848 380.915 339.25 379.802C339.652 378.688 340.771 378.098 341.736 378.491C343.882 379.366 344.073 376.127 342.004 373.929C340.85 372.702 340.85 372.351 342.004 372.351C342.821 372.351 343.489 371.486 343.489 370.43C343.489 369.373 345.716 366.165 348.438 363.301Z" fill="#38C1DF"/>
<path d="M117.676 415.788C118.841 416.186 120.165 415.864 120.619 415.074C122.097 412.502 123.908 414.401 127.586 422.376C129.572 426.684 131.61 431.096 132.114 432.181C132.619 433.265 135.048 435.583 137.515 437.332C139.981 439.079 141.999 441.235 141.999 442.121C141.999 443.007 142.754 444.043 143.678 444.424C144.601 444.806 145.723 447.217 146.17 449.782C147.207 455.723 149.782 458.474 154.308 458.474C159.371 458.474 159.186 462.943 154.003 465.826C151.867 467.014 148.429 469.897 146.365 472.232C144.299 474.569 141.984 476.717 141.219 477.008C140.454 477.299 138.804 479.904 137.553 482.796C136.154 486.026 133.802 488.816 131.451 490.027C128.728 491.431 127.319 493.325 126.563 496.6C125.668 500.469 124.779 501.393 120.971 502.404C117.163 503.416 115.503 503.084 110.525 500.305C103.776 496.538 99.2219 497.201 99.2219 501.948C99.2219 503.501 96.7934 507.401 93.777 510.693C89.2072 515.679 87.8163 516.495 85.1336 515.772C82.3494 515.02 82.0364 514.419 82.7111 511.113C83.6754 506.394 81.2641 497.373 78.2575 494.445C76.3154 492.555 76 490.166 76 477.333V462.418H80.8888H85.7776V440.726V419.034L89.1387 418.976C90.9879 418.944 95.2497 418.123 98.6108 417.151C104.551 415.434 104.791 415.476 107.18 418.614L109.637 421.845L112.598 418.455C114.441 416.345 116.357 415.338 117.676 415.788Z" fill="#CDD9E7"/>
<path d="M180.809 233.355C183.248 232.348 183.206 224.721 180.739 220.933C178.849 218.029 178.887 218 184.461 218C189.855 218 190.032 218.12 188.672 220.855C187.324 223.565 187.785 237.16 189.279 238.768C189.637 239.152 191.307 238.497 192.991 237.309C197.058 234.442 198.498 234.589 197.719 237.791C197.307 239.484 197.679 240.423 198.753 240.41C201.523 240.375 203.869 238.191 202.916 236.531C202.378 235.594 202.681 235.12 203.679 235.339C205.844 235.817 210.853 232.317 210.853 230.327C210.853 229.473 210.164 228.465 209.32 228.088C208.204 227.588 208.372 226.89 209.933 225.524C211.114 224.491 212.079 222.623 212.079 221.372C212.079 218.62 211.677 218.437 223.507 226.576C243.383 240.251 244.575 241.212 244.25 243.295C243.939 245.295 246.432 248.43 254.981 256.79C258.113 259.851 258.743 261.301 258.135 264.047C255.711 274.992 255.878 278.376 259.058 282.862C261.256 285.964 261.862 287.888 261.101 289.352C257.997 295.32 262.093 319.979 266.919 324.382L270 327.193L261.921 331.473C256.708 334.234 252.866 335.478 251.093 334.979C249.387 334.499 247.479 335.049 246.06 336.431C243.579 338.847 230.972 339.998 229.777 337.918C229.405 337.27 227.007 337.1 224.449 337.539C219.066 338.465 218.362 337.41 217.432 327.029C216.626 318.027 213.88 313.861 209.388 314.828C206.749 315.396 203.25 314.092 195.04 309.482C184.779 303.722 184.038 303.013 181.575 296.621C180.142 292.9 178.969 288.664 178.969 287.206C178.969 283.744 175.64 278.692 173.358 278.692C172.069 278.692 171.776 277.785 172.318 275.466C172.731 273.691 172.476 269.262 171.751 265.625C170.478 259.236 170.558 258.86 174.087 254.703C176.099 252.334 177.743 249.911 177.743 249.316C177.743 248.722 178.847 246.961 180.196 245.404C183.083 242.068 183.428 237.791 180.809 237.791C179.797 237.791 178.969 236.963 178.969 235.953C178.969 234.942 179.797 233.773 180.809 233.355Z" fill="#9BBACE"/>
<path d="M361.431 72.7942C363.655 72.3132 366.118 70.8113 366.903 69.4587C367.689 68.1062 369.214 67 370.292 67C371.908 67 372.191 68.3264 371.899 74.5362C371.366 85.8379 369.389 95.4397 366.591 100.309C365.215 102.703 364.089 105.553 364.089 106.642C364.089 107.73 363.32 109.306 362.381 110.145C361.441 110.983 360.308 113.232 359.863 115.14C359.417 117.048 358.06 120.121 356.848 121.967C355.635 123.814 354.251 127.388 353.771 129.911C353.29 132.434 351.577 136.698 349.964 139.386C348.349 142.073 347.028 144.875 347.028 145.611C347.028 146.347 346.479 146.95 345.809 146.95C345.139 146.95 344.59 147.754 344.59 148.737C344.59 150.909 331.856 168.318 326.155 173.94C323.895 176.169 320.125 179.243 317.779 180.769C310.349 185.603 286.093 213.79 286.093 217.588C286.093 219.984 283.917 219.222 281.898 216.121C280.381 213.794 280 209.188 280 193.189V173.169L284.265 166.783C286.611 163.271 288.531 159.795 288.531 159.057C288.531 157.554 291.37 156.124 294.352 156.124C295.433 156.124 297.893 154.503 299.817 152.52C302.596 149.656 304.552 148.881 309.329 148.752C312.636 148.661 315.873 148.514 316.522 148.424C317.171 148.334 319.844 145.164 322.461 141.379C325.078 137.594 331.387 129.485 336.479 123.358C341.572 117.231 345.754 111.776 345.774 111.234C345.793 110.693 343.4 110.251 340.454 110.251C337.07 110.251 330.577 108.323 322.801 105.009C316.038 102.125 310.164 99.7662 309.748 99.7662C308.382 99.7662 301.443 92.9665 299.893 90.1093C295.626 82.2428 295.429 81.4709 296.84 78.1405C298.702 73.7459 300.008 74.0092 302.952 79.375C306.324 85.5206 312.249 86.8078 318.389 82.7278C321.613 80.5849 323.79 80.0434 326.776 80.6463C329.772 81.2505 331.595 80.7918 333.883 78.856C335.576 77.4248 338.54 76.261 340.471 76.2715C343.667 76.2872 350.675 75.1246 361.431 72.7942Z" fill="#CDD9E7"/>
<path d="M215.831 159.303C213.616 158.388 213.396 153.683 215.526 152.756C218.326 151.538 228.491 151.867 229.255 153.201C229.67 153.925 232.223 154.517 234.93 154.517C238.76 154.517 240.924 155.506 244.686 158.978C248.421 162.425 251.079 163.65 256.361 164.362C260.122 164.868 263.835 165.546 264.61 165.867C265.386 166.187 266.791 164.899 267.732 163.003C268.673 161.106 270.917 158.734 272.72 157.728C275.524 156.165 276.203 156.169 277.428 157.761C278.215 158.785 279.964 159.805 281.314 160.03C283.679 160.423 283.653 160.619 280.616 165.429C277.523 170.325 277.462 170.86 277.489 193.058C277.513 213.499 277.748 216.015 279.903 218.984C283.018 223.277 282.944 224.065 279.293 225.562C277.615 226.25 276.238 227.863 276.234 229.147C276.23 230.431 274.537 232.52 272.472 233.787C270.407 235.053 268.964 236.83 269.266 237.733C269.569 238.637 269.101 240.857 268.226 242.666C267.352 244.475 265.685 248.44 264.521 251.478L262.403 257L258.645 254.133C251.302 248.534 248.172 244.834 248.172 241.758C248.172 239.475 246.701 237.706 242.608 235.068C230.719 227.405 214.763 215.623 214.333 214.189C214.085 213.361 215.569 211.881 217.631 210.899C222.244 208.706 222.051 205.147 217.323 205.221C214.714 205.262 214 204.662 214 202.422C214 200.854 214.824 198.835 215.831 197.934C216.837 197.032 217.673 195.629 217.688 194.813C217.703 193.996 218.789 191.849 220.102 190.04C221.768 187.743 222.497 184.667 222.516 179.843C222.531 176.044 222.13 172.931 221.628 172.926C220.289 172.911 217.661 166.3 217.661 162.948C217.661 161.36 216.837 159.72 215.831 159.303Z" fill="#345764"/>
<path d="M155.641 470.084C156.716 470.084 158.633 468.853 159.902 467.349C161.725 465.188 162.984 464.818 165.912 465.585C167.95 466.117 171.547 466.713 173.906 466.909C176.265 467.105 178.575 467.307 179.039 467.36C179.504 467.411 180.228 470.265 180.648 473.7C181.07 477.134 182.238 482.038 183.244 484.597C184.375 487.473 184.93 492.223 184.697 497.045C184.331 504.675 184.246 504.842 180.752 504.884C178.107 504.915 176.624 505.946 175.021 508.87C172.013 514.359 172.188 517.777 175.685 521.826C179.482 526.221 186.16 526.762 186.16 522.675C186.16 520.923 186.978 520.046 188.611 520.046C191.664 520.046 191.657 520.701 188.506 530.865C186.588 537.053 184.995 539.766 182.122 541.74C180.018 543.186 175.516 549.209 172.118 555.123C165.764 566.184 148.63 585.474 138.56 592.905C135.702 595.012 130.768 597.231 127.594 597.833C124.422 598.435 120.446 599.278 118.761 599.705C117.076 600.131 110.843 600.429 104.908 600.368C97.032 600.285 93.0616 600.849 90.2026 602.455C88.0496 603.666 83.9261 604.774 81.0402 604.917C78.1531 605.06 74.8015 606.138 73.5908 607.314C70.7894 610.034 69.5518 610.004 67.0298 607.151C65.911 605.886 63.5888 603.666 61.8682 602.22C60.1477 600.774 58.7348 598.794 58.7275 597.821C58.7213 596.848 57.5745 594.334 56.1812 592.233C54.0648 589.045 53.9644 588.415 55.5685 588.415C57.5193 588.415 58.0939 585.705 57.5939 578.862C57.4468 576.86 55.2143 570.648 52.6323 565.056C50.0491 559.463 47.532 552.826 47.0381 550.306C46.5443 547.785 45.3312 544.398 44.3422 542.78C42.7443 540.164 42.7687 539.597 44.5615 537.673C45.6706 536.483 46.6889 535.729 46.8262 535.995C46.9622 536.262 47.6778 537.651 48.4156 539.08C50.0025 542.158 53.5782 543.402 61.3426 543.58C66.1095 543.691 67.6964 543.048 71.1093 539.628L75.1838 535.543L75.8345 516.291C76.4374 498.406 76.598 497.382 78.0856 501.885C78.9655 504.551 79.5169 509.58 79.3111 513.06L78.9349 519.389L84.7361 519.788C90.0826 520.156 90.9281 519.775 95.5051 514.912C98.2366 512.01 101.056 507.837 101.772 505.637C103.19 501.272 105.354 500.536 107.733 503.611C108.572 504.696 110.025 505.583 110.963 505.583C111.9 505.583 113.714 506.284 114.993 507.141C116.791 508.346 118.461 508.331 122.362 507.078C126.532 505.737 127.743 504.555 129.344 500.261C130.41 497.402 131.8 495.065 132.432 495.065C134.193 495.065 139.476 488.496 141.628 483.633C142.684 481.242 144.29 479.287 145.195 479.287C146.101 479.287 148.381 477.217 150.264 474.686C152.146 472.155 154.566 470.084 155.641 470.084Z" fill="#037FB2"/>
<path d="M161.507 546.402C161.507 545.321 160.026 542.775 158.214 540.748C156.403 538.719 153.785 537.094 152.394 537.138C148.846 537.245 140.675 543.25 140.675 545.748C140.675 546.891 139.572 548.134 138.224 548.512C134.978 549.423 135.133 551.803 138.853 558.123C141.321 562.318 142.656 563.356 145.592 563.356C148.038 563.356 149.253 562.697 149.253 561.373C149.253 560.282 151.321 558.498 153.848 557.408C158.249 555.509 161.507 550.827 161.507 546.402Z" fill="#003479"/>
<path d="M242.604 5.91205C242.604 4.97041 244.402 3.29236 246.599 2.18448C248.795 1.0779 250.879 0.0946294 251.227 0.00241418C251.967 -0.195004 256.125 11.7748 256.125 14.0997C256.125 14.9686 257.623 19.1273 259.454 23.3419C262.61 30.6074 264.684 32.9663 264.766 29.3816C264.787 28.4802 265.361 28.7698 266.057 30.031C266.746 31.2804 268.47 32.3039 269.887 32.3039C272.381 32.3039 293 53.3003 293 55.8408C293 58.0929 289.88 56.8927 287.469 53.7132C282.21 46.7802 273.832 37.7639 271.49 36.5183C266.599 33.9181 255.914 32.1713 254.183 33.6883C252.956 34.7637 251.875 34.4495 249.806 32.4117C246.257 28.9179 244.272 28.9854 243.399 32.6286C242.854 34.9041 241.738 35.6028 238.35 35.7833C234.165 36.0067 234 35.8457 234 31.5207C234 29.0477 234.83 24.9266 235.844 22.3627C236.858 19.7976 237.688 15.4336 237.688 12.6632C237.688 8.49277 238.11 7.62656 240.146 7.62656C241.498 7.62656 242.604 6.85498 242.604 5.91205Z" fill="#75D0D1"/>
<path d="M160.84 394.928C161.799 392.455 163.287 390.128 164.145 389.756C167.254 388.41 171.433 388.914 173.231 390.85C174.241 391.938 176.469 392.828 178.181 392.828C179.895 392.828 183.3 393.962 185.749 395.35C188.199 396.736 191.175 398.205 192.364 398.613C196.732 400.112 198.625 414.929 195.332 421.843C194.258 424.098 194.052 427.156 194.681 431.52C195.56 437.616 194.19 442.944 191.744 442.944C191.234 442.944 190.815 444.725 190.815 446.901C190.815 449.077 189.851 451.901 188.671 453.177C187.492 454.453 185.341 457.258 183.892 459.41C181.088 463.572 180.734 463.631 167.85 462.022C163.609 461.491 161.42 460.608 161.42 459.423C161.42 457.667 160.429 457.163 153.911 455.611C150.745 454.856 149.242 452.069 148.729 446.001C148.495 443.221 144.818 439.03 136.996 432.623C134.935 430.936 133.25 428.798 133.25 427.874C133.25 426.949 131.867 423.391 130.177 419.969C127.519 414.588 127.396 413.831 129.259 414.381C138.125 417.003 140.878 416.772 144.425 413.113C146.363 411.115 147.948 408.731 147.948 407.816C147.948 405.899 155.41 399.422 157.617 399.422C158.43 399.422 159.881 397.399 160.84 394.928Z" fill="#AED3B6"/>
<path d="M4.01209 265.639C3.6195 266.686 3.32782 266.375 3.26874 264.845C3.21582 263.46 3.5063 262.686 3.91489 263.122C4.32348 263.558 4.36776 264.691 4.01209 265.639Z" fill="#75D0D1"/>
<path d="M6.31845 278.952C5.68956 276.687 6.10929 275.973 8.34793 275.502C9.90107 275.175 18.5848 274.983 27.6464 275.075L44.1219 275.242L45.7131 281.808C46.5881 285.42 48.5067 291.258 49.9786 294.78L52.6531 301.185L58.9873 300.373C62.4714 299.927 67.0877 299.555 69.2463 299.55C72.952 299.538 73.2166 299.208 74.0005 293.628C74.7648 288.194 75.1168 287.718 78.3843 287.718C80.3374 287.718 81.9361 288.309 81.9361 289.032C81.9361 289.754 84.6092 290.345 87.8767 290.345C93.7238 290.345 93.8086 290.404 93.2954 294.134C93.0087 296.218 93.3484 299.066 94.0499 300.465C94.9249 302.212 94.9285 304.67 94.0596 308.321C92.9791 312.865 93.1835 314.448 95.4726 319.235C97.3605 323.183 97.929 326.085 97.4023 329.082C96.3304 335.177 97.5142 337.725 100.809 336.414C102.275 335.832 106.066 334.948 109.237 334.452L115 333.55L114.39 341.168C113.251 355.386 113.771 354.697 104.198 354.697C93.864 354.697 94.1951 353.873 94.5803 378.592L94.8584 396.375L100.304 402.678L105.75 408.982L98.4792 410.913C89.3203 413.347 68.3713 411.424 64.6238 407.805C62.6264 405.877 59.5314 405.613 41.3331 405.819C21.8352 406.041 20.1171 405.866 17.1302 403.361C13.6793 400.462 9.94162 399.848 8.70969 401.975C8.29125 402.698 6.16088 403.289 3.97393 403.289H0L0.893578 394.424C1.38463 389.549 2.41221 383.195 3.1777 380.306C3.94197 377.417 5.12952 372.098 5.81502 368.486C6.49929 364.875 8.12382 360.699 9.42344 359.209C10.7231 357.717 11.7864 355.817 11.7864 354.987C11.7864 354.155 12.8276 352.881 14.1002 352.154C16.8446 350.587 20.4013 341.732 20.4013 336.465C20.4013 334.413 18.8199 328.958 16.8877 324.343C12.2381 313.242 11.6843 310.457 13.7593 308.618C15.9708 306.66 15.9684 300.271 13.7531 296.537C12.8042 294.937 11.624 291.567 11.1305 289.05C10.637 286.532 9.53053 283.873 8.67273 283.14C7.8137 282.407 6.75534 280.523 6.31845 278.952Z" fill="#75D0D1"/>
<path d="M199.861 66.6225C200.711 66.6225 201.408 66.0324 201.408 65.3112C201.408 64.5901 201.914 64 202.532 64C203.163 64 203.076 65.6363 202.332 67.7343C201.273 70.7266 201.476 72.6711 203.359 77.5201C204.651 80.8494 206.869 84.2336 208.288 85.0427C210.542 86.329 210.844 87.6128 210.684 95.2535L210.502 103.993L206.096 104.392C202.237 104.739 201.591 105.309 200.903 108.974C200.121 113.143 202.239 116.45 205.69 116.45C208.037 116.45 216.686 128.601 219.396 135.704L222 142.529L213.858 150.453C208.166 155.993 204.721 158.382 202.411 158.392C200.593 158.402 197.743 158.961 196.077 159.637C194.41 160.312 192.681 160.476 192.236 160C190.929 158.607 183.071 158.447 182.288 159.797C181.195 161.68 179.256 161.268 179.256 159.153C179.256 158.12 178.287 156.944 177.102 156.538C175.917 156.133 173.841 154.03 172.487 151.865C169.912 147.746 167.285 146.771 166.282 149.559C165.723 151.107 155.395 151.929 154.311 150.511C150.254 145.203 147.258 140.031 147.258 138.336C147.258 137.167 146.011 135.503 144.489 134.639C141.236 132.793 138.737 129.598 138.682 127.212C138.633 125.086 135.194 121.215 131.566 119.203C130.044 118.359 128.797 116.456 128.797 114.975C128.797 111.877 124.279 107.379 121.105 107.314C118.475 107.262 118.238 103.547 120.798 102.501C121.813 102.085 122.644 100.329 122.644 98.5985C122.644 96.8689 124.028 94.1704 125.72 92.6022C127.413 91.0352 128.797 88.9726 128.797 88.0219C128.797 87.0503 130.146 86.2912 131.874 86.2912C133.674 86.2912 134.951 87.0438 134.951 88.1072C134.951 91.8417 140.415 94.0445 147.692 93.2446C153.281 92.6297 154.73 92.8789 155.333 94.5533C156.517 97.8419 162.988 98.7583 165.809 96.0374C168.011 93.9145 171.298 91.6424 175.344 89.4447C176.239 88.9583 178.591 89.8367 180.571 91.3958C183.967 94.0707 184.381 94.1138 187.929 92.1588C189.997 91.0193 192.031 89.0854 192.451 87.862C192.87 86.6373 194.551 83.9072 196.186 81.7948C198.536 78.7579 199.071 76.7649 198.736 72.2883C198.444 68.3729 198.792 66.6225 199.861 66.6225Z" fill="#037FB2"/>
<path d="M203.631 162.366C205.863 162.851 207.606 162.446 208.539 161.224C209.779 159.601 210.229 159.596 211.693 161.186C212.633 162.207 213.402 163.71 213.402 164.526C213.402 165.342 214.46 168.39 215.755 171.301C220.414 181.778 220.157 185.676 214.33 192.875C213.164 194.317 211.892 196.582 211.504 197.911C210.77 200.424 207.305 201.325 207.305 199.003C207.305 196.842 204.992 197.489 202.808 200.26C201.689 201.68 200.295 202.52 199.71 202.128C198.138 201.072 190.234 205.48 190.234 207.413C190.234 208.326 189.6 210.533 188.825 212.319C187.663 214.993 186.482 215.586 182.117 215.691C179.044 215.765 175.883 216.738 174.59 218.009C171.115 221.428 170.519 220.682 171.31 213.908C172.656 202.377 174.723 197.151 180.708 190.139C186.821 182.976 188.103 178.51 184.409 177.236C182.687 176.642 182.328 175.335 182.658 170.853C183.224 163.165 183.828 161.539 185.653 162.783C186.496 163.357 188.098 163.665 189.211 163.466C190.326 163.267 191.566 163.68 191.966 164.385C192.408 165.163 194.164 164.87 196.432 163.641C198.603 162.464 201.62 161.93 203.631 162.366Z" fill="#849EA5"/>
<path d="M245.777 39.6625C246.745 38.2543 247.537 36.6234 247.537 36.0367C247.537 34.5125 249.697 34.7182 250.623 36.3307C251.052 37.0796 253.977 37.5806 257.122 37.4461C269.249 36.9253 269.327 36.9636 279.428 48.3051L288.955 59.0018L286.614 63.138C285.252 65.5429 284.271 69.6894 284.269 73.0502L284.264 78.8264L288.963 78.1474C293.385 77.5093 293.63 77.6556 293.105 80.6142C292.741 82.6658 293.661 85.3331 295.751 88.2825C297.512 90.7718 298.954 93.3282 298.954 93.9651C298.954 97.7939 330.152 112.76 338.135 112.76H342L338.314 117.045C331.733 124.696 317.317 143.532 317.317 144.481C317.317 144.989 314.066 145.659 310.092 145.969C304.913 146.372 301.706 147.452 298.768 149.784C296.513 151.573 291.695 154.152 288.059 155.517C281.932 157.814 281.339 157.836 279.966 155.815C279.151 154.615 277.829 153.633 277.029 153.633C274.775 153.633 267.897 157.758 266.342 160.043C263.868 163.681 254.307 162.042 247.562 156.822C244.361 154.345 239.878 151.937 237.601 151.472C232.213 150.37 230.399 148.733 230.399 144.973C230.399 142.985 229.272 141.308 227.189 140.191C225.084 139.062 223.359 136.466 222.178 132.649C221.188 129.448 219.594 125.986 218.636 124.955C217.679 123.924 215.488 121.093 213.768 118.664C212.048 116.234 209.086 113.879 207.185 113.43C201.936 112.188 203.522 107.756 209.406 107.228L213.872 106.827L214.061 99.5753C214.361 88.1718 215.81 80.8767 217.625 81.6269C219.831 82.538 221.366 80.0237 222.364 73.8651C223.623 66.0848 226.998 58.9702 229.802 58.1831C231.603 57.6768 232.675 55.6016 233.781 50.4766C234.613 46.6188 235.295 42.4972 235.295 41.3172C235.295 39.822 236.036 39.3803 237.744 39.8616C239.301 40.3006 240.207 39.8958 240.231 38.7501C240.257 37.5713 240.918 37.8602 242.144 39.5847C243.995 42.19 244.037 42.1913 245.777 39.6625Z" fill="#003479"/>
<ellipse cx="408.358" cy="450.755" rx="2.45087" ry="2.62958" fill="#003479"/>
<path d="M430.331 442.822L425.49 442.32L430.102 437.61L430.331 442.822Z" fill="#003479"/>
<ellipse cx="484.948" cy="433.662" rx="1.83815" ry="1.31479" fill="#003479"/>
</svg>
