<svg width="485" height="293" viewBox="0 0 485 293" fill="none" xmlns="http://www.w3.org/2000/svg">
<path d="M295.145 274.672C298.854 272.724 302.186 270.614 302.549 269.982C304.219 267.083 315.817 271.094 318.817 275.608C323.857 283.195 324.402 288.571 320.129 288.571C318.723 288.571 317.764 289.496 317.742 290.873C317.706 293.018 317.616 293.013 316.413 290.793C314.546 287.348 315.996 284.256 318.999 285.278C320.351 285.739 321.438 285.632 321.416 285.04C321.339 283.028 316.78 278.044 315.014 278.044C314.047 278.044 312.256 276.86 311.036 275.413C307.61 271.351 299.389 272.799 299.389 277.465C299.389 278.543 298.009 279.988 296.324 280.676C292.863 282.088 292.364 285.328 295.106 288.581C296.774 290.557 296.661 290.914 293.964 292.234C291.217 293.576 290.908 293.38 290.179 289.818C289.432 286.168 285.903 284.2 285.903 287.432C285.903 288.254 284.793 287.411 283.436 285.56C282.079 283.709 279.32 281.805 277.306 281.33C275.292 280.855 273.607 280.069 273.564 279.585C273.521 279.099 273.309 276.778 273.093 274.426C272.634 269.401 273.925 268.852 275.802 273.274C276.811 275.649 278.479 276.616 282.765 277.306C287.468 278.063 289.519 277.626 295.145 274.672Z" fill="#D78D00"/>
<path d="M222.747 172.701C223.692 173.081 225.02 171.896 225.889 169.895C228.385 164.156 228.697 167.117 226.668 177.284C225.308 184.099 223.958 187.522 222.02 189.072C220.518 190.272 219.173 191.132 219.029 190.983C218.887 190.833 219.283 188.39 219.91 185.554C220.538 182.718 221.064 178.519 221.08 176.22C221.101 173.298 221.601 172.24 222.747 172.701Z" fill="#75D0D1"/>
<path d="M246.284 254.772C245.577 253.838 245.346 252.694 245.769 252.229C246.193 251.765 247.636 252.028 248.976 252.815C250.317 253.601 252.373 253.97 253.548 253.632C254.723 253.296 256.72 253.85 257.986 254.866C259.253 255.881 261.157 256.716 262.217 256.722C263.278 256.727 265.542 259.13 267.251 262.061C269.702 266.268 270.261 268.723 269.9 273.696L269.443 280L264.584 274.455C261.912 271.407 258.91 268.913 257.916 268.913C256.921 268.913 256.107 268.107 256.107 267.123C256.107 265.134 250.598 259.423 248.677 259.423C246.957 259.423 247.147 262.598 248.996 264.735C250.211 266.138 249.946 266.125 247.76 264.679C244.847 262.751 244.057 258.851 246.274 257.349C247.172 256.741 247.176 255.949 246.284 254.772Z" fill="#20528C"/>
<path d="M5.71955 1.76707C8.86567 1.32433 12.2651 0.77261 13.2746 0.540075C16.9041 -0.291533 18.3028 -0.16541 17.6677 0.936832C16.9298 2.21906 18.7298 3.174 36.7267 11.0565C49.004 16.4337 50.4541 16.7675 61.2006 16.6939C74.9426 16.5993 76.46 16.242 77.2713 12.909C77.7914 10.7754 78.9649 10.3249 83.9931 10.3249C88.949 10.3249 90.4309 10.8767 91.9324 13.2809C92.9481 14.9073 95.4897 18.2652 97.5797 20.7429C100.493 24.1968 101.392 26.4985 101.425 30.5961C101.464 35.1759 102.106 36.4621 105.905 39.556C111.857 44.4038 114.835 44.1606 118.217 38.5548C120.599 34.6083 121.646 33.9725 125.766 33.9725C129.877 33.9725 130.907 34.5938 133.096 38.3972C134.497 40.8302 135.644 44.0332 135.644 45.5138C135.644 46.9944 136.678 50.7964 137.943 53.9639C139.207 57.13 140.623 62.7003 141.089 66.3421C141.866 72.4064 142.325 73.146 146.545 75.1442C149.078 76.3449 152 77.3265 153.037 77.3265C154.074 77.3265 155.538 78.1199 156.288 79.0907C157.346 80.4597 156.968 81.1888 154.601 82.3475C152.33 83.4577 151.552 84.853 151.552 87.809C151.552 89.9911 151.077 91.7778 150.497 91.7778C149.916 91.7778 149.076 95.1765 148.63 99.3319C148.184 103.487 147.172 110.285 146.381 114.44C145.251 120.377 145.282 123.752 146.521 130.205C147.388 134.722 148.521 139.007 149.037 139.73C150.802 142.196 156.447 159.484 156.447 162.42C156.447 164.03 156.997 165.348 157.67 165.348C158.343 165.348 158.894 164.757 158.894 164.034C158.894 161.394 165.076 162.78 167.689 166.005C170.545 169.531 173.525 170.116 177.374 167.905C178.7 167.143 181.953 166.425 184.604 166.312C187.254 166.199 189.696 165.344 190.029 164.414C190.869 162.06 194.381 162.284 194.381 164.691C194.381 165.775 195.345 166.644 196.523 166.62C199.032 166.571 202.947 163.645 202.947 161.819C202.947 161.122 204.324 159.163 206.006 157.466C207.689 155.768 209.066 153.791 209.066 153.07C209.066 152.35 209.808 150.827 210.715 149.687C211.622 148.545 213.074 144.789 213.942 141.338C214.81 137.888 215.952 134.777 216.481 134.426C221.302 131.227 247 129.245 247 132.072C247 133.635 241.042 141.988 239.352 142.795C238.847 143.037 238.434 144.332 238.434 145.673C238.434 147.016 237.919 148.456 237.289 148.875C236.659 149.293 236.208 150.658 236.289 151.908C236.369 153.158 236.021 155.925 235.514 158.054C234.816 160.997 234.336 161.478 233.516 160.054C232.606 158.471 232.098 158.538 230.235 160.489C220.503 170.686 220.662 170.603 210.912 170.603C202.403 170.603 201.723 170.807 201.723 173.354C201.723 174.999 200.741 176.38 199.276 176.791C195.84 177.757 196.228 180.104 200.5 184.19C205.424 188.9 205.125 190.31 199.207 190.31C195.177 190.31 193.566 191.106 190.642 194.544C188.66 196.872 187.039 200.025 187.039 201.55C187.039 203.075 186.765 204.616 186.431 204.976C186.096 205.335 182.061 201.591 177.464 196.655C168.838 187.394 164.548 185.505 161.397 189.58C160.59 190.625 157.231 192.442 153.933 193.617C147.544 195.896 143.263 195.218 135.032 190.626C126.908 186.094 122.438 183.812 114.841 180.32C110.466 178.31 105.458 174.917 103.71 172.781C101.903 170.572 99.0445 168.728 97.0756 168.502C92.4157 167.969 86.6962 165.334 86.6962 163.719C86.6962 162.026 79.1681 154.887 77.3533 154.859C75.7442 154.834 72.7669 150.29 71.4649 145.874C70.8188 143.676 71.17 142.347 72.7216 141.129C76.2275 138.378 76.8736 131.854 74.7762 120.422C73.7973 115.09 72.0963 111.365 69.4947 108.857C69.1203 108.495 68.09 106.279 67.2052 103.93C66.3205 101.581 65.0993 99.6604 64.4911 99.6604C63.8829 99.6604 62.8623 98.1824 62.2223 96.376C61.5824 94.5695 60.4945 93.0916 59.8055 93.0916C59.1154 93.0916 58.5513 92.0247 58.5513 90.7202C58.5513 88.0664 51.0219 78.6403 48.9025 78.6403C46.8907 78.6403 47.2431 76.0521 49.3736 75.1745C52.0743 74.0617 51.6399 69.319 48.7617 68.5111C47.4157 68.1327 46.3143 66.7797 46.3143 65.5027C46.3143 64.2257 45.1604 62.858 43.7507 62.4625C41.619 61.8635 41.3229 61.0831 41.9898 57.8237C42.669 54.5051 42.3594 53.7589 39.9683 52.9444C34.2022 50.979 30.536 40.879 30.2228 26.09C30.0453 17.7319 29.5828 15.7652 27.177 13.1298C25.6168 11.4206 23.5818 10.3341 22.6567 10.7164C21.7304 11.0974 19.5399 9.9833 17.7888 8.23995C13.6295 4.09899 12.9112 4.24092 13.8865 9.01117C14.3368 11.2117 14.1838 12.9524 13.5414 12.9524C12.9075 12.9524 12.0179 16.8398 11.5651 21.5903C10.8615 28.9618 11.105 30.8614 13.2318 34.5544C14.6011 36.9336 15.722 39.6058 15.722 40.4939C15.722 41.3806 16.8258 43.7691 18.1731 45.8028C19.5216 47.8351 20.3096 50.3827 19.923 51.4626C19.5375 52.5425 20.3623 55.9582 21.7548 59.0534C23.1486 62.1499 24.2879 65.7745 24.2879 67.1093C24.2879 68.4441 25.0588 70.8456 26.0023 72.4458C27.817 75.5278 29.4714 85.758 29.2573 92.5777C29.1239 96.8488 31.8234 100.498 34.0321 99.0336C34.7394 98.5633 35.6303 99.2518 36.0108 100.563C36.3914 101.873 37.259 104.05 37.9382 105.399C38.8094 107.13 38.7385 108.29 37.6959 109.34C36.586 110.457 36.0549 110.337 35.5605 108.857C35.1983 107.773 31.6863 103.288 27.757 98.8891L20.6131 90.8935L21.3547 83.1241C22.0412 75.9391 21.8576 75.1167 18.9097 72.1712C17.1562 70.4187 15.722 67.9068 15.722 66.5878C15.722 65.2687 15.1714 64.1889 14.4983 64.1889C13.8253 64.1889 13.2746 64.7801 13.2746 65.5027C13.2746 68.0619 10.5703 66.7573 6.46356 62.2183C3.19263 58.6015 2.77044 57.6202 4.48606 57.6202C5.68528 57.6202 7.27975 58.2782 8.02866 59.0822C8.77755 59.8863 9.98901 60.1464 10.7208 59.6617C12.4743 58.4977 12.4389 53.6789 10.678 53.6789C9.72348 53.6789 9.76508 53.0824 10.8138 51.7252C13.0568 48.8245 11.2849 43.2016 6.4354 37.8296C2.60769 33.5888 2.15861 32.2856 1.67892 24.0352C1.38768 19.0232 0.89085 12.1444 0.575137 8.74833L0 2.57373L5.71955 1.76707Z" fill="#037FB2"/>
<path d="M274.168 121.307C274.675 117.754 279.814 114.123 286.257 112.765C292.234 111.505 307.156 111.864 312.19 113.388C313.888 113.903 316.388 115.349 317.747 116.602C319.105 117.854 322.234 119.564 324.699 120.4C327.164 121.238 330.167 123.079 331.374 124.494C332.581 125.908 334.314 127.065 335.228 127.065C336.142 127.065 336.889 128.012 336.889 129.171C336.889 130.504 337.569 131 338.742 130.521C339.761 130.107 340.594 130.33 340.594 131.018C340.594 131.706 343.056 132.926 346.065 133.73C349.693 134.699 351.329 135.765 350.92 136.895C350.505 138.042 351.919 138.887 355.259 139.486C357.983 139.973 360.841 141.177 361.609 142.159C363.299 144.319 359.847 145.058 344.627 145.794C335.667 146.226 334.748 146.067 336.908 144.462C338.257 143.46 339.359 141.53 339.359 140.173C339.359 138.281 338.307 137.61 334.853 137.299C330.517 136.908 329.872 136.283 326.998 129.686C326.528 128.605 324.532 127.542 322.562 127.324C318.037 126.825 310.955 123.416 310.955 121.737C310.955 121.032 309.575 120.83 307.867 121.285C305.965 121.792 304.78 121.55 304.78 120.655C304.78 119.857 303.732 119.203 302.454 119.203C301.166 119.203 299.84 118.033 299.481 116.582C298.958 114.455 297.797 113.962 293.329 113.962C289.693 113.962 286.756 114.851 284.682 116.582C282.956 118.024 280.407 119.203 279.02 119.203C277.633 119.203 275.893 120.235 275.156 121.496C273.908 123.627 273.839 123.612 274.168 121.307Z" fill="#CDD9E7"/>
<path d="M286.255 128.375C285.575 128.375 285.02 127.786 285.02 127.065C285.02 126.344 285.575 125.755 286.255 125.755C286.934 125.755 287.49 126.344 287.49 127.065C287.49 127.786 286.934 128.375 286.255 128.375Z" fill="#CDD9E7"/>
<ellipse cx="483" cy="217.5" rx="2" ry="1.5" fill="#9BBACE"/>
<path fill-rule="evenodd" clip-rule="evenodd" d="M456.347 162.95C456.685 162.95 456.959 162.655 456.959 162.292C456.959 161.929 456.685 161.635 456.347 161.635C456.008 161.635 455.734 161.929 455.734 162.292C455.734 162.655 456.008 162.95 456.347 162.95ZM467.988 169.523C468.665 169.523 469.214 168.935 469.214 168.209C469.214 167.483 468.665 166.894 467.988 166.894C467.311 166.894 466.763 167.483 466.763 168.209C466.763 168.935 467.311 169.523 467.988 169.523Z" fill="#75D0D1"/>
<path fill-rule="evenodd" clip-rule="evenodd" d="M479.017 176.096C479.694 176.096 480.243 175.508 480.243 174.782C480.243 174.055 479.694 173.467 479.017 173.467C478.34 173.467 477.792 174.055 477.792 174.782C477.792 175.508 478.34 176.096 479.017 176.096ZM478.405 182.67C479.42 182.67 480.243 181.787 480.243 180.698C480.243 179.609 479.42 178.726 478.405 178.726C477.389 178.726 476.566 179.609 476.566 180.698C476.566 181.787 477.389 182.67 478.405 182.67Z" fill="#003479"/>
</svg>
