<svg width="947" height="609" viewBox="0 0 947 609" fill="none" xmlns="http://www.w3.org/2000/svg">
<path d="M884.701 1.00191C889.78 1.49323 893.725 1.36517 893.725 0.709207C893.725 0.0676136 897.999 -0.185927 903.223 0.145977C908.448 0.476574 919.479 0.829433 927.736 0.930049C935.994 1.02936 942.751 1.51149 942.749 2.0002C942.749 2.49022 943.991 3.11219 945.507 3.38268C949.724 4.13665 927.728 6.15557 914.24 6.25227C905.199 6.3176 902.422 6.73703 902.866 7.97187C903.275 9.11001 901.976 9.60525 898.589 9.60525C895.083 9.60525 893.725 10.1528 893.725 11.5653C893.725 12.6433 894.415 13.5633 895.257 13.6077C896.1 13.6534 895.502 14.2402 893.93 14.9131C892.357 15.5848 889.738 15.7782 888.108 15.3417C886.31 14.8608 885.146 15.1183 885.146 15.9977C885.146 16.881 882.522 17.4455 878.405 17.4455C871.637 17.4455 869.269 19.2919 874.421 20.5516C875.938 20.9227 874.146 20.9618 870.438 20.6378C866.731 20.315 862.539 19.7126 861.122 19.2997C859.508 18.8293 857.71 19.4408 856.303 20.937C854.544 22.8095 852.454 23.2591 846.622 23.0186C838.583 22.6867 824.771 26.2867 825.518 28.5185C825.765 29.2555 828.94 29.7743 832.575 29.6697C838.942 29.4881 838.83 29.7835 831.525 32.4308C830.009 32.981 828.767 33.9505 828.767 34.5856C828.767 35.2193 826.01 35.7394 822.639 35.7394C818.219 35.7394 816.511 36.2464 816.511 37.5597C816.511 40.1247 813.743 40.9662 805.299 40.9662C797.284 40.9662 791.667 38.8808 794.556 36.9769C797.617 34.9593 794.405 33.8773 790.42 35.5839C788.255 36.5117 785.381 37.557 784.033 37.9085C781.735 38.507 781.715 38.4299 783.726 36.6724C784.905 35.6414 785.871 33.8342 785.871 32.6556C785.871 30.0422 790.592 29.8004 796.575 32.1081C799.473 33.224 800.968 33.2854 801.565 32.3093C802.033 31.5423 803.933 30.5191 805.787 30.0356C811.289 28.5996 809.818 26.335 803.949 27.2027C797.791 28.1134 795.497 26.8198 795.018 22.168C794.694 19.024 795.032 18.7522 799.278 18.7522C804.34 18.7522 811.609 21.0376 811.609 22.6292C811.609 24.0457 819.003 25.1642 822.99 24.3528C827.691 23.3936 827.126 21.3656 822.158 21.3656C819.591 21.3656 817.729 20.6156 817.293 19.4056C816.693 17.7369 818.585 17.4455 830.031 17.4455C838.176 17.4455 843.475 16.9307 843.475 16.1388C843.475 15.4201 845.681 14.8321 848.377 14.8321C853.088 14.8321 854.942 13.1516 851.748 11.777C850.906 11.415 852.007 11.0714 854.199 11.0152C856.39 10.959 858.182 10.2481 858.182 9.43665C858.182 7.76145 841.908 9.00812 838.516 10.9447C837.431 11.5627 833.692 12.4721 830.205 12.9648C824.722 13.741 823.865 13.562 823.865 11.6372C823.865 9.80386 822.828 9.47065 817.978 9.74506C814.74 9.928 811.57 9.75029 810.931 9.35043C810.293 8.95189 808.116 8.80685 806.094 9.0303C804.071 9.25244 799.383 9.69021 795.676 10.0025C791.968 10.3148 791.004 10.3187 793.531 10.0116C798.342 9.42881 799.65 7.60338 795.982 6.5933C794.803 6.26793 799.215 6.31362 805.787 6.69387C813.846 7.16037 817.737 6.93174 817.737 5.99091C817.737 5.22387 817.048 4.3 816.205 3.93674C815.363 3.57478 816.631 3.2311 819.024 3.17492C821.417 3.11873 823.899 3.61794 824.539 4.28567C825.179 4.95209 829.288 5.77922 833.67 6.12027C838.051 6.46263 843.152 7.15648 845.007 7.66218C849.162 8.79509 849.674 6.12943 845.62 4.47644L842.862 3.35269L845.926 2.63266C853.039 0.961382 866.565 0.370746 867.335 1.69705C868.395 3.52644 873.746 3.45722 874.823 1.60039C875.407 0.594226 878.522 0.404743 884.701 1.00191Z" fill="#2C4395"/>
<path d="M755.231 13.5254C757.927 13.5254 760.133 12.8981 760.133 12.1311C760.133 10.0456 765.37 12.1716 767.25 15.0189C768.13 16.3544 769.89 17.4455 771.161 17.4455C772.431 17.4455 773.811 18.0335 774.228 18.7522C774.644 19.4709 776.165 20.0589 777.609 20.0589C779.65 20.0589 779.906 20.4078 778.762 21.627C776.202 24.3567 777.161 25.521 781.275 24.6794C784.37 24.047 784.796 24.1738 783.186 25.2505C782.046 26.0123 778.185 26.6956 774.606 26.7675C771.028 26.8394 766.445 27.7959 764.423 28.8923C757.412 32.6935 756.483 33.126 755.337 33.126C754.704 33.126 754.006 32.1394 753.788 30.932C753.424 28.9184 753.232 28.9106 751.424 30.838C750.34 31.9931 747.307 33.275 744.683 33.6866C742.058 34.0995 740.6 34.093 741.442 33.6722C743.793 32.5001 743.261 30.5126 740.596 30.5126C739.287 30.5126 737.876 29.9246 737.459 29.2059C736.976 28.3735 740.511 27.8992 747.192 27.8992C755.227 27.8992 757.682 27.4823 757.682 26.1194C757.682 24.1136 742.712 21.904 740.164 23.5347C739.258 24.1136 739.337 23.6236 740.366 22.2699C741.292 21.0533 742.809 20.0589 743.737 20.0589C744.666 20.0589 745.426 19.4709 745.426 18.7522C745.426 18.0335 746.529 17.4455 747.877 17.4455C749.239 17.4455 750.328 16.5739 750.328 15.4854C750.328 14.0703 751.69 13.5254 755.231 13.5254Z" fill="#2C4395"/>
<path d="M807.64 14.4231C806.469 14.7498 804.263 14.7615 802.738 14.4492C801.213 14.1369 802.172 13.8691 804.868 13.8547C807.564 13.8403 808.812 14.0964 807.64 14.4231Z" fill="#2C4395"/>
<path d="M735.314 20.9593C734.135 21.2886 732.204 21.2886 731.025 20.9593C729.846 20.6313 730.81 20.3621 733.17 20.3621C735.529 20.3621 736.493 20.6313 735.314 20.9593Z" fill="#2C4395"/>
<path d="M673.501 31.3254C673.857 30.3349 673.53 28.8648 672.774 28.0586C671.758 26.9753 672.422 26.5925 675.321 26.5925C678.012 26.5925 679.243 27.2157 679.243 28.5773C679.243 30.0448 680.045 30.3479 682.323 29.7377C684.06 29.2738 686.173 29.5966 687.171 30.4786C688.144 31.3397 689.556 31.6377 690.31 31.1411C691.113 30.6119 691.008 31.3959 690.057 33.0371C687.872 36.807 682.95 38.0876 681.472 35.2703C680.811 34.0119 678.799 33.126 676.599 33.126C673.92 33.126 673.037 32.6138 673.501 31.3254Z" fill="#2C4395"/>
<path d="M705.642 34.0185C704.668 32.9796 704.255 31.7213 704.724 31.2222C705.957 29.9063 712.658 31.5736 713.772 33.4723C715.176 35.8662 707.837 36.3588 705.642 34.0185Z" fill="#2C4395"/>
<path d="M777.137 32.4883C773.496 32.8425 772.388 32.619 773.632 31.7801C775.551 30.4865 784.319 29.9899 783.145 31.2404C782.77 31.6403 780.066 32.2022 777.137 32.4883Z" fill="#2C4395"/>
<path d="M629.912 32.7196C628.733 33.0489 626.801 33.0489 625.622 32.7196C624.443 32.3917 625.408 32.1224 627.767 32.1224C630.126 32.1224 631.091 32.3917 629.912 32.7196Z" fill="#2C4395"/>
<path d="M607.766 40.1535C603.051 40.7206 600.894 40.5599 601.404 39.6818C601.827 38.9513 605.266 38.3528 609.047 38.3528C617.583 38.3528 617.099 39.0323 607.766 40.1535Z" fill="#2C4395"/>
<path d="M758.09 40.8748C756.053 40.7911 756.071 40.6788 758.295 39.6726C761.264 38.3267 765.292 39.3511 766.629 41.7907C767.879 44.0723 780.057 44.2095 783.406 41.979C785.391 40.6579 786.083 40.7572 787.372 42.5474C788.367 43.9299 791.384 44.9426 795.676 45.3385C799.383 45.6795 802.692 46.0323 803.029 46.1225C803.367 46.2127 802.263 47.1261 800.578 48.1531C796.585 50.5862 791.911 50.5901 787.543 48.1609C783.68 46.0127 779.743 45.575 779.743 47.2933C779.743 47.8983 776.162 48.242 771.785 48.0577C767.408 47.8722 763.515 48.259 763.133 48.9162C762.206 50.5156 757.682 50.4529 757.682 48.8417C757.682 48.1244 755.005 47.769 751.554 48.0277C748.183 48.2786 745.426 47.9689 745.426 47.3391C745.426 46.7092 747.218 46.1343 749.409 46.0624C754.976 45.8808 759.249 44.4473 759.838 42.563C760.112 41.6849 759.327 40.9244 758.09 40.8748Z" fill="#2C4395"/>
<path d="M789.854 40.9466C788.021 40.9296 787.977 40.7415 789.548 39.6595C791.861 38.0653 791.999 38.0653 791.999 39.6595C791.999 40.3782 791.033 40.9571 789.854 40.9466Z" fill="#2C4395"/>
<path d="M646.151 42.2729C645.477 42.2729 644.925 41.6849 644.925 40.9662C644.925 40.2476 645.477 39.6595 646.151 39.6595C646.825 39.6595 647.377 40.2476 647.377 40.9662C647.377 41.6849 646.825 42.2729 646.151 42.2729Z" fill="#2C4395"/>
<path d="M739.604 41.8313C738.762 42.1945 737.383 42.1945 736.54 41.8313C735.698 41.4693 736.387 41.1727 738.072 41.1727C739.757 41.1727 740.447 41.4693 739.604 41.8313Z" fill="#2C4395"/>
<path d="M534.62 52.2235C534.62 51.0292 538.689 49.2913 546.57 47.1221C560.169 43.3758 574.893 42.303 570.743 45.3607C567.079 48.0577 560.358 48.783 560.358 46.4806C560.358 45.2301 559.645 44.9008 558.213 45.4914C557.034 45.9775 554.54 46.7053 552.672 47.1064C550.805 47.5089 548.98 48.3491 548.617 48.975C548.254 49.6009 546.473 50.1315 544.659 50.155C542.845 50.1772 540.29 51.0592 538.982 52.115C536.003 54.5181 534.62 54.5521 534.62 52.2235Z" fill="#2C4395"/>
<path d="M708.047 49.2782C704.82 50.598 701.86 50.2661 698.073 48.1609L694.563 46.2088L700.691 46.2205C707.549 46.2349 711.487 47.8709 708.047 49.2782Z" fill="#2C4395"/>
<path d="M604.697 55.2368C605.42 53.0246 607.185 50.7103 608.617 50.0936C612.082 48.6013 613.06 48.5752 613.06 49.9734C613.06 50.615 612.232 51.4787 611.221 51.8929C610.21 52.3059 609.383 53.4779 609.383 54.4972C609.383 56.6506 616.751 58.2723 618.514 56.5069C619.153 55.8653 620.808 55.3662 622.19 55.3975C624.013 55.4393 623.357 56.2116 619.8 58.2122C615.761 60.4845 612.365 61.0307 600.497 61.3169C592.577 61.5077 586.096 61.1457 586.096 60.5133C586.096 59.8808 583.319 59.4862 579.924 59.6378C576.425 59.7946 573.373 59.2797 572.877 58.4486C572.237 57.3784 570.352 57.4517 565.873 58.7179C562.503 59.6718 557.815 60.3983 555.456 60.3343C551.43 60.2245 551.504 60.154 556.681 59.1805C565.929 57.4399 568.94 56.4011 568.238 55.191C567.869 54.5547 568.979 54.0333 570.704 54.0333C573.967 54.0333 574.97 52.1242 572.308 50.9782C571.466 50.6163 572.016 50.2726 573.534 50.2164C575.123 50.1563 576.161 50.8057 575.985 51.7466C575.808 52.6874 577.214 53.5668 579.304 53.819C581.297 54.0621 583.843 55.3844 584.962 56.7591C586.588 58.7571 588.645 59.2602 595.189 59.2602C603.238 59.2602 603.405 59.1883 604.697 55.2368Z" fill="#2C4395"/>
<path d="M666.811 54.0529C667.74 54.0425 668.18 53.2153 667.808 52.1817C667.282 50.7208 668.532 50.3432 673.732 50.3928C681.297 50.4647 680.981 51.3768 671.428 57.0296C667.71 59.2314 663.774 60.5081 661.01 60.4101L656.569 60.2533L662.084 58.8982C668.733 57.2661 669.281 56.8597 666.951 55.2891C665.538 54.3365 665.508 54.0686 666.811 54.0529Z" fill="#2C4395"/>
<path d="M708.351 59.822C710.648 57.6555 712.334 54.8042 712.334 53.0885C712.334 50.6855 713.01 50.1132 715.841 50.1132C718.939 50.1132 719.278 50.5013 718.75 53.4466C718.205 56.486 718.435 56.7043 721.372 55.9176C723.769 55.276 724.59 55.5544 724.59 57.0061C724.59 59.2131 729.884 61.1902 730.516 59.2184C730.743 58.514 731.444 58.2775 732.075 58.693C734.64 60.3826 748.978 60.282 756.226 58.5231C766.331 56.0717 777.36 56.0914 780.428 58.565C781.736 59.6208 782.201 60.5028 781.462 60.5251C780.723 60.5486 778.846 61.7429 777.292 63.1803C773.696 66.5058 761.359 67.0115 761.359 63.8336C761.359 61.4567 760.758 61.4031 757.295 63.473C753.374 65.8146 727.042 66.1622 727.042 63.8715C727.042 62.1715 724.818 62.4472 716.332 65.2005C714.402 65.8264 713.367 65.4736 712.839 64.0061C712.253 62.378 711.563 62.2212 709.693 63.2887C705.159 65.876 704.297 63.6455 708.351 59.822Z" fill="#2C4395"/>
<path d="M529.386 52.2092C528.979 52.643 527.921 52.69 527.037 52.3124C526.059 51.8955 526.35 51.5858 527.778 51.5231C529.07 51.4669 529.793 51.7753 529.386 52.2092Z" fill="#2C4395"/>
<path d="M658.752 55.3204C656.802 55.3348 656.238 54.7703 656.759 53.3237C657.158 52.2143 657.83 51.7662 658.253 52.3281C658.674 52.89 659.572 53.789 660.246 54.3247C660.92 54.8618 660.248 55.3086 658.752 55.3204Z" fill="#2C4395"/>
<path d="M564.929 53.5159C564.522 53.9497 563.464 53.9967 562.58 53.6191C561.602 53.2022 561.893 52.8925 563.32 52.8298C564.612 52.7736 565.335 53.082 564.929 53.5159Z" fill="#2C4395"/>
<path d="M681.037 63.635C679.229 62.8954 679.337 62.557 681.857 61.0673C685.019 59.1987 695.176 58.6172 695.176 60.3055C695.176 63.8846 686.589 65.9061 681.037 63.635Z" fill="#2C4395"/>
<path d="M562.197 66.8887C558.223 66.809 558.921 66.4824 565.873 65.1626C577.549 62.9451 583.729 62.9856 574.453 65.2175C570.408 66.1896 564.893 66.9423 562.197 66.8887Z" fill="#2C4395"/>
<path d="M485.104 74.154C484.11 71.3929 487.188 69.8824 494.831 69.3806C510.38 68.3601 511.16 68.4084 513.129 70.5082C515.3 72.8224 517.891 73.0486 525.792 71.6151C530.203 70.8154 531.432 71.0872 533.358 73.2903C535.642 75.905 535.598 75.9324 526.253 77.6128C521.081 78.5432 515.746 79.5089 514.398 79.7585C508.806 80.7908 488.347 88.3462 484.37 90.8459C482.011 92.3277 477.323 94.0408 473.952 94.6524C470.582 95.2626 466.033 96.142 463.841 96.6071C460.56 97.3023 459.858 97.0475 459.858 95.1606C459.858 93.8997 458.892 92.1081 457.713 91.1765C455.767 89.6411 455.985 89.2975 460.081 87.4589C462.563 86.3456 464.939 84.8364 465.362 84.1072C465.785 83.3781 467.201 82.7809 468.51 82.7809C469.818 82.7809 470.888 82.1954 470.888 81.4794C470.888 80.7646 474.22 79.1913 478.291 77.9839C483.153 76.5426 485.492 75.2281 485.104 74.154Z" fill="#2C4395"/>
<path d="M675.147 74.3526C674.615 72.876 675.866 72.3729 680.837 72.0659C684.341 71.8503 688.86 72.1142 690.877 72.6539C692.895 73.1923 696.48 73.3308 698.844 72.9597C702.817 72.3364 702.91 72.3951 700.078 73.741C698.393 74.5421 693.705 76.8563 689.66 78.883C683.347 82.0466 681.291 82.466 675.125 81.8479C668.349 81.1671 667.988 81.2755 668.724 83.7517C669.277 85.6086 668.869 86.5716 667.327 87.0447C666.129 87.4105 664.179 88.1371 662.993 88.6559C661.265 89.4151 660.903 89.0047 661.155 86.5782C661.589 82.4294 668.37 76.2474 672.488 76.2474C674.902 76.2474 675.639 75.722 675.147 74.3526Z" fill="#2C4395"/>
<path d="M636.197 77.5541C635.234 77.5541 635.203 77.0627 636.092 75.9207C637.462 74.1618 643.7 73.6392 643.7 75.283C643.7 75.8305 646.044 75.8958 648.909 75.428C654.996 74.4336 654.191 76.267 647.681 78.2205C642.35 79.8186 640.893 82.7809 645.437 82.7809C652.144 82.7809 647.575 89.2438 639.017 91.8612C636.079 92.7589 635.178 92.589 634.884 91.0772C634.581 89.5248 633.975 89.6764 631.802 91.8429C628.062 95.5709 625.564 95.222 623.113 90.6289C621.966 88.4781 620.129 86.7141 619.031 86.7088C617.934 86.7049 616.35 85.819 615.511 84.7409C614.587 83.5545 614.489 82.7809 615.261 82.7809C615.962 82.7809 617.408 82.4242 618.474 81.9877C619.785 81.452 620.413 81.9316 620.413 83.4669C620.413 85.3695 621.223 85.623 625.411 85.0232C628.159 84.6312 631.434 83.3193 632.688 82.1105C633.94 80.9005 635.552 80.2981 636.269 80.7699C636.986 81.2416 637.572 80.7111 637.572 79.5912C637.572 78.4714 636.953 77.5541 636.197 77.5541Z" fill="#2C4395"/>
<path d="M597.362 79.5481C597.066 79.2319 597.15 78.0663 597.549 76.9569C598.287 74.908 605.706 74.0011 605.706 75.9612C605.706 77.1516 598.159 80.3961 597.362 79.5481Z" fill="#2C4395"/>
<path d="M695.176 88.8035C698.586 85.3773 710.797 78.8921 717.411 76.9961C721.023 75.9599 725.908 75.074 728.267 75.0282C732.347 74.9472 732.176 75.1353 724.769 78.8712C719.734 81.4101 717.2 83.4068 717.599 84.5175C717.939 85.4622 717.169 86.9336 715.888 87.7856C713.079 89.6568 712.96 91.102 715.402 93.7049C717.482 95.9224 717.005 96.1969 708.351 97.7532C705.333 98.2954 703.755 99.2806 703.755 100.62C703.755 102.089 704.357 102.37 705.9 101.622C707.079 101.051 710.664 100.532 713.864 100.47C718.205 100.384 720.384 99.5969 722.443 97.3729C725.116 94.4837 725.131 94.3335 722.908 92.5707C720.731 90.8446 720.785 90.706 723.958 89.8567C726.209 89.2543 727.641 89.5405 728.332 90.7335C729.536 92.8086 730.106 92.3421 731.261 88.3344C731.965 85.8935 731.645 85.3943 729.371 85.3943C727.865 85.3943 727.046 84.9526 727.551 84.4143C728.056 83.8759 731.45 83.3937 735.093 83.3428C742.619 83.2395 744.013 82.4229 741.71 79.4632C740.289 77.639 740.472 77.49 743.239 78.2309C745.03 78.7105 746.736 78.4648 747.203 77.6599C747.653 76.8824 750.746 76.2474 754.077 76.2474C759.725 76.2474 760.133 76.4682 760.133 79.5246C760.133 82.1288 759.126 83.2317 755.231 84.8938C751.425 86.5168 750.328 87.6837 750.328 90.1102C750.328 93.6109 752.274 94.0538 755.656 91.3228C756.901 90.3167 758.7 89.8135 759.655 90.2042C760.609 90.5936 762.223 90.1769 763.241 89.2753C764.774 87.9189 764.964 87.992 764.348 89.7038C763.783 91.2731 764.67 91.9814 768.054 92.6583C772.895 93.6266 775.231 92.5002 772.354 90.5872C771.171 89.8005 772.131 89.6594 775.147 90.1755C778.881 90.8158 779.743 90.5636 779.743 88.8322C779.743 87.4066 778.626 86.6618 776.372 86.5834C773.076 86.4684 773.089 86.4384 776.989 85.2375C779.845 84.3594 782.625 84.5515 786.794 85.9183C791.949 87.6079 792.184 87.8365 788.863 87.9162C786.801 87.9672 784.044 88.8897 782.735 89.9678C780.383 91.9056 780.384 91.9513 782.807 93.961C784.155 95.0783 785.096 96.8423 784.898 97.8812C784.475 100.1 785.218 100.233 788.281 98.4849C789.934 97.5415 790.706 97.6944 791.198 99.0625C792.095 101.554 796.763 101.145 800.767 98.2223C802.556 96.9169 805.59 95.9081 807.508 95.9812L810.996 96.1159L807.043 97.1168C799.973 98.9083 793.557 104.995 798.74 104.995C799.761 104.995 800.578 106.157 800.578 107.608C800.578 111.122 802.534 110.899 807.023 106.873C809.823 104.36 810.995 103.936 811.714 105.177C813.032 107.449 811.948 108.915 808.954 108.915C807.168 108.915 806.659 109.512 807.188 110.982C807.597 112.119 807.932 113.589 807.932 114.249C807.932 114.909 808.759 115.449 809.77 115.449C811.85 115.449 812.301 118.905 810.313 119.612C808.339 120.313 810.365 124.596 812.67 124.596C813.784 124.596 815.398 125.794 816.256 127.26C817.114 128.725 818.355 129.57 819.011 129.136C819.668 128.704 820.548 129.304 820.968 130.468C821.387 131.633 822.486 132.276 823.41 131.899C824.334 131.521 825.091 131.781 825.091 132.476C825.091 133.173 826.393 133.742 827.984 133.742C830.411 133.742 830.784 134.27 830.293 137.009C829.652 140.584 830.234 140.929 833.631 138.992C835.533 137.907 835.779 138.121 835.225 140.382C834.627 142.816 835.024 143.006 839.674 142.511C842.481 142.211 845.069 142.469 845.425 143.082C845.78 143.694 844.619 144.196 842.847 144.196C839.506 144.196 836.121 146.824 836.121 149.418C836.121 150.274 835.153 150.578 833.843 150.135C831.377 149.3 829.289 151.272 828.593 155.094C828.179 157.365 827.993 157.347 825.209 154.767L822.264 152.036L825.016 149.492C826.529 148.091 828.407 146.702 829.187 146.403C829.967 146.105 830.194 145.39 829.692 144.816C829.189 144.242 827.433 144.425 825.789 145.223C823.538 146.317 822.67 146.29 822.268 145.108C821.856 143.901 821.145 143.914 819.159 145.163C816.948 146.555 816.4 146.416 815.279 144.183C813.097 139.836 801.907 141.806 803.509 146.257C804.266 148.359 802.354 148.815 801.191 146.81C800.774 146.091 799.364 145.503 798.055 145.503C796.746 145.503 795.676 146.091 795.676 146.81C795.676 147.528 796.151 148.116 796.731 148.116C797.312 148.116 797.524 149.586 797.202 151.383C796.785 153.708 797.153 154.65 798.478 154.65C799.501 154.65 800.897 156.359 801.58 158.447C802.262 160.535 803.912 162.613 805.244 163.064C807.83 163.939 809.788 169.107 807.983 170.296C807.388 170.688 806.531 172.578 806.08 174.496C805.629 176.413 804.62 178.241 803.838 178.557C801.832 179.371 796.901 177.227 796.901 175.541C796.901 174.769 796.213 174.231 795.369 174.348C791.673 174.859 789.548 174.108 789.548 172.29C789.548 171.212 788.996 170.33 788.322 170.33C787.648 170.33 787.097 170.939 787.097 171.683C787.097 172.596 786.29 172.575 784.62 171.623C783.258 170.845 781.603 170.566 780.943 171.001C778.642 172.516 779.775 175.594 784.426 180.459C789.093 185.342 791.629 189.931 789.659 189.931C789.088 189.931 786.642 189.049 784.221 187.971C781.802 186.893 778.374 186.011 776.603 186.011C774.416 186.011 773.18 185.173 772.745 183.397C772.263 181.433 771.073 180.784 767.956 180.784C764.955 180.784 763.81 180.201 763.81 178.671C763.81 177.133 763.061 176.761 761.052 177.3C758.543 177.973 758.488 177.886 760.44 176.328C761.619 175.386 762.584 174.197 762.584 173.686C762.584 172.118 759.55 169.417 756.705 168.455C753.836 167.484 753.21 165.782 755.231 164.45C757.902 162.689 756.353 160.879 752.819 161.633C750.133 162.205 748.868 161.82 747.985 160.163C746.925 158.174 746.463 158.128 743.961 159.76C741.445 161.402 741.306 161.383 742.689 159.598C743.544 158.495 746.998 157.204 750.365 156.728C753.732 156.252 757.307 155.527 758.309 155.116C760.755 154.115 760.626 151.211 758.09 150.173C755.258 149.015 757.119 147.537 764.727 144.906C768.612 143.562 772.599 143.018 774.794 143.532C777.99 144.28 778.255 144.68 776.988 146.844C775.03 150.185 776.614 151.478 780.408 149.635C782.128 148.8 785.201 148.116 787.235 148.116C791.842 148.116 795.676 146.018 795.676 143.497C795.676 142.444 794.612 141.583 793.312 141.583C792.012 141.583 790.121 140.701 789.11 139.623C788.099 138.545 786.473 137.663 785.496 137.663C784.519 137.663 783.034 138.545 782.194 139.623C780.495 141.805 776.593 142.241 775.507 140.37C775.121 139.704 775.915 138.781 777.273 138.323C779.309 137.634 779.743 136.355 779.743 131.042C779.743 127.496 779.209 124.596 778.555 124.596C777.903 124.596 777.717 123.626 778.143 122.442C778.77 120.703 778.313 120.413 775.766 120.932C773.47 121.399 772.785 121.096 773.245 119.818C773.65 118.693 772.957 118.062 771.318 118.062C769.611 118.062 768.503 116.975 767.991 114.795C767.568 112.998 766.705 111.528 766.072 111.528C765.441 111.528 763.597 110.205 761.975 108.588C755.929 102.562 755.357 102.272 751.559 103.321C748.204 104.247 746.298 106.955 749.001 106.955C749.619 106.955 750.583 107.471 751.146 108.101C752.482 109.6 729.586 107.753 726.746 106.133C725.209 105.256 724.589 105.384 724.588 106.583C724.587 107.746 722.608 108.241 718.153 108.192C708.067 108.083 701.774 107.463 703.448 106.743C707.247 105.109 704.452 103.673 698.655 104.278C690.893 105.089 686.531 104.084 687.395 101.682C687.866 100.373 688.815 100.236 691.07 101.149C694.867 102.689 698.937 102.698 701.196 101.173C704.42 98.9971 699.691 95.8532 693.118 95.8048L687.209 95.7604L690.273 93.2058C691.958 91.7997 694.164 89.8188 695.176 88.8035Z" fill="#2C4395"/>
<path d="M765.955 77.5344C764.841 77.5201 764.808 77.2522 765.831 76.5544C767.264 75.577 780.662 75.8331 785.43 76.9281C786.872 77.26 788.357 78.376 788.728 79.4096C789.284 80.9567 787.469 81.2873 778.445 81.2873C769.765 81.2873 767.487 80.8993 767.487 79.4214C767.487 78.3943 766.798 77.5449 765.955 77.5344Z" fill="#2C4395"/>
<path d="M515.433 84.1242C518.908 83.3532 525.061 81.9185 529.105 80.9358C539.042 78.5223 542.518 78.6085 536.765 81.1253C534.238 82.2307 532.169 84.0027 532.169 85.0637C532.169 86.5808 533.15 86.8003 536.765 86.0908C539.294 85.5956 541.886 84.6482 542.526 83.9857C543.165 83.3232 545.923 82.8188 548.654 82.8646L553.617 82.9481L549.634 85.0611C547.443 86.2241 545.651 87.7293 545.651 88.4075C545.651 89.1158 547.346 89.2504 549.634 88.7238C551.825 88.2181 555.823 87.4798 558.52 87.0813C561.216 86.6827 564.388 85.4609 565.567 84.3672C567.494 82.5783 567.712 82.5874 567.712 84.4534C567.712 85.5955 567.144 88.1214 566.452 90.0644C564.85 94.5569 565.388 95.0522 570.718 93.9859C573.785 93.3718 575.066 92.4231 575.066 90.7649C575.066 87.9737 580.022 81.4742 582.152 81.4742C582.973 81.4742 583.645 81.0038 583.645 80.4301C583.645 78.6739 592.369 80.3569 593.049 82.2438C593.398 83.216 592.528 85.5772 591.116 87.4915C589.703 89.4072 588.547 91.771 588.547 92.7458C588.547 93.7219 587.444 95.2534 586.096 96.1511C584.748 97.0488 583.645 99.0559 583.645 100.612C583.645 102.793 584.837 103.842 588.854 105.197C594.25 107.018 595.033 109.872 589.945 109.17C588.352 108.95 586.019 109.767 584.758 110.984C582.895 112.782 582.119 112.89 580.619 111.561C579.103 110.22 578.621 110.346 577.931 112.261C577.469 113.545 576.022 115.736 574.715 117.129C572.519 119.471 571.787 119.539 565.085 118.023C561.064 117.112 557.349 115.46 556.748 114.314C555.77 112.452 555.193 112.492 550.963 114.713C548.378 116.069 543.782 117.628 540.748 118.178C525.264 120.981 506.877 123.382 503.568 123.03C500.016 122.654 499.94 122.527 501.987 120.359C505.181 116.975 503.375 115.449 496.175 115.449C489.949 115.449 484.025 112.769 485.879 110.79C487.337 109.236 506.294 107.813 516.849 108.467C527.985 109.155 531.939 107.709 527.873 104.434C525.964 102.896 521.561 102.456 507.759 102.423C498.041 102.4 490.503 101.94 491.007 101.401C491.512 100.863 497.808 99.5394 505 98.4614C519.157 96.3393 522.097 93.7364 509.895 94.1284C504.785 94.2917 501.86 93.7742 500.66 92.495C499.134 90.8681 499.212 90.6211 501.254 90.6211C502.547 90.6211 504.844 89.4752 506.36 88.0744C507.875 86.6723 511.958 84.8952 515.433 84.1242Z" fill="#2C4395"/>
<path d="M645.747 98.0746C646.603 98.4248 648.774 97.4787 650.569 95.9734C654.31 92.8373 658.407 92.3656 658.407 95.0718C658.407 96.2661 659.265 96.6712 660.858 96.2269C663.703 95.4337 664.248 98.1595 661.471 99.2951C659.428 100.131 658.932 103.688 660.858 103.688C661.533 103.688 662.084 104.217 662.084 104.864C662.084 105.511 659.326 106.746 655.956 107.608C651.797 108.672 649.783 109.869 649.686 111.332C649.563 113.197 649.468 113.179 648.983 111.202C648.253 108.222 647.535 108.315 643.917 111.855C641.83 113.898 640.745 114.296 640.365 113.162C640.065 112.264 638.807 111.528 637.569 111.528C634.581 111.528 631.444 110.19 631.444 108.918C631.444 108.353 633.65 106.951 636.346 105.801C641.045 103.797 642.931 101.126 639.717 101.029C638.875 101.003 639.535 100.185 641.187 99.2101C642.838 98.234 644.89 97.7231 645.747 98.0746Z" fill="#2C4395"/>
<path d="M818.35 105.444C814.933 105.998 814.19 105.881 815.898 105.056C818.252 103.919 824.816 103.179 823.763 104.168C823.483 104.432 821.046 105.007 818.35 105.444Z" fill="#2C4395"/>
<path d="M399.19 113.472C402.661 113.461 406.913 112.493 408.995 111.237C414.64 107.833 418.187 108.213 418.187 112.222C418.187 116.294 421.064 117.65 425.721 115.775C427.644 115.002 429.218 114.863 429.218 115.467C429.218 117.663 433.646 117.56 439.635 115.225C447.159 112.293 451.231 112.22 457.14 114.912C468.405 120.043 476.467 122.152 481.978 121.407C485.717 120.903 488.299 121.237 489.82 122.424C491.92 124.06 491.78 124.257 487.932 125.078C482.962 126.137 477.017 128.819 477.017 130.001C477.017 132.842 494.984 134.285 506.312 132.352C509.955 131.731 513.748 131.709 514.743 132.303C515.737 132.896 517.446 136.172 518.538 139.581C519.631 142.991 521.077 145.572 521.751 145.316C522.425 145.06 522.901 144.115 522.807 143.216C522.713 142.318 523.9 141.583 525.443 141.583C527.674 141.583 528.471 140.582 529.332 136.698C530.122 133.139 531.235 131.564 533.438 130.893C535.1 130.386 539.585 129.016 543.407 127.848C549.733 125.915 550.687 125.909 554.07 127.773C556.114 128.901 559.081 129.822 560.665 129.822C562.249 129.822 564.068 130.363 564.709 131.023C565.349 131.684 572.65 132.42 580.931 132.657C592.505 132.989 596.223 132.685 597 131.346C597.806 129.957 598.168 130.041 598.787 131.76C599.838 134.679 606.151 133.916 606.705 130.802C606.994 129.177 606.288 128.486 604.263 128.412C601.686 128.32 601.754 128.179 604.986 126.925C607.99 125.762 608.823 125.931 610.237 127.994C611.38 129.66 611.487 130.599 610.572 130.924C609.83 131.188 608.721 132.816 608.104 134.542C607.489 136.27 606.284 137.531 605.426 137.345C604.569 137.161 603.923 137.745 603.99 138.643C604.057 139.542 604.195 141.543 604.296 143.092C604.469 145.735 604.618 145.776 606.722 143.745C607.955 142.556 609.435 141.583 610.013 141.583C611.697 141.583 616.736 136.059 616.736 134.214C616.736 132.185 620.566 129.822 623.857 129.822C627.957 129.822 639.822 123.517 641.314 120.547C642.221 118.74 643.044 118.237 643.58 119.162C644.143 120.134 645.886 119.503 648.854 117.253C651.81 115.011 654.116 114.173 655.783 114.736C658.627 115.699 660.722 120.942 658.57 121.706C656.995 122.266 656.642 128.516 658.185 128.516C658.738 128.516 662.147 126.164 665.761 123.289C673.04 117.499 673.476 117.337 675.345 119.74C676.991 121.853 675.757 123.976 672.194 125.161C667.194 126.825 666.344 132.965 670.301 138.862C670.665 139.406 675.731 137.139 679.243 134.86C680.254 134.204 682.701 132.655 684.681 131.418C686.66 130.182 689.581 127.845 691.17 126.229C692.761 124.611 695.158 123.289 696.5 123.289C700.028 123.289 705.516 119.222 703.649 117.993C702.837 117.457 702.511 116.077 702.925 114.927C703.478 113.393 705.321 112.835 709.845 112.835C713.236 112.835 716.011 113.423 716.011 114.142C716.011 114.861 717.068 115.449 718.361 115.449C722.634 115.449 721.931 118.659 717.347 120.068L712.947 121.422L713.136 128.84C713.304 135.405 713.022 136.352 710.685 137.064C709.232 137.508 706.185 138.767 703.912 139.863C701.639 140.959 698.142 142.358 696.141 142.969C693.052 143.914 692.619 143.761 693.268 141.956C693.689 140.788 693.325 139.352 692.46 138.767C690.355 137.344 685.183 137.416 682.983 138.9C681.563 139.858 681.868 140.416 684.515 141.703C686.334 142.586 687.821 143.655 687.819 144.08C687.813 145.563 680.587 145.106 680.041 143.587C679.711 142.67 677.344 142.172 674.156 142.348C669.667 142.598 668.84 143.065 668.914 145.306C668.983 147.317 667.298 148.783 662.02 151.309C654.316 154.995 651.054 155.501 651.054 153.009C651.054 150.556 645.133 148.406 637.878 148.227C632.875 148.103 631.444 148.51 631.444 150.053C631.444 151.475 632.748 152.036 636.051 152.036C639.29 152.036 641.102 152.793 642.149 154.581C643.248 156.456 645.289 157.228 649.912 157.521L656.185 157.917L647.489 162.821C640.002 167.043 638.018 167.625 633.213 167.01C628.583 166.418 627.28 166.753 625.556 168.977C624.412 170.451 622.098 171.757 620.413 171.881C616.543 172.164 604.383 169.118 602.284 167.339C601.193 166.417 600.283 166.443 599.363 167.423C597.487 169.423 599.154 173.397 601.473 172.449C602.55 172.008 603.654 172.535 604.07 173.686C604.567 175.071 605.788 175.47 608.006 174.973C609.775 174.578 611.981 174.776 612.91 175.413C616.018 177.545 612.979 179.477 606.518 179.477C601.639 179.477 599.624 180.097 598.024 182.091C596.869 183.528 594.816 184.704 593.462 184.704C592.107 184.704 590.999 185.253 590.999 185.923C590.999 187.163 586.237 189.355 584.564 188.883C584.058 188.741 583.645 189.442 583.645 190.443C583.645 191.443 582.405 192.595 580.887 193.004C579.37 193.413 575.648 196.106 572.614 198.989C569.581 201.872 566.548 204.25 565.873 204.272C565.199 204.296 561.975 207.841 558.708 212.15C555.441 216.46 552.305 219.985 551.737 219.985C551.17 219.985 550.789 221.161 550.89 222.599C550.992 224.036 551.595 225.212 552.23 225.212C552.865 225.212 552.471 226.287 551.356 227.602C550.241 228.917 549.328 230.387 549.328 230.869C549.328 232.787 551.937 231.57 554.459 228.479C557.12 225.216 560.358 224.105 560.358 226.455C560.358 227.138 559.761 230.668 559.031 234.298C557.962 239.609 557.125 241.052 554.741 241.69C553.112 242.126 551.779 243.007 551.779 243.647C551.779 245.244 556.942 245.109 563.531 243.34C568.081 242.12 570.212 242.261 576.024 244.168C583.972 246.778 587.322 249.353 587.322 252.855C587.322 254.182 588.104 255.266 589.058 255.266C590.013 255.266 593.46 256.484 596.717 257.973C601.713 260.255 602.304 260.879 600.496 261.958C599.317 262.661 598.352 264.089 598.352 265.132C598.352 267.372 600.394 267.681 601.063 265.542C601.356 264.607 604.445 264.145 609.438 264.292C613.789 264.42 618.591 264.562 620.107 264.608C623.578 264.711 623.554 265.122 619.8 269.878C618.115 272.013 616.736 274.619 616.736 275.667C616.736 277.731 613.237 284.118 611.319 285.553C610.573 286.112 610.673 287.699 611.59 289.844C612.79 292.654 612.725 293.38 611.214 293.998C608.646 295.049 608.929 297.081 611.644 297.081C614.468 297.081 618.132 301.23 616.98 303.122C616.51 303.897 614.883 305.227 613.366 306.078C609.949 307.997 609.786 310.148 613.06 310.148C614.408 310.148 615.511 309.56 615.511 308.841C615.511 306.024 620.505 307.621 621.639 310.801C623.293 315.442 625.802 315.027 624.908 310.262C623.996 305.399 627.454 301.404 628.584 306.014C629.372 309.224 631.444 309.854 631.444 306.881C631.444 305.803 631.995 304.921 632.669 304.921C633.343 304.921 633.895 304.149 633.895 303.206C633.895 302.262 635.466 299.885 637.387 297.924C639.595 295.667 640.916 292.936 640.981 290.49C641.113 285.602 642.442 280.995 644.039 279.902C644.717 279.438 645.332 276.871 645.406 274.201C645.535 269.49 645.742 269.276 652.279 267.096C677.467 258.694 692.063 239.99 682.09 228.89C680.284 226.882 679.044 225.08 679.332 224.885C679.62 224.691 682.167 222.626 684.992 220.299C687.818 217.97 690.627 216.065 691.236 216.065C693.37 216.065 696.458 211.209 695.687 209.068C695.256 207.871 695.515 206.918 696.27 206.918C697.016 206.918 697.627 205.662 697.627 204.128C697.627 202.593 698.944 200.036 700.556 198.443C702.618 196.406 703.312 194.584 702.901 192.292C702.423 189.621 702.994 188.737 706.08 187.374C709.956 185.662 718.462 186.473 718.462 188.556C718.462 189.764 727.296 189.42 734.597 187.929C738.679 187.095 739.13 187.294 739.529 190.105C739.771 191.806 740.686 193.036 741.563 192.838C742.439 192.641 742.808 193.083 742.38 193.818C741.954 194.555 742.124 195.158 742.759 195.158C743.395 195.158 744.183 196.254 744.511 197.593C744.895 199.155 746.692 200.347 749.514 200.911C754.72 201.953 755.286 202.686 753.901 206.591C753.028 209.052 751.941 209.532 747.231 209.532C743.792 209.532 741.898 210.04 742.362 210.838C742.778 211.557 744.801 212.145 746.855 212.145C749.758 212.145 750.425 212.606 749.846 214.212C749.437 215.349 749.103 217.441 749.103 218.863C749.103 220.283 748.573 221.097 747.927 220.671C746.943 220.023 745.411 220.629 740.654 223.547C740.391 223.709 740.859 224.723 741.697 225.799C743.043 227.529 743.628 227.533 746.714 225.831C751.17 223.374 754.005 223.376 754.005 225.835C754.005 228.104 749.88 231.091 745.119 232.268C743.265 232.727 741.749 233.753 741.749 234.547C741.749 235.515 743.062 235.655 745.732 234.972C747.924 234.41 751.37 233.886 753.392 233.808C755.414 233.729 758.433 232.645 760.1 231.398C761.766 230.151 764.071 229.132 765.221 229.132C766.37 229.132 768.178 228.208 769.238 227.079C770.988 225.212 771.164 225.271 771.164 227.733C771.164 231.505 772.58 231.104 775.453 226.519C776.801 224.367 778.594 222.604 779.436 222.603C780.28 222.6 780.969 222.05 780.969 221.38C780.969 220.709 782.112 219.775 783.508 219.302C785.035 218.786 785.784 217.708 785.386 216.601C785.001 215.531 785.478 214.758 786.522 214.758C787.512 214.758 788.322 214.17 788.322 213.452C788.322 212.733 789.149 212.145 790.161 212.145C791.288 212.145 791.999 213.367 791.999 215.303C791.999 217.04 792.689 218.757 793.531 219.12C794.447 219.514 794.199 219.821 792.918 219.882C791.739 219.938 790.773 220.893 790.773 222.003C790.773 223.112 791.463 223.925 792.305 223.807C796.551 223.221 797.067 224.215 793.399 225.912C790.471 227.268 789.498 228.416 790.028 229.889C790.438 231.027 790.773 232.562 790.773 233.299C790.773 234.036 791.641 234.283 792.703 233.849C793.764 233.416 795.458 233.94 796.468 235.016C798.096 236.753 798.087 236.972 796.376 236.972C793.96 236.972 793.939 237.921 796.3 240.438C798.801 243.105 797.656 244.604 793.732 243.804C790.634 243.173 790.541 243.322 791.412 247.55C791.911 249.972 793.967 253.488 795.982 255.363C799.119 258.282 799.448 259.168 798.274 261.507C796.208 265.625 796.542 266.112 800.885 265.319C803.076 264.918 804.179 264.893 803.336 265.264C802.494 265.635 801.804 266.839 801.804 267.939C801.804 269.733 802.099 269.734 804.65 267.953C806.983 266.322 808.308 266.236 812.003 267.468C814.483 268.296 816.511 269.295 816.511 269.688C816.511 270.607 806.211 273.56 803.012 273.56C801.674 273.56 800.573 274.002 800.568 274.54C800.564 275.079 799.093 276.246 797.301 277.133C794.874 278.335 793.618 278.37 792.379 277.274C790.211 275.356 788.984 276.729 790.202 279.711C790.729 280.999 791.049 282.79 790.913 283.687C790.542 286.141 792.216 285.737 802.664 280.848C814.076 275.507 818.963 274.044 818.963 275.967C818.963 276.728 817.997 277.931 816.818 278.641C815.195 279.617 815.017 280.302 816.087 281.454C817.048 282.49 818.182 282.571 819.632 281.706C820.803 281.007 822.748 280.711 823.954 281.046C826.717 281.817 828.119 285.321 825.665 285.321C824.04 285.321 823.323 286.887 823.72 289.567C823.8 290.106 823.038 290.547 822.027 290.547C819.648 290.547 819.643 293.02 822.019 293.992C824.644 295.066 823.192 296.808 817.334 299.609C812.227 302.053 804.585 303.892 799.976 303.786C798.634 303.754 796.153 305.109 794.461 306.795C787.889 313.347 772.344 318.825 766.672 316.588C762.783 315.053 733.469 315.257 727.5 316.859C724.23 317.737 720.994 319.729 719.351 321.874C717.694 324.037 714.339 326.09 710.802 327.108C707.601 328.028 704.98 329.293 704.98 329.919C704.98 330.543 704.173 331.055 703.185 331.055C702.197 331.055 699.432 332.886 697.042 335.124C692.576 339.306 692.744 339.286 683.226 336.721C681.216 336.179 680.468 336.55 680.468 338.089C680.468 339.404 681.511 340.21 683.226 340.222C684.742 340.234 686.686 340.717 687.545 341.299C689.396 342.552 688.199 343.764 677.711 351.273C671.04 356.047 669.083 358.496 671.938 358.496C674.384 358.496 683.574 352.881 689.048 348.043C696.492 341.462 703.413 337.867 717.13 333.457C732.249 328.598 737.459 328.651 737.459 333.669C737.459 337.368 731.13 340.462 723.15 340.665C718.341 340.787 715.419 341.448 715.093 342.489C714.771 343.519 715.766 344.123 717.786 344.123C719.551 344.123 721.318 345.033 721.72 346.151C722.256 347.639 723.468 347.971 726.278 347.398L730.106 346.618L726.429 350.067C724.035 352.312 723.286 353.739 724.284 354.154C725.127 354.506 725.816 356.378 725.816 358.315C725.816 360.331 726.994 362.936 728.574 364.413C732.41 367.997 742.098 371.314 745.183 370.097C746.753 369.478 748.181 369.726 748.985 370.76C750.676 372.933 738.954 378.25 731.253 378.802C727.372 379.082 724.42 380.363 720.996 383.254C718.352 385.488 714.494 387.944 712.422 388.714C710.351 389.484 708.622 390.79 708.58 391.619C708.537 392.447 707.973 391.714 707.328 389.992C706.432 387.604 706.642 386.283 708.214 384.43C709.349 383.094 710.532 382.273 710.845 382.606C711.158 382.94 712.31 382.128 713.405 380.802C716.112 377.528 722.699 375.297 724.377 377.086C725.268 378.035 726.268 377.802 727.663 376.315C728.766 375.139 731.008 374.177 732.644 374.177C734.281 374.177 735.621 373.589 735.621 372.87C735.621 372.151 733 371.545 729.799 371.524C724.855 371.49 724.348 371.264 726.429 370.024C729.99 367.903 729.972 367.969 727.667 365.509C725.695 363.407 725.469 363.402 724.402 365.436C722.745 368.593 713.198 373.054 712.111 371.179C711.52 370.16 710.508 370.432 708.82 372.06C705.655 375.114 701.758 373.814 700.975 369.441C700.646 367.603 701.22 363.281 702.252 359.84C704.603 352.002 703.708 349.032 699.166 349.589C697.296 349.818 695.185 349.181 694.437 348.16C693.273 346.577 692.745 346.577 690.657 348.16C686.46 351.345 680.468 356.99 680.468 357.758C680.468 358.164 679.337 359.819 677.954 361.436C671.552 368.925 668.682 371.561 666.925 371.562C665.88 371.562 664.437 372.19 663.718 372.958C662.998 373.725 655.134 374.697 646.241 375.119C631.02 375.84 629.752 376.109 624.677 379.694C621.029 382.27 617.088 383.743 612.495 384.249C608.761 384.661 605.706 385.418 605.706 385.933C605.706 386.449 602.35 387.245 598.248 387.702C588.712 388.765 583.645 391.826 583.645 396.524C583.645 400.35 581.216 401.347 570.163 402.063C567.13 402.259 563.131 403.483 561.277 404.782C559.423 406.081 557.924 406.637 557.946 406.015C558 404.448 561.045 400.311 562.143 400.311C564.576 400.311 570.061 394.631 570.721 391.429C571.448 387.901 578.742 379.167 578.742 381.825C578.742 382.561 579.708 383.12 580.887 383.068C582.066 383.017 583.891 383.367 584.942 383.846C588.082 385.278 591.76 380.671 591.877 375.157C591.935 372.462 591.485 370.257 590.877 370.257C590.269 370.257 589.773 369.345 589.773 368.23C589.773 365.292 582.808 362.638 573.118 361.883C568.479 361.523 564.492 360.612 564.258 359.862C564.023 359.11 562.911 358.487 561.788 358.477C560.507 358.464 560.249 358.099 561.097 357.496C561.84 356.969 562.371 354.289 562.275 351.542C562.181 348.795 562.537 346.262 563.069 345.911C563.6 345.561 564.035 344.428 564.035 343.392C564.035 342.118 562.673 341.509 559.823 341.509C555.967 341.509 555.578 341.15 555.227 337.262C554.916 333.828 554.256 332.949 551.779 332.668C550.094 332.476 546.713 331.671 544.268 330.878C540.484 329.651 539.297 329.807 536.302 331.931C534.365 333.304 531.895 334.991 530.809 335.681C529.724 336.371 527.518 337.935 525.906 339.157C523.495 340.986 522.031 341.152 517.627 340.098C514.685 339.392 511.272 339.156 510.044 339.571C507.884 340.302 502.97 338.155 501.349 335.77C500.914 335.13 498.432 334.476 495.833 334.32C486.411 333.751 486.824 333.981 487.618 329.749C488.45 325.311 485.962 324.318 482.707 327.789C481.099 329.503 466.542 329.746 366.492 329.729C303.586 329.717 252.825 329.23 253.69 328.644C255.856 327.178 254.353 323.658 251.113 322.602C249.472 322.068 249.032 321.472 249.972 321.058C251.68 320.306 252.091 316.682 250.468 316.682C249.898 316.682 248.434 317.858 247.214 319.295C245.995 320.732 244.391 321.89 243.654 321.867C242.916 321.844 243.861 320.373 245.753 318.599C247.645 316.823 248.877 314.823 248.491 314.156C248.104 313.488 248.348 312.573 249.033 312.121C250.917 310.88 250.524 308.841 248.402 308.841C247.368 308.841 246.207 309.723 245.819 310.801C245.431 311.879 244.553 312.761 243.869 312.761C243.16 312.761 243.292 311.904 244.175 310.77C246.351 307.972 244.558 306.634 241.427 308.72C239.192 310.207 238.605 310.152 237.364 308.343C236.566 307.179 235.285 306.228 234.517 306.228C233.748 306.228 233.119 305.64 233.119 304.921C233.119 304.203 234.791 303.615 236.834 303.615C239.206 303.615 240.841 302.808 241.352 301.385C241.793 300.16 243.018 298.083 244.072 296.77C245.126 295.457 246.036 293.961 246.094 293.446C246.153 292.93 246.634 291.453 247.165 290.165C248.627 286.612 247.117 286.077 244.252 289.132C242.847 290.63 240.761 291.854 239.615 291.854C238.018 291.854 237.869 291.495 238.973 290.318C240.069 289.149 240.074 288.342 238.991 286.951C237.892 285.539 237.968 284.855 239.326 283.956C240.39 283.252 241.248 283.291 241.494 284.056C241.72 284.751 242.408 285.321 243.026 285.321C244.726 285.321 244.372 280.407 242.618 279.652C241.702 279.259 241.95 278.952 243.231 278.89C245.727 278.77 246.191 274.867 243.709 274.867C242.791 274.867 240.033 276.319 237.581 278.095C233.39 281.126 233.119 281.168 233.119 278.788C233.119 277.074 233.714 276.499 234.958 277.007C235.969 277.422 236.796 277.109 236.796 276.313C236.796 275.518 237.624 274.867 238.635 274.867C240.86 274.867 241.075 272.73 238.941 271.812C238.072 271.438 238.395 271.109 239.685 271.05C241.186 270.982 241.721 270.28 241.255 268.987C240.778 267.66 241.316 267.027 242.919 267.027C244.224 267.027 245.879 265.851 246.601 264.413C247.323 262.976 248.659 261.8 249.572 261.8C251.404 261.8 253.186 254.137 252.074 251.046C251.686 249.968 249.989 248.417 248.304 247.597C246.617 246.778 245.601 245.482 246.045 244.715C247.411 242.359 250.261 226.24 249.534 224.985C249.157 224.335 248.848 221.18 248.848 217.974C248.848 212.516 248.638 212.145 245.546 212.145C243.73 212.145 239.055 213.909 235.158 216.065C231.259 218.221 227.613 219.985 227.054 219.985C225.435 219.985 224.115 210.336 225.659 209.788C226.392 209.526 226.991 208.413 226.991 207.311C226.991 205.643 225.848 205.462 220.11 206.227L213.227 207.144L224.847 196.25C244.547 177.781 275.711 150.25 295.626 133.722C297.311 132.323 302.249 128.162 306.6 124.475C310.951 120.789 315.783 116.883 317.339 115.798C320.775 113.396 326.226 114.309 331.26 118.131C333.219 119.618 336.896 121.176 339.429 121.59C341.964 122.006 345.003 122.872 346.182 123.516C347.778 124.388 348.327 124.166 348.327 122.649C348.327 120.802 348.676 120.801 352.004 122.635C355.229 124.414 355.681 124.423 355.681 122.715C355.681 120.635 359.369 117.994 362.034 118.165C363.27 118.244 363.288 118.423 362.115 118.927C361.273 119.29 360.583 120.466 360.583 121.542C360.583 123.065 361.462 123.293 364.566 122.575C366.758 122.068 368.826 121.276 369.163 120.815C370.422 119.09 380.768 116.938 381.524 118.244C381.973 119.017 384.431 118.325 387.667 116.512C391.193 114.537 395.185 113.483 399.19 113.472Z" fill="#2C4395"/>
<path d="M827.848 109.78C827.006 110.143 825.627 110.143 824.784 109.78C823.942 109.418 824.631 109.122 826.316 109.122C828.001 109.122 828.691 109.418 827.848 109.78Z" fill="#2C4395"/>
<path d="M613.204 115.449C614.552 115.449 615.315 114.861 614.898 114.142C613.832 112.303 618.179 112.589 620.489 114.51C623.972 117.407 624.121 120.24 620.872 121.82C617.042 123.68 611.003 123.719 609.943 121.891C609.497 121.121 607.948 119.983 606.5 119.36L603.867 118.228L606.553 118.144C608.03 118.1 609.579 117.474 609.996 116.755C610.412 116.037 611.856 115.449 613.204 115.449Z" fill="#2C4395"/>
<path d="M580.202 118.042C578.416 118.024 578.383 117.846 579.968 116.755C582.368 115.101 583.99 115.101 583.032 116.755C582.615 117.474 581.342 118.053 580.202 118.042Z" fill="#2C4395"/>
<path d="M552.672 121.465C552.265 121.898 551.208 121.946 550.324 121.568C549.346 121.151 549.637 120.841 551.064 120.779C552.356 120.722 553.079 121.031 552.672 121.465Z" fill="#2C4395"/>
<path d="M543.506 124.154C542.664 124.517 541.285 124.517 540.442 124.154C539.6 123.792 540.289 123.495 541.974 123.495C543.659 123.495 544.349 123.792 543.506 124.154Z" fill="#2C4395"/>
<path d="M749.337 135.031C744.619 135.052 745.056 133.435 750.768 129.722C752.886 128.344 756.423 127.217 758.629 127.214C762.581 127.209 762.611 127.256 760.716 130.34C758.618 133.754 755.587 135.003 749.337 135.031Z" fill="#2C4395"/>
<path d="M656.824 167.942C657.218 166.741 660.356 162.678 663.796 158.915C670.215 151.894 671.875 150.82 671.907 153.67C671.918 154.569 672.47 156.185 673.133 157.263C674.207 159.005 674.476 159.005 675.566 157.263C676.335 156.031 677.133 155.789 677.711 156.613C678.217 157.331 680.009 158.688 681.694 159.624C683.379 160.563 685.861 162.214 687.209 163.298C689.523 165.156 689.54 165.36 687.516 166.962C684.302 169.504 684.888 170.33 689.905 170.33C693.265 170.33 694.082 170.712 693.061 171.8C691.077 173.916 683.796 172.134 681.69 169.017C679.828 166.264 675.015 165.494 673.713 167.742C672.851 169.227 663.036 174.701 658.608 176.165C656.025 177.019 655.875 176.852 657.076 174.459C658.981 170.667 658.798 170.345 655.037 170.84C653.182 171.084 652.665 171.024 653.886 170.707C655.107 170.388 656.429 169.144 656.824 167.942Z" fill="#2C4395"/>
<path d="M724.182 165.084C718.3 165.109 718.693 162.979 725.294 159.042C727.94 157.463 731.209 156.41 732.557 156.7C733.905 156.99 736.041 157.236 737.302 157.245C739.203 157.261 739.336 157.6 738.072 159.223C737.232 160.301 737.028 161.209 737.616 161.241C740.874 161.416 728.109 165.067 724.182 165.084Z" fill="#2C4395"/>
<path d="M712.002 176.346C711.595 176.78 710.537 176.827 709.654 176.45C708.676 176.033 708.966 175.723 710.394 175.66C711.686 175.604 712.409 175.913 712.002 176.346Z" fill="#2C4395"/>
<path d="M665.148 185.97C663.118 185.97 663.013 185.753 664.535 184.704C665.546 184.008 667.477 183.438 668.825 183.438C670.855 183.438 670.96 183.655 669.438 184.704C668.427 185.401 666.496 185.97 665.148 185.97Z" fill="#2C4395"/>
<path d="M690.273 189.931C686.274 193.267 684.378 193.267 687.209 189.931C688.429 188.494 690.307 187.331 691.382 187.346C692.805 187.367 692.504 188.07 690.273 189.931Z" fill="#2C4395"/>
<path d="M621.945 287.492C621.103 287.856 619.724 287.856 618.881 287.492C618.039 287.13 618.728 286.834 620.413 286.834C622.098 286.834 622.788 287.13 621.945 287.492Z" fill="#2C4395"/>
<path d="M237.204 300.084C235.708 299.471 235.67 299.125 237 298.226C239.444 296.574 240.478 296.852 239.721 298.959C239.349 299.991 238.217 300.498 237.204 300.084Z" fill="#2C4395"/>
<path d="M809.736 311.521C811.066 309.406 813.272 307.096 814.638 306.386C816.005 305.678 817.261 305.058 817.43 305.01C817.6 304.96 817.737 306.195 817.737 307.753C817.737 309.309 817.448 310.275 817.093 309.898C816.152 308.894 804.255 322.046 804.255 324.091C804.255 326.458 805.167 326.282 808.845 323.197C810.571 321.749 812.312 320.948 812.716 321.416C813.118 321.884 812.758 322.529 811.915 322.849C811.073 323.171 810.383 324.541 810.383 325.897C810.383 327.549 810.989 328.113 812.222 327.608C813.497 327.086 814.06 327.698 814.06 329.609C814.06 332.438 816.346 333.269 818.411 331.19C819.051 330.546 822.057 329.635 825.091 329.168L830.606 328.319L827.217 330.654C825.354 331.94 824.095 333.732 824.421 334.637C824.747 335.541 824.42 336.282 823.693 336.282C822.914 336.282 822.675 337.56 823.108 339.4C823.682 341.844 823.247 342.73 821.095 343.498C816.888 345.001 809.856 345.233 809.052 343.896C808.64 343.212 805.884 343.588 802.593 344.78C799.435 345.922 796.297 346.491 795.619 346.046C794.942 345.599 790.816 345.211 786.452 345.185C782.087 345.157 778.517 344.917 778.517 344.652C778.517 344.385 781.317 342.654 784.738 340.805C789.865 338.036 790.704 337.115 789.504 335.571C788.358 334.1 788.43 333.543 789.839 332.966C790.826 332.562 792.405 332.408 793.348 332.623C794.438 332.873 795.027 331.944 794.966 330.075C794.912 328.449 795.596 327.135 796.498 327.135C797.394 327.135 798.127 326.104 798.127 324.845C798.127 322.567 804.321 315.379 806.29 315.371C806.856 315.37 808.406 313.637 809.736 311.521Z" fill="#2C4395"/>
<path d="M219.336 317.598L222.732 316.117C225.138 315.069 227.685 315.022 231.462 315.956C236.557 317.216 236.796 317.489 236.796 322.046C236.796 325.427 237.538 327.342 239.346 328.621C241.335 330.03 241.709 331.211 241.05 334.007C240.124 337.944 238.412 338.483 235.082 335.886C233.096 334.339 233.075 334.028 234.848 332.46C237.013 330.543 237.477 327.135 235.571 327.135C234.897 327.135 234.345 327.723 234.345 328.442C234.345 329.161 233.242 329.749 231.894 329.749C230.546 329.749 229.443 328.984 229.443 328.049C229.443 323.85 226.221 319.116 222.857 318.374L219.336 317.598Z" fill="#2C4395"/>
<path d="M755.266 328.442C754.048 328.442 751.749 327.225 750.158 325.737L747.264 323.034L750.941 323.872C752.963 324.334 756.272 325.899 758.295 327.352C760.317 328.804 760.962 329.644 759.726 329.217C758.492 328.791 756.484 328.442 755.266 328.442Z" fill="#2C4395"/>
<path d="M825.24 353.27C826.137 353.27 826.029 352.501 824.934 351.065C823.453 349.125 823.521 348.968 825.497 349.758C826.732 350.252 828.254 350.656 828.878 350.656C829.503 350.656 829.325 351.832 828.483 353.27C826.889 355.991 823.865 356.847 823.865 354.576C823.865 353.858 824.484 353.27 825.24 353.27Z" fill="#2C4395"/>
<path d="M752.779 367.352C752.779 366.629 755.124 363.812 757.988 361.091C760.853 358.37 763.458 356.412 763.776 356.739C764.094 357.067 761.751 359.885 758.567 363C755.384 366.117 752.779 368.076 752.779 367.352Z" fill="#2C4395"/>
<path d="M490.727 285.678C492.059 278.852 492.036 277.412 490.579 276.372C486.813 273.684 481.447 275.008 477.539 279.59C473.857 283.907 473.753 284.349 474.862 290.99C475.496 294.79 476.867 299.932 477.907 302.416C479.686 306.661 479.642 307.18 477.167 311.101C475.718 313.395 474.843 316.182 475.222 317.294C476.12 319.934 479.543 319.902 480.446 317.246C480.834 316.106 481.788 315.173 482.564 315.173C485.012 315.173 487.493 309.234 488.338 301.354C488.786 297.174 489.861 290.12 490.727 285.678Z" fill="#9BBACE"/>
<path d="M472.102 184.479C476.675 183.938 479.163 181.298 476.679 179.623C472.729 176.96 461.644 178.349 453.535 182.523C444.072 187.393 435.018 188.95 435.018 185.707C435.018 184.536 434.052 183.573 432.873 183.569C431.694 183.564 429.118 182.665 427.148 181.572C422.504 178.988 420.777 180.684 422.546 186.091C423.776 189.857 423.673 190.111 420.897 190.111C419.267 190.111 415.696 191.355 412.959 192.876C409.969 194.538 405.553 195.68 401.891 195.739C398.54 195.792 395.807 196.166 395.816 196.567C395.89 199.434 398.296 200.61 408.508 202.775C412.091 203.535 424.73 201.008 427.172 199.042C427.914 198.446 431.385 197.379 434.888 196.671C438.391 195.962 444.126 193.864 447.635 192.007C453.747 188.771 464.943 185.327 472.102 184.479Z" fill="#9BBACE"/>
<path d="M442.22 140.567C443.854 139.422 443.854 139.137 442.22 137.993C440.006 136.443 429.13 136.398 425.594 137.925C423.412 138.867 412.151 141.13 393.825 144.312C390.55 144.88 388.802 145.914 388.526 147.447C388.063 150.014 390.068 150.293 396.873 148.61C399.232 148.027 401.852 147.795 402.694 148.096C405.16 148.978 404.454 151.04 401.688 151.04C400.291 151.04 398.321 151.922 397.31 153C396.299 154.078 394.408 154.96 393.109 154.96C388.703 154.96 390.536 158.726 395.341 159.547C397.869 159.978 401.04 160.605 402.388 160.94C405.844 161.797 423.823 155.961 423.83 153.98C423.837 152.085 424.804 151.905 432.8 152.305C437.005 152.514 439.386 151.939 441.082 150.302C442.392 149.039 444.646 147.366 446.092 146.583C449.052 144.981 451.694 141.105 450.613 139.953C450.221 139.534 447.31 140.13 444.145 141.276C440.979 142.422 437.458 143.098 436.322 142.778C435 142.407 435.361 142.135 437.318 142.025C439.003 141.93 441.209 141.274 442.22 140.567Z" fill="#9BBACE"/>
<path d="M211.572 104.59C214.774 104.531 219.874 103.72 222.907 102.787C230.382 100.488 230.258 100.488 230.258 102.721C230.258 105.045 231.381 105.173 235.842 103.352C238.155 102.407 239.621 102.441 240.773 103.468C241.723 104.315 243.974 104.56 246.137 104.049C248.492 103.494 249.863 103.693 249.863 104.591C249.863 105.372 250.933 106.011 252.242 106.011C253.55 106.011 254.934 106.558 255.318 107.225C255.705 107.897 260.017 108.113 264.991 107.709C270.389 107.271 275.677 107.587 278.261 108.503C280.623 109.339 289.123 110.333 297.149 110.711C306.982 111.173 312.281 111.973 313.4 113.164C315.189 115.071 316.537 113.77 288.46 137.217C275.051 148.416 275.606 147.93 261.415 160.839C255.976 165.787 249.121 171.909 246.181 174.442C243.243 176.975 235.228 184.378 228.371 190.892C221.515 197.406 214.723 203.766 213.279 205.025C209.546 208.282 209.901 211.285 214.023 211.309C216.649 211.325 216.987 211.612 215.555 212.605C213.049 214.345 207.285 214.254 206.731 212.468C206.449 211.56 202.252 210.994 195.564 210.962C184.888 210.909 180.792 209.49 186.71 207.895C188.423 207.433 189.823 206.232 189.823 205.225C189.823 202.955 189.877 202.954 184.347 205.434C181.845 206.558 180.157 206.854 180.594 206.092C181.033 205.332 180.696 204.709 179.848 204.709C178.649 204.709 178.633 204.358 179.776 203.13C182.383 200.33 181.349 199.132 177.072 199.994C174.397 200.532 172.729 200.296 172.43 199.335C172.098 198.265 170.299 198.443 166.148 199.956C159.709 202.304 155.515 202.687 155.515 200.926C155.515 200.293 157.169 199.419 159.191 198.985C161.213 198.55 162.867 197.513 162.867 196.682C162.867 195.658 161.576 195.474 158.884 196.109C156.695 196.628 152.731 197.287 150.077 197.574C147.423 197.862 144.694 198.697 144.012 199.43C143.33 200.161 141.772 200.761 140.549 200.761C138.214 200.761 137.235 201.186 128.928 205.8C126.099 207.371 122.712 208.657 121.401 208.657C120.09 208.657 118.701 209.545 118.312 210.631C117.925 211.717 116.212 212.605 114.505 212.605C112.8 212.605 111.404 213.05 111.403 213.592C111.403 214.134 107.13 214.593 101.907 214.612C91.8212 214.647 84.4473 216.957 84.4473 220.084C84.4473 221.584 85.5966 221.793 89.9771 221.088C94.757 220.318 95.4039 220.485 94.7472 222.324C94.2791 223.632 94.6271 224.459 95.6502 224.478C97.9195 224.517 88.0154 229.256 79.078 232.407C72.9111 234.582 71.1368 234.736 67.6949 233.399C65.4514 232.529 63.622 231.491 63.6269 231.093C63.6331 230.696 66.9414 228.771 70.9788 226.815C75.0174 224.858 78.3208 222.575 78.3208 221.739C78.3208 220.813 77.4827 220.584 76.1765 221.152C68.1912 224.629 67.1681 224.769 65.6867 222.593C64.3315 220.601 63.8107 220.639 59.1252 223.071C56.3254 224.524 53.7534 226.464 53.4091 227.383C53.0648 228.302 52.7389 227.733 52.6862 226.119C52.5661 222.475 48.0105 220.98 42.8813 222.9C39.9369 224.003 39.3794 223.915 39.91 222.429C40.269 221.423 41.6144 220.243 42.8997 219.805C44.1863 219.367 45.2376 218.252 45.2376 217.327C45.2376 214.503 50.5542 208.887 54.121 207.945C55.9737 207.457 57.4906 206.232 57.4906 205.225C57.4906 204.217 57.2823 203.393 57.0275 203.393C55.5056 203.393 46.6516 208.026 44.174 210.119C42.4415 211.583 39.2826 212.605 36.4951 212.605C32.6243 212.605 31.7593 212.139 31.7593 210.051C31.7593 207.108 34.1082 205.061 35.2661 206.995C36.3333 208.78 43.4548 208.161 45.789 206.079C48.8032 203.393 48.1869 200.577 44.7855 201.493C42.3973 202.138 41.7786 201.693 41.297 198.986C40.791 196.142 41.558 195.201 46.9469 192.051C50.3765 190.047 54.7031 188.531 56.5618 188.683C58.4206 188.835 59.9412 188.358 59.9412 187.623C59.9412 186.887 60.7414 186.286 61.7179 186.286C62.6957 186.286 63.9982 185.321 64.6133 184.141C65.411 182.61 67.347 182.031 71.3868 182.118C74.4978 182.185 79.399 181.338 82.2773 180.234C85.1555 179.129 90.1351 177.979 93.3418 177.678C100.167 177.036 105.371 174.429 108.586 170.04C109.85 168.313 112.055 166.501 113.485 166.014C116.424 165.013 119.46 161.599 118.413 160.476C117.617 159.621 104.507 162.455 101.295 164.175C100.116 164.806 99.1509 164.823 99.1509 164.213C99.1509 163.602 94.1799 163.359 88.1036 163.671C78.2889 164.175 77.142 164 77.8196 162.102C78.2803 160.812 79.9872 159.966 82.1278 159.966C86.42 159.966 86.9677 156.657 82.9157 155.214C80.3879 154.314 80.5153 154.134 84.4473 153.05C86.806 152.399 91.4928 151.386 94.8624 150.798C98.2319 150.21 103.105 149.029 105.692 148.174C109.671 146.858 110.612 146.934 111.818 148.674C114.134 152.016 134.567 151.791 135.616 148.412C135.843 147.683 137.14 147.399 138.5 147.78C141.081 148.505 146.938 145.847 146.938 143.952C146.938 143.351 145.335 142.859 143.377 142.859C140.335 142.859 139.916 142.445 140.505 140.025C141.154 137.362 140.886 137.246 136.01 138.083C131.135 138.92 130.874 138.808 131.645 136.199C132.213 134.276 131.628 132.465 129.739 130.306L127.012 127.188L131.155 125.286C133.434 124.24 139.879 122.751 145.478 121.974C152.042 121.065 159.444 118.855 166.309 115.757C172.553 112.939 180.439 110.5 185.373 109.861C190.002 109.261 194.073 108.467 194.418 108.095C194.764 107.723 196.077 108.012 197.336 108.735C198.887 109.628 199.626 109.612 199.626 108.689C199.626 107.941 201.004 107.327 202.689 107.327C204.374 107.327 205.752 106.735 205.752 106.011C205.752 105.288 208.371 104.648 211.572 104.59Z" fill="#475B7F"/>
<path d="M134.052 209.456C136.063 207.931 139.371 206.036 141.404 205.245C143.437 204.453 147.03 203.975 149.388 204.182C151.747 204.388 154.389 204.592 155.258 204.633C156.212 204.679 155.619 206.123 153.764 208.27C151.413 210.994 149.7 211.762 146.484 211.529C144.172 211.362 139.449 212.424 135.986 213.888C128.812 216.925 128.121 217.062 129.171 215.237C129.587 214.513 129.206 213.874 128.324 213.817C127.226 213.746 127.301 213.479 128.558 212.971C129.569 212.563 132.042 210.981 134.052 209.456Z" fill="#475B7F"/>
<path d="M15.4517 212.585C13.2694 212.568 13.1114 212.326 14.605 211.289C17.0189 209.614 19.8579 209.614 18.8936 211.289C18.477 212.013 16.9282 212.596 15.4517 212.585Z" fill="#475B7F"/>
<path d="M216.417 219.68C213.738 218.728 213.74 218.714 216.78 217.768C218.465 217.244 220.473 216.757 221.244 216.685C223.21 216.5 224.472 220.661 222.947 222.3C221.038 224.35 221.407 225.494 224.294 226.478C226.346 227.178 226.543 227.615 225.213 228.52C222.615 230.288 222.285 230.047 220.646 225.177C219.771 222.576 217.966 220.231 216.417 219.68Z" fill="#475B7F"/>
<path d="M235.262 223.526C234.069 223.004 234.832 222.022 237.713 220.373C243.831 216.874 244.512 217.337 240.207 222.067C238.104 224.375 236.385 226.744 236.385 227.331C236.385 227.916 235.452 228.397 234.313 228.397C232.497 228.397 232.535 228.141 234.619 226.34C236.522 224.695 236.651 224.132 235.262 223.526Z" fill="#475B7F"/>
<path d="M244.174 228.946C241.168 230.184 240.89 229.088 243.065 224.571C245.502 219.509 246.187 219.451 246.187 224.308C246.187 226.625 245.399 228.44 244.174 228.946Z" fill="#475B7F"/>
<path d="M246.872 233.661C246.574 233.661 245.991 233.068 245.575 232.345C245.158 231.621 245.402 231.029 246.115 231.029C246.828 231.029 247.413 231.621 247.413 232.345C247.413 233.068 247.17 233.661 246.872 233.661Z" fill="#475B7F"/>
<path d="M54.7263 239.168C55.1527 237.948 56.3621 236.229 57.4147 235.348C59.9988 233.183 60.3395 233.251 62.1076 236.293C63.4039 238.523 63.3316 238.925 61.6285 238.925C60.522 238.925 57.8987 240.044 55.7973 241.414C53.6959 242.784 50.0469 244.333 47.6882 244.857C45.3295 245.379 42.8483 246.247 42.1743 246.782C41.5004 247.318 38.2803 248.456 35.0173 249.312C31.7556 250.167 27.6202 251.97 25.8276 253.319C24.0362 254.666 20.0882 256.156 17.0556 256.627C8.8657 257.898 12.2463 255.511 24.4074 251.434C30.1357 249.514 37.528 246.418 40.8351 244.556C44.1409 242.692 48.4454 241.217 50.3998 241.276C52.674 241.346 54.2313 240.587 54.7263 239.168Z" fill="#475B7F"/>
<path d="M233.934 238.092C233.934 237.343 234.302 236.336 234.752 235.854C235.2 235.371 235.853 235.282 236.201 235.657C236.549 236.031 236.181 237.037 235.384 237.894C234.505 238.838 233.934 238.915 233.934 238.092Z" fill="#475B7F"/>
<path d="M244.974 242.841C242.961 248.06 241.977 247.003 243.063 240.788C243.664 237.339 244.286 236.356 245.224 237.364C246.163 238.372 246.092 239.944 244.974 242.841Z" fill="#475B7F"/>
<path d="M75.8702 242.872C74.4427 242.872 73.6156 242.28 74.0322 241.556C74.4488 240.833 75.2759 240.241 75.8702 240.241C76.4644 240.241 77.2915 240.833 77.7081 241.556C78.1247 242.28 77.2976 242.872 75.8702 242.872Z" fill="#475B7F"/>
<path d="M224.132 243.53C223.458 243.978 222.907 243.716 222.907 242.95C222.907 242.184 223.458 241.556 224.132 241.556C224.806 241.556 225.357 241.817 225.357 242.137C225.357 242.457 224.806 243.083 224.132 243.53Z" fill="#475B7F"/>
<path d="M245.366 253.962C243.282 254.821 241.339 252.796 241.304 249.73C241.291 248.519 241.725 248.425 242.818 249.401C243.661 250.154 245.66 251.842 247.262 253.153L250.173 255.537L247.121 259.075C245.442 261.02 243.77 262.612 243.405 262.612C242.029 262.612 244.052 257.499 245.696 256.823C246.639 256.434 247.413 255.441 247.413 254.616C247.413 253.758 246.539 253.479 245.366 253.962Z" fill="#475B7F"/>
<path d="M1.43301 259.96C-0.400046 259.943 -0.444157 259.754 1.12668 258.664C3.43883 257.059 3.57729 257.059 3.57729 258.664C3.57729 259.388 2.61297 259.971 1.43301 259.96Z" fill="#475B7F"/>
<path d="M228.42 259.98C227.41 259.98 226.582 259.388 226.582 258.664C226.582 257.94 227.41 257.348 228.42 257.348C229.431 257.348 230.258 257.94 230.258 258.664C230.258 259.388 229.431 259.98 228.42 259.98Z" fill="#475B7F"/>
<path d="M240.061 260.638C239.387 261.086 238.835 260.824 238.835 260.058C238.835 259.292 239.387 258.664 240.061 258.664C240.735 258.664 241.286 258.925 241.286 259.244C241.286 259.564 240.735 260.191 240.061 260.638Z" fill="#475B7F"/>
<path d="M209.735 281.204C207.791 282.84 207.748 282.794 209.271 280.707C210.873 278.514 211.879 277.818 211.879 278.901C211.879 279.174 210.914 280.211 209.735 281.204Z" fill="#475B7F"/>
<path d="M238.018 302.483C236.522 301.866 236.484 301.517 237.814 300.612C240.257 298.949 241.291 299.229 240.534 301.35C240.162 302.39 239.03 302.901 238.018 302.483Z" fill="#475B7F"/>
<path d="M220.154 320.121L223.55 318.63C225.955 317.575 228.501 317.528 232.278 318.468C237.371 319.737 237.61 320.012 237.61 324.601C237.61 328.007 238.351 329.935 240.159 331.223C242.147 332.642 242.521 333.831 241.863 336.647C240.937 340.612 239.225 341.154 235.896 338.54C233.911 336.982 233.89 336.668 235.662 335.089C237.827 333.159 238.29 329.727 236.385 329.727C235.711 329.727 235.16 330.319 235.16 331.043C235.16 331.766 234.057 332.359 232.709 332.359C231.361 332.359 230.258 331.589 230.258 330.647C230.258 326.418 227.037 321.65 223.675 320.903L220.154 320.121Z" fill="#475B7F"/>
<path d="M367.563 336.306C442.883 336.306 482.787 335.852 483.283 334.99C484.386 333.074 484.873 333.374 484.679 335.851C484.481 338.394 489.888 340.561 495.843 340.328C498.509 340.224 499.825 340.781 499.825 342.015C499.825 343.968 505.408 345.396 513.916 345.617C518.137 345.726 518.392 345.887 515.754 346.768C509.756 348.773 494.924 357.717 494.924 359.329C494.924 362.092 508.22 362.986 516.177 360.76C520.003 359.69 523.68 358.452 524.346 358.011C525.011 357.569 525.556 357.877 525.556 358.695C525.556 359.512 526.845 360 528.42 359.779C529.994 359.557 532.239 360.403 533.408 361.659C535.929 364.366 539.41 364.528 547.185 362.297C551.773 360.981 553.023 360.981 553.431 362.297C553.713 363.202 554.999 363.942 556.291 363.942C557.582 363.942 558.64 364.61 558.64 365.426C558.64 366.397 557.052 366.65 554.045 366.159C551.435 365.732 545.676 366.376 540.713 367.65C533.664 369.461 530.89 370.972 526.344 375.472C523.245 378.54 520.147 381.05 519.457 381.05C517.665 381.05 517.904 385.958 519.736 386.786C520.833 387.281 520.659 387.89 519.124 388.935C517.945 389.736 516.979 390.98 516.979 391.698C516.979 392.416 515.922 394.222 514.629 395.712C509.783 401.3 506.516 418.518 510.029 419.965C516.082 422.46 529.224 408.261 529.237 399.21C529.245 394.204 537.765 381.368 540.066 382.895C541.931 384.133 546.387 381.409 546.387 379.03C546.387 377.969 547.426 377.102 548.694 377.102C550.02 377.102 551.293 375.907 551.686 374.292L552.37 371.482L556.228 374.105C560.823 377.229 560.65 376.734 558.954 381.963C558.181 384.343 555.689 387.481 553.205 389.201C550.794 390.869 548.968 393.124 549.148 394.209C549.599 396.933 554.224 397.411 556.14 394.93C557.006 393.811 558.415 392.893 559.273 392.893C561.68 392.893 558.42 403.385 555.492 405.063C552.609 406.715 543.936 416.071 543.936 417.53C543.936 419.611 549.348 422.147 553.642 422.079C558.529 422 578.475 414.172 586.515 409.177C589.665 407.22 591.723 404.984 591.723 403.518C591.723 400.438 595.087 399.502 603.129 400.347C611.279 401.204 617.845 398.366 620.039 393.042C620.961 390.807 624.271 387.457 627.874 385.112C633.927 381.172 634.557 381.05 648.792 381.05C659.699 381.05 664.128 380.555 666.032 379.122C667.442 378.062 668.99 377.617 669.472 378.135C669.955 378.652 674.852 373.858 680.355 367.482C689.901 356.418 690.627 355.865 696.18 355.403C699.38 355.137 702 355.42 702 356.032C702 356.644 700.863 359.994 699.472 363.477C697.352 368.789 697.149 370.667 698.215 375.101C699.817 381.773 697.656 383.976 689.998 383.483C685.733 383.209 684.082 383.806 681.296 386.631C678.932 389.027 677.033 389.886 675.225 389.377C673.693 388.947 672.593 389.252 672.593 390.107C672.593 390.917 671.97 391.577 671.208 391.577C669.017 391.577 659.114 402.491 659.114 404.905C659.114 406.106 658.287 407.428 657.276 407.845C655.236 408.686 654.732 412.633 656.664 412.633C658.59 412.633 658.094 416.215 656.051 417.057C655.04 417.473 654.213 417.259 654.213 416.581C654.213 414.913 650.168 416.606 648.944 418.785C648.405 419.746 645.86 420.529 643.279 420.529C640.702 420.529 636.318 421.391 633.537 422.445C630.751 423.5 628.482 423.795 628.482 423.103C628.482 422.41 627.655 421.845 626.644 421.845C625.633 421.845 624.806 423.008 624.806 424.431C624.806 425.852 623.698 427.652 622.344 428.431C620.617 429.425 620.08 430.712 620.544 432.754C621.469 436.82 612.58 447.047 609.65 445.286C606.953 443.666 607.133 441.938 610.102 440.926C611.45 440.467 612.553 439.243 612.553 438.206C612.553 435.778 611.937 435.831 608 438.601C606.217 439.856 604.169 440.892 603.448 440.904C600.954 440.946 594.202 444.852 594.333 446.176C594.693 449.818 594.047 451.026 592.158 450.247C591.026 449.78 589.148 450.384 587.869 451.626C585.45 453.978 584.808 457.376 586.784 457.376C587.435 457.376 587.645 458.286 587.247 459.398C586.85 460.512 587.525 462.609 588.749 464.061C590.727 466.409 590.743 466.606 588.897 465.845C587.649 465.331 586.822 465.627 586.822 466.588C586.822 467.467 586.048 467.867 585.104 467.477C581.574 466.022 582.102 468.435 586.231 472.617C588.577 474.994 590.497 477.508 590.497 478.202C590.497 480.234 587.248 480.995 585.694 479.326C584.611 478.163 583.987 478.266 583.097 479.758C581.257 482.836 582.344 485.702 585.226 485.377C587.034 485.174 587.729 485.751 587.52 487.28C587.194 489.662 584.371 491.346 584.371 489.159C584.371 487.752 578.802 487.922 577.454 489.368C577.022 489.833 577.574 490.587 578.682 491.042C581.351 492.143 581.261 493.978 578.551 493.748C577.372 493.648 576.533 494.269 576.688 495.13C576.843 495.99 575.935 497.047 574.67 497.479C573.406 497.909 570.345 500.315 567.869 502.823C565.234 505.492 562.11 507.383 560.338 507.383C558.439 507.383 555.111 509.591 551.414 513.305C548.172 516.562 544.888 519.227 544.115 519.227C543.343 519.227 542.711 519.761 542.711 520.414C542.711 521.873 535.844 524.573 534.85 523.506C534.456 523.082 534.134 523.653 534.134 524.775C534.134 525.896 532.011 529.103 529.416 531.902C521.82 540.098 521.082 545.761 523.941 573.839C525.561 589.748 525.101 598.502 522.375 603.512C521.017 606.01 519.288 608.055 518.534 608.055C516.039 608.055 510.624 598.027 511.377 594.803C512.284 590.925 511.078 587.657 508.74 587.657C506.889 587.657 506.944 586.1 509.059 578.774C509.71 576.517 509.425 575.813 507.863 575.813C505.988 575.813 505.976 575.562 507.72 572.888C510.283 568.958 510.127 564.496 507.352 562.4C506.101 561.453 504.709 559.426 504.258 557.892C503.807 556.359 502.341 554.038 501 552.735C498.645 550.447 498.377 550.464 493.239 553.219C486.566 556.799 486.347 556.784 486.347 552.784C486.347 550.405 485.689 549.494 483.968 549.494C482.66 549.494 481.218 548.846 480.762 548.054C480.306 547.262 478.638 546.88 477.056 547.204C475.473 547.529 473.991 547.188 473.76 546.447C473.503 545.617 471.842 545.904 469.429 547.196C465.709 549.189 465.517 549.168 465.517 546.761C465.517 545.37 464.689 544.23 463.679 544.23C462.668 544.23 461.841 545.118 461.841 546.204C461.841 548.166 459.748 548.489 445.328 548.748C439.739 548.849 437.92 552.277 442.162 554.716C445.803 556.808 445.308 558.923 441.422 557.875C438.755 557.157 438.294 557.38 438.909 559.099C439.415 560.519 439.122 560.982 438.008 560.523C437.101 560.148 435.993 560.474 435.548 561.248C434.396 563.25 432.433 562.988 432.433 560.831C432.433 559.828 430.962 557.973 429.162 556.707C426.513 554.842 425.444 554.704 423.545 555.978C420.634 557.929 414.054 556.555 414.054 553.996C414.054 552.967 413.502 552.126 412.829 552.126C412.155 552.126 411.595 552.867 411.585 553.771C411.571 554.971 411.279 554.93 410.504 553.617C409.646 552.161 408.698 552.407 405.559 554.901C402.492 557.336 401.464 557.616 400.669 556.236C399.876 554.858 399.093 554.813 396.98 556.026C395.506 556.874 394.514 558.256 394.774 559.095C395.805 562.419 385.524 569.066 381.755 567.512C380.8 567.119 377.766 569.089 374.891 571.968C372.057 574.806 369.232 577.129 368.615 577.129C367.997 577.129 367.492 578.591 367.492 580.378C367.492 582.725 366.983 583.416 365.654 582.87C364.136 582.243 363.816 583.608 363.816 590.714V599.316L360.447 598.249C350.889 595.219 349.479 593.364 350.251 584.839C350.359 583.652 349.325 580.536 347.954 577.914C346.582 575.292 345.095 570.694 344.649 567.696C344.196 564.652 342.42 560.541 340.628 558.387C337.976 555.2 336.42 554.513 331.677 554.435C325.913 554.342 322.156 556.287 322.156 559.364C322.156 563.409 318.973 563.914 314.42 560.59C310.359 557.628 309.903 556.708 309.903 551.48C309.903 547.241 309.156 544.83 307.146 542.581C305.629 540.885 302.869 537.6 301.01 535.283C297.983 531.51 296.939 531.07 291.002 531.07C283.245 531.07 280.496 531.968 280.496 534.501C280.496 535.509 279.807 536.367 278.964 536.407C278.122 536.446 272.138 536.499 265.667 536.524C255.054 536.563 253.192 536.188 246.675 532.695C242.7 530.566 236.828 527.769 233.628 526.479C230.392 525.175 227.808 523.292 227.808 522.239C227.808 520.662 225.959 520.5 216.78 521.272L205.752 522.198V518.65C205.752 514.522 198.782 504.81 195.793 504.775C194.696 504.761 193.113 503.863 192.274 502.777C191.435 501.691 189.118 500.803 187.125 500.803C183.824 500.803 183.563 500.482 184.187 497.184C184.568 495.171 183.879 490.501 182.636 486.659C180.711 480.713 180.634 479.393 182.087 477.167C183.471 475.043 183.492 474.069 182.203 471.728C180.953 469.458 180.946 468.754 182.165 468.28C183.008 467.952 183.697 466.668 183.697 465.426C183.697 464.183 184.311 462.507 185.061 461.701C186.729 459.909 185.262 456.955 183.137 457.83C182.268 458.188 180.762 456.581 179.679 454.14C177.986 450.326 177.97 449.383 179.541 446.131C180.52 444.104 181.192 440.11 181.035 437.257C180.836 433.628 181.377 431.576 182.835 430.43C186.589 427.484 190.681 419.764 192.276 412.624C193.47 407.279 195.182 404.154 199.491 399.455C204.723 393.747 214.507 380.106 219.519 371.528C221.076 368.864 222.635 367.89 225.339 367.89C229.594 367.89 230.176 366.208 226.525 364.458C224.031 363.263 224.031 363.238 226.416 360.489C227.737 358.966 228.778 356.9 228.732 355.897C228.506 351.041 229.174 347.14 230.565 345.193C231.9 343.323 232.834 343.255 237.844 344.655L243.591 346.261L240.109 347.916C236.924 349.431 234.065 355.309 235.673 357.037C237.901 359.429 249.166 349.346 250.47 343.793C250.672 342.932 251.233 340.897 251.718 339.267L252.599 336.306H367.563Z" fill="#475B7F"/>
<path d="M599.557 452.562C599.073 450.626 599.761 448.743 601.719 446.64L604.588 443.558L604.974 449.358C605.272 453.831 604.782 455.778 602.83 457.875C600.35 460.539 600.3 460.542 600.283 457.997C600.274 456.569 599.947 454.124 599.557 452.562Z" fill="#475B7F"/>
<path d="M52.5894 574.497C51.9155 574.497 51.3641 573.905 51.3641 573.181C51.3641 572.458 51.9155 571.865 52.5894 571.865C53.2633 571.865 53.8147 572.458 53.8147 573.181C53.8147 573.905 53.2633 574.497 52.5894 574.497Z" fill="#475B7F"/>
<path d="M59.8518 590.401C59.4658 588.53 59.6312 585.946 60.2194 584.659C61.3123 582.269 62.5462 582.556 66.3741 586.087C69.4189 588.895 69.0661 590.039 64.5361 592.043C60.6948 593.742 60.5294 593.684 59.8518 590.401Z" fill="#475B7F"/>
</svg>
