<svg width="442" height="777" viewBox="0 0 442 777" fill="none" xmlns="http://www.w3.org/2000/svg">
<path d="M110.602 4.85011C110.211 5.89799 109.92 5.58641 109.862 4.05468C109.809 2.6689 110.098 1.89316 110.505 2.32967C110.912 2.76618 110.956 3.90083 110.602 4.85011Z" fill="#75D0D1"/>
<path d="M96.2851 18.6121C96.2851 17.033 102.449 13.521 108.199 11.825C115.573 9.649 117.425 9.55293 121.327 11.1438C123.419 11.9971 124.476 13.4263 124.488 15.4169C124.526 21.4163 125.919 22.1053 135.957 21.0956C144.218 20.2646 145.621 20.4579 148.405 22.8087C153.304 26.9424 158.187 27.5828 162.137 24.6074C167.067 20.8958 174.292 19.7413 176.665 22.2881C177.71 23.4083 177.974 24.3248 177.251 24.3248C176.529 24.3248 175.938 24.9164 175.938 25.6396C175.938 26.3627 176.909 26.9543 178.094 26.9543C179.28 26.9543 180.884 28.0429 181.659 29.3735C182.964 31.6165 187.231 32.3699 188.841 30.641C189.707 29.7114 195.523 32.5054 195.535 33.857C195.54 34.4 195.054 34.8431 194.452 34.8431C193.852 34.8431 193.013 36.3222 192.591 38.1301C192.168 39.9379 190.96 41.417 189.906 41.417C188.851 41.417 188.228 42.1573 188.522 43.0605C188.892 44.2004 191.361 44.5724 196.589 44.2766C200.845 44.0347 204.123 44.3949 204.123 45.1062C204.123 45.7978 202.193 47.9435 199.834 49.8736C195.212 53.6562 194.557 55.9467 197.267 58.8537C198.745 60.4407 198.419 60.9218 194.951 62.2681C191.434 63.6316 190.808 64.5862 190.097 69.6678C189.261 75.6488 190.249 79.0962 193.671 82.1439C195.431 83.7111 195.42 84.0884 193.548 86.3078C192.415 87.6515 190.815 88.7494 189.99 88.7494C189.167 88.7494 187.807 89.6369 186.967 90.7216C186.128 91.8063 183.9 92.6938 182.015 92.6938C177.191 92.6938 174.713 93.9466 174.713 96.3843C174.713 98.0133 174.386 98.1277 173.242 96.901C172.433 96.0333 170.338 95.3234 168.586 95.3234C166.833 95.3234 164.875 94.7935 164.235 94.1466C163.596 93.4997 161.28 92.5661 159.088 92.0704C154.436 91.0186 153.864 92.8566 157.25 97.9883C159.695 101.695 162.413 109.376 162.44 112.657C162.452 114.07 163.678 115.048 165.828 115.362L169.198 115.853L165.71 117.437C163.792 118.308 161.968 120.049 161.661 121.306C161.352 122.563 158.923 124.722 156.264 126.104C153.605 127.486 151.43 129.057 151.43 129.596C151.43 130.135 150.324 130.266 148.973 129.886C147.621 129.508 145.675 129.946 144.647 130.861C141.631 133.546 137.381 128.155 135.535 119.304C134.675 115.183 133.075 111.06 131.978 110.141C130.145 108.605 130.157 108.326 132.129 106.683C134.897 104.374 134.825 102.16 131.823 97.2955C129.178 93.0107 128.55 83.8925 130.597 79.5275C131.271 78.0917 132.406 75.6868 133.118 74.184C135.457 69.2509 132.808 67.8349 122.764 68.6501L113.841 69.3746L111.091 64.5993C109.577 61.9724 107.419 59.7294 106.294 59.6137C105.171 59.498 101.036 59.252 97.1086 59.068C88.783 58.6762 86.0662 56.2215 87.0992 50.0197C87.5355 47.4006 86.7243 43.89 84.608 39.2502C81.4929 32.4185 81.4843 32.3121 83.4854 24.927C85.3763 17.9481 88.7793 12.4917 91.24 12.4917C93.6149 12.4917 93.6468 19.7124 91.2853 22.4367C88.4276 25.7329 88.3087 29.1539 90.8601 34.6405C93.9053 41.1908 98.747 39.8365 100.599 31.9175C101.189 29.3958 100.678 27.0398 98.8597 23.8816C97.4431 21.423 96.2851 19.0525 96.2851 18.6121Z" fill="#75D0D1"/>
<path d="M193.85 23.01C193.592 23.01 193.092 21.8267 192.739 20.3804C192.387 18.9341 192.598 17.7508 193.209 17.7508C193.82 17.7508 194.32 18.9341 194.32 20.3804C194.32 21.8267 194.108 23.01 193.85 23.01Z" fill="#75D0D1"/>
<path d="M200.258 57.5C197.811 57.5 199.122 54.3233 203.015 50.8207C207.34 46.929 208.069 47.1118 213.488 53.4452C215.986 56.3666 216.206 57.5485 215.453 64.0107C214.679 70.6688 214.778 71.1341 216.622 69.492C217.731 68.5045 218.639 66.8598 218.639 65.8382C218.639 63.423 222.749 65.6516 226.672 70.1928C229.054 72.9513 229.248 73.9465 228.146 77.7949C227.45 80.2312 225.634 82.8333 224.111 83.5775C220.094 85.5418 218.711 96.7306 221.903 101.435C223.142 103.257 224.844 104.768 225.686 104.792C226.994 104.826 227.855 108.389 227.362 111.735C227.282 112.278 227.728 112.721 228.353 112.721C228.977 112.721 229.669 113.732 229.893 114.968C230.169 116.517 228.578 118.151 224.774 120.222C221.737 121.876 218.545 123.231 217.682 123.234C216.818 123.237 215.794 124.127 215.407 125.212C215.018 126.296 214.236 127.184 213.67 127.184C211.945 127.184 206.388 121.087 206.342 119.144C206.318 118.142 205.566 115.907 204.673 114.176C203.281 111.482 203.375 110.068 205.329 104.334C208.144 96.073 208.179 93.7973 205.542 90.9679C204.405 89.7477 203.439 86.8946 203.397 84.6292C203.331 81.0674 202.88 80.5088 200.068 80.5088C196.504 80.5088 190.664 74.107 192.883 72.6345C193.569 72.1796 194.131 70.4926 194.131 68.8859C194.131 66.848 195.242 65.5148 197.807 64.4761C200.274 63.4769 201.483 62.0845 201.483 60.2438C201.483 58.7344 200.932 57.5 200.258 57.5Z" fill="#9BBACE"/>
<path d="M49.8646 166.348C54.683 158.688 56.7601 152.802 56.0506 148.817C55.7271 147.004 55.8153 145.52 56.2454 145.52C58.3287 145.52 62.4756 149.895 62.4756 152.093C62.4756 153.458 64.1299 155.622 66.1519 156.904C68.1738 158.186 69.8282 159.952 69.8282 160.829C69.8282 161.706 70.7901 163.456 71.9653 164.717C73.1405 165.978 74.6784 168.238 75.383 169.74C76.7077 172.565 77.8364 172.678 92.4987 171.472C97.5009 171.062 102.888 172.861 102.905 174.947C102.91 175.585 101.773 178.091 100.376 180.515C98.8562 183.151 98.1418 185.956 98.5964 187.493C99.4567 190.404 97.3391 191.995 90.8443 193.317C88.5871 193.778 85.0983 195.635 83.0922 197.447C81.085 199.259 78.9944 200.741 78.4466 200.741C77.4859 200.741 76.2421 206.463 75.4799 214.384C75.2801 216.464 73.9971 219.127 72.6295 220.301C69.6296 222.876 68.0267 230.624 69.974 233.141C70.7325 234.122 70.9837 234.925 70.5316 234.925C70.0806 234.925 71.5291 237.736 73.752 241.17C75.9749 244.605 77.7935 248.895 77.7935 250.703C77.7935 253.457 78.4883 254.096 82.0825 254.647C85.3666 255.151 86.4634 255.997 86.7636 258.263C87.0933 260.757 87.9094 261.221 91.9717 261.221C95.1542 261.221 97.6185 260.33 99.2385 258.591L101.689 255.962V263.147C101.689 269.093 102.132 270.586 104.254 271.805C105.665 272.615 108.138 272.923 109.748 272.489C112.31 271.798 113.173 272.644 116.645 279.244C120.361 286.31 120.599 287.521 120.382 298.333C120.255 304.684 119.551 311.083 118.817 312.553C118.084 314.024 117.798 316.287 118.181 317.584C118.717 319.394 118.234 319.917 116.105 319.835C113.844 319.749 113.26 320.522 112.946 324.011C112.662 327.183 113.139 328.528 114.784 329.197C116.007 329.694 117.686 330.821 118.517 331.7C119.348 332.58 120.632 333.516 121.372 333.78C122.997 334.361 120.349 341.423 118.506 341.423C117.861 341.423 117.623 342.606 117.975 344.053C118.327 345.499 118.116 346.682 117.505 346.682C116.895 346.682 116.395 348.18 116.395 350.01C116.395 351.841 115.605 353.664 114.641 354.061C112.5 354.942 106.188 350.129 104.164 346.072C103.351 344.442 100.944 342.093 98.817 340.854C90.4277 335.965 75.959 327.469 71.3795 324.742C62.2795 319.323 53.9318 308.661 53.8497 302.354C53.824 300.34 51.9123 295.438 49.6036 291.461C47.2949 287.484 44.5842 282.298 43.5794 279.938C42.5757 277.578 40.9018 275.296 39.8602 274.867C38.8186 274.438 37.9669 273.099 37.9669 271.892C37.9669 270.683 37.2206 268.527 36.3076 267.102C35.3959 265.675 32.5493 259.479 29.982 253.332C27.4135 247.186 23.5766 239.441 21.4542 236.123C19.3317 232.804 16.9005 228.289 16.05 226.088C14.5292 222.147 5.27846 213.889 2.38521 213.889C1.24066 213.889 1.24804 213.444 2.41588 211.933C3.395 210.669 3.59104 208.696 2.9722 206.346C2.44649 204.347 1.97103 202.318 1.91711 201.836C1.86197 201.355 1.40365 200.516 0.897551 199.974C-0.549686 198.421 -0.175929 192.849 1.51027 190.831C2.35337 189.824 3.78714 188.052 4.69764 186.895C5.60813 185.738 6.69505 185.156 7.11292 185.606C7.53079 186.054 7.15583 186.897 6.27842 187.478C3.71481 189.178 5.02847 196.08 7.94377 196.224C13.5097 196.502 14.4263 196.916 15.039 199.426C15.4618 201.161 16.7105 202.055 18.7092 202.055C21.8194 202.055 22.274 201.284 25.8731 189.894C26.7297 187.183 27.8068 184.963 28.2664 184.963C28.7271 184.963 29.3913 183.78 29.7442 182.334C30.1535 180.653 33.2502 178.325 38.3284 175.881C44.4225 172.947 47.1086 170.727 49.8646 166.348Z" fill="#A5CDC9"/>
<path d="M179.967 96.8823C184.48 96.8245 195.291 90.2597 196.8 86.6611C198.659 82.2316 201.19 82.997 200.309 87.7223C199.852 90.1744 200.079 91.6667 200.909 91.6667C202.912 91.6667 205.124 96.8403 203.897 98.6534C203.317 99.5107 202.112 102.514 201.219 105.326C198.059 115.293 205.766 129.796 214.224 129.796C215.627 129.796 217.072 128.963 217.434 127.947C217.798 126.931 219.749 125.709 221.77 125.233C223.791 124.757 226.029 123.611 226.745 122.687C227.674 121.485 229.708 121.281 233.876 121.968C240.844 123.12 241.953 122.592 241.217 118.466C240.706 115.598 241.064 115.333 245.434 115.333C248.06 115.333 251.43 116.145 252.923 117.138C255.152 118.621 264.797 119.131 271.259 118.107C271.763 118.028 273.457 115.151 275.026 111.717C281.15 98.3011 285.66 93.4022 285.66 100.167C285.66 101.95 286.427 105.943 287.364 109.042C288.301 112.141 289.413 116.294 289.834 118.271C290.339 120.644 291.634 122.145 293.644 122.687C297.22 123.649 297.357 124.595 294.721 130.066C292.395 134.89 291.085 136.695 286.599 141.252C284.757 143.123 282.061 147.287 280.61 150.505C278.83 154.449 276.829 156.782 274.462 157.666C270.323 159.215 269.865 162.052 273.587 163.096C276.302 163.859 284.804 159.957 286.375 157.229C286.91 156.299 287.785 157.451 288.603 160.163C289.666 163.691 290.958 164.982 294.755 166.316C298.661 167.688 299.748 167.689 300.558 166.322C301.172 165.283 301.56 166.528 301.573 169.568C301.59 174.21 303.865 176.777 304.195 172.526C304.28 171.441 304.417 169.915 304.501 169.133C304.586 168.352 305.62 166.955 306.799 166.03C307.978 165.104 308.988 163.525 309.04 162.521C309.111 161.186 309.304 161.136 309.755 162.337C310.42 164.105 313.755 164.623 313.985 162.994C314.062 162.451 314.311 160.285 314.54 158.179C314.768 156.074 315.507 153.985 316.182 153.538C317.955 152.361 327.325 153.52 327.325 154.915C327.325 155.561 328.395 156.091 329.704 156.091C331.012 156.091 332.423 156.683 332.84 157.406C333.256 158.129 334.648 158.721 335.933 158.721C337.217 158.721 338.872 159.933 339.611 161.413C340.494 163.182 341.71 163.848 343.158 163.355C346.051 162.371 349.388 166.295 347.003 167.877C346.033 168.52 345.791 169.636 346.393 170.681C346.943 171.637 347.272 175.106 347.122 178.389L346.851 184.359L349.273 181.072C350.605 179.264 352.297 177.785 353.033 177.785C353.771 177.785 354.778 177.083 355.274 176.225C357.209 172.865 362.795 171.764 366.755 173.961C372.323 177.05 382.113 179.496 383.939 178.253C389.282 174.617 400.188 180.077 409.993 191.295C416.344 198.563 424.952 204.01 429.503 203.642C435.515 203.156 437.472 204.518 438.272 209.742C438.681 212.414 439.665 216.021 440.46 217.756C442.852 222.989 442.048 239.967 439.069 247.14C437.558 250.78 435.668 253.386 434.541 253.386C433.476 253.386 432.725 254.126 432.87 255.029C433.317 257.788 430.026 263.807 427.624 264.624C426.379 265.049 425.36 265.929 425.36 266.581C425.36 267.233 424.533 267.425 423.522 267.009C422.389 266.543 421.683 267.012 421.683 268.234C421.683 269.324 419.701 275.298 417.276 281.512C412.924 292.665 412.842 292.771 410.734 289.979C408.14 286.542 405.886 287.707 405.777 292.544C405.585 301.095 405.606 306.568 405.91 327.283C406.19 346.4 405.964 349.566 404.155 351.711C402.638 353.508 402.077 356.544 402.077 362.946C402.077 367.77 401.568 371.717 400.947 371.717C400.324 371.717 399.151 373.936 398.34 376.647C397.529 379.36 396.027 382.607 395.003 383.865C393.979 385.124 392.88 389.075 392.56 392.645C392.057 398.253 391.508 399.348 388.537 400.668C385.009 402.237 383.152 405.211 384.376 407.334C384.755 407.993 383.102 408.531 380.704 408.531C378.306 408.531 376.342 407.939 376.342 407.216C376.342 406.493 375.515 405.901 374.504 405.901C373.493 405.901 372.666 406.706 372.666 407.689C372.666 408.967 371.236 409.367 367.648 409.094C362.061 408.666 359.186 409.464 359.186 411.44C359.186 413.067 352.857 418.518 351.514 418.05C350.067 417.545 343.824 421.241 340.394 424.634C330.981 433.947 328.679 435.92 326.29 436.734C323.644 437.635 322.987 438.936 324.407 440.462C324.825 440.909 325.313 443.522 325.492 446.268C325.671 449.014 326.444 455.655 327.211 461.028C328.258 468.371 328.254 471.025 327.194 471.727C326.42 472.241 326.192 473.367 326.688 474.228C327.211 475.137 326.569 476.563 325.16 477.622C322.35 479.733 317.588 489.947 317.379 494.306C317.273 496.532 317.096 496.702 316.677 494.978C316.024 492.296 314.903 492.069 312.905 494.212C311.815 495.382 311.288 495.225 310.691 493.554C310.26 492.349 309.138 491.363 308.2 491.363C306.194 491.363 305.983 492.919 307.734 494.798C309.19 496.36 307.161 503.907 304.345 507.405C303.348 508.643 302.312 513.267 302.024 517.75C301.738 522.21 300.633 527.665 299.569 529.873C297.845 533.45 297.503 533.634 296.422 531.562C295.599 529.983 295.644 528.772 296.562 527.787C299.101 525.063 297.917 522.251 292.301 517.652C289.213 515.125 285.658 512.052 284.401 510.825C283.143 509.599 280.528 507.714 278.59 506.639C276.652 505.563 274.35 503.757 273.473 502.625C272.597 501.493 271.075 500.566 270.092 500.566C269.108 500.566 265.873 498.429 262.903 495.818C259.343 492.688 256.767 491.345 255.344 491.876C253.373 492.614 253.36 492.538 255.199 490.996C256.305 490.067 258.403 486.586 259.86 483.259C263.132 475.793 272.663 464.793 278.001 462.323C281.548 460.682 281.983 459.903 281.977 455.214C281.973 452.317 281.391 447.706 280.681 444.969C279.662 441.026 278.669 439.834 275.914 439.243C272.471 438.504 272.443 438.419 273.09 430.769C273.89 421.3 272.421 418.829 266.302 419.345C262.074 419.7 261.976 419.593 260.578 413.133C258.492 403.49 256.798 400.872 252.026 399.911C249.718 399.447 247.253 399.45 246.547 399.918C245.841 400.387 243.323 400.379 240.953 399.902C236.708 399.047 236.643 398.935 236.643 392.481C236.643 388.613 235.769 384.34 234.509 382.053C232.692 378.753 232.636 378.008 234.125 377.02C235.572 376.061 235.598 375.506 234.271 373.79C233.072 372.241 232.989 370.807 233.941 368.102C236.383 361.162 236.592 354.597 234.516 349.927C233.414 347.448 231.8 345.421 230.93 345.421C228.126 345.421 225.533 339.61 226.359 335.179L227.124 331.079L218.285 330.69L209.447 330.301L207.887 325.418C207.029 322.733 206.563 320.281 206.854 319.969C207.144 319.658 206.669 315.699 205.798 311.171C204.484 304.347 203.58 302.513 200.515 300.46C198.425 299.061 195.34 298.195 193.423 298.468C191.516 298.742 189.412 298.156 188.619 297.131C187.843 296.128 185.372 294.483 183.128 293.477C180.883 292.472 179.048 291.027 179.048 290.267C179.048 289.507 177.978 288.885 176.669 288.885C175.36 288.885 173.92 288.242 173.467 287.456C173.015 286.67 171.639 286.308 170.411 286.652C169.182 286.997 166.901 286.322 165.341 285.152C156.718 278.686 155.42 275.787 155.247 262.589L155.152 255.358L148.855 255.406C143.876 255.444 141.497 256.27 137.491 259.351C134.704 261.494 131.13 263.981 129.546 264.881C127.963 265.78 126.059 267.303 125.315 268.265C124.322 269.548 122.238 269.769 117.499 269.097C113.944 268.592 110.129 268.683 109.02 269.301C105.531 271.242 103.867 267.372 104.745 259.36C105.174 255.438 105.039 251.907 104.445 251.512C103.849 251.118 101.291 252.561 98.7597 254.72C94.0688 258.718 89.591 259.883 89.591 257.105C89.591 254.633 85.7334 250.756 83.2739 250.756C82.0301 250.756 81.013 249.879 81.013 248.808C81.013 247.735 78.8133 243.001 76.1247 238.289C73.4361 233.576 71.7818 229.72 72.4484 229.72C73.1151 229.72 73.6604 228.274 73.6604 226.507C73.6604 224.74 74.6836 222.521 75.936 221.577C77.4678 220.419 78.496 217.398 79.0854 212.318C79.8292 205.902 80.5792 204.23 84.1195 201.099C89.0788 196.713 101.649 192.169 103.457 194.108C104.233 194.941 105.456 194.962 106.837 194.169C108.437 193.25 109.202 190.612 109.773 184.041C110.198 179.154 111.157 171.163 111.906 166.281C113.371 156.73 111.798 147.844 108.269 145.724C107.23 145.101 106.707 143.17 106.953 140.858C107.299 137.607 107.963 136.965 111.342 136.615C114.654 136.272 115.325 135.657 115.325 132.967C115.325 130.421 114.538 129.561 111.649 128.941C109.627 128.507 107.973 127.338 107.973 126.344C107.973 124.978 110.121 124.536 116.76 124.536C123.332 124.536 126.132 123.97 127.864 122.288C129.862 120.347 130.336 120.303 131.312 121.959C131.935 123.015 132.452 125.078 132.463 126.544C132.485 129.755 142.162 137.027 143.912 135.149C144.612 134.399 145.929 134.517 147.333 135.458C149.234 136.732 149.94 136.49 151.559 134.012C152.626 132.375 155.527 130.018 158.002 128.773C160.479 127.527 163.036 125.209 163.686 123.623C164.334 122.034 166.127 120.396 167.668 119.982C171.775 118.876 171.645 112.703 167.514 112.703C164.988 112.703 164.432 111.889 163.695 107.115C163.221 104.043 162.346 100.534 161.752 99.32C160.801 97.3728 161.129 97.2519 164.52 98.2958C166.636 98.9467 168.845 99.1635 169.427 98.777C170.01 98.3905 170.818 98.9993 171.222 100.13C172.319 103.196 176.597 102.74 176.597 99.5554C176.597 97.574 177.428 96.9152 179.967 96.8823Z" fill="#003479"/>
<path d="M293.432 153.614C292.865 153.169 292.252 151.25 292.071 149.349C291.743 145.912 291.78 145.896 299.423 146.304C303.648 146.529 308.032 146.752 309.164 146.801C310.833 146.871 311.035 147.59 310.233 150.593C308.377 157.535 306.387 159.539 299.895 160.999C292.622 162.635 290.387 161.428 292.85 157.197C293.738 155.672 293.999 154.06 293.432 153.614Z" fill="#003479"/>
<path d="M282.577 155.511C280.854 157.878 280.824 157.801 282.16 154.448C283.604 150.831 284.435 149.897 284.435 151.896C284.435 152.481 283.599 154.107 282.577 155.511Z" fill="#003479"/>
<path d="M152.668 415.602C152.97 408.295 153.525 406.406 156.228 403.498C158.427 401.13 159.822 400.476 160.687 401.407C161.38 402.153 164.057 402.762 166.638 402.762C170.573 402.762 171.664 403.396 173.407 406.693C176.107 411.799 178.213 411.688 179.484 406.372C180.33 402.831 181.159 402.036 184.358 401.697C187.749 401.339 189.399 402.558 198.103 411.851C205.746 420.012 209.296 422.83 213.717 424.243C216.863 425.248 221.898 427.815 224.905 429.946C227.912 432.077 232.567 434.68 235.251 435.733C238.988 437.2 240.215 438.431 240.497 440.996C240.698 442.844 240.016 445.101 238.972 446.033C237.932 446.963 237.08 449.683 237.08 452.079C237.08 454.477 236.531 456.802 235.861 457.248C235.19 457.695 234.641 459.217 234.641 460.629C234.641 462.603 235.419 463.155 237.995 463.011C239.841 462.907 245.083 463.504 249.645 464.338C254.208 465.172 258.599 465.411 259.402 464.869C260.207 464.326 261.414 463.809 262.085 463.72C262.755 463.629 263.991 463.466 264.829 463.356C265.668 463.247 266.354 462.339 266.354 461.338C266.354 460.338 267.694 458.574 269.332 457.419C271.576 455.836 272.402 453.942 272.686 449.731C273.201 442.079 276.641 441.231 278.467 448.306C280.5 456.19 280.09 457.655 274.85 461.216C268.822 465.311 260.255 474.635 260.255 477.101C260.255 478.096 259.743 478.912 259.117 478.912C258.491 478.912 257.591 480.23 257.117 481.841C256.174 485.037 251.822 492.147 249.906 493.622C248.418 494.768 248.891 529.166 250.57 541.933C250.981 545.053 252.856 546.985 259.205 550.822C264.668 554.126 265.131 554.795 265.133 559.39C265.134 563.529 265.742 564.751 268.726 566.593C273.399 569.48 273.887 571.985 271.089 578.714C269.826 581.75 268.793 585.033 268.793 586.013C268.793 590.441 247.681 596.473 236.212 595.319C231.994 594.895 228.546 594.97 228.551 595.484C228.554 595.998 229.605 598.129 230.884 600.217C232.512 602.876 233.01 605.347 232.542 608.454C232.065 611.618 232.492 613.625 234.027 615.453C236.107 617.926 236.068 618.063 232.893 619.363C228.369 621.214 225.742 621.058 220.031 618.597C217.335 617.437 214.306 616.827 213.298 617.244C211.3 618.068 210.726 624.647 212.651 624.647C213.303 624.647 214.29 626.568 214.845 628.914C215.411 631.312 217.01 633.741 218.494 634.456C220.507 635.429 220.962 636.477 220.404 638.865C219.982 640.674 220.285 642.403 221.122 642.96C222.219 643.69 222.233 644.717 221.176 647.211C220.165 649.6 220.141 651.885 221.085 655.568C222.023 659.225 222.011 660.887 221.039 661.533C220.298 662.025 220.069 663.086 220.53 663.888C221.043 664.782 220.374 665.348 218.803 665.348C215.213 665.348 210.648 670.448 209.652 675.569C208.906 679.412 209.326 680.393 213.495 684.554C218.591 689.64 222.262 691.607 226.661 691.607C229.8 691.607 231.776 695.216 229.802 697.34C227.867 699.424 228.307 701.176 230.537 700.255C231.633 699.802 230.296 701.908 227.566 704.936C222.506 710.548 219.953 716.753 222.352 717.613C223.761 718.119 224.209 723.117 222.845 723.117C222.395 723.117 220.989 722.106 219.721 720.872C217.732 718.934 217.261 718.89 216.289 720.544C214.628 723.371 214.875 724.43 217.199 724.43C218.811 724.43 218.947 724.781 217.809 726.006C215.724 728.249 215.908 736.247 218.044 736.247C218.978 736.247 220.059 737.133 220.446 738.216C220.873 739.416 220.447 740.185 219.357 740.185C218.371 740.185 217.565 740.776 217.565 741.498C217.565 742.22 218.8 742.83 220.309 742.853C221.818 742.876 224.151 743.842 225.493 744.999L227.932 747.103L225.493 746.057C224.151 745.482 218.388 744.664 212.686 744.24C201.007 743.371 198.647 742.047 194.921 734.277C192.826 729.913 191.796 729.039 188.822 729.105C186.395 729.161 184.457 728.119 182.803 725.873C178.047 719.416 177.559 717.481 179.791 713.927C182.348 709.855 182.609 702.803 180.279 700.722C178.195 698.859 178.009 695.322 179.891 693.297C180.682 692.446 180.822 691.103 180.227 690.08C179.664 689.115 179.357 687.327 179.544 686.107C179.729 684.886 178.805 681.489 177.489 678.558C176.172 675.625 175.596 673.226 176.205 673.226C177.737 673.226 177.606 668.323 176.044 667.285C175.347 666.82 175.117 665.28 175.536 663.862C176.532 660.48 174.107 657.471 170.385 657.471C168.749 657.471 167.732 656.915 168.122 656.235C169.243 654.281 164.761 644.396 162.385 643.585C161.204 643.182 160.238 641.744 160.238 640.392C160.238 639.038 159.631 637.527 158.888 637.033C157.947 636.407 158.039 635.802 159.19 635.036C160.558 634.127 160.49 633.192 158.802 629.621C155.93 623.54 154.328 617.263 153.515 608.892C153.129 604.92 152.526 600.638 152.174 599.373C151.823 598.109 152.139 597.076 152.876 597.076C155.803 597.076 155.452 592.719 151.894 584.918C146.622 573.358 146.215 570.7 149.185 567.268C151.04 565.124 151.477 563.382 150.916 560.361C150.503 558.138 149.767 556.055 149.279 555.732C148.792 555.407 148.857 552.021 149.423 548.208C150.483 541.078 149.78 533.226 147.847 530.593C146.26 528.43 140.734 516.522 140.727 515.252C140.725 514.659 139.885 513.271 138.86 512.168C136.888 510.045 137.285 503.187 139.691 497.835C140.575 495.867 140.435 493.833 139.193 490.614C137.237 485.545 137.634 477.532 140.132 471.691C141.058 469.524 142.129 466.128 142.512 464.141C142.901 462.125 144.023 460.531 145.053 460.531C147.783 460.531 148.513 457.104 146.455 453.942C145.462 452.418 144.929 450.023 145.271 448.622C145.611 447.222 145.242 445.234 144.449 444.207C143.657 443.179 142.906 439.496 142.78 436.022C142.559 429.895 142.698 429.624 147.431 426.983C152.3 424.265 152.311 424.243 152.668 415.602Z" fill="#037FB2"/>
<path d="M228.676 639.835C227.991 639.378 227.775 638.034 228.2 636.846C228.875 634.947 229.072 634.992 229.822 637.216C230.812 640.152 230.438 641.008 228.676 639.835Z" fill="#037FB2"/>
<path d="M226.013 759.086C221.002 759.949 220.756 759.508 223.832 755.178C224.387 754.396 226.067 753.806 227.566 753.865C229.651 753.946 231.091 755.775 233.687 761.639C235.553 765.856 237.08 769.56 237.08 769.869C237.08 770.649 230.862 768.978 228.118 767.46C225.965 766.271 225.978 766.128 228.423 764.285C229.83 763.225 230.982 761.428 230.982 760.293C230.982 758.616 230.054 758.39 226.013 759.086Z" fill="#037FB2"/>
<path d="M243.374 774.114C243.146 773.476 241.658 770.32 240.067 767.099L237.175 761.245L242.922 765.589C246.082 767.979 252.235 771.524 256.596 773.467L264.524 777L254.156 776.137C248.454 775.663 243.602 774.752 243.374 774.114Z" fill="#037FB2"/>
<path d="M74.1488 13.0134C77.7217 13.0134 87.2864 7.53257 91.7261 2.94234C95.0806 -0.526848 97.9963 -1.00359 97.9963 1.91425C97.9963 3.07195 96.4968 4.23235 94.4284 4.67369C89.8354 5.6546 81.308 16.6959 79.5093 23.9879C78.7773 26.9555 77.3735 30.726 76.3889 32.3669C74.3083 35.8348 75.077 37.8962 78.4512 37.8962C79.9299 37.8962 80.831 38.7933 80.831 40.2653C80.831 41.5684 81.5924 43.7462 82.523 45.1055C83.7577 46.9102 83.8987 48.5447 83.0429 51.1665C82.0853 54.1001 82.3894 55.5067 84.7018 58.8489C87.3355 62.652 88.0086 62.9192 94.2972 62.6547C103.21 62.2814 105.425 63.206 108.742 68.6867C111.5 73.2468 111.561 73.2704 118.55 72.5016C122.419 72.076 126.255 71.5076 127.077 71.2391C129.699 70.3813 129.728 72.4833 127.172 78.4355C124.368 84.9692 124.718 94.8777 127.936 100.124C129.585 102.813 129.531 103.303 127.362 105.401C124.208 108.449 124.334 109.452 128.342 113.22C130.869 115.596 131.209 116.402 129.699 116.432C128.591 116.455 127.321 117.488 126.874 118.729C126.205 120.593 125.88 120.664 124.997 119.14C124.192 117.746 123.525 117.657 122.263 118.776C121.345 119.589 117.302 120.435 113.279 120.656L105.966 121.057L105.581 126.796C105.254 131.685 105.496 132.41 107.224 131.702C108.34 131.245 109.892 131.302 110.674 131.83C111.525 132.404 110.63 133.065 108.445 133.479C103.563 134.402 101.808 139.401 104.491 144.739C108.23 152.182 110.234 157.361 109.719 158.253C109.432 158.749 108.536 165.421 107.729 173.079C106.358 186.094 106.115 186.906 104.008 185.5C101.829 184.047 101.836 183.842 104.229 179.512C105.591 177.046 106.429 174.261 106.092 173.322C104.495 168.874 89.3891 164.768 86.3938 167.968C85.4068 169.022 83.1827 169.507 80.9401 169.154C77.9215 168.682 77.1528 167.927 77.1528 165.436C77.1528 163.531 76.4343 162.31 75.3136 162.31C74.3021 162.31 73.4733 161.278 73.4708 160.018C73.4696 158.759 71.8254 156.55 69.8171 155.114C67.81 153.677 65.5809 150.99 64.8649 149.143C63.515 145.664 57.9056 141.356 54.7227 141.356C53.7222 141.356 51.5998 140.226 50.0084 138.843C47.7156 136.852 45.9022 136.482 41.2897 137.061C36.3694 137.679 35.4657 137.448 35.4657 135.578C35.4657 134.339 33.7112 132.537 31.4809 131.484C25.7453 128.779 19.502 123.036 22.2853 123.028C23.8326 123.023 24.4309 121.966 24.4309 119.238C24.4309 116.022 25.0268 115.326 28.4157 114.589C31.7875 113.855 32.9191 112.551 35.7723 106.113C39.106 98.5878 40.0084 94.2113 38.2244 94.2087C37.0486 94.2061 37.1958 78.1827 38.39 76.1175C38.8841 75.2636 38.8559 73.8296 38.3274 72.9286C37.799 72.0289 37.5378 70.181 37.7462 68.8242C37.9559 67.4674 37.143 64.4043 35.939 62.0155L33.7492 57.674L37.3355 54.662C39.3071 53.0053 41.6244 51.8226 42.4839 52.0335C43.504 52.2836 44.0484 50.9426 44.0484 48.1793C44.0484 44.9078 45.1899 42.8045 49.0557 38.9542C51.8095 36.2119 54.437 33.9674 54.8956 33.9674C55.3541 33.9674 56.4135 30.8871 57.2509 27.1219C58.0883 23.3567 59.9041 19.0834 61.2859 17.6271C63.6425 15.1415 63.8718 15.1193 65.0182 17.2697C66.693 20.4115 67.9277 20.1456 69.5731 16.2875C70.5405 14.0205 71.948 13.0134 74.1488 13.0134Z" fill="#475B7F"/>
</svg>
