<svg width="455" height="314" viewBox="0 0 455 314" fill="none" xmlns="http://www.w3.org/2000/svg">
<path d="M159.692 37.2132C159.063 37.2132 158.549 36.3257 158.549 35.241C158.549 33.0282 158.773 32.9387 161.512 34.0668C162.578 34.506 163.451 36.2467 163.451 37.9362C163.451 39.6257 164.466 41.7819 165.709 42.7259C168.866 45.1267 169.71 49.7759 170.622 69.7568C171.344 85.5882 171.226 87.1804 169.341 87.1777C165.386 87.1725 163.793 82.5259 164.297 72.473C164.558 67.2875 164.435 62.1139 164.023 60.9766C163.61 59.838 163.068 55.1889 162.818 50.645C162.304 41.285 161.356 37.2132 159.692 37.2132Z" fill="#003479"/>
<path d="M34.7964 61.7505C34.4766 55.0345 38.822 47.4192 43.6711 46.1951C45.481 45.7389 47.2382 45.3037 47.5752 45.23C50.9856 44.4754 54.8016 54.2614 54.4352 62.8181C54.2011 68.2574 53.4721 70.1058 50.1622 73.6452C45.6048 78.5191 42.3254 77.9065 40.9248 71.9216C40.3966 69.6628 39.5204 68.7281 38.3722 69.2001C36.023 70.1678 35.1064 68.256 34.7964 61.7505Z" fill="#CDD9E7"/>
<path d="M86.2573 42.7799C88.186 44.8775 90.6565 44.7078 92.8463 42.3263C94.4713 40.5591 94.88 40.5576 96.5038 42.3235C97.8872 43.8294 98.9145 43.9713 100.732 42.9139C103.655 41.2117 107.922 42.4735 107.922 45.0381C107.922 46.0676 109.314 47.9012 111.015 49.1126C113.92 51.1836 114.367 51.1663 118.353 48.8312C123.837 45.6192 126.099 47.0905 128.948 55.7289C131.458 63.3405 131.611 65.7856 129.704 67.8593C128.935 68.6951 127.273 72.5467 126.01 76.4168C124.058 82.4018 123.921 84.3985 125.09 89.7612C125.848 93.2293 126.96 96.399 127.563 96.805C130.307 98.6491 128.103 99.5274 121.777 99.1148C112.857 98.5323 102.427 100.634 93.9089 104.731C90.1709 106.528 86.8026 108 86.4232 108C86.0438 108 86.117 104.964 86.5867 101.253C87.3699 95.0535 87.1637 94.1938 84.0321 90.6395C82.1594 88.5127 80.0281 86.7721 79.2961 86.7721C78.53 86.7721 77.981 84.2472 78.0005 80.8057C78.0176 77.5247 78.458 74.838 78.9777 74.8353C80.9943 74.8261 82.4021 67.9376 80.8125 65.8546C79.4889 64.1192 79.6572 63.9679 82.0069 64.7785C84.3553 65.5892 84.7421 65.2416 84.7421 62.3162C84.7421 60.4428 84.0564 58.9011 83.2171 58.8905C82.052 58.8746 82.0691 58.6093 83.2878 57.7694C85.0324 56.5661 84.0797 49.6234 82.1704 49.6234C80.3685 49.6234 80.9467 44.7635 82.9633 42.9432C84.3895 41.6562 85.1886 41.6177 86.2573 42.7799Z" fill="#9BBACE"/>
<path d="M394.86 103.847C397.626 104.066 399.083 103.498 399.621 101.991C400.204 100.361 401.195 100.059 403.602 100.777C405.363 101.302 409.238 101.877 412.212 102.052C416.635 102.312 418.378 103.234 421.786 107.11C425.758 111.628 429.796 113.17 431.212 110.711C431.573 110.085 433.195 109.845 434.818 110.177C436.44 110.51 438.107 110.193 438.521 109.473C439.299 108.122 447.857 116.446 447.857 118.555C447.857 119.206 448.593 119.739 449.49 119.739C450.714 119.739 450.987 121.499 450.579 126.778C450.075 133.294 450.249 133.878 452.922 134.628C455.71 135.411 455.606 135.657 449.905 141.736C443.771 148.277 440.447 156.224 438.756 168.386C438.304 171.64 436.582 177.372 434.93 181.123C431.461 189.003 431.308 190.517 433.618 194.059C434.826 195.913 435.059 198.422 434.433 202.848C433.411 210.064 434.212 223.343 435.732 224.35C436.308 224.731 436.145 226.131 435.371 227.46C434.271 229.351 434.41 230.885 436.009 234.501C437.134 237.044 438.054 239.451 438.054 239.852C438.054 240.252 439.433 242.059 441.117 243.866C442.802 245.674 444.181 248.246 444.181 249.58C444.181 250.915 444.785 252.654 445.524 253.447C446.497 254.491 445.403 255.133 441.541 255.778C433.215 257.171 431.927 257.794 431.927 260.435C431.927 261.791 430.771 263.77 429.358 264.831C427.428 266.282 427.013 267.51 427.684 269.781C428.695 273.199 428.625 281.548 427.503 291.491C426.784 297.863 426.962 298.463 430.742 302.338C434.952 306.655 436.773 307.287 438.788 305.125C439.604 304.249 439.848 305.318 439.522 308.323C438.86 314.399 435.903 315.407 432.361 310.762C430.823 308.746 429.545 306.475 429.52 305.717C429.496 304.958 427.546 303.588 425.188 302.673C422.829 301.758 420.366 300.013 419.714 298.794C416.429 292.65 416.102 292.468 413.843 295.511C411.87 298.171 411.264 298.279 405.886 296.934C400.994 295.71 400.066 294.988 400.066 292.412C400.066 289.05 398.362 288.606 393.336 290.657C391.569 291.378 390.416 291.456 390.776 290.833C391.136 290.209 390.467 288.763 389.29 287.62C387.589 285.969 386.148 285.791 382.272 286.756C379.59 287.423 375.974 287.983 374.237 288C371.453 288.028 371.14 287.586 371.595 284.261C371.883 282.154 371.143 278.528 369.916 276.043C368.316 272.798 367.653 268.153 367.467 258.852C367.326 251.843 366.85 245.484 366.409 244.718C365.969 243.954 363.16 243.329 360.167 243.329C355.972 243.329 354.725 242.842 354.725 241.203C354.725 239.641 353.994 239.287 351.967 239.871C350.451 240.306 347.764 240.671 345.997 240.681C343.199 240.696 342.682 241.38 342 245.958C341.307 250.603 340.824 251.219 337.86 251.232C336.015 251.24 332.484 251.605 330.015 252.043C325.867 252.779 325.353 252.502 323.275 248.413C322.037 245.978 320.135 240.436 319.05 236.097L317.073 228.209H296.804C277.55 228.209 276.596 228.089 277.737 225.805C278.396 224.482 278.651 222.604 278.302 221.628C277.369 219.018 280.528 216.803 283.892 217.709C285.948 218.262 287.5 217.692 289.101 215.793C291.981 212.378 293.453 212.354 293.453 215.718C293.453 219.171 299 219.338 300.696 215.935C301.358 214.608 303.83 212.105 306.188 210.372C311.588 206.402 313.06 202.93 313.06 194.163C313.06 189.082 313.724 186.373 315.511 184.163C316.859 182.496 317.962 180.384 317.962 179.471C317.962 178.557 320.11 175.985 322.735 173.754C327.64 169.586 328.103 168.21 329.641 153.266C330.731 142.672 332.303 134.739 334.299 129.768C335.423 126.967 336.343 121.594 336.343 117.824C336.343 111.96 336.928 110.248 340.396 105.942L344.449 100.912L348.825 105.608C353.133 110.229 354.499 110.732 369.99 113.408C371.609 113.688 372.927 112.644 374.042 110.2C375.317 107.408 376.315 106.744 378.397 107.306C379.884 107.706 383.299 107.021 385.988 105.782C388.675 104.544 392.668 103.672 394.86 103.847Z" fill="#003479"/>
<path d="M441.905 178.952C442.603 179.415 444.143 179.195 445.328 178.464C447.964 176.837 450.281 179.506 450.072 183.93C449.956 186.411 449.333 186.818 446.179 186.48C443.147 186.156 442.147 186.73 440.988 189.461C439.727 192.43 439.253 192.644 437.114 191.211C435.531 190.15 435.096 189.129 435.872 188.296C436.529 187.592 437.067 185.726 437.067 184.151C437.067 180.874 440.019 177.702 441.905 178.952Z" fill="#A5CDC9"/>
<path d="M198.921 9.27106C198.921 6.64881 202.811 3.51762 206.85 2.88928C208.863 2.57707 210.581 2.23207 210.666 2.1245C211.476 1.10394 220.065 6.61862 221.605 9.14904C223.895 12.906 226.513 13.2838 230.333 10.4057C232.773 8.56924 233.451 8.61916 237.977 10.9699C246.773 15.5401 249.901 15.7277 253.213 11.8855C256.531 8.0341 262.288 7.42406 271.185 9.98203C276 11.366 276.747 11.2151 281.218 7.95143L286.049 4.42683L288.206 7.43982C289.393 9.09791 290.724 12.4495 291.165 14.8868C291.66 17.6297 292.829 19.562 294.23 19.9555C295.98 20.4474 296.322 21.375 295.736 24.0497C294.81 28.2894 294.139 29.0906 291.026 29.6875C289.349 30.0089 288.015 32.0673 286.756 36.2794C285.75 39.648 284.514 42.8395 284.011 43.3721C283.509 43.906 283.096 45.3908 283.096 46.6724C283.096 47.954 281.986 49.8392 280.63 50.861C279.25 51.9 278.462 53.5606 278.844 54.6284C279.218 55.6778 278.133 58.1532 276.431 60.1274C274.729 62.1016 273.337 64.2897 273.337 64.9902C273.337 65.692 271.61 70.6911 269.498 76.1009C266 85.0577 265.538 85.6821 264.313 83.086C262.534 79.3186 258.583 76.7711 257.852 78.9211C257.559 79.7816 256.487 80.1438 255.469 79.7227C252.733 78.5946 242.514 91.6901 241.001 98.2608C240.088 102.229 239.23 103.492 237.646 103.205C236.417 102.982 235.519 103.642 235.519 104.767C235.519 107.442 233.018 108.886 231.864 106.878C231.345 105.976 230.172 105.525 229.256 105.877C228.339 106.228 226.535 105.931 225.246 105.214C223.52 104.257 222.556 104.42 221.586 105.831C220.862 106.884 218.751 108.154 216.895 108.65C214.003 109.425 213.345 109.057 212.29 106.071C211.612 104.156 211.357 101.574 211.723 100.336C212.449 97.8764 209.51 90.6747 208.307 91.9681C207.898 92.4075 205.851 91.2179 203.759 89.3237C201.666 87.4308 198.944 85.8816 197.709 85.8816C196.475 85.8816 195.269 85.2545 195.033 84.4884C194.729 83.5099 193.558 83.5203 191.102 84.5251C189.177 85.3109 187.407 85.7438 187.167 85.4854C185.928 84.1553 185.517 59.7903 186.719 58.9914C187.447 58.5074 188.904 55.7998 189.955 52.9755C191.006 50.1513 192.355 47.84 192.954 47.84C193.552 47.84 194.041 46.6948 194.041 45.2938C194.041 43.8929 194.639 42.3501 195.371 41.8634C196.667 41.0029 195.931 33.013 194.291 30.1599C192.939 27.8092 194.183 19.722 196.575 15.2986C197.865 12.9125 198.921 10.1998 198.921 9.27106Z" fill="#ABFFB8"/>
<path d="M260.094 150.509C268.554 150.509 268.363 150.727 267.919 141.606L267.646 136H275.365H283.084L282.855 141.936C282.607 148.354 283.392 148.933 289.136 146.567C291.871 145.44 292.445 145.666 293.335 148.215C294.104 150.414 293.781 151.771 292.074 153.528C288.249 157.464 289.868 167.656 294.319 167.656C295.348 167.656 295.203 173.067 293.938 181.845C293.391 185.641 292.971 186.047 290.332 185.33C288.507 184.834 287.345 185.086 287.345 185.98C287.345 188.593 284.303 187.522 283.068 184.474C282.407 182.842 280.633 181.316 279.127 181.084C276.886 180.74 276.388 181.29 276.388 184.113C276.388 187.34 276.114 187.505 272.127 186.695C267.932 185.843 267.866 185.898 267.95 190.263C267.998 192.701 268.459 195.869 268.976 197.303C269.701 199.313 269.223 200.297 266.883 201.612C265.215 202.55 263.774 203.158 263.681 202.964C262.363 200.219 252.689 187.442 251.928 187.442C251.361 187.442 251.212 186.551 251.597 185.463C251.983 184.375 251.656 183.485 250.869 183.485C250.044 183.485 249.734 182.477 250.136 181.104C250.55 179.691 249.84 177.566 248.393 175.882C245.747 172.807 245.231 169.613 247.168 168.316C247.837 167.868 248.385 166.093 248.385 164.373C248.385 162.171 249.168 161.119 251.03 160.824C254.002 160.349 255.648 157.104 252.917 157.104C251.697 157.104 251.337 156.094 251.74 153.807C252.289 150.699 252.771 150.509 260.094 150.509Z" fill="#037FB2"/>
<path d="M18.5058 2.79824C13.9988 -3.49781 9.49173 2.79824 1.60439 2.79824C-1.55054 4.30886 0.665423 5.52671 2.16777 5.94682C3.67012 6.36655 7.23821 6.70234 9.49173 4.68761C12.3086 2.16919 16.8157 4.68761 16.8157 5.31721C16.8157 5.94682 21.3227 7.83563 24.1397 6.57642C26.3932 5.56905 26.6217 2.16918 24.703 2.16918C23.0128 2.16918 23.4636 2.79824 18.5058 2.79824Z" fill="#475B7F"/>
</svg>
