<svg width="329" height="263" viewBox="0 0 329 263" fill="none" xmlns="http://www.w3.org/2000/svg">
<path d="M313.842 20.8466C314.045 19.0387 314.44 16.8207 314.723 15.9161C315.684 12.8448 318.99 14.1175 318.99 17.5596C318.99 19.4647 319.695 20.8466 320.667 20.8466C321.707 20.8466 322.603 22.9172 323.026 26.2949C323.4 29.2913 324.433 32.226 325.321 32.8137C326.607 33.667 326.625 34.2179 325.414 35.5169C323.19 37.9033 323.552 41.1443 326.343 43.8554C329.311 46.7374 329.459 50.09 326.811 54.4262C325.276 56.94 325.151 58.0918 326.257 59.5222C328.303 62.1663 325.933 63.376 320.749 62.3333C317.271 61.6326 316.54 61.881 316.54 63.7611C316.54 65.0128 317.738 67.4071 319.204 69.0808L321.869 72.1233H319.276C317.851 72.1233 316.238 72.8635 315.693 73.7668C314.66 75.4787 314.569 76.1557 314.27 84.31C314.102 88.9118 313.869 89.2063 311.015 88.4385C307.537 87.501 298.909 91.2732 300.04 93.2362C300.432 93.9172 299.293 94.4747 297.507 94.4747C292.47 94.4747 289.475 99.2249 290.337 105.849C291.133 111.965 290.745 112.287 280.881 113.711C265.81 115.885 255.933 115.661 249.753 113.007C246.384 111.559 244.215 110.348 244.933 110.314C245.651 110.28 247.461 107.918 248.956 105.065C252.672 97.9693 251.609 93.737 245.735 92.2461C241.771 91.2403 241.139 90.4593 239.533 84.5835C238.549 80.9836 237.77 75.8611 237.801 73.1974C237.835 70.2207 237.198 68.0842 236.146 67.6503C234.252 66.8706 233.763 61.605 235.585 61.605C236.217 61.605 236.77 60.569 236.814 59.3041C237.121 50.5713 237.576 49.1026 240.103 48.716C241.536 48.4964 243.587 49.2603 244.662 50.4134C246.426 52.3067 246.967 52.316 250.242 50.4977C252.237 49.3919 254.178 47.4434 254.556 46.1707C254.933 44.8967 257.593 42.647 260.464 41.1691C265.054 38.8065 265.73 37.8953 266.064 33.6091C266.358 29.8396 266.973 28.7353 268.773 28.7353C270.054 28.7353 271.775 27.9634 272.596 27.0194C274.516 24.8145 289.07 26.6855 291.666 29.4702C293.87 31.8355 293.901 31.8341 297.708 29.1572C300.102 27.4743 301.358 27.289 302.984 28.379C305.675 30.1829 308.567 28.3802 307.55 25.535C306.937 23.8218 307.462 23.4603 310.128 23.7588C312.899 24.0691 313.54 23.5669 313.842 20.8466Z" fill="#9EB6E3"/>
<path d="M203.12 180.987C204.644 179.655 204.757 178.593 203.695 175.597C202.576 172.441 202.678 171.888 204.355 172.017C205.445 172.101 207.547 173.997 209.026 176.231C211.764 180.369 214.425 181.887 224.068 184.815C227.633 185.898 230.131 187.637 231.34 189.88C232.353 191.759 234.715 194.458 236.591 195.876L240 198.455L237.69 203.945C236.421 206.965 234.243 210.738 232.851 212.329C231.459 213.92 230.32 215.994 230.32 216.94C230.32 217.894 228.966 218.657 227.269 218.657C223.753 218.657 222.368 222.357 222.488 231.424C222.545 235.718 222.106 236.99 220.565 236.99C217.179 236.99 213.337 240.728 212.488 244.848C211.939 247.507 210.933 248.775 209.374 248.775C204.474 248.775 200.804 251.669 200.804 255.534C200.804 258.949 200.429 259.255 196.192 259.297C193.656 259.324 190.197 260.187 188.506 261.216C184.077 263.912 182.506 263.612 181.632 259.906C181.208 258.106 180.275 256.633 179.559 256.633C178.843 256.633 178.602 256.265 179.024 255.815C179.446 255.366 178.109 251.558 176.054 247.353C173.999 243.147 172.658 239.116 173.076 238.396C173.495 237.676 175.616 236.51 177.789 235.806C187.561 232.642 197.625 228.023 198.948 226.097C199.743 224.94 201.131 218.943 202.033 212.773C203.636 201.794 203.612 201.468 200.861 197.505C198.26 193.76 198.169 193.053 199.636 188.051C200.508 185.078 202.076 181.898 203.12 180.987Z" fill="#345764"/>
<path d="M80.2553 8.47326C78.7166 4.53076 78.6235 3.10241 79.8058 1.57708C81.086 -0.0741543 81.6495 0.125266 83.7959 2.98837C89.2281 10.2373 96.6756 10.8091 103.433 4.49668C109.798 -1.44856 111.933 -1.49452 110.912 4.3353C110.216 8.30535 110.565 9.0503 114.452 11.8767C116.824 13.6027 119.105 16.1944 119.52 17.6371C120.78 22.0085 123.859 24.8506 127.337 24.8506C129.15 24.8506 131.598 25.9929 132.777 27.3884C136.694 32.0207 145.637 35.6459 151.133 34.8274C153.88 34.4182 158.883 33.7087 162.252 33.2509C168.373 32.4181 170.648 30.7839 169.672 27.9221C169.386 27.0867 170.495 26.0428 172.136 25.6021C173.775 25.1614 175.116 23.9468 175.116 22.9041C175.116 20.3991 178.963 18.2929 183.539 18.2929C185.565 18.2929 187.563 17.7027 187.98 16.9813C189.046 15.136 193.179 15.3485 194.35 17.3092C195.415 19.0903 206.604 23.5391 210.02 23.5391C211.18 23.5391 213.715 24.8663 215.654 26.49C225.059 34.3619 226.515 35.343 228.789 35.343C230.428 35.343 231.675 36.7029 232.577 39.4729C234.412 45.1086 234.311 55.9696 232.419 56.645C230.547 57.3139 230.387 68.4005 232.24 69.0615C232.969 69.3212 233.319 70.9134 233.019 72.6C232.717 74.2854 233.302 77.3833 234.316 79.4844C235.332 81.5855 236.548 85.5135 237.023 88.214C237.907 93.2648 240.441 95.6741 244.867 95.6741C248.314 95.6741 248.117 99.1785 244.335 105.137C242.651 107.79 241.273 110.578 241.273 111.331C241.273 112.085 243.202 115.407 245.56 118.715C247.919 122.023 249.848 125.184 249.848 125.741C249.848 126.297 252.087 127.833 254.824 129.154C260.446 131.869 262.1 134.375 262.1 140.18C262.1 143.326 262.632 144.201 264.55 144.201C265.911 144.201 267 145.076 267 146.169C267 147.43 265.817 148.136 263.698 148.136C258.498 148.136 253.524 154.102 253.524 160.338C253.524 165.301 253.4 165.459 250.155 164.602C245.891 163.476 240.78 162.602 234.534 161.933C231.839 161.645 226.326 160.615 222.283 159.646C215.062 157.913 214.899 157.777 213.095 151.866C209.565 140.307 205.729 138.942 195.578 145.628C190.384 149.05 188.975 149.458 186.502 148.251C184.894 147.467 182.804 146.824 181.858 146.824C180.914 146.824 177.584 144.907 174.46 142.562C164.531 135.112 162.3 133.723 160.252 133.715C159.045 133.711 157.043 130.977 155.206 126.823C153.53 123.037 150.158 117.373 147.712 114.239C145.265 111.106 143.263 108.044 143.263 107.436C143.263 106.829 141.413 106.653 139.153 107.045C135.703 107.644 134.934 107.314 134.365 104.99C133.497 101.434 129.787 102.701 129.787 106.555V109.284L127.337 106.468C125.989 104.92 124.886 102.43 124.886 100.933C124.886 99.4382 124.059 97.8748 123.049 97.4603C121.909 96.9921 121.211 94.9946 121.211 92.2023C121.211 87.4728 116.982 79.9355 114.327 79.9355C112.091 79.9355 104.172 74.267 104.111 72.6223C104.083 71.8472 102.681 69.8261 100.997 68.1316C97.3715 64.4868 96.7821 56.4366 99.8952 53.1039C101.175 51.7333 101.593 49.8788 101.097 47.7633C100.661 45.9061 100.87 44.5238 101.586 44.5238C102.272 44.5238 102.834 43.6385 102.834 42.5565C102.834 41.2895 101.635 40.5824 99.4652 40.5693C97.6116 40.5575 95.4898 40.1155 94.7473 39.5856C92.6708 38.101 86.9078 27.7713 86.9078 25.5325C86.9078 24.436 86.3565 23.5391 85.6826 23.5391C85.0088 23.5391 84.4575 22.6354 84.4575 21.5311C84.4575 20.4254 83.6918 19.2069 82.7558 18.8227C81.8186 18.4384 81.3102 17.0704 81.6238 15.7838C81.9387 14.4972 81.3224 11.2078 80.2553 8.47326Z" fill="#41A79B"/>
<path d="M158.65 170.922C156.499 171.673 155.363 166.89 156.372 161.334C156.849 158.713 157.832 156.773 158.557 157.021C160.422 157.663 160.507 170.274 158.65 170.922Z" fill="#475B7F"/>
<path d="M60.4299 33.6121C62.441 32.2809 64.9163 29.898 65.9323 28.3176C67.415 26.0094 68.5086 25.6134 71.4741 26.3111C73.5061 26.7898 75.9999 27.22 77.0158 27.2672C78.0318 27.3144 79.5453 28.2888 80.379 29.4351C81.6044 31.1177 82.1007 31.1846 82.9689 29.7839C83.7595 28.5078 84.5526 29.1964 85.9898 32.4069C88.1991 37.3486 92.5241 42.6642 94.3356 42.6642C95.0031 42.6642 96.0919 44.1842 96.7557 46.0413C97.6571 48.5685 97.4945 50.1292 96.1091 52.2355C95.0906 53.7844 94.2569 57.3187 94.2569 60.0899C94.2569 64.0598 95.0277 65.82 97.8897 68.3853C99.9488 70.2292 101.237 72.4391 100.861 73.4805C100.434 74.6661 101.659 75.9881 104.308 77.2C106.569 78.2334 110.738 81.2262 113.572 83.8505C118.12 88.063 118.647 89.1252 118.069 92.9181C117.612 95.9109 118.01 97.7406 119.382 98.9524C120.464 99.9085 121.35 101.31 121.35 102.067C121.35 102.824 122.143 104.374 123.111 105.512C124.686 107.363 124.395 107.583 120.38 107.583C116.353 107.583 115.577 108.176 112.914 113.291L109.943 119L101.792 118.073C97.3086 117.564 93.364 116.721 93.0254 116.199C92.6867 115.677 86.1253 110.185 78.4456 103.995C63.2661 91.7627 51.855 84.6557 47.2874 84.5901C43.28 84.5324 40.9748 82.2282 39.0351 76.3396C37.5389 71.7992 37.598 71.1526 39.6509 69.4962C40.8972 68.4889 42.3724 67.6469 42.9278 67.6247C44.2504 67.5696 55.1863 59.6362 56.424 57.8329C56.9523 57.0644 57.2478 51.8446 57.0803 46.2327C56.781 36.1971 56.8352 35.9925 60.4299 33.6121Z" fill="#037FB2"/>
<path d="M7.26177 68.5733C7.99699 63.3821 8.5196 61.54 9.7344 59.8562C10.4832 58.8198 11.3214 58.7236 12.2127 59.5714C13.6345 60.9269 13.0011 64.6176 11.3463 64.6176C10.8101 64.6176 9.56706 66.25 8.583 68.2437C6.79812 71.8619 6.79462 71.8619 7.26177 68.5733Z" fill="#849EA5"/>
<path d="M190.103 176.841C194.554 171.006 194.763 170.708 198.763 164.478C201.044 160.924 201.956 160.35 203.336 161.607C205.909 163.953 205.414 167.827 202.429 168.684C200.17 169.333 199.901 170.123 200.521 174.309C201.048 177.881 200.76 179.381 199.442 179.937C198.453 180.354 197.735 181.385 197.846 182.229C197.957 183.072 197.614 186.382 197.084 189.584C196.127 195.364 196.089 195.399 191.684 194.679C189.243 194.281 184.483 193.572 181.105 193.107C176.388 192.458 174.178 191.31 171.583 188.163C168.426 184.335 168.345 183.946 170.355 182.303C171.821 181.103 174.675 180.783 179.313 181.303C186.03 182.053 186.17 181.995 190.103 176.841Z" fill="#CDD9E7"/>
<path d="M4.76 78.4715C3.81751 78.4715 3.32681 77.6905 3.66986 76.7351C4.01414 75.781 4.78574 75 5.38517 75C5.98461 75 6.47532 75.781 6.47532 76.7351C6.47532 77.6905 5.70371 78.4715 4.76 78.4715Z" fill="#003479"/>
<path d="M5.25448 86.7149C4.58302 86.7149 4.03364 85.5082 4.03364 84.0347C4.03364 82.5612 4.58302 81.7166 5.25448 82.1591C5.92594 82.6017 6.47532 83.807 6.47532 84.8392C6.47532 85.8714 5.92594 86.7149 5.25448 86.7149Z" fill="#003479"/>
<path d="M1.38928 102.918C0.240476 99.1263 -0.28319 94.7162 0.152649 92.5047C0.814344 89.1477 0.962058 89.0332 1.33563 91.5962C1.57004 93.2076 2.54781 94.5249 3.50861 94.5249C5.418 94.5249 5.55975 96.398 4.24735 104.287L3.38164 109.494L1.38928 102.918Z" fill="#003479"/>
</svg>
